mtllib SM_BB_Hero_WindowDressings.mtl
o SM_BB_Hero_WindowDressings
v 250.1566 -146.7830 471.0000
v 164.1107 -239.1469 471.0000
v 198.5000 -271.1839 471.0000
v 284.5459 -178.8200 471.0000
v 250.1566 -146.7830 483.0000
v 284.5459 -178.8200 483.0000
v 198.5000 -271.1839 483.0000
v 164.1107 -239.1469 483.0000
v 250.1566 -146.7830 471.0000
v 284.5459 -178.8200 471.0000
v 284.5459 -178.8200 483.0000
v 250.1566 -146.7830 483.0000
v 164.1107 -239.1469 471.0000
v 164.1107 -239.1469 483.0000
v 198.5000 -271.1839 483.0000
v 198.5000 -271.1839 471.0000
v 250.1566 -146.7830 471.0000
v 250.1566 -146.7830 483.0000
v 164.1107 -239.1469 483.0000
v 164.1107 -239.1469 471.0000
v 284.5459 -178.8200 471.0000
v 198.5000 -271.1839 471.0000
v 198.5000 -271.1839 483.0000
v 284.5459 -178.8200 483.0000
v 247.6707 -146.5172 286.5000
v 163.6698 -236.6861 286.5000
v 205.3760 -275.5395 286.5000
v 289.3770 -185.3707 286.5000
v 247.6707 -146.5172 297.5000
v 289.3770 -185.3707 297.5000
v 205.3760 -275.5395 297.5000
v 163.6698 -236.6861 297.5000
v 247.6707 -146.5172 286.5000
v 289.3770 -185.3707 286.5000
v 289.3770 -185.3707 297.5000
v 247.6707 -146.5172 297.5000
v 163.6698 -236.6861 286.5000
v 163.6698 -236.6861 297.5000
v 205.3760 -275.5395 297.5000
v 205.3760 -275.5395 286.5000
v 247.6707 -146.5172 286.5000
v 247.6707 -146.5172 297.5000
v 163.6698 -236.6861 297.5000
v 163.6698 -236.6861 286.5000
v 289.3770 -185.3707 286.5000
v 205.3760 -275.5395 286.5000
v 205.3760 -275.5395 297.5000
v 289.3770 -185.3707 297.5000
v 244.9537 -159.7031 264.0000
v 234.7291 -170.6785 264.0000
v 254.4847 -189.0827 264.0000
v 264.7093 -178.1074 264.0000
v 244.9537 -159.7031 288.0000
v 264.7093 -178.1074 288.0000
v 254.4847 -189.0827 288.0000
v 234.7291 -170.6785 288.0000
v 244.9537 -159.7031 264.0000
v 264.7093 -178.1074 264.0000
v 264.7093 -178.1074 288.0000
v 244.9537 -159.7031 288.0000
v 234.7291 -170.6785 264.0000
v 234.7291 -170.6785 288.0000
v 254.4847 -189.0827 288.0000
v 254.4847 -189.0827 264.0000
v 244.9537 -159.7031 264.0000
v 244.9537 -159.7031 288.0000
v 234.7291 -170.6785 288.0000
v 234.7291 -170.6785 264.0000
v 264.7093 -178.1074 264.0000
v 254.4847 -189.0827 264.0000
v 254.4847 -189.0827 288.0000
v 264.7093 -178.1074 288.0000
v 186.8550 -222.0678 264.0000
v 176.6304 -233.0431 264.0000
v 196.3860 -251.4474 264.0000
v 206.6106 -240.4720 264.0000
v 186.8550 -222.0678 288.0000
v 206.6106 -240.4720 288.0000
v 196.3860 -251.4474 288.0000
v 176.6304 -233.0431 288.0000
v 186.8550 -222.0678 264.0000
v 206.6106 -240.4720 264.0000
v 206.6106 -240.4720 288.0000
v 186.8550 -222.0678 288.0000
v 176.6304 -233.0431 264.0000
v 176.6304 -233.0431 288.0000
v 196.3860 -251.4474 288.0000
v 196.3860 -251.4474 264.0000
v 186.8550 -222.0678 264.0000
v 186.8550 -222.0678 288.0000
v 176.6304 -233.0431 288.0000
v 176.6304 -233.0431 264.0000
v 206.6106 -240.4720 264.0000
v 196.3860 -251.4474 264.0000
v 196.3860 -251.4474 288.0000
v 206.6106 -240.4720 288.0000
v -146.5837 -250.2734 471.0000
v -239.0161 -164.3011 471.0000
v -271.0258 -198.7159 471.0000
v -178.5934 -284.6882 471.0000
v -146.5837 -250.2734 483.0000
v -178.5934 -284.6882 483.0000
v -271.0258 -198.7159 483.0000
v -239.0161 -164.3011 483.0000
v -146.5837 -250.2734 471.0000
v -178.5934 -284.6882 471.0000
v -178.5934 -284.6882 483.0000
v -146.5837 -250.2734 483.0000
v -239.0161 -164.3011 471.0000
v -239.0161 -164.3011 483.0000
v -271.0258 -198.7159 483.0000
v -271.0258 -198.7159 471.0000
v -146.5837 -250.2734 471.0000
v -146.5837 -250.2734 483.0000
v -239.0161 -164.3011 483.0000
v -239.0161 -164.3011 471.0000
v -178.5934 -284.6882 471.0000
v -271.0258 -198.7159 471.0000
v -271.0258 -198.7159 483.0000
v -178.5934 -284.6882 483.0000
v -146.3200 -247.7873 286.5000
v -236.5557 -163.8582 286.5000
v -275.3759 -205.5954 286.5000
v -185.1402 -289.5245 286.5000
v -146.3200 -247.7873 297.5000
v -185.1402 -289.5245 297.5000
v -275.3759 -205.5954 297.5000
v -236.5557 -163.8582 297.5000
v -146.3200 -247.7873 286.5000
v -185.1402 -289.5245 286.5000
v -185.1402 -289.5245 297.5000
v -146.3200 -247.7873 297.5000
v -236.5557 -163.8582 286.5000
v -236.5557 -163.8582 297.5000
v -275.3759 -205.5954 297.5000
v -275.3759 -205.5954 286.5000
v -146.3200 -247.7873 286.5000
v -146.3200 -247.7873 297.5000
v -236.5557 -163.8582 297.5000
v -236.5557 -163.8582 286.5000
v -185.1402 -289.5245 286.5000
v -275.3759 -205.5954 286.5000
v -275.3759 -205.5954 297.5000
v -185.1402 -289.5245 297.5000
v -159.5080 -245.0808 264.0000
v -170.4915 -234.8650 264.0000
v -188.8800 -254.6352 264.0000
v -177.8965 -264.8510 264.0000
v -159.5080 -245.0808 288.0000
v -177.8965 -264.8510 288.0000
v -188.8800 -254.6352 288.0000
v -170.4915 -234.8650 288.0000
v -159.5080 -245.0808 264.0000
v -177.8965 -264.8510 264.0000
v -177.8965 -264.8510 288.0000
v -159.5080 -245.0808 288.0000
v -170.4915 -234.8650 264.0000
v -170.4915 -234.8650 288.0000
v -188.8800 -254.6352 288.0000
v -188.8800 -254.6352 264.0000
v -159.5080 -245.0808 264.0000
v -159.5080 -245.0808 288.0000
v -170.4915 -234.8650 288.0000
v -170.4915 -234.8650 264.0000
v -177.8965 -264.8510 264.0000
v -188.8800 -254.6352 264.0000
v -188.8800 -254.6352 288.0000
v -177.8965 -264.8510 288.0000
v -221.9189 -187.0318 264.0000
v -232.9024 -176.8159 264.0000
v -251.2909 -196.5862 264.0000
v -240.3074 -206.8020 264.0000
v -221.9189 -187.0318 288.0000
v -240.3074 -206.8020 288.0000
v -251.2909 -196.5862 288.0000
v -232.9024 -176.8159 288.0000
v -221.9189 -187.0318 264.0000
v -240.3074 -206.8020 264.0000
v -240.3074 -206.8020 288.0000
v -221.9189 -187.0318 288.0000
v -232.9024 -176.8159 264.0000
v -232.9024 -176.8159 288.0000
v -251.2909 -196.5862 288.0000
v -251.2909 -196.5862 264.0000
v -221.9189 -187.0318 264.0000
v -221.9189 -187.0318 288.0000
v -232.9024 -176.8159 288.0000
v -232.9024 -176.8159 264.0000
v -240.3074 -206.8020 264.0000
v -251.2909 -196.5862 264.0000
v -251.2909 -196.5862 288.0000
v -240.3074 -206.8020 288.0000
v -250.3900 146.3844 471.0000
v -164.4913 238.8852 471.0000
v -198.9317 270.8674 471.0000
v -284.8304 178.3666 471.0000
v -250.3900 146.3844 483.0000
v -284.8304 178.3666 483.0000
v -198.9317 270.8674 483.0000
v -164.4913 238.8852 483.0000
v -250.3900 146.3844 471.0000
v -284.8304 178.3666 471.0000
v -284.8304 178.3666 483.0000
v -250.3900 146.3844 483.0000
v -164.4913 238.8852 471.0000
v -164.4913 238.8852 483.0000
v -198.9317 270.8674 483.0000
v -198.9317 270.8674 471.0000
v -250.3900 146.3844 471.0000
v -250.3900 146.3844 483.0000
v -164.4913 238.8852 483.0000
v -164.4913 238.8852 471.0000
v -284.8304 178.3666 471.0000
v -198.9317 270.8674 471.0000
v -198.9317 270.8674 483.0000
v -284.8304 178.3666 483.0000
v -247.9038 146.1226 286.5000
v -164.0465 236.4251 286.5000
v -205.8146 275.2120 286.5000
v -289.6718 184.9095 286.5000
v -247.9038 146.1226 297.5000
v -289.6718 184.9095 297.5000
v -205.8146 275.2120 297.5000
v -164.0465 236.4251 297.5000
v -247.9038 146.1226 286.5000
v -289.6718 184.9095 286.5000
v -289.6718 184.9095 297.5000
v -247.9038 146.1226 297.5000
v -164.0465 236.4251 286.5000
v -164.0465 236.4251 297.5000
v -205.8146 275.2120 297.5000
v -205.8146 275.2120 286.5000
v -247.9038 146.1226 286.5000
v -247.9038 146.1226 297.5000
v -164.0465 236.4251 297.5000
v -164.0465 236.4251 286.5000
v -289.6718 184.9095 286.5000
v -205.8146 275.2120 286.5000
v -205.8146 275.2120 297.5000
v -289.6718 184.9095 297.5000
v -245.2077 159.3128 264.0000
v -235.0006 170.3044 264.0000
v -254.7855 188.6772 264.0000
v -264.9926 177.6856 264.0000
v -245.2077 159.3128 288.0000
v -264.9926 177.6856 288.0000
v -254.7855 188.6772 288.0000
v -235.0006 170.3044 288.0000
v -245.2077 159.3128 264.0000
v -264.9926 177.6856 264.0000
v -264.9926 177.6856 288.0000
v -245.2077 159.3128 288.0000
v -235.0006 170.3044 264.0000
v -235.0006 170.3044 288.0000
v -254.7855 188.6772 288.0000
v -254.7855 188.6772 264.0000
v -245.2077 159.3128 264.0000
v -245.2077 159.3128 288.0000
v -235.0006 170.3044 288.0000
v -235.0006 170.3044 264.0000
v -264.9926 177.6856 264.0000
v -254.7855 188.6772 264.0000
v -254.7855 188.6772 288.0000
v -264.9926 177.6856 288.0000
v -187.2084 221.7699 264.0000
v -177.0014 232.7615 264.0000
v -196.7862 251.1343 264.0000
v -206.9933 240.1427 264.0000
v -187.2084 221.7699 288.0000
v -206.9933 240.1427 288.0000
v -196.7862 251.1343 288.0000
v -177.0014 232.7615 288.0000
v -187.2084 221.7699 264.0000
v -206.9933 240.1427 264.0000
v -206.9933 240.1427 288.0000
v -187.2084 221.7699 288.0000
v -177.0014 232.7615 264.0000
v -177.0014 232.7615 288.0000
v -196.7862 251.1343 288.0000
v -196.7862 251.1343 264.0000
v -187.2084 221.7699 264.0000
v -187.2084 221.7699 288.0000
v -177.0014 232.7615 288.0000
v -177.0014 232.7615 264.0000
v -206.9933 240.1427 264.0000
v -196.7862 251.1343 264.0000
v -196.7862 251.1343 288.0000
v -206.9933 240.1427 288.0000
v 146.1850 250.5065 471.0000
v 238.7542 164.6815 471.0000
v 270.7089 199.1473 471.0000
v 178.1397 284.9723 471.0000
v 146.1850 250.5065 483.0000
v 178.1397 284.9723 483.0000
v 270.7089 199.1473 483.0000
v 238.7542 164.6815 483.0000
v 146.1850 250.5065 471.0000
v 178.1397 284.9723 471.0000
v 178.1397 284.9723 483.0000
v 146.1850 250.5065 483.0000
v 238.7542 164.6815 471.0000
v 238.7542 164.6815 483.0000
v 270.7089 199.1473 483.0000
v 270.7089 199.1473 471.0000
v 146.1850 250.5065 471.0000
v 146.1850 250.5065 483.0000
v 238.7542 164.6815 483.0000
v 238.7542 164.6815 471.0000
v 178.1397 284.9723 471.0000
v 270.7089 199.1473 471.0000
v 270.7089 199.1473 483.0000
v 178.1397 284.9723 483.0000
v 145.9251 248.0200 286.5000
v 236.2944 164.2347 286.5000
v 275.0481 206.0337 286.5000
v 184.6788 289.8190 286.5000
v 145.9251 248.0200 297.5000
v 184.6788 289.8190 297.5000
v 275.0481 206.0337 297.5000
v 236.2944 164.2347 297.5000
v 145.9251 248.0200 286.5000
v 184.6788 289.8190 286.5000
v 184.6788 289.8190 297.5000
v 145.9251 248.0200 297.5000
v 236.2944 164.2347 286.5000
v 236.2944 164.2347 297.5000
v 275.0481 206.0337 297.5000
v 275.0481 206.0337 286.5000
v 145.9251 248.0200 286.5000
v 145.9251 248.0200 297.5000
v 236.2944 164.2347 297.5000
v 236.2944 164.2347 286.5000
v 184.6788 289.8190 286.5000
v 275.0481 206.0337 286.5000
v 275.0481 206.0337 297.5000
v 184.6788 289.8190 297.5000
v 159.1175 245.3345 264.0000
v 170.1172 235.1362 264.0000
v 188.4742 254.9357 264.0000
v 177.4745 265.1340 264.0000
v 159.1175 245.3345 288.0000
v 177.4745 265.1340 288.0000
v 188.4742 254.9357 288.0000
v 170.1172 235.1362 288.0000
v 159.1175 245.3345 264.0000
v 177.4745 265.1340 264.0000
v 177.4745 265.1340 288.0000
v 159.1175 245.3345 288.0000
v 170.1172 235.1362 264.0000
v 170.1172 235.1362 288.0000
v 188.4742 254.9357 288.0000
v 188.4742 254.9357 264.0000
v 159.1175 245.3345 264.0000
v 159.1175 245.3345 288.0000
v 170.1172 235.1362 288.0000
v 170.1172 235.1362 264.0000
v 177.4745 265.1340 264.0000
v 188.4742 254.9357 264.0000
v 188.4742 254.9357 288.0000
v 177.4745 265.1340 288.0000
v 221.6208 187.3850 264.0000
v 232.6205 177.1867 264.0000
v 250.9775 196.9862 264.0000
v 239.9778 207.1845 264.0000
v 221.6208 187.3850 288.0000
v 239.9778 207.1845 288.0000
v 250.9775 196.9862 288.0000
v 232.6205 177.1867 288.0000
v 221.6208 187.3850 264.0000
v 239.9778 207.1845 264.0000
v 239.9778 207.1845 288.0000
v 221.6208 187.3850 288.0000
v 232.6205 177.1867 264.0000
v 232.6205 177.1867 288.0000
v 250.9775 196.9862 288.0000
v 250.9775 196.9862 264.0000
v 221.6208 187.3850 264.0000
v 221.6208 187.3850 288.0000
v 232.6205 177.1867 288.0000
v 232.6205 177.1867 264.0000
v 239.9778 207.1845 264.0000
v 250.9775 196.9862 264.0000
v 250.9775 196.9862 288.0000
v 239.9778 207.1845 288.0000
v 226.4707 -128.9488 971.0000
v 144.6457 -216.7819 971.0000
v 179.0351 -248.8189 971.0000
v 260.8600 -160.9858 971.0000
v 226.4707 -128.9488 983.0000
v 260.8600 -160.9858 983.0000
v 179.0351 -248.8189 983.0000
v 144.6457 -216.7819 983.0000
v 226.4707 -128.9488 971.0000
v 260.8600 -160.9858 971.0000
v 260.8600 -160.9858 983.0000
v 226.4707 -128.9488 983.0000
v 144.6457 -216.7819 971.0000
v 144.6457 -216.7819 983.0000
v 179.0351 -248.8189 983.0000
v 179.0351 -248.8189 971.0000
v 226.4707 -128.9488 971.0000
v 226.4707 -128.9488 983.0000
v 144.6457 -216.7819 983.0000
v 144.6457 -216.7819 971.0000
v 260.8600 -160.9858 971.0000
v 179.0351 -248.8189 971.0000
v 179.0351 -248.8189 983.0000
v 260.8600 -160.9858 983.0000
v 223.9848 -128.6831 786.5000
v 144.2048 -214.3211 786.5000
v 185.9110 -253.1745 786.5000
v 265.6911 -167.5365 786.5000
v 223.9848 -128.6831 797.5000
v 265.6911 -167.5365 797.5000
v 185.9110 -253.1745 797.5000
v 144.2048 -214.3211 797.5000
v 223.9848 -128.6831 786.5000
v 265.6911 -167.5365 786.5000
v 265.6911 -167.5365 797.5000
v 223.9848 -128.6831 797.5000
v 144.2048 -214.3211 786.5000
v 144.2048 -214.3211 797.5000
v 185.9110 -253.1745 797.5000
v 185.9110 -253.1745 786.5000
v 223.9848 -128.6831 786.5000
v 223.9848 -128.6831 797.5000
v 144.2048 -214.3211 797.5000
v 144.2048 -214.3211 786.5000
v 265.6911 -167.5365 786.5000
v 185.9110 -253.1745 786.5000
v 185.9110 -253.1745 797.5000
v 265.6911 -167.5365 797.5000
v 221.2678 -141.8690 764.0000
v 211.0432 -152.8443 764.0000
v 230.7988 -171.2485 764.0000
v 241.0234 -160.2732 764.0000
v 221.2678 -141.8690 788.0000
v 241.0234 -160.2732 788.0000
v 230.7988 -171.2485 788.0000
v 211.0432 -152.8443 788.0000
v 221.2678 -141.8690 764.0000
v 241.0234 -160.2732 764.0000
v 241.0234 -160.2732 788.0000
v 221.2678 -141.8690 788.0000
v 211.0432 -152.8443 764.0000
v 211.0432 -152.8443 788.0000
v 230.7988 -171.2485 788.0000
v 230.7988 -171.2485 764.0000
v 221.2678 -141.8690 764.0000
v 221.2678 -141.8690 788.0000
v 211.0432 -152.8443 788.0000
v 211.0432 -152.8443 764.0000
v 241.0234 -160.2732 764.0000
v 230.7988 -171.2485 764.0000
v 230.7988 -171.2485 788.0000
v 241.0234 -160.2732 788.0000
v 167.3900 -199.7028 764.0000
v 157.1654 -210.6781 764.0000
v 176.9210 -229.0824 764.0000
v 187.1456 -218.1070 764.0000
v 167.3900 -199.7028 788.0000
v 187.1456 -218.1070 788.0000
v 176.9210 -229.0824 788.0000
v 157.1654 -210.6781 788.0000
v 167.3900 -199.7028 764.0000
v 187.1456 -218.1070 764.0000
v 187.1456 -218.1070 788.0000
v 167.3900 -199.7028 788.0000
v 157.1654 -210.6781 764.0000
v 157.1654 -210.6781 788.0000
v 176.9210 -229.0824 788.0000
v 176.9210 -229.0824 764.0000
v 167.3900 -199.7028 764.0000
v 167.3900 -199.7028 788.0000
v 157.1654 -210.6781 788.0000
v 157.1654 -210.6781 764.0000
v 187.1456 -218.1070 764.0000
v 176.9210 -229.0824 764.0000
v 176.9210 -229.0824 788.0000
v 187.1456 -218.1070 788.0000
v -128.7684 -226.5733 971.0000
v -216.6666 -144.8183 971.0000
v -248.6762 -179.2332 971.0000
v -160.7780 -260.9881 971.0000
v -128.7684 -226.5733 983.0000
v -160.7780 -260.9881 983.0000
v -248.6762 -179.2332 983.0000
v -216.6666 -144.8183 983.0000
v -128.7684 -226.5733 971.0000
v -160.7780 -260.9881 971.0000
v -160.7780 -260.9881 983.0000
v -128.7684 -226.5733 983.0000
v -216.6666 -144.8183 971.0000
v -216.6666 -144.8183 983.0000
v -248.6762 -179.2332 983.0000
v -248.6762 -179.2332 971.0000
v -128.7684 -226.5733 971.0000
v -128.7684 -226.5733 983.0000
v -216.6666 -144.8183 983.0000
v -216.6666 -144.8183 971.0000
v -160.7780 -260.9881 971.0000
v -248.6762 -179.2332 971.0000
v -248.6762 -179.2332 983.0000
v -160.7780 -260.9881 983.0000
v -128.5047 -224.0872 786.5000
v -214.2062 -144.3754 786.5000
v -253.0263 -186.1126 786.5000
v -167.3248 -265.8244 786.5000
v -128.5047 -224.0872 797.5000
v -167.3248 -265.8244 797.5000
v -253.0263 -186.1126 797.5000
v -214.2062 -144.3754 797.5000
v -128.5047 -224.0872 786.5000
v -167.3248 -265.8244 786.5000
v -167.3248 -265.8244 797.5000
v -128.5047 -224.0872 797.5000
v -214.2062 -144.3754 786.5000
v -214.2062 -144.3754 797.5000
v -253.0263 -186.1126 797.5000
v -253.0263 -186.1126 786.5000
v -128.5047 -224.0872 786.5000
v -128.5047 -224.0872 797.5000
v -214.2062 -144.3754 797.5000
v -214.2062 -144.3754 786.5000
v -167.3248 -265.8244 786.5000
v -253.0263 -186.1126 786.5000
v -253.0263 -186.1126 797.5000
v -167.3248 -265.8244 797.5000
v -141.6927 -221.3807 764.0000
v -152.6762 -211.1649 764.0000
v -171.0647 -230.9351 764.0000
v -160.0812 -241.1509 764.0000
v -141.6927 -221.3807 788.0000
v -160.0812 -241.1509 788.0000
v -171.0647 -230.9351 788.0000
v -152.6762 -211.1649 788.0000
v -141.6927 -221.3807 764.0000
v -160.0812 -241.1509 764.0000
v -160.0812 -241.1509 788.0000
v -141.6927 -221.3807 788.0000
v -152.6762 -211.1649 764.0000
v -152.6762 -211.1649 788.0000
v -171.0647 -230.9351 788.0000
v -171.0647 -230.9351 764.0000
v -141.6927 -221.3807 764.0000
v -141.6927 -221.3807 788.0000
v -152.6762 -211.1649 788.0000
v -152.6762 -211.1649 764.0000
v -160.0812 -241.1509 764.0000
v -171.0647 -230.9351 764.0000
v -171.0647 -230.9351 788.0000
v -160.0812 -241.1509 788.0000
v -199.5694 -167.5490 764.0000
v -210.5529 -157.3332 764.0000
v -228.9414 -177.1034 764.0000
v -217.9579 -187.3192 764.0000
v -199.5694 -167.5490 788.0000
v -217.9579 -187.3192 788.0000
v -228.9414 -177.1034 788.0000
v -210.5529 -157.3332 788.0000
v -199.5694 -167.5490 764.0000
v -217.9579 -187.3192 764.0000
v -217.9579 -187.3192 788.0000
v -199.5694 -167.5490 788.0000
v -210.5529 -157.3332 764.0000
v -210.5529 -157.3332 788.0000
v -228.9414 -177.1034 788.0000
v -228.9414 -177.1034 764.0000
v -199.5694 -167.5490 764.0000
v -199.5694 -167.5490 788.0000
v -210.5529 -157.3332 788.0000
v -210.5529 -157.3332 764.0000
v -217.9579 -187.3192 764.0000
v -228.9414 -177.1034 764.0000
v -228.9414 -177.1034 788.0000
v -217.9579 -187.3192 788.0000
v -226.6757 128.5880 971.0000
v -144.9908 216.5512 971.0000
v -179.4311 248.5334 971.0000
v -261.1161 160.5702 971.0000
v -226.6757 128.5880 983.0000
v -261.1161 160.5702 983.0000
v -179.4311 248.5334 983.0000
v -144.9908 216.5512 983.0000
v -226.6757 128.5880 971.0000
v -261.1161 160.5702 971.0000
v -261.1161 160.5702 983.0000
v -226.6757 128.5880 983.0000
v -144.9908 216.5512 971.0000
v -144.9908 216.5512 983.0000
v -179.4311 248.5334 983.0000
v -179.4311 248.5334 971.0000
v -226.6757 128.5880 971.0000
v -226.6757 128.5880 983.0000
v -144.9908 216.5512 983.0000
v -144.9908 216.5512 971.0000
v -261.1161 160.5702 971.0000
v -179.4311 248.5334 971.0000
v -179.4311 248.5334 983.0000
v -261.1161 160.5702 983.0000
v -224.1895 128.3262 786.5000
v -144.5459 214.0911 786.5000
v -186.3140 252.8781 786.5000
v -265.9576 167.1131 786.5000
v -224.1895 128.3262 797.5000
v -265.9576 167.1131 797.5000
v -186.3140 252.8781 797.5000
v -144.5459 214.0911 797.5000
v -224.1895 128.3262 786.5000
v -265.9576 167.1131 786.5000
v -265.9576 167.1131 797.5000
v -224.1895 128.3262 797.5000
v -144.5459 214.0911 786.5000
v -144.5459 214.0911 797.5000
v -186.3140 252.8781 797.5000
v -186.3140 252.8781 786.5000
v -224.1895 128.3262 786.5000
v -224.1895 128.3262 797.5000
v -144.5459 214.0911 797.5000
v -144.5459 214.0911 786.5000
v -265.9576 167.1131 786.5000
v -186.3140 252.8781 786.5000
v -186.3140 252.8781 797.5000
v -265.9576 167.1131 797.5000
v -221.4935 141.5164 764.0000
v -211.2864 152.5080 764.0000
v -231.0713 170.8807 764.0000
v -241.2783 159.8891 764.0000
v -221.4935 141.5164 788.0000
v -241.2783 159.8891 788.0000
v -231.0713 170.8807 788.0000
v -211.2864 152.5080 788.0000
v -221.4935 141.5164 764.0000
v -241.2783 159.8891 764.0000
v -241.2783 159.8891 788.0000
v -221.4935 141.5164 788.0000
v -211.2864 152.5080 764.0000
v -211.2864 152.5080 788.0000
v -231.0713 170.8807 788.0000
v -231.0713 170.8807 764.0000
v -221.4935 141.5164 764.0000
v -221.4935 141.5164 788.0000
v -211.2864 152.5080 788.0000
v -211.2864 152.5080 764.0000
v -241.2783 159.8891 764.0000
v -231.0713 170.8807 764.0000
v -231.0713 170.8807 788.0000
v -241.2783 159.8891 788.0000
v -167.7079 199.4359 764.0000
v -157.5008 210.4275 764.0000
v -177.2857 228.8003 764.0000
v -187.4928 217.8087 764.0000
v -167.7079 199.4359 788.0000
v -187.4928 217.8087 788.0000
v -177.2857 228.8003 788.0000
v -157.5008 210.4275 788.0000
v -167.7079 199.4359 764.0000
v -187.4928 217.8087 764.0000
v -187.4928 217.8087 788.0000
v -167.7079 199.4359 788.0000
v -157.5008 210.4275 764.0000
v -157.5008 210.4275 788.0000
v -177.2857 228.8003 788.0000
v -177.2857 228.8003 764.0000
v -167.7079 199.4359 764.0000
v -167.7079 199.4359 788.0000
v -157.5008 210.4275 788.0000
v -157.5008 210.4275 764.0000
v -187.4928 217.8087 764.0000
v -177.2857 228.8003 764.0000
v -177.2857 228.8003 788.0000
v -187.4928 217.8087 788.0000
v 128.4074 226.7781 971.0000
v 216.4357 145.1632 971.0000
v 248.3905 179.6290 971.0000
v 160.3622 261.2439 971.0000
v 128.4074 226.7781 983.0000
v 160.3622 261.2439 983.0000
v 248.3905 179.6290 983.0000
v 216.4357 145.1632 983.0000
v 128.4074 226.7781 971.0000
v 160.3622 261.2439 971.0000
v 160.3622 261.2439 983.0000
v 128.4074 226.7781 983.0000
v 216.4357 145.1632 971.0000
v 216.4357 145.1632 983.0000
v 248.3905 179.6290 983.0000
v 248.3905 179.6290 971.0000
v 128.4074 226.7781 971.0000
v 128.4074 226.7781 983.0000
v 216.4357 145.1632 983.0000
v 216.4357 145.1632 971.0000
v 160.3622 261.2439 971.0000
v 248.3905 179.6290 971.0000
v 248.3905 179.6290 983.0000
v 160.3622 261.2439 983.0000
v 128.1476 224.2916 786.5000
v 213.9759 144.7164 786.5000
v 252.7296 186.5153 786.5000
v 166.9013 266.0906 786.5000
v 128.1476 224.2916 797.5000
v 166.9013 266.0906 797.5000
v 252.7296 186.5153 797.5000
v 213.9759 144.7164 797.5000
v 128.1476 224.2916 786.5000
v 166.9013 266.0906 786.5000
v 166.9013 266.0906 797.5000
v 128.1476 224.2916 797.5000
v 213.9759 144.7164 786.5000
v 213.9759 144.7164 797.5000
v 252.7296 186.5153 797.5000
v 252.7296 186.5153 786.5000
v 128.1476 224.2916 786.5000
v 128.1476 224.2916 797.5000
v 213.9759 144.7164 797.5000
v 213.9759 144.7164 786.5000
v 166.9013 266.0906 786.5000
v 252.7296 186.5153 786.5000
v 252.7296 186.5153 797.5000
v 166.9013 266.0906 797.5000
v 141.3399 221.6061 764.0000
v 152.3397 211.4078 764.0000
v 170.6967 231.2073 764.0000
v 159.6969 241.4056 764.0000
v 141.3399 221.6061 788.0000
v 159.6969 241.4056 788.0000
v 170.6967 231.2073 788.0000
v 152.3397 211.4078 788.0000
v 141.3399 221.6061 764.0000
v 159.6969 241.4056 764.0000
v 159.6969 241.4056 788.0000
v 141.3399 221.6061 788.0000
v 152.3397 211.4078 764.0000
v 152.3397 211.4078 788.0000
v 170.6967 231.2073 788.0000
v 170.6967 231.2073 764.0000
v 141.3399 221.6061 764.0000
v 141.3399 221.6061 788.0000
v 152.3397 211.4078 788.0000
v 152.3397 211.4078 764.0000
v 159.6969 241.4056 764.0000
v 170.6967 231.2073 764.0000
v 170.6967 231.2073 788.0000
v 159.6969 241.4056 788.0000
v 199.3023 167.8666 764.0000
v 210.3020 157.6683 764.0000
v 228.6590 177.4678 764.0000
v 217.6593 187.6661 764.0000
v 199.3023 167.8666 788.0000
v 217.6593 187.6661 788.0000
v 228.6590 177.4678 788.0000
v 210.3020 157.6683 788.0000
v 199.3023 167.8666 764.0000
v 217.6593 187.6661 764.0000
v 217.6593 187.6661 788.0000
v 199.3023 167.8666 788.0000
v 210.3020 157.6683 764.0000
v 210.3020 157.6683 788.0000
v 228.6590 177.4678 788.0000
v 228.6590 177.4678 764.0000
v 199.3023 167.8666 764.0000
v 199.3023 167.8666 788.0000
v 210.3020 157.6683 788.0000
v 210.3020 157.6683 764.0000
v 217.6593 187.6661 764.0000
v 228.6590 177.4678 764.0000
v 228.6590 177.4678 788.0000
v 217.6593 187.6661 788.0000
v 204.6796 -112.5414 1431.0000
v 126.7379 -196.2060 1431.0000
v 161.1273 -228.2431 1431.0000
v 239.0690 -144.5784 1431.0000
v 204.6796 -112.5414 1443.0000
v 239.0690 -144.5784 1443.0000
v 161.1273 -228.2431 1443.0000
v 126.7379 -196.2060 1443.0000
v 204.6796 -112.5414 1431.0000
v 239.0690 -144.5784 1431.0000
v 239.0690 -144.5784 1443.0000
v 204.6796 -112.5414 1443.0000
v 126.7379 -196.2060 1431.0000
v 126.7379 -196.2060 1443.0000
v 161.1273 -228.2431 1443.0000
v 161.1273 -228.2431 1431.0000
v 204.6796 -112.5414 1431.0000
v 204.6796 -112.5414 1443.0000
v 126.7379 -196.2060 1443.0000
v 126.7379 -196.2060 1431.0000
v 239.0690 -144.5784 1431.0000
v 161.1273 -228.2431 1431.0000
v 161.1273 -228.2431 1443.0000
v 239.0690 -144.5784 1443.0000
v 202.1938 -112.2756 1246.5000
v 126.2970 -193.7452 1246.5000
v 168.0033 -232.5986 1246.5000
v 243.9001 -151.1290 1246.5000
v 202.1938 -112.2756 1257.5000
v 243.9001 -151.1290 1257.5000
v 168.0033 -232.5986 1257.5000
v 126.2970 -193.7452 1257.5000
v 202.1938 -112.2756 1246.5000
v 243.9001 -151.1290 1246.5000
v 243.9001 -151.1290 1257.5000
v 202.1938 -112.2756 1257.5000
v 126.2970 -193.7452 1246.5000
v 126.2970 -193.7452 1257.5000
v 168.0033 -232.5986 1257.5000
v 168.0033 -232.5986 1246.5000
v 202.1938 -112.2756 1246.5000
v 202.1938 -112.2756 1257.5000
v 126.2970 -193.7452 1257.5000
v 126.2970 -193.7452 1246.5000
v 243.9001 -151.1290 1246.5000
v 168.0033 -232.5986 1246.5000
v 168.0033 -232.5986 1257.5000
v 243.9001 -151.1290 1257.5000
v 199.4768 -125.4615 1224.0000
v 189.2522 -136.4368 1224.0000
v 209.0078 -154.8411 1224.0000
v 219.2324 -143.8658 1224.0000
v 199.4768 -125.4615 1248.0000
v 219.2324 -143.8658 1248.0000
v 209.0078 -154.8411 1248.0000
v 189.2522 -136.4368 1248.0000
v 199.4768 -125.4615 1224.0000
v 219.2324 -143.8658 1224.0000
v 219.2324 -143.8658 1248.0000
v 199.4768 -125.4615 1248.0000
v 189.2522 -136.4368 1224.0000
v 189.2522 -136.4368 1248.0000
v 209.0078 -154.8411 1248.0000
v 209.0078 -154.8411 1224.0000
v 199.4768 -125.4615 1224.0000
v 199.4768 -125.4615 1248.0000
v 189.2522 -136.4368 1248.0000
v 189.2522 -136.4368 1224.0000
v 219.2324 -143.8658 1224.0000
v 209.0078 -154.8411 1224.0000
v 209.0078 -154.8411 1248.0000
v 219.2324 -143.8658 1248.0000
v 149.4822 -179.1269 1224.0000
v 139.2577 -190.1023 1224.0000
v 159.0133 -208.5065 1224.0000
v 169.2378 -197.5312 1224.0000
v 149.4822 -179.1269 1248.0000
v 169.2378 -197.5312 1248.0000
v 159.0133 -208.5065 1248.0000
v 139.2577 -190.1023 1248.0000
v 149.4822 -179.1269 1224.0000
v 169.2378 -197.5312 1224.0000
v 169.2378 -197.5312 1248.0000
v 149.4822 -179.1269 1248.0000
v 139.2577 -190.1023 1224.0000
v 139.2577 -190.1023 1248.0000
v 159.0133 -208.5065 1248.0000
v 159.0133 -208.5065 1224.0000
v 149.4822 -179.1269 1224.0000
v 149.4822 -179.1269 1248.0000
v 139.2577 -190.1023 1248.0000
v 139.2577 -190.1023 1224.0000
v 169.2378 -197.5312 1224.0000
v 159.0133 -208.5065 1224.0000
v 159.0133 -208.5065 1248.0000
v 169.2378 -197.5312 1248.0000
v -112.3783 -204.7692 1431.0000
v -196.1051 -126.8941 1431.0000
v -228.1147 -161.3090 1431.0000
v -144.3880 -239.1841 1431.0000
v -112.3783 -204.7692 1443.0000
v -144.3880 -239.1841 1443.0000
v -228.1147 -161.3090 1443.0000
v -196.1051 -126.8941 1443.0000
v -112.3783 -204.7692 1431.0000
v -144.3880 -239.1841 1431.0000
v -144.3880 -239.1841 1443.0000
v -112.3783 -204.7692 1443.0000
v -196.1051 -126.8941 1431.0000
v -196.1051 -126.8941 1443.0000
v -228.1147 -161.3090 1443.0000
v -228.1147 -161.3090 1431.0000
v -112.3783 -204.7692 1431.0000
v -112.3783 -204.7692 1443.0000
v -196.1051 -126.8941 1443.0000
v -196.1051 -126.8941 1431.0000
v -144.3880 -239.1841 1431.0000
v -228.1147 -161.3090 1431.0000
v -228.1147 -161.3090 1443.0000
v -144.3880 -239.1841 1443.0000
v -112.1146 -202.2831 1246.5000
v -193.6446 -126.4512 1246.5000
v -232.4648 -168.1884 1246.5000
v -150.9348 -244.0203 1246.5000
v -112.1146 -202.2831 1257.5000
v -150.9348 -244.0203 1257.5000
v -232.4648 -168.1884 1257.5000
v -193.6446 -126.4512 1257.5000
v -112.1146 -202.2831 1246.5000
v -150.9348 -244.0203 1246.5000
v -150.9348 -244.0203 1257.5000
v -112.1146 -202.2831 1257.5000
v -193.6446 -126.4512 1246.5000
v -193.6446 -126.4512 1257.5000
v -232.4648 -168.1884 1257.5000
v -232.4648 -168.1884 1246.5000
v -112.1146 -202.2831 1246.5000
v -112.1146 -202.2831 1257.5000
v -193.6446 -126.4512 1257.5000
v -193.6446 -126.4512 1246.5000
v -150.9348 -244.0203 1246.5000
v -232.4648 -168.1884 1246.5000
v -232.4648 -168.1884 1257.5000
v -150.9348 -244.0203 1257.5000
v -125.3026 -199.5766 1224.0000
v -136.2861 -189.3608 1224.0000
v -154.6746 -209.1310 1224.0000
v -143.6911 -219.3469 1224.0000
v -125.3026 -199.5766 1248.0000
v -143.6911 -219.3469 1248.0000
v -154.6746 -209.1310 1248.0000
v -136.2861 -189.3608 1248.0000
v -125.3026 -199.5766 1224.0000
v -143.6911 -219.3469 1224.0000
v -143.6911 -219.3469 1248.0000
v -125.3026 -199.5766 1248.0000
v -136.2861 -189.3608 1224.0000
v -136.2861 -189.3608 1248.0000
v -154.6746 -209.1310 1248.0000
v -154.6746 -209.1310 1224.0000
v -125.3026 -199.5766 1224.0000
v -125.3026 -199.5766 1248.0000
v -136.2861 -189.3608 1248.0000
v -136.2861 -189.3608 1224.0000
v -143.6911 -219.3469 1224.0000
v -154.6746 -209.1310 1224.0000
v -154.6746 -209.1310 1248.0000
v -143.6911 -219.3469 1248.0000
v -179.0079 -149.6248 1224.0000
v -189.9913 -139.4090 1224.0000
v -208.3798 -159.1792 1224.0000
v -197.3964 -169.3951 1224.0000
v -179.0079 -149.6248 1248.0000
v -197.3964 -169.3951 1248.0000
v -208.3798 -159.1792 1248.0000
v -189.9913 -139.4090 1248.0000
v -179.0079 -149.6248 1224.0000
v -197.3964 -169.3951 1224.0000
v -197.3964 -169.3951 1248.0000
v -179.0079 -149.6248 1248.0000
v -189.9913 -139.4090 1224.0000
v -189.9913 -139.4090 1248.0000
v -208.3798 -159.1792 1248.0000
v -208.3798 -159.1792 1224.0000
v -179.0079 -149.6248 1224.0000
v -179.0079 -149.6248 1248.0000
v -189.9913 -139.4090 1248.0000
v -189.9913 -139.4090 1224.0000
v -197.3964 -169.3951 1224.0000
v -208.3798 -159.1792 1224.0000
v -208.3798 -159.1792 1248.0000
v -197.3964 -169.3951 1248.0000
v -204.8586 112.2152 1431.0000
v -127.0502 196.0039 1431.0000
v -161.4906 227.9862 1431.0000
v -239.2990 144.1974 1431.0000
v -204.8586 112.2152 1443.0000
v -239.2990 144.1974 1443.0000
v -161.4906 227.9862 1443.0000
v -127.0502 196.0039 1443.0000
v -204.8586 112.2152 1431.0000
v -239.2990 144.1974 1431.0000
v -239.2990 144.1974 1443.0000
v -204.8586 112.2152 1443.0000
v -127.0502 196.0039 1431.0000
v -127.0502 196.0039 1443.0000
v -161.4906 227.9862 1443.0000
v -161.4906 227.9862 1431.0000
v -204.8586 112.2152 1431.0000
v -204.8586 112.2152 1443.0000
v -127.0502 196.0039 1443.0000
v -127.0502 196.0039 1431.0000
v -239.2990 144.1974 1431.0000
v -161.4906 227.9862 1431.0000
v -161.4906 227.9862 1443.0000
v -239.2990 144.1974 1443.0000
v -202.3724 111.9534 1246.5000
v -126.6054 193.5438 1246.5000
v -168.3735 232.3308 1246.5000
v -244.1404 150.7404 1246.5000
v -202.3724 111.9534 1257.5000
v -244.1404 150.7404 1257.5000
v -168.3735 232.3308 1257.5000
v -126.6054 193.5438 1257.5000
v -202.3724 111.9534 1246.5000
v -244.1404 150.7404 1246.5000
v -244.1404 150.7404 1257.5000
v -202.3724 111.9534 1257.5000
v -126.6054 193.5438 1246.5000
v -126.6054 193.5438 1257.5000
v -168.3735 232.3308 1257.5000
v -168.3735 232.3308 1246.5000
v -202.3724 111.9534 1246.5000
v -202.3724 111.9534 1257.5000
v -126.6054 193.5438 1257.5000
v -126.6054 193.5438 1246.5000
v -244.1404 150.7404 1246.5000
v -168.3735 232.3308 1246.5000
v -168.3735 232.3308 1257.5000
v -244.1404 150.7404 1257.5000
v -199.6763 125.1437 1224.0000
v -189.4692 136.1353 1224.0000
v -209.2541 154.5080 1224.0000
v -219.4612 143.5164 1224.0000
v -199.6763 125.1437 1248.0000
v -219.4612 143.5164 1248.0000
v -209.2541 154.5080 1248.0000
v -189.4692 136.1353 1248.0000
v -199.6763 125.1437 1224.0000
v -219.4612 143.5164 1224.0000
v -219.4612 143.5164 1248.0000
v -199.6763 125.1437 1248.0000
v -189.4692 136.1353 1224.0000
v -189.4692 136.1353 1248.0000
v -209.2541 154.5080 1248.0000
v -209.2541 154.5080 1224.0000
v -199.6763 125.1437 1224.0000
v -199.6763 125.1437 1248.0000
v -189.4692 136.1353 1248.0000
v -189.4692 136.1353 1224.0000
v -219.4612 143.5164 1224.0000
v -209.2541 154.5080 1224.0000
v -209.2541 154.5080 1248.0000
v -219.4612 143.5164 1248.0000
v -149.7673 178.8886 1224.0000
v -139.5602 189.8803 1224.0000
v -159.3451 208.2530 1224.0000
v -169.5522 197.2614 1224.0000
v -149.7673 178.8886 1248.0000
v -169.5522 197.2614 1248.0000
v -159.3451 208.2530 1248.0000
v -139.5602 189.8803 1248.0000
v -149.7673 178.8886 1224.0000
v -169.5522 197.2614 1224.0000
v -169.5522 197.2614 1248.0000
v -149.7673 178.8886 1248.0000
v -139.5602 189.8803 1224.0000
v -139.5602 189.8803 1248.0000
v -159.3451 208.2530 1248.0000
v -159.3451 208.2530 1224.0000
v -149.7673 178.8886 1224.0000
v -149.7673 178.8886 1248.0000
v -139.5602 189.8803 1248.0000
v -139.5602 189.8803 1224.0000
v -169.5522 197.2614 1224.0000
v -159.3451 208.2530 1224.0000
v -159.3451 208.2530 1248.0000
v -169.5522 197.2614 1248.0000
v 112.0521 204.9479 1431.0000
v 195.9027 127.2063 1431.0000
v 227.8575 161.6721 1431.0000
v 144.0068 239.4137 1431.0000
v 112.0521 204.9479 1443.0000
v 144.0068 239.4137 1443.0000
v 227.8575 161.6721 1443.0000
v 195.9027 127.2063 1443.0000
v 112.0521 204.9479 1431.0000
v 144.0068 239.4137 1431.0000
v 144.0068 239.4137 1443.0000
v 112.0521 204.9479 1443.0000
v 195.9027 127.2063 1431.0000
v 195.9027 127.2063 1443.0000
v 227.8575 161.6721 1443.0000
v 227.8575 161.6721 1431.0000
v 112.0521 204.9479 1431.0000
v 112.0521 204.9479 1443.0000
v 195.9027 127.2063 1443.0000
v 195.9027 127.2063 1431.0000
v 144.0068 239.4137 1431.0000
v 227.8575 161.6721 1431.0000
v 227.8575 161.6721 1443.0000
v 144.0068 239.4137 1443.0000
v 111.7923 202.4614 1246.5000
v 193.4430 126.7595 1246.5000
v 232.1966 168.5584 1246.5000
v 150.5459 244.2604 1246.5000
v 111.7923 202.4614 1257.5000
v 150.5459 244.2604 1257.5000
v 232.1966 168.5584 1257.5000
v 193.4430 126.7595 1257.5000
v 111.7923 202.4614 1246.5000
v 150.5459 244.2604 1246.5000
v 150.5459 244.2604 1257.5000
v 111.7923 202.4614 1257.5000
v 193.4430 126.7595 1246.5000
v 193.4430 126.7595 1257.5000
v 232.1966 168.5584 1257.5000
v 232.1966 168.5584 1246.5000
v 111.7923 202.4614 1246.5000
v 111.7923 202.4614 1257.5000
v 193.4430 126.7595 1257.5000
v 193.4430 126.7595 1246.5000
v 150.5459 244.2604 1246.5000
v 232.1966 168.5584 1246.5000
v 232.1966 168.5584 1257.5000
v 150.5459 244.2604 1257.5000
v 124.9846 199.7759 1224.0000
v 135.9843 189.5776 1224.0000
v 154.3413 209.3771 1224.0000
v 143.3416 219.5754 1224.0000
v 124.9846 199.7759 1248.0000
v 143.3416 219.5754 1248.0000
v 154.3413 209.3771 1248.0000
v 135.9843 189.5776 1248.0000
v 124.9846 199.7759 1224.0000
v 143.3416 219.5754 1224.0000
v 143.3416 219.5754 1248.0000
v 124.9846 199.7759 1248.0000
v 135.9843 189.5776 1224.0000
v 135.9843 189.5776 1248.0000
v 154.3413 209.3771 1248.0000
v 154.3413 209.3771 1224.0000
v 124.9846 199.7759 1224.0000
v 124.9846 199.7759 1248.0000
v 135.9843 189.5776 1248.0000
v 135.9843 189.5776 1224.0000
v 143.3416 219.5754 1224.0000
v 154.3413 209.3771 1224.0000
v 154.3413 209.3771 1248.0000
v 143.3416 219.5754 1248.0000
v 178.7693 149.9097 1224.0000
v 189.7691 139.7114 1224.0000
v 208.1261 159.5109 1224.0000
v 197.1263 169.7093 1224.0000
v 178.7693 149.9097 1248.0000
v 197.1263 169.7093 1248.0000
v 208.1261 159.5109 1248.0000
v 189.7691 139.7114 1248.0000
v 178.7693 149.9097 1224.0000
v 197.1263 169.7093 1224.0000
v 197.1263 169.7093 1248.0000
v 178.7693 149.9097 1248.0000
v 189.7691 139.7114 1224.0000
v 189.7691 139.7114 1248.0000
v 208.1261 159.5109 1248.0000
v 208.1261 159.5109 1224.0000
v 178.7693 149.9097 1224.0000
v 178.7693 149.9097 1248.0000
v 189.7691 139.7114 1248.0000
v 189.7691 139.7114 1224.0000
v 197.1263 169.7093 1224.0000
v 208.1261 159.5109 1224.0000
v 208.1261 159.5109 1248.0000
v 197.1263 169.7093 1248.0000
vt 1.563478 0.917394
vt 1.025692 1.494668
vt 1.240625 1.694899
vt 1.778412 1.117625
vt 1.563478 0.917394
vt 1.778412 1.117625
vt 1.240625 1.694899
vt 1.025692 1.494668
vt 1.563478 2.943750
vt 1.778412 2.943750
vt 1.778412 3.018750
vt 1.563478 3.018750
vt 1.025692 2.943750
vt 1.025692 3.018750
vt 1.240625 3.018750
vt 1.240625 2.943750
vt 0.917394 2.943750
vt 0.917394 3.018750
vt 1.494668 3.018750
vt 1.494668 2.943750
vt 1.117625 2.943750
vt 1.694899 2.943750
vt 1.694899 3.018750
vt 1.117625 3.018750
vt 1.547942 0.915733
vt 1.022936 1.479288
vt 1.283600 1.722122
vt 1.808606 1.158567
vt 1.547942 0.915733
vt 1.808606 1.158567
vt 1.283600 1.722122
vt 1.022936 1.479288
vt 1.547942 1.790625
vt 1.808606 1.790625
vt 1.808606 1.859375
vt 1.547942 1.859375
vt 1.022936 1.790625
vt 1.022936 1.859375
vt 1.283600 1.859375
vt 1.283600 1.790625
vt 0.915733 1.790625
vt 0.915733 1.859375
vt 1.479288 1.859375
vt 1.479288 1.790625
vt 1.158567 1.790625
vt 1.722122 1.790625
vt 1.722122 1.859375
vt 1.158567 1.859375
vt 1.530961 0.998145
vt 1.467057 1.066740
vt 1.590529 1.181767
vt 1.654433 1.113171
vt 1.530961 0.998145
vt 1.654433 1.113171
vt 1.590529 1.181767
vt 1.467057 1.066740
vt 1.530961 1.650000
vt 1.654433 1.650000
vt 1.654433 1.800000
vt 1.530961 1.800000
vt 1.467057 1.650000
vt 1.467057 1.800000
vt 1.590529 1.800000
vt 1.590529 1.650000
vt 0.998145 1.650000
vt 0.998145 1.800000
vt 1.066740 1.800000
vt 1.066740 1.650000
vt 1.113171 1.650000
vt 1.181767 1.650000
vt 1.181767 1.800000
vt 1.113171 1.800000
vt 1.167844 1.387924
vt 1.103940 1.456520
vt 1.227413 1.571546
vt 1.291316 1.502950
vt 1.167844 1.387924
vt 1.291316 1.502950
vt 1.227413 1.571546
vt 1.103940 1.456520
vt 1.167844 1.650000
vt 1.291316 1.650000
vt 1.291316 1.800000
vt 1.167844 1.800000
vt 1.103940 1.650000
vt 1.103940 1.800000
vt 1.227413 1.800000
vt 1.227413 1.650000
vt 1.387924 1.650000
vt 1.387924 1.800000
vt 1.456520 1.800000
vt 1.456520 1.650000
vt 1.502950 1.650000
vt 1.571546 1.650000
vt 1.571546 1.800000
vt 1.502950 1.800000
vt -0.916148 1.564209
vt -1.493851 1.026882
vt -1.693911 1.241975
vt -1.116209 1.779302
vt -0.916148 1.564209
vt -1.116209 1.779302
vt -1.693911 1.241975
vt -1.493851 1.026882
vt 1.564209 2.943750
vt 1.779302 2.943750
vt 1.779302 3.018750
vt 1.564209 3.018750
vt 1.026882 2.943750
vt 1.026882 3.018750
vt 1.241975 3.018750
vt 1.241975 2.943750
vt -0.916148 2.943750
vt -0.916148 3.018750
vt -1.493851 3.018750
vt -1.493851 2.943750
vt -1.116209 2.943750
vt -1.693911 2.943750
vt -1.693911 3.018750
vt -1.116209 3.018750
vt -0.914500 1.548671
vt -1.478473 1.024114
vt -1.721099 1.284971
vt -1.157126 1.809528
vt -0.914500 1.548671
vt -1.157126 1.809528
vt -1.721099 1.284971
vt -1.478473 1.024114
vt 1.548671 1.790625
vt 1.809528 1.790625
vt 1.809528 1.859375
vt 1.548671 1.859375
vt 1.024114 1.790625
vt 1.024114 1.859375
vt 1.284971 1.859375
vt 1.284971 1.790625
vt -0.914500 1.790625
vt -0.914500 1.859375
vt -1.478473 1.859375
vt -1.478473 1.790625
vt -1.157126 1.790625
vt -1.721099 1.790625
vt -1.721099 1.859375
vt -1.157126 1.859375
vt -0.996925 1.531755
vt -1.065572 1.467906
vt -1.180500 1.591470
vt -1.111853 1.655319
vt -0.996925 1.531755
vt -1.111853 1.655319
vt -1.180500 1.591470
vt -1.065572 1.467906
vt 1.531755 1.650000
vt 1.655319 1.650000
vt 1.655319 1.800000
vt 1.531755 1.800000
vt 1.467906 1.650000
vt 1.467906 1.800000
vt 1.591470 1.800000
vt 1.591470 1.650000
vt -0.996925 1.650000
vt -0.996925 1.800000
vt -1.065572 1.800000
vt -1.065572 1.650000
vt -1.111853 1.650000
vt -1.180500 1.650000
vt -1.180500 1.800000
vt -1.111853 1.800000
vt -1.386993 1.168949
vt -1.455640 1.105100
vt -1.570568 1.228664
vt -1.501921 1.292513
vt -1.386993 1.168949
vt -1.501921 1.292513
vt -1.570568 1.228664
vt -1.455640 1.105100
vt 1.168949 1.650000
vt 1.292513 1.650000
vt 1.292513 1.800000
vt 1.168949 1.800000
vt 1.105100 1.650000
vt 1.105100 1.800000
vt 1.228664 1.800000
vt 1.228664 1.650000
vt -1.386993 1.650000
vt -1.386993 1.800000
vt -1.455640 1.800000
vt -1.455640 1.650000
vt -1.501921 1.650000
vt -1.570568 1.650000
vt -1.570568 1.800000
vt -1.501921 1.800000
vt -1.564938 -0.914902
vt -1.028071 -1.493033
vt -1.243323 -1.692921
vt -1.780190 -1.114791
vt -1.564938 -0.914902
vt -1.780190 -1.114791
vt -1.243323 -1.692921
vt -1.028071 -1.493033
vt -1.564938 2.943750
vt -1.780190 2.943750
vt -1.780190 3.018750
vt -1.564938 3.018750
vt -1.028071 2.943750
vt -1.028071 3.018750
vt -1.243323 3.018750
vt -1.243323 2.943750
vt -0.914902 2.943750
vt -0.914902 3.018750
vt -1.493033 3.018750
vt -1.493033 2.943750
vt -1.114791 2.943750
vt -1.692921 2.943750
vt -1.692921 3.018750
vt -1.114791 3.018750
vt -1.549398 -0.913266
vt -1.025291 -1.477657
vt -1.286341 -1.720075
vt -1.810449 -1.155685
vt -1.549398 -0.913266
vt -1.810449 -1.155685
vt -1.286341 -1.720075
vt -1.025291 -1.477657
vt -1.549398 1.790625
vt -1.810449 1.790625
vt -1.810449 1.859375
vt -1.549398 1.859375
vt -1.025291 1.790625
vt -1.025291 1.859375
vt -1.286341 1.859375
vt -1.286341 1.790625
vt -0.913266 1.790625
vt -0.913266 1.859375
vt -1.477657 1.859375
vt -1.477657 1.790625
vt -1.155685 1.790625
vt -1.720075 1.790625
vt -1.720075 1.859375
vt -1.155685 1.859375
vt -1.532548 -0.995705
vt -1.468754 -1.064403
vt -1.592410 -1.179232
vt -1.656204 -1.110535
vt -1.532548 -0.995705
vt -1.656204 -1.110535
vt -1.592410 -1.179232
vt -1.468754 -1.064403
vt -1.532548 1.650000
vt -1.656204 1.650000
vt -1.656204 1.800000
vt -1.532548 1.800000
vt -1.468754 1.650000
vt -1.468754 1.800000
vt -1.592410 1.800000
vt -1.592410 1.650000
vt -0.995705 1.650000
vt -0.995705 1.800000
vt -1.064403 1.800000
vt -1.064403 1.650000
vt -1.110535 1.650000
vt -1.179232 1.650000
vt -1.179232 1.800000
vt -1.110535 1.800000
vt -1.170053 -1.386062
vt -1.106258 -1.454760
vt -1.229914 -1.569589
vt -1.293708 -1.500892
vt -1.170053 -1.386062
vt -1.293708 -1.500892
vt -1.229914 -1.569589
vt -1.106258 -1.454760
vt -1.170053 1.650000
vt -1.293708 1.650000
vt -1.293708 1.800000
vt -1.170053 1.800000
vt -1.106258 1.650000
vt -1.106258 1.800000
vt -1.229914 1.800000
vt -1.229914 1.650000
vt -1.386062 1.650000
vt -1.386062 1.800000
vt -1.454760 1.800000
vt -1.454760 1.650000
vt -1.500892 1.650000
vt -1.569589 1.650000
vt -1.569589 1.800000
vt -1.500892 1.800000
vt 0.913656 -1.565666
vt 1.492213 -1.029260
vt 1.691931 -1.244671
vt 1.113373 -1.781077
vt 0.913656 -1.565666
vt 1.113373 -1.781077
vt 1.691931 -1.244671
vt 1.492213 -1.029260
vt -1.565666 2.943750
vt -1.781077 2.943750
vt -1.781077 3.018750
vt -1.565666 3.018750
vt -1.029260 2.943750
vt -1.029260 3.018750
vt -1.244671 3.018750
vt -1.244671 2.943750
vt 0.913656 2.943750
vt 0.913656 3.018750
vt 1.492213 3.018750
vt 1.492213 2.943750
vt 1.113373 2.943750
vt 1.691931 2.943750
vt 1.691931 3.018750
vt 1.113373 3.018750
vt 0.912032 -1.550125
vt 1.476840 -1.026467
vt 1.719050 -1.287711
vt 1.154243 -1.811369
vt 0.912032 -1.550125
vt 1.154243 -1.811369
vt 1.719050 -1.287711
vt 1.476840 -1.026467
vt -1.550125 1.790625
vt -1.811369 1.790625
vt -1.811369 1.859375
vt -1.550125 1.859375
vt -1.026467 1.790625
vt -1.026467 1.859375
vt -1.287711 1.859375
vt -1.287711 1.790625
vt 0.912032 1.790625
vt 0.912032 1.859375
vt 1.476840 1.859375
vt 1.476840 1.790625
vt 1.154243 1.790625
vt 1.719050 1.790625
vt 1.719050 1.859375
vt 1.154243 1.859375
vt 0.994484 -1.533341
vt 1.063233 -1.469601
vt 1.177964 -1.593348
vt 1.109216 -1.657088
vt 0.994484 -1.533341
vt 1.109216 -1.657088
vt 1.177964 -1.593348
vt 1.063233 -1.469601
vt -1.533341 1.650000
vt -1.657088 1.650000
vt -1.657088 1.800000
vt -1.533341 1.800000
vt -1.469601 1.650000
vt -1.469601 1.800000
vt -1.593348 1.800000
vt -1.593348 1.650000
vt 0.994484 1.650000
vt 0.994484 1.800000
vt 1.063233 1.800000
vt 1.063233 1.650000
vt 1.109216 1.650000
vt 1.177964 1.650000
vt 1.177964 1.800000
vt 1.109216 1.800000
vt 1.385130 -1.171156
vt 1.453878 -1.107417
vt 1.568609 -1.231164
vt 1.499861 -1.294903
vt 1.385130 -1.171156
vt 1.499861 -1.294903
vt 1.568609 -1.231164
vt 1.453878 -1.107417
vt -1.171156 1.650000
vt -1.294903 1.650000
vt -1.294903 1.800000
vt -1.171156 1.800000
vt -1.107417 1.650000
vt -1.107417 1.800000
vt -1.231164 1.800000
vt -1.231164 1.650000
vt 1.385130 1.650000
vt 1.385130 1.800000
vt 1.453878 1.800000
vt 1.453878 1.650000
vt 1.499861 1.650000
vt 1.568609 1.650000
vt 1.568609 1.800000
vt 1.499861 1.800000
vt 1.415442 0.805930
vt 0.904036 1.354887
vt 1.118969 1.555118
vt 1.630375 1.006161
vt 1.415442 0.805930
vt 1.630375 1.006161
vt 1.118969 1.555118
vt 0.904036 1.354887
vt 1.415442 6.068750
vt 1.630375 6.068750
vt 1.630375 6.143750
vt 1.415442 6.143750
vt 0.904036 6.068750
vt 0.904036 6.143750
vt 1.118969 6.143750
vt 1.118969 6.068750
vt 0.805930 6.068750
vt 0.805930 6.143750
vt 1.354887 6.143750
vt 1.354887 6.068750
vt 1.006161 6.068750
vt 1.555118 6.068750
vt 1.555118 6.143750
vt 1.006161 6.143750
vt 1.399905 0.804269
vt 0.901280 1.339507
vt 1.161944 1.582340
vt 1.660569 1.047103
vt 1.399905 0.804269
vt 1.660569 1.047103
vt 1.161944 1.582340
vt 0.901280 1.339507
vt 1.399905 4.915625
vt 1.660569 4.915625
vt 1.660569 4.984375
vt 1.399905 4.984375
vt 0.901280 4.915625
vt 0.901280 4.984375
vt 1.161944 4.984375
vt 1.161944 4.915625
vt 0.804269 4.915625
vt 0.804269 4.984375
vt 1.339507 4.984375
vt 1.339507 4.915625
vt 1.047103 4.915625
vt 1.582340 4.915625
vt 1.582340 4.984375
vt 1.047103 4.984375
vt 1.382924 0.886681
vt 1.319020 0.955277
vt 1.442493 1.070303
vt 1.506396 1.001708
vt 1.382924 0.886681
vt 1.506396 1.001708
vt 1.442493 1.070303
vt 1.319020 0.955277
vt 1.382924 4.775000
vt 1.506396 4.775000
vt 1.506396 4.925000
vt 1.382924 4.925000
vt 1.319020 4.775000
vt 1.319020 4.925000
vt 1.442493 4.925000
vt 1.442493 4.775000
vt 0.886681 4.775000
vt 0.886681 4.925000
vt 0.955277 4.925000
vt 0.955277 4.775000
vt 1.001708 4.775000
vt 1.070303 4.775000
vt 1.070303 4.925000
vt 1.001708 4.925000
vt 1.046188 1.248142
vt 0.982284 1.316738
vt 1.105756 1.431765
vt 1.169660 1.363169
vt 1.046188 1.248142
vt 1.169660 1.363169
vt 1.105756 1.431765
vt 0.982284 1.316738
vt 1.046188 4.775000
vt 1.169660 4.775000
vt 1.169660 4.925000
vt 1.046188 4.925000
vt 0.982284 4.775000
vt 0.982284 4.925000
vt 1.105756 4.925000
vt 1.105756 4.775000
vt 1.248142 4.775000
vt 1.248142 4.925000
vt 1.316738 4.925000
vt 1.316738 4.775000
vt 1.363169 4.775000
vt 1.431765 4.775000
vt 1.431765 4.925000
vt 1.363169 4.925000
vt -0.804803 1.416083
vt -1.354166 0.905114
vt -1.554226 1.120207
vt -1.004863 1.631176
vt -0.804803 1.416083
vt -1.004863 1.631176
vt -1.554226 1.120207
vt -1.354166 0.905114
vt 1.416083 6.068750
vt 1.631176 6.068750
vt 1.631176 6.143750
vt 1.416083 6.143750
vt 0.905114 6.068750
vt 0.905114 6.143750
vt 1.120207 6.143750
vt 1.120207 6.068750
vt -0.804803 6.068750
vt -0.804803 6.143750
vt -1.354166 6.143750
vt -1.354166 6.068750
vt -1.004863 6.068750
vt -1.554226 6.068750
vt -1.554226 6.143750
vt -1.004863 6.143750
vt -0.803154 1.400545
vt -1.338788 0.902346
vt -1.581415 1.163204
vt -1.045780 1.661403
vt -0.803154 1.400545
vt -1.045780 1.661403
vt -1.581415 1.163204
vt -1.338788 0.902346
vt 1.400545 4.915625
vt 1.661403 4.915625
vt 1.661403 4.984375
vt 1.400545 4.984375
vt 0.902346 4.915625
vt 0.902346 4.984375
vt 1.163204 4.984375
vt 1.163204 4.915625
vt -0.803154 4.915625
vt -0.803154 4.984375
vt -1.338788 4.984375
vt -1.338788 4.915625
vt -1.045780 4.915625
vt -1.581415 4.915625
vt -1.581415 4.984375
vt -1.045780 4.984375
vt -0.885579 1.383629
vt -0.954226 1.319780
vt -1.069154 1.443344
vt -1.000508 1.507193
vt -0.885579 1.383629
vt -1.000508 1.507193
vt -1.069154 1.443344
vt -0.954226 1.319780
vt 1.383629 4.775000
vt 1.507193 4.775000
vt 1.507193 4.925000
vt 1.383629 4.925000
vt 1.319780 4.775000
vt 1.319780 4.925000
vt 1.443344 4.925000
vt 1.443344 4.775000
vt -0.885579 4.775000
vt -0.885579 4.925000
vt -0.954226 4.925000
vt -0.954226 4.775000
vt -1.000508 4.775000
vt -1.069154 4.775000
vt -1.069154 4.925000
vt -1.000508 4.925000
vt -1.247309 1.047181
vt -1.315956 0.983332
vt -1.430884 1.106896
vt -1.362237 1.170745
vt -1.247309 1.047181
vt -1.362237 1.170745
vt -1.430884 1.106896
vt -1.315956 0.983332
vt 1.047181 4.775000
vt 1.170745 4.775000
vt 1.170745 4.925000
vt 1.047181 4.925000
vt 0.983332 4.775000
vt 0.983332 4.925000
vt 1.106896 4.925000
vt 1.106896 4.775000
vt -1.247309 4.775000
vt -1.247309 4.925000
vt -1.315956 4.925000
vt -1.315956 4.775000
vt -1.362237 4.775000
vt -1.430884 4.775000
vt -1.430884 4.925000
vt -1.362237 4.925000
vt -1.416723 -0.803675
vt -0.906192 -1.353445
vt -1.121445 -1.553334
vt -1.631976 -1.003564
vt -1.416723 -0.803675
vt -1.631976 -1.003564
vt -1.121445 -1.553334
vt -0.906192 -1.353445
vt -1.416723 6.068750
vt -1.631976 6.068750
vt -1.631976 6.143750
vt -1.416723 6.143750
vt -0.906192 6.068750
vt -0.906192 6.143750
vt -1.121445 6.143750
vt -1.121445 6.068750
vt -0.803675 6.068750
vt -0.803675 6.143750
vt -1.353445 6.143750
vt -1.353445 6.068750
vt -1.003564 6.068750
vt -1.553334 6.068750
vt -1.553334 6.143750
vt -1.003564 6.143750
vt -1.401184 -0.802039
vt -0.903412 -1.338069
vt -1.164463 -1.580488
vt -1.662235 -1.044457
vt -1.401184 -0.802039
vt -1.662235 -1.044457
vt -1.164463 -1.580488
vt -0.903412 -1.338069
vt -1.401184 4.915625
vt -1.662235 4.915625
vt -1.662235 4.984375
vt -1.401184 4.984375
vt -0.903412 4.915625
vt -0.903412 4.984375
vt -1.164463 4.984375
vt -1.164463 4.915625
vt -0.802039 4.915625
vt -0.802039 4.984375
vt -1.338069 4.984375
vt -1.338069 4.915625
vt -1.044457 4.915625
vt -1.580488 4.915625
vt -1.580488 4.984375
vt -1.044457 4.984375
vt -1.384334 -0.884477
vt -1.320540 -0.953175
vt -1.444195 -1.068005
vt -1.507990 -0.999307
vt -1.384334 -0.884477
vt -1.507990 -0.999307
vt -1.444195 -1.068005
vt -1.320540 -0.953175
vt -1.384334 4.775000
vt -1.507990 4.775000
vt -1.507990 4.925000
vt -1.384334 4.925000
vt -1.320540 4.775000
vt -1.320540 4.925000
vt -1.444195 4.925000
vt -1.444195 4.775000
vt -0.884477 4.775000
vt -0.884477 4.925000
vt -0.953175 4.925000
vt -0.953175 4.775000
vt -0.999307 4.775000
vt -1.068005 4.775000
vt -1.068005 4.925000
vt -0.999307 4.925000
vt -1.048174 -1.246475
vt -0.984380 -1.315172
vt -1.108035 -1.430002
vt -1.171830 -1.361304
vt -1.048174 -1.246475
vt -1.171830 -1.361304
vt -1.108035 -1.430002
vt -0.984380 -1.315172
vt -1.048174 4.775000
vt -1.171830 4.775000
vt -1.171830 4.925000
vt -1.048174 4.925000
vt -0.984380 4.775000
vt -0.984380 4.925000
vt -1.108035 4.925000
vt -1.108035 4.775000
vt -1.246475 4.775000
vt -1.246475 4.925000
vt -1.315172 4.925000
vt -1.315172 4.775000
vt -1.361304 4.775000
vt -1.430002 4.775000
vt -1.430002 4.925000
vt -1.361304 4.925000
vt 0.802546 -1.417363
vt 1.352723 -0.907270
vt 1.552440 -1.122681
vt 1.002264 -1.632774
vt 0.802546 -1.417363
vt 1.002264 -1.632774
vt 1.552440 -1.122681
vt 1.352723 -0.907270
vt -1.417363 6.068750
vt -1.632774 6.068750
vt -1.632774 6.143750
vt -1.417363 6.143750
vt -0.907270 6.068750
vt -0.907270 6.143750
vt -1.122681 6.143750
vt -1.122681 6.068750
vt 0.802546 6.068750
vt 0.802546 6.143750
vt 1.352723 6.143750
vt 1.352723 6.068750
vt 1.002264 6.068750
vt 1.552440 6.068750
vt 1.552440 6.143750
vt 1.002264 6.143750
vt 0.800923 -1.401823
vt 1.337350 -0.904477
vt 1.579560 -1.165721
vt 1.043133 -1.663066
vt 0.800923 -1.401823
vt 1.043133 -1.663066
vt 1.579560 -1.165721
vt 1.337350 -0.904477
vt -1.401823 4.915625
vt -1.663066 4.915625
vt -1.663066 4.984375
vt -1.401823 4.984375
vt -0.904477 4.915625
vt -0.904477 4.984375
vt -1.165721 4.984375
vt -1.165721 4.915625
vt 0.800923 4.915625
vt 0.800923 4.984375
vt 1.337350 4.984375
vt 1.337350 4.915625
vt 1.043133 4.915625
vt 1.579560 4.915625
vt 1.579560 4.984375
vt 1.043133 4.984375
vt 0.883375 -1.385038
vt 0.952123 -1.321298
vt 1.066854 -1.445045
vt 0.998106 -1.508785
vt 0.883375 -1.385038
vt 0.998106 -1.508785
vt 1.066854 -1.445045
vt 0.952123 -1.321298
vt -1.385038 4.775000
vt -1.508785 4.775000
vt -1.508785 4.925000
vt -1.385038 4.925000
vt -1.321298 4.775000
vt -1.321298 4.925000
vt -1.445045 4.925000
vt -1.445045 4.775000
vt 0.883375 4.775000
vt 0.883375 4.925000
vt 0.952123 4.925000
vt 0.952123 4.775000
vt 0.998106 4.775000
vt 1.066854 4.775000
vt 1.066854 4.925000
vt 0.998106 4.925000
vt 1.245639 -1.049166
vt 1.314388 -0.985427
vt 1.429119 -1.109174
vt 1.360371 -1.172913
vt 1.245639 -1.049166
vt 1.360371 -1.172913
vt 1.429119 -1.109174
vt 1.314388 -0.985427
vt -1.049166 4.775000
vt -1.172913 4.775000
vt -1.172913 4.925000
vt -1.049166 4.925000
vt -0.985427 4.775000
vt -0.985427 4.925000
vt -1.109174 4.925000
vt -1.109174 4.775000
vt 1.245639 4.775000
vt 1.245639 4.925000
vt 1.314388 4.925000
vt 1.314388 4.775000
vt 1.360371 4.775000
vt 1.429119 4.775000
vt 1.429119 4.925000
vt 1.360371 4.925000
vt 1.279248 0.703384
vt 0.792112 1.226288
vt 1.007046 1.426519
vt 1.494181 0.903615
vt 1.279248 0.703384
vt 1.494181 0.903615
vt 1.007046 1.426519
vt 0.792112 1.226288
vt 1.279248 8.943750
vt 1.494181 8.943750
vt 1.494181 9.018750
vt 1.279248 9.018750
vt 0.792112 8.943750
vt 0.792112 9.018750
vt 1.007046 9.018750
vt 1.007046 8.943750
vt 0.703384 8.943750
vt 0.703384 9.018750
vt 1.226288 9.018750
vt 1.226288 8.943750
vt 0.903615 8.943750
vt 1.426519 8.943750
vt 1.426519 9.018750
vt 0.903615 9.018750
vt 1.263711 0.701723
vt 0.789356 1.210908
vt 1.050020 1.453742
vt 1.524375 0.944556
vt 1.263711 0.701723
vt 1.524375 0.944556
vt 1.050020 1.453742
vt 0.789356 1.210908
vt 1.263711 7.790625
vt 1.524375 7.790625
vt 1.524375 7.859375
vt 1.263711 7.859375
vt 0.789356 7.790625
vt 0.789356 7.859375
vt 1.050020 7.859375
vt 1.050020 7.790625
vt 0.701723 7.790625
vt 0.701723 7.859375
vt 1.210908 7.859375
vt 1.210908 7.790625
vt 0.944556 7.790625
vt 1.453742 7.790625
vt 1.453742 7.859375
vt 0.944556 7.859375
vt 1.246730 0.784134
vt 1.182826 0.852730
vt 1.306299 0.967757
vt 1.370202 0.899161
vt 1.246730 0.784134
vt 1.370202 0.899161
vt 1.306299 0.967757
vt 1.182826 0.852730
vt 1.246730 7.650000
vt 1.370202 7.650000
vt 1.370202 7.800000
vt 1.246730 7.800000
vt 1.182826 7.650000
vt 1.182826 7.800000
vt 1.306299 7.800000
vt 1.306299 7.650000
vt 0.784134 7.650000
vt 0.784134 7.800000
vt 0.852730 7.800000
vt 0.852730 7.650000
vt 0.899161 7.650000
vt 0.967757 7.650000
vt 0.967757 7.800000
vt 0.899161 7.800000
vt 0.934264 1.119543
vt 0.870360 1.188139
vt 0.993833 1.303166
vt 1.057736 1.234570
vt 0.934264 1.119543
vt 1.057736 1.234570
vt 0.993833 1.303166
vt 0.870360 1.188139
vt 0.934264 7.650000
vt 1.057736 7.650000
vt 1.057736 7.800000
vt 0.934264 7.800000
vt 0.870360 7.650000
vt 0.870360 7.800000
vt 0.993833 7.800000
vt 0.993833 7.650000
vt 1.119543 7.650000
vt 1.119543 7.800000
vt 1.188139 7.800000
vt 1.188139 7.650000
vt 1.234570 7.650000
vt 1.303166 7.650000
vt 1.303166 7.800000
vt 1.234570 7.800000
vt -0.702365 1.279807
vt -1.225657 0.793088
vt -1.425717 1.008181
vt -0.902425 1.494900
vt -0.702365 1.279807
vt -0.902425 1.494900
vt -1.425717 1.008181
vt -1.225657 0.793088
vt 1.279807 8.943750
vt 1.494900 8.943750
vt 1.494900 9.018750
vt 1.279807 9.018750
vt 0.793088 8.943750
vt 0.793088 9.018750
vt 1.008181 9.018750
vt 1.008181 8.943750
vt -0.702365 8.943750
vt -0.702365 9.018750
vt -1.225657 9.018750
vt -1.225657 8.943750
vt -0.902425 8.943750
vt -1.425717 8.943750
vt -1.425717 9.018750
vt -0.902425 9.018750
vt -0.700716 1.264270
vt -1.210279 0.790320
vt -1.452905 1.051178
vt -0.943342 1.525127
vt -0.700716 1.264270
vt -0.943342 1.525127
vt -1.452905 1.051178
vt -1.210279 0.790320
vt 1.264270 7.790625
vt 1.525127 7.790625
vt 1.525127 7.859375
vt 1.264270 7.859375
vt 0.790320 7.790625
vt 0.790320 7.859375
vt 1.051178 7.859375
vt 1.051178 7.790625
vt -0.700716 7.790625
vt -0.700716 7.859375
vt -1.210279 7.859375
vt -1.210279 7.790625
vt -0.943342 7.790625
vt -1.452905 7.790625
vt -1.452905 7.859375
vt -0.943342 7.859375
vt -0.783141 1.247354
vt -0.851788 1.183505
vt -0.966716 1.307069
vt -0.898070 1.370918
vt -0.783141 1.247354
vt -0.898070 1.370918
vt -0.966716 1.307069
vt -0.851788 1.183505
vt 1.247354 7.650000
vt 1.370918 7.650000
vt 1.370918 7.800000
vt 1.247354 7.800000
vt 1.183505 7.650000
vt 1.183505 7.800000
vt 1.307069 7.800000
vt 1.307069 7.650000
vt -0.783141 7.650000
vt -0.783141 7.800000
vt -0.851788 7.800000
vt -0.851788 7.650000
vt -0.898070 7.650000
vt -0.966716 7.650000
vt -0.966716 7.800000
vt -0.898070 7.800000
vt -1.118799 0.935155
vt -1.187446 0.871306
vt -1.302374 0.994870
vt -1.233727 1.058719
vt -1.118799 0.935155
vt -1.233727 1.058719
vt -1.302374 0.994870
vt -1.187446 0.871306
vt 0.935155 7.650000
vt 1.058719 7.650000
vt 1.058719 7.800000
vt 0.935155 7.800000
vt 0.871306 7.650000
vt 0.871306 7.800000
vt 0.994870 7.800000
vt 0.994870 7.650000
vt -1.118799 7.650000
vt -1.118799 7.800000
vt -1.187446 7.800000
vt -1.187446 7.650000
vt -1.233727 7.650000
vt -1.302374 7.650000
vt -1.302374 7.800000
vt -1.233727 7.800000
vt -1.280366 -0.701345
vt -0.794064 -1.225025
vt -1.009316 -1.424913
vt -1.495619 -0.901234
vt -1.280366 -0.701345
vt -1.495619 -0.901234
vt -1.009316 -1.424913
vt -0.794064 -1.225025
vt -1.280366 8.943750
vt -1.495619 8.943750
vt -1.495619 9.018750
vt -1.280366 9.018750
vt -0.794064 8.943750
vt -0.794064 9.018750
vt -1.009316 9.018750
vt -1.009316 8.943750
vt -0.701345 8.943750
vt -0.701345 9.018750
vt -1.225025 9.018750
vt -1.225025 8.943750
vt -0.901234 8.943750
vt -1.424913 8.943750
vt -1.424913 9.018750
vt -0.901234 9.018750
vt -1.264827 -0.699709
vt -0.791284 -1.209649
vt -1.052334 -1.452067
vt -1.525878 -0.942127
vt -1.264827 -0.699709
vt -1.525878 -0.942127
vt -1.052334 -1.452067
vt -0.791284 -1.209649
vt -1.264827 7.790625
vt -1.525878 7.790625
vt -1.525878 7.859375
vt -1.264827 7.859375
vt -0.791284 7.790625
vt -0.791284 7.859375
vt -1.052334 7.859375
vt -1.052334 7.790625
vt -0.699709 7.790625
vt -0.699709 7.859375
vt -1.209649 7.859375
vt -1.209649 7.790625
vt -0.942127 7.790625
vt -1.452067 7.790625
vt -1.452067 7.859375
vt -0.942127 7.859375
vt -1.247977 -0.782148
vt -1.184183 -0.850845
vt -1.307838 -0.965675
vt -1.371633 -0.896978
vt -1.247977 -0.782148
vt -1.371633 -0.896978
vt -1.307838 -0.965675
vt -1.184183 -0.850845
vt -1.247977 7.650000
vt -1.371633 7.650000
vt -1.371633 7.800000
vt -1.247977 7.800000
vt -1.184183 7.650000
vt -1.184183 7.800000
vt -1.307838 7.800000
vt -1.307838 7.650000
vt -0.782148 7.650000
vt -0.782148 7.800000
vt -0.850845 7.800000
vt -0.850845 7.650000
vt -0.896978 7.650000
vt -0.965675 7.650000
vt -0.965675 7.800000
vt -0.896978 7.800000
vt -0.936046 -1.118054
vt -0.872252 -1.186752
vt -0.995907 -1.301581
vt -1.059701 -1.232884
vt -0.936046 -1.118054
vt -1.059701 -1.232884
vt -0.995907 -1.301581
vt -0.872252 -1.186752
vt -0.936046 7.650000
vt -1.059701 7.650000
vt -1.059701 7.800000
vt -0.936046 7.800000
vt -0.872252 7.650000
vt -0.872252 7.800000
vt -0.995907 7.800000
vt -0.995907 7.650000
vt -1.118054 7.650000
vt -1.118054 7.800000
vt -1.186752 7.800000
vt -1.186752 7.650000
vt -1.232884 7.650000
vt -1.301581 7.650000
vt -1.301581 7.800000
vt -1.232884 7.800000
vt 0.700325 -1.280924
vt 1.224392 -0.795039
vt 1.424109 -1.010451
vt 0.900043 -1.496336
vt 0.700325 -1.280924
vt 0.900043 -1.496336
vt 1.424109 -1.010451
vt 1.224392 -0.795039
vt -1.280924 8.943750
vt -1.496336 8.943750
vt -1.496336 9.018750
vt -1.280924 9.018750
vt -0.795039 8.943750
vt -0.795039 9.018750
vt -1.010451 9.018750
vt -1.010451 8.943750
vt 0.700325 8.943750
vt 0.700325 9.018750
vt 1.224392 9.018750
vt 1.224392 8.943750
vt 0.900043 8.943750
vt 1.424109 8.943750
vt 1.424109 9.018750
vt 0.900043 9.018750
vt 0.698702 -1.265384
vt 1.209018 -0.792247
vt 1.451229 -1.053490
vt 0.940912 -1.526628
vt 0.698702 -1.265384
vt 0.940912 -1.526628
vt 1.451229 -1.053490
vt 1.209018 -0.792247
vt -1.265384 7.790625
vt -1.526628 7.790625
vt -1.526628 7.859375
vt -1.265384 7.859375
vt -0.792247 7.790625
vt -0.792247 7.859375
vt -1.053490 7.859375
vt -1.053490 7.790625
vt 0.698702 7.790625
vt 0.698702 7.859375
vt 1.209018 7.859375
vt 1.209018 7.790625
vt 0.940912 7.790625
vt 1.451229 7.790625
vt 1.451229 7.859375
vt 0.940912 7.859375
vt 0.781154 -1.248600
vt 0.849902 -1.184860
vt 0.964633 -1.308607
vt 0.895885 -1.372346
vt 0.781154 -1.248600
vt 0.895885 -1.372346
vt 0.964633 -1.308607
vt 0.849902 -1.184860
vt -1.248600 7.650000
vt -1.372346 7.650000
vt -1.372346 7.800000
vt -1.248600 7.800000
vt -1.184860 7.650000
vt -1.184860 7.800000
vt -1.308607 7.800000
vt -1.308607 7.650000
vt 0.781154 7.650000
vt 0.781154 7.800000
vt 0.849902 7.800000
vt 0.849902 7.650000
vt 0.895885 7.650000
vt 0.964633 7.650000
vt 0.964633 7.800000
vt 0.895885 7.800000
vt 1.117308 -0.936936
vt 1.186057 -0.873196
vt 1.300788 -0.996943
vt 1.232040 -1.060683
vt 1.117308 -0.936936
vt 1.232040 -1.060683
vt 1.300788 -0.996943
vt 1.186057 -0.873196
vt -0.936936 7.650000
vt -1.060683 7.650000
vt -1.060683 7.800000
vt -0.936936 7.800000
vt -0.873196 7.650000
vt -0.873196 7.800000
vt -0.996943 7.800000
vt -0.996943 7.650000
vt 1.117308 7.650000
vt 1.117308 7.800000
vt 1.186057 7.800000
vt 1.186057 7.650000
vt 1.232040 7.650000
vt 1.300788 7.650000
vt 1.300788 7.800000
vt 1.232040 7.800000
vn 0.0000000 -0.0000000 -1.0000000
vn 0.0000000 0.0000000 1.0000000
vn 0.6816388 0.7316889 0.0000000
vn -0.6816388 -0.7316889 0.0000000
vn -0.7316889 0.6816388 0.0000000
vn 0.7316889 -0.6816388 0.0000000
vn 0.7322314 -0.6810559 0.0000000
vn -0.7322314 0.6810559 0.0000000
vn 0.6810559 0.7322314 0.0000000
vn -0.6810559 -0.7322314 0.0000000
vn -0.6804726 -0.7327736 0.0000000
vn 0.6804726 0.7327736 0.0000000
vn 0.7327736 -0.6804726 -0.0000000
vn -0.7327736 0.6804726 0.0000000
vn -0.7333152 0.6798888 0.0000000
vn 0.7333152 -0.6798888 -0.0000000
vn -0.6798888 -0.7333152 0.0000000
vn 0.6798888 0.7333152 0.0000000
usemtl Ashlar
f 3/3/1 2/2/1 1/1/1
f 4/4/1 3/3/1 1/1/1
f 7/7/2 6/6/2 5/5/2
f 8/8/2 7/7/2 5/5/2
f 11/11/3 10/10/3 9/9/3
f 12/12/3 11/11/3 9/9/3
f 15/15/4 14/14/4 13/13/4
f 16/16/4 15/15/4 13/13/4
f 19/19/5 18/18/5 17/17/5
f 20/20/5 19/19/5 17/17/5
f 23/23/6 22/22/6 21/21/6
f 24/24/6 23/23/6 21/21/6
f 27/27/1 26/26/1 25/25/1
f 28/28/1 27/27/1 25/25/1
f 31/31/2 30/30/2 29/29/2
f 32/32/2 31/31/2 29/29/2
f 35/35/3 34/34/3 33/33/3
f 36/36/3 35/35/3 33/33/3
f 39/39/4 38/38/4 37/37/4
f 40/40/4 39/39/4 37/37/4
f 43/43/5 42/42/5 41/41/5
f 44/44/5 43/43/5 41/41/5
f 47/47/6 46/46/6 45/45/6
f 48/48/6 47/47/6 45/45/6
f 51/51/1 50/50/1 49/49/1
f 52/52/1 51/51/1 49/49/1
f 55/55/2 54/54/2 53/53/2
f 56/56/2 55/55/2 53/53/2
f 59/59/3 58/58/3 57/57/3
f 60/60/3 59/59/3 57/57/3
f 63/63/4 62/62/4 61/61/4
f 64/64/4 63/63/4 61/61/4
f 67/67/5 66/66/5 65/65/5
f 68/68/5 67/67/5 65/65/5
f 71/71/6 70/70/6 69/69/6
f 72/72/6 71/71/6 69/69/6
f 75/75/1 74/74/1 73/73/1
f 76/76/1 75/75/1 73/73/1
f 79/79/2 78/78/2 77/77/2
f 80/80/2 79/79/2 77/77/2
f 83/83/3 82/82/3 81/81/3
f 84/84/3 83/83/3 81/81/3
f 87/87/4 86/86/4 85/85/4
f 88/88/4 87/87/4 85/85/4
f 91/91/5 90/90/5 89/89/5
f 92/92/5 91/91/5 89/89/5
f 95/95/6 94/94/6 93/93/6
f 96/96/6 95/95/6 93/93/6
f 99/99/1 98/98/1 97/97/1
f 100/100/1 99/99/1 97/97/1
f 103/103/2 102/102/2 101/101/2
f 104/104/2 103/103/2 101/101/2
f 107/107/7 106/106/7 105/105/7
f 108/108/7 107/107/7 105/105/7
f 111/111/8 110/110/8 109/109/8
f 112/112/8 111/111/8 109/109/8
f 115/115/9 114/114/9 113/113/9
f 116/116/9 115/115/9 113/113/9
f 119/119/10 118/118/10 117/117/10
f 120/120/10 119/119/10 117/117/10
f 123/123/1 122/122/1 121/121/1
f 124/124/1 123/123/1 121/121/1
f 127/127/2 126/126/2 125/125/2
f 128/128/2 127/127/2 125/125/2
f 131/131/7 130/130/7 129/129/7
f 132/132/7 131/131/7 129/129/7
f 135/135/8 134/134/8 133/133/8
f 136/136/8 135/135/8 133/133/8
f 139/139/9 138/138/9 137/137/9
f 140/140/9 139/139/9 137/137/9
f 143/143/10 142/142/10 141/141/10
f 144/144/10 143/143/10 141/141/10
f 147/147/1 146/146/1 145/145/1
f 148/148/1 147/147/1 145/145/1
f 151/151/2 150/150/2 149/149/2
f 152/152/2 151/151/2 149/149/2
f 155/155/7 154/154/7 153/153/7
f 156/156/7 155/155/7 153/153/7
f 159/159/8 158/158/8 157/157/8
f 160/160/8 159/159/8 157/157/8
f 163/163/9 162/162/9 161/161/9
f 164/164/9 163/163/9 161/161/9
f 167/167/10 166/166/10 165/165/10
f 168/168/10 167/167/10 165/165/10
f 171/171/1 170/170/1 169/169/1
f 172/172/1 171/171/1 169/169/1
f 175/175/2 174/174/2 173/173/2
f 176/176/2 175/175/2 173/173/2
f 179/179/7 178/178/7 177/177/7
f 180/180/7 179/179/7 177/177/7
f 183/183/8 182/182/8 181/181/8
f 184/184/8 183/183/8 181/181/8
f 187/187/9 186/186/9 185/185/9
f 188/188/9 187/187/9 185/185/9
f 191/191/10 190/190/10 189/189/10
f 192/192/10 191/191/10 189/189/10
f 195/195/1 194/194/1 193/193/1
f 196/196/1 195/195/1 193/193/1
f 199/199/2 198/198/2 197/197/2
f 200/200/2 199/199/2 197/197/2
f 203/203/11 202/202/11 201/201/11
f 204/204/11 203/203/11 201/201/11
f 207/207/12 206/206/12 205/205/12
f 208/208/12 207/207/12 205/205/12
f 211/211/13 210/210/13 209/209/13
f 212/212/13 211/211/13 209/209/13
f 215/215/14 214/214/14 213/213/14
f 216/216/14 215/215/14 213/213/14
f 219/219/1 218/218/1 217/217/1
f 220/220/1 219/219/1 217/217/1
f 223/223/2 222/222/2 221/221/2
f 224/224/2 223/223/2 221/221/2
f 227/227/11 226/226/11 225/225/11
f 228/228/11 227/227/11 225/225/11
f 231/231/12 230/230/12 229/229/12
f 232/232/12 231/231/12 229/229/12
f 235/235/13 234/234/13 233/233/13
f 236/236/13 235/235/13 233/233/13
f 239/239/14 238/238/14 237/237/14
f 240/240/14 239/239/14 237/237/14
f 243/243/1 242/242/1 241/241/1
f 244/244/1 243/243/1 241/241/1
f 247/247/2 246/246/2 245/245/2
f 248/248/2 247/247/2 245/245/2
f 251/251/11 250/250/11 249/249/11
f 252/252/11 251/251/11 249/249/11
f 255/255/12 254/254/12 253/253/12
f 256/256/12 255/255/12 253/253/12
f 259/259/13 258/258/13 257/257/13
f 260/260/13 259/259/13 257/257/13
f 263/263/14 262/262/14 261/261/14
f 264/264/14 263/263/14 261/261/14
f 267/267/1 266/266/1 265/265/1
f 268/268/1 267/267/1 265/265/1
f 271/271/2 270/270/2 269/269/2
f 272/272/2 271/271/2 269/269/2
f 275/275/11 274/274/11 273/273/11
f 276/276/11 275/275/11 273/273/11
f 279/279/12 278/278/12 277/277/12
f 280/280/12 279/279/12 277/277/12
f 283/283/13 282/282/13 281/281/13
f 284/284/13 283/283/13 281/281/13
f 287/287/14 286/286/14 285/285/14
f 288/288/14 287/287/14 285/285/14
f 291/291/1 290/290/1 289/289/1
f 292/292/1 291/291/1 289/289/1
f 295/295/2 294/294/2 293/293/2
f 296/296/2 295/295/2 293/293/2
f 299/299/15 298/298/15 297/297/15
f 300/300/15 299/299/15 297/297/15
f 303/303/16 302/302/16 301/301/16
f 304/304/16 303/303/16 301/301/16
f 307/307/17 306/306/17 305/305/17
f 308/308/17 307/307/17 305/305/17
f 311/311/18 310/310/18 309/309/18
f 312/312/18 311/311/18 309/309/18
f 315/315/1 314/314/1 313/313/1
f 316/316/1 315/315/1 313/313/1
f 319/319/2 318/318/2 317/317/2
f 320/320/2 319/319/2 317/317/2
f 323/323/15 322/322/15 321/321/15
f 324/324/15 323/323/15 321/321/15
f 327/327/16 326/326/16 325/325/16
f 328/328/16 327/327/16 325/325/16
f 331/331/17 330/330/17 329/329/17
f 332/332/17 331/331/17 329/329/17
f 335/335/18 334/334/18 333/333/18
f 336/336/18 335/335/18 333/333/18
f 339/339/1 338/338/1 337/337/1
f 340/340/1 339/339/1 337/337/1
f 343/343/2 342/342/2 341/341/2
f 344/344/2 343/343/2 341/341/2
f 347/347/15 346/346/15 345/345/15
f 348/348/15 347/347/15 345/345/15
f 351/351/16 350/350/16 349/349/16
f 352/352/16 351/351/16 349/349/16
f 355/355/17 354/354/17 353/353/17
f 356/356/17 355/355/17 353/353/17
f 359/359/18 358/358/18 357/357/18
f 360/360/18 359/359/18 357/357/18
f 363/363/1 362/362/1 361/361/1
f 364/364/1 363/363/1 361/361/1
f 367/367/2 366/366/2 365/365/2
f 368/368/2 367/367/2 365/365/2
f 371/371/15 370/370/15 369/369/15
f 372/372/15 371/371/15 369/369/15
f 375/375/16 374/374/16 373/373/16
f 376/376/16 375/375/16 373/373/16
f 379/379/17 378/378/17 377/377/17
f 380/380/17 379/379/17 377/377/17
f 383/383/18 382/382/18 381/381/18
f 384/384/18 383/383/18 381/381/18
f 387/387/1 386/386/1 385/385/1
f 388/388/1 387/387/1 385/385/1
f 391/391/2 390/390/2 389/389/2
f 392/392/2 391/391/2 389/389/2
f 395/395/3 394/394/3 393/393/3
f 396/396/3 395/395/3 393/393/3
f 399/399/4 398/398/4 397/397/4
f 400/400/4 399/399/4 397/397/4
f 403/403/5 402/402/5 401/401/5
f 404/404/5 403/403/5 401/401/5
f 407/407/6 406/406/6 405/405/6
f 408/408/6 407/407/6 405/405/6
f 411/411/1 410/410/1 409/409/1
f 412/412/1 411/411/1 409/409/1
f 415/415/2 414/414/2 413/413/2
f 416/416/2 415/415/2 413/413/2
f 419/419/3 418/418/3 417/417/3
f 420/420/3 419/419/3 417/417/3
f 423/423/4 422/422/4 421/421/4
f 424/424/4 423/423/4 421/421/4
f 427/427/5 426/426/5 425/425/5
f 428/428/5 427/427/5 425/425/5
f 431/431/6 430/430/6 429/429/6
f 432/432/6 431/431/6 429/429/6
f 435/435/1 434/434/1 433/433/1
f 436/436/1 435/435/1 433/433/1
f 439/439/2 438/438/2 437/437/2
f 440/440/2 439/439/2 437/437/2
f 443/443/3 442/442/3 441/441/3
f 444/444/3 443/443/3 441/441/3
f 447/447/4 446/446/4 445/445/4
f 448/448/4 447/447/4 445/445/4
f 451/451/5 450/450/5 449/449/5
f 452/452/5 451/451/5 449/449/5
f 455/455/6 454/454/6 453/453/6
f 456/456/6 455/455/6 453/453/6
f 459/459/1 458/458/1 457/457/1
f 460/460/1 459/459/1 457/457/1
f 463/463/2 462/462/2 461/461/2
f 464/464/2 463/463/2 461/461/2
f 467/467/3 466/466/3 465/465/3
f 468/468/3 467/467/3 465/465/3
f 471/471/4 470/470/4 469/469/4
f 472/472/4 471/471/4 469/469/4
f 475/475/5 474/474/5 473/473/5
f 476/476/5 475/475/5 473/473/5
f 479/479/6 478/478/6 477/477/6
f 480/480/6 479/479/6 477/477/6
f 483/483/1 482/482/1 481/481/1
f 484/484/1 483/483/1 481/481/1
f 487/487/2 486/486/2 485/485/2
f 488/488/2 487/487/2 485/485/2
f 491/491/7 490/490/7 489/489/7
f 492/492/7 491/491/7 489/489/7
f 495/495/8 494/494/8 493/493/8
f 496/496/8 495/495/8 493/493/8
f 499/499/9 498/498/9 497/497/9
f 500/500/9 499/499/9 497/497/9
f 503/503/10 502/502/10 501/501/10
f 504/504/10 503/503/10 501/501/10
f 507/507/1 506/506/1 505/505/1
f 508/508/1 507/507/1 505/505/1
f 511/511/2 510/510/2 509/509/2
f 512/512/2 511/511/2 509/509/2
f 515/515/7 514/514/7 513/513/7
f 516/516/7 515/515/7 513/513/7
f 519/519/8 518/518/8 517/517/8
f 520/520/8 519/519/8 517/517/8
f 523/523/9 522/522/9 521/521/9
f 524/524/9 523/523/9 521/521/9
f 527/527/10 526/526/10 525/525/10
f 528/528/10 527/527/10 525/525/10
f 531/531/1 530/530/1 529/529/1
f 532/532/1 531/531/1 529/529/1
f 535/535/2 534/534/2 533/533/2
f 536/536/2 535/535/2 533/533/2
f 539/539/7 538/538/7 537/537/7
f 540/540/7 539/539/7 537/537/7
f 543/543/8 542/542/8 541/541/8
f 544/544/8 543/543/8 541/541/8
f 547/547/9 546/546/9 545/545/9
f 548/548/9 547/547/9 545/545/9
f 551/551/10 550/550/10 549/549/10
f 552/552/10 551/551/10 549/549/10
f 555/555/1 554/554/1 553/553/1
f 556/556/1 555/555/1 553/553/1
f 559/559/2 558/558/2 557/557/2
f 560/560/2 559/559/2 557/557/2
f 563/563/7 562/562/7 561/561/7
f 564/564/7 563/563/7 561/561/7
f 567/567/8 566/566/8 565/565/8
f 568/568/8 567/567/8 565/565/8
f 571/571/9 570/570/9 569/569/9
f 572/572/9 571/571/9 569/569/9
f 575/575/10 574/574/10 573/573/10
f 576/576/10 575/575/10 573/573/10
f 579/579/1 578/578/1 577/577/1
f 580/580/1 579/579/1 577/577/1
f 583/583/2 582/582/2 581/581/2
f 584/584/2 583/583/2 581/581/2
f 587/587/11 586/586/11 585/585/11
f 588/588/11 587/587/11 585/585/11
f 591/591/12 590/590/12 589/589/12
f 592/592/12 591/591/12 589/589/12
f 595/595/13 594/594/13 593/593/13
f 596/596/13 595/595/13 593/593/13
f 599/599/14 598/598/14 597/597/14
f 600/600/14 599/599/14 597/597/14
f 603/603/1 602/602/1 601/601/1
f 604/604/1 603/603/1 601/601/1
f 607/607/2 606/606/2 605/605/2
f 608/608/2 607/607/2 605/605/2
f 611/611/11 610/610/11 609/609/11
f 612/612/11 611/611/11 609/609/11
f 615/615/12 614/614/12 613/613/12
f 616/616/12 615/615/12 613/613/12
f 619/619/13 618/618/13 617/617/13
f 620/620/13 619/619/13 617/617/13
f 623/623/14 622/622/14 621/621/14
f 624/624/14 623/623/14 621/621/14
f 627/627/1 626/626/1 625/625/1
f 628/628/1 627/627/1 625/625/1
f 631/631/2 630/630/2 629/629/2
f 632/632/2 631/631/2 629/629/2
f 635/635/11 634/634/11 633/633/11
f 636/636/11 635/635/11 633/633/11
f 639/639/12 638/638/12 637/637/12
f 640/640/12 639/639/12 637/637/12
f 643/643/13 642/642/13 641/641/13
f 644/644/13 643/643/13 641/641/13
f 647/647/14 646/646/14 645/645/14
f 648/648/14 647/647/14 645/645/14
f 651/651/1 650/650/1 649/649/1
f 652/652/1 651/651/1 649/649/1
f 655/655/2 654/654/2 653/653/2
f 656/656/2 655/655/2 653/653/2
f 659/659/11 658/658/11 657/657/11
f 660/660/11 659/659/11 657/657/11
f 663/663/12 662/662/12 661/661/12
f 664/664/12 663/663/12 661/661/12
f 667/667/13 666/666/13 665/665/13
f 668/668/13 667/667/13 665/665/13
f 671/671/14 670/670/14 669/669/14
f 672/672/14 671/671/14 669/669/14
f 675/675/1 674/674/1 673/673/1
f 676/676/1 675/675/1 673/673/1
f 679/679/2 678/678/2 677/677/2
f 680/680/2 679/679/2 677/677/2
f 683/683/15 682/682/15 681/681/15
f 684/684/15 683/683/15 681/681/15
f 687/687/16 686/686/16 685/685/16
f 688/688/16 687/687/16 685/685/16
f 691/691/17 690/690/17 689/689/17
f 692/692/17 691/691/17 689/689/17
f 695/695/18 694/694/18 693/693/18
f 696/696/18 695/695/18 693/693/18
f 699/699/1 698/698/1 697/697/1
f 700/700/1 699/699/1 697/697/1
f 703/703/2 702/702/2 701/701/2
f 704/704/2 703/703/2 701/701/2
f 707/707/15 706/706/15 705/705/15
f 708/708/15 707/707/15 705/705/15
f 711/711/16 710/710/16 709/709/16
f 712/712/16 711/711/16 709/709/16
f 715/715/17 714/714/17 713/713/17
f 716/716/17 715/715/17 713/713/17
f 719/719/18 718/718/18 717/717/18
f 720/720/18 719/719/18 717/717/18
f 723/723/1 722/722/1 721/721/1
f 724/724/1 723/723/1 721/721/1
f 727/727/2 726/726/2 725/725/2
f 728/728/2 727/727/2 725/725/2
f 731/731/15 730/730/15 729/729/15
f 732/732/15 731/731/15 729/729/15
f 735/735/16 734/734/16 733/733/16
f 736/736/16 735/735/16 733/733/16
f 739/739/17 738/738/17 737/737/17
f 740/740/17 739/739/17 737/737/17
f 743/743/18 742/742/18 741/741/18
f 744/744/18 743/743/18 741/741/18
f 747/747/1 746/746/1 745/745/1
f 748/748/1 747/747/1 745/745/1
f 751/751/2 750/750/2 749/749/2
f 752/752/2 751/751/2 749/749/2
f 755/755/15 754/754/15 753/753/15
f 756/756/15 755/755/15 753/753/15
f 759/759/16 758/758/16 757/757/16
f 760/760/16 759/759/16 757/757/16
f 763/763/17 762/762/17 761/761/17
f 764/764/17 763/763/17 761/761/17
f 767/767/18 766/766/18 765/765/18
f 768/768/18 767/767/18 765/765/18
f 771/771/1 770/770/1 769/769/1
f 772/772/1 771/771/1 769/769/1
f 775/775/2 774/774/2 773/773/2
f 776/776/2 775/775/2 773/773/2
f 779/779/3 778/778/3 777/777/3
f 780/780/3 779/779/3 777/777/3
f 783/783/4 782/782/4 781/781/4
f 784/784/4 783/783/4 781/781/4
f 787/787/5 786/786/5 785/785/5
f 788/788/5 787/787/5 785/785/5
f 791/791/6 790/790/6 789/789/6
f 792/792/6 791/791/6 789/789/6
f 795/795/1 794/794/1 793/793/1
f 796/796/1 795/795/1 793/793/1
f 799/799/2 798/798/2 797/797/2
f 800/800/2 799/799/2 797/797/2
f 803/803/3 802/802/3 801/801/3
f 804/804/3 803/803/3 801/801/3
f 807/807/4 806/806/4 805/805/4
f 808/808/4 807/807/4 805/805/4
f 811/811/5 810/810/5 809/809/5
f 812/812/5 811/811/5 809/809/5
f 815/815/6 814/814/6 813/813/6
f 816/816/6 815/815/6 813/813/6
f 819/819/1 818/818/1 817/817/1
f 820/820/1 819/819/1 817/817/1
f 823/823/2 822/822/2 821/821/2
f 824/824/2 823/823/2 821/821/2
f 827/827/3 826/826/3 825/825/3
f 828/828/3 827/827/3 825/825/3
f 831/831/4 830/830/4 829/829/4
f 832/832/4 831/831/4 829/829/4
f 835/835/5 834/834/5 833/833/5
f 836/836/5 835/835/5 833/833/5
f 839/839/6 838/838/6 837/837/6
f 840/840/6 839/839/6 837/837/6
f 843/843/1 842/842/1 841/841/1
f 844/844/1 843/843/1 841/841/1
f 847/847/2 846/846/2 845/845/2
f 848/848/2 847/847/2 845/845/2
f 851/851/3 850/850/3 849/849/3
f 852/852/3 851/851/3 849/849/3
f 855/855/4 854/854/4 853/853/4
f 856/856/4 855/855/4 853/853/4
f 859/859/5 858/858/5 857/857/5
f 860/860/5 859/859/5 857/857/5
f 863/863/6 862/862/6 861/861/6
f 864/864/6 863/863/6 861/861/6
f 867/867/1 866/866/1 865/865/1
f 868/868/1 867/867/1 865/865/1
f 871/871/2 870/870/2 869/869/2
f 872/872/2 871/871/2 869/869/2
f 875/875/7 874/874/7 873/873/7
f 876/876/7 875/875/7 873/873/7
f 879/879/8 878/878/8 877/877/8
f 880/880/8 879/879/8 877/877/8
f 883/883/9 882/882/9 881/881/9
f 884/884/9 883/883/9 881/881/9
f 887/887/10 886/886/10 885/885/10
f 888/888/10 887/887/10 885/885/10
f 891/891/1 890/890/1 889/889/1
f 892/892/1 891/891/1 889/889/1
f 895/895/2 894/894/2 893/893/2
f 896/896/2 895/895/2 893/893/2
f 899/899/7 898/898/7 897/897/7
f 900/900/7 899/899/7 897/897/7
f 903/903/8 902/902/8 901/901/8
f 904/904/8 903/903/8 901/901/8
f 907/907/9 906/906/9 905/905/9
f 908/908/9 907/907/9 905/905/9
f 911/911/10 910/910/10 909/909/10
f 912/912/10 911/911/10 909/909/10
f 915/915/1 914/914/1 913/913/1
f 916/916/1 915/915/1 913/913/1
f 919/919/2 918/918/2 917/917/2
f 920/920/2 919/919/2 917/917/2
f 923/923/7 922/922/7 921/921/7
f 924/924/7 923/923/7 921/921/7
f 927/927/8 926/926/8 925/925/8
f 928/928/8 927/927/8 925/925/8
f 931/931/9 930/930/9 929/929/9
f 932/932/9 931/931/9 929/929/9
f 935/935/10 934/934/10 933/933/10
f 936/936/10 935/935/10 933/933/10
f 939/939/1 938/938/1 937/937/1
f 940/940/1 939/939/1 937/937/1
f 943/943/2 942/942/2 941/941/2
f 944/944/2 943/943/2 941/941/2
f 947/947/7 946/946/7 945/945/7
f 948/948/7 947/947/7 945/945/7
f 951/951/8 950/950/8 949/949/8
f 952/952/8 951/951/8 949/949/8
f 955/955/9 954/954/9 953/953/9
f 956/956/9 955/955/9 953/953/9
f 959/959/10 958/958/10 957/957/10
f 960/960/10 959/959/10 957/957/10
f 963/963/1 962/962/1 961/961/1
f 964/964/1 963/963/1 961/961/1
f 967/967/2 966/966/2 965/965/2
f 968/968/2 967/967/2 965/965/2
f 971/971/11 970/970/11 969/969/11
f 972/972/11 971/971/11 969/969/11
f 975/975/12 974/974/12 973/973/12
f 976/976/12 975/975/12 973/973/12
f 979/979/13 978/978/13 977/977/13
f 980/980/13 979/979/13 977/977/13
f 983/983/14 982/982/14 981/981/14
f 984/984/14 983/983/14 981/981/14
f 987/987/1 986/986/1 985/985/1
f 988/988/1 987/987/1 985/985/1
f 991/991/2 990/990/2 989/989/2
f 992/992/2 991/991/2 989/989/2
f 995/995/11 994/994/11 993/993/11
f 996/996/11 995/995/11 993/993/11
f 999/999/12 998/998/12 997/997/12
f 1000/1000/12 999/999/12 997/997/12
f 1003/1003/13 1002/1002/13 1001/1001/13
f 1004/1004/13 1003/1003/13 1001/1001/13
f 1007/1007/14 1006/1006/14 1005/1005/14
f 1008/1008/14 1007/1007/14 1005/1005/14
f 1011/1011/1 1010/1010/1 1009/1009/1
f 1012/1012/1 1011/1011/1 1009/1009/1
f 1015/1015/2 1014/1014/2 1013/1013/2
f 1016/1016/2 1015/1015/2 1013/1013/2
f 1019/1019/11 1018/1018/11 1017/1017/11
f 1020/1020/11 1019/1019/11 1017/1017/11
f 1023/1023/12 1022/1022/12 1021/1021/12
f 1024/1024/12 1023/1023/12 1021/1021/12
f 1027/1027/13 1026/1026/13 1025/1025/13
f 1028/1028/13 1027/1027/13 1025/1025/13
f 1031/1031/14 1030/1030/14 1029/1029/14
f 1032/1032/14 1031/1031/14 1029/1029/14
f 1035/1035/1 1034/1034/1 1033/1033/1
f 1036/1036/1 1035/1035/1 1033/1033/1
f 1039/1039/2 1038/1038/2 1037/1037/2
f 1040/1040/2 1039/1039/2 1037/1037/2
f 1043/1043/11 1042/1042/11 1041/1041/11
f 1044/1044/11 1043/1043/11 1041/1041/11
f 1047/1047/12 1046/1046/12 1045/1045/12
f 1048/1048/12 1047/1047/12 1045/1045/12
f 1051/1051/13 1050/1050/13 1049/1049/13
f 1052/1052/13 1051/1051/13 1049/1049/13
f 1055/1055/14 1054/1054/14 1053/1053/14
f 1056/1056/14 1055/1055/14 1053/1053/14
f 1059/1059/1 1058/1058/1 1057/1057/1
f 1060/1060/1 1059/1059/1 1057/1057/1
f 1063/1063/2 1062/1062/2 1061/1061/2
f 1064/1064/2 1063/1063/2 1061/1061/2
f 1067/1067/15 1066/1066/15 1065/1065/15
f 1068/1068/15 1067/1067/15 1065/1065/15
f 1071/1071/16 1070/1070/16 1069/1069/16
f 1072/1072/16 1071/1071/16 1069/1069/16
f 1075/1075/17 1074/1074/17 1073/1073/17
f 1076/1076/17 1075/1075/17 1073/1073/17
f 1079/1079/18 1078/1078/18 1077/1077/18
f 1080/1080/18 1079/1079/18 1077/1077/18
f 1083/1083/1 1082/1082/1 1081/1081/1
f 1084/1084/1 1083/1083/1 1081/1081/1
f 1087/1087/2 1086/1086/2 1085/1085/2
f 1088/1088/2 1087/1087/2 1085/1085/2
f 1091/1091/15 1090/1090/15 1089/1089/15
f 1092/1092/15 1091/1091/15 1089/1089/15
f 1095/1095/16 1094/1094/16 1093/1093/16
f 1096/1096/16 1095/1095/16 1093/1093/16
f 1099/1099/17 1098/1098/17 1097/1097/17
f 1100/1100/17 1099/1099/17 1097/1097/17
f 1103/1103/18 1102/1102/18 1101/1101/18
f 1104/1104/18 1103/1103/18 1101/1101/18
f 1107/1107/1 1106/1106/1 1105/1105/1
f 1108/1108/1 1107/1107/1 1105/1105/1
f 1111/1111/2 1110/1110/2 1109/1109/2
f 1112/1112/2 1111/1111/2 1109/1109/2
f 1115/1115/15 1114/1114/15 1113/1113/15
f 1116/1116/15 1115/1115/15 1113/1113/15
f 1119/1119/16 1118/1118/16 1117/1117/16
f 1120/1120/16 1119/1119/16 1117/1117/16
f 1123/1123/17 1122/1122/17 1121/1121/17
f 1124/1124/17 1123/1123/17 1121/1121/17
f 1127/1127/18 1126/1126/18 1125/1125/18
f 1128/1128/18 1127/1127/18 1125/1125/18
f 1131/1131/1 1130/1130/1 1129/1129/1
f 1132/1132/1 1131/1131/1 1129/1129/1
f 1135/1135/2 1134/1134/2 1133/1133/2
f 1136/1136/2 1135/1135/2 1133/1133/2
f 1139/1139/15 1138/1138/15 1137/1137/15
f 1140/1140/15 1139/1139/15 1137/1137/15
f 1143/1143/16 1142/1142/16 1141/1141/16
f 1144/1144/16 1143/1143/16 1141/1141/16
f 1147/1147/17 1146/1146/17 1145/1145/17
f 1148/1148/17 1147/1147/17 1145/1145/17
f 1151/1151/18 1150/1150/18 1149/1149/18
f 1152/1152/18 1151/1151/18 1149/1149/18
