mtllib SM_BB_LH_ArcSource.mtl
o SM_BB_LH_ArcSource
v 0.0000 -0.0000 -24.0000
v 0.0000 -0.0000 -24.0000
v 3.9658 -0.5221 -21.0000
v 4.0000 -0.0000 -21.0000
v 0.0000 -0.0000 -24.0000
v 0.0000 -0.0000 -24.0000
v 3.8637 -1.0353 -21.0000
v 3.9658 -0.5221 -21.0000
v 0.0000 -0.0000 -24.0000
v 0.0000 -0.0000 -24.0000
v 3.6955 -1.5307 -21.0000
v 3.8637 -1.0353 -21.0000
v 0.0000 -0.0000 -24.0000
v 0.0000 -0.0000 -24.0000
v 3.4641 -2.0000 -21.0000
v 3.6955 -1.5307 -21.0000
v 0.0000 -0.0000 -24.0000
v 0.0000 -0.0000 -24.0000
v 3.1734 -2.4350 -21.0000
v 3.4641 -2.0000 -21.0000
v 0.0000 -0.0000 -24.0000
v 0.0000 -0.0000 -24.0000
v 2.8284 -2.8284 -21.0000
v 3.1734 -2.4350 -21.0000
v 0.0000 -0.0000 -24.0000
v 0.0000 -0.0000 -24.0000
v 2.4350 -3.1734 -21.0000
v 2.8284 -2.8284 -21.0000
v 0.0000 -0.0000 -24.0000
v 0.0000 -0.0000 -24.0000
v 2.0000 -3.4641 -21.0000
v 2.4350 -3.1734 -21.0000
v 0.0000 -0.0000 -24.0000
v 0.0000 -0.0000 -24.0000
v 1.5307 -3.6955 -21.0000
v 2.0000 -3.4641 -21.0000
v 0.0000 -0.0000 -24.0000
v 0.0000 -0.0000 -24.0000
v 1.0353 -3.8637 -21.0000
v 1.5307 -3.6955 -21.0000
v 0.0000 -0.0000 -24.0000
v 0.0000 -0.0000 -24.0000
v 0.5221 -3.9658 -21.0000
v 1.0353 -3.8637 -21.0000
v 0.0000 -0.0000 -24.0000
v 0.0000 -0.0000 -24.0000
v 0.0000 -4.0000 -21.0000
v 0.5221 -3.9658 -21.0000
v 0.0000 -0.0000 -24.0000
v -0.0000 -0.0000 -24.0000
v -0.5221 -3.9658 -21.0000
v 0.0000 -4.0000 -21.0000
v -0.0000 -0.0000 -24.0000
v -0.0000 -0.0000 -24.0000
v -1.0353 -3.8637 -21.0000
v -0.5221 -3.9658 -21.0000
v -0.0000 -0.0000 -24.0000
v -0.0000 -0.0000 -24.0000
v -1.5307 -3.6955 -21.0000
v -1.0353 -3.8637 -21.0000
v -0.0000 -0.0000 -24.0000
v -0.0000 -0.0000 -24.0000
v -2.0000 -3.4641 -21.0000
v -1.5307 -3.6955 -21.0000
v -0.0000 -0.0000 -24.0000
v -0.0000 -0.0000 -24.0000
v -2.4350 -3.1734 -21.0000
v -2.0000 -3.4641 -21.0000
v -0.0000 -0.0000 -24.0000
v -0.0000 -0.0000 -24.0000
v -2.8284 -2.8284 -21.0000
v -2.4350 -3.1734 -21.0000
v -0.0000 -0.0000 -24.0000
v -0.0000 -0.0000 -24.0000
v -3.1734 -2.4350 -21.0000
v -2.8284 -2.8284 -21.0000
v -0.0000 -0.0000 -24.0000
v -0.0000 -0.0000 -24.0000
v -3.4641 -2.0000 -21.0000
v -3.1734 -2.4350 -21.0000
v -0.0000 -0.0000 -24.0000
v -0.0000 -0.0000 -24.0000
v -3.6955 -1.5307 -21.0000
v -3.4641 -2.0000 -21.0000
v -0.0000 -0.0000 -24.0000
v -0.0000 -0.0000 -24.0000
v -3.8637 -1.0353 -21.0000
v -3.6955 -1.5307 -21.0000
v -0.0000 -0.0000 -24.0000
v -0.0000 -0.0000 -24.0000
v -3.9658 -0.5221 -21.0000
v -3.8637 -1.0353 -21.0000
v -0.0000 -0.0000 -24.0000
v -0.0000 -0.0000 -24.0000
v -4.0000 -0.0000 -21.0000
v -3.9658 -0.5221 -21.0000
v -0.0000 -0.0000 -24.0000
v -0.0000 0.0000 -24.0000
v -3.9658 0.5221 -21.0000
v -4.0000 -0.0000 -21.0000
v -0.0000 0.0000 -24.0000
v -0.0000 0.0000 -24.0000
v -3.8637 1.0353 -21.0000
v -3.9658 0.5221 -21.0000
v -0.0000 0.0000 -24.0000
v -0.0000 0.0000 -24.0000
v -3.6955 1.5307 -21.0000
v -3.8637 1.0353 -21.0000
v -0.0000 0.0000 -24.0000
v -0.0000 0.0000 -24.0000
v -3.4641 2.0000 -21.0000
v -3.6955 1.5307 -21.0000
v -0.0000 0.0000 -24.0000
v -0.0000 0.0000 -24.0000
v -3.1734 2.4350 -21.0000
v -3.4641 2.0000 -21.0000
v -0.0000 0.0000 -24.0000
v -0.0000 0.0000 -24.0000
v -2.8284 2.8284 -21.0000
v -3.1734 2.4350 -21.0000
v -0.0000 0.0000 -24.0000
v -0.0000 0.0000 -24.0000
v -2.4350 3.1734 -21.0000
v -2.8284 2.8284 -21.0000
v -0.0000 0.0000 -24.0000
v -0.0000 0.0000 -24.0000
v -2.0000 3.4641 -21.0000
v -2.4350 3.1734 -21.0000
v -0.0000 0.0000 -24.0000
v -0.0000 0.0000 -24.0000
v -1.5307 3.6955 -21.0000
v -2.0000 3.4641 -21.0000
v -0.0000 0.0000 -24.0000
v -0.0000 0.0000 -24.0000
v -1.0353 3.8637 -21.0000
v -1.5307 3.6955 -21.0000
v -0.0000 0.0000 -24.0000
v -0.0000 0.0000 -24.0000
v -0.5221 3.9658 -21.0000
v -1.0353 3.8637 -21.0000
v -0.0000 0.0000 -24.0000
v -0.0000 0.0000 -24.0000
v -0.0000 4.0000 -21.0000
v -0.5221 3.9658 -21.0000
v -0.0000 0.0000 -24.0000
v 0.0000 0.0000 -24.0000
v 0.5221 3.9658 -21.0000
v -0.0000 4.0000 -21.0000
v 0.0000 0.0000 -24.0000
v 0.0000 0.0000 -24.0000
v 1.0353 3.8637 -21.0000
v 0.5221 3.9658 -21.0000
v 0.0000 0.0000 -24.0000
v 0.0000 0.0000 -24.0000
v 1.5307 3.6955 -21.0000
v 1.0353 3.8637 -21.0000
v 0.0000 0.0000 -24.0000
v 0.0000 0.0000 -24.0000
v 2.0000 3.4641 -21.0000
v 1.5307 3.6955 -21.0000
v 0.0000 0.0000 -24.0000
v 0.0000 0.0000 -24.0000
v 2.4350 3.1734 -21.0000
v 2.0000 3.4641 -21.0000
v 0.0000 0.0000 -24.0000
v 0.0000 0.0000 -24.0000
v 2.8284 2.8284 -21.0000
v 2.4350 3.1734 -21.0000
v 0.0000 0.0000 -24.0000
v 0.0000 0.0000 -24.0000
v 3.1734 2.4350 -21.0000
v 2.8284 2.8284 -21.0000
v 0.0000 0.0000 -24.0000
v 0.0000 0.0000 -24.0000
v 3.4641 2.0000 -21.0000
v 3.1734 2.4350 -21.0000
v 0.0000 0.0000 -24.0000
v 0.0000 0.0000 -24.0000
v 3.6955 1.5307 -21.0000
v 3.4641 2.0000 -21.0000
v 0.0000 0.0000 -24.0000
v 0.0000 0.0000 -24.0000
v 3.8637 1.0353 -21.0000
v 3.6955 1.5307 -21.0000
v 0.0000 0.0000 -24.0000
v 0.0000 0.0000 -24.0000
v 3.9658 0.5221 -21.0000
v 3.8637 1.0353 -21.0000
v 0.0000 0.0000 -24.0000
v 0.0000 0.0000 -24.0000
v 4.0000 0.0000 -21.0000
v 3.9658 0.5221 -21.0000
v 4.0000 -0.0000 -21.0000
v 3.9658 -0.5221 -21.0000
v 5.9487 -0.7832 -14.0000
v 6.0000 -0.0000 -14.0000
v 3.9658 -0.5221 -21.0000
v 3.8637 -1.0353 -21.0000
v 5.7956 -1.5529 -14.0000
v 5.9487 -0.7832 -14.0000
v 3.8637 -1.0353 -21.0000
v 3.6955 -1.5307 -21.0000
v 5.5433 -2.2961 -14.0000
v 5.7956 -1.5529 -14.0000
v 3.6955 -1.5307 -21.0000
v 3.4641 -2.0000 -21.0000
v 5.1962 -3.0000 -14.0000
v 5.5433 -2.2961 -14.0000
v 3.4641 -2.0000 -21.0000
v 3.1734 -2.4350 -21.0000
v 4.7601 -3.6526 -14.0000
v 5.1962 -3.0000 -14.0000
v 3.1734 -2.4350 -21.0000
v 2.8284 -2.8284 -21.0000
v 4.2426 -4.2426 -14.0000
v 4.7601 -3.6526 -14.0000
v 2.8284 -2.8284 -21.0000
v 2.4350 -3.1734 -21.0000
v 3.6526 -4.7601 -14.0000
v 4.2426 -4.2426 -14.0000
v 2.4350 -3.1734 -21.0000
v 2.0000 -3.4641 -21.0000
v 3.0000 -5.1962 -14.0000
v 3.6526 -4.7601 -14.0000
v 2.0000 -3.4641 -21.0000
v 1.5307 -3.6955 -21.0000
v 2.2961 -5.5433 -14.0000
v 3.0000 -5.1962 -14.0000
v 1.5307 -3.6955 -21.0000
v 1.0353 -3.8637 -21.0000
v 1.5529 -5.7956 -14.0000
v 2.2961 -5.5433 -14.0000
v 1.0353 -3.8637 -21.0000
v 0.5221 -3.9658 -21.0000
v 0.7832 -5.9487 -14.0000
v 1.5529 -5.7956 -14.0000
v 0.5221 -3.9658 -21.0000
v 0.0000 -4.0000 -21.0000
v 0.0000 -6.0000 -14.0000
v 0.7832 -5.9487 -14.0000
v 0.0000 -4.0000 -21.0000
v -0.5221 -3.9658 -21.0000
v -0.7832 -5.9487 -14.0000
v 0.0000 -6.0000 -14.0000
v -0.5221 -3.9658 -21.0000
v -1.0353 -3.8637 -21.0000
v -1.5529 -5.7956 -14.0000
v -0.7832 -5.9487 -14.0000
v -1.0353 -3.8637 -21.0000
v -1.5307 -3.6955 -21.0000
v -2.2961 -5.5433 -14.0000
v -1.5529 -5.7956 -14.0000
v -1.5307 -3.6955 -21.0000
v -2.0000 -3.4641 -21.0000
v -3.0000 -5.1962 -14.0000
v -2.2961 -5.5433 -14.0000
v -2.0000 -3.4641 -21.0000
v -2.4350 -3.1734 -21.0000
v -3.6526 -4.7601 -14.0000
v -3.0000 -5.1962 -14.0000
v -2.4350 -3.1734 -21.0000
v -2.8284 -2.8284 -21.0000
v -4.2426 -4.2426 -14.0000
v -3.6526 -4.7601 -14.0000
v -2.8284 -2.8284 -21.0000
v -3.1734 -2.4350 -21.0000
v -4.7601 -3.6526 -14.0000
v -4.2426 -4.2426 -14.0000
v -3.1734 -2.4350 -21.0000
v -3.4641 -2.0000 -21.0000
v -5.1962 -3.0000 -14.0000
v -4.7601 -3.6526 -14.0000
v -3.4641 -2.0000 -21.0000
v -3.6955 -1.5307 -21.0000
v -5.5433 -2.2961 -14.0000
v -5.1962 -3.0000 -14.0000
v -3.6955 -1.5307 -21.0000
v -3.8637 -1.0353 -21.0000
v -5.7956 -1.5529 -14.0000
v -5.5433 -2.2961 -14.0000
v -3.8637 -1.0353 -21.0000
v -3.9658 -0.5221 -21.0000
v -5.9487 -0.7832 -14.0000
v -5.7956 -1.5529 -14.0000
v -3.9658 -0.5221 -21.0000
v -4.0000 -0.0000 -21.0000
v -6.0000 -0.0000 -14.0000
v -5.9487 -0.7832 -14.0000
v -4.0000 -0.0000 -21.0000
v -3.9658 0.5221 -21.0000
v -5.9487 0.7832 -14.0000
v -6.0000 -0.0000 -14.0000
v -3.9658 0.5221 -21.0000
v -3.8637 1.0353 -21.0000
v -5.7956 1.5529 -14.0000
v -5.9487 0.7832 -14.0000
v -3.8637 1.0353 -21.0000
v -3.6955 1.5307 -21.0000
v -5.5433 2.2961 -14.0000
v -5.7956 1.5529 -14.0000
v -3.6955 1.5307 -21.0000
v -3.4641 2.0000 -21.0000
v -5.1962 3.0000 -14.0000
v -5.5433 2.2961 -14.0000
v -3.4641 2.0000 -21.0000
v -3.1734 2.4350 -21.0000
v -4.7601 3.6526 -14.0000
v -5.1962 3.0000 -14.0000
v -3.1734 2.4350 -21.0000
v -2.8284 2.8284 -21.0000
v -4.2426 4.2426 -14.0000
v -4.7601 3.6526 -14.0000
v -2.8284 2.8284 -21.0000
v -2.4350 3.1734 -21.0000
v -3.6526 4.7601 -14.0000
v -4.2426 4.2426 -14.0000
v -2.4350 3.1734 -21.0000
v -2.0000 3.4641 -21.0000
v -3.0000 5.1962 -14.0000
v -3.6526 4.7601 -14.0000
v -2.0000 3.4641 -21.0000
v -1.5307 3.6955 -21.0000
v -2.2961 5.5433 -14.0000
v -3.0000 5.1962 -14.0000
v -1.5307 3.6955 -21.0000
v -1.0353 3.8637 -21.0000
v -1.5529 5.7956 -14.0000
v -2.2961 5.5433 -14.0000
v -1.0353 3.8637 -21.0000
v -0.5221 3.9658 -21.0000
v -0.7832 5.9487 -14.0000
v -1.5529 5.7956 -14.0000
v -0.5221 3.9658 -21.0000
v -0.0000 4.0000 -21.0000
v -0.0000 6.0000 -14.0000
v -0.7832 5.9487 -14.0000
v -0.0000 4.0000 -21.0000
v 0.5221 3.9658 -21.0000
v 0.7832 5.9487 -14.0000
v -0.0000 6.0000 -14.0000
v 0.5221 3.9658 -21.0000
v 1.0353 3.8637 -21.0000
v 1.5529 5.7956 -14.0000
v 0.7832 5.9487 -14.0000
v 1.0353 3.8637 -21.0000
v 1.5307 3.6955 -21.0000
v 2.2961 5.5433 -14.0000
v 1.5529 5.7956 -14.0000
v 1.5307 3.6955 -21.0000
v 2.0000 3.4641 -21.0000
v 3.0000 5.1962 -14.0000
v 2.2961 5.5433 -14.0000
v 2.0000 3.4641 -21.0000
v 2.4350 3.1734 -21.0000
v 3.6526 4.7601 -14.0000
v 3.0000 5.1962 -14.0000
v 2.4350 3.1734 -21.0000
v 2.8284 2.8284 -21.0000
v 4.2426 4.2426 -14.0000
v 3.6526 4.7601 -14.0000
v 2.8284 2.8284 -21.0000
v 3.1734 2.4350 -21.0000
v 4.7601 3.6526 -14.0000
v 4.2426 4.2426 -14.0000
v 3.1734 2.4350 -21.0000
v 3.4641 2.0000 -21.0000
v 5.1962 3.0000 -14.0000
v 4.7601 3.6526 -14.0000
v 3.4641 2.0000 -21.0000
v 3.6955 1.5307 -21.0000
v 5.5433 2.2961 -14.0000
v 5.1962 3.0000 -14.0000
v 3.6955 1.5307 -21.0000
v 3.8637 1.0353 -21.0000
v 5.7956 1.5529 -14.0000
v 5.5433 2.2961 -14.0000
v 3.8637 1.0353 -21.0000
v 3.9658 0.5221 -21.0000
v 5.9487 0.7832 -14.0000
v 5.7956 1.5529 -14.0000
v 3.9658 0.5221 -21.0000
v 4.0000 0.0000 -21.0000
v 6.0000 0.0000 -14.0000
v 5.9487 0.7832 -14.0000
v 6.0000 -0.0000 -14.0000
v 5.9487 -0.7832 -14.0000
v 5.9487 -0.7832 14.0000
v 6.0000 -0.0000 14.0000
v 5.9487 -0.7832 -14.0000
v 5.7956 -1.5529 -14.0000
v 5.7956 -1.5529 14.0000
v 5.9487 -0.7832 14.0000
v 5.7956 -1.5529 -14.0000
v 5.5433 -2.2961 -14.0000
v 5.5433 -2.2961 14.0000
v 5.7956 -1.5529 14.0000
v 5.5433 -2.2961 -14.0000
v 5.1962 -3.0000 -14.0000
v 5.1962 -3.0000 14.0000
v 5.5433 -2.2961 14.0000
v 5.1962 -3.0000 -14.0000
v 4.7601 -3.6526 -14.0000
v 4.7601 -3.6526 14.0000
v 5.1962 -3.0000 14.0000
v 4.7601 -3.6526 -14.0000
v 4.2426 -4.2426 -14.0000
v 4.2426 -4.2426 14.0000
v 4.7601 -3.6526 14.0000
v 4.2426 -4.2426 -14.0000
v 3.6526 -4.7601 -14.0000
v 3.6526 -4.7601 14.0000
v 4.2426 -4.2426 14.0000
v 3.6526 -4.7601 -14.0000
v 3.0000 -5.1962 -14.0000
v 3.0000 -5.1962 14.0000
v 3.6526 -4.7601 14.0000
v 3.0000 -5.1962 -14.0000
v 2.2961 -5.5433 -14.0000
v 2.2961 -5.5433 14.0000
v 3.0000 -5.1962 14.0000
v 2.2961 -5.5433 -14.0000
v 1.5529 -5.7956 -14.0000
v 1.5529 -5.7956 14.0000
v 2.2961 -5.5433 14.0000
v 1.5529 -5.7956 -14.0000
v 0.7832 -5.9487 -14.0000
v 0.7832 -5.9487 14.0000
v 1.5529 -5.7956 14.0000
v 0.7832 -5.9487 -14.0000
v 0.0000 -6.0000 -14.0000
v 0.0000 -6.0000 14.0000
v 0.7832 -5.9487 14.0000
v 0.0000 -6.0000 -14.0000
v -0.7832 -5.9487 -14.0000
v -0.7832 -5.9487 14.0000
v 0.0000 -6.0000 14.0000
v -0.7832 -5.9487 -14.0000
v -1.5529 -5.7956 -14.0000
v -1.5529 -5.7956 14.0000
v -0.7832 -5.9487 14.0000
v -1.5529 -5.7956 -14.0000
v -2.2961 -5.5433 -14.0000
v -2.2961 -5.5433 14.0000
v -1.5529 -5.7956 14.0000
v -2.2961 -5.5433 -14.0000
v -3.0000 -5.1962 -14.0000
v -3.0000 -5.1962 14.0000
v -2.2961 -5.5433 14.0000
v -3.0000 -5.1962 -14.0000
v -3.6526 -4.7601 -14.0000
v -3.6526 -4.7601 14.0000
v -3.0000 -5.1962 14.0000
v -3.6526 -4.7601 -14.0000
v -4.2426 -4.2426 -14.0000
v -4.2426 -4.2426 14.0000
v -3.6526 -4.7601 14.0000
v -4.2426 -4.2426 -14.0000
v -4.7601 -3.6526 -14.0000
v -4.7601 -3.6526 14.0000
v -4.2426 -4.2426 14.0000
v -4.7601 -3.6526 -14.0000
v -5.1962 -3.0000 -14.0000
v -5.1962 -3.0000 14.0000
v -4.7601 -3.6526 14.0000
v -5.1962 -3.0000 -14.0000
v -5.5433 -2.2961 -14.0000
v -5.5433 -2.2961 14.0000
v -5.1962 -3.0000 14.0000
v -5.5433 -2.2961 -14.0000
v -5.7956 -1.5529 -14.0000
v -5.7956 -1.5529 14.0000
v -5.5433 -2.2961 14.0000
v -5.7956 -1.5529 -14.0000
v -5.9487 -0.7832 -14.0000
v -5.9487 -0.7832 14.0000
v -5.7956 -1.5529 14.0000
v -5.9487 -0.7832 -14.0000
v -6.0000 -0.0000 -14.0000
v -6.0000 -0.0000 14.0000
v -5.9487 -0.7832 14.0000
v -6.0000 -0.0000 -14.0000
v -5.9487 0.7832 -14.0000
v -5.9487 0.7832 14.0000
v -6.0000 -0.0000 14.0000
v -5.9487 0.7832 -14.0000
v -5.7956 1.5529 -14.0000
v -5.7956 1.5529 14.0000
v -5.9487 0.7832 14.0000
v -5.7956 1.5529 -14.0000
v -5.5433 2.2961 -14.0000
v -5.5433 2.2961 14.0000
v -5.7956 1.5529 14.0000
v -5.5433 2.2961 -14.0000
v -5.1962 3.0000 -14.0000
v -5.1962 3.0000 14.0000
v -5.5433 2.2961 14.0000
v -5.1962 3.0000 -14.0000
v -4.7601 3.6526 -14.0000
v -4.7601 3.6526 14.0000
v -5.1962 3.0000 14.0000
v -4.7601 3.6526 -14.0000
v -4.2426 4.2426 -14.0000
v -4.2426 4.2426 14.0000
v -4.7601 3.6526 14.0000
v -4.2426 4.2426 -14.0000
v -3.6526 4.7601 -14.0000
v -3.6526 4.7601 14.0000
v -4.2426 4.2426 14.0000
v -3.6526 4.7601 -14.0000
v -3.0000 5.1962 -14.0000
v -3.0000 5.1962 14.0000
v -3.6526 4.7601 14.0000
v -3.0000 5.1962 -14.0000
v -2.2961 5.5433 -14.0000
v -2.2961 5.5433 14.0000
v -3.0000 5.1962 14.0000
v -2.2961 5.5433 -14.0000
v -1.5529 5.7956 -14.0000
v -1.5529 5.7956 14.0000
v -2.2961 5.5433 14.0000
v -1.5529 5.7956 -14.0000
v -0.7832 5.9487 -14.0000
v -0.7832 5.9487 14.0000
v -1.5529 5.7956 14.0000
v -0.7832 5.9487 -14.0000
v -0.0000 6.0000 -14.0000
v -0.0000 6.0000 14.0000
v -0.7832 5.9487 14.0000
v -0.0000 6.0000 -14.0000
v 0.7832 5.9487 -14.0000
v 0.7832 5.9487 14.0000
v -0.0000 6.0000 14.0000
v 0.7832 5.9487 -14.0000
v 1.5529 5.7956 -14.0000
v 1.5529 5.7956 14.0000
v 0.7832 5.9487 14.0000
v 1.5529 5.7956 -14.0000
v 2.2961 5.5433 -14.0000
v 2.2961 5.5433 14.0000
v 1.5529 5.7956 14.0000
v 2.2961 5.5433 -14.0000
v 3.0000 5.1962 -14.0000
v 3.0000 5.1962 14.0000
v 2.2961 5.5433 14.0000
v 3.0000 5.1962 -14.0000
v 3.6526 4.7601 -14.0000
v 3.6526 4.7601 14.0000
v 3.0000 5.1962 14.0000
v 3.6526 4.7601 -14.0000
v 4.2426 4.2426 -14.0000
v 4.2426 4.2426 14.0000
v 3.6526 4.7601 14.0000
v 4.2426 4.2426 -14.0000
v 4.7601 3.6526 -14.0000
v 4.7601 3.6526 14.0000
v 4.2426 4.2426 14.0000
v 4.7601 3.6526 -14.0000
v 5.1962 3.0000 -14.0000
v 5.1962 3.0000 14.0000
v 4.7601 3.6526 14.0000
v 5.1962 3.0000 -14.0000
v 5.5433 2.2961 -14.0000
v 5.5433 2.2961 14.0000
v 5.1962 3.0000 14.0000
v 5.5433 2.2961 -14.0000
v 5.7956 1.5529 -14.0000
v 5.7956 1.5529 14.0000
v 5.5433 2.2961 14.0000
v 5.7956 1.5529 -14.0000
v 5.9487 0.7832 -14.0000
v 5.9487 0.7832 14.0000
v 5.7956 1.5529 14.0000
v 5.9487 0.7832 -14.0000
v 6.0000 0.0000 -14.0000
v 6.0000 0.0000 14.0000
v 5.9487 0.7832 14.0000
v 6.0000 -0.0000 14.0000
v 5.9487 -0.7832 14.0000
v 3.9658 -0.5221 21.0000
v 4.0000 -0.0000 21.0000
v 5.9487 -0.7832 14.0000
v 5.7956 -1.5529 14.0000
v 3.8637 -1.0353 21.0000
v 3.9658 -0.5221 21.0000
v 5.7956 -1.5529 14.0000
v 5.5433 -2.2961 14.0000
v 3.6955 -1.5307 21.0000
v 3.8637 -1.0353 21.0000
v 5.5433 -2.2961 14.0000
v 5.1962 -3.0000 14.0000
v 3.4641 -2.0000 21.0000
v 3.6955 -1.5307 21.0000
v 5.1962 -3.0000 14.0000
v 4.7601 -3.6526 14.0000
v 3.1734 -2.4350 21.0000
v 3.4641 -2.0000 21.0000
v 4.7601 -3.6526 14.0000
v 4.2426 -4.2426 14.0000
v 2.8284 -2.8284 21.0000
v 3.1734 -2.4350 21.0000
v 4.2426 -4.2426 14.0000
v 3.6526 -4.7601 14.0000
v 2.4350 -3.1734 21.0000
v 2.8284 -2.8284 21.0000
v 3.6526 -4.7601 14.0000
v 3.0000 -5.1962 14.0000
v 2.0000 -3.4641 21.0000
v 2.4350 -3.1734 21.0000
v 3.0000 -5.1962 14.0000
v 2.2961 -5.5433 14.0000
v 1.5307 -3.6955 21.0000
v 2.0000 -3.4641 21.0000
v 2.2961 -5.5433 14.0000
v 1.5529 -5.7956 14.0000
v 1.0353 -3.8637 21.0000
v 1.5307 -3.6955 21.0000
v 1.5529 -5.7956 14.0000
v 0.7832 -5.9487 14.0000
v 0.5221 -3.9658 21.0000
v 1.0353 -3.8637 21.0000
v 0.7832 -5.9487 14.0000
v 0.0000 -6.0000 14.0000
v 0.0000 -4.0000 21.0000
v 0.5221 -3.9658 21.0000
v 0.0000 -6.0000 14.0000
v -0.7832 -5.9487 14.0000
v -0.5221 -3.9658 21.0000
v 0.0000 -4.0000 21.0000
v -0.7832 -5.9487 14.0000
v -1.5529 -5.7956 14.0000
v -1.0353 -3.8637 21.0000
v -0.5221 -3.9658 21.0000
v -1.5529 -5.7956 14.0000
v -2.2961 -5.5433 14.0000
v -1.5307 -3.6955 21.0000
v -1.0353 -3.8637 21.0000
v -2.2961 -5.5433 14.0000
v -3.0000 -5.1962 14.0000
v -2.0000 -3.4641 21.0000
v -1.5307 -3.6955 21.0000
v -3.0000 -5.1962 14.0000
v -3.6526 -4.7601 14.0000
v -2.4350 -3.1734 21.0000
v -2.0000 -3.4641 21.0000
v -3.6526 -4.7601 14.0000
v -4.2426 -4.2426 14.0000
v -2.8284 -2.8284 21.0000
v -2.4350 -3.1734 21.0000
v -4.2426 -4.2426 14.0000
v -4.7601 -3.6526 14.0000
v -3.1734 -2.4350 21.0000
v -2.8284 -2.8284 21.0000
v -4.7601 -3.6526 14.0000
v -5.1962 -3.0000 14.0000
v -3.4641 -2.0000 21.0000
v -3.1734 -2.4350 21.0000
v -5.1962 -3.0000 14.0000
v -5.5433 -2.2961 14.0000
v -3.6955 -1.5307 21.0000
v -3.4641 -2.0000 21.0000
v -5.5433 -2.2961 14.0000
v -5.7956 -1.5529 14.0000
v -3.8637 -1.0353 21.0000
v -3.6955 -1.5307 21.0000
v -5.7956 -1.5529 14.0000
v -5.9487 -0.7832 14.0000
v -3.9658 -0.5221 21.0000
v -3.8637 -1.0353 21.0000
v -5.9487 -0.7832 14.0000
v -6.0000 -0.0000 14.0000
v -4.0000 -0.0000 21.0000
v -3.9658 -0.5221 21.0000
v -6.0000 -0.0000 14.0000
v -5.9487 0.7832 14.0000
v -3.9658 0.5221 21.0000
v -4.0000 -0.0000 21.0000
v -5.9487 0.7832 14.0000
v -5.7956 1.5529 14.0000
v -3.8637 1.0353 21.0000
v -3.9658 0.5221 21.0000
v -5.7956 1.5529 14.0000
v -5.5433 2.2961 14.0000
v -3.6955 1.5307 21.0000
v -3.8637 1.0353 21.0000
v -5.5433 2.2961 14.0000
v -5.1962 3.0000 14.0000
v -3.4641 2.0000 21.0000
v -3.6955 1.5307 21.0000
v -5.1962 3.0000 14.0000
v -4.7601 3.6526 14.0000
v -3.1734 2.4350 21.0000
v -3.4641 2.0000 21.0000
v -4.7601 3.6526 14.0000
v -4.2426 4.2426 14.0000
v -2.8284 2.8284 21.0000
v -3.1734 2.4350 21.0000
v -4.2426 4.2426 14.0000
v -3.6526 4.7601 14.0000
v -2.4350 3.1734 21.0000
v -2.8284 2.8284 21.0000
v -3.6526 4.7601 14.0000
v -3.0000 5.1962 14.0000
v -2.0000 3.4641 21.0000
v -2.4350 3.1734 21.0000
v -3.0000 5.1962 14.0000
v -2.2961 5.5433 14.0000
v -1.5307 3.6955 21.0000
v -2.0000 3.4641 21.0000
v -2.2961 5.5433 14.0000
v -1.5529 5.7956 14.0000
v -1.0353 3.8637 21.0000
v -1.5307 3.6955 21.0000
v -1.5529 5.7956 14.0000
v -0.7832 5.9487 14.0000
v -0.5221 3.9658 21.0000
v -1.0353 3.8637 21.0000
v -0.7832 5.9487 14.0000
v -0.0000 6.0000 14.0000
v -0.0000 4.0000 21.0000
v -0.5221 3.9658 21.0000
v -0.0000 6.0000 14.0000
v 0.7832 5.9487 14.0000
v 0.5221 3.9658 21.0000
v -0.0000 4.0000 21.0000
v 0.7832 5.9487 14.0000
v 1.5529 5.7956 14.0000
v 1.0353 3.8637 21.0000
v 0.5221 3.9658 21.0000
v 1.5529 5.7956 14.0000
v 2.2961 5.5433 14.0000
v 1.5307 3.6955 21.0000
v 1.0353 3.8637 21.0000
v 2.2961 5.5433 14.0000
v 3.0000 5.1962 14.0000
v 2.0000 3.4641 21.0000
v 1.5307 3.6955 21.0000
v 3.0000 5.1962 14.0000
v 3.6526 4.7601 14.0000
v 2.4350 3.1734 21.0000
v 2.0000 3.4641 21.0000
v 3.6526 4.7601 14.0000
v 4.2426 4.2426 14.0000
v 2.8284 2.8284 21.0000
v 2.4350 3.1734 21.0000
v 4.2426 4.2426 14.0000
v 4.7601 3.6526 14.0000
v 3.1734 2.4350 21.0000
v 2.8284 2.8284 21.0000
v 4.7601 3.6526 14.0000
v 5.1962 3.0000 14.0000
v 3.4641 2.0000 21.0000
v 3.1734 2.4350 21.0000
v 5.1962 3.0000 14.0000
v 5.5433 2.2961 14.0000
v 3.6955 1.5307 21.0000
v 3.4641 2.0000 21.0000
v 5.5433 2.2961 14.0000
v 5.7956 1.5529 14.0000
v 3.8637 1.0353 21.0000
v 3.6955 1.5307 21.0000
v 5.7956 1.5529 14.0000
v 5.9487 0.7832 14.0000
v 3.9658 0.5221 21.0000
v 3.8637 1.0353 21.0000
v 5.9487 0.7832 14.0000
v 6.0000 0.0000 14.0000
v 4.0000 0.0000 21.0000
v 3.9658 0.5221 21.0000
v 4.0000 -0.0000 21.0000
v 3.9658 -0.5221 21.0000
v 0.0000 -0.0000 24.0000
v 0.0000 -0.0000 24.0000
v 3.9658 -0.5221 21.0000
v 3.8637 -1.0353 21.0000
v 0.0000 -0.0000 24.0000
v 0.0000 -0.0000 24.0000
v 3.8637 -1.0353 21.0000
v 3.6955 -1.5307 21.0000
v 0.0000 -0.0000 24.0000
v 0.0000 -0.0000 24.0000
v 3.6955 -1.5307 21.0000
v 3.4641 -2.0000 21.0000
v 0.0000 -0.0000 24.0000
v 0.0000 -0.0000 24.0000
v 3.4641 -2.0000 21.0000
v 3.1734 -2.4350 21.0000
v 0.0000 -0.0000 24.0000
v 0.0000 -0.0000 24.0000
v 3.1734 -2.4350 21.0000
v 2.8284 -2.8284 21.0000
v 0.0000 -0.0000 24.0000
v 0.0000 -0.0000 24.0000
v 2.8284 -2.8284 21.0000
v 2.4350 -3.1734 21.0000
v 0.0000 -0.0000 24.0000
v 0.0000 -0.0000 24.0000
v 2.4350 -3.1734 21.0000
v 2.0000 -3.4641 21.0000
v 0.0000 -0.0000 24.0000
v 0.0000 -0.0000 24.0000
v 2.0000 -3.4641 21.0000
v 1.5307 -3.6955 21.0000
v 0.0000 -0.0000 24.0000
v 0.0000 -0.0000 24.0000
v 1.5307 -3.6955 21.0000
v 1.0353 -3.8637 21.0000
v 0.0000 -0.0000 24.0000
v 0.0000 -0.0000 24.0000
v 1.0353 -3.8637 21.0000
v 0.5221 -3.9658 21.0000
v 0.0000 -0.0000 24.0000
v 0.0000 -0.0000 24.0000
v 0.5221 -3.9658 21.0000
v 0.0000 -4.0000 21.0000
v 0.0000 -0.0000 24.0000
v 0.0000 -0.0000 24.0000
v 0.0000 -4.0000 21.0000
v -0.5221 -3.9658 21.0000
v -0.0000 -0.0000 24.0000
v 0.0000 -0.0000 24.0000
v -0.5221 -3.9658 21.0000
v -1.0353 -3.8637 21.0000
v -0.0000 -0.0000 24.0000
v -0.0000 -0.0000 24.0000
v -1.0353 -3.8637 21.0000
v -1.5307 -3.6955 21.0000
v -0.0000 -0.0000 24.0000
v -0.0000 -0.0000 24.0000
v -1.5307 -3.6955 21.0000
v -2.0000 -3.4641 21.0000
v -0.0000 -0.0000 24.0000
v -0.0000 -0.0000 24.0000
v -2.0000 -3.4641 21.0000
v -2.4350 -3.1734 21.0000
v -0.0000 -0.0000 24.0000
v -0.0000 -0.0000 24.0000
v -2.4350 -3.1734 21.0000
v -2.8284 -2.8284 21.0000
v -0.0000 -0.0000 24.0000
v -0.0000 -0.0000 24.0000
v -2.8284 -2.8284 21.0000
v -3.1734 -2.4350 21.0000
v -0.0000 -0.0000 24.0000
v -0.0000 -0.0000 24.0000
v -3.1734 -2.4350 21.0000
v -3.4641 -2.0000 21.0000
v -0.0000 -0.0000 24.0000
v -0.0000 -0.0000 24.0000
v -3.4641 -2.0000 21.0000
v -3.6955 -1.5307 21.0000
v -0.0000 -0.0000 24.0000
v -0.0000 -0.0000 24.0000
v -3.6955 -1.5307 21.0000
v -3.8637 -1.0353 21.0000
v -0.0000 -0.0000 24.0000
v -0.0000 -0.0000 24.0000
v -3.8637 -1.0353 21.0000
v -3.9658 -0.5221 21.0000
v -0.0000 -0.0000 24.0000
v -0.0000 -0.0000 24.0000
v -3.9658 -0.5221 21.0000
v -4.0000 -0.0000 21.0000
v -0.0000 -0.0000 24.0000
v -0.0000 -0.0000 24.0000
v -4.0000 -0.0000 21.0000
v -3.9658 0.5221 21.0000
v -0.0000 0.0000 24.0000
v -0.0000 -0.0000 24.0000
v -3.9658 0.5221 21.0000
v -3.8637 1.0353 21.0000
v -0.0000 0.0000 24.0000
v -0.0000 0.0000 24.0000
v -3.8637 1.0353 21.0000
v -3.6955 1.5307 21.0000
v -0.0000 0.0000 24.0000
v -0.0000 0.0000 24.0000
v -3.6955 1.5307 21.0000
v -3.4641 2.0000 21.0000
v -0.0000 0.0000 24.0000
v -0.0000 0.0000 24.0000
v -3.4641 2.0000 21.0000
v -3.1734 2.4350 21.0000
v -0.0000 0.0000 24.0000
v -0.0000 0.0000 24.0000
v -3.1734 2.4350 21.0000
v -2.8284 2.8284 21.0000
v -0.0000 0.0000 24.0000
v -0.0000 0.0000 24.0000
v -2.8284 2.8284 21.0000
v -2.4350 3.1734 21.0000
v -0.0000 0.0000 24.0000
v -0.0000 0.0000 24.0000
v -2.4350 3.1734 21.0000
v -2.0000 3.4641 21.0000
v -0.0000 0.0000 24.0000
v -0.0000 0.0000 24.0000
v -2.0000 3.4641 21.0000
v -1.5307 3.6955 21.0000
v -0.0000 0.0000 24.0000
v -0.0000 0.0000 24.0000
v -1.5307 3.6955 21.0000
v -1.0353 3.8637 21.0000
v -0.0000 0.0000 24.0000
v -0.0000 0.0000 24.0000
v -1.0353 3.8637 21.0000
v -0.5221 3.9658 21.0000
v -0.0000 0.0000 24.0000
v -0.0000 0.0000 24.0000
v -0.5221 3.9658 21.0000
v -0.0000 4.0000 21.0000
v -0.0000 0.0000 24.0000
v -0.0000 0.0000 24.0000
v -0.0000 4.0000 21.0000
v 0.5221 3.9658 21.0000
v 0.0000 0.0000 24.0000
v -0.0000 0.0000 24.0000
v 0.5221 3.9658 21.0000
v 1.0353 3.8637 21.0000
v 0.0000 0.0000 24.0000
v 0.0000 0.0000 24.0000
v 1.0353 3.8637 21.0000
v 1.5307 3.6955 21.0000
v 0.0000 0.0000 24.0000
v 0.0000 0.0000 24.0000
v 1.5307 3.6955 21.0000
v 2.0000 3.4641 21.0000
v 0.0000 0.0000 24.0000
v 0.0000 0.0000 24.0000
v 2.0000 3.4641 21.0000
v 2.4350 3.1734 21.0000
v 0.0000 0.0000 24.0000
v 0.0000 0.0000 24.0000
v 2.4350 3.1734 21.0000
v 2.8284 2.8284 21.0000
v 0.0000 0.0000 24.0000
v 0.0000 0.0000 24.0000
v 2.8284 2.8284 21.0000
v 3.1734 2.4350 21.0000
v 0.0000 0.0000 24.0000
v 0.0000 0.0000 24.0000
v 3.1734 2.4350 21.0000
v 3.4641 2.0000 21.0000
v 0.0000 0.0000 24.0000
v 0.0000 0.0000 24.0000
v 3.4641 2.0000 21.0000
v 3.6955 1.5307 21.0000
v 0.0000 0.0000 24.0000
v 0.0000 0.0000 24.0000
v 3.6955 1.5307 21.0000
v 3.8637 1.0353 21.0000
v 0.0000 0.0000 24.0000
v 0.0000 0.0000 24.0000
v 3.8637 1.0353 21.0000
v 3.9658 0.5221 21.0000
v 0.0000 0.0000 24.0000
v 0.0000 0.0000 24.0000
v 3.9658 0.5221 21.0000
v 4.0000 0.0000 21.0000
v 0.0000 0.0000 24.0000
v 0.0000 0.0000 24.0000
vt 0.000000 -0.150000
vt 0.220893 -0.150000
vt 0.220893 -0.131250
vt 0.000000 -0.131250
vt 0.220893 -0.150000
vt 0.441786 -0.150000
vt 0.441786 -0.131250
vt 0.220893 -0.131250
vt 0.441786 -0.150000
vt 0.662680 -0.150000
vt 0.662680 -0.131250
vt 0.441786 -0.131250
vt 0.662680 -0.150000
vt 0.883573 -0.150000
vt 0.883573 -0.131250
vt 0.662680 -0.131250
vt 0.883573 -0.150000
vt 1.104466 -0.150000
vt 1.104466 -0.131250
vt 0.883573 -0.131250
vt 1.104466 -0.150000
vt 1.325359 -0.150000
vt 1.325359 -0.131250
vt 1.104466 -0.131250
vt 1.325359 -0.150000
vt 1.546253 -0.150000
vt 1.546253 -0.131250
vt 1.325359 -0.131250
vt 1.546253 -0.150000
vt 1.767146 -0.150000
vt 1.767146 -0.131250
vt 1.546253 -0.131250
vt 1.767146 -0.150000
vt 1.988039 -0.150000
vt 1.988039 -0.131250
vt 1.767146 -0.131250
vt 1.988039 -0.150000
vt 2.208932 -0.150000
vt 2.208932 -0.131250
vt 1.988039 -0.131250
vt 2.208932 -0.150000
vt 2.429826 -0.150000
vt 2.429826 -0.131250
vt 2.208932 -0.131250
vt 2.429826 -0.150000
vt 2.650719 -0.150000
vt 2.650719 -0.131250
vt 2.429826 -0.131250
vt 2.650719 -0.150000
vt 2.871612 -0.150000
vt 2.871612 -0.131250
vt 2.650719 -0.131250
vt 2.871612 -0.150000
vt 3.092505 -0.150000
vt 3.092505 -0.131250
vt 2.871612 -0.131250
vt 3.092505 -0.150000
vt 3.313399 -0.150000
vt 3.313399 -0.131250
vt 3.092505 -0.131250
vt 3.313399 -0.150000
vt 3.534292 -0.150000
vt 3.534292 -0.131250
vt 3.313399 -0.131250
vt 3.534292 -0.150000
vt 3.755185 -0.150000
vt 3.755185 -0.131250
vt 3.534292 -0.131250
vt 3.755185 -0.150000
vt 3.976078 -0.150000
vt 3.976078 -0.131250
vt 3.755185 -0.131250
vt 3.976078 -0.150000
vt 4.196971 -0.150000
vt 4.196971 -0.131250
vt 3.976078 -0.131250
vt 4.196971 -0.150000
vt 4.417865 -0.150000
vt 4.417865 -0.131250
vt 4.196971 -0.131250
vt 4.417865 -0.150000
vt 4.638758 -0.150000
vt 4.638758 -0.131250
vt 4.417865 -0.131250
vt 4.638758 -0.150000
vt 4.859651 -0.150000
vt 4.859651 -0.131250
vt 4.638758 -0.131250
vt 4.859651 -0.150000
vt 5.080544 -0.150000
vt 5.080544 -0.131250
vt 4.859651 -0.131250
vt 5.080544 -0.150000
vt 5.301438 -0.150000
vt 5.301438 -0.131250
vt 5.080544 -0.131250
vt 5.301438 -0.150000
vt 5.522331 -0.150000
vt 5.522331 -0.131250
vt 5.301438 -0.131250
vt 5.522331 -0.150000
vt 5.743224 -0.150000
vt 5.743224 -0.131250
vt 5.522331 -0.131250
vt 5.743224 -0.150000
vt 5.964117 -0.150000
vt 5.964117 -0.131250
vt 5.743224 -0.131250
vt 5.964117 -0.150000
vt 6.185011 -0.150000
vt 6.185011 -0.131250
vt 5.964117 -0.131250
vt 6.185011 -0.150000
vt 6.405904 -0.150000
vt 6.405904 -0.131250
vt 6.185011 -0.131250
vt 6.405904 -0.150000
vt 6.626797 -0.150000
vt 6.626797 -0.131250
vt 6.405904 -0.131250
vt 6.626797 -0.150000
vt 6.847690 -0.150000
vt 6.847690 -0.131250
vt 6.626797 -0.131250
vt 6.847690 -0.150000
vt 7.068583 -0.150000
vt 7.068583 -0.131250
vt 6.847690 -0.131250
vt 7.068583 -0.150000
vt 7.289477 -0.150000
vt 7.289477 -0.131250
vt 7.068583 -0.131250
vt 7.289477 -0.150000
vt 7.510370 -0.150000
vt 7.510370 -0.131250
vt 7.289477 -0.131250
vt 7.510370 -0.150000
vt 7.731263 -0.150000
vt 7.731263 -0.131250
vt 7.510370 -0.131250
vt 7.731263 -0.150000
vt 7.952156 -0.150000
vt 7.952156 -0.131250
vt 7.731263 -0.131250
vt 7.952156 -0.150000
vt 8.173050 -0.150000
vt 8.173050 -0.131250
vt 7.952156 -0.131250
vt 8.173050 -0.150000
vt 8.393943 -0.150000
vt 8.393943 -0.131250
vt 8.173050 -0.131250
vt 8.393943 -0.150000
vt 8.614836 -0.150000
vt 8.614836 -0.131250
vt 8.393943 -0.131250
vt 8.614836 -0.150000
vt 8.835729 -0.150000
vt 8.835729 -0.131250
vt 8.614836 -0.131250
vt 8.835729 -0.150000
vt 9.056623 -0.150000
vt 9.056623 -0.131250
vt 8.835729 -0.131250
vt 9.056623 -0.150000
vt 9.277516 -0.150000
vt 9.277516 -0.131250
vt 9.056623 -0.131250
vt 9.277516 -0.150000
vt 9.498409 -0.150000
vt 9.498409 -0.131250
vt 9.277516 -0.131250
vt 9.498409 -0.150000
vt 9.719302 -0.150000
vt 9.719302 -0.131250
vt 9.498409 -0.131250
vt 9.719302 -0.150000
vt 9.940196 -0.150000
vt 9.940196 -0.131250
vt 9.719302 -0.131250
vt 9.940196 -0.150000
vt 10.161089 -0.150000
vt 10.161089 -0.131250
vt 9.940196 -0.131250
vt 10.161089 -0.150000
vt 10.381982 -0.150000
vt 10.381982 -0.131250
vt 10.161089 -0.131250
vt 10.381982 -0.150000
vt 10.602875 -0.150000
vt 10.602875 -0.131250
vt 10.381982 -0.131250
vt 0.000000 -0.131250
vt 0.220893 -0.131250
vt 0.220893 -0.087500
vt 0.000000 -0.087500
vt 0.220893 -0.131250
vt 0.441786 -0.131250
vt 0.441786 -0.087500
vt 0.220893 -0.087500
vt 0.441786 -0.131250
vt 0.662680 -0.131250
vt 0.662680 -0.087500
vt 0.441786 -0.087500
vt 0.662680 -0.131250
vt 0.883573 -0.131250
vt 0.883573 -0.087500
vt 0.662680 -0.087500
vt 0.883573 -0.131250
vt 1.104466 -0.131250
vt 1.104466 -0.087500
vt 0.883573 -0.087500
vt 1.104466 -0.131250
vt 1.325359 -0.131250
vt 1.325359 -0.087500
vt 1.104466 -0.087500
vt 1.325359 -0.131250
vt 1.546253 -0.131250
vt 1.546253 -0.087500
vt 1.325359 -0.087500
vt 1.546253 -0.131250
vt 1.767146 -0.131250
vt 1.767146 -0.087500
vt 1.546253 -0.087500
vt 1.767146 -0.131250
vt 1.988039 -0.131250
vt 1.988039 -0.087500
vt 1.767146 -0.087500
vt 1.988039 -0.131250
vt 2.208932 -0.131250
vt 2.208932 -0.087500
vt 1.988039 -0.087500
vt 2.208932 -0.131250
vt 2.429826 -0.131250
vt 2.429826 -0.087500
vt 2.208932 -0.087500
vt 2.429826 -0.131250
vt 2.650719 -0.131250
vt 2.650719 -0.087500
vt 2.429826 -0.087500
vt 2.650719 -0.131250
vt 2.871612 -0.131250
vt 2.871612 -0.087500
vt 2.650719 -0.087500
vt 2.871612 -0.131250
vt 3.092505 -0.131250
vt 3.092505 -0.087500
vt 2.871612 -0.087500
vt 3.092505 -0.131250
vt 3.313399 -0.131250
vt 3.313399 -0.087500
vt 3.092505 -0.087500
vt 3.313399 -0.131250
vt 3.534292 -0.131250
vt 3.534292 -0.087500
vt 3.313399 -0.087500
vt 3.534292 -0.131250
vt 3.755185 -0.131250
vt 3.755185 -0.087500
vt 3.534292 -0.087500
vt 3.755185 -0.131250
vt 3.976078 -0.131250
vt 3.976078 -0.087500
vt 3.755185 -0.087500
vt 3.976078 -0.131250
vt 4.196971 -0.131250
vt 4.196971 -0.087500
vt 3.976078 -0.087500
vt 4.196971 -0.131250
vt 4.417865 -0.131250
vt 4.417865 -0.087500
vt 4.196971 -0.087500
vt 4.417865 -0.131250
vt 4.638758 -0.131250
vt 4.638758 -0.087500
vt 4.417865 -0.087500
vt 4.638758 -0.131250
vt 4.859651 -0.131250
vt 4.859651 -0.087500
vt 4.638758 -0.087500
vt 4.859651 -0.131250
vt 5.080544 -0.131250
vt 5.080544 -0.087500
vt 4.859651 -0.087500
vt 5.080544 -0.131250
vt 5.301438 -0.131250
vt 5.301438 -0.087500
vt 5.080544 -0.087500
vt 5.301438 -0.131250
vt 5.522331 -0.131250
vt 5.522331 -0.087500
vt 5.301438 -0.087500
vt 5.522331 -0.131250
vt 5.743224 -0.131250
vt 5.743224 -0.087500
vt 5.522331 -0.087500
vt 5.743224 -0.131250
vt 5.964117 -0.131250
vt 5.964117 -0.087500
vt 5.743224 -0.087500
vt 5.964117 -0.131250
vt 6.185011 -0.131250
vt 6.185011 -0.087500
vt 5.964117 -0.087500
vt 6.185011 -0.131250
vt 6.405904 -0.131250
vt 6.405904 -0.087500
vt 6.185011 -0.087500
vt 6.405904 -0.131250
vt 6.626797 -0.131250
vt 6.626797 -0.087500
vt 6.405904 -0.087500
vt 6.626797 -0.131250
vt 6.847690 -0.131250
vt 6.847690 -0.087500
vt 6.626797 -0.087500
vt 6.847690 -0.131250
vt 7.068583 -0.131250
vt 7.068583 -0.087500
vt 6.847690 -0.087500
vt 7.068583 -0.131250
vt 7.289477 -0.131250
vt 7.289477 -0.087500
vt 7.068583 -0.087500
vt 7.289477 -0.131250
vt 7.510370 -0.131250
vt 7.510370 -0.087500
vt 7.289477 -0.087500
vt 7.510370 -0.131250
vt 7.731263 -0.131250
vt 7.731263 -0.087500
vt 7.510370 -0.087500
vt 7.731263 -0.131250
vt 7.952156 -0.131250
vt 7.952156 -0.087500
vt 7.731263 -0.087500
vt 7.952156 -0.131250
vt 8.173050 -0.131250
vt 8.173050 -0.087500
vt 7.952156 -0.087500
vt 8.173050 -0.131250
vt 8.393943 -0.131250
vt 8.393943 -0.087500
vt 8.173050 -0.087500
vt 8.393943 -0.131250
vt 8.614836 -0.131250
vt 8.614836 -0.087500
vt 8.393943 -0.087500
vt 8.614836 -0.131250
vt 8.835729 -0.131250
vt 8.835729 -0.087500
vt 8.614836 -0.087500
vt 8.835729 -0.131250
vt 9.056623 -0.131250
vt 9.056623 -0.087500
vt 8.835729 -0.087500
vt 9.056623 -0.131250
vt 9.277516 -0.131250
vt 9.277516 -0.087500
vt 9.056623 -0.087500
vt 9.277516 -0.131250
vt 9.498409 -0.131250
vt 9.498409 -0.087500
vt 9.277516 -0.087500
vt 9.498409 -0.131250
vt 9.719302 -0.131250
vt 9.719302 -0.087500
vt 9.498409 -0.087500
vt 9.719302 -0.131250
vt 9.940196 -0.131250
vt 9.940196 -0.087500
vt 9.719302 -0.087500
vt 9.940196 -0.131250
vt 10.161089 -0.131250
vt 10.161089 -0.087500
vt 9.940196 -0.087500
vt 10.161089 -0.131250
vt 10.381982 -0.131250
vt 10.381982 -0.087500
vt 10.161089 -0.087500
vt 10.381982 -0.131250
vt 10.602875 -0.131250
vt 10.602875 -0.087500
vt 10.381982 -0.087500
vt 0.000000 -0.087500
vt 0.220893 -0.087500
vt 0.220893 0.087500
vt 0.000000 0.087500
vt 0.220893 -0.087500
vt 0.441786 -0.087500
vt 0.441786 0.087500
vt 0.220893 0.087500
vt 0.441786 -0.087500
vt 0.662680 -0.087500
vt 0.662680 0.087500
vt 0.441786 0.087500
vt 0.662680 -0.087500
vt 0.883573 -0.087500
vt 0.883573 0.087500
vt 0.662680 0.087500
vt 0.883573 -0.087500
vt 1.104466 -0.087500
vt 1.104466 0.087500
vt 0.883573 0.087500
vt 1.104466 -0.087500
vt 1.325359 -0.087500
vt 1.325359 0.087500
vt 1.104466 0.087500
vt 1.325359 -0.087500
vt 1.546253 -0.087500
vt 1.546253 0.087500
vt 1.325359 0.087500
vt 1.546253 -0.087500
vt 1.767146 -0.087500
vt 1.767146 0.087500
vt 1.546253 0.087500
vt 1.767146 -0.087500
vt 1.988039 -0.087500
vt 1.988039 0.087500
vt 1.767146 0.087500
vt 1.988039 -0.087500
vt 2.208932 -0.087500
vt 2.208932 0.087500
vt 1.988039 0.087500
vt 2.208932 -0.087500
vt 2.429826 -0.087500
vt 2.429826 0.087500
vt 2.208932 0.087500
vt 2.429826 -0.087500
vt 2.650719 -0.087500
vt 2.650719 0.087500
vt 2.429826 0.087500
vt 2.650719 -0.087500
vt 2.871612 -0.087500
vt 2.871612 0.087500
vt 2.650719 0.087500
vt 2.871612 -0.087500
vt 3.092505 -0.087500
vt 3.092505 0.087500
vt 2.871612 0.087500
vt 3.092505 -0.087500
vt 3.313399 -0.087500
vt 3.313399 0.087500
vt 3.092505 0.087500
vt 3.313399 -0.087500
vt 3.534292 -0.087500
vt 3.534292 0.087500
vt 3.313399 0.087500
vt 3.534292 -0.087500
vt 3.755185 -0.087500
vt 3.755185 0.087500
vt 3.534292 0.087500
vt 3.755185 -0.087500
vt 3.976078 -0.087500
vt 3.976078 0.087500
vt 3.755185 0.087500
vt 3.976078 -0.087500
vt 4.196971 -0.087500
vt 4.196971 0.087500
vt 3.976078 0.087500
vt 4.196971 -0.087500
vt 4.417865 -0.087500
vt 4.417865 0.087500
vt 4.196971 0.087500
vt 4.417865 -0.087500
vt 4.638758 -0.087500
vt 4.638758 0.087500
vt 4.417865 0.087500
vt 4.638758 -0.087500
vt 4.859651 -0.087500
vt 4.859651 0.087500
vt 4.638758 0.087500
vt 4.859651 -0.087500
vt 5.080544 -0.087500
vt 5.080544 0.087500
vt 4.859651 0.087500
vt 5.080544 -0.087500
vt 5.301438 -0.087500
vt 5.301438 0.087500
vt 5.080544 0.087500
vt 5.301438 -0.087500
vt 5.522331 -0.087500
vt 5.522331 0.087500
vt 5.301438 0.087500
vt 5.522331 -0.087500
vt 5.743224 -0.087500
vt 5.743224 0.087500
vt 5.522331 0.087500
vt 5.743224 -0.087500
vt 5.964117 -0.087500
vt 5.964117 0.087500
vt 5.743224 0.087500
vt 5.964117 -0.087500
vt 6.185011 -0.087500
vt 6.185011 0.087500
vt 5.964117 0.087500
vt 6.185011 -0.087500
vt 6.405904 -0.087500
vt 6.405904 0.087500
vt 6.185011 0.087500
vt 6.405904 -0.087500
vt 6.626797 -0.087500
vt 6.626797 0.087500
vt 6.405904 0.087500
vt 6.626797 -0.087500
vt 6.847690 -0.087500
vt 6.847690 0.087500
vt 6.626797 0.087500
vt 6.847690 -0.087500
vt 7.068583 -0.087500
vt 7.068583 0.087500
vt 6.847690 0.087500
vt 7.068583 -0.087500
vt 7.289477 -0.087500
vt 7.289477 0.087500
vt 7.068583 0.087500
vt 7.289477 -0.087500
vt 7.510370 -0.087500
vt 7.510370 0.087500
vt 7.289477 0.087500
vt 7.510370 -0.087500
vt 7.731263 -0.087500
vt 7.731263 0.087500
vt 7.510370 0.087500
vt 7.731263 -0.087500
vt 7.952156 -0.087500
vt 7.952156 0.087500
vt 7.731263 0.087500
vt 7.952156 -0.087500
vt 8.173050 -0.087500
vt 8.173050 0.087500
vt 7.952156 0.087500
vt 8.173050 -0.087500
vt 8.393943 -0.087500
vt 8.393943 0.087500
vt 8.173050 0.087500
vt 8.393943 -0.087500
vt 8.614836 -0.087500
vt 8.614836 0.087500
vt 8.393943 0.087500
vt 8.614836 -0.087500
vt 8.835729 -0.087500
vt 8.835729 0.087500
vt 8.614836 0.087500
vt 8.835729 -0.087500
vt 9.056623 -0.087500
vt 9.056623 0.087500
vt 8.835729 0.087500
vt 9.056623 -0.087500
vt 9.277516 -0.087500
vt 9.277516 0.087500
vt 9.056623 0.087500
vt 9.277516 -0.087500
vt 9.498409 -0.087500
vt 9.498409 0.087500
vt 9.277516 0.087500
vt 9.498409 -0.087500
vt 9.719302 -0.087500
vt 9.719302 0.087500
vt 9.498409 0.087500
vt 9.719302 -0.087500
vt 9.940196 -0.087500
vt 9.940196 0.087500
vt 9.719302 0.087500
vt 9.940196 -0.087500
vt 10.161089 -0.087500
vt 10.161089 0.087500
vt 9.940196 0.087500
vt 10.161089 -0.087500
vt 10.381982 -0.087500
vt 10.381982 0.087500
vt 10.161089 0.087500
vt 10.381982 -0.087500
vt 10.602875 -0.087500
vt 10.602875 0.087500
vt 10.381982 0.087500
vt 0.000000 0.087500
vt 0.220893 0.087500
vt 0.220893 0.131250
vt 0.000000 0.131250
vt 0.220893 0.087500
vt 0.441786 0.087500
vt 0.441786 0.131250
vt 0.220893 0.131250
vt 0.441786 0.087500
vt 0.662680 0.087500
vt 0.662680 0.131250
vt 0.441786 0.131250
vt 0.662680 0.087500
vt 0.883573 0.087500
vt 0.883573 0.131250
vt 0.662680 0.131250
vt 0.883573 0.087500
vt 1.104466 0.087500
vt 1.104466 0.131250
vt 0.883573 0.131250
vt 1.104466 0.087500
vt 1.325359 0.087500
vt 1.325359 0.131250
vt 1.104466 0.131250
vt 1.325359 0.087500
vt 1.546253 0.087500
vt 1.546253 0.131250
vt 1.325359 0.131250
vt 1.546253 0.087500
vt 1.767146 0.087500
vt 1.767146 0.131250
vt 1.546253 0.131250
vt 1.767146 0.087500
vt 1.988039 0.087500
vt 1.988039 0.131250
vt 1.767146 0.131250
vt 1.988039 0.087500
vt 2.208932 0.087500
vt 2.208932 0.131250
vt 1.988039 0.131250
vt 2.208932 0.087500
vt 2.429826 0.087500
vt 2.429826 0.131250
vt 2.208932 0.131250
vt 2.429826 0.087500
vt 2.650719 0.087500
vt 2.650719 0.131250
vt 2.429826 0.131250
vt 2.650719 0.087500
vt 2.871612 0.087500
vt 2.871612 0.131250
vt 2.650719 0.131250
vt 2.871612 0.087500
vt 3.092505 0.087500
vt 3.092505 0.131250
vt 2.871612 0.131250
vt 3.092505 0.087500
vt 3.313399 0.087500
vt 3.313399 0.131250
vt 3.092505 0.131250
vt 3.313399 0.087500
vt 3.534292 0.087500
vt 3.534292 0.131250
vt 3.313399 0.131250
vt 3.534292 0.087500
vt 3.755185 0.087500
vt 3.755185 0.131250
vt 3.534292 0.131250
vt 3.755185 0.087500
vt 3.976078 0.087500
vt 3.976078 0.131250
vt 3.755185 0.131250
vt 3.976078 0.087500
vt 4.196971 0.087500
vt 4.196971 0.131250
vt 3.976078 0.131250
vt 4.196971 0.087500
vt 4.417865 0.087500
vt 4.417865 0.131250
vt 4.196971 0.131250
vt 4.417865 0.087500
vt 4.638758 0.087500
vt 4.638758 0.131250
vt 4.417865 0.131250
vt 4.638758 0.087500
vt 4.859651 0.087500
vt 4.859651 0.131250
vt 4.638758 0.131250
vt 4.859651 0.087500
vt 5.080544 0.087500
vt 5.080544 0.131250
vt 4.859651 0.131250
vt 5.080544 0.087500
vt 5.301438 0.087500
vt 5.301438 0.131250
vt 5.080544 0.131250
vt 5.301438 0.087500
vt 5.522331 0.087500
vt 5.522331 0.131250
vt 5.301438 0.131250
vt 5.522331 0.087500
vt 5.743224 0.087500
vt 5.743224 0.131250
vt 5.522331 0.131250
vt 5.743224 0.087500
vt 5.964117 0.087500
vt 5.964117 0.131250
vt 5.743224 0.131250
vt 5.964117 0.087500
vt 6.185011 0.087500
vt 6.185011 0.131250
vt 5.964117 0.131250
vt 6.185011 0.087500
vt 6.405904 0.087500
vt 6.405904 0.131250
vt 6.185011 0.131250
vt 6.405904 0.087500
vt 6.626797 0.087500
vt 6.626797 0.131250
vt 6.405904 0.131250
vt 6.626797 0.087500
vt 6.847690 0.087500
vt 6.847690 0.131250
vt 6.626797 0.131250
vt 6.847690 0.087500
vt 7.068583 0.087500
vt 7.068583 0.131250
vt 6.847690 0.131250
vt 7.068583 0.087500
vt 7.289477 0.087500
vt 7.289477 0.131250
vt 7.068583 0.131250
vt 7.289477 0.087500
vt 7.510370 0.087500
vt 7.510370 0.131250
vt 7.289477 0.131250
vt 7.510370 0.087500
vt 7.731263 0.087500
vt 7.731263 0.131250
vt 7.510370 0.131250
vt 7.731263 0.087500
vt 7.952156 0.087500
vt 7.952156 0.131250
vt 7.731263 0.131250
vt 7.952156 0.087500
vt 8.173050 0.087500
vt 8.173050 0.131250
vt 7.952156 0.131250
vt 8.173050 0.087500
vt 8.393943 0.087500
vt 8.393943 0.131250
vt 8.173050 0.131250
vt 8.393943 0.087500
vt 8.614836 0.087500
vt 8.614836 0.131250
vt 8.393943 0.131250
vt 8.614836 0.087500
vt 8.835729 0.087500
vt 8.835729 0.131250
vt 8.614836 0.131250
vt 8.835729 0.087500
vt 9.056623 0.087500
vt 9.056623 0.131250
vt 8.835729 0.131250
vt 9.056623 0.087500
vt 9.277516 0.087500
vt 9.277516 0.131250
vt 9.056623 0.131250
vt 9.277516 0.087500
vt 9.498409 0.087500
vt 9.498409 0.131250
vt 9.277516 0.131250
vt 9.498409 0.087500
vt 9.719302 0.087500
vt 9.719302 0.131250
vt 9.498409 0.131250
vt 9.719302 0.087500
vt 9.940196 0.087500
vt 9.940196 0.131250
vt 9.719302 0.131250
vt 9.940196 0.087500
vt 10.161089 0.087500
vt 10.161089 0.131250
vt 9.940196 0.131250
vt 10.161089 0.087500
vt 10.381982 0.087500
vt 10.381982 0.131250
vt 10.161089 0.131250
vt 10.381982 0.087500
vt 10.602875 0.087500
vt 10.602875 0.131250
vt 10.381982 0.131250
vt 0.000000 0.131250
vt 0.220893 0.131250
vt 0.220893 0.150000
vt 0.000000 0.150000
vt 0.220893 0.131250
vt 0.441786 0.131250
vt 0.441786 0.150000
vt 0.220893 0.150000
vt 0.441786 0.131250
vt 0.662680 0.131250
vt 0.662680 0.150000
vt 0.441786 0.150000
vt 0.662680 0.131250
vt 0.883573 0.131250
vt 0.883573 0.150000
vt 0.662680 0.150000
vt 0.883573 0.131250
vt 1.104466 0.131250
vt 1.104466 0.150000
vt 0.883573 0.150000
vt 1.104466 0.131250
vt 1.325359 0.131250
vt 1.325359 0.150000
vt 1.104466 0.150000
vt 1.325359 0.131250
vt 1.546253 0.131250
vt 1.546253 0.150000
vt 1.325359 0.150000
vt 1.546253 0.131250
vt 1.767146 0.131250
vt 1.767146 0.150000
vt 1.546253 0.150000
vt 1.767146 0.131250
vt 1.988039 0.131250
vt 1.988039 0.150000
vt 1.767146 0.150000
vt 1.988039 0.131250
vt 2.208932 0.131250
vt 2.208932 0.150000
vt 1.988039 0.150000
vt 2.208932 0.131250
vt 2.429826 0.131250
vt 2.429826 0.150000
vt 2.208932 0.150000
vt 2.429826 0.131250
vt 2.650719 0.131250
vt 2.650719 0.150000
vt 2.429826 0.150000
vt 2.650719 0.131250
vt 2.871612 0.131250
vt 2.871612 0.150000
vt 2.650719 0.150000
vt 2.871612 0.131250
vt 3.092505 0.131250
vt 3.092505 0.150000
vt 2.871612 0.150000
vt 3.092505 0.131250
vt 3.313399 0.131250
vt 3.313399 0.150000
vt 3.092505 0.150000
vt 3.313399 0.131250
vt 3.534292 0.131250
vt 3.534292 0.150000
vt 3.313399 0.150000
vt 3.534292 0.131250
vt 3.755185 0.131250
vt 3.755185 0.150000
vt 3.534292 0.150000
vt 3.755185 0.131250
vt 3.976078 0.131250
vt 3.976078 0.150000
vt 3.755185 0.150000
vt 3.976078 0.131250
vt 4.196971 0.131250
vt 4.196971 0.150000
vt 3.976078 0.150000
vt 4.196971 0.131250
vt 4.417865 0.131250
vt 4.417865 0.150000
vt 4.196971 0.150000
vt 4.417865 0.131250
vt 4.638758 0.131250
vt 4.638758 0.150000
vt 4.417865 0.150000
vt 4.638758 0.131250
vt 4.859651 0.131250
vt 4.859651 0.150000
vt 4.638758 0.150000
vt 4.859651 0.131250
vt 5.080544 0.131250
vt 5.080544 0.150000
vt 4.859651 0.150000
vt 5.080544 0.131250
vt 5.301438 0.131250
vt 5.301438 0.150000
vt 5.080544 0.150000
vt 5.301438 0.131250
vt 5.522331 0.131250
vt 5.522331 0.150000
vt 5.301438 0.150000
vt 5.522331 0.131250
vt 5.743224 0.131250
vt 5.743224 0.150000
vt 5.522331 0.150000
vt 5.743224 0.131250
vt 5.964117 0.131250
vt 5.964117 0.150000
vt 5.743224 0.150000
vt 5.964117 0.131250
vt 6.185011 0.131250
vt 6.185011 0.150000
vt 5.964117 0.150000
vt 6.185011 0.131250
vt 6.405904 0.131250
vt 6.405904 0.150000
vt 6.185011 0.150000
vt 6.405904 0.131250
vt 6.626797 0.131250
vt 6.626797 0.150000
vt 6.405904 0.150000
vt 6.626797 0.131250
vt 6.847690 0.131250
vt 6.847690 0.150000
vt 6.626797 0.150000
vt 6.847690 0.131250
vt 7.068583 0.131250
vt 7.068583 0.150000
vt 6.847690 0.150000
vt 7.068583 0.131250
vt 7.289477 0.131250
vt 7.289477 0.150000
vt 7.068583 0.150000
vt 7.289477 0.131250
vt 7.510370 0.131250
vt 7.510370 0.150000
vt 7.289477 0.150000
vt 7.510370 0.131250
vt 7.731263 0.131250
vt 7.731263 0.150000
vt 7.510370 0.150000
vt 7.731263 0.131250
vt 7.952156 0.131250
vt 7.952156 0.150000
vt 7.731263 0.150000
vt 7.952156 0.131250
vt 8.173050 0.131250
vt 8.173050 0.150000
vt 7.952156 0.150000
vt 8.173050 0.131250
vt 8.393943 0.131250
vt 8.393943 0.150000
vt 8.173050 0.150000
vt 8.393943 0.131250
vt 8.614836 0.131250
vt 8.614836 0.150000
vt 8.393943 0.150000
vt 8.614836 0.131250
vt 8.835729 0.131250
vt 8.835729 0.150000
vt 8.614836 0.150000
vt 8.835729 0.131250
vt 9.056623 0.131250
vt 9.056623 0.150000
vt 8.835729 0.150000
vt 9.056623 0.131250
vt 9.277516 0.131250
vt 9.277516 0.150000
vt 9.056623 0.150000
vt 9.277516 0.131250
vt 9.498409 0.131250
vt 9.498409 0.150000
vt 9.277516 0.150000
vt 9.498409 0.131250
vt 9.719302 0.131250
vt 9.719302 0.150000
vt 9.498409 0.150000
vt 9.719302 0.131250
vt 9.940196 0.131250
vt 9.940196 0.150000
vt 9.719302 0.150000
vt 9.940196 0.131250
vt 10.161089 0.131250
vt 10.161089 0.150000
vt 9.940196 0.150000
vt 10.161089 0.131250
vt 10.381982 0.131250
vt 10.381982 0.150000
vt 10.161089 0.150000
vt 10.381982 0.131250
vt 10.602875 0.131250
vt 10.602875 0.150000
vt 10.381982 0.150000
vn -0.0000000 0.0000000 -1.0000000
vn 0.8868484 -0.1371743 -0.4412292
vn 0.8971661 -0.0202438 -0.4412292
vn 0.8613564 -0.2517577 -0.4412292
vn 0.8211264 -0.3620334 -0.4412292
vn 0.7668467 -0.4661147 -0.4412292
vn 0.6994461 -0.5622206 -0.4412292
vn 0.6200777 -0.6487067 -0.4412292
vn 0.5300996 -0.7240933 -0.4412292
vn 0.4310514 -0.7870905 -0.4412292
vn 0.3246278 -0.8366203 -0.4412292
vn 0.2126497 -0.8718354 -0.4412292
vn 0.0970331 -0.8921330 -0.4412292
vn -0.0202438 -0.8971661 -0.4412292
vn -0.1371743 -0.8868484 -0.4412292
vn -0.2517577 -0.8613564 -0.4412292
vn -0.3620334 -0.8211264 -0.4412292
vn -0.4661147 -0.7668467 -0.4412292
vn -0.5622206 -0.6994461 -0.4412292
vn -0.6487067 -0.6200777 -0.4412292
vn -0.7240933 -0.5300996 -0.4412292
vn -0.7870905 -0.4310514 -0.4412292
vn -0.8366203 -0.3246278 -0.4412292
vn -0.8718354 -0.2126497 -0.4412292
vn -0.8921330 -0.0970331 -0.4412292
vn -0.8971661 0.0202438 -0.4412292
vn -0.8868484 0.1371743 -0.4412292
vn -0.8613564 0.2517577 -0.4412292
vn -0.8211264 0.3620334 -0.4412292
vn -0.7668467 0.4661147 -0.4412292
vn -0.6994461 0.5622206 -0.4412292
vn -0.6200777 0.6487067 -0.4412292
vn -0.5300996 0.7240933 -0.4412292
vn -0.4310514 0.7870905 -0.4412292
vn -0.3246278 0.8366203 -0.4412292
vn -0.2126497 0.8718354 -0.4412292
vn -0.0970331 0.8921330 -0.4412292
vn 0.0202438 0.8971661 -0.4412292
vn 0.1371743 0.8868484 -0.4412292
vn 0.2517577 0.8613564 -0.4412292
vn 0.3620334 0.8211264 -0.4412292
vn 0.4661147 0.7668467 -0.4412292
vn 0.5622206 0.6994461 -0.4412292
vn 0.6487067 0.6200777 -0.4412292
vn 0.7240933 0.5300996 -0.4412292
vn 0.7870905 0.4310514 -0.4412292
vn 0.8366203 0.3246278 -0.4412292
vn 0.8718354 0.2126497 -0.4412292
vn 0.8921330 0.0970331 -0.4412292
vn 0.9880588 -0.1450833 -0.0518724
vn 0.9985429 -0.0148745 -0.0518724
vn 0.9606686 -0.2728096 -0.0518724
vn 0.9168411 -0.3958681 -0.0518724
vn 0.8573263 -0.5121532 -0.0518724
vn 0.7831423 -0.6196752 -0.0518724
vn 0.6955586 -0.7165944 -0.0518724
vn 0.5960737 -0.8012524 -0.0518724
vn 0.4863897 -0.8722008 -0.0518724
vn 0.3683836 -0.9282256 -0.0518724
vn 0.2440742 -0.9683682 -0.0518724
vn 0.1155887 -0.9919418 -0.0518724
vn -0.0148745 -0.9985429 -0.0518724
vn -0.1450833 -0.9880588 -0.0518724
vn -0.2728096 -0.9606686 -0.0518724
vn -0.3958681 -0.9168411 -0.0518724
vn -0.5121532 -0.8573263 -0.0518724
vn -0.6196752 -0.7831423 -0.0518724
vn -0.7165944 -0.6955586 -0.0518724
vn -0.8012524 -0.5960737 -0.0518724
vn -0.8722008 -0.4863897 -0.0518724
vn -0.9282256 -0.3683836 -0.0518724
vn -0.9683682 -0.2440742 -0.0518724
vn -0.9919418 -0.1155887 -0.0518724
vn -0.9985429 0.0148745 -0.0518724
vn -0.9880588 0.1450833 -0.0518724
vn -0.9606686 0.2728096 -0.0518724
vn -0.9168411 0.3958681 -0.0518724
vn -0.8573263 0.5121532 -0.0518724
vn -0.7831423 0.6196752 -0.0518724
vn -0.6955586 0.7165944 -0.0518724
vn -0.5960737 0.8012524 -0.0518724
vn -0.4863897 0.8722008 -0.0518724
vn -0.3683836 0.9282256 -0.0518724
vn -0.2440742 0.9683682 -0.0518724
vn -0.1155887 0.9919418 -0.0518724
vn 0.0148745 0.9985429 -0.0518724
vn 0.1450833 0.9880588 -0.0518724
vn 0.2728096 0.9606686 -0.0518724
vn 0.3958681 0.9168411 -0.0518724
vn 0.5121532 0.8573263 -0.0518724
vn 0.6196752 0.7831423 -0.0518724
vn 0.7165944 0.6955586 -0.0518724
vn 0.8012524 0.5960737 -0.0518724
vn 0.8722008 0.4863897 -0.0518724
vn 0.9282256 0.3683836 -0.0518724
vn 0.9683682 0.2440742 -0.0518724
vn 0.9919418 0.1155887 -0.0518724
vn 0.9919418 -0.1155887 0.0518724
vn 0.9985429 0.0148745 0.0518724
vn 0.9683682 -0.2440742 0.0518724
vn 0.9282256 -0.3683836 0.0518724
vn 0.8722008 -0.4863897 0.0518724
vn 0.8012524 -0.5960737 0.0518724
vn 0.7165944 -0.6955586 0.0518724
vn 0.6196752 -0.7831423 0.0518724
vn 0.5121532 -0.8573263 0.0518724
vn 0.3958681 -0.9168411 0.0518724
vn 0.2728096 -0.9606686 0.0518724
vn 0.1450833 -0.9880588 0.0518724
vn 0.0148745 -0.9985429 0.0518724
vn -0.1155887 -0.9919418 0.0518724
vn -0.2440742 -0.9683682 0.0518724
vn -0.3683836 -0.9282256 0.0518724
vn -0.4863897 -0.8722008 0.0518724
vn -0.5960737 -0.8012524 0.0518724
vn -0.6955586 -0.7165944 0.0518724
vn -0.7831423 -0.6196752 0.0518724
vn -0.8573263 -0.5121532 0.0518724
vn -0.9168411 -0.3958681 0.0518724
vn -0.9606686 -0.2728096 0.0518724
vn -0.9880588 -0.1450833 0.0518724
vn -0.9985429 -0.0148745 0.0518724
vn -0.9919418 0.1155887 0.0518724
vn -0.9683682 0.2440742 0.0518724
vn -0.9282256 0.3683836 0.0518724
vn -0.8722008 0.4863897 0.0518724
vn -0.8012524 0.5960737 0.0518724
vn -0.7165944 0.6955586 0.0518724
vn -0.6196752 0.7831423 0.0518724
vn -0.5121532 0.8573263 0.0518724
vn -0.3958681 0.9168411 0.0518724
vn -0.2728096 0.9606686 0.0518724
vn -0.1450833 0.9880588 0.0518724
vn -0.0148745 0.9985429 0.0518724
vn 0.1155887 0.9919418 0.0518724
vn 0.2440742 0.9683682 0.0518724
vn 0.3683836 0.9282256 0.0518724
vn 0.4863897 0.8722008 0.0518724
vn 0.5960737 0.8012524 0.0518724
vn 0.6955586 0.7165944 0.0518724
vn 0.7831423 0.6196752 0.0518724
vn 0.8573263 0.5121532 0.0518724
vn 0.9168411 0.3958681 0.0518724
vn 0.9606686 0.2728096 0.0518724
vn 0.9880588 0.1450833 0.0518724
vn 0.8921330 -0.0970331 0.4412292
vn 0.8971661 0.0202438 0.4412292
vn 0.8718354 -0.2126497 0.4412292
vn 0.8366203 -0.3246278 0.4412292
vn 0.7870905 -0.4310514 0.4412292
vn 0.7240933 -0.5300996 0.4412292
vn 0.6487067 -0.6200777 0.4412292
vn 0.5622206 -0.6994461 0.4412292
vn 0.4661147 -0.7668467 0.4412292
vn 0.3620334 -0.8211264 0.4412292
vn 0.2517577 -0.8613564 0.4412292
vn 0.1371743 -0.8868484 0.4412292
vn 0.0202438 -0.8971661 0.4412292
vn -0.0970331 -0.8921330 0.4412292
vn -0.2126497 -0.8718354 0.4412292
vn -0.3246278 -0.8366203 0.4412292
vn -0.4310514 -0.7870905 0.4412292
vn -0.5300996 -0.7240933 0.4412292
vn -0.6200777 -0.6487067 0.4412292
vn -0.6994461 -0.5622206 0.4412292
vn -0.7668467 -0.4661147 0.4412292
vn -0.8211264 -0.3620334 0.4412292
vn -0.8613564 -0.2517577 0.4412292
vn -0.8868484 -0.1371743 0.4412292
vn -0.8971661 -0.0202438 0.4412292
vn -0.8921330 0.0970331 0.4412292
vn -0.8718354 0.2126497 0.4412292
vn -0.8366203 0.3246278 0.4412292
vn -0.7870905 0.4310514 0.4412292
vn -0.7240933 0.5300996 0.4412292
vn -0.6487067 0.6200777 0.4412292
vn -0.5622206 0.6994461 0.4412292
vn -0.4661147 0.7668467 0.4412292
vn -0.3620334 0.8211264 0.4412292
vn -0.2517577 0.8613564 0.4412292
vn -0.1371743 0.8868484 0.4412292
vn -0.0202438 0.8971661 0.4412292
vn 0.0970331 0.8921330 0.4412292
vn 0.2126497 0.8718354 0.4412292
vn 0.3246278 0.8366203 0.4412292
vn 0.4310514 0.7870905 0.4412292
vn 0.5300996 0.7240933 0.4412292
vn 0.6200777 0.6487067 0.4412292
vn 0.6994461 0.5622206 0.4412292
vn 0.7668467 0.4661147 0.4412292
vn 0.8211264 0.3620334 0.4412292
vn 0.8613564 0.2517577 0.4412292
vn 0.8868484 0.1371743 0.4412292
vn -0.0000000 -0.0000000 1.0000000
usemtl Lamp
f 4/4/3 3/3/2 1/1/1
f 8/8/2 7/7/4 5/5/1
f 12/12/4 11/11/5 9/9/1
f 16/16/5 15/15/6 13/13/1
f 20/20/6 19/19/7 17/17/1
f 24/24/7 23/23/8 21/21/1
f 28/28/8 27/27/9 25/25/1
f 32/32/9 31/31/10 29/29/1
f 36/36/10 35/35/11 33/33/1
f 40/40/11 39/39/12 37/37/1
f 44/44/12 43/43/13 41/41/1
f 48/48/13 47/47/14 45/45/1
f 52/52/14 51/51/15 49/49/1
f 56/56/15 55/55/16 53/53/1
f 60/60/16 59/59/17 57/57/1
f 64/64/17 63/63/18 61/61/1
f 68/68/18 67/67/19 65/65/1
f 72/72/19 71/71/20 69/69/1
f 76/76/20 75/75/21 73/73/1
f 80/80/21 79/79/22 77/77/1
f 84/84/22 83/83/23 81/81/1
f 88/88/23 87/87/24 85/85/1
f 92/92/24 91/91/25 89/89/1
f 96/96/25 95/95/26 93/93/1
f 100/100/26 99/99/27 97/97/1
f 104/104/27 103/103/28 101/101/1
f 108/108/28 107/107/29 105/105/1
f 112/112/29 111/111/30 109/109/1
f 116/116/30 115/115/31 113/113/1
f 120/120/31 119/119/32 117/117/1
f 124/124/32 123/123/33 121/121/1
f 128/128/33 127/127/34 125/125/1
f 132/132/34 131/131/35 129/129/1
f 136/136/35 135/135/36 133/133/1
f 140/140/36 139/139/37 137/137/1
f 144/144/37 143/143/38 141/141/1
f 148/148/38 147/147/39 145/145/1
f 152/152/39 151/151/40 149/149/1
f 156/156/40 155/155/41 153/153/1
f 160/160/41 159/159/42 157/157/1
f 164/164/42 163/163/43 161/161/1
f 168/168/43 167/167/44 165/165/1
f 172/172/44 171/171/45 169/169/1
f 176/176/45 175/175/46 173/173/1
f 180/180/46 179/179/47 177/177/1
f 184/184/47 183/183/48 181/181/1
f 188/188/48 187/187/49 185/185/1
f 192/192/49 191/191/3 189/189/1
f 195/195/50 194/194/2 193/193/3
f 196/196/51 195/195/50 193/193/3
f 199/199/52 198/198/4 197/197/2
f 200/200/50 199/199/52 197/197/2
f 203/203/53 202/202/5 201/201/4
f 204/204/52 203/203/53 201/201/4
f 207/207/54 206/206/6 205/205/5
f 208/208/53 207/207/54 205/205/5
f 211/211/55 210/210/7 209/209/6
f 212/212/54 211/211/55 209/209/6
f 215/215/56 214/214/8 213/213/7
f 216/216/55 215/215/56 213/213/7
f 219/219/57 218/218/9 217/217/8
f 220/220/56 219/219/57 217/217/8
f 223/223/58 222/222/10 221/221/9
f 224/224/57 223/223/58 221/221/9
f 227/227/59 226/226/11 225/225/10
f 228/228/58 227/227/59 225/225/10
f 231/231/60 230/230/12 229/229/11
f 232/232/59 231/231/60 229/229/11
f 235/235/61 234/234/13 233/233/12
f 236/236/60 235/235/61 233/233/12
f 239/239/62 238/238/14 237/237/13
f 240/240/61 239/239/62 237/237/13
f 243/243/63 242/242/15 241/241/14
f 244/244/62 243/243/63 241/241/14
f 247/247/64 246/246/16 245/245/15
f 248/248/63 247/247/64 245/245/15
f 251/251/65 250/250/17 249/249/16
f 252/252/64 251/251/65 249/249/16
f 255/255/66 254/254/18 253/253/17
f 256/256/65 255/255/66 253/253/17
f 259/259/67 258/258/19 257/257/18
f 260/260/66 259/259/67 257/257/18
f 263/263/68 262/262/20 261/261/19
f 264/264/67 263/263/68 261/261/19
f 267/267/69 266/266/21 265/265/20
f 268/268/68 267/267/69 265/265/20
f 271/271/70 270/270/22 269/269/21
f 272/272/69 271/271/70 269/269/21
f 275/275/71 274/274/23 273/273/22
f 276/276/70 275/275/71 273/273/22
f 279/279/72 278/278/24 277/277/23
f 280/280/71 279/279/72 277/277/23
f 283/283/73 282/282/25 281/281/24
f 284/284/72 283/283/73 281/281/24
f 287/287/74 286/286/26 285/285/25
f 288/288/73 287/287/74 285/285/25
f 291/291/75 290/290/27 289/289/26
f 292/292/74 291/291/75 289/289/26
f 295/295/76 294/294/28 293/293/27
f 296/296/75 295/295/76 293/293/27
f 299/299/77 298/298/29 297/297/28
f 300/300/76 299/299/77 297/297/28
f 303/303/78 302/302/30 301/301/29
f 304/304/77 303/303/78 301/301/29
f 307/307/79 306/306/31 305/305/30
f 308/308/78 307/307/79 305/305/30
f 311/311/80 310/310/32 309/309/31
f 312/312/79 311/311/80 309/309/31
f 315/315/81 314/314/33 313/313/32
f 316/316/80 315/315/81 313/313/32
f 319/319/82 318/318/34 317/317/33
f 320/320/81 319/319/82 317/317/33
f 323/323/83 322/322/35 321/321/34
f 324/324/82 323/323/83 321/321/34
f 327/327/84 326/326/36 325/325/35
f 328/328/83 327/327/84 325/325/35
f 331/331/85 330/330/37 329/329/36
f 332/332/84 331/331/85 329/329/36
f 335/335/86 334/334/38 333/333/37
f 336/336/85 335/335/86 333/333/37
f 339/339/87 338/338/39 337/337/38
f 340/340/86 339/339/87 337/337/38
f 343/343/88 342/342/40 341/341/39
f 344/344/87 343/343/88 341/341/39
f 347/347/89 346/346/41 345/345/40
f 348/348/88 347/347/89 345/345/40
f 351/351/90 350/350/42 349/349/41
f 352/352/89 351/351/90 349/349/41
f 355/355/91 354/354/43 353/353/42
f 356/356/90 355/355/91 353/353/42
f 359/359/92 358/358/44 357/357/43
f 360/360/91 359/359/92 357/357/43
f 363/363/93 362/362/45 361/361/44
f 364/364/92 363/363/93 361/361/44
f 367/367/94 366/366/46 365/365/45
f 368/368/93 367/367/94 365/365/45
f 371/371/95 370/370/47 369/369/46
f 372/372/94 371/371/95 369/369/46
f 375/375/96 374/374/48 373/373/47
f 376/376/95 375/375/96 373/373/47
f 379/379/97 378/378/49 377/377/48
f 380/380/96 379/379/97 377/377/48
f 383/383/51 382/382/3 381/381/49
f 384/384/97 383/383/51 381/381/49
f 387/387/98 386/386/50 385/385/51
f 388/388/99 387/387/98 385/385/51
f 391/391/100 390/390/52 389/389/50
f 392/392/98 391/391/100 389/389/50
f 395/395/101 394/394/53 393/393/52
f 396/396/100 395/395/101 393/393/52
f 399/399/102 398/398/54 397/397/53
f 400/400/101 399/399/102 397/397/53
f 403/403/103 402/402/55 401/401/54
f 404/404/102 403/403/103 401/401/54
f 407/407/104 406/406/56 405/405/55
f 408/408/103 407/407/104 405/405/55
f 411/411/105 410/410/57 409/409/56
f 412/412/104 411/411/105 409/409/56
f 415/415/106 414/414/58 413/413/57
f 416/416/105 415/415/106 413/413/57
f 419/419/107 418/418/59 417/417/58
f 420/420/106 419/419/107 417/417/58
f 423/423/108 422/422/60 421/421/59
f 424/424/107 423/423/108 421/421/59
f 427/427/109 426/426/61 425/425/60
f 428/428/108 427/427/109 425/425/60
f 431/431/110 430/430/62 429/429/61
f 432/432/109 431/431/110 429/429/61
f 435/435/111 434/434/63 433/433/62
f 436/436/110 435/435/111 433/433/62
f 439/439/112 438/438/64 437/437/63
f 440/440/111 439/439/112 437/437/63
f 443/443/113 442/442/65 441/441/64
f 444/444/112 443/443/113 441/441/64
f 447/447/114 446/446/66 445/445/65
f 448/448/113 447/447/114 445/445/65
f 451/451/115 450/450/67 449/449/66
f 452/452/114 451/451/115 449/449/66
f 455/455/116 454/454/68 453/453/67
f 456/456/115 455/455/116 453/453/67
f 459/459/117 458/458/69 457/457/68
f 460/460/116 459/459/117 457/457/68
f 463/463/118 462/462/70 461/461/69
f 464/464/117 463/463/118 461/461/69
f 467/467/119 466/466/71 465/465/70
f 468/468/118 467/467/119 465/465/70
f 471/471/120 470/470/72 469/469/71
f 472/472/119 471/471/120 469/469/71
f 475/475/121 474/474/73 473/473/72
f 476/476/120 475/475/121 473/473/72
f 479/479/122 478/478/74 477/477/73
f 480/480/121 479/479/122 477/477/73
f 483/483/123 482/482/75 481/481/74
f 484/484/122 483/483/123 481/481/74
f 487/487/124 486/486/76 485/485/75
f 488/488/123 487/487/124 485/485/75
f 491/491/125 490/490/77 489/489/76
f 492/492/124 491/491/125 489/489/76
f 495/495/126 494/494/78 493/493/77
f 496/496/125 495/495/126 493/493/77
f 499/499/127 498/498/79 497/497/78
f 500/500/126 499/499/127 497/497/78
f 503/503/128 502/502/80 501/501/79
f 504/504/127 503/503/128 501/501/79
f 507/507/129 506/506/81 505/505/80
f 508/508/128 507/507/129 505/505/80
f 511/511/130 510/510/82 509/509/81
f 512/512/129 511/511/130 509/509/81
f 515/515/131 514/514/83 513/513/82
f 516/516/130 515/515/131 513/513/82
f 519/519/132 518/518/84 517/517/83
f 520/520/131 519/519/132 517/517/83
f 523/523/133 522/522/85 521/521/84
f 524/524/132 523/523/133 521/521/84
f 527/527/134 526/526/86 525/525/85
f 528/528/133 527/527/134 525/525/85
f 531/531/135 530/530/87 529/529/86
f 532/532/134 531/531/135 529/529/86
f 535/535/136 534/534/88 533/533/87
f 536/536/135 535/535/136 533/533/87
f 539/539/137 538/538/89 537/537/88
f 540/540/136 539/539/137 537/537/88
f 543/543/138 542/542/90 541/541/89
f 544/544/137 543/543/138 541/541/89
f 547/547/139 546/546/91 545/545/90
f 548/548/138 547/547/139 545/545/90
f 551/551/140 550/550/92 549/549/91
f 552/552/139 551/551/140 549/549/91
f 555/555/141 554/554/93 553/553/92
f 556/556/140 555/555/141 553/553/92
f 559/559/142 558/558/94 557/557/93
f 560/560/141 559/559/142 557/557/93
f 563/563/143 562/562/95 561/561/94
f 564/564/142 563/563/143 561/561/94
f 567/567/144 566/566/96 565/565/95
f 568/568/143 567/567/144 565/565/95
f 571/571/145 570/570/97 569/569/96
f 572/572/144 571/571/145 569/569/96
f 575/575/99 574/574/51 573/573/97
f 576/576/145 575/575/99 573/573/97
f 579/579/146 578/578/98 577/577/99
f 580/580/147 579/579/146 577/577/99
f 583/583/148 582/582/100 581/581/98
f 584/584/146 583/583/148 581/581/98
f 587/587/149 586/586/101 585/585/100
f 588/588/148 587/587/149 585/585/100
f 591/591/150 590/590/102 589/589/101
f 592/592/149 591/591/150 589/589/101
f 595/595/151 594/594/103 593/593/102
f 596/596/150 595/595/151 593/593/102
f 599/599/152 598/598/104 597/597/103
f 600/600/151 599/599/152 597/597/103
f 603/603/153 602/602/105 601/601/104
f 604/604/152 603/603/153 601/601/104
f 607/607/154 606/606/106 605/605/105
f 608/608/153 607/607/154 605/605/105
f 611/611/155 610/610/107 609/609/106
f 612/612/154 611/611/155 609/609/106
f 615/615/156 614/614/108 613/613/107
f 616/616/155 615/615/156 613/613/107
f 619/619/157 618/618/109 617/617/108
f 620/620/156 619/619/157 617/617/108
f 623/623/158 622/622/110 621/621/109
f 624/624/157 623/623/158 621/621/109
f 627/627/159 626/626/111 625/625/110
f 628/628/158 627/627/159 625/625/110
f 631/631/160 630/630/112 629/629/111
f 632/632/159 631/631/160 629/629/111
f 635/635/161 634/634/113 633/633/112
f 636/636/160 635/635/161 633/633/112
f 639/639/162 638/638/114 637/637/113
f 640/640/161 639/639/162 637/637/113
f 643/643/163 642/642/115 641/641/114
f 644/644/162 643/643/163 641/641/114
f 647/647/164 646/646/116 645/645/115
f 648/648/163 647/647/164 645/645/115
f 651/651/165 650/650/117 649/649/116
f 652/652/164 651/651/165 649/649/116
f 655/655/166 654/654/118 653/653/117
f 656/656/165 655/655/166 653/653/117
f 659/659/167 658/658/119 657/657/118
f 660/660/166 659/659/167 657/657/118
f 663/663/168 662/662/120 661/661/119
f 664/664/167 663/663/168 661/661/119
f 667/667/169 666/666/121 665/665/120
f 668/668/168 667/667/169 665/665/120
f 671/671/170 670/670/122 669/669/121
f 672/672/169 671/671/170 669/669/121
f 675/675/171 674/674/123 673/673/122
f 676/676/170 675/675/171 673/673/122
f 679/679/172 678/678/124 677/677/123
f 680/680/171 679/679/172 677/677/123
f 683/683/173 682/682/125 681/681/124
f 684/684/172 683/683/173 681/681/124
f 687/687/174 686/686/126 685/685/125
f 688/688/173 687/687/174 685/685/125
f 691/691/175 690/690/127 689/689/126
f 692/692/174 691/691/175 689/689/126
f 695/695/176 694/694/128 693/693/127
f 696/696/175 695/695/176 693/693/127
f 699/699/177 698/698/129 697/697/128
f 700/700/176 699/699/177 697/697/128
f 703/703/178 702/702/130 701/701/129
f 704/704/177 703/703/178 701/701/129
f 707/707/179 706/706/131 705/705/130
f 708/708/178 707/707/179 705/705/130
f 711/711/180 710/710/132 709/709/131
f 712/712/179 711/711/180 709/709/131
f 715/715/181 714/714/133 713/713/132
f 716/716/180 715/715/181 713/713/132
f 719/719/182 718/718/134 717/717/133
f 720/720/181 719/719/182 717/717/133
f 723/723/183 722/722/135 721/721/134
f 724/724/182 723/723/183 721/721/134
f 727/727/184 726/726/136 725/725/135
f 728/728/183 727/727/184 725/725/135
f 731/731/185 730/730/137 729/729/136
f 732/732/184 731/731/185 729/729/136
f 735/735/186 734/734/138 733/733/137
f 736/736/185 735/735/186 733/733/137
f 739/739/187 738/738/139 737/737/138
f 740/740/186 739/739/187 737/737/138
f 743/743/188 742/742/140 741/741/139
f 744/744/187 743/743/188 741/741/139
f 747/747/189 746/746/141 745/745/140
f 748/748/188 747/747/189 745/745/140
f 751/751/190 750/750/142 749/749/141
f 752/752/189 751/751/190 749/749/141
f 755/755/191 754/754/143 753/753/142
f 756/756/190 755/755/191 753/753/142
f 759/759/192 758/758/144 757/757/143
f 760/760/191 759/759/192 757/757/143
f 763/763/193 762/762/145 761/761/144
f 764/764/192 763/763/193 761/761/144
f 767/767/147 766/766/99 765/765/145
f 768/768/193 767/767/147 765/765/145
f 771/771/194 770/770/146 769/769/147
f 775/775/194 774/774/148 773/773/146
f 779/779/194 778/778/149 777/777/148
f 783/783/194 782/782/150 781/781/149
f 787/787/194 786/786/151 785/785/150
f 791/791/194 790/790/152 789/789/151
f 795/795/194 794/794/153 793/793/152
f 799/799/194 798/798/154 797/797/153
f 803/803/194 802/802/155 801/801/154
f 807/807/194 806/806/156 805/805/155
f 811/811/194 810/810/157 809/809/156
f 815/815/194 814/814/158 813/813/157
f 819/819/194 818/818/159 817/817/158
f 823/823/194 822/822/160 821/821/159
f 827/827/194 826/826/161 825/825/160
f 831/831/194 830/830/162 829/829/161
f 835/835/194 834/834/163 833/833/162
f 839/839/194 838/838/164 837/837/163
f 843/843/194 842/842/165 841/841/164
f 847/847/194 846/846/166 845/845/165
f 851/851/194 850/850/167 849/849/166
f 855/855/194 854/854/168 853/853/167
f 859/859/194 858/858/169 857/857/168
f 863/863/194 862/862/170 861/861/169
f 867/867/194 866/866/171 865/865/170
f 871/871/194 870/870/172 869/869/171
f 875/875/194 874/874/173 873/873/172
f 879/879/194 878/878/174 877/877/173
f 883/883/194 882/882/175 881/881/174
f 887/887/194 886/886/176 885/885/175
f 891/891/194 890/890/177 889/889/176
f 895/895/194 894/894/178 893/893/177
f 899/899/194 898/898/179 897/897/178
f 903/903/194 902/902/180 901/901/179
f 907/907/194 906/906/181 905/905/180
f 911/911/194 910/910/182 909/909/181
f 915/915/194 914/914/183 913/913/182
f 919/919/194 918/918/184 917/917/183
f 923/923/194 922/922/185 921/921/184
f 927/927/194 926/926/186 925/925/185
f 931/931/194 930/930/187 929/929/186
f 935/935/194 934/934/188 933/933/187
f 939/939/194 938/938/189 937/937/188
f 943/943/194 942/942/190 941/941/189
f 947/947/194 946/946/191 945/945/190
f 951/951/194 950/950/192 949/949/191
f 955/955/194 954/954/193 953/953/192
f 959/959/194 958/958/147 957/957/193
