# Blender 5.0.1
# www.blender.org
mtllib BB_Reusable_Gallery_Post.mtl
o Gallery_Post
v 3.300000 0.000000 -0.030000
v 3.300000 1.200000 -0.030000
v 3.311481 0.000000 -0.027716
v 3.311481 1.200000 -0.027716
v 3.321213 0.000000 -0.021213
v 3.321213 1.200000 -0.021213
v 3.327716 0.000000 -0.011481
v 3.327716 1.200000 -0.011481
v 3.330000 0.000000 0.000000
v 3.330000 1.200000 0.000000
v 3.327716 0.000000 0.011481
v 3.327716 1.200000 0.011481
v 3.321213 0.000000 0.021213
v 3.321213 1.200000 0.021213
v 3.311481 0.000000 0.027716
v 3.311481 1.200000 0.027716
v 3.300000 0.000000 0.030000
v 3.300000 1.200000 0.030000
v 3.288519 0.000000 0.027716
v 3.288519 1.200000 0.027716
v 3.278787 0.000000 0.021213
v 3.278787 1.200000 0.021213
v 3.272284 0.000000 0.011481
v 3.272284 1.200000 0.011481
v 3.270000 0.000000 0.000000
v 3.270000 1.200000 0.000000
v 3.272284 0.000000 -0.011481
v 3.272284 1.200000 -0.011481
v 3.278787 0.000000 -0.021213
v 3.278787 1.200000 -0.021213
v 3.288519 0.000000 -0.027716
v 3.288519 1.200000 -0.027716
v -0.011481 0.000000 -0.027716
v -0.011481 1.200000 -0.027716
v 0.000000 0.000000 -0.030000
v 0.000000 1.200000 -0.030000
v 0.011481 0.000000 -0.027716
v 0.011481 1.200000 -0.027716
v 0.021213 0.000000 -0.021213
v 0.021213 1.200000 -0.021213
v 0.027716 0.000000 -0.011481
v 0.027716 1.200000 -0.011481
v 0.030000 0.000000 0.000000
v 0.030000 1.200000 0.000000
v 0.027716 0.000000 0.011481
v 0.027716 1.200000 0.011481
v 0.021213 0.000000 0.021213
v 0.021213 1.200000 0.021213
v 0.011481 0.000000 0.027716
v 0.011481 1.200000 0.027716
v 0.000000 0.000000 0.030000
v 0.000000 1.200000 0.030000
v -0.011481 0.000000 0.027716
v -0.011481 1.200000 0.027716
v -0.021213 0.000000 0.021213
v -0.021213 1.200000 0.021213
v -0.027716 0.000000 0.011481
v -0.027716 1.200000 0.011481
v -0.030000 0.000000 0.000000
v -0.030000 1.200000 0.000000
v -0.027716 0.000000 -0.011481
v -0.027716 1.200000 -0.011481
v -0.021213 0.000000 -0.021213
v -0.021213 1.200000 -0.021213
v -3.070016 0.000000 1.241642
v -3.070016 1.200000 1.241642
v -3.060283 0.000000 1.235139
v -3.060283 1.200000 1.235139
v -3.048803 0.000000 1.232855
v -3.048803 1.200000 1.232855
v -3.037322 0.000000 1.235139
v -3.037322 1.200000 1.235139
v -3.027590 0.000000 1.241642
v -3.027590 1.200000 1.241642
v -3.021086 0.000000 1.251375
v -3.021086 1.200000 1.251375
v -3.018802 0.000000 1.262855
v -3.018802 1.200000 1.262855
v -3.021086 0.000000 1.274336
v -3.021086 1.200000 1.274336
v -3.027590 0.000000 1.284069
v -3.027590 1.200000 1.284069
v -3.037322 0.000000 1.290572
v -3.037322 1.200000 1.290572
v -3.048803 0.000000 1.292855
v -3.048803 1.200000 1.292855
v -3.060283 0.000000 1.290572
v -3.060283 1.200000 1.290572
v -3.070016 0.000000 1.284069
v -3.070016 1.200000 1.284069
v -3.076519 0.000000 1.274336
v -3.076519 1.200000 1.274336
v -3.078803 0.000000 1.262855
v -3.078803 1.200000 1.262855
v -3.076519 0.000000 1.251375
v -3.076519 1.200000 1.251375
v -5.409971 0.000000 3.584827
v -5.409971 1.200000 3.584827
v -5.403468 0.000000 3.575094
v -5.403468 1.200000 3.575094
v -5.393735 0.000000 3.568591
v -5.393735 1.200000 3.568591
v -5.382255 0.000000 3.566308
v -5.382255 1.200000 3.566308
v -5.370774 0.000000 3.568591
v -5.370774 1.200000 3.568591
v -5.361041 0.000000 3.575094
v -5.361041 1.200000 3.575094
v -5.354538 0.000000 3.584827
v -5.354538 1.200000 3.584827
v -5.352255 0.000000 3.596308
v -5.352255 1.200000 3.596308
v -5.354538 0.000000 3.607788
v -5.354538 1.200000 3.607788
v -5.361041 0.000000 3.617521
v -5.361041 1.200000 3.617521
v -5.370774 0.000000 3.624024
v -5.370774 1.200000 3.624024
v -5.382255 0.000000 3.626308
v -5.382255 1.200000 3.626308
v -5.393735 0.000000 3.624024
v -5.393735 1.200000 3.624024
v -5.403468 0.000000 3.617521
v -5.403468 1.200000 3.617521
v -5.409971 0.000000 3.607788
v -5.409971 1.200000 3.607788
v -5.412254 0.000000 3.596308
v -5.412254 1.200000 3.596308
v -6.675109 0.000000 6.645110
v -6.675109 1.200000 6.645110
v -6.672826 0.000000 6.633630
v -6.672826 1.200000 6.633630
v -6.666323 0.000000 6.623897
v -6.666323 1.200000 6.623897
v -6.656590 0.000000 6.617394
v -6.656590 1.200000 6.617394
v -6.645109 0.000000 6.615110
v -6.645109 1.200000 6.615110
v -6.633629 0.000000 6.617394
v -6.633629 1.200000 6.617394
v -6.623896 0.000000 6.623897
v -6.623896 1.200000 6.623897
v -6.617393 0.000000 6.633630
v -6.617393 1.200000 6.633630
v -6.615109 0.000000 6.645110
v -6.615109 1.200000 6.645110
v -6.617393 0.000000 6.656590
v -6.617393 1.200000 6.656590
v -6.623896 0.000000 6.666323
v -6.623896 1.200000 6.666323
v -6.633629 0.000000 6.672826
v -6.633629 1.200000 6.672826
v -6.645109 0.000000 6.675110
v -6.645109 1.200000 6.675110
v -6.656590 0.000000 6.672826
v -6.656590 1.200000 6.672826
v -6.666323 0.000000 6.666323
v -6.666323 1.200000 6.666323
v -6.672826 0.000000 6.656590
v -6.672826 1.200000 6.656590
v -6.672825 0.000000 9.956591
v -6.672825 1.200000 9.956591
v -6.675108 0.000000 9.945110
v -6.675108 1.200000 9.945110
v -6.672825 0.000000 9.933630
v -6.672825 1.200000 9.933630
v -6.666322 0.000000 9.923897
v -6.666322 1.200000 9.923897
v -6.656589 0.000000 9.917394
v -6.656589 1.200000 9.917394
v -6.645108 0.000000 9.915111
v -6.645108 1.200000 9.915111
v -6.633628 0.000000 9.917394
v -6.633628 1.200000 9.917394
v -6.623895 0.000000 9.923897
v -6.623895 1.200000 9.923897
v -6.617392 0.000000 9.933630
v -6.617392 1.200000 9.933630
v -6.615108 0.000000 9.945110
v -6.615108 1.200000 9.945110
v -6.617392 0.000000 9.956591
v -6.617392 1.200000 9.956591
v -6.623895 0.000000 9.966324
v -6.623895 1.200000 9.966324
v -6.633628 0.000000 9.972827
v -6.633628 1.200000 9.972827
v -6.645108 0.000000 9.975110
v -6.645108 1.200000 9.975110
v -6.656589 0.000000 9.972827
v -6.656589 1.200000 9.972827
v -6.666322 0.000000 9.966324
v -6.666322 1.200000 9.966324
v -5.403466 0.000000 13.015126
v -5.403466 1.200000 13.015126
v -5.409969 0.000000 13.005393
v -5.409969 1.200000 13.005393
v -5.412252 0.000000 12.993913
v -5.412252 1.200000 12.993913
v -5.409969 0.000000 12.982432
v -5.409969 1.200000 12.982432
v -5.403466 0.000000 12.972699
v -5.403466 1.200000 12.972699
v -5.393733 0.000000 12.966196
v -5.393733 1.200000 12.966196
v -5.382253 0.000000 12.963913
v -5.382253 1.200000 12.963913
v -5.370772 0.000000 12.966196
v -5.370772 1.200000 12.966196
v -5.361039 0.000000 12.972699
v -5.361039 1.200000 12.972699
v -5.354536 0.000000 12.982432
v -5.354536 1.200000 12.982432
v -5.352253 0.000000 12.993913
v -5.352253 1.200000 12.993913
v -5.354536 0.000000 13.005393
v -5.354536 1.200000 13.005393
v -5.361039 0.000000 13.015126
v -5.361039 1.200000 13.015126
v -5.370772 0.000000 13.021629
v -5.370772 1.200000 13.021629
v -5.382253 0.000000 13.023912
v -5.382253 1.200000 13.023912
v -5.393733 0.000000 13.021629
v -5.393733 1.200000 13.021629
v -3.060280 0.000000 15.355081
v -3.060280 1.200000 15.355081
v -3.070013 0.000000 15.348577
v -3.070013 1.200000 15.348577
v -3.076516 0.000000 15.338844
v -3.076516 1.200000 15.338844
v -3.078800 0.000000 15.327364
v -3.078800 1.200000 15.327364
v -3.076516 0.000000 15.315884
v -3.076516 1.200000 15.315884
v -3.070013 0.000000 15.306150
v -3.070013 1.200000 15.306150
v -3.060280 0.000000 15.299647
v -3.060280 1.200000 15.299647
v -3.048800 0.000000 15.297364
v -3.048800 1.200000 15.297364
v -3.037319 0.000000 15.299647
v -3.037319 1.200000 15.299647
v -3.027587 0.000000 15.306150
v -3.027587 1.200000 15.306150
v -3.021084 0.000000 15.315884
v -3.021084 1.200000 15.315884
v -3.018800 0.000000 15.327364
v -3.018800 1.200000 15.327364
v -3.021084 0.000000 15.338844
v -3.021084 1.200000 15.338844
v -3.027587 0.000000 15.348577
v -3.027587 1.200000 15.348577
v -3.037319 0.000000 15.355081
v -3.037319 1.200000 15.355081
v -3.048800 0.000000 15.357364
v -3.048800 1.200000 15.357364
v 0.000003 0.000000 16.620218
v 0.000003 1.200000 16.620218
v -0.011478 0.000000 16.617933
v -0.011478 1.200000 16.617933
v -0.021210 0.000000 16.611431
v -0.021210 1.200000 16.611431
v -0.027714 0.000000 16.601698
v -0.027714 1.200000 16.601698
v -0.029997 0.000000 16.590218
v -0.029997 1.200000 16.590218
v -0.027714 0.000000 16.578737
v -0.027714 1.200000 16.578737
v -0.021210 0.000000 16.569004
v -0.021210 1.200000 16.569004
v -0.011478 0.000000 16.562502
v -0.011478 1.200000 16.562502
v 0.000003 0.000000 16.560217
v 0.000003 1.200000 16.560217
v 0.011483 0.000000 16.562502
v 0.011483 1.200000 16.562502
v 0.021216 0.000000 16.569004
v 0.021216 1.200000 16.569004
v 0.027719 0.000000 16.578737
v 0.027719 1.200000 16.578737
v 0.030003 0.000000 16.590218
v 0.030003 1.200000 16.590218
v 0.027719 0.000000 16.601698
v 0.027719 1.200000 16.601698
v 0.021216 0.000000 16.611431
v 0.021216 1.200000 16.611431
v 0.011483 0.000000 16.617933
v 0.011483 1.200000 16.617933
v 3.311483 0.000000 16.617931
v 3.311483 1.200000 16.617931
v 3.300003 0.000000 16.620216
v 3.300003 1.200000 16.620216
v 3.288522 0.000000 16.617931
v 3.288522 1.200000 16.617931
v 3.278790 0.000000 16.611429
v 3.278790 1.200000 16.611429
v 3.272286 0.000000 16.601696
v 3.272286 1.200000 16.601696
v 3.270003 0.000000 16.590216
v 3.270003 1.200000 16.590216
v 3.272286 0.000000 16.578735
v 3.272286 1.200000 16.578735
v 3.278790 0.000000 16.569002
v 3.278790 1.200000 16.569002
v 3.288522 0.000000 16.562500
v 3.288522 1.200000 16.562500
v 3.300003 0.000000 16.560215
v 3.300003 1.200000 16.560215
v 3.311483 0.000000 16.562500
v 3.311483 1.200000 16.562500
v 3.321216 0.000000 16.569002
v 3.321216 1.200000 16.569002
v 3.327719 0.000000 16.578735
v 3.327719 1.200000 16.578735
v 3.330003 0.000000 16.590216
v 3.330003 1.200000 16.590216
v 3.327719 0.000000 16.601696
v 3.327719 1.200000 16.601696
v 3.321216 0.000000 16.611429
v 3.321216 1.200000 16.611429
v 6.370018 0.000000 15.348573
v 6.370018 1.200000 15.348573
v 6.360285 0.000000 15.355076
v 6.360285 1.200000 15.355076
v 6.348804 0.000000 15.357359
v 6.348804 1.200000 15.357359
v 6.337324 0.000000 15.355076
v 6.337324 1.200000 15.355076
v 6.327591 0.000000 15.348573
v 6.327591 1.200000 15.348573
v 6.321088 0.000000 15.338840
v 6.321088 1.200000 15.338840
v 6.318805 0.000000 15.327359
v 6.318805 1.200000 15.327359
v 6.321088 0.000000 15.315879
v 6.321088 1.200000 15.315879
v 6.327591 0.000000 15.306146
v 6.327591 1.200000 15.306146
v 6.337324 0.000000 15.299643
v 6.337324 1.200000 15.299643
v 6.348804 0.000000 15.297359
v 6.348804 1.200000 15.297359
v 6.360285 0.000000 15.299643
v 6.360285 1.200000 15.299643
v 6.370018 0.000000 15.306146
v 6.370018 1.200000 15.306146
v 6.376521 0.000000 15.315879
v 6.376521 1.200000 15.315879
v 6.378805 0.000000 15.327359
v 6.378805 1.200000 15.327359
v 6.376521 0.000000 15.338840
v 6.376521 1.200000 15.338840
v 8.709972 0.000000 13.005386
v 8.709972 1.200000 13.005386
v 8.703469 0.000000 13.015120
v 8.703469 1.200000 13.015120
v 8.693736 0.000000 13.021623
v 8.693736 1.200000 13.021623
v 8.682256 0.000000 13.023906
v 8.682256 1.200000 13.023906
v 8.670775 0.000000 13.021623
v 8.670775 1.200000 13.021623
v 8.661043 0.000000 13.015120
v 8.661043 1.200000 13.015120
v 8.654540 0.000000 13.005386
v 8.654540 1.200000 13.005386
v 8.652256 0.000000 12.993906
v 8.652256 1.200000 12.993906
v 8.654540 0.000000 12.982426
v 8.654540 1.200000 12.982426
v 8.661043 0.000000 12.972692
v 8.661043 1.200000 12.972692
v 8.670775 0.000000 12.966189
v 8.670775 1.200000 12.966189
v 8.682256 0.000000 12.963906
v 8.682256 1.200000 12.963906
v 8.693736 0.000000 12.966189
v 8.693736 1.200000 12.966189
v 8.703469 0.000000 12.972692
v 8.703469 1.200000 12.972692
v 8.709972 0.000000 12.982426
v 8.709972 1.200000 12.982426
v 8.712256 0.000000 12.993906
v 8.712256 1.200000 12.993906
v 9.975110 0.000000 9.945103
v 9.975110 1.200000 9.945103
v 9.972826 0.000000 9.956583
v 9.972826 1.200000 9.956583
v 9.966323 0.000000 9.966316
v 9.966323 1.200000 9.966316
v 9.956591 0.000000 9.972819
v 9.956591 1.200000 9.972819
v 9.945110 0.000000 9.975102
v 9.945110 1.200000 9.975102
v 9.933630 0.000000 9.972819
v 9.933630 1.200000 9.972819
v 9.923897 0.000000 9.966316
v 9.923897 1.200000 9.966316
v 9.917394 0.000000 9.956583
v 9.917394 1.200000 9.956583
v 9.915110 0.000000 9.945103
v 9.915110 1.200000 9.945103
v 9.917394 0.000000 9.933622
v 9.917394 1.200000 9.933622
v 9.923897 0.000000 9.923889
v 9.923897 1.200000 9.923889
v 9.933630 0.000000 9.917386
v 9.933630 1.200000 9.917386
v 9.945110 0.000000 9.915103
v 9.945110 1.200000 9.915103
v 9.956591 0.000000 9.917386
v 9.956591 1.200000 9.917386
v 9.966323 0.000000 9.923889
v 9.966323 1.200000 9.923889
v 9.972826 0.000000 9.933622
v 9.972826 1.200000 9.933622
v 9.972824 0.000000 6.633623
v 9.972824 1.200000 6.633623
v 9.975108 0.000000 6.645103
v 9.975108 1.200000 6.645103
v 9.972824 0.000000 6.656583
v 9.972824 1.200000 6.656583
v 9.966321 0.000000 6.666316
v 9.966321 1.200000 6.666316
v 9.956589 0.000000 6.672819
v 9.956589 1.200000 6.672819
v 9.945108 0.000000 6.675103
v 9.945108 1.200000 6.675103
v 9.933628 0.000000 6.672819
v 9.933628 1.200000 6.672819
v 9.923895 0.000000 6.666316
v 9.923895 1.200000 6.666316
v 9.917392 0.000000 6.656583
v 9.917392 1.200000 6.656583
v 9.915108 0.000000 6.645103
v 9.915108 1.200000 6.645103
v 9.917392 0.000000 6.633623
v 9.917392 1.200000 6.633623
v 9.923895 0.000000 6.623890
v 9.923895 1.200000 6.623890
v 9.933628 0.000000 6.617387
v 9.933628 1.200000 6.617387
v 9.945108 0.000000 6.615103
v 9.945108 1.200000 6.615103
v 9.956589 0.000000 6.617387
v 9.956589 1.200000 6.617387
v 9.966321 0.000000 6.623890
v 9.966321 1.200000 6.623890
v 8.703465 0.000000 3.575088
v 8.703465 1.200000 3.575088
v 8.709968 0.000000 3.584821
v 8.709968 1.200000 3.584821
v 8.712252 0.000000 3.596302
v 8.712252 1.200000 3.596302
v 8.709968 0.000000 3.607782
v 8.709968 1.200000 3.607782
v 8.703465 0.000000 3.617515
v 8.703465 1.200000 3.617515
v 8.693731 0.000000 3.624018
v 8.693731 1.200000 3.624018
v 8.682251 0.000000 3.626302
v 8.682251 1.200000 3.626302
v 8.670771 0.000000 3.624018
v 8.670771 1.200000 3.624018
v 8.661038 0.000000 3.617515
v 8.661038 1.200000 3.617515
v 8.654535 0.000000 3.607782
v 8.654535 1.200000 3.607782
v 8.652251 0.000000 3.596302
v 8.652251 1.200000 3.596302
v 8.654535 0.000000 3.584821
v 8.654535 1.200000 3.584821
v 8.661038 0.000000 3.575088
v 8.661038 1.200000 3.575088
v 8.670771 0.000000 3.568585
v 8.670771 1.200000 3.568585
v 8.682251 0.000000 3.566302
v 8.682251 1.200000 3.566302
v 8.693731 0.000000 3.568585
v 8.693731 1.200000 3.568585
v 6.360278 0.000000 1.235134
v 6.360278 1.200000 1.235134
v 6.370011 0.000000 1.241637
v 6.370011 1.200000 1.241637
v 6.376514 0.000000 1.251370
v 6.376514 1.200000 1.251370
v 6.378798 0.000000 1.262851
v 6.378798 1.200000 1.262851
v 6.376514 0.000000 1.274331
v 6.376514 1.200000 1.274331
v 6.370011 0.000000 1.284064
v 6.370011 1.200000 1.284064
v 6.360278 0.000000 1.290567
v 6.360278 1.200000 1.290567
v 6.348798 0.000000 1.292850
v 6.348798 1.200000 1.292850
v 6.337317 0.000000 1.290567
v 6.337317 1.200000 1.290567
v 6.327584 0.000000 1.284064
v 6.327584 1.200000 1.284064
v 6.321081 0.000000 1.274331
v 6.321081 1.200000 1.274331
v 6.318798 0.000000 1.262851
v 6.318798 1.200000 1.262851
v 6.321081 0.000000 1.251370
v 6.321081 1.200000 1.251370
v 6.327584 0.000000 1.241637
v 6.327584 1.200000 1.241637
v 6.337317 0.000000 1.235134
v 6.337317 1.200000 1.235134
v 6.348798 0.000000 1.232851
v 6.348798 1.200000 1.232851
vn 0.1951 -0.0000 -0.9808
vn 0.5556 -0.0000 -0.8315
vn 0.8315 -0.0000 -0.5556
vn 0.9808 -0.0000 -0.1951
vn 0.9808 -0.0000 0.1951
vn 0.8315 -0.0000 0.5556
vn 0.5556 -0.0000 0.8315
vn 0.1951 -0.0000 0.9808
vn -0.1951 -0.0000 0.9808
vn -0.5556 -0.0000 0.8315
vn -0.8315 -0.0000 0.5556
vn -0.9808 -0.0000 0.1951
vn -0.9808 -0.0000 -0.1951
vn -0.8315 -0.0000 -0.5556
vn -0.0000 1.0000 -0.0000
vn -0.5556 -0.0000 -0.8315
vn -0.1951 -0.0000 -0.9808
vn -0.0000 -1.0000 -0.0000
vn 0.5555 -0.0000 -0.8315
vn 0.8315 -0.0000 -0.5555
vn 0.8315 -0.0000 0.5555
vn 0.5555 -0.0000 0.8315
vn -0.9808 -0.0000 -0.1950
vn 0.9808 -0.0000 -0.1950
vn 0.9808 -0.0000 0.1950
vn -0.9808 -0.0000 0.1950
vn -0.8315 -0.0000 -0.5555
vn -0.5555 -0.0000 -0.8315
vn 0.1950 -0.0000 -0.9808
vn 0.1950 -0.0000 0.9808
vn -0.5555 -0.0000 0.8315
vn -0.8315 -0.0000 0.5555
vn -0.1952 -0.0000 0.9808
vn -0.1952 -0.0000 -0.9808
vn 0.1952 -0.0000 -0.9808
vn 0.1952 -0.0000 0.9808
vn -0.1950 -0.0000 0.9808
vn -0.1950 -0.0000 -0.9808
vt 0.026462 0.999158
vt 0.026462 0.000842
vt 0.035459 0.000842
vt 0.035459 0.999158
vt 0.037142 0.999158
vt 0.037142 0.000842
vt 0.044028 0.000842
vt 0.044028 0.999158
vt 0.053025 0.000842
vt 0.053025 0.999158
vt 0.062763 0.000842
vt 0.062763 0.999158
vt 0.071760 0.000842
vt 0.071760 0.999158
vt 0.073443 0.999158
vt 0.073443 0.000842
vt 0.080329 0.000842
vt 0.080329 0.999158
vt 0.089326 0.000842
vt 0.089326 0.999158
vt 0.099064 0.000842
vt 0.099064 0.999158
vt 0.108061 0.000842
vt 0.108061 0.999158
vt 0.109744 0.999158
vt 0.109744 0.000842
vt 0.116629 0.000842
vt 0.116629 0.999158
vt 0.125626 0.000842
vt 0.125626 0.999158
vt 0.135364 0.000842
vt 0.135364 0.999158
vt 0.144361 0.000842
vt 0.144361 0.999158
vt 0.000842 0.999158
vt 0.000842 0.000842
vt 0.007727 0.000842
vt 0.007727 0.999158
vt 0.156657 0.046072
vt 0.149771 0.039186
vt 0.146044 0.030189
vt 0.146044 0.020451
vt 0.149771 0.011454
vt 0.156657 0.004568
vt 0.165654 0.000842
vt 0.175392 0.000842
vt 0.184388 0.004568
vt 0.191274 0.011454
vt 0.195001 0.020451
vt 0.195001 0.030189
vt 0.191274 0.039186
vt 0.184388 0.046072
vt 0.175392 0.049798
vt 0.165654 0.049798
vt 0.016724 0.000842
vt 0.016724 0.999158
vt 0.149771 0.089826
vt 0.146044 0.080829
vt 0.146044 0.071091
vt 0.149771 0.062094
vt 0.156657 0.055208
vt 0.165654 0.051481
vt 0.175392 0.051481
vt 0.184388 0.055208
vt 0.191274 0.062094
vt 0.195001 0.071091
vt 0.195001 0.080829
vt 0.191274 0.089826
vt 0.184388 0.096711
vt 0.175392 0.100438
vt 0.165654 0.100438
vt 0.156657 0.096711
s 0
usemtl painted_weathered_iron
f 1/1/1 2/2/1 4/3/1 3/4/1
f 3/5/2 4/6/2 6/7/2 5/8/2
f 5/8/3 6/7/3 8/9/3 7/10/3
f 7/10/4 8/9/4 10/11/4 9/12/4
f 9/12/5 10/11/5 12/13/5 11/14/5
f 11/15/6 12/16/6 14/17/6 13/18/6
f 13/18/7 14/17/7 16/19/7 15/20/7
f 15/20/8 16/19/8 18/21/8 17/22/8
f 17/22/9 18/21/9 20/23/9 19/24/9
f 19/25/10 20/26/10 22/27/10 21/28/10
f 21/28/11 22/27/11 24/29/11 23/30/11
f 23/30/12 24/29/12 26/31/12 25/32/12
f 25/32/13 26/31/13 28/33/13 27/34/13
f 27/35/14 28/36/14 30/37/14 29/38/14
f 4/39/15 2/40/15 32/41/15 30/42/15 28/43/15 26/44/15 24/45/15 22/46/15 20/47/15 18/48/15 16/49/15 14/50/15 12/51/15 10/52/15 8/53/15 6/54/15
f 29/38/16 30/37/16 32/55/16 31/56/16
f 31/56/17 32/55/17 2/2/17 1/1/17
f 1/57/18 3/58/18 5/59/18 7/60/18 9/61/18 11/62/18 13/63/18 15/64/18 17/65/18 19/66/18 21/67/18 23/68/18 25/69/18 27/70/18 29/71/18 31/72/18
f 33/1/17 34/2/17 36/3/17 35/4/17
f 35/5/1 36/6/1 38/7/1 37/8/1
f 37/8/2 38/7/2 40/9/2 39/10/2
f 39/10/3 40/9/3 42/11/3 41/12/3
f 41/12/4 42/11/4 44/13/4 43/14/4
f 43/15/5 44/16/5 46/17/5 45/18/5
f 45/18/6 46/17/6 48/19/6 47/20/6
f 47/20/7 48/19/7 50/21/7 49/22/7
f 49/22/8 50/21/8 52/23/8 51/24/8
f 51/25/9 52/26/9 54/27/9 53/28/9
f 53/28/10 54/27/10 56/29/10 55/30/10
f 55/30/11 56/29/11 58/31/11 57/32/11
f 57/32/12 58/31/12 60/33/12 59/34/12
f 59/35/13 60/36/13 62/37/13 61/38/13
f 36/39/15 34/40/15 64/41/15 62/42/15 60/43/15 58/44/15 56/45/15 54/46/15 52/47/15 50/48/15 48/49/15 46/50/15 44/51/15 42/52/15 40/53/15 38/54/15
f 61/38/14 62/37/14 64/55/14 63/56/14
f 63/56/16 64/55/16 34/2/16 33/1/16
f 33/57/18 35/58/18 37/59/18 39/60/18 41/61/18 43/62/18 45/63/18 47/64/18 49/65/18 51/66/18 53/67/18 55/68/18 57/69/18 59/70/18 61/71/18 63/72/18
f 65/1/16 66/2/16 68/3/16 67/4/16
f 67/5/17 68/6/17 70/7/17 69/8/17
f 69/8/1 70/7/1 72/9/1 71/10/1
f 71/10/2 72/9/2 74/11/2 73/12/2
f 73/12/3 74/11/3 76/13/3 75/14/3
f 75/15/4 76/16/4 78/17/4 77/18/4
f 77/18/5 78/17/5 80/19/5 79/20/5
f 79/20/6 80/19/6 82/21/6 81/22/6
f 81/22/7 82/21/7 84/23/7 83/24/7
f 83/25/8 84/26/8 86/27/8 85/28/8
f 85/28/9 86/27/9 88/29/9 87/30/9
f 87/30/10 88/29/10 90/31/10 89/32/10
f 89/32/11 90/31/11 92/33/11 91/34/11
f 91/35/12 92/36/12 94/37/12 93/38/12
f 68/39/15 66/40/15 96/41/15 94/42/15 92/43/15 90/44/15 88/45/15 86/46/15 84/47/15 82/48/15 80/49/15 78/50/15 76/51/15 74/52/15 72/53/15 70/54/15
f 93/38/13 94/37/13 96/55/13 95/56/13
f 95/56/14 96/55/14 66/2/14 65/1/14
f 65/57/18 67/58/18 69/59/18 71/60/18 73/61/18 75/62/18 77/63/18 79/64/18 81/65/18 83/66/18 85/67/18 87/68/18 89/69/18 91/70/18 93/71/18 95/72/18
f 97/1/14 98/2/14 100/3/14 99/4/14
f 99/5/16 100/6/16 102/7/16 101/8/16
f 101/8/17 102/7/17 104/9/17 103/10/17
f 103/10/1 104/9/1 106/11/1 105/12/1
f 105/12/19 106/11/19 108/13/19 107/14/19
f 107/15/20 108/16/20 110/17/20 109/18/20
f 109/18/4 110/17/4 112/19/4 111/20/4
f 111/20/5 112/19/5 114/21/5 113/22/5
f 113/22/21 114/21/21 116/23/21 115/24/21
f 115/25/22 116/26/22 118/27/22 117/28/22
f 117/28/8 118/27/8 120/29/8 119/30/8
f 119/30/9 120/29/9 122/31/9 121/32/9
f 121/32/10 122/31/10 124/33/10 123/34/10
f 123/35/11 124/36/11 126/37/11 125/38/11
f 100/39/15 98/40/15 128/41/15 126/42/15 124/43/15 122/44/15 120/45/15 118/46/15 116/47/15 114/48/15 112/49/15 110/50/15 108/51/15 106/52/15 104/53/15 102/54/15
f 125/38/12 126/37/12 128/55/12 127/56/12
f 127/56/13 128/55/13 98/2/13 97/1/13
f 97/57/18 99/58/18 101/59/18 103/60/18 105/61/18 107/62/18 109/63/18 111/64/18 113/65/18 115/66/18 117/67/18 119/68/18 121/69/18 123/70/18 125/71/18 127/72/18
f 129/1/23 130/2/23 132/3/23 131/4/23
f 131/5/14 132/6/14 134/7/14 133/8/14
f 133/8/16 134/7/16 136/9/16 135/10/16
f 135/10/17 136/9/17 138/11/17 137/12/17
f 137/12/1 138/11/1 140/13/1 139/14/1
f 139/15/2 140/16/2 142/17/2 141/18/2
f 141/18/3 142/17/3 144/19/3 143/20/3
f 143/20/24 144/19/24 146/21/24 145/22/24
f 145/22/25 146/21/25 148/23/25 147/24/25
f 147/25/6 148/26/6 150/27/6 149/28/6
f 149/28/7 150/27/7 152/29/7 151/30/7
f 151/30/8 152/29/8 154/31/8 153/32/8
f 153/32/9 154/31/9 156/33/9 155/34/9
f 155/35/10 156/36/10 158/37/10 157/38/10
f 132/39/15 130/40/15 160/41/15 158/42/15 156/43/15 154/44/15 152/45/15 150/46/15 148/47/15 146/48/15 144/49/15 142/50/15 140/51/15 138/52/15 136/53/15 134/54/15
f 157/38/11 158/37/11 160/55/11 159/56/11
f 159/56/26 160/55/26 130/2/26 129/1/26
f 129/57/18 131/58/18 133/59/18 135/60/18 137/61/18 139/62/18 141/63/18 143/64/18 145/65/18 147/66/18 149/67/18 151/68/18 153/69/18 155/70/18 157/71/18 159/72/18
f 161/1/12 162/2/12 164/3/12 163/4/12
f 163/5/13 164/6/13 166/7/13 165/8/13
f 165/8/27 166/7/27 168/9/27 167/10/27
f 167/10/28 168/9/28 170/11/28 169/12/28
f 169/12/17 170/11/17 172/13/17 171/14/17
f 171/15/29 172/16/29 174/17/29 173/18/29
f 173/18/2 174/17/2 176/19/2 175/20/2
f 175/20/3 176/19/3 178/21/3 177/22/3
f 177/22/4 178/21/4 180/23/4 179/24/4
f 179/25/5 180/26/5 182/27/5 181/28/5
f 181/28/6 182/27/6 184/29/6 183/30/6
f 183/30/7 184/29/7 186/31/7 185/32/7
f 185/32/30 186/31/30 188/33/30 187/34/30
f 187/35/9 188/36/9 190/37/9 189/38/9
f 164/39/15 162/40/15 192/41/15 190/42/15 188/43/15 186/44/15 184/45/15 182/46/15 180/47/15 178/48/15 176/49/15 174/50/15 172/51/15 170/52/15 168/53/15 166/54/15
f 189/38/31 190/37/31 192/55/31 191/56/31
f 191/56/32 192/55/32 162/2/32 161/1/32
f 161/57/18 163/58/18 165/59/18 167/60/18 169/61/18 171/62/18 173/63/18 175/64/18 177/65/18 179/66/18 181/67/18 183/68/18 185/69/18 187/70/18 189/71/18 191/72/18
f 193/1/32 194/2/32 196/3/32 195/4/32
f 195/5/12 196/6/12 198/7/12 197/8/12
f 197/8/13 198/7/13 200/9/13 199/10/13
f 199/10/27 200/9/27 202/11/27 201/12/27
f 201/12/28 202/11/28 204/13/28 203/14/28
f 203/15/17 204/16/17 206/17/17 205/18/17
f 205/18/29 206/17/29 208/19/29 207/20/29
f 207/20/2 208/19/2 210/21/2 209/22/2
f 209/22/3 210/21/3 212/23/3 211/24/3
f 211/25/4 212/26/4 214/27/4 213/28/4
f 213/28/5 214/27/5 216/29/5 215/30/5
f 215/30/6 216/29/6 218/31/6 217/32/6
f 217/32/7 218/31/7 220/33/7 219/34/7
f 219/35/30 220/36/30 222/37/30 221/38/30
f 196/39/15 194/40/15 224/41/15 222/42/15 220/43/15 218/44/15 216/45/15 214/46/15 212/47/15 210/48/15 208/49/15 206/50/15 204/51/15 202/52/15 200/53/15 198/54/15
f 221/38/9 222/37/9 224/55/9 223/56/9
f 223/56/31 224/55/31 194/2/31 193/1/31
f 193/57/18 195/58/18 197/59/18 199/60/18 201/61/18 203/62/18 205/63/18 207/64/18 209/65/18 211/66/18 213/67/18 215/68/18 217/69/18 219/70/18 221/71/18 223/72/18
f 225/1/10 226/2/10 228/3/10 227/4/10
f 227/5/32 228/6/32 230/7/32 229/8/32
f 229/8/12 230/7/12 232/9/12 231/10/12
f 231/10/13 232/9/13 234/11/13 233/12/13
f 233/12/27 234/11/27 236/13/27 235/14/27
f 235/15/16 236/16/16 238/17/16 237/18/16
f 237/18/17 238/17/17 240/19/17 239/20/17
f 239/20/1 240/19/1 242/21/1 241/22/1
f 241/22/2 242/21/2 244/23/2 243/24/2
f 243/25/3 244/26/3 246/27/3 245/28/3
f 245/28/4 246/27/4 248/29/4 247/30/4
f 247/30/5 248/29/5 250/31/5 249/32/5
f 249/32/6 250/31/6 252/33/6 251/34/6
f 251/35/7 252/36/7 254/37/7 253/38/7
f 228/39/15 226/40/15 256/41/15 254/42/15 252/43/15 250/44/15 248/45/15 246/46/15 244/47/15 242/48/15 240/49/15 238/50/15 236/51/15 234/52/15 232/53/15 230/54/15
f 253/38/8 254/37/8 256/55/8 255/56/8
f 255/56/9 256/55/9 226/2/9 225/1/9
f 225/57/18 227/58/18 229/59/18 231/60/18 233/61/18 235/62/18 237/63/18 239/64/18 241/65/18 243/66/18 245/67/18 247/68/18 249/69/18 251/70/18 253/71/18 255/72/18
f 257/1/33 258/2/33 260/3/33 259/4/33
f 259/5/31 260/6/31 262/7/31 261/8/31
f 261/8/32 262/7/32 264/9/32 263/10/32
f 263/10/12 264/9/12 266/11/12 265/12/12
f 265/12/13 266/11/13 268/13/13 267/14/13
f 267/15/27 268/16/27 270/17/27 269/18/27
f 269/18/28 270/17/28 272/19/28 271/20/28
f 271/20/34 272/19/34 274/21/34 273/22/34
f 273/22/35 274/21/35 276/23/35 275/24/35
f 275/25/19 276/26/19 278/27/19 277/28/19
f 277/28/20 278/27/20 280/29/20 279/30/20
f 279/30/4 280/29/4 282/31/4 281/32/4
f 281/32/5 282/31/5 284/33/5 283/34/5
f 283/35/21 284/36/21 286/37/21 285/38/21
f 260/39/15 258/40/15 288/41/15 286/42/15 284/43/15 282/44/15 280/45/15 278/46/15 276/47/15 274/48/15 272/49/15 270/50/15 268/51/15 266/52/15 264/53/15 262/54/15
f 285/38/22 286/37/22 288/55/22 287/56/22
f 287/56/36 288/55/36 258/2/36 257/1/36
f 257/57/18 259/58/18 261/59/18 263/60/18 265/61/18 267/62/18 269/63/18 271/64/18 273/65/18 275/66/18 277/67/18 279/68/18 281/69/18 283/70/18 285/71/18 287/72/18
f 289/1/36 290/2/36 292/3/36 291/4/36
f 291/5/33 292/6/33 294/7/33 293/8/33
f 293/8/31 294/7/31 296/9/31 295/10/31
f 295/10/11 296/9/11 298/11/11 297/12/11
f 297/12/12 298/11/12 300/13/12 299/14/12
f 299/15/13 300/16/13 302/17/13 301/18/13
f 301/18/14 302/17/14 304/19/14 303/20/14
f 303/20/28 304/19/28 306/21/28 305/22/28
f 305/22/34 306/21/34 308/23/34 307/24/34
f 307/25/35 308/26/35 310/27/35 309/28/35
f 309/28/19 310/27/19 312/29/19 311/30/19
f 311/30/3 312/29/3 314/31/3 313/32/3
f 313/32/4 314/31/4 316/33/4 315/34/4
f 315/35/5 316/36/5 318/37/5 317/38/5
f 292/39/15 290/40/15 320/41/15 318/42/15 316/43/15 314/44/15 312/45/15 310/46/15 308/47/15 306/48/15 304/49/15 302/50/15 300/51/15 298/52/15 296/53/15 294/54/15
f 317/38/6 318/37/6 320/55/6 319/56/6
f 319/56/22 320/55/22 290/2/22 289/1/22
f 289/57/18 291/58/18 293/59/18 295/60/18 297/61/18 299/62/18 301/63/18 303/64/18 305/65/18 307/66/18 309/67/18 311/68/18 313/69/18 315/70/18 317/71/18 319/72/18
f 321/1/7 322/2/7 324/3/7 323/4/7
f 323/5/30 324/6/30 326/7/30 325/8/30
f 325/8/37 326/7/37 328/9/37 327/10/37
f 327/10/10 328/9/10 330/11/10 329/12/10
f 329/12/32 330/11/32 332/13/32 331/14/32
f 331/15/12 332/16/12 334/17/12 333/18/12
f 333/18/13 334/17/13 336/19/13 335/20/13
f 335/20/27 336/19/27 338/21/27 337/22/27
f 337/22/16 338/21/16 340/23/16 339/24/16
f 339/25/38 340/26/38 342/27/38 341/28/38
f 341/28/29 342/27/29 344/29/29 343/30/29
f 343/30/2 344/29/2 346/31/2 345/32/2
f 345/32/3 346/31/3 348/33/3 347/34/3
f 347/35/4 348/36/4 350/37/4 349/38/4
f 324/39/15 322/40/15 352/41/15 350/42/15 348/43/15 346/44/15 344/45/15 342/46/15 340/47/15 338/48/15 336/49/15 334/50/15 332/51/15 330/52/15 328/53/15 326/54/15
f 349/38/5 350/37/5 352/55/5 351/56/5
f 351/56/6 352/55/6 322/2/6 321/1/6
f 321/57/18 323/58/18 325/59/18 327/60/18 329/61/18 331/62/18 333/63/18 335/64/18 337/65/18 339/66/18 341/67/18 343/68/18 345/69/18 347/70/18 349/71/18 351/72/18
f 353/1/21 354/2/21 356/3/21 355/4/21
f 355/5/7 356/6/7 358/7/7 357/8/7
f 357/8/30 358/7/30 360/9/30 359/10/30
f 359/10/9 360/9/9 362/11/9 361/12/9
f 361/12/10 362/11/10 364/13/10 363/14/10
f 363/15/11 364/16/11 366/17/11 365/18/11
f 365/18/12 366/17/12 368/19/12 367/20/12
f 367/20/13 368/19/13 370/21/13 369/22/13
f 369/22/14 370/21/14 372/23/14 371/24/14
f 371/25/16 372/26/16 374/27/16 373/28/16
f 373/28/17 374/27/17 376/29/17 375/30/17
f 375/30/29 376/29/29 378/31/29 377/32/29
f 377/32/2 378/31/2 380/33/2 379/34/2
f 379/35/20 380/36/20 382/37/20 381/38/20
f 356/39/15 354/40/15 384/41/15 382/42/15 380/43/15 378/44/15 376/45/15 374/46/15 372/47/15 370/48/15 368/49/15 366/50/15 364/51/15 362/52/15 360/53/15 358/54/15
f 381/38/4 382/37/4 384/55/4 383/56/4
f 383/56/5 384/55/5 354/2/5 353/1/5
f 353/57/18 355/58/18 357/59/18 359/60/18 361/61/18 363/62/18 365/63/18 367/64/18 369/65/18 371/66/18 373/67/18 375/68/18 377/69/18 379/70/18 381/71/18 383/72/18
f 385/1/5 386/2/5 388/3/5 387/4/5
f 387/5/6 388/6/6 390/7/6 389/8/6
f 389/8/7 390/7/7 392/9/7 391/10/7
f 391/10/8 392/9/8 394/11/8 393/12/8
f 393/12/9 394/11/9 396/13/9 395/14/9
f 395/15/10 396/16/10 398/17/10 397/18/10
f 397/18/32 398/17/32 400/19/32 399/20/32
f 399/20/12 400/19/12 402/21/12 401/22/12
f 401/22/13 402/21/13 404/23/13 403/24/13
f 403/25/27 404/26/27 406/27/27 405/28/27
f 405/28/16 406/27/16 408/29/16 407/30/16
f 407/30/17 408/29/17 410/31/17 409/32/17
f 409/32/1 410/31/1 412/33/1 411/34/1
f 411/35/2 412/36/2 414/37/2 413/38/2
f 388/39/15 386/40/15 416/41/15 414/42/15 412/43/15 410/44/15 408/45/15 406/46/15 404/47/15 402/48/15 400/49/15 398/50/15 396/51/15 394/52/15 392/53/15 390/54/15
f 413/38/3 414/37/3 416/55/3 415/56/3
f 415/56/4 416/55/4 386/2/4 385/1/4
f 385/57/18 387/58/18 389/59/18 391/60/18 393/61/18 395/62/18 397/63/18 399/64/18 401/65/18 403/66/18 405/67/18 407/68/18 409/69/18 411/70/18 413/71/18 415/72/18
f 417/1/4 418/2/4 420/3/4 419/4/4
f 419/5/5 420/6/5 422/7/5 421/8/5
f 421/8/6 422/7/6 424/9/6 423/10/6
f 423/10/7 424/9/7 426/11/7 425/12/7
f 425/12/8 426/11/8 428/13/8 427/14/8
f 427/15/9 428/16/9 430/17/9 429/18/9
f 429/18/10 430/17/10 432/19/10 431/20/10
f 431/20/11 432/19/11 434/21/11 433/22/11
f 433/22/12 434/21/12 436/23/12 435/24/12
f 435/25/13 436/26/13 438/27/13 437/28/13
f 437/28/14 438/27/14 440/29/14 439/30/14
f 439/30/16 440/29/16 442/31/16 441/32/16
f 441/32/17 442/31/17 444/33/17 443/34/17
f 443/35/1 444/36/1 446/37/1 445/38/1
f 420/39/15 418/40/15 448/41/15 446/42/15 444/43/15 442/44/15 440/45/15 438/46/15 436/47/15 434/48/15 432/49/15 430/50/15 428/51/15 426/52/15 424/53/15 422/54/15
f 445/38/2 446/37/2 448/55/2 447/56/2
f 447/56/3 448/55/3 418/2/3 417/1/3
f 417/57/18 419/58/18 421/59/18 423/60/18 425/61/18 427/62/18 429/63/18 431/64/18 433/65/18 435/66/18 437/67/18 439/68/18 441/69/18 443/70/18 445/71/18 447/72/18
f 449/1/3 450/2/3 452/3/3 451/4/3
f 451/5/4 452/6/4 454/7/4 453/8/4
f 453/8/5 454/7/5 456/9/5 455/10/5
f 455/10/6 456/9/6 458/11/6 457/12/6
f 457/12/7 458/11/7 460/13/7 459/14/7
f 459/15/8 460/16/8 462/17/8 461/18/8
f 461/18/9 462/17/9 464/19/9 463/20/9
f 463/20/10 464/19/10 466/21/10 465/22/10
f 465/22/11 466/21/11 468/23/11 467/24/11
f 467/25/12 468/26/12 470/27/12 469/28/12
f 469/28/13 470/27/13 472/29/13 471/30/13
f 471/30/14 472/29/14 474/31/14 473/32/14
f 473/32/16 474/31/16 476/33/16 475/34/16
f 475/35/17 476/36/17 478/37/17 477/38/17
f 452/39/15 450/40/15 480/41/15 478/42/15 476/43/15 474/44/15 472/45/15 470/46/15 468/47/15 466/48/15 464/49/15 462/50/15 460/51/15 458/52/15 456/53/15 454/54/15
f 477/38/1 478/37/1 480/55/1 479/56/1
f 479/56/2 480/55/2 450/2/2 449/1/2
f 449/57/18 451/58/18 453/59/18 455/60/18 457/61/18 459/62/18 461/63/18 463/64/18 465/65/18 467/66/18 469/67/18 471/68/18 473/69/18 475/70/18 477/71/18 479/72/18
f 481/1/2 482/2/2 484/3/2 483/4/2
f 483/5/3 484/6/3 486/7/3 485/8/3
f 485/8/4 486/7/4 488/9/4 487/10/4
f 487/10/5 488/9/5 490/11/5 489/12/5
f 489/12/6 490/11/6 492/13/6 491/14/6
f 491/15/7 492/16/7 494/17/7 493/18/7
f 493/18/8 494/17/8 496/19/8 495/20/8
f 495/20/9 496/19/9 498/21/9 497/22/9
f 497/22/10 498/21/10 500/23/10 499/24/10
f 499/25/11 500/26/11 502/27/11 501/28/11
f 501/28/12 502/27/12 504/29/12 503/30/12
f 503/30/13 504/29/13 506/31/13 505/32/13
f 505/32/14 506/31/14 508/33/14 507/34/14
f 507/35/16 508/36/16 510/37/16 509/38/16
f 484/39/15 482/40/15 512/41/15 510/42/15 508/43/15 506/44/15 504/45/15 502/46/15 500/47/15 498/48/15 496/49/15 494/50/15 492/51/15 490/52/15 488/53/15 486/54/15
f 509/38/17 510/37/17 512/55/17 511/56/17
f 511/56/1 512/55/1 482/2/1 481/1/1
f 481/57/18 483/58/18 485/59/18 487/60/18 489/61/18 491/62/18 493/63/18 495/64/18 497/65/18 499/66/18 501/67/18 503/68/18 505/69/18 507/70/18 509/71/18 511/72/18
