# Blender 5.0.1
# www.blender.org
mtllib BB_Reusable_Mechanism_Bracket.mtl
o Mechanism_Bracket
v 0.560000 2.000000 0.015000
v 0.560000 2.010000 0.025000
v 0.550000 2.010000 0.015000
v 0.560000 2.001336 0.019993
v 0.555007 2.001336 0.015000
v 0.555218 2.002634 0.019782
v 0.555007 2.010000 0.023664
v 0.560000 2.005007 0.023664
v 0.555218 2.005218 0.022366
v 0.551336 2.005007 0.015000
v 0.551336 2.010000 0.019993
v 0.552634 2.005218 0.019782
v 0.560000 2.190000 0.025000
v 0.560000 2.200000 0.015000
v 0.550000 2.190000 0.015000
v 0.560000 2.194993 0.023664
v 0.555007 2.190000 0.023664
v 0.555218 2.194782 0.022366
v 0.555007 2.198664 0.015000
v 0.560000 2.198664 0.019993
v 0.555218 2.197366 0.019782
v 0.551336 2.190000 0.019993
v 0.551336 2.194993 0.015000
v 0.552634 2.194782 0.019782
v 0.560000 2.000000 -0.015000
v 0.550000 2.010000 -0.015000
v 0.560000 2.010000 -0.025000
v 0.555007 2.001336 -0.015000
v 0.560000 2.001336 -0.019993
v 0.555218 2.002634 -0.019782
v 0.551336 2.010000 -0.019993
v 0.551336 2.005007 -0.015000
v 0.552634 2.005218 -0.019782
v 0.560000 2.005007 -0.023664
v 0.555007 2.010000 -0.023664
v 0.555218 2.005218 -0.022366
v 0.560000 2.200000 -0.015000
v 0.560000 2.190000 -0.025000
v 0.550000 2.190000 -0.015000
v 0.560000 2.198664 -0.019993
v 0.555007 2.198664 -0.015000
v 0.555218 2.197366 -0.019782
v 0.555007 2.190000 -0.023664
v 0.560000 2.194993 -0.023664
v 0.555218 2.194782 -0.022366
v 0.551336 2.194993 -0.015000
v 0.551336 2.190000 -0.019993
v 0.552634 2.194782 -0.019782
v 0.640000 2.000000 0.015000
v 0.650000 2.010000 0.015000
v 0.640000 2.010000 0.025000
v 0.644993 2.001336 0.015000
v 0.640000 2.001336 0.019993
v 0.644782 2.002634 0.019782
v 0.648664 2.010000 0.019993
v 0.648664 2.005007 0.015000
v 0.647366 2.005218 0.019782
v 0.640000 2.005007 0.023664
v 0.644993 2.010000 0.023664
v 0.644782 2.005218 0.022366
v 0.640000 2.200000 0.015000
v 0.640000 2.190000 0.025000
v 0.650000 2.190000 0.015000
v 0.640000 2.198664 0.019993
v 0.644993 2.198664 0.015000
v 0.644782 2.197366 0.019782
v 0.644993 2.190000 0.023664
v 0.640000 2.194993 0.023664
v 0.644782 2.194782 0.022366
v 0.648664 2.194993 0.015000
v 0.648664 2.190000 0.019993
v 0.647366 2.194782 0.019782
v 0.640000 2.000000 -0.015000
v 0.640000 2.010000 -0.025000
v 0.650000 2.010000 -0.015000
v 0.640000 2.001336 -0.019993
v 0.644993 2.001336 -0.015000
v 0.644782 2.002634 -0.019782
v 0.644993 2.010000 -0.023664
v 0.640000 2.005007 -0.023664
v 0.644782 2.005218 -0.022366
v 0.648664 2.005007 -0.015000
v 0.648664 2.010000 -0.019993
v 0.647366 2.005218 -0.019782
v 0.640000 2.200000 -0.015000
v 0.650000 2.190000 -0.015000
v 0.640000 2.190000 -0.025000
v 0.644993 2.198664 -0.015000
v 0.640000 2.198664 -0.019993
v 0.644782 2.197366 -0.019782
v 0.648664 2.190000 -0.019993
v 0.648664 2.194993 -0.015000
v 0.647366 2.194782 -0.019782
v 0.640000 2.194993 -0.023664
v 0.644993 2.190000 -0.023664
v 0.644782 2.194782 -0.022366
v 0.015000 2.000000 0.040000
v 0.025000 2.010000 0.040000
v 0.015000 2.010000 0.050000
v 0.019993 2.001336 0.040000
v 0.015000 2.001336 0.044993
v 0.019782 2.002634 0.044782
v 0.023664 2.010000 0.044993
v 0.023664 2.005007 0.040000
v 0.022366 2.005218 0.044782
v 0.015000 2.005007 0.048664
v 0.019993 2.010000 0.048664
v 0.019782 2.005218 0.047366
v 0.025000 2.190000 0.040000
v 0.015000 2.200000 0.040000
v 0.015000 2.190000 0.050000
v 0.023664 2.194993 0.040000
v 0.023664 2.190000 0.044993
v 0.022366 2.194782 0.044782
v 0.015000 2.198664 0.044993
v 0.019993 2.198664 0.040000
v 0.019782 2.197366 0.044782
v 0.019993 2.190000 0.048664
v 0.015000 2.194993 0.048664
v 0.019782 2.194782 0.047366
v -0.015000 2.000000 0.040000
v -0.015000 2.010000 0.050000
v -0.025000 2.010000 0.040000
v -0.015000 2.001336 0.044993
v -0.019993 2.001336 0.040000
v -0.019782 2.002634 0.044782
v -0.019993 2.010000 0.048664
v -0.015000 2.005007 0.048664
v -0.019782 2.005218 0.047366
v -0.023664 2.005007 0.040000
v -0.023664 2.010000 0.044993
v -0.022366 2.005218 0.044782
v -0.015000 2.200000 0.040000
v -0.025000 2.190000 0.040000
v -0.015000 2.190000 0.050000
v -0.019993 2.198664 0.040000
v -0.015000 2.198664 0.044993
v -0.019782 2.197366 0.044782
v -0.023664 2.190000 0.044993
v -0.023664 2.194993 0.040000
v -0.022366 2.194782 0.044782
v -0.015000 2.194993 0.048664
v -0.019993 2.190000 0.048664
v -0.019782 2.194782 0.047366
v 0.015000 2.000000 -0.040000
v 0.015000 2.010000 -0.050000
v 0.025000 2.010000 -0.040000
v 0.015000 2.001336 -0.044993
v 0.019993 2.001336 -0.040000
v 0.019782 2.002634 -0.044782
v 0.019993 2.010000 -0.048664
v 0.015000 2.005007 -0.048664
v 0.019782 2.005218 -0.047366
v 0.023664 2.005007 -0.040000
v 0.023664 2.010000 -0.044993
v 0.022366 2.005218 -0.044782
v 0.015000 2.200000 -0.040000
v 0.025000 2.190000 -0.040000
v 0.015000 2.190000 -0.050000
v 0.019993 2.198664 -0.040000
v 0.015000 2.198664 -0.044993
v 0.019782 2.197366 -0.044782
v 0.023664 2.190000 -0.044993
v 0.023664 2.194993 -0.040000
v 0.022366 2.194782 -0.044782
v 0.015000 2.194993 -0.048664
v 0.019993 2.190000 -0.048664
v 0.019782 2.194782 -0.047366
v -0.015000 2.000000 -0.040000
v -0.025000 2.010000 -0.040000
v -0.015000 2.010000 -0.050000
v -0.019993 2.001336 -0.040000
v -0.015000 2.001336 -0.044993
v -0.019782 2.002634 -0.044782
v -0.023664 2.010000 -0.044993
v -0.023664 2.005007 -0.040000
v -0.022366 2.005218 -0.044782
v -0.015000 2.005007 -0.048664
v -0.019993 2.010000 -0.048664
v -0.019782 2.005218 -0.047366
v -0.015000 2.200000 -0.040000
v -0.015000 2.190000 -0.050000
v -0.025000 2.190000 -0.040000
v -0.015000 2.198664 -0.044993
v -0.019993 2.198664 -0.040000
v -0.019782 2.197366 -0.044782
v -0.019993 2.190000 -0.048664
v -0.015000 2.194993 -0.048664
v -0.019782 2.194782 -0.047366
v -0.023664 2.194993 -0.040000
v -0.023664 2.190000 -0.044993
v -0.022366 2.194782 -0.044782
v 0.040000 2.000000 0.585000
v 0.040000 2.010000 0.575000
v 0.050000 2.010000 0.585000
v 0.040000 2.001336 0.580007
v 0.044993 2.001336 0.585000
v 0.044782 2.002634 0.580218
v 0.044993 2.010000 0.576336
v 0.040000 2.005007 0.576336
v 0.044782 2.005218 0.577634
v 0.048664 2.005007 0.585000
v 0.048664 2.010000 0.580007
v 0.047366 2.005218 0.580218
v 0.040000 2.190000 0.575000
v 0.040000 2.200000 0.585000
v 0.050000 2.190000 0.585000
v 0.040000 2.194993 0.576336
v 0.044993 2.190000 0.576336
v 0.044782 2.194782 0.577634
v 0.044993 2.198664 0.585000
v 0.040000 2.198664 0.580007
v 0.044782 2.197366 0.580218
v 0.048664 2.190000 0.580007
v 0.048664 2.194993 0.585000
v 0.047366 2.194782 0.580218
v 0.040000 2.000000 0.615000
v 0.050000 2.010000 0.615000
v 0.040000 2.010000 0.625000
v 0.044993 2.001336 0.615000
v 0.040000 2.001336 0.619993
v 0.044782 2.002634 0.619782
v 0.048664 2.010000 0.619993
v 0.048664 2.005007 0.615000
v 0.047366 2.005218 0.619782
v 0.040000 2.005007 0.623664
v 0.044993 2.010000 0.623664
v 0.044782 2.005218 0.622366
v 0.040000 2.200000 0.615000
v 0.040000 2.190000 0.625000
v 0.050000 2.190000 0.615000
v 0.040000 2.198664 0.619993
v 0.044993 2.198664 0.615000
v 0.044782 2.197366 0.619782
v 0.044993 2.190000 0.623664
v 0.040000 2.194993 0.623664
v 0.044782 2.194782 0.622366
v 0.048664 2.194993 0.615000
v 0.048664 2.190000 0.619993
v 0.047366 2.194782 0.619782
v -0.040000 2.000000 0.585000
v -0.050000 2.010000 0.585000
v -0.040000 2.010000 0.575000
v -0.044993 2.001336 0.585000
v -0.040000 2.001336 0.580007
v -0.044782 2.002634 0.580218
v -0.048664 2.010000 0.580007
v -0.048664 2.005007 0.585000
v -0.047366 2.005218 0.580218
v -0.040000 2.005007 0.576336
v -0.044993 2.010000 0.576336
v -0.044782 2.005218 0.577634
v -0.040000 2.200000 0.585000
v -0.040000 2.190000 0.575000
v -0.050000 2.190000 0.585000
v -0.040000 2.198664 0.580007
v -0.044993 2.198664 0.585000
v -0.044782 2.197366 0.580218
v -0.044993 2.190000 0.576336
v -0.040000 2.194993 0.576336
v -0.044782 2.194782 0.577634
v -0.048664 2.194993 0.585000
v -0.048664 2.190000 0.580007
v -0.047366 2.194782 0.580218
v -0.040000 2.000000 0.615000
v -0.040000 2.010000 0.625000
v -0.050000 2.010000 0.615000
v -0.040000 2.001336 0.619993
v -0.044993 2.001336 0.615000
v -0.044782 2.002634 0.619782
v -0.044993 2.010000 0.623664
v -0.040000 2.005007 0.623664
v -0.044782 2.005218 0.622366
v -0.048664 2.005007 0.615000
v -0.048664 2.010000 0.619993
v -0.047366 2.005218 0.619782
v -0.040000 2.200000 0.615000
v -0.050000 2.190000 0.615000
v -0.040000 2.190000 0.625000
v -0.044993 2.198664 0.615000
v -0.040000 2.198664 0.619993
v -0.044782 2.197366 0.619782
v -0.048664 2.190000 0.619993
v -0.048664 2.194993 0.615000
v -0.047366 2.194782 0.619782
v -0.040000 2.194993 0.623664
v -0.044993 2.190000 0.623664
v -0.044782 2.194782 0.622366
v 0.585000 2.000000 0.560000
v 0.575000 2.010000 0.560000
v 0.585000 2.010000 0.550000
v 0.580007 2.001336 0.560000
v 0.585000 2.001336 0.555007
v 0.580218 2.002634 0.555218
v 0.576336 2.010000 0.555007
v 0.576336 2.005007 0.560000
v 0.577634 2.005218 0.555218
v 0.585000 2.005007 0.551336
v 0.580007 2.010000 0.551336
v 0.580218 2.005218 0.552634
v 0.575000 2.190000 0.560000
v 0.585000 2.200000 0.560000
v 0.585000 2.190000 0.550000
v 0.576336 2.194993 0.560000
v 0.576336 2.190000 0.555007
v 0.577634 2.194782 0.555218
v 0.585000 2.198664 0.555007
v 0.580007 2.198664 0.560000
v 0.580218 2.197366 0.555218
v 0.580007 2.190000 0.551336
v 0.585000 2.194993 0.551336
v 0.580218 2.194782 0.552634
v 0.615000 2.000000 0.560000
v 0.615000 2.010000 0.550000
v 0.625000 2.010000 0.560000
v 0.615000 2.001336 0.555007
v 0.619993 2.001336 0.560000
v 0.619782 2.002634 0.555218
v 0.619993 2.010000 0.551336
v 0.615000 2.005007 0.551336
v 0.619782 2.005218 0.552634
v 0.623664 2.005007 0.560000
v 0.623664 2.010000 0.555007
v 0.622366 2.005218 0.555218
v 0.615000 2.200000 0.560000
v 0.625000 2.190000 0.560000
v 0.615000 2.190000 0.550000
v 0.619993 2.198664 0.560000
v 0.615000 2.198664 0.555007
v 0.619782 2.197366 0.555218
v 0.623664 2.190000 0.555007
v 0.623664 2.194993 0.560000
v 0.622366 2.194782 0.555218
v 0.615000 2.194993 0.551336
v 0.619993 2.190000 0.551336
v 0.619782 2.194782 0.552634
v 0.585000 2.000000 0.640000
v 0.585000 2.010000 0.650000
v 0.575000 2.010000 0.640000
v 0.585000 2.001336 0.644993
v 0.580007 2.001336 0.640000
v 0.580218 2.002634 0.644782
v 0.580007 2.010000 0.648664
v 0.585000 2.005007 0.648664
v 0.580218 2.005218 0.647366
v 0.576336 2.005007 0.640000
v 0.576336 2.010000 0.644993
v 0.577634 2.005218 0.644782
v 0.585000 2.200000 0.640000
v 0.575000 2.190000 0.640000
v 0.585000 2.190000 0.650000
v 0.580007 2.198664 0.640000
v 0.585000 2.198664 0.644993
v 0.580218 2.197366 0.644782
v 0.576336 2.190000 0.644993
v 0.576336 2.194993 0.640000
v 0.577634 2.194782 0.644782
v 0.585000 2.194993 0.648664
v 0.580007 2.190000 0.648664
v 0.580218 2.194782 0.647366
v 0.615000 2.000000 0.640000
v 0.625000 2.010000 0.640000
v 0.615000 2.010000 0.650000
v 0.619993 2.001336 0.640000
v 0.615000 2.001336 0.644993
v 0.619782 2.002634 0.644782
v 0.623664 2.010000 0.644993
v 0.623664 2.005007 0.640000
v 0.622366 2.005218 0.644782
v 0.615000 2.005007 0.648664
v 0.619993 2.010000 0.648664
v 0.619782 2.005218 0.647366
v 0.615000 2.200000 0.640000
v 0.615000 2.190000 0.650000
v 0.625000 2.190000 0.640000
v 0.615000 2.198664 0.644993
v 0.619993 2.198664 0.640000
v 0.619782 2.197366 0.644782
v 0.619993 2.190000 0.648664
v 0.615000 2.194993 0.648664
v 0.619782 2.194782 0.647366
v 0.623664 2.194993 0.640000
v 0.623664 2.190000 0.644993
v 0.622366 2.194782 0.644782
vn -0.1731 -0.9696 0.1731
vn -0.1216 -0.8623 0.4915
vn -0.4473 -0.7744 0.4473
vn -0.4915 -0.8623 0.1216
vn -0.1216 -0.4915 0.8623
vn -0.4473 -0.4473 0.7744
vn -0.1731 -0.1731 0.9696
vn -0.4915 -0.1216 0.8623
vn -0.8623 -0.1216 0.4915
vn -0.7744 -0.4473 0.4473
vn -0.9696 -0.1731 0.1731
vn -0.8623 -0.4915 0.1216
vn -0.1731 0.1731 0.9696
vn -0.1216 0.4915 0.8623
vn -0.4473 0.4473 0.7744
vn -0.4915 0.1216 0.8623
vn -0.1216 0.8623 0.4915
vn -0.4473 0.7744 0.4473
vn -0.1731 0.9696 0.1731
vn -0.4915 0.8623 0.1216
vn -0.8623 0.4915 0.1216
vn -0.7744 0.4473 0.4473
vn -0.9696 0.1731 0.1731
vn -0.8623 0.1216 0.4915
vn -0.1731 -0.9696 -0.1731
vn -0.4915 -0.8623 -0.1216
vn -0.4473 -0.7744 -0.4473
vn -0.1216 -0.8623 -0.4915
vn -0.8623 -0.4915 -0.1216
vn -0.7744 -0.4473 -0.4473
vn -0.9696 -0.1731 -0.1731
vn -0.8623 -0.1216 -0.4915
vn -0.4915 -0.1216 -0.8623
vn -0.4473 -0.4473 -0.7744
vn -0.1731 -0.1731 -0.9696
vn -0.1216 -0.4915 -0.8623
vn -0.1731 0.9696 -0.1731
vn -0.1216 0.8623 -0.4915
vn -0.4473 0.7744 -0.4473
vn -0.4915 0.8623 -0.1216
vn -0.1216 0.4915 -0.8623
vn -0.4473 0.4473 -0.7744
vn -0.1731 0.1731 -0.9696
vn -0.4915 0.1216 -0.8623
vn -0.8623 0.1216 -0.4915
vn -0.7744 0.4473 -0.4473
vn -0.9696 0.1731 -0.1731
vn -0.8623 0.4915 -0.1216
vn 0.1731 -0.9696 0.1731
vn 0.4915 -0.8623 0.1216
vn 0.4473 -0.7744 0.4473
vn 0.1216 -0.8623 0.4915
vn 0.8623 -0.4915 0.1216
vn 0.7744 -0.4473 0.4473
vn 0.9696 -0.1731 0.1731
vn 0.8623 -0.1216 0.4915
vn 0.4915 -0.1216 0.8623
vn 0.4473 -0.4473 0.7744
vn 0.1731 -0.1731 0.9696
vn 0.1216 -0.4915 0.8623
vn 0.1731 0.9696 0.1731
vn 0.1216 0.8623 0.4915
vn 0.4473 0.7744 0.4473
vn 0.4915 0.8623 0.1216
vn 0.1216 0.4915 0.8623
vn 0.4473 0.4473 0.7744
vn 0.1731 0.1731 0.9696
vn 0.4915 0.1216 0.8623
vn 0.8623 0.1216 0.4915
vn 0.7744 0.4473 0.4473
vn 0.9696 0.1731 0.1731
vn 0.8623 0.4915 0.1216
vn 0.1731 -0.9696 -0.1731
vn 0.1216 -0.8623 -0.4915
vn 0.4473 -0.7744 -0.4473
vn 0.4915 -0.8623 -0.1216
vn 0.1216 -0.4915 -0.8623
vn 0.4473 -0.4473 -0.7744
vn 0.1731 -0.1731 -0.9696
vn 0.4915 -0.1216 -0.8623
vn 0.8623 -0.1216 -0.4915
vn 0.7744 -0.4473 -0.4473
vn 0.9696 -0.1731 -0.1731
vn 0.8623 -0.4915 -0.1216
vn 0.1731 0.9696 -0.1731
vn 0.4915 0.8623 -0.1216
vn 0.4473 0.7744 -0.4473
vn 0.1216 0.8623 -0.4915
vn 0.8623 0.4915 -0.1216
vn 0.7744 0.4473 -0.4473
vn 0.9696 0.1731 -0.1731
vn 0.8623 0.1216 -0.4915
vn 0.4915 0.1216 -0.8623
vn 0.4473 0.4473 -0.7744
vn 0.1731 0.1731 -0.9696
vn 0.1216 0.4915 -0.8623
vn -0.0000 -1.0000 -0.0000
vn -1.0000 -0.0000 -0.0000
vn -0.0000 -0.0000 1.0000
vn -0.0000 1.0000 -0.0000
vn -0.0000 -0.0000 -1.0000
vn 1.0000 -0.0000 -0.0000
vn -0.4473 -0.7744 0.4474
vn -0.7744 -0.4473 0.4474
vn -0.4473 0.7744 0.4474
vn -0.7744 0.4473 0.4474
vn -0.4473 -0.7744 -0.4474
vn -0.7744 -0.4473 -0.4474
vn -0.4473 0.7744 -0.4474
vn -0.7744 0.4473 -0.4474
vn 0.4473 -0.4474 -0.7744
vn 0.7744 -0.4474 -0.4473
vn 0.4473 0.4474 -0.7744
vn 0.7744 0.4474 -0.4473
vn 0.4474 -0.4473 0.7744
vn -0.4473 -0.4474 -0.7744
vn -0.4473 0.4474 -0.7744
vn -0.7744 0.4474 -0.4473
vn -0.7744 -0.4474 -0.4473
vn -0.4474 0.7744 -0.4473
vn 0.4474 -0.7744 -0.4473
vn -0.1216 -0.4916 0.8623
vn -0.4473 -0.4474 0.7744
vn -0.7744 -0.4474 0.4473
vn -0.7744 0.4474 0.4473
vn -0.4473 0.4474 0.7744
vn 0.7744 -0.4474 0.4473
vn 0.4473 -0.4474 0.7744
vn 0.1216 -0.4916 0.8623
vn 0.1216 0.4916 0.8623
vn 0.4473 0.4474 0.7744
vn 0.7744 0.4474 0.4473
vt 0.034834 0.694678
vt 0.018462 0.694678
vt 0.019155 0.678999
vt 0.034834 0.678306
vt 0.002047 0.694678
vt 0.002047 0.678999
vt 0.629103 0.625010
vt 0.645476 0.625010
vt 0.644783 0.657797
vt 0.629103 0.657797
vt 0.661891 0.625010
vt 0.661891 0.657797
vt 0.698772 0.625010
vt 0.698772 0.657797
vt 0.683093 0.657797
vt 0.665984 0.625010
vt 0.034834 0.661891
vt 0.019155 0.661891
vt 0.629103 0.034834
vt 0.629103 0.002047
vt 0.644783 0.002047
vt 0.645476 0.034834
vt 0.170078 0.956979
vt 0.186493 0.956978
vt 0.187186 0.972658
vt 0.170078 0.972658
vt 0.202866 0.956979
vt 0.202866 0.973351
vt 0.202866 0.989766
vt 0.187186 0.989766
vt 0.698772 0.034834
vt 0.665984 0.034834
vt 0.683093 0.002047
vt 0.698772 0.002047
vt 0.661891 0.034834
vt 0.661891 0.002047
vt 0.133197 0.694678
vt 0.133197 0.678306
vt 0.148876 0.678999
vt 0.149569 0.694678
vt 0.133197 0.661891
vt 0.148876 0.661891
vt 0.797135 0.625010
vt 0.829922 0.625010
vt 0.812814 0.657797
vt 0.797135 0.657797
vt 0.002047 0.625010
vt 0.018462 0.625010
vt 0.019155 0.657797
vt 0.002047 0.657797
vt 0.034834 0.625010
vt 0.034834 0.657797
vt 0.165984 0.694678
vt 0.165984 0.678999
vt 0.301228 0.956979
vt 0.317600 0.956979
vt 0.316907 0.972658
vt 0.301228 0.973351
vt 0.334016 0.956979
vt 0.334016 0.972658
vt 0.034834 0.034834
vt 0.018462 0.034834
vt 0.019155 0.002047
vt 0.034834 0.002047
vt 0.002047 0.034834
vt 0.002047 0.002047
vt 0.797135 0.034834
vt 0.797134 0.002047
vt 0.812814 0.002047
vt 0.829922 0.034834
vt 0.301228 0.989766
vt 0.316907 0.989766
vt 0.034834 0.956979
vt 0.034834 0.973351
vt 0.019155 0.972658
vt 0.018462 0.956978
vt 0.034834 0.989766
vt 0.019155 0.989766
vt 0.965166 0.625010
vt 0.981538 0.625010
vt 0.980845 0.657797
vt 0.965166 0.657797
vt 0.997953 0.625010
vt 0.997953 0.657797
vt 0.366803 0.625010
vt 0.366803 0.657797
vt 0.351124 0.657797
vt 0.334016 0.625010
vt 0.002047 0.956978
vt 0.002047 0.972658
vt 0.202866 0.694678
vt 0.186493 0.694678
vt 0.187186 0.678999
vt 0.202866 0.678306
vt 0.170078 0.694678
vt 0.170078 0.678999
vt 0.366803 0.034834
vt 0.334016 0.034834
vt 0.351124 0.002047
vt 0.366803 0.002047
vt 0.997953 0.034834
vt 0.981538 0.034834
vt 0.980845 0.002047
vt 0.997953 0.002047
vt 0.965166 0.034834
vt 0.965166 0.002047
vt 0.202866 0.661891
vt 0.187186 0.661891
vt 0.133197 0.956979
vt 0.149569 0.956979
vt 0.148876 0.972658
vt 0.133197 0.973351
vt 0.165984 0.956979
vt 0.165984 0.972658
vt 0.297134 0.625010
vt 0.329922 0.625010
vt 0.312814 0.657797
vt 0.297134 0.657797
vt 0.834016 0.625010
vt 0.850431 0.625010
vt 0.851124 0.657797
vt 0.834016 0.657797
vt 0.866803 0.625010
vt 0.866803 0.657797
vt 0.133197 0.989766
vt 0.148876 0.989766
vt 0.301228 0.694678
vt 0.301228 0.678306
vt 0.316907 0.678999
vt 0.317600 0.694678
vt 0.301228 0.661891
vt 0.316908 0.661891
vt 0.866803 0.034834
vt 0.850431 0.034834
vt 0.851124 0.002047
vt 0.866803 0.002047
vt 0.834016 0.034834
vt 0.834016 0.002047
vt 0.297134 0.034834
vt 0.297134 0.002047
vt 0.312814 0.002047
vt 0.329922 0.034834
vt 0.334016 0.694678
vt 0.334016 0.678999
s 1
usemtl aged_brass
f 1/1/1 4/2/2 6/3/3 5/4/4
f 4/2/2 8/5/5 9/6/6 6/3/3
f 2/7/7 7/8/8 9/9/6 8/10/5
f 7/8/8 11/11/9 12/12/10 9/9/6
f 3/13/11 10/14/12 12/15/10 11/16/9
f 10/17/12 5/4/4 6/3/3 12/18/10
f 6/3/3 9/6/6 12/18/10
f 13/19/13 16/20/14 18/21/15 17/22/16
f 16/23/14 20/24/17 21/25/18 18/26/15
f 14/27/19 19/28/20 21/25/18 20/24/17
f 19/28/20 23/29/21 24/30/22 21/25/18
f 15/31/23 22/32/24 24/33/22 23/34/21
f 22/35/24 17/22/16 18/21/15 24/36/22
f 18/26/15 21/25/18 24/30/22
f 25/37/25 28/38/26 30/39/27 29/40/28
f 28/38/26 32/41/29 33/42/30 30/39/27
f 26/43/31 31/44/32 33/45/30 32/46/29
f 31/47/32 35/48/33 36/49/34 33/50/30
f 27/51/35 34/52/36 36/49/34 35/48/33
f 34/53/36 29/40/28 30/39/27 36/54/34
f 30/39/27 33/42/30 36/54/34
f 37/55/37 40/56/38 42/57/39 41/58/40
f 40/56/38 44/59/41 45/60/42 42/57/39
f 38/61/43 43/62/44 45/63/42 44/64/41
f 43/62/44 47/65/45 48/66/46 45/63/42
f 39/67/47 46/68/48 48/69/46 47/70/45
f 46/71/48 41/58/40 42/57/39 48/72/46
f 42/57/39 45/60/42 48/72/46
f 49/73/49 52/74/50 54/75/51 53/76/52
f 52/74/50 56/77/53 57/78/54 54/75/51
f 50/79/55 55/80/56 57/81/54 56/82/53
f 55/80/56 59/83/57 60/84/58 57/81/54
f 51/85/59 58/86/60 60/87/58 59/88/57
f 58/89/60 53/76/52 54/75/51 60/90/58
f 54/75/51 57/78/54 60/90/58
f 61/91/61 64/92/62 66/93/63 65/94/64
f 64/92/62 68/95/65 69/96/66 66/93/63
f 62/97/67 67/98/68 69/99/66 68/100/65
f 67/101/68 71/102/69 72/103/70 69/104/66
f 63/105/71 70/106/72 72/103/70 71/102/69
f 70/107/72 65/94/64 66/93/63 72/108/70
f 66/93/63 69/96/66 72/108/70
f 73/109/73 76/110/74 78/111/75 77/112/76
f 76/110/74 80/113/77 81/114/78 78/111/75
f 74/115/79 79/116/80 81/117/78 80/118/77
f 79/119/80 83/120/81 84/121/82 81/122/78
f 75/123/83 82/124/84 84/121/82 83/120/81
f 82/125/84 77/112/76 78/111/75 84/126/82
f 78/111/75 81/114/78 84/126/82
f 85/127/85 88/128/86 90/129/87 89/130/88
f 88/128/86 92/131/89 93/132/90 90/129/87
f 86/133/91 91/134/92 93/135/90 92/136/89
f 91/134/92 95/137/93 96/138/94 93/135/90
f 87/139/95 94/140/96 96/141/94 95/142/93
f 94/143/96 89/130/88 90/129/87 96/144/94
f 90/129/87 93/132/90 96/144/94
f 25/37/25 1/1/1 5/4/4 28/38/26
f 28/38/26 5/4/4 10/17/12 32/41/29
f 32/46/29 10/14/12 3/13/11 26/43/31
f 2/7/7 13/19/13 17/22/16 7/8/8
f 7/8/8 17/22/16 22/35/24 11/11/9
f 11/16/9 22/32/24 15/31/23 3/13/11
f 14/27/19 37/55/37 41/58/40 19/28/20
f 19/28/20 41/58/40 46/71/48 23/29/21
f 23/34/21 46/68/48 39/67/47 15/31/23
f 38/61/43 27/51/35 35/48/33 43/62/44
f 43/62/44 35/48/33 31/47/32 47/65/45
f 47/70/45 31/44/32 26/43/31 39/67/47
f 73/109/73 25/37/25 29/40/28 76/110/74
f 76/110/74 29/40/28 34/53/36 80/113/77
f 80/118/77 34/52/36 27/51/35 74/115/79
f 37/55/37 85/127/85 89/130/88 40/56/38
f 40/56/38 89/130/88 94/143/96 44/59/41
f 44/64/41 94/140/96 87/139/95 38/61/43
f 86/133/91 75/123/83 83/120/81 91/134/92
f 91/134/92 83/120/81 79/119/80 95/137/93
f 95/142/93 79/116/80 74/115/79 87/139/95
f 49/73/49 73/109/73 77/112/76 52/74/50
f 52/74/50 77/112/76 82/125/84 56/77/53
f 56/82/53 82/124/84 75/123/83 50/79/55
f 85/127/85 61/91/61 65/94/64 88/128/86
f 88/128/86 65/94/64 70/107/72 92/131/89
f 92/136/89 70/106/72 63/105/71 86/133/91
f 62/97/67 51/85/59 59/88/57 67/98/68
f 67/101/68 59/83/57 55/80/56 71/102/69
f 71/102/69 55/80/56 50/79/55 63/105/71
f 1/1/1 49/73/49 53/76/52 4/2/2
f 4/2/2 53/76/52 58/89/60 8/5/5
f 8/10/5 58/86/60 51/85/59 2/7/7
f 61/91/61 14/27/19 20/24/17 64/92/62
f 64/92/62 20/24/17 16/23/14 68/95/65
f 68/100/65 16/20/14 13/19/13 62/97/67
f 25/37/97 73/109/97 49/73/97 1/1/97
f 3/13/98 15/31/98 39/67/98 26/43/98
f 51/85/99 62/97/99 13/19/99 2/7/99
f 85/127/100 37/55/100 14/27/100 61/91/100
f 27/51/101 38/61/101 87/139/101 74/115/101
f 75/123/102 86/133/102 63/105/102 50/79/102
f 97/1/49 100/2/50 102/3/51 101/4/52
f 100/2/50 104/5/53 105/6/54 102/3/51
f 98/7/55 103/8/56 105/9/54 104/10/53
f 103/8/56 107/11/57 108/12/58 105/9/54
f 99/13/59 106/14/60 108/15/58 107/16/57
f 106/17/60 101/4/52 102/3/51 108/18/58
f 102/3/51 105/6/54 108/18/58
f 109/19/71 112/20/72 114/21/70 113/22/69
f 112/23/72 116/24/64 117/25/63 114/26/70
f 110/27/61 115/28/62 117/25/63 116/24/64
f 115/28/62 119/29/65 120/30/66 117/25/63
f 111/31/67 118/32/68 120/33/66 119/34/65
f 118/35/68 113/22/69 114/21/70 120/36/66
f 114/26/70 117/25/63 120/30/66
f 121/37/1 124/38/2 126/39/103 125/40/4
f 124/38/2 128/41/5 129/42/6 126/39/103
f 122/43/7 127/44/8 129/45/6 128/46/5
f 127/47/8 131/48/9 132/49/104 129/50/6
f 123/51/11 130/52/12 132/49/104 131/48/9
f 130/53/12 125/40/4 126/39/103 132/54/104
f 126/39/103 129/42/6 132/54/104
f 133/55/19 136/56/20 138/57/105 137/58/17
f 136/56/20 140/59/21 141/60/106 138/57/105
f 134/61/23 139/62/24 141/63/106 140/64/21
f 139/62/24 143/65/16 144/66/15 141/63/106
f 135/67/13 142/68/14 144/69/15 143/70/16
f 142/71/14 137/58/17 138/57/105 144/72/15
f 138/57/105 141/60/106 144/72/15
f 145/73/73 148/74/74 150/75/75 149/76/76
f 148/74/74 152/77/77 153/78/78 150/75/75
f 146/79/79 151/80/80 153/81/78 152/82/77
f 151/80/80 155/83/81 156/84/82 153/81/78
f 147/85/83 154/86/84 156/87/82 155/88/81
f 154/89/84 149/76/76 150/75/75 156/90/82
f 150/75/75 153/78/78 156/90/82
f 157/91/85 160/92/86 162/93/87 161/94/88
f 160/92/86 164/95/89 165/96/90 162/93/87
f 158/97/91 163/98/92 165/99/90 164/100/89
f 163/101/92 167/102/93 168/103/94 165/104/90
f 159/105/95 166/106/96 168/103/94 167/102/93
f 166/107/96 161/94/88 162/93/87 168/108/94
f 162/93/87 165/96/90 168/108/94
f 169/109/25 172/110/26 174/111/107 173/112/28
f 172/110/26 176/113/29 177/114/108 174/111/107
f 170/115/31 175/116/32 177/117/108 176/118/29
f 175/119/32 179/120/33 180/121/34 177/122/108
f 171/123/35 178/124/36 180/121/34 179/120/33
f 178/125/36 173/112/28 174/111/107 180/126/34
f 174/111/107 177/114/108 180/126/34
f 181/127/37 184/128/38 186/129/109 185/130/40
f 184/128/38 188/131/41 189/132/42 186/129/109
f 182/133/43 187/134/44 189/135/42 188/136/41
f 187/134/44 191/137/45 192/138/110 189/135/42
f 183/139/47 190/140/48 192/141/110 191/142/45
f 190/143/48 185/130/40 186/129/109 192/144/110
f 186/129/109 189/132/42 192/144/110
f 121/37/1 97/1/49 101/4/52 124/38/2
f 124/38/2 101/4/52 106/17/60 128/41/5
f 128/46/5 106/14/60 99/13/59 122/43/7
f 98/7/55 109/19/71 113/22/69 103/8/56
f 103/8/56 113/22/69 118/35/68 107/11/57
f 107/16/57 118/32/68 111/31/67 99/13/59
f 110/27/61 133/55/19 137/58/17 115/28/62
f 115/28/62 137/58/17 142/71/14 119/29/65
f 119/34/65 142/68/14 135/67/13 111/31/67
f 134/61/23 123/51/11 131/48/9 139/62/24
f 139/62/24 131/48/9 127/47/8 143/65/16
f 143/70/16 127/44/8 122/43/7 135/67/13
f 169/109/25 121/37/1 125/40/4 172/110/26
f 172/110/26 125/40/4 130/53/12 176/113/29
f 176/118/29 130/52/12 123/51/11 170/115/31
f 133/55/19 181/127/37 185/130/40 136/56/20
f 136/56/20 185/130/40 190/143/48 140/59/21
f 140/64/21 190/140/48 183/139/47 134/61/23
f 182/133/43 171/123/35 179/120/33 187/134/44
f 187/134/44 179/120/33 175/119/32 191/137/45
f 191/142/45 175/116/32 170/115/31 183/139/47
f 145/73/73 169/109/25 173/112/28 148/74/74
f 148/74/74 173/112/28 178/125/36 152/77/77
f 152/82/77 178/124/36 171/123/35 146/79/79
f 181/127/37 157/91/85 161/94/88 184/128/38
f 184/128/38 161/94/88 166/107/96 188/131/41
f 188/136/41 166/106/96 159/105/95 182/133/43
f 158/97/91 147/85/83 155/88/81 163/98/92
f 163/101/92 155/83/81 151/80/80 167/102/93
f 167/102/93 151/80/80 146/79/79 159/105/95
f 97/1/49 145/73/73 149/76/76 100/2/50
f 100/2/50 149/76/76 154/89/84 104/5/53
f 104/10/53 154/86/84 147/85/83 98/7/55
f 157/91/85 110/27/61 116/24/64 160/92/86
f 160/92/86 116/24/64 112/23/72 164/95/89
f 164/100/89 112/20/72 109/19/71 158/97/91
f 121/37/97 169/109/97 145/73/97 97/1/97
f 99/13/99 111/31/99 135/67/99 122/43/99
f 147/85/102 158/97/102 109/19/102 98/7/102
f 181/127/100 133/55/100 110/27/100 157/91/100
f 123/51/98 134/61/98 183/139/98 170/115/98
f 171/123/101 182/133/101 159/105/101 146/79/101
f 193/1/73 196/2/74 198/3/75 197/4/76
f 196/2/74 200/5/77 201/6/111 198/3/75
f 194/7/79 199/8/80 201/9/111 200/10/77
f 199/8/80 203/11/81 204/12/112 201/9/111
f 195/13/83 202/14/84 204/15/112 203/16/81
f 202/17/84 197/4/76 198/3/75 204/18/112
f 198/3/75 201/6/111 204/18/112
f 205/19/95 208/20/96 210/21/113 209/22/93
f 208/23/96 212/24/88 213/25/87 210/26/113
f 206/27/85 211/28/86 213/25/87 212/24/88
f 211/28/86 215/29/89 216/30/114 213/25/87
f 207/31/91 214/32/92 216/33/114 215/34/89
f 214/35/92 209/22/93 210/21/113 216/36/114
f 210/26/113 213/25/87 216/30/114
f 217/37/49 220/38/50 222/39/51 221/40/52
f 220/38/50 224/41/53 225/42/54 222/39/51
f 218/43/55 223/44/56 225/45/54 224/46/53
f 223/47/56 227/48/57 228/49/115 225/50/54
f 219/51/59 226/52/60 228/49/115 227/48/57
f 226/53/60 221/40/52 222/39/51 228/54/115
f 222/39/51 225/42/54 228/54/115
f 229/55/61 232/56/62 234/57/63 233/58/64
f 232/56/62 236/59/65 237/60/66 234/57/63
f 230/61/67 235/62/68 237/63/66 236/64/65
f 235/62/68 239/65/69 240/66/70 237/63/66
f 231/67/71 238/68/72 240/69/70 239/70/69
f 238/71/72 233/58/64 234/57/63 240/72/70
f 234/57/63 237/60/66 240/72/70
f 241/73/25 244/74/26 246/75/107 245/76/28
f 244/74/26 248/77/29 249/78/30 246/75/107
f 242/79/31 247/80/32 249/81/30 248/82/29
f 247/80/32 251/83/33 252/84/116 249/81/30
f 243/85/35 250/86/36 252/87/116 251/88/33
f 250/89/36 245/76/28 246/75/107 252/90/116
f 246/75/107 249/78/30 252/90/116
f 253/91/37 256/92/38 258/93/39 257/94/40
f 256/92/38 260/95/41 261/96/117 258/93/39
f 254/97/43 259/98/44 261/99/117 260/100/41
f 259/101/44 263/102/45 264/103/118 261/104/117
f 255/105/47 262/106/48 264/103/118 263/102/45
f 262/107/48 257/94/40 258/93/39 264/108/118
f 258/93/39 261/96/117 264/108/118
f 265/109/1 268/110/2 270/111/103 269/112/4
f 268/110/2 272/113/5 273/114/6 270/111/103
f 266/115/7 271/116/8 273/117/6 272/118/5
f 271/119/8 275/120/9 276/121/104 273/122/6
f 267/123/11 274/124/12 276/121/104 275/120/9
f 274/125/12 269/112/4 270/111/103 276/126/104
f 270/111/103 273/114/6 276/126/104
f 277/127/19 280/128/20 282/129/105 281/130/17
f 280/128/20 284/131/21 285/132/106 282/129/105
f 278/133/23 283/134/24 285/135/106 284/136/21
f 283/134/24 287/137/16 288/138/15 285/135/106
f 279/139/13 286/140/14 288/141/15 287/142/16
f 286/143/14 281/130/17 282/129/105 288/144/15
f 282/129/105 285/132/106 288/144/15
f 217/37/49 193/1/73 197/4/76 220/38/50
f 220/38/50 197/4/76 202/17/84 224/41/53
f 224/46/53 202/14/84 195/13/83 218/43/55
f 194/7/79 205/19/95 209/22/93 199/8/80
f 199/8/80 209/22/93 214/35/92 203/11/81
f 203/16/81 214/32/92 207/31/91 195/13/83
f 206/27/85 229/55/61 233/58/64 211/28/86
f 211/28/86 233/58/64 238/71/72 215/29/89
f 215/34/89 238/68/72 231/67/71 207/31/91
f 230/61/67 219/51/59 227/48/57 235/62/68
f 235/62/68 227/48/57 223/47/56 239/65/69
f 239/70/69 223/44/56 218/43/55 231/67/71
f 265/109/1 217/37/49 221/40/52 268/110/2
f 268/110/2 221/40/52 226/53/60 272/113/5
f 272/118/5 226/52/60 219/51/59 266/115/7
f 229/55/61 277/127/19 281/130/17 232/56/62
f 232/56/62 281/130/17 286/143/14 236/59/65
f 236/64/65 286/140/14 279/139/13 230/61/67
f 278/133/23 267/123/11 275/120/9 283/134/24
f 283/134/24 275/120/9 271/119/8 287/137/16
f 287/142/16 271/116/8 266/115/7 279/139/13
f 241/73/25 265/109/1 269/112/4 244/74/26
f 244/74/26 269/112/4 274/125/12 248/77/29
f 248/82/29 274/124/12 267/123/11 242/79/31
f 277/127/19 253/91/37 257/94/40 280/128/20
f 280/128/20 257/94/40 262/107/48 284/131/21
f 284/136/21 262/106/48 255/105/47 278/133/23
f 254/97/43 243/85/35 251/88/33 259/98/44
f 259/101/44 251/83/33 247/80/32 263/102/45
f 263/102/45 247/80/32 242/79/31 255/105/47
f 193/1/73 241/73/25 245/76/28 196/2/74
f 196/2/74 245/76/28 250/89/36 200/5/77
f 200/10/77 250/86/36 243/85/35 194/7/79
f 253/91/37 206/27/85 212/24/88 256/92/38
f 256/92/38 212/24/88 208/23/96 260/95/41
f 260/100/41 208/20/96 205/19/95 254/97/43
f 217/37/97 265/109/97 241/73/97 193/1/97
f 195/13/102 207/31/102 231/67/102 218/43/102
f 243/85/101 254/97/101 205/19/101 194/7/101
f 277/127/100 229/55/100 206/27/100 253/91/100
f 219/51/99 230/61/99 279/139/99 266/115/99
f 267/123/98 278/133/98 255/105/98 242/79/98
f 289/1/25 292/2/26 294/3/27 293/4/28
f 292/2/26 296/5/29 297/6/119 294/3/27
f 290/7/31 295/8/32 297/9/119 296/10/29
f 295/8/32 299/11/33 300/12/116 297/9/119
f 291/13/35 298/14/36 300/15/116 299/16/33
f 298/17/36 293/4/28 294/3/27 300/18/116
f 294/3/27 297/6/119 300/18/116
f 301/19/47 304/20/48 306/21/118 305/22/45
f 304/23/48 308/24/40 309/25/120 306/26/118
f 302/27/37 307/28/38 309/25/120 308/24/40
f 307/28/38 311/29/41 312/30/117 309/25/120
f 303/31/43 310/32/44 312/33/117 311/34/41
f 310/35/44 305/22/45 306/21/118 312/36/117
f 306/26/118 309/25/120 312/30/117
f 313/37/73 316/38/74 318/39/121 317/40/76
f 316/38/74 320/41/77 321/42/111 318/39/121
f 314/43/79 319/44/80 321/45/111 320/46/77
f 319/47/80 323/48/81 324/49/112 321/50/111
f 315/51/83 322/52/84 324/49/112 323/48/81
f 322/53/84 317/40/76 318/39/121 324/54/112
f 318/39/121 321/42/111 324/54/112
f 325/55/85 328/56/86 330/57/87 329/58/88
f 328/56/86 332/59/89 333/60/114 330/57/87
f 326/61/91 331/62/92 333/63/114 332/64/89
f 331/62/92 335/65/93 336/66/113 333/63/114
f 327/67/95 334/68/96 336/69/113 335/70/93
f 334/71/96 329/58/88 330/57/87 336/72/113
f 330/57/87 333/60/114 336/72/113
f 337/73/1 340/74/2 342/75/3 341/76/4
f 340/74/2 344/77/122 345/78/123 342/75/3
f 338/79/7 343/80/8 345/81/123 344/82/122
f 343/80/8 347/83/9 348/84/124 345/81/123
f 339/85/11 346/86/12 348/87/124 347/88/9
f 346/89/12 341/76/4 342/75/3 348/90/124
f 342/75/3 345/78/123 348/90/124
f 349/91/19 352/92/20 354/93/18 353/94/17
f 352/92/20 356/95/21 357/96/125 354/93/18
f 350/97/23 355/98/24 357/99/125 356/100/21
f 355/101/24 359/102/16 360/103/126 357/104/125
f 351/105/13 358/106/14 360/103/126 359/102/16
f 358/107/14 353/94/17 354/93/18 360/108/126
f 354/93/18 357/96/125 360/108/126
f 361/109/49 364/110/50 366/111/51 365/112/52
f 364/110/50 368/113/53 369/114/127 366/111/51
f 362/115/55 367/116/56 369/117/127 368/118/53
f 367/119/56 371/120/57 372/121/128 369/122/127
f 363/123/59 370/124/129 372/121/128 371/120/57
f 370/125/129 365/112/52 366/111/51 372/126/128
f 366/111/51 369/114/127 372/126/128
f 373/127/61 376/128/62 378/129/63 377/130/64
f 376/128/62 380/131/130 381/132/131 378/129/63
f 374/133/67 379/134/68 381/135/131 380/136/130
f 379/134/68 383/137/69 384/138/132 381/135/131
f 375/139/71 382/140/72 384/141/132 383/142/69
f 382/143/72 377/130/64 378/129/63 384/144/132
f 378/129/63 381/132/131 384/144/132
f 313/37/73 289/1/25 293/4/28 316/38/74
f 316/38/74 293/4/28 298/17/36 320/41/77
f 320/46/77 298/14/36 291/13/35 314/43/79
f 290/7/31 301/19/47 305/22/45 295/8/32
f 295/8/32 305/22/45 310/35/44 299/11/33
f 299/16/33 310/32/44 303/31/43 291/13/35
f 302/27/37 325/55/85 329/58/88 307/28/38
f 307/28/38 329/58/88 334/71/96 311/29/41
f 311/34/41 334/68/96 327/67/95 303/31/43
f 326/61/91 315/51/83 323/48/81 331/62/92
f 331/62/92 323/48/81 319/47/80 335/65/93
f 335/70/93 319/44/80 314/43/79 327/67/95
f 361/109/49 313/37/73 317/40/76 364/110/50
f 364/110/50 317/40/76 322/53/84 368/113/53
f 368/118/53 322/52/84 315/51/83 362/115/55
f 325/55/85 373/127/61 377/130/64 328/56/86
f 328/56/86 377/130/64 382/143/72 332/59/89
f 332/64/89 382/140/72 375/139/71 326/61/91
f 374/133/67 363/123/59 371/120/57 379/134/68
f 379/134/68 371/120/57 367/119/56 383/137/69
f 383/142/69 367/116/56 362/115/55 375/139/71
f 337/73/1 361/109/49 365/112/52 340/74/2
f 340/74/2 365/112/52 370/125/129 344/77/122
f 344/82/122 370/124/129 363/123/59 338/79/7
f 373/127/61 349/91/19 353/94/17 376/128/62
f 376/128/62 353/94/17 358/107/14 380/131/130
f 380/136/130 358/106/14 351/105/13 374/133/67
f 350/97/23 339/85/11 347/88/9 355/98/24
f 355/101/24 347/83/9 343/80/8 359/102/16
f 359/102/16 343/80/8 338/79/7 351/105/13
f 289/1/25 337/73/1 341/76/4 292/2/26
f 292/2/26 341/76/4 346/89/12 296/5/29
f 296/10/29 346/86/12 339/85/11 290/7/31
f 349/91/19 302/27/37 308/24/40 352/92/20
f 352/92/20 308/24/40 304/23/48 356/95/21
f 356/100/21 304/20/48 301/19/47 350/97/23
f 313/37/97 361/109/97 337/73/97 289/1/97
f 291/13/101 303/31/101 327/67/101 314/43/101
f 339/85/98 350/97/98 301/19/98 290/7/98
f 373/127/100 325/55/100 302/27/100 349/91/100
f 315/51/102 326/61/102 375/139/102 362/115/102
f 363/123/99 374/133/99 351/105/99 338/79/99
