# Blender 5.0.1
# www.blender.org
mtllib BB_Reusable_Cage_Post.mtl
o Cage_Post
v 0.550000 2.350000 -0.030000
v 0.550000 3.550000 -0.030000
v 0.561481 2.350000 -0.027716
v 0.561481 3.550000 -0.027716
v 0.571213 2.350000 -0.021213
v 0.571213 3.550000 -0.021213
v 0.577716 2.350000 -0.011481
v 0.577716 3.550000 -0.011481
v 0.580000 2.350000 0.000000
v 0.580000 3.550000 0.000000
v 0.577716 2.350000 0.011481
v 0.577716 3.550000 0.011481
v 0.571213 2.350000 0.021213
v 0.571213 3.550000 0.021213
v 0.561481 2.350000 0.027716
v 0.561481 3.550000 0.027716
v 0.550000 2.350000 0.030000
v 0.550000 3.550000 0.030000
v 0.538520 2.350000 0.027716
v 0.538520 3.550000 0.027716
v 0.528787 2.350000 0.021213
v 0.528787 3.550000 0.021213
v 0.522284 2.350000 0.011481
v 0.522284 3.550000 0.011481
v 0.520000 2.350000 0.000000
v 0.520000 3.550000 0.000000
v 0.522284 2.350000 -0.011481
v 0.522284 3.550000 -0.011481
v 0.528787 2.350000 -0.021213
v 0.528787 3.550000 -0.021213
v 0.538520 2.350000 -0.027716
v 0.538520 3.550000 -0.027716
v -0.021213 2.350000 -0.021213
v -0.021213 3.550000 -0.021213
v -0.011481 2.350000 -0.027716
v -0.011481 3.550000 -0.027716
v 0.000000 2.350000 -0.030000
v 0.000000 3.550000 -0.030000
v 0.011481 2.350000 -0.027716
v 0.011481 3.550000 -0.027716
v 0.021213 2.350000 -0.021213
v 0.021213 3.550000 -0.021213
v 0.027716 2.350000 -0.011481
v 0.027716 3.550000 -0.011481
v 0.030000 2.350000 0.000000
v 0.030000 3.550000 0.000000
v 0.027716 2.350000 0.011481
v 0.027716 3.550000 0.011481
v 0.021213 2.350000 0.021213
v 0.021213 3.550000 0.021213
v 0.011481 2.350000 0.027716
v 0.011481 3.550000 0.027716
v 0.000000 2.350000 0.030000
v 0.000000 3.550000 0.030000
v -0.011481 2.350000 0.027716
v -0.011481 3.550000 0.027716
v -0.021213 2.350000 0.021213
v -0.021213 3.550000 0.021213
v -0.027716 2.350000 0.011481
v -0.027716 3.550000 0.011481
v -0.030000 2.350000 0.000000
v -0.030000 3.550000 0.000000
v -0.027716 2.350000 -0.011481
v -0.027716 3.550000 -0.011481
v -0.418909 2.350000 0.388909
v -0.418909 3.550000 0.388909
v -0.416625 2.350000 0.377428
v -0.416625 3.550000 0.377428
v -0.410122 2.350000 0.367696
v -0.410122 3.550000 0.367696
v -0.400389 2.350000 0.361192
v -0.400389 3.550000 0.361192
v -0.388909 2.350000 0.358909
v -0.388909 3.550000 0.358909
v -0.377428 2.350000 0.361192
v -0.377428 3.550000 0.361192
v -0.367696 2.350000 0.367696
v -0.367696 3.550000 0.367696
v -0.361192 2.350000 0.377428
v -0.361192 3.550000 0.377428
v -0.358909 2.350000 0.388909
v -0.358909 3.550000 0.388909
v -0.361192 2.350000 0.400389
v -0.361192 3.550000 0.400389
v -0.367696 2.350000 0.410122
v -0.367696 3.550000 0.410122
v -0.377428 2.350000 0.416625
v -0.377428 3.550000 0.416625
v -0.388909 2.350000 0.418909
v -0.388909 3.550000 0.418909
v -0.400389 2.350000 0.416625
v -0.400389 3.550000 0.416625
v -0.410122 2.350000 0.410122
v -0.410122 3.550000 0.410122
v -0.416625 2.350000 0.400389
v -0.416625 3.550000 0.400389
v -0.410122 2.350000 0.960122
v -0.410122 3.550000 0.960122
v -0.416625 2.350000 0.950389
v -0.416625 3.550000 0.950389
v -0.418909 2.350000 0.938909
v -0.418909 3.550000 0.938909
v -0.416625 2.350000 0.927428
v -0.416625 3.550000 0.927428
v -0.410122 2.350000 0.917696
v -0.410122 3.550000 0.917696
v -0.400389 2.350000 0.911192
v -0.400389 3.550000 0.911192
v -0.388909 2.350000 0.908909
v -0.388909 3.550000 0.908909
v -0.377428 2.350000 0.911192
v -0.377428 3.550000 0.911192
v -0.367696 2.350000 0.917696
v -0.367696 3.550000 0.917696
v -0.361192 2.350000 0.927428
v -0.361192 3.550000 0.927428
v -0.358909 2.350000 0.938909
v -0.358909 3.550000 0.938909
v -0.361192 2.350000 0.950389
v -0.361192 3.550000 0.950389
v -0.367696 2.350000 0.960122
v -0.367696 3.550000 0.960122
v -0.377428 2.350000 0.966625
v -0.377428 3.550000 0.966625
v -0.388909 2.350000 0.968909
v -0.388909 3.550000 0.968909
v -0.400389 2.350000 0.966625
v -0.400389 3.550000 0.966625
v -0.000000 2.350000 1.357817
v -0.000000 3.550000 1.357817
v -0.011481 2.350000 1.355534
v -0.011481 3.550000 1.355534
v -0.021213 2.350000 1.349031
v -0.021213 3.550000 1.349031
v -0.027716 2.350000 1.339298
v -0.027716 3.550000 1.339298
v -0.030000 2.350000 1.327817
v -0.030000 3.550000 1.327817
v -0.027716 2.350000 1.316337
v -0.027716 3.550000 1.316337
v -0.021213 2.350000 1.306604
v -0.021213 3.550000 1.306604
v -0.011481 2.350000 1.300101
v -0.011481 3.550000 1.300101
v -0.000000 2.350000 1.297817
v -0.000000 3.550000 1.297817
v 0.011480 2.350000 1.300101
v 0.011480 3.550000 1.300101
v 0.021213 2.350000 1.306604
v 0.021213 3.550000 1.306604
v 0.027716 2.350000 1.316337
v 0.027716 3.550000 1.316337
v 0.030000 2.350000 1.327817
v 0.030000 3.550000 1.327817
v 0.027716 2.350000 1.339298
v 0.027716 3.550000 1.339298
v 0.021213 2.350000 1.349031
v 0.021213 3.550000 1.349031
v 0.011480 2.350000 1.355534
v 0.011480 3.550000 1.355534
v 0.571213 2.350000 1.349031
v 0.571213 3.550000 1.349031
v 0.561480 2.350000 1.355534
v 0.561480 3.550000 1.355534
v 0.550000 2.350000 1.357817
v 0.550000 3.550000 1.357817
v 0.538519 2.350000 1.355534
v 0.538519 3.550000 1.355534
v 0.528787 2.350000 1.349031
v 0.528787 3.550000 1.349031
v 0.522283 2.350000 1.339298
v 0.522283 3.550000 1.339298
v 0.520000 2.350000 1.327817
v 0.520000 3.550000 1.327817
v 0.522283 2.350000 1.316337
v 0.522283 3.550000 1.316337
v 0.528787 2.350000 1.306604
v 0.528787 3.550000 1.306604
v 0.538519 2.350000 1.300101
v 0.538519 3.550000 1.300101
v 0.550000 2.350000 1.297817
v 0.550000 3.550000 1.297817
v 0.561480 2.350000 1.300101
v 0.561480 3.550000 1.300101
v 0.571213 2.350000 1.306604
v 0.571213 3.550000 1.306604
v 0.577716 2.350000 1.316337
v 0.577716 3.550000 1.316337
v 0.580000 2.350000 1.327817
v 0.580000 3.550000 1.327817
v 0.577716 2.350000 1.339298
v 0.577716 3.550000 1.339298
v 0.968909 2.350000 0.938909
v 0.968909 3.550000 0.938909
v 0.966625 2.350000 0.950389
v 0.966625 3.550000 0.950389
v 0.960122 2.350000 0.960122
v 0.960122 3.550000 0.960122
v 0.950389 2.350000 0.966625
v 0.950389 3.550000 0.966625
v 0.938909 2.350000 0.968909
v 0.938909 3.550000 0.968909
v 0.927428 2.350000 0.966625
v 0.927428 3.550000 0.966625
v 0.917695 2.350000 0.960122
v 0.917695 3.550000 0.960122
v 0.911192 2.350000 0.950389
v 0.911192 3.550000 0.950389
v 0.908909 2.350000 0.938909
v 0.908909 3.550000 0.938909
v 0.911192 2.350000 0.927428
v 0.911192 3.550000 0.927428
v 0.917695 2.350000 0.917696
v 0.917695 3.550000 0.917696
v 0.927428 2.350000 0.911192
v 0.927428 3.550000 0.911192
v 0.938909 2.350000 0.908909
v 0.938909 3.550000 0.908909
v 0.950389 2.350000 0.911192
v 0.950389 3.550000 0.911192
v 0.960122 2.350000 0.917696
v 0.960122 3.550000 0.917696
v 0.966625 2.350000 0.927428
v 0.966625 3.550000 0.927428
v 0.960122 2.350000 0.367696
v 0.960122 3.550000 0.367696
v 0.966625 2.350000 0.377428
v 0.966625 3.550000 0.377428
v 0.968909 2.350000 0.388909
v 0.968909 3.550000 0.388909
v 0.966625 2.350000 0.400389
v 0.966625 3.550000 0.400389
v 0.960122 2.350000 0.410122
v 0.960122 3.550000 0.410122
v 0.950389 2.350000 0.416625
v 0.950389 3.550000 0.416625
v 0.938909 2.350000 0.418909
v 0.938909 3.550000 0.418909
v 0.927428 2.350000 0.416625
v 0.927428 3.550000 0.416625
v 0.917695 2.350000 0.410122
v 0.917695 3.550000 0.410122
v 0.911192 2.350000 0.400389
v 0.911192 3.550000 0.400389
v 0.908909 2.350000 0.388909
v 0.908909 3.550000 0.388909
v 0.911192 2.350000 0.377428
v 0.911192 3.550000 0.377428
v 0.917695 2.350000 0.367696
v 0.917695 3.550000 0.367696
v 0.927428 2.350000 0.361192
v 0.927428 3.550000 0.361192
v 0.938909 2.350000 0.358909
v 0.938909 3.550000 0.358909
v 0.950389 2.350000 0.361192
v 0.950389 3.550000 0.361192
vn 0.1951 -0.0000 -0.9808
vn 0.5556 -0.0000 -0.8315
vn 0.8315 -0.0000 -0.5556
vn 0.9808 -0.0000 -0.1951
vn 0.9808 -0.0000 0.1951
vn 0.8315 -0.0000 0.5556
vn 0.5556 -0.0000 0.8315
vn 0.1951 -0.0000 0.9808
vn -0.1951 -0.0000 0.9808
vn -0.5556 -0.0000 0.8315
vn -0.8315 -0.0000 0.5556
vn -0.9808 -0.0000 0.1951
vn -0.9808 -0.0000 -0.1951
vn -0.8315 -0.0000 -0.5556
vn -0.0000 1.0000 -0.0000
vn -0.5556 -0.0000 -0.8315
vn -0.1951 -0.0000 -0.9808
vn -0.0000 -1.0000 -0.0000
vt 0.026462 0.999158
vt 0.026462 0.000842
vt 0.035459 0.000842
vt 0.035459 0.999158
vt 0.037142 0.999158
vt 0.037142 0.000842
vt 0.044028 0.000842
vt 0.044028 0.999158
vt 0.053025 0.000842
vt 0.053025 0.999158
vt 0.062763 0.000842
vt 0.062763 0.999158
vt 0.071760 0.000842
vt 0.071760 0.999158
vt 0.073443 0.999158
vt 0.073443 0.000842
vt 0.080329 0.000842
vt 0.080329 0.999158
vt 0.089326 0.000842
vt 0.089326 0.999158
vt 0.099064 0.000842
vt 0.099064 0.999158
vt 0.108061 0.000842
vt 0.108061 0.999158
vt 0.109744 0.999158
vt 0.109744 0.000842
vt 0.116629 0.000842
vt 0.116629 0.999158
vt 0.125626 0.000842
vt 0.125626 0.999158
vt 0.135364 0.000842
vt 0.135364 0.999158
vt 0.144361 0.000842
vt 0.144361 0.999158
vt 0.000842 0.999158
vt 0.000842 0.000842
vt 0.007727 0.000842
vt 0.007727 0.999158
vt 0.156657 0.046072
vt 0.149771 0.039186
vt 0.146044 0.030189
vt 0.146044 0.020451
vt 0.149771 0.011454
vt 0.156657 0.004568
vt 0.165654 0.000842
vt 0.175392 0.000842
vt 0.184388 0.004568
vt 0.191274 0.011454
vt 0.195001 0.020451
vt 0.195001 0.030189
vt 0.191274 0.039186
vt 0.184388 0.046072
vt 0.175392 0.049798
vt 0.165654 0.049798
vt 0.016724 0.000842
vt 0.016724 0.999158
vt 0.149771 0.089826
vt 0.146044 0.080829
vt 0.146044 0.071091
vt 0.149771 0.062094
vt 0.156657 0.055208
vt 0.165654 0.051481
vt 0.175392 0.051481
vt 0.184388 0.055208
vt 0.191274 0.062094
vt 0.195001 0.071091
vt 0.195001 0.080829
vt 0.191274 0.089826
vt 0.184388 0.096711
vt 0.175392 0.100438
vt 0.165654 0.100438
vt 0.156657 0.096711
s 0
usemtl aged_brass
f 1/1/1 2/2/1 4/3/1 3/4/1
f 3/5/2 4/6/2 6/7/2 5/8/2
f 5/8/3 6/7/3 8/9/3 7/10/3
f 7/10/4 8/9/4 10/11/4 9/12/4
f 9/12/5 10/11/5 12/13/5 11/14/5
f 11/15/6 12/16/6 14/17/6 13/18/6
f 13/18/7 14/17/7 16/19/7 15/20/7
f 15/20/8 16/19/8 18/21/8 17/22/8
f 17/22/9 18/21/9 20/23/9 19/24/9
f 19/25/10 20/26/10 22/27/10 21/28/10
f 21/28/11 22/27/11 24/29/11 23/30/11
f 23/30/12 24/29/12 26/31/12 25/32/12
f 25/32/13 26/31/13 28/33/13 27/34/13
f 27/35/14 28/36/14 30/37/14 29/38/14
f 4/39/15 2/40/15 32/41/15 30/42/15 28/43/15 26/44/15 24/45/15 22/46/15 20/47/15 18/48/15 16/49/15 14/50/15 12/51/15 10/52/15 8/53/15 6/54/15
f 29/38/16 30/37/16 32/55/16 31/56/16
f 31/56/17 32/55/17 2/2/17 1/1/17
f 1/57/18 3/58/18 5/59/18 7/60/18 9/61/18 11/62/18 13/63/18 15/64/18 17/65/18 19/66/18 21/67/18 23/68/18 25/69/18 27/70/18 29/71/18 31/72/18
f 33/1/16 34/2/16 36/3/16 35/4/16
f 35/5/17 36/6/17 38/7/17 37/8/17
f 37/8/1 38/7/1 40/9/1 39/10/1
f 39/10/2 40/9/2 42/11/2 41/12/2
f 41/12/3 42/11/3 44/13/3 43/14/3
f 43/15/4 44/16/4 46/17/4 45/18/4
f 45/18/5 46/17/5 48/19/5 47/20/5
f 47/20/6 48/19/6 50/21/6 49/22/6
f 49/22/7 50/21/7 52/23/7 51/24/7
f 51/25/8 52/26/8 54/27/8 53/28/8
f 53/28/9 54/27/9 56/29/9 55/30/9
f 55/30/10 56/29/10 58/31/10 57/32/10
f 57/32/11 58/31/11 60/33/11 59/34/11
f 59/35/12 60/36/12 62/37/12 61/38/12
f 36/39/15 34/40/15 64/41/15 62/42/15 60/43/15 58/44/15 56/45/15 54/46/15 52/47/15 50/48/15 48/49/15 46/50/15 44/51/15 42/52/15 40/53/15 38/54/15
f 61/38/13 62/37/13 64/55/13 63/56/13
f 63/56/14 64/55/14 34/2/14 33/1/14
f 33/57/18 35/58/18 37/59/18 39/60/18 41/61/18 43/62/18 45/63/18 47/64/18 49/65/18 51/66/18 53/67/18 55/68/18 57/69/18 59/70/18 61/71/18 63/72/18
f 65/1/13 66/2/13 68/3/13 67/4/13
f 67/5/14 68/6/14 70/7/14 69/8/14
f 69/8/16 70/7/16 72/9/16 71/10/16
f 71/10/17 72/9/17 74/11/17 73/12/17
f 73/12/1 74/11/1 76/13/1 75/14/1
f 75/15/2 76/16/2 78/17/2 77/18/2
f 77/18/3 78/17/3 80/19/3 79/20/3
f 79/20/4 80/19/4 82/21/4 81/22/4
f 81/22/5 82/21/5 84/23/5 83/24/5
f 83/25/6 84/26/6 86/27/6 85/28/6
f 85/28/7 86/27/7 88/29/7 87/30/7
f 87/30/8 88/29/8 90/31/8 89/32/8
f 89/32/9 90/31/9 92/33/9 91/34/9
f 91/35/10 92/36/10 94/37/10 93/38/10
f 68/39/15 66/40/15 96/41/15 94/42/15 92/43/15 90/44/15 88/45/15 86/46/15 84/47/15 82/48/15 80/49/15 78/50/15 76/51/15 74/52/15 72/53/15 70/54/15
f 93/38/11 94/37/11 96/55/11 95/56/11
f 95/56/12 96/55/12 66/2/12 65/1/12
f 65/57/18 67/58/18 69/59/18 71/60/18 73/61/18 75/62/18 77/63/18 79/64/18 81/65/18 83/66/18 85/67/18 87/68/18 89/69/18 91/70/18 93/71/18 95/72/18
f 97/1/11 98/2/11 100/3/11 99/4/11
f 99/5/12 100/6/12 102/7/12 101/8/12
f 101/8/13 102/7/13 104/9/13 103/10/13
f 103/10/14 104/9/14 106/11/14 105/12/14
f 105/12/16 106/11/16 108/13/16 107/14/16
f 107/15/17 108/16/17 110/17/17 109/18/17
f 109/18/1 110/17/1 112/19/1 111/20/1
f 111/20/2 112/19/2 114/21/2 113/22/2
f 113/22/3 114/21/3 116/23/3 115/24/3
f 115/25/4 116/26/4 118/27/4 117/28/4
f 117/28/5 118/27/5 120/29/5 119/30/5
f 119/30/6 120/29/6 122/31/6 121/32/6
f 121/32/7 122/31/7 124/33/7 123/34/7
f 123/35/8 124/36/8 126/37/8 125/38/8
f 100/39/15 98/40/15 128/41/15 126/42/15 124/43/15 122/44/15 120/45/15 118/46/15 116/47/15 114/48/15 112/49/15 110/50/15 108/51/15 106/52/15 104/53/15 102/54/15
f 125/38/9 126/37/9 128/55/9 127/56/9
f 127/56/10 128/55/10 98/2/10 97/1/10
f 97/57/18 99/58/18 101/59/18 103/60/18 105/61/18 107/62/18 109/63/18 111/64/18 113/65/18 115/66/18 117/67/18 119/68/18 121/69/18 123/70/18 125/71/18 127/72/18
f 129/1/9 130/2/9 132/3/9 131/4/9
f 131/5/10 132/6/10 134/7/10 133/8/10
f 133/8/11 134/7/11 136/9/11 135/10/11
f 135/10/12 136/9/12 138/11/12 137/12/12
f 137/12/13 138/11/13 140/13/13 139/14/13
f 139/15/14 140/16/14 142/17/14 141/18/14
f 141/18/16 142/17/16 144/19/16 143/20/16
f 143/20/17 144/19/17 146/21/17 145/22/17
f 145/22/1 146/21/1 148/23/1 147/24/1
f 147/25/2 148/26/2 150/27/2 149/28/2
f 149/28/3 150/27/3 152/29/3 151/30/3
f 151/30/4 152/29/4 154/31/4 153/32/4
f 153/32/5 154/31/5 156/33/5 155/34/5
f 155/35/6 156/36/6 158/37/6 157/38/6
f 132/39/15 130/40/15 160/41/15 158/42/15 156/43/15 154/44/15 152/45/15 150/46/15 148/47/15 146/48/15 144/49/15 142/50/15 140/51/15 138/52/15 136/53/15 134/54/15
f 157/38/7 158/37/7 160/55/7 159/56/7
f 159/56/8 160/55/8 130/2/8 129/1/8
f 129/57/18 131/58/18 133/59/18 135/60/18 137/61/18 139/62/18 141/63/18 143/64/18 145/65/18 147/66/18 149/67/18 151/68/18 153/69/18 155/70/18 157/71/18 159/72/18
f 161/1/7 162/2/7 164/3/7 163/4/7
f 163/5/8 164/6/8 166/7/8 165/8/8
f 165/8/9 166/7/9 168/9/9 167/10/9
f 167/10/10 168/9/10 170/11/10 169/12/10
f 169/12/11 170/11/11 172/13/11 171/14/11
f 171/15/12 172/16/12 174/17/12 173/18/12
f 173/18/13 174/17/13 176/19/13 175/20/13
f 175/20/14 176/19/14 178/21/14 177/22/14
f 177/22/16 178/21/16 180/23/16 179/24/16
f 179/25/17 180/26/17 182/27/17 181/28/17
f 181/28/1 182/27/1 184/29/1 183/30/1
f 183/30/2 184/29/2 186/31/2 185/32/2
f 185/32/3 186/31/3 188/33/3 187/34/3
f 187/35/4 188/36/4 190/37/4 189/38/4
f 164/39/15 162/40/15 192/41/15 190/42/15 188/43/15 186/44/15 184/45/15 182/46/15 180/47/15 178/48/15 176/49/15 174/50/15 172/51/15 170/52/15 168/53/15 166/54/15
f 189/38/5 190/37/5 192/55/5 191/56/5
f 191/56/6 192/55/6 162/2/6 161/1/6
f 161/57/18 163/58/18 165/59/18 167/60/18 169/61/18 171/62/18 173/63/18 175/64/18 177/65/18 179/66/18 181/67/18 183/68/18 185/69/18 187/70/18 189/71/18 191/72/18
f 193/1/5 194/2/5 196/3/5 195/4/5
f 195/5/6 196/6/6 198/7/6 197/8/6
f 197/8/7 198/7/7 200/9/7 199/10/7
f 199/10/8 200/9/8 202/11/8 201/12/8
f 201/12/9 202/11/9 204/13/9 203/14/9
f 203/15/10 204/16/10 206/17/10 205/18/10
f 205/18/11 206/17/11 208/19/11 207/20/11
f 207/20/12 208/19/12 210/21/12 209/22/12
f 209/22/13 210/21/13 212/23/13 211/24/13
f 211/25/14 212/26/14 214/27/14 213/28/14
f 213/28/16 214/27/16 216/29/16 215/30/16
f 215/30/17 216/29/17 218/31/17 217/32/17
f 217/32/1 218/31/1 220/33/1 219/34/1
f 219/35/2 220/36/2 222/37/2 221/38/2
f 196/39/15 194/40/15 224/41/15 222/42/15 220/43/15 218/44/15 216/45/15 214/46/15 212/47/15 210/48/15 208/49/15 206/50/15 204/51/15 202/52/15 200/53/15 198/54/15
f 221/38/3 222/37/3 224/55/3 223/56/3
f 223/56/4 224/55/4 194/2/4 193/1/4
f 193/57/18 195/58/18 197/59/18 199/60/18 201/61/18 203/62/18 205/63/18 207/64/18 209/65/18 211/66/18 213/67/18 215/68/18 217/69/18 219/70/18 221/71/18 223/72/18
f 225/1/3 226/2/3 228/3/3 227/4/3
f 227/5/4 228/6/4 230/7/4 229/8/4
f 229/8/5 230/7/5 232/9/5 231/10/5
f 231/10/6 232/9/6 234/11/6 233/12/6
f 233/12/7 234/11/7 236/13/7 235/14/7
f 235/15/8 236/16/8 238/17/8 237/18/8
f 237/18/9 238/17/9 240/19/9 239/20/9
f 239/20/10 240/19/10 242/21/10 241/22/10
f 241/22/11 242/21/11 244/23/11 243/24/11
f 243/25/12 244/26/12 246/27/12 245/28/12
f 245/28/13 246/27/13 248/29/13 247/30/13
f 247/30/14 248/29/14 250/31/14 249/32/14
f 249/32/16 250/31/16 252/33/16 251/34/16
f 251/35/17 252/36/17 254/37/17 253/38/17
f 228/39/15 226/40/15 256/41/15 254/42/15 252/43/15 250/44/15 248/45/15 246/46/15 244/47/15 242/48/15 240/49/15 238/50/15 236/51/15 234/52/15 232/53/15 230/54/15
f 253/38/1 254/37/1 256/55/1 255/56/1
f 255/56/2 256/55/2 226/2/2 225/1/2
f 225/57/18 227/58/18 229/59/18 231/60/18 233/61/18 235/62/18 237/63/18 239/64/18 241/65/18 243/66/18 245/67/18 247/68/18 249/69/18 251/70/18 253/71/18 255/72/18
