# Blender 5.0.1
# www.blender.org
mtllib BB_PROP_IronBracket.mtl
o BB_PROP_IronBracket
v 1.960000 4.010000 -0.050000
v 1.960000 4.000000 -0.040000
v 1.950000 4.010000 -0.040000
v 1.960000 4.005007 -0.048664
v 1.955007 4.010000 -0.048664
v 1.955218 4.005218 -0.047366
v 1.955007 4.001336 -0.040000
v 1.960000 4.001336 -0.044993
v 1.955218 4.002634 -0.044782
v 1.951336 4.010000 -0.044993
v 1.951336 4.005007 -0.040000
v 1.952634 4.005218 -0.044782
v 1.960000 4.000000 0.040000
v 1.960000 4.010000 0.050000
v 1.950000 4.010000 0.040000
v 1.960000 4.001336 0.044993
v 1.955007 4.001336 0.040000
v 1.955218 4.002634 0.044782
v 1.955007 4.010000 0.048664
v 1.960000 4.005007 0.048664
v 1.955218 4.005218 0.047366
v 1.951336 4.005007 0.040000
v 1.951336 4.010000 0.044993
v 1.952634 4.005218 0.044782
v 1.960000 4.490000 -0.050000
v 1.950000 4.490000 -0.040000
v 1.960000 4.500000 -0.040000
v 1.955007 4.490000 -0.048664
v 1.960000 4.494993 -0.048664
v 1.955218 4.494782 -0.047366
v 1.951336 4.494993 -0.040000
v 1.951336 4.490000 -0.044993
v 1.952634 4.494782 -0.044782
v 1.960000 4.498664 -0.044993
v 1.955007 4.498664 -0.040000
v 1.955218 4.497366 -0.044782
v 1.960000 4.490000 0.050000
v 1.960000 4.500000 0.040000
v 1.950000 4.490000 0.040000
v 1.960000 4.494993 0.048664
v 1.955007 4.490000 0.048664
v 1.955218 4.494782 0.047366
v 1.955007 4.498664 0.040000
v 1.960000 4.498664 0.044993
v 1.955218 4.497366 0.044782
v 1.951336 4.490000 0.044993
v 1.951336 4.494993 0.040000
v 1.952634 4.494782 0.044782
v 2.040000 4.010000 -0.050000
v 2.050000 4.010000 -0.040000
v 2.040000 4.000000 -0.040000
v 2.044993 4.010000 -0.048664
v 2.040000 4.005007 -0.048664
v 2.044782 4.005218 -0.047366
v 2.048664 4.005007 -0.040000
v 2.048664 4.010000 -0.044993
v 2.047366 4.005218 -0.044782
v 2.040000 4.001336 -0.044993
v 2.044993 4.001336 -0.040000
v 2.044782 4.002634 -0.044782
v 2.040000 4.010000 0.050000
v 2.040000 4.000000 0.040000
v 2.050000 4.010000 0.040000
v 2.040000 4.005007 0.048664
v 2.044993 4.010000 0.048664
v 2.044782 4.005218 0.047366
v 2.044993 4.001336 0.040000
v 2.040000 4.001336 0.044993
v 2.044782 4.002634 0.044782
v 2.048664 4.010000 0.044993
v 2.048664 4.005007 0.040000
v 2.047366 4.005218 0.044782
v 2.040000 4.490000 -0.050000
v 2.040000 4.500000 -0.040000
v 2.050000 4.490000 -0.040000
v 2.040000 4.494993 -0.048664
v 2.044993 4.490000 -0.048664
v 2.044782 4.494782 -0.047366
v 2.044993 4.498664 -0.040000
v 2.040000 4.498664 -0.044993
v 2.044782 4.497366 -0.044782
v 2.048664 4.490000 -0.044993
v 2.048664 4.494993 -0.040000
v 2.047366 4.494782 -0.044782
v 2.040000 4.490000 0.050000
v 2.050000 4.490000 0.040000
v 2.040000 4.500000 0.040000
v 2.044993 4.490000 0.048664
v 2.040000 4.494993 0.048664
v 2.044782 4.494782 0.047366
v 2.048664 4.494993 0.040000
v 2.048664 4.490000 0.044993
v 2.047366 4.494782 0.044782
v 2.040000 4.498664 0.044993
v 2.044993 4.498664 0.040000
v 2.044782 4.497366 0.044782
v 1.960000 4.010000 -0.400000
v 1.960000 4.000000 -0.390000
v 1.950000 4.010000 -0.390000
v 1.960000 4.005007 -0.398664
v 1.955007 4.010000 -0.398664
v 1.955218 4.005218 -0.397366
v 1.955007 4.001336 -0.390000
v 1.960000 4.001336 -0.394993
v 1.955218 4.002634 -0.394782
v 1.951336 4.010000 -0.394993
v 1.951336 4.005007 -0.390000
v 1.952634 4.005218 -0.394782
v 1.960000 4.000000 -0.010000
v 1.960000 4.010000 0.000000
v 1.950000 4.010000 -0.010000
v 1.960000 4.001336 -0.005007
v 1.955007 4.001336 -0.010000
v 1.955218 4.002634 -0.005218
v 1.955007 4.010000 -0.001336
v 1.960000 4.005007 -0.001336
v 1.955218 4.005218 -0.002634
v 1.951336 4.005007 -0.010000
v 1.951336 4.010000 -0.005007
v 1.952634 4.005218 -0.005218
v 1.960000 4.090000 -0.400000
v 1.950000 4.090000 -0.390000
v 1.960000 4.100000 -0.390000
v 1.955007 4.090000 -0.398664
v 1.960000 4.094994 -0.398664
v 1.955218 4.094782 -0.397366
v 1.951336 4.094994 -0.390000
v 1.951336 4.090000 -0.394993
v 1.952634 4.094782 -0.394782
v 1.960000 4.098664 -0.394993
v 1.955007 4.098664 -0.390000
v 1.955218 4.097366 -0.394782
v 1.960000 4.090000 0.000000
v 1.960000 4.100000 -0.010000
v 1.950000 4.090000 -0.010000
v 1.960000 4.094994 -0.001336
v 1.955007 4.090000 -0.001336
v 1.955218 4.094782 -0.002634
v 1.955007 4.098664 -0.010000
v 1.960000 4.098664 -0.005007
v 1.955218 4.097366 -0.005218
v 1.951336 4.090000 -0.005007
v 1.951336 4.094994 -0.010000
v 1.952634 4.094782 -0.005218
v 2.040000 4.010000 -0.400000
v 2.050000 4.010000 -0.390000
v 2.040000 4.000000 -0.390000
v 2.044993 4.010000 -0.398664
v 2.040000 4.005007 -0.398664
v 2.044782 4.005218 -0.397366
v 2.048664 4.005007 -0.390000
v 2.048664 4.010000 -0.394993
v 2.047366 4.005218 -0.394782
v 2.040000 4.001336 -0.394993
v 2.044993 4.001336 -0.390000
v 2.044782 4.002634 -0.394782
v 2.040000 4.010000 0.000000
v 2.040000 4.000000 -0.010000
v 2.050000 4.010000 -0.010000
v 2.040000 4.005007 -0.001336
v 2.044993 4.010000 -0.001336
v 2.044782 4.005218 -0.002634
v 2.044993 4.001336 -0.010000
v 2.040000 4.001336 -0.005007
v 2.044782 4.002634 -0.005218
v 2.048664 4.010000 -0.005007
v 2.048664 4.005007 -0.010000
v 2.047366 4.005218 -0.005218
v 2.040000 4.090000 -0.400000
v 2.040000 4.100000 -0.390000
v 2.050000 4.090000 -0.390000
v 2.040000 4.094994 -0.398664
v 2.044993 4.090000 -0.398664
v 2.044782 4.094782 -0.397366
v 2.044993 4.098664 -0.390000
v 2.040000 4.098664 -0.394993
v 2.044782 4.097366 -0.394782
v 2.048664 4.090000 -0.394993
v 2.048664 4.094994 -0.390000
v 2.047366 4.094782 -0.394782
v 2.040000 4.090000 0.000000
v 2.050000 4.090000 -0.010000
v 2.040000 4.100000 -0.010000
v 2.044993 4.090000 -0.001336
v 2.040000 4.094994 -0.001336
v 2.044782 4.094782 -0.002634
v 2.048664 4.094994 -0.010000
v 2.048664 4.090000 -0.005007
v 2.047366 4.094782 -0.005218
v 2.040000 4.098664 -0.005007
v 2.044993 4.098664 -0.010000
v 2.044782 4.097366 -0.005218
v 1.985000 4.152071 -0.317929
v 1.985000 4.137929 -0.317929
v 1.975000 4.145000 -0.310858
v 1.985000 4.147595 -0.320515
v 1.980007 4.151126 -0.316984
v 1.980218 4.146827 -0.319448
v 1.980007 4.138874 -0.316984
v 1.985000 4.142405 -0.320515
v 1.980218 4.143173 -0.319448
v 1.976336 4.148531 -0.314389
v 1.976336 4.141469 -0.314389
v 1.977634 4.145000 -0.317621
v 1.985000 4.082071 -0.262071
v 1.985000 4.082071 -0.247929
v 1.975000 4.089142 -0.255000
v 1.985000 4.079485 -0.257596
v 1.980007 4.083016 -0.261126
v 1.980218 4.080552 -0.256827
v 1.980007 4.083016 -0.248874
v 1.985000 4.079485 -0.252404
v 1.980218 4.080552 -0.253173
v 1.976336 4.085611 -0.258531
v 1.976336 4.085611 -0.251469
v 1.977634 4.082379 -0.255000
v 1.985000 4.417929 -0.052071
v 1.975000 4.410858 -0.045000
v 1.985000 4.417929 -0.037929
v 1.980007 4.416984 -0.051126
v 1.985000 4.420515 -0.047596
v 1.980218 4.419448 -0.046827
v 1.976336 4.414389 -0.041469
v 1.976336 4.414389 -0.048531
v 1.977634 4.417621 -0.045000
v 1.985000 4.420515 -0.042404
v 1.980007 4.416984 -0.038874
v 1.980218 4.419448 -0.043173
v 1.985000 4.347929 0.017929
v 1.985000 4.362071 0.017929
v 1.975000 4.355000 0.010858
v 1.985000 4.352405 0.020515
v 1.980007 4.348874 0.016984
v 1.980218 4.353173 0.019448
v 1.980007 4.361126 0.016984
v 1.985000 4.357595 0.020515
v 1.980218 4.356827 0.019448
v 1.976336 4.351469 0.014389
v 1.976336 4.358531 0.014389
v 1.977634 4.355000 0.017621
v 2.015000 4.152071 -0.317929
v 2.025000 4.145000 -0.310858
v 2.015000 4.137929 -0.317929
v 2.019994 4.151126 -0.316984
v 2.015000 4.147595 -0.320515
v 2.019782 4.146827 -0.319448
v 2.023664 4.141469 -0.314389
v 2.023664 4.148531 -0.314389
v 2.022366 4.145000 -0.317621
v 2.015000 4.142405 -0.320515
v 2.019994 4.138874 -0.316984
v 2.019782 4.143173 -0.319448
v 2.015000 4.082071 -0.247929
v 2.015000 4.082071 -0.262071
v 2.025000 4.089142 -0.255000
v 2.015000 4.079485 -0.252404
v 2.019994 4.083016 -0.248874
v 2.019782 4.080552 -0.253173
v 2.019994 4.083016 -0.261126
v 2.015000 4.079485 -0.257596
v 2.019782 4.080552 -0.256827
v 2.023664 4.085611 -0.251469
v 2.023664 4.085611 -0.258531
v 2.022366 4.082379 -0.255000
v 2.015000 4.417929 -0.052071
v 2.015000 4.417929 -0.037929
v 2.025000 4.410858 -0.045000
v 2.015000 4.420515 -0.047596
v 2.019994 4.416984 -0.051126
v 2.019782 4.419448 -0.046827
v 2.019994 4.416984 -0.038874
v 2.015000 4.420515 -0.042404
v 2.019782 4.419448 -0.043173
v 2.023664 4.414389 -0.048531
v 2.023664 4.414389 -0.041469
v 2.022366 4.417621 -0.045000
v 2.015000 4.347929 0.017929
v 2.025000 4.355000 0.010858
v 2.015000 4.362071 0.017929
v 2.019994 4.348874 0.016984
v 2.015000 4.352405 0.020515
v 2.019782 4.353173 0.019448
v 2.023664 4.358531 0.014389
v 2.023664 4.351469 0.014389
v 2.022366 4.355000 0.017621
v 2.015000 4.357595 0.020515
v 2.019994 4.361126 0.016984
v 2.019782 4.356827 0.019448
vn -0.1296 -0.1296 -0.9831
vn -0.1296 -0.9831 -0.1296
vn -0.9831 -0.1296 -0.1296
vn -0.1216 -0.4915 -0.8623
vn -0.4915 -0.1216 -0.8623
vn -0.4473 -0.4473 -0.7744
vn -0.4915 -0.8623 -0.1216
vn -0.1216 -0.8623 -0.4915
vn -0.4473 -0.7744 -0.4473
vn -0.8623 -0.1216 -0.4915
vn -0.8623 -0.4915 -0.1216
vn -0.7744 -0.4473 -0.4473
vn -0.1296 -0.9831 0.1296
vn -0.1296 -0.1296 0.9831
vn -0.9831 -0.1296 0.1296
vn -0.1216 -0.8623 0.4915
vn -0.4915 -0.8623 0.1216
vn -0.4473 -0.7744 0.4473
vn -0.4915 -0.1216 0.8623
vn -0.1216 -0.4915 0.8623
vn -0.4473 -0.4473 0.7744
vn -0.8623 -0.4915 0.1216
vn -0.8623 -0.1216 0.4915
vn -0.7744 -0.4473 0.4473
vn -0.1296 0.1296 -0.9831
vn -0.9831 0.1296 -0.1296
vn -0.1296 0.9831 -0.1296
vn -0.4915 0.1216 -0.8623
vn -0.1216 0.4915 -0.8623
vn -0.4473 0.4473 -0.7744
vn -0.8623 0.4915 -0.1216
vn -0.8623 0.1216 -0.4915
vn -0.7744 0.4473 -0.4473
vn -0.1216 0.8623 -0.4915
vn -0.4915 0.8623 -0.1216
vn -0.4473 0.7744 -0.4473
vn -0.1296 0.1296 0.9831
vn -0.1296 0.9831 0.1296
vn -0.9831 0.1296 0.1296
vn -0.1216 0.4915 0.8623
vn -0.4915 0.1216 0.8623
vn -0.4473 0.4473 0.7744
vn -0.4915 0.8623 0.1216
vn -0.1216 0.8623 0.4915
vn -0.4473 0.7744 0.4473
vn -0.8623 0.1216 0.4915
vn -0.8623 0.4915 0.1216
vn -0.7744 0.4473 0.4473
vn 0.1296 -0.1296 -0.9831
vn 0.9831 -0.1296 -0.1296
vn 0.1296 -0.9831 -0.1296
vn 0.4915 -0.1216 -0.8623
vn 0.1216 -0.4915 -0.8623
vn 0.4473 -0.4473 -0.7744
vn 0.8623 -0.4915 -0.1216
vn 0.8623 -0.1216 -0.4915
vn 0.7744 -0.4473 -0.4473
vn 0.1216 -0.8623 -0.4915
vn 0.4915 -0.8623 -0.1216
vn 0.4473 -0.7744 -0.4473
vn 0.1296 -0.1296 0.9831
vn 0.1296 -0.9831 0.1296
vn 0.9831 -0.1296 0.1296
vn 0.1216 -0.4915 0.8623
vn 0.4915 -0.1216 0.8623
vn 0.4473 -0.4473 0.7744
vn 0.4915 -0.8623 0.1216
vn 0.1216 -0.8623 0.4915
vn 0.4473 -0.7744 0.4473
vn 0.8623 -0.1216 0.4915
vn 0.8623 -0.4915 0.1216
vn 0.7744 -0.4473 0.4473
vn 0.1296 0.1296 -0.9831
vn 0.1296 0.9831 -0.1296
vn 0.9831 0.1296 -0.1296
vn 0.1216 0.4915 -0.8623
vn 0.4915 0.1216 -0.8623
vn 0.4473 0.4473 -0.7744
vn 0.4915 0.8623 -0.1216
vn 0.1216 0.8623 -0.4915
vn 0.4473 0.7744 -0.4473
vn 0.8623 0.1216 -0.4915
vn 0.8623 0.4915 -0.1216
vn 0.7744 0.4473 -0.4473
vn 0.1296 0.1296 0.9831
vn 0.9831 0.1296 0.1296
vn 0.1296 0.9831 0.1296
vn 0.4915 0.1216 0.8623
vn 0.1216 0.4915 0.8623
vn 0.4473 0.4473 0.7744
vn 0.8623 0.4915 0.1216
vn 0.8623 0.1216 0.4915
vn 0.7744 0.4473 0.4473
vn 0.1216 0.8623 0.4915
vn 0.4915 0.8623 0.1216
vn 0.4473 0.7744 0.4473
vn 0.4474 -0.7744 -0.4473
vn -0.1296 0.6035 -0.7868
vn -0.1296 -0.6035 -0.7868
vn -0.9831 -0.0000 -0.1833
vn -0.1216 0.2622 -0.9573
vn -0.4915 0.5238 -0.6957
vn -0.4473 0.2313 -0.8639
vn -0.4915 -0.5238 -0.6957
vn -0.1216 -0.2622 -0.9573
vn -0.4473 -0.2313 -0.8639
vn -0.8623 0.2616 -0.4335
vn -0.8623 -0.2616 -0.4335
vn -0.7744 -0.0000 -0.6326
vn -0.1296 -0.7868 -0.6035
vn -0.1296 -0.7868 0.6035
vn -0.9831 -0.1833 -0.0000
vn -0.1216 -0.9573 -0.2622
vn -0.4915 -0.6957 -0.5238
vn -0.4473 -0.8639 -0.2313
vn -0.4915 -0.6957 0.5238
vn -0.1216 -0.9573 0.2622
vn -0.4473 -0.8639 0.2313
vn -0.8623 -0.4335 -0.2616
vn -0.8623 -0.4335 0.2616
vn -0.7744 -0.6326 -0.0000
vn -0.1296 0.7868 -0.6035
vn -0.9831 0.1833 -0.0000
vn -0.1296 0.7868 0.6035
vn -0.4915 0.6957 -0.5238
vn -0.1216 0.9573 -0.2622
vn -0.4473 0.8639 -0.2313
vn -0.8623 0.4335 0.2616
vn -0.8623 0.4335 -0.2616
vn -0.7744 0.6326 -0.0000
vn -0.1216 0.9573 0.2622
vn -0.4915 0.6957 0.5238
vn -0.4474 0.8639 0.2313
vn -0.1296 -0.6035 0.7868
vn -0.1296 0.6035 0.7868
vn -0.9831 -0.0000 0.1833
vn -0.1216 -0.2622 0.9573
vn -0.4915 -0.5238 0.6957
vn -0.4473 -0.2313 0.8639
vn -0.4915 0.5238 0.6957
vn -0.1216 0.2622 0.9573
vn -0.4473 0.2313 0.8639
vn -0.8623 -0.2616 0.4335
vn -0.8623 0.2616 0.4335
vn -0.7744 -0.0000 0.6326
vn 0.1296 0.6035 -0.7868
vn 0.9831 -0.0000 -0.1833
vn 0.1296 -0.6035 -0.7868
vn 0.4915 0.5238 -0.6957
vn 0.1216 0.2622 -0.9573
vn 0.4473 0.2313 -0.8639
vn 0.8623 -0.2616 -0.4335
vn 0.8623 0.2616 -0.4335
vn 0.7744 -0.0000 -0.6326
vn 0.1216 -0.2622 -0.9573
vn 0.4915 -0.5238 -0.6957
vn 0.4473 -0.2313 -0.8639
vn 0.1296 -0.7868 0.6035
vn 0.1296 -0.7868 -0.6035
vn 0.9831 -0.1833 -0.0000
vn 0.1216 -0.9573 0.2622
vn 0.4915 -0.6957 0.5238
vn 0.4473 -0.8639 0.2313
vn 0.4915 -0.6957 -0.5238
vn 0.1216 -0.9573 -0.2622
vn 0.4473 -0.8639 -0.2313
vn 0.8623 -0.4335 0.2616
vn 0.8623 -0.4335 -0.2616
vn 0.7744 -0.6326 -0.0000
vn 0.1296 0.7868 -0.6035
vn 0.1296 0.7868 0.6035
vn 0.9831 0.1833 -0.0000
vn 0.1216 0.9573 -0.2622
vn 0.4915 0.6957 -0.5238
vn 0.4474 0.8639 -0.2313
vn 0.4915 0.6957 0.5238
vn 0.1216 0.9573 0.2622
vn 0.4473 0.8639 0.2313
vn 0.8623 0.4335 -0.2616
vn 0.8623 0.4335 0.2616
vn 0.7744 0.6326 -0.0000
vn 0.1296 -0.6035 0.7868
vn 0.9831 -0.0000 0.1833
vn 0.1296 0.6035 0.7868
vn 0.4915 -0.5238 0.6957
vn 0.1216 -0.2622 0.9573
vn 0.4473 -0.2313 0.8639
vn 0.8623 0.2616 0.4335
vn 0.8623 -0.2616 0.4335
vn 0.7744 -0.0000 0.6326
vn 0.1216 0.2622 0.9573
vn 0.4915 0.5238 0.6957
vn 0.4473 0.2313 0.8639
vt 0.800487 0.435024
vt 0.800487 0.443834
vt 0.794529 0.443834
vt 0.794265 0.435024
vt 0.747433 0.515762
vt 0.743022 0.515762
vt 0.742836 0.509803
vt 0.747433 0.509803
vt 0.738623 0.515762
vt 0.738622 0.509540
vt 0.738623 0.503302
vt 0.742836 0.503302
vt 0.115443 0.613849
vt 0.127903 0.613849
vt 0.121402 0.626309
vt 0.115443 0.626309
vt 0.788027 0.435024
vt 0.788027 0.443834
vt 0.668137 0.515762
vt 0.659327 0.515762
vt 0.659327 0.509803
vt 0.668137 0.509540
vt 0.900168 0.890970
vt 0.900168 0.886559
vt 0.906127 0.886373
vt 0.906127 0.890970
vt 0.900168 0.882160
vt 0.906390 0.882160
vt 0.912628 0.882160
vt 0.912628 0.886373
vt 0.015762 0.613849
vt 0.015762 0.626309
vt 0.003302 0.619807
vt 0.003302 0.613849
vt 0.668137 0.503302
vt 0.659327 0.503302
vt 0.800487 0.012112
vt 0.794265 0.012112
vt 0.794529 0.007899
vt 0.800487 0.007713
vt 0.788027 0.012112
vt 0.788027 0.007899
vt 0.115443 0.015762
vt 0.115443 0.009540
vt 0.127903 0.009803
vt 0.127903 0.015762
vt 0.115443 0.003302
vt 0.127903 0.003302
vt 0.082598 0.745054
vt 0.091408 0.745054
vt 0.091408 0.751012
vt 0.082598 0.757514
vt 0.800487 0.003302
vt 0.794529 0.003302
vt 0.900168 0.459249
vt 0.900168 0.454849
vt 0.906127 0.455035
vt 0.906390 0.459249
vt 0.900168 0.450438
vt 0.906127 0.450438
vt 0.012112 0.745054
vt 0.012112 0.757514
vt 0.003302 0.751012
vt 0.003302 0.745054
vt 0.015762 0.003302
vt 0.015762 0.009540
vt 0.003302 0.009803
vt 0.003302 0.003302
vt 0.015762 0.015762
vt 0.003302 0.015762
vt 0.912628 0.459249
vt 0.912628 0.455035
vt 0.900168 0.435024
vt 0.912628 0.435024
vt 0.912628 0.439237
vt 0.900168 0.443834
vt 0.259108 0.015762
vt 0.252870 0.015762
vt 0.252607 0.009803
vt 0.259108 0.009803
vt 0.246648 0.015762
vt 0.246648 0.009540
vt 0.246648 0.003302
vt 0.252607 0.003302
vt 0.738622 0.615443
vt 0.743022 0.615443
vt 0.742836 0.627903
vt 0.738623 0.627903
vt 0.747433 0.615443
vt 0.747433 0.627903
vt 0.800487 0.882160
vt 0.800487 0.886559
vt 0.794529 0.886373
vt 0.794265 0.882160
vt 0.800487 0.890970
vt 0.794529 0.890970
vt 0.668137 0.615443
vt 0.668137 0.627903
vt 0.659327 0.621402
vt 0.659327 0.615443
vt 0.146967 0.003302
vt 0.146967 0.009540
vt 0.134507 0.009803
vt 0.134507 0.003302
vt 0.146967 0.015762
vt 0.134507 0.015762
vt 0.788027 0.882160
vt 0.788027 0.886373
vt 0.900168 0.012112
vt 0.900168 0.007713
vt 0.906127 0.007899
vt 0.912628 0.012112
vt 0.900168 0.003302
vt 0.906127 0.003302
vt 0.082598 0.645373
vt 0.082598 0.632913
vt 0.091408 0.639414
vt 0.091408 0.645373
vt 0.246648 0.626309
vt 0.246648 0.620071
vt 0.252607 0.619807
vt 0.259108 0.626309
vt 0.246648 0.613849
vt 0.252870 0.613849
vt 0.259108 0.613849
vt 0.255827 0.619807
vt 0.909347 0.007899
vt 0.800487 0.459249
vt 0.794265 0.459249
vt 0.794529 0.455035
vt 0.800487 0.454849
vt 0.788027 0.459249
vt 0.788027 0.455035
vt 0.146967 0.613849
vt 0.146967 0.620071
vt 0.134507 0.619807
vt 0.134507 0.613849
vt 0.146967 0.626309
vt 0.134507 0.626309
vt 0.012112 0.645373
vt 0.003302 0.645373
vt 0.003302 0.639414
vt 0.012112 0.632913
vt 0.800487 0.450438
vt 0.794529 0.450438
vt 0.476213 0.620452
vt 0.480612 0.620452
vt 0.480426 0.626411
vt 0.476213 0.626674
vt 0.485023 0.620452
vt 0.485023 0.626411
vt 0.640263 0.935024
vt 0.652723 0.935024
vt 0.646222 0.943834
vt 0.640263 0.943834
vt 0.265712 0.489247
vt 0.271950 0.489247
vt 0.272213 0.501707
vt 0.265712 0.501707
vt 0.278172 0.489247
vt 0.278172 0.501707
vt 0.476213 0.632912
vt 0.480426 0.632913
vt 0.640263 0.600219
vt 0.640263 0.595820
vt 0.646222 0.596006
vt 0.652723 0.600219
vt 0.640263 0.586997
vt 0.646222 0.589117
vt 0.640263 0.582598
vt 0.652723 0.582598
vt 0.278172 0.003302
vt 0.278172 0.009540
vt 0.272213 0.009803
vt 0.272213 0.006583
vt 0.278172 0.015762
vt 0.271950 0.015762
vt 0.265712 0.015762
vt 0.268993 0.009803
vt 0.649442 0.596006
vt 0.405727 0.620452
vt 0.405727 0.626674
vt 0.401514 0.626411
vt 0.401328 0.620452
vt 0.405727 0.632912
vt 0.401514 0.632912
vt 0.377853 0.489247
vt 0.384075 0.489247
vt 0.383812 0.501707
vt 0.377853 0.501707
vt 0.390313 0.489247
vt 0.390313 0.501707
vt 0.278172 0.851927
vt 0.278172 0.860737
vt 0.272213 0.860737
vt 0.265712 0.851926
vt 0.396917 0.620452
vt 0.396917 0.626411
vt 0.640263 0.512113
vt 0.640263 0.503302
vt 0.646222 0.503302
vt 0.652723 0.512113
vt 0.278172 0.508311
vt 0.278172 0.512722
vt 0.272213 0.512908
vt 0.272213 0.508311
vt 0.278172 0.517122
vt 0.265712 0.517122
vt 0.390313 0.015762
vt 0.384075 0.015762
vt 0.383812 0.009803
vt 0.387032 0.009803
vt 0.377853 0.015762
vt 0.377853 0.009540
vt 0.377853 0.003302
vt 0.390313 0.003302
vt 0.268993 0.512908
vt 0.476213 0.520771
vt 0.476213 0.514549
vt 0.480426 0.514813
vt 0.480612 0.520771
vt 0.476213 0.508311
vt 0.480426 0.508311
vt 0.509058 0.489247
vt 0.515280 0.489247
vt 0.515017 0.501707
vt 0.509058 0.501707
vt 0.521518 0.489247
vt 0.521518 0.501707
vt 0.540582 0.935024
vt 0.540582 0.943834
vt 0.534623 0.943834
vt 0.528122 0.935024
vt 0.485023 0.520771
vt 0.485023 0.514813
vt 0.540582 0.582598
vt 0.540582 0.586997
vt 0.534623 0.589117
vt 0.528122 0.582598
vt 0.540582 0.595820
vt 0.534623 0.596006
vt 0.540582 0.600219
vt 0.528122 0.600219
vt 0.521518 0.015762
vt 0.515280 0.015762
vt 0.515017 0.009803
vt 0.518237 0.009803
vt 0.509058 0.015762
vt 0.509058 0.009540
vt 0.509058 0.003302
vt 0.515017 0.006583
vt 0.531403 0.596006
vt 0.405727 0.520771
vt 0.401328 0.520771
vt 0.401514 0.514813
vt 0.405727 0.514549
vt 0.396917 0.520771
vt 0.396917 0.514813
vt 0.377853 0.851927
vt 0.384075 0.851926
vt 0.383812 0.860737
vt 0.377853 0.860737
vt 0.390313 0.851926
vt 0.390313 0.860737
vt 0.409377 0.489247
vt 0.409377 0.501707
vt 0.403418 0.501707
vt 0.396917 0.489247
vt 0.405727 0.508311
vt 0.401514 0.508311
vt 0.540582 0.512113
vt 0.528122 0.512113
vt 0.528122 0.507899
vt 0.540582 0.503302
vt 0.409377 0.003302
vt 0.409377 0.009540
vt 0.403418 0.009803
vt 0.403418 0.003302
vt 0.409377 0.015762
vt 0.396917 0.015762
vt 0.390313 0.517122
vt 0.384075 0.517122
vt 0.383812 0.512908
vt 0.387032 0.512908
vt 0.377853 0.517122
vt 0.377853 0.512722
vt 0.377853 0.508311
vt 0.390313 0.508311
vt 0.400198 0.009803
vt 0.931692 0.484238
vt 0.931692 0.496698
vt 0.925734 0.496698
vt 0.919232 0.484238
vt 0.147852 0.756262
vt 0.147852 0.750023
vt 0.153811 0.749760
vt 0.153811 0.756262
vt 0.147852 0.743801
vt 0.160312 0.743801
vt 0.639011 0.496698
vt 0.639011 0.490460
vt 0.644969 0.490197
vt 0.644969 0.493417
vt 0.639011 0.484238
vt 0.645233 0.484238
vt 0.651471 0.484238
vt 0.651471 0.496698
vt 0.157031 0.749760
vt 0.147852 0.645373
vt 0.147852 0.639151
vt 0.153811 0.639414
vt 0.160313 0.645373
vt 0.147852 0.632912
vt 0.153811 0.632912
vt 0.969073 0.984238
vt 0.981533 0.984238
vt 0.975031 0.996698
vt 0.969073 0.996698
vt 0.528122 0.484238
vt 0.534360 0.484238
vt 0.534623 0.490197
vt 0.528122 0.496698
vt 0.540582 0.484238
vt 0.540582 0.490460
vt 0.540582 0.496698
vt 0.534623 0.493417
vt 0.157031 0.639414
vt 0.931692 0.015762
vt 0.919232 0.015762
vt 0.919232 0.009803
vt 0.931692 0.003302
vt 0.651471 0.015762
vt 0.645233 0.015762
vt 0.644969 0.009803
vt 0.651471 0.009803
vt 0.639011 0.015762
vt 0.639011 0.009540
vt 0.639011 0.003302
vt 0.644969 0.003302
vt 0.179376 0.743801
vt 0.179376 0.750023
vt 0.166916 0.749760
vt 0.166916 0.743801
vt 0.179376 0.756262
vt 0.166916 0.756262
vt 0.969073 0.515762
vt 0.969073 0.503302
vt 0.975031 0.503302
vt 0.981533 0.515762
vt 0.179376 0.632913
vt 0.179376 0.639151
vt 0.173418 0.639414
vt 0.173418 0.632913
vt 0.179376 0.645373
vt 0.166916 0.645373
vt 0.540582 0.003302
vt 0.540582 0.009540
vt 0.534623 0.009803
vt 0.534623 0.006583
vt 0.540582 0.015762
vt 0.534360 0.015762
vt 0.528122 0.015762
vt 0.528122 0.003302
vt 0.170198 0.639414
vt 0.969073 0.484238
vt 0.981533 0.484238
vt 0.981533 0.490197
vt 0.969073 0.496698
vt 0.658074 0.484238
vt 0.664313 0.484238
vt 0.664576 0.490197
vt 0.658074 0.490197
vt 0.670534 0.484238
vt 0.670534 0.490460
vt 0.670534 0.496698
vt 0.664576 0.496698
vt 0.110472 0.743801
vt 0.110472 0.750023
vt 0.098012 0.749760
vt 0.098012 0.743801
vt 0.110472 0.756262
vt 0.098012 0.756262
vt 0.931692 0.984238
vt 0.931692 0.996698
vt 0.925734 0.996698
vt 0.919232 0.984238
vt 0.110472 0.632912
vt 0.110472 0.639151
vt 0.104513 0.639414
vt 0.104513 0.632912
vt 0.110472 0.645373
vt 0.098012 0.645373
vt 0.768963 0.496698
vt 0.768963 0.490460
vt 0.774922 0.490197
vt 0.774922 0.493417
vt 0.768963 0.484238
vt 0.775185 0.484238
vt 0.781423 0.484238
vt 0.781423 0.496698
vt 0.101293 0.639414
vt 0.969073 0.015762
vt 0.969073 0.003302
vt 0.975031 0.003302
vt 0.981533 0.015762
vt 0.216757 0.756262
vt 0.216757 0.750023
vt 0.222715 0.749760
vt 0.222715 0.756262
vt 0.216757 0.743801
vt 0.222978 0.743801
vt 0.229217 0.743801
vt 0.229217 0.749760
vt 0.670534 0.015762
vt 0.664312 0.015762
vt 0.664576 0.003302
vt 0.670534 0.003302
vt 0.658074 0.015762
vt 0.658074 0.003302
vt 0.931692 0.515762
vt 0.919232 0.515762
vt 0.919232 0.509803
vt 0.931692 0.503302
vt 0.781423 0.015762
vt 0.775185 0.015762
vt 0.774922 0.009803
vt 0.781423 0.009803
vt 0.768963 0.015762
vt 0.768963 0.003302
vt 0.229217 0.645373
vt 0.222978 0.645373
vt 0.222715 0.639414
vt 0.225935 0.639414
vt 0.216757 0.645373
vt 0.216757 0.639151
vt 0.216757 0.632913
vt 0.229217 0.632913
vt 0.774922 0.006583
s 1
usemtl BB_OxidizedIron
f 1/1/1 4/2/4 6/3/6 5/4/5
f 4/5/4 8/6/8 9/7/9 6/8/6
f 2/9/2 7/10/7 9/7/9 8/6/8
f 7/10/7 11/11/11 12/12/12 9/7/9
f 3/13/3 10/14/10 12/15/12 11/16/11
f 10/17/10 5/4/5 6/3/6 12/18/12
f 6/8/6 9/7/9 12/12/12
f 13/19/13 16/20/16 18/21/18 17/22/17
f 16/23/16 20/24/20 21/25/21 18/26/18
f 14/27/14 19/28/19 21/25/21 20/24/20
f 19/28/19 23/29/23 24/30/24 21/25/21
f 15/31/15 22/32/22 24/33/24 23/34/23
f 22/35/22 17/22/17 18/21/18 24/36/24
f 18/26/18 21/25/21 24/30/24
f 25/37/25 28/38/28 30/39/30 29/40/29
f 28/38/28 32/41/32 33/42/33 30/39/30
f 26/43/26 31/44/31 33/45/33 32/46/32
f 31/44/31 35/47/35 36/48/36 33/45/33
f 27/49/27 34/50/34 36/51/36 35/52/35
f 34/53/34 29/40/29 30/39/30 36/54/36
f 30/39/30 33/42/33 36/54/36
f 37/55/37 40/56/40 42/57/42 41/58/41
f 40/56/40 44/59/44 45/60/45 42/57/42
f 38/61/38 43/62/43 45/63/45 44/64/44
f 43/65/43 47/66/47 48/67/48 45/68/45
f 39/69/39 46/70/46 48/67/48 47/66/47
f 46/71/46 41/58/41 42/57/42 48/72/48
f 42/57/42 45/60/45 48/72/48
f 49/73/49 52/74/52 54/75/54 53/76/53
f 52/77/52 56/78/56 57/79/57 54/80/54
f 50/81/50 55/82/55 57/79/57 56/78/56
f 55/82/55 59/83/59 60/84/60 57/79/57
f 51/85/51 58/86/58 60/87/60 59/88/59
f 58/86/58 53/89/53 54/90/54 60/87/60
f 54/80/54 57/79/57 60/84/60
f 61/91/61 64/92/64 66/93/66 65/94/65
f 64/92/64 68/95/68 69/96/69 66/93/66
f 62/97/62 67/98/67 69/99/69 68/100/68
f 67/101/67 71/102/71 72/103/72 69/104/69
f 63/105/63 70/106/70 72/103/72 71/102/71
f 70/107/70 65/94/65 66/93/66 72/108/72
f 66/93/66 69/96/69 72/108/72
f 73/109/73 76/110/76 78/111/78 77/112/77
f 76/110/76 80/113/80 81/114/81 78/111/78
f 74/115/74 79/116/79 81/117/81 80/118/80
f 79/119/79 83/120/83 84/121/84 81/122/81
f 75/123/75 82/124/82 84/121/84 83/120/83
f 82/124/82 77/125/77 78/126/78 84/121/84
f 78/111/78 81/114/81 84/127/84
f 85/128/85 88/129/88 90/130/90 89/131/89
f 88/129/88 92/132/92 93/133/93 90/130/90
f 86/134/86 91/135/91 93/136/93 92/137/92
f 91/135/91 95/138/95 96/139/96 93/136/93
f 87/140/87 94/141/94 96/142/96 95/143/95
f 94/144/94 89/131/89 90/130/90 96/145/96
f 90/130/90 93/133/93 96/145/96
f 97/146/1 100/147/4 102/148/6 101/149/5
f 100/147/4 104/150/8 105/151/9 102/148/6
f 98/152/2 103/153/7 105/154/9 104/155/8
f 103/156/7 107/157/11 108/158/12 105/159/9
f 99/160/3 106/161/10 108/158/12 107/157/11
f 106/162/10 101/149/5 102/148/6 108/163/12
f 102/148/6 105/151/9 108/163/12
f 109/164/13 112/165/16 114/166/18 113/167/17
f 112/165/16 116/168/20 117/169/21 114/166/18
f 110/170/14 115/171/19 117/169/21 116/168/20
f 115/172/19 119/173/23 120/174/24 117/175/21
f 111/176/15 118/177/22 120/174/24 119/173/23
f 118/177/22 113/178/17 114/179/18 120/174/24
f 114/166/18 117/169/21 120/180/24
f 121/181/25 124/182/28 126/183/30 125/184/29
f 124/182/28 128/185/32 129/186/33 126/183/30
f 122/187/26 127/188/31 129/189/33 128/190/32
f 127/188/31 131/191/35 132/192/36 129/189/33
f 123/193/27 130/194/34 132/195/36 131/196/35
f 130/197/34 125/184/29 126/183/30 132/198/36
f 126/183/30 129/186/33 132/198/36
f 133/199/37 136/200/40 138/201/42 137/202/41
f 136/203/40 140/204/44 141/205/45 138/206/42
f 134/207/38 139/208/43 141/205/45 140/204/44
f 139/209/43 143/210/47 144/211/48 141/212/45
f 135/213/39 142/214/46 144/211/48 143/210/47
f 142/214/46 137/215/41 138/216/42 144/211/48
f 138/206/42 141/205/45 144/217/48
f 145/218/49 148/219/52 150/220/54 149/221/53
f 148/219/52 152/222/56 153/223/57 150/220/54
f 146/224/50 151/225/55 153/226/57 152/227/56
f 151/225/55 155/228/59 156/229/97 153/226/57
f 147/230/51 154/231/58 156/232/97 155/233/59
f 154/234/58 149/221/53 150/220/54 156/235/97
f 150/220/54 153/223/57 156/235/97
f 157/236/61 160/237/64 162/238/66 161/239/65
f 160/237/64 164/240/68 165/241/69 162/238/66
f 158/242/62 163/243/67 165/241/69 164/240/68
f 163/244/67 167/245/71 168/246/72 165/247/69
f 159/248/63 166/249/70 168/246/72 167/245/71
f 166/249/70 161/250/65 162/251/66 168/246/72
f 162/238/66 165/241/69 168/252/72
f 169/253/73 172/254/76 174/255/78 173/256/77
f 172/254/76 176/257/80 177/258/81 174/255/78
f 170/259/74 175/260/79 177/261/81 176/262/80
f 175/260/79 179/263/83 180/264/84 177/261/81
f 171/265/75 178/266/82 180/267/84 179/268/83
f 178/269/82 173/256/77 174/255/78 180/270/84
f 174/255/78 177/258/81 180/270/84
f 181/271/85 184/272/88 186/273/90 185/274/89
f 184/275/88 188/276/92 189/277/93 186/278/90
f 182/279/86 187/280/91 189/277/93 188/276/92
f 187/281/91 191/282/95 192/283/96 189/284/93
f 183/285/87 190/286/94 192/283/96 191/282/95
f 190/286/94 185/287/89 186/288/90 192/283/96
f 186/278/90 189/277/93 192/289/96
f 193/290/98 196/291/101 198/292/103 197/293/102
f 196/294/101 200/295/105 201/296/106 198/297/103
f 194/298/99 199/299/104 201/296/106 200/295/105
f 199/300/104 203/301/108 204/302/109 201/303/106
f 195/304/100 202/305/107 204/302/109 203/301/108
f 202/305/107 197/306/102 198/307/103 204/302/109
f 198/297/103 201/296/106 204/308/109
f 205/309/110 208/310/113 210/311/115 209/312/114
f 208/310/113 212/313/117 213/314/118 210/311/115
f 206/315/111 211/316/116 213/317/118 212/318/117
f 211/319/116 215/320/120 216/321/121 213/322/118
f 207/323/112 214/324/119 216/321/121 215/320/120
f 214/324/119 209/325/114 210/326/115 216/321/121
f 210/311/115 213/314/118 216/327/121
f 217/328/122 220/329/125 222/330/127 221/331/126
f 220/332/125 224/333/129 225/334/130 222/335/127
f 218/336/123 223/337/128 225/334/130 224/333/129
f 223/337/128 227/338/132 228/339/133 225/334/130
f 219/340/124 226/341/131 228/342/133 227/343/132
f 226/341/131 221/344/126 222/345/127 228/342/133
f 222/335/127 225/334/130 228/339/133
f 229/346/134 232/347/137 234/348/139 233/349/138
f 232/350/137 236/351/141 237/352/142 234/353/139
f 230/354/135 235/355/140 237/352/142 236/351/141
f 235/356/140 239/357/144 240/358/145 237/359/142
f 231/360/136 238/361/143 240/358/145 239/357/144
f 238/361/143 233/362/138 234/363/139 240/358/145
f 234/353/139 237/352/142 240/364/145
f 241/365/146 244/366/149 246/367/151 245/368/150
f 244/369/149 248/370/153 249/371/154 246/372/151
f 242/373/147 247/374/152 249/371/154 248/370/153
f 247/374/152 251/375/156 252/376/157 249/371/154
f 243/377/148 250/378/155 252/379/157 251/380/156
f 250/378/155 245/381/150 246/382/151 252/379/157
f 246/372/151 249/371/154 252/376/157
f 253/383/158 256/384/161 258/385/163 257/386/162
f 256/387/161 260/388/165 261/389/166 258/390/163
f 254/391/159 259/392/164 261/389/166 260/388/165
f 259/393/164 263/394/168 264/395/169 261/396/166
f 255/397/160 262/398/167 264/395/169 263/394/168
f 262/398/167 257/399/162 258/400/163 264/395/169
f 258/390/163 261/389/166 264/401/169
f 265/402/170 268/403/173 270/404/175 269/405/174
f 268/406/173 272/407/177 273/408/178 270/409/175
f 266/410/171 271/411/176 273/408/178 272/407/177
f 271/411/176 275/412/180 276/413/181 273/408/178
f 267/414/172 274/415/179 276/416/181 275/417/180
f 274/415/179 269/418/174 270/419/175 276/416/181
f 270/409/175 273/408/178 276/413/181
f 277/420/182 280/421/185 282/422/187 281/423/186
f 280/424/185 284/425/189 285/426/190 282/427/187
f 278/428/183 283/429/188 285/426/190 284/425/189
f 283/430/188 287/431/192 288/432/193 285/433/190
f 279/434/184 286/435/191 288/432/193 287/431/192
f 286/435/191 281/436/186 282/437/187 288/432/193
f 282/427/187 285/426/190 288/438/193
f 25/37/25 1/1/1 5/4/5 28/38/28
f 28/38/28 5/4/5 10/17/10 32/41/32
f 32/46/32 10/14/10 3/13/3 26/43/26
f 2/9/2 13/19/13 17/22/17 7/10/7
f 7/10/7 17/22/17 22/35/22 11/11/11
f 11/16/11 22/32/22 15/31/15 3/13/3
f 14/27/14 37/55/37 41/58/41 19/28/19
f 19/28/19 41/58/41 46/71/46 23/29/23
f 23/34/23 46/70/46 39/69/39 15/31/15
f 38/61/38 27/49/27 35/52/35 43/62/43
f 43/65/43 35/47/35 31/44/31 47/66/47
f 47/66/47 31/44/31 26/43/26 39/69/39
f 73/109/73 25/37/25 29/40/29 76/110/76
f 76/110/76 29/40/29 34/53/34 80/113/80
f 80/118/80 34/50/34 27/49/27 74/115/74
f 37/55/37 85/128/85 89/131/89 40/56/40
f 40/56/40 89/131/89 94/144/94 44/59/44
f 44/64/44 94/141/94 87/140/87 38/61/38
f 86/134/86 75/123/75 83/120/83 91/135/91
f 91/135/91 83/120/83 79/119/79 95/138/95
f 95/143/95 79/116/79 74/115/74 87/140/87
f 49/73/49 73/109/73 77/112/77 52/74/52
f 52/77/52 77/125/77 82/124/82 56/78/56
f 56/78/56 82/124/82 75/123/75 50/81/50
f 85/128/85 61/91/61 65/94/65 88/129/88
f 88/129/88 65/94/65 70/107/70 92/132/92
f 92/137/92 70/106/70 63/105/63 86/134/86
f 62/97/62 51/85/51 59/88/59 67/98/67
f 67/101/67 59/83/59 55/82/55 71/102/71
f 71/102/71 55/82/55 50/81/50 63/105/63
f 1/1/1 49/73/49 53/76/53 4/2/4
f 4/5/4 53/89/53 58/86/58 8/6/8
f 8/6/8 58/86/58 51/85/51 2/9/2
f 61/91/61 14/27/14 20/24/20 64/92/64
f 64/92/64 20/24/20 16/23/16 68/95/68
f 68/100/68 16/20/16 13/19/13 62/97/62
f 121/181/25 97/146/1 101/149/5 124/182/28
f 124/182/28 101/149/5 106/162/10 128/185/32
f 128/190/32 106/161/10 99/160/3 122/187/26
f 98/152/2 109/164/13 113/167/17 103/153/7
f 103/156/7 113/178/17 118/177/22 107/157/11
f 107/157/11 118/177/22 111/176/15 99/160/3
f 110/170/14 133/199/37 137/202/41 115/171/19
f 115/172/19 137/215/41 142/214/46 119/173/23
f 119/173/23 142/214/46 135/213/39 111/176/15
f 134/207/38 123/193/27 131/196/35 139/208/43
f 139/209/43 131/191/35 127/188/31 143/210/47
f 143/210/47 127/188/31 122/187/26 135/213/39
f 169/253/73 121/181/25 125/184/29 172/254/76
f 172/254/76 125/184/29 130/197/34 176/257/80
f 176/262/80 130/194/34 123/193/27 170/259/74
f 133/199/37 181/271/85 185/274/89 136/200/40
f 136/203/40 185/287/89 190/286/94 140/204/44
f 140/204/44 190/286/94 183/285/87 134/207/38
f 182/279/86 171/265/75 179/268/83 187/280/91
f 187/281/91 179/263/83 175/260/79 191/282/95
f 191/282/95 175/260/79 170/259/74 183/285/87
f 145/218/49 169/253/73 173/256/77 148/219/52
f 148/219/52 173/256/77 178/269/82 152/222/56
f 152/227/56 178/266/82 171/265/75 146/224/50
f 181/271/85 157/236/61 161/239/65 184/272/88
f 184/275/88 161/250/65 166/249/70 188/276/92
f 188/276/92 166/249/70 159/248/63 182/279/86
f 158/242/62 147/230/51 155/233/59 163/243/67
f 163/244/67 155/228/59 151/225/55 167/245/71
f 167/245/71 151/225/55 146/224/50 159/248/63
f 97/146/1 145/218/49 149/221/53 100/147/4
f 100/147/4 149/221/53 154/234/58 104/150/8
f 104/155/8 154/231/58 147/230/51 98/152/2
f 157/236/61 110/170/14 116/168/20 160/237/64
f 160/237/64 116/168/20 112/165/16 164/240/68
f 164/240/68 112/165/16 109/164/13 158/242/62
f 217/328/122 193/290/98 197/293/102 220/329/125
f 220/332/125 197/306/102 202/305/107 224/333/129
f 224/333/129 202/305/107 195/304/100 218/336/123
f 194/298/99 205/309/110 209/312/114 199/299/104
f 199/300/104 209/325/114 214/324/119 203/301/108
f 203/301/108 214/324/119 207/323/112 195/304/100
f 206/315/111 229/346/134 233/349/138 211/316/116
f 211/319/116 233/362/138 238/361/143 215/320/120
f 215/320/120 238/361/143 231/360/136 207/323/112
f 230/354/135 219/340/124 227/343/132 235/355/140
f 235/356/140 227/338/132 223/337/128 239/357/144
f 239/357/144 223/337/128 218/336/123 231/360/136
f 265/402/170 217/328/122 221/331/126 268/403/173
f 268/406/173 221/344/126 226/341/131 272/407/177
f 272/407/177 226/341/131 219/340/124 266/410/171
f 229/346/134 277/420/182 281/423/186 232/347/137
f 232/350/137 281/436/186 286/435/191 236/351/141
f 236/351/141 286/435/191 279/434/184 230/354/135
f 278/428/183 267/414/172 275/417/180 283/429/188
f 283/430/188 275/412/180 271/411/176 287/431/192
f 287/431/192 271/411/176 266/410/171 279/434/184
f 241/365/146 265/402/170 269/405/174 244/366/149
f 244/369/149 269/418/174 274/415/179 248/370/153
f 248/370/153 274/415/179 267/414/172 242/373/147
f 277/420/182 253/383/158 257/386/162 280/421/185
f 280/424/185 257/399/162 262/398/167 284/425/189
f 284/425/189 262/398/167 255/397/160 278/428/183
f 254/391/159 243/377/148 251/380/156 259/392/164
f 259/393/164 251/375/156 247/374/152 263/394/168
f 263/394/168 247/374/152 242/373/147 255/397/160
f 193/290/98 241/365/146 245/368/150 196/291/101
f 196/294/101 245/381/150 250/378/155 200/295/105
f 200/295/105 250/378/155 243/377/148 194/298/99
f 253/383/158 206/315/111 212/318/117 256/384/161
f 256/387/161 212/313/117 208/310/113 260/388/165
f 260/388/165 208/310/113 205/309/110 254/391/159
f 25/37/25 73/109/73 49/73/49 1/1/1
f 3/13/3 15/31/15 39/69/39 26/43/26
f 51/85/51 62/97/62 13/19/13 2/9/2
f 85/128/85 37/55/37 14/27/14 61/91/61
f 27/49/27 38/61/38 87/140/87 74/115/74
f 75/123/75 86/134/86 63/105/63 50/81/50
f 121/181/25 169/253/73 145/218/49 97/146/1
f 99/160/3 111/176/15 135/213/39 122/187/26
f 147/230/51 158/242/62 109/164/13 98/152/2
f 181/271/85 133/199/37 110/170/14 157/236/61
f 123/193/27 134/207/38 183/285/87 170/259/74
f 171/265/75 182/279/86 159/248/63 146/224/50
f 217/328/122 265/402/170 241/365/146 193/290/98
f 195/304/100 207/323/112 231/360/136 218/336/123
f 243/377/148 254/391/159 205/309/110 194/298/99
f 277/420/182 229/346/134 206/315/111 253/383/158
f 219/340/124 230/354/135 279/434/184 266/410/171
f 267/414/172 278/428/183 255/397/160 242/373/147
