# Blender 5.0.1
# www.blender.org
mtllib BB_PROP_VentGrille.mtl
o BB_PROP_VentGrille
v 9.709900 1.984900 -0.300000
v 9.709900 1.975000 -0.290101
v 9.700000 1.984900 -0.290101
v 9.709900 1.979956 -0.298677
v 9.704956 1.984900 -0.298677
v 9.705166 1.980165 -0.297393
v 9.704956 1.976323 -0.290101
v 9.709900 1.976323 -0.295044
v 9.705166 1.977607 -0.294835
v 9.701323 1.984900 -0.295044
v 9.701323 1.979956 -0.290101
v 9.702607 1.980165 -0.294835
v 9.709900 1.975000 0.290101
v 9.709900 1.984900 0.300000
v 9.700000 1.984900 0.290101
v 9.709900 1.976323 0.295044
v 9.704956 1.976323 0.290101
v 9.705166 1.977607 0.294835
v 9.704956 1.984900 0.298677
v 9.709900 1.979956 0.298677
v 9.705166 1.980165 0.297393
v 9.701323 1.979956 0.290101
v 9.701323 1.984900 0.295044
v 9.702607 1.980165 0.294835
v 9.709900 2.015100 -0.300000
v 9.700000 2.015100 -0.290101
v 9.709900 2.025000 -0.290101
v 9.704956 2.015100 -0.298677
v 9.709900 2.020044 -0.298677
v 9.705166 2.019835 -0.297393
v 9.701323 2.020044 -0.290101
v 9.701323 2.015100 -0.295044
v 9.702607 2.019835 -0.294835
v 9.709900 2.023677 -0.295044
v 9.704956 2.023677 -0.290101
v 9.705166 2.022393 -0.294835
v 9.709900 2.015100 0.300000
v 9.709900 2.025000 0.290101
v 9.700000 2.015100 0.290101
v 9.709900 2.020044 0.298677
v 9.704956 2.015100 0.298677
v 9.705166 2.019835 0.297393
v 9.704956 2.023677 0.290101
v 9.709900 2.023677 0.295044
v 9.705166 2.022393 0.294835
v 9.701323 2.015100 0.295044
v 9.701323 2.020044 0.290101
v 9.702607 2.019835 0.294835
v 10.290100 1.984900 -0.300000
v 10.300000 1.984900 -0.290101
v 10.290100 1.975000 -0.290101
v 10.295044 1.984900 -0.298677
v 10.290100 1.979956 -0.298677
v 10.294834 1.980165 -0.297393
v 10.298677 1.979956 -0.290101
v 10.298677 1.984900 -0.295044
v 10.297393 1.980165 -0.294835
v 10.290100 1.976323 -0.295044
v 10.295044 1.976323 -0.290101
v 10.294834 1.977607 -0.294835
v 10.290100 1.984900 0.300000
v 10.290100 1.975000 0.290101
v 10.300000 1.984900 0.290101
v 10.290100 1.979956 0.298677
v 10.295044 1.984900 0.298677
v 10.294834 1.980165 0.297393
v 10.295044 1.976323 0.290101
v 10.290100 1.976323 0.295044
v 10.294834 1.977607 0.294835
v 10.298677 1.984900 0.295044
v 10.298677 1.979956 0.290101
v 10.297393 1.980165 0.294835
v 10.290100 2.015100 -0.300000
v 10.290100 2.025000 -0.290101
v 10.300000 2.015100 -0.290101
v 10.290100 2.020044 -0.298677
v 10.295044 2.015100 -0.298677
v 10.294834 2.019835 -0.297393
v 10.295044 2.023677 -0.290101
v 10.290100 2.023677 -0.295044
v 10.294834 2.022393 -0.294835
v 10.298677 2.015100 -0.295044
v 10.298677 2.020044 -0.290101
v 10.297393 2.019835 -0.294835
v 10.290100 2.015100 0.300000
v 10.300000 2.015100 0.290101
v 10.290100 2.025000 0.290101
v 10.295044 2.015100 0.298677
v 10.290100 2.020044 0.298677
v 10.294834 2.019835 0.297393
v 10.298677 2.020044 0.290101
v 10.298677 2.015100 0.295044
v 10.297393 2.019835 0.294835
v 10.290100 2.023677 0.295044
v 10.295044 2.023677 0.290101
v 10.294834 2.022393 0.294835
v 9.759899 2.037500 -0.227500
v 9.759899 2.023500 -0.227500
v 9.750000 2.030500 -0.220500
v 9.759899 2.033069 -0.230060
v 9.754956 2.036565 -0.226565
v 9.755165 2.032309 -0.229004
v 9.754956 2.024435 -0.226565
v 9.759899 2.027930 -0.230060
v 9.755165 2.028691 -0.229004
v 9.751323 2.033995 -0.223995
v 9.751323 2.027004 -0.223995
v 9.752607 2.030500 -0.227195
v 9.759899 2.002500 -0.206500
v 9.759899 2.002500 -0.192500
v 9.750000 2.009500 -0.199500
v 9.759899 1.999940 -0.202069
v 9.754956 2.003435 -0.205565
v 9.755165 2.000996 -0.201309
v 9.754956 2.003435 -0.193435
v 9.759899 1.999940 -0.196931
v 9.755165 2.000996 -0.197691
v 9.751323 2.006005 -0.202995
v 9.751323 2.006005 -0.196005
v 9.752607 2.002805 -0.199500
v 9.759899 2.037500 -0.227500
v 9.750000 2.030500 -0.220500
v 9.759899 2.037500 -0.213500
v 9.754956 2.036565 -0.226565
v 9.759899 2.040060 -0.223069
v 9.755165 2.039004 -0.222309
v 9.751323 2.033995 -0.217005
v 9.751323 2.033995 -0.223995
v 9.752607 2.037195 -0.220500
v 9.759899 2.040060 -0.217931
v 9.754956 2.036565 -0.214435
v 9.755165 2.039004 -0.218691
v 9.759899 2.002500 -0.192500
v 9.759899 2.016500 -0.192500
v 9.750000 2.009500 -0.199500
v 9.759899 2.006931 -0.189940
v 9.754956 2.003435 -0.193435
v 9.755165 2.007691 -0.190996
v 9.754956 2.015565 -0.193435
v 9.759899 2.012069 -0.189940
v 9.755165 2.011309 -0.190996
v 9.751323 2.006005 -0.196005
v 9.751323 2.012995 -0.196005
v 9.752607 2.009500 -0.192805
v 10.240101 2.037500 -0.227500
v 10.250000 2.030500 -0.220500
v 10.240101 2.023500 -0.227500
v 10.245044 2.036565 -0.226565
v 10.240101 2.033069 -0.230060
v 10.244835 2.032309 -0.229004
v 10.248677 2.027004 -0.223995
v 10.248677 2.033995 -0.223995
v 10.247393 2.030500 -0.227195
v 10.240101 2.027930 -0.230060
v 10.245044 2.024435 -0.226565
v 10.244835 2.028691 -0.229004
v 10.240101 2.002500 -0.192500
v 10.240101 2.002500 -0.206500
v 10.250000 2.009500 -0.199500
v 10.240101 1.999940 -0.196931
v 10.245044 2.003435 -0.193435
v 10.244835 2.000996 -0.197691
v 10.245044 2.003435 -0.205565
v 10.240101 1.999940 -0.202069
v 10.244835 2.000996 -0.201309
v 10.248677 2.006005 -0.196005
v 10.248677 2.006005 -0.202995
v 10.247393 2.002805 -0.199500
v 10.240101 2.037500 -0.227500
v 10.240101 2.037500 -0.213500
v 10.250000 2.030500 -0.220500
v 10.240101 2.040060 -0.223069
v 10.245044 2.036565 -0.226565
v 10.244835 2.039004 -0.222309
v 10.245044 2.036565 -0.214435
v 10.240101 2.040060 -0.217931
v 10.244835 2.039004 -0.218691
v 10.248677 2.033995 -0.223995
v 10.248677 2.033995 -0.217005
v 10.247393 2.037195 -0.220500
v 10.240101 2.002500 -0.192500
v 10.250000 2.009500 -0.199500
v 10.240101 2.016500 -0.192500
v 10.245044 2.003435 -0.193435
v 10.240101 2.006931 -0.189940
v 10.244835 2.007691 -0.190996
v 10.248677 2.012995 -0.196005
v 10.248677 2.006005 -0.196005
v 10.247393 2.009500 -0.192805
v 10.240101 2.012069 -0.189940
v 10.245044 2.015565 -0.193435
v 10.244835 2.011309 -0.190996
v 9.759899 2.037500 -0.157500
v 9.759899 2.023500 -0.157500
v 9.750000 2.030500 -0.150500
v 9.759899 2.033069 -0.160060
v 9.754956 2.036565 -0.156565
v 9.755165 2.032309 -0.159004
v 9.754956 2.024435 -0.156565
v 9.759899 2.027930 -0.160060
v 9.755165 2.028691 -0.159004
v 9.751323 2.033995 -0.153995
v 9.751323 2.027004 -0.153995
v 9.752607 2.030500 -0.157195
v 9.759899 2.002500 -0.136500
v 9.759899 2.002500 -0.122500
v 9.750000 2.009500 -0.129500
v 9.759899 1.999940 -0.132069
v 9.754956 2.003435 -0.135565
v 9.755165 2.000996 -0.131309
v 9.754956 2.003435 -0.123435
v 9.759899 1.999940 -0.126931
v 9.755165 2.000996 -0.127691
v 9.751323 2.006005 -0.132995
v 9.751323 2.006005 -0.126005
v 9.752607 2.002805 -0.129500
v 9.759899 2.037500 -0.157500
v 9.750000 2.030500 -0.150500
v 9.759899 2.037500 -0.143500
v 9.754956 2.036565 -0.156565
v 9.759899 2.040060 -0.153069
v 9.755165 2.039004 -0.152309
v 9.751323 2.033995 -0.147005
v 9.751323 2.033995 -0.153995
v 9.752607 2.037195 -0.150500
v 9.759899 2.040060 -0.147931
v 9.754956 2.036565 -0.144435
v 9.755165 2.039004 -0.148691
v 9.759899 2.002500 -0.122500
v 9.759899 2.016500 -0.122500
v 9.750000 2.009500 -0.129500
v 9.759899 2.006931 -0.119940
v 9.754956 2.003435 -0.123435
v 9.755165 2.007691 -0.120996
v 9.754956 2.015565 -0.123435
v 9.759899 2.012069 -0.119940
v 9.755165 2.011309 -0.120996
v 9.751323 2.006005 -0.126005
v 9.751323 2.012995 -0.126005
v 9.752607 2.009500 -0.122805
v 10.240101 2.037500 -0.157500
v 10.250000 2.030500 -0.150500
v 10.240101 2.023500 -0.157500
v 10.245044 2.036565 -0.156565
v 10.240101 2.033069 -0.160060
v 10.244835 2.032309 -0.159004
v 10.248677 2.027004 -0.153995
v 10.248677 2.033995 -0.153995
v 10.247393 2.030500 -0.157195
v 10.240101 2.027930 -0.160060
v 10.245044 2.024435 -0.156565
v 10.244835 2.028691 -0.159004
v 10.240101 2.002500 -0.122500
v 10.240101 2.002500 -0.136500
v 10.250000 2.009500 -0.129500
v 10.240101 1.999940 -0.126931
v 10.245044 2.003435 -0.123435
v 10.244835 2.000996 -0.127691
v 10.245044 2.003435 -0.135565
v 10.240101 1.999940 -0.132069
v 10.244835 2.000996 -0.131309
v 10.248677 2.006005 -0.126005
v 10.248677 2.006005 -0.132995
v 10.247393 2.002805 -0.129500
v 10.240101 2.037500 -0.157500
v 10.240101 2.037500 -0.143500
v 10.250000 2.030500 -0.150500
v 10.240101 2.040060 -0.153069
v 10.245044 2.036565 -0.156565
v 10.244835 2.039004 -0.152309
v 10.245044 2.036565 -0.144435
v 10.240101 2.040060 -0.147931
v 10.244835 2.039004 -0.148691
v 10.248677 2.033995 -0.153995
v 10.248677 2.033995 -0.147005
v 10.247393 2.037195 -0.150500
v 10.240101 2.002500 -0.122500
v 10.250000 2.009500 -0.129500
v 10.240101 2.016500 -0.122500
v 10.245044 2.003435 -0.123435
v 10.240101 2.006931 -0.119940
v 10.244835 2.007691 -0.120996
v 10.248677 2.012995 -0.126005
v 10.248677 2.006005 -0.126005
v 10.247393 2.009500 -0.122805
v 10.240101 2.012069 -0.119940
v 10.245044 2.015565 -0.123435
v 10.244835 2.011309 -0.120996
v 9.759899 2.037500 -0.087500
v 9.759899 2.023500 -0.087500
v 9.750000 2.030500 -0.080500
v 9.759899 2.033069 -0.090060
v 9.754956 2.036565 -0.086565
v 9.755165 2.032309 -0.089004
v 9.754956 2.024435 -0.086565
v 9.759899 2.027930 -0.090060
v 9.755165 2.028691 -0.089004
v 9.751323 2.033995 -0.083995
v 9.751323 2.027004 -0.083995
v 9.752607 2.030500 -0.087195
v 9.759899 2.002500 -0.066500
v 9.759899 2.002500 -0.052500
v 9.750000 2.009500 -0.059500
v 9.759899 1.999940 -0.062069
v 9.754956 2.003435 -0.065565
v 9.755165 2.000996 -0.061309
v 9.754956 2.003435 -0.053435
v 9.759899 1.999940 -0.056931
v 9.755165 2.000996 -0.057691
v 9.751323 2.006005 -0.062995
v 9.751323 2.006005 -0.056005
v 9.752607 2.002805 -0.059500
v 9.759899 2.037500 -0.087500
v 9.750000 2.030500 -0.080500
v 9.759899 2.037500 -0.073500
v 9.754956 2.036565 -0.086565
v 9.759899 2.040060 -0.083069
v 9.755165 2.039004 -0.082309
v 9.751323 2.033995 -0.077005
v 9.751323 2.033995 -0.083995
v 9.752607 2.037195 -0.080500
v 9.759899 2.040060 -0.077931
v 9.754956 2.036565 -0.074435
v 9.755165 2.039004 -0.078691
v 9.759899 2.002500 -0.052500
v 9.759899 2.016500 -0.052500
v 9.750000 2.009500 -0.059500
v 9.759899 2.006931 -0.049940
v 9.754956 2.003435 -0.053435
v 9.755165 2.007691 -0.050996
v 9.754956 2.015565 -0.053435
v 9.759899 2.012069 -0.049940
v 9.755165 2.011309 -0.050996
v 9.751323 2.006005 -0.056005
v 9.751323 2.012995 -0.056005
v 9.752607 2.009500 -0.052805
v 10.240101 2.037500 -0.087500
v 10.250000 2.030500 -0.080500
v 10.240101 2.023500 -0.087500
v 10.245044 2.036565 -0.086565
v 10.240101 2.033069 -0.090060
v 10.244835 2.032309 -0.089004
v 10.248677 2.027004 -0.083995
v 10.248677 2.033995 -0.083995
v 10.247393 2.030500 -0.087195
v 10.240101 2.027930 -0.090060
v 10.245044 2.024435 -0.086565
v 10.244835 2.028691 -0.089004
v 10.240101 2.002500 -0.052500
v 10.240101 2.002500 -0.066500
v 10.250000 2.009500 -0.059500
v 10.240101 1.999940 -0.056931
v 10.245044 2.003435 -0.053435
v 10.244835 2.000996 -0.057691
v 10.245044 2.003435 -0.065565
v 10.240101 1.999940 -0.062069
v 10.244835 2.000996 -0.061309
v 10.248677 2.006005 -0.056005
v 10.248677 2.006005 -0.062995
v 10.247393 2.002805 -0.059500
v 10.240101 2.037500 -0.087500
v 10.240101 2.037500 -0.073500
v 10.250000 2.030500 -0.080500
v 10.240101 2.040060 -0.083069
v 10.245044 2.036565 -0.086565
v 10.244835 2.039004 -0.082309
v 10.245044 2.036565 -0.074435
v 10.240101 2.040060 -0.077931
v 10.244835 2.039004 -0.078691
v 10.248677 2.033995 -0.083995
v 10.248677 2.033995 -0.077005
v 10.247393 2.037195 -0.080500
v 10.240101 2.002500 -0.052500
v 10.250000 2.009500 -0.059500
v 10.240101 2.016500 -0.052500
v 10.245044 2.003435 -0.053435
v 10.240101 2.006931 -0.049940
v 10.244835 2.007691 -0.050996
v 10.248677 2.012995 -0.056005
v 10.248677 2.006005 -0.056005
v 10.247393 2.009500 -0.052805
v 10.240101 2.012069 -0.049940
v 10.245044 2.015565 -0.053435
v 10.244835 2.011309 -0.050996
v 9.759899 2.037500 -0.017500
v 9.759899 2.023500 -0.017500
v 9.750000 2.030500 -0.010500
v 9.759899 2.033069 -0.020060
v 9.754956 2.036565 -0.016565
v 9.755165 2.032309 -0.019004
v 9.754956 2.024435 -0.016565
v 9.759899 2.027930 -0.020060
v 9.755165 2.028691 -0.019004
v 9.751323 2.033995 -0.013995
v 9.751323 2.027004 -0.013995
v 9.752607 2.030500 -0.017195
v 9.759899 2.002500 0.003500
v 9.759899 2.002500 0.017500
v 9.750000 2.009500 0.010500
v 9.759899 1.999940 0.007931
v 9.754956 2.003435 0.004435
v 9.755165 2.000996 0.008691
v 9.754956 2.003435 0.016565
v 9.759899 1.999940 0.013069
v 9.755165 2.000996 0.012309
v 9.751323 2.006005 0.007005
v 9.751323 2.006005 0.013995
v 9.752607 2.002805 0.010500
v 9.759899 2.037500 -0.017500
v 9.750000 2.030500 -0.010500
v 9.759899 2.037500 -0.003500
v 9.754956 2.036565 -0.016565
v 9.759899 2.040060 -0.013069
v 9.755165 2.039004 -0.012309
v 9.751323 2.033995 -0.007005
v 9.751323 2.033995 -0.013995
v 9.752607 2.037195 -0.010500
v 9.759899 2.040060 -0.007931
v 9.754956 2.036565 -0.004435
v 9.755165 2.039004 -0.008691
v 9.759899 2.002500 0.017500
v 9.759899 2.016500 0.017500
v 9.750000 2.009500 0.010500
v 9.759899 2.006931 0.020060
v 9.754956 2.003435 0.016565
v 9.755165 2.007691 0.019004
v 9.754956 2.015565 0.016565
v 9.759899 2.012069 0.020060
v 9.755165 2.011309 0.019004
v 9.751323 2.006005 0.013995
v 9.751323 2.012995 0.013995
v 9.752607 2.009500 0.017195
v 10.240101 2.037500 -0.017500
v 10.250000 2.030500 -0.010500
v 10.240101 2.023500 -0.017500
v 10.245044 2.036565 -0.016565
v 10.240101 2.033069 -0.020060
v 10.244835 2.032309 -0.019004
v 10.248677 2.027004 -0.013995
v 10.248677 2.033995 -0.013995
v 10.247393 2.030500 -0.017195
v 10.240101 2.027930 -0.020060
v 10.245044 2.024435 -0.016565
v 10.244835 2.028691 -0.019004
v 10.240101 2.002500 0.017500
v 10.240101 2.002500 0.003500
v 10.250000 2.009500 0.010500
v 10.240101 1.999940 0.013069
v 10.245044 2.003435 0.016565
v 10.244835 2.000996 0.012309
v 10.245044 2.003435 0.004435
v 10.240101 1.999940 0.007931
v 10.244835 2.000996 0.008691
v 10.248677 2.006005 0.013995
v 10.248677 2.006005 0.007005
v 10.247393 2.002805 0.010500
v 10.240101 2.037500 -0.017500
v 10.240101 2.037500 -0.003500
v 10.250000 2.030500 -0.010500
v 10.240101 2.040060 -0.013069
v 10.245044 2.036565 -0.016565
v 10.244835 2.039004 -0.012309
v 10.245044 2.036565 -0.004435
v 10.240101 2.040060 -0.007931
v 10.244835 2.039004 -0.008691
v 10.248677 2.033995 -0.013995
v 10.248677 2.033995 -0.007005
v 10.247393 2.037195 -0.010500
v 10.240101 2.002500 0.017500
v 10.250000 2.009500 0.010500
v 10.240101 2.016500 0.017500
v 10.245044 2.003435 0.016565
v 10.240101 2.006931 0.020060
v 10.244835 2.007691 0.019004
v 10.248677 2.012995 0.013995
v 10.248677 2.006005 0.013995
v 10.247393 2.009500 0.017195
v 10.240101 2.012069 0.020060
v 10.245044 2.015565 0.016565
v 10.244835 2.011309 0.019004
v 9.759899 2.037500 0.052500
v 9.759899 2.023500 0.052500
v 9.750000 2.030500 0.059500
v 9.759899 2.033069 0.049940
v 9.754956 2.036565 0.053435
v 9.755165 2.032309 0.050996
v 9.754956 2.024435 0.053435
v 9.759899 2.027930 0.049940
v 9.755165 2.028691 0.050996
v 9.751323 2.033995 0.056005
v 9.751323 2.027004 0.056005
v 9.752607 2.030500 0.052805
v 9.759899 2.002500 0.073500
v 9.759899 2.002500 0.087500
v 9.750000 2.009500 0.080500
v 9.759899 1.999940 0.077931
v 9.754956 2.003435 0.074435
v 9.755165 2.000996 0.078691
v 9.754956 2.003435 0.086565
v 9.759899 1.999940 0.083069
v 9.755165 2.000996 0.082309
v 9.751323 2.006005 0.077005
v 9.751323 2.006005 0.083995
v 9.752607 2.002805 0.080500
v 9.759899 2.037500 0.052500
v 9.750000 2.030500 0.059500
v 9.759899 2.037500 0.066500
v 9.754956 2.036565 0.053435
v 9.759899 2.040060 0.056931
v 9.755165 2.039004 0.057691
v 9.751323 2.033995 0.062995
v 9.751323 2.033995 0.056005
v 9.752607 2.037195 0.059500
v 9.759899 2.040060 0.062069
v 9.754956 2.036565 0.065565
v 9.755165 2.039004 0.061309
v 9.759899 2.002500 0.087500
v 9.759899 2.016500 0.087500
v 9.750000 2.009500 0.080500
v 9.759899 2.006931 0.090060
v 9.754956 2.003435 0.086565
v 9.755165 2.007691 0.089004
v 9.754956 2.015565 0.086565
v 9.759899 2.012069 0.090060
v 9.755165 2.011309 0.089004
v 9.751323 2.006005 0.083995
v 9.751323 2.012995 0.083995
v 9.752607 2.009500 0.087195
v 10.240101 2.037500 0.052500
v 10.250000 2.030500 0.059500
v 10.240101 2.023500 0.052500
v 10.245044 2.036565 0.053435
v 10.240101 2.033069 0.049940
v 10.244835 2.032309 0.050996
v 10.248677 2.027004 0.056005
v 10.248677 2.033995 0.056005
v 10.247393 2.030500 0.052805
v 10.240101 2.027930 0.049940
v 10.245044 2.024435 0.053435
v 10.244835 2.028691 0.050996
v 10.240101 2.002500 0.087500
v 10.240101 2.002500 0.073500
v 10.250000 2.009500 0.080500
v 10.240101 1.999940 0.083069
v 10.245044 2.003435 0.086565
v 10.244835 2.000996 0.082309
v 10.245044 2.003435 0.074435
v 10.240101 1.999940 0.077931
v 10.244835 2.000996 0.078691
v 10.248677 2.006005 0.083995
v 10.248677 2.006005 0.077005
v 10.247393 2.002805 0.080500
v 10.240101 2.037500 0.052500
v 10.240101 2.037500 0.066500
v 10.250000 2.030500 0.059500
v 10.240101 2.040060 0.056931
v 10.245044 2.036565 0.053435
v 10.244835 2.039004 0.057691
v 10.245044 2.036565 0.065565
v 10.240101 2.040060 0.062069
v 10.244835 2.039004 0.061309
v 10.248677 2.033995 0.056005
v 10.248677 2.033995 0.062995
v 10.247393 2.037195 0.059500
v 10.240101 2.002500 0.087500
v 10.250000 2.009500 0.080500
v 10.240101 2.016500 0.087500
v 10.245044 2.003435 0.086565
v 10.240101 2.006931 0.090060
v 10.244835 2.007691 0.089004
v 10.248677 2.012995 0.083995
v 10.248677 2.006005 0.083995
v 10.247393 2.009500 0.087195
v 10.240101 2.012069 0.090060
v 10.245044 2.015565 0.086565
v 10.244835 2.011309 0.089004
v 9.759899 2.037500 0.122500
v 9.759899 2.023500 0.122500
v 9.750000 2.030500 0.129500
v 9.759899 2.033069 0.119940
v 9.754956 2.036565 0.123435
v 9.755165 2.032309 0.120996
v 9.754956 2.024435 0.123435
v 9.759899 2.027930 0.119940
v 9.755165 2.028691 0.120996
v 9.751323 2.033995 0.126005
v 9.751323 2.027004 0.126005
v 9.752607 2.030500 0.122805
v 9.759899 2.002500 0.143500
v 9.759899 2.002500 0.157500
v 9.750000 2.009500 0.150500
v 9.759899 1.999940 0.147931
v 9.754956 2.003435 0.144435
v 9.755165 2.000996 0.148691
v 9.754956 2.003435 0.156565
v 9.759899 1.999940 0.153069
v 9.755165 2.000996 0.152309
v 9.751323 2.006005 0.147005
v 9.751323 2.006005 0.153995
v 9.752607 2.002805 0.150500
v 9.759899 2.037500 0.122500
v 9.750000 2.030500 0.129500
v 9.759899 2.037500 0.136500
v 9.754956 2.036565 0.123435
v 9.759899 2.040060 0.126931
v 9.755165 2.039004 0.127691
v 9.751323 2.033995 0.132995
v 9.751323 2.033995 0.126005
v 9.752607 2.037195 0.129500
v 9.759899 2.040060 0.132069
v 9.754956 2.036565 0.135565
v 9.755165 2.039004 0.131309
v 9.759899 2.002500 0.157500
v 9.759899 2.016500 0.157500
v 9.750000 2.009500 0.150500
v 9.759899 2.006931 0.160060
v 9.754956 2.003435 0.156565
v 9.755165 2.007691 0.159004
v 9.754956 2.015565 0.156565
v 9.759899 2.012069 0.160060
v 9.755165 2.011309 0.159004
v 9.751323 2.006005 0.153995
v 9.751323 2.012995 0.153995
v 9.752607 2.009500 0.157195
v 10.240101 2.037500 0.122500
v 10.250000 2.030500 0.129500
v 10.240101 2.023500 0.122500
v 10.245044 2.036565 0.123435
v 10.240101 2.033069 0.119940
v 10.244835 2.032309 0.120996
v 10.248677 2.027004 0.126005
v 10.248677 2.033995 0.126005
v 10.247393 2.030500 0.122805
v 10.240101 2.027930 0.119940
v 10.245044 2.024435 0.123435
v 10.244835 2.028691 0.120996
v 10.240101 2.002500 0.157500
v 10.240101 2.002500 0.143500
v 10.250000 2.009500 0.150500
v 10.240101 1.999940 0.153069
v 10.245044 2.003435 0.156565
v 10.244835 2.000996 0.152309
v 10.245044 2.003435 0.144435
v 10.240101 1.999940 0.147931
v 10.244835 2.000996 0.148691
v 10.248677 2.006005 0.153995
v 10.248677 2.006005 0.147005
v 10.247393 2.002805 0.150500
v 10.240101 2.037500 0.122500
v 10.240101 2.037500 0.136500
v 10.250000 2.030500 0.129500
v 10.240101 2.040060 0.126931
v 10.245044 2.036565 0.123435
v 10.244835 2.039004 0.127691
v 10.245044 2.036565 0.135565
v 10.240101 2.040060 0.132069
v 10.244835 2.039004 0.131309
v 10.248677 2.033995 0.126005
v 10.248677 2.033995 0.132995
v 10.247393 2.037195 0.129500
v 10.240101 2.002500 0.157500
v 10.250000 2.009500 0.150500
v 10.240101 2.016500 0.157500
v 10.245044 2.003435 0.156565
v 10.240101 2.006931 0.160060
v 10.244835 2.007691 0.159004
v 10.248677 2.012995 0.153995
v 10.248677 2.006005 0.153995
v 10.247393 2.009500 0.157195
v 10.240101 2.012069 0.160060
v 10.245044 2.015565 0.156565
v 10.244835 2.011309 0.159004
v 9.759899 2.037500 0.192500
v 9.759899 2.023500 0.192500
v 9.750000 2.030500 0.199500
v 9.759899 2.033069 0.189940
v 9.754956 2.036565 0.193435
v 9.755165 2.032309 0.190996
v 9.754956 2.024435 0.193435
v 9.759899 2.027930 0.189940
v 9.755165 2.028691 0.190996
v 9.751323 2.033995 0.196005
v 9.751323 2.027004 0.196005
v 9.752607 2.030500 0.192805
v 9.759899 2.002500 0.213500
v 9.759899 2.002500 0.227500
v 9.750000 2.009500 0.220500
v 9.759899 1.999940 0.217931
v 9.754956 2.003435 0.214435
v 9.755165 2.000996 0.218691
v 9.754956 2.003435 0.226565
v 9.759899 1.999940 0.223069
v 9.755165 2.000996 0.222309
v 9.751323 2.006005 0.217005
v 9.751323 2.006005 0.223995
v 9.752607 2.002805 0.220500
v 9.759899 2.037500 0.192500
v 9.750000 2.030500 0.199500
v 9.759899 2.037500 0.206500
v 9.754956 2.036565 0.193435
v 9.759899 2.040060 0.196931
v 9.755165 2.039004 0.197691
v 9.751323 2.033995 0.202995
v 9.751323 2.033995 0.196005
v 9.752607 2.037195 0.199500
v 9.759899 2.040060 0.202069
v 9.754956 2.036565 0.205565
v 9.755165 2.039004 0.201309
v 9.759899 2.002500 0.227500
v 9.759899 2.016500 0.227500
v 9.750000 2.009500 0.220500
v 9.759899 2.006931 0.230060
v 9.754956 2.003435 0.226565
v 9.755165 2.007691 0.229004
v 9.754956 2.015565 0.226565
v 9.759899 2.012069 0.230060
v 9.755165 2.011309 0.229004
v 9.751323 2.006005 0.223995
v 9.751323 2.012995 0.223995
v 9.752607 2.009500 0.227195
v 10.240101 2.037500 0.192500
v 10.250000 2.030500 0.199500
v 10.240101 2.023500 0.192500
v 10.245044 2.036565 0.193435
v 10.240101 2.033069 0.189940
v 10.244835 2.032309 0.190996
v 10.248677 2.027004 0.196005
v 10.248677 2.033995 0.196005
v 10.247393 2.030500 0.192805
v 10.240101 2.027930 0.189940
v 10.245044 2.024435 0.193435
v 10.244835 2.028691 0.190996
v 10.240101 2.002500 0.227500
v 10.240101 2.002500 0.213500
v 10.250000 2.009500 0.220500
v 10.240101 1.999940 0.223069
v 10.245044 2.003435 0.226565
v 10.244835 2.000996 0.222309
v 10.245044 2.003435 0.214435
v 10.240101 1.999940 0.217931
v 10.244835 2.000996 0.218691
v 10.248677 2.006005 0.223995
v 10.248677 2.006005 0.217005
v 10.247393 2.002805 0.220500
v 10.240101 2.037500 0.192500
v 10.240101 2.037500 0.206500
v 10.250000 2.030500 0.199500
v 10.240101 2.040060 0.196931
v 10.245044 2.036565 0.193435
v 10.244835 2.039004 0.197691
v 10.245044 2.036565 0.205565
v 10.240101 2.040060 0.202069
v 10.244835 2.039004 0.201309
v 10.248677 2.033995 0.196005
v 10.248677 2.033995 0.202995
v 10.247393 2.037195 0.199500
v 10.240101 2.002500 0.227500
v 10.250000 2.009500 0.220500
v 10.240101 2.016500 0.227500
v 10.245044 2.003435 0.226565
v 10.240101 2.006931 0.230060
v 10.244835 2.007691 0.229004
v 10.248677 2.012995 0.223995
v 10.248677 2.006005 0.223995
v 10.247393 2.009500 0.227195
v 10.240101 2.012069 0.230060
v 10.245044 2.015565 0.226565
v 10.244835 2.011309 0.229004
vn -0.1296 -0.1296 -0.9831
vn -0.1296 -0.9831 -0.1296
vn -0.9831 -0.1296 -0.1296
vn -0.1216 -0.4915 -0.8623
vn -0.4915 -0.1216 -0.8623
vn -0.4473 -0.4474 -0.7744
vn -0.4915 -0.8623 -0.1216
vn -0.1216 -0.8623 -0.4915
vn -0.4473 -0.7744 -0.4473
vn -0.8623 -0.1216 -0.4915
vn -0.8623 -0.4915 -0.1216
vn -0.7744 -0.4474 -0.4473
vn -0.1296 -0.9831 0.1296
vn -0.1296 -0.1296 0.9831
vn -0.9831 -0.1296 0.1296
vn -0.1216 -0.8623 0.4915
vn -0.4915 -0.8623 0.1216
vn -0.4473 -0.7744 0.4473
vn -0.4915 -0.1216 0.8623
vn -0.1216 -0.4915 0.8623
vn -0.4473 -0.4474 0.7744
vn -0.8623 -0.4915 0.1216
vn -0.8623 -0.1216 0.4915
vn -0.7744 -0.4474 0.4473
vn -0.1296 0.1296 -0.9831
vn -0.9831 0.1296 -0.1296
vn -0.1296 0.9831 -0.1296
vn -0.4915 0.1216 -0.8623
vn -0.1216 0.4915 -0.8623
vn -0.4473 0.4474 -0.7744
vn -0.8623 0.4915 -0.1216
vn -0.8623 0.1216 -0.4915
vn -0.7744 0.4474 -0.4473
vn -0.1216 0.8623 -0.4915
vn -0.4915 0.8623 -0.1216
vn -0.4473 0.7744 -0.4473
vn -0.1296 0.1296 0.9831
vn -0.1296 0.9831 0.1296
vn -0.9831 0.1296 0.1296
vn -0.1216 0.4915 0.8623
vn -0.4915 0.1216 0.8623
vn -0.4473 0.4474 0.7744
vn -0.4915 0.8623 0.1216
vn -0.1216 0.8623 0.4915
vn -0.4473 0.7744 0.4473
vn -0.8623 0.1216 0.4915
vn -0.8623 0.4915 0.1216
vn -0.7744 0.4474 0.4473
vn 0.1296 -0.1296 -0.9831
vn 0.9831 -0.1296 -0.1296
vn 0.1296 -0.9831 -0.1296
vn 0.4915 -0.1216 -0.8623
vn 0.1216 -0.4915 -0.8623
vn 0.4473 -0.4474 -0.7744
vn 0.8623 -0.4915 -0.1216
vn 0.8623 -0.1216 -0.4915
vn 0.7744 -0.4474 -0.4473
vn 0.1216 -0.8623 -0.4915
vn 0.4915 -0.8623 -0.1216
vn 0.4473 -0.7744 -0.4473
vn 0.1296 -0.1296 0.9831
vn 0.1296 -0.9831 0.1296
vn 0.9831 -0.1296 0.1296
vn 0.1216 -0.4915 0.8623
vn 0.4915 -0.1216 0.8623
vn 0.4473 -0.4474 0.7744
vn 0.4915 -0.8623 0.1216
vn 0.1216 -0.8623 0.4915
vn 0.4473 -0.7744 0.4473
vn 0.8623 -0.1216 0.4915
vn 0.8623 -0.4915 0.1216
vn 0.7744 -0.4474 0.4473
vn 0.1296 0.1296 -0.9831
vn 0.1296 0.9831 -0.1296
vn 0.9831 0.1296 -0.1296
vn 0.1216 0.4915 -0.8623
vn 0.4915 0.1216 -0.8623
vn 0.4473 0.4474 -0.7744
vn 0.4915 0.8623 -0.1216
vn 0.1216 0.8623 -0.4915
vn 0.4473 0.7744 -0.4473
vn 0.8623 0.1216 -0.4915
vn 0.8623 0.4915 -0.1216
vn 0.7744 0.4474 -0.4473
vn 0.1296 0.1296 0.9831
vn 0.9831 0.1296 0.1296
vn 0.1296 0.9831 0.1296
vn 0.4915 0.1216 0.8623
vn 0.1216 0.4915 0.8623
vn 0.4473 0.4474 0.7744
vn 0.8623 0.4915 0.1216
vn 0.8623 0.1216 0.4915
vn 0.7744 0.4474 0.4473
vn 0.1216 0.8623 0.4915
vn 0.4915 0.8623 0.1216
vn 0.4473 0.7744 0.4473
vn -0.2358 0.9189 0.3163
vn -0.1296 -0.6035 -0.7868
vn -0.9283 -0.0713 0.3650
vn -0.1216 0.2622 -0.9573
vn -0.6732 0.5998 0.4325
vn -0.4473 0.2313 -0.8639
vn -0.4915 -0.5238 -0.6957
vn -0.1216 -0.2622 -0.9573
vn -0.4473 -0.2313 -0.8639
vn -0.9932 0.1164 -0.0052
vn -0.8623 -0.2616 -0.4335
vn -0.7744 -0.0000 -0.6326
vn -0.1296 -0.7868 -0.6035
vn -0.1659 -0.7598 0.6286
vn -0.9822 -0.1561 0.1048
vn -0.1216 -0.9573 -0.2622
vn -0.4915 -0.6957 -0.5238
vn -0.4473 -0.8639 -0.2313
vn -0.5327 -0.8118 0.2395
vn -0.1216 -0.9573 0.2622
vn -0.4473 -0.8639 0.2313
vn -0.8623 -0.4335 -0.2616
vn -0.9202 -0.3795 0.0962
vn -0.7744 -0.6326 -0.0000
vn -0.1238 0.8418 0.5254
vn -0.9731 0.1548 0.1708
vn -0.1296 0.7868 0.6035
vn -0.4254 0.6906 0.5849
vn -0.1216 0.9573 -0.2622
vn -0.4473 0.8639 -0.2313
vn -0.8623 0.4335 0.2616
vn -0.9140 0.3373 0.2254
vn -0.7744 0.6326 -0.0000
vn -0.1216 0.9573 0.2622
vn -0.4915 0.6957 0.5238
vn -0.4473 0.8639 0.2313
vn -0.1782 -0.5713 0.8012
vn -0.1296 0.6035 0.7868
vn -0.7573 0.0582 0.6505
vn -0.1216 -0.2622 0.9573
vn -0.5266 -0.7003 0.4819
vn -0.4473 -0.2313 0.8639
vn -0.4915 0.5238 0.6957
vn -0.1216 0.2622 0.9573
vn -0.4473 0.2313 0.8639
vn -0.8853 -0.3598 0.2945
vn -0.8623 0.2616 0.4335
vn -0.7744 -0.0000 0.6326
vn 0.1201 0.4688 -0.8751
vn 0.9273 -0.1122 0.3570
vn 0.1296 -0.6035 -0.7868
vn 0.6714 0.2383 -0.7017
vn 0.1216 0.2622 -0.9573
vn 0.4473 0.2313 -0.8639
vn 0.8623 -0.2616 -0.4335
vn 0.5166 0.1244 -0.8472
vn 0.7744 -0.0000 -0.6326
vn 0.1216 -0.2622 -0.9573
vn 0.4915 -0.5238 -0.6957
vn 0.4473 -0.2313 -0.8639
vn 0.1659 -0.7598 0.6286
vn 0.1296 -0.7868 -0.6035
vn 0.9743 -0.1557 0.1629
vn 0.1216 -0.9573 0.2622
vn 0.4934 -0.8362 0.2394
vn 0.4473 -0.8639 0.2313
vn 0.4915 -0.6957 -0.5238
vn 0.1216 -0.9573 -0.2622
vn 0.4473 -0.8639 -0.2313
vn 0.9050 -0.3982 0.1498
vn 0.8623 -0.4335 -0.2616
vn 0.7744 -0.6326 -0.0000
vn 0.1301 0.8857 -0.4456
vn 0.1296 0.7868 0.6035
vn 0.7904 0.4809 -0.3796
vn 0.1216 0.9573 -0.2622
vn 0.5451 0.5042 -0.6698
vn 0.4473 0.8639 -0.2313
vn 0.4915 0.6957 0.5238
vn 0.1216 0.9573 0.2622
vn 0.4473 0.8639 0.2313
vn 0.9090 0.3371 -0.2452
vn 0.8623 0.4335 0.2616
vn 0.7744 0.6326 -0.0000
vn 0.1782 -0.5713 0.8012
vn 0.7454 0.0574 0.6641
vn 0.1296 0.6035 0.7868
vn 0.5029 -0.7176 0.4818
vn 0.1216 -0.2622 0.9573
vn 0.4473 -0.2313 0.8639
vn 0.8623 0.2616 0.4335
vn 0.8559 -0.4032 0.3237
vn 0.7744 -0.0000 0.6326
vn 0.1216 0.2622 0.9573
vn 0.4915 0.5238 0.6957
vn 0.4473 0.2313 0.8639
vn -0.7631 -0.1637 -0.6252
vn -0.9874 0.1181 -0.1056
vn -0.1912 -0.5091 0.8392
vn -0.9711 -0.1897 0.1452
vn -0.4761 -0.4454 0.7582
vn -0.7602 -0.3027 0.5749
vn -0.9767 0.1877 -0.1037
vn -0.9268 0.3490 0.1390
vn -0.1883 -0.2474 0.9504
vn -0.7401 0.1617 0.6528
vn -0.4047 -0.1994 0.8924
vn -0.8145 -0.0793 0.5748
vn 0.0985 0.4701 -0.8771
vn 0.7631 -0.1637 -0.6252
vn 0.6656 0.2400 -0.7067
vn 0.9285 0.0768 -0.3634
vn 0.1912 -0.5091 0.8392
vn 0.9711 -0.1897 0.1452
vn 0.4655 -0.4471 0.7638
vn 0.7466 -0.3075 0.5900
vn 0.1117 0.8879 -0.4464
vn 0.9767 0.1877 -0.1037
vn 0.5340 0.5087 -0.6753
vn 0.9548 0.2664 -0.1317
vn 0.1883 -0.2474 0.9504
vn 0.7401 0.1617 0.6528
vn 0.3861 -0.2001 0.9005
vn 0.8098 -0.0798 0.5813
vn -0.9097 -0.1142 0.3992
vn -0.7722 0.2916 -0.5645
vn -0.1122 -0.5049 0.8559
vn -0.8785 -0.1849 0.4406
vn -0.3968 -0.4532 0.7982
vn -0.7978 -0.3011 0.5224
vn -0.7723 0.5718 -0.2766
vn -0.6429 0.7642 0.0515
vn -0.1032 -0.2445 0.9641
vn -0.9148 0.0527 0.4005
vn -0.3652 -0.2003 0.9091
vn -0.8709 -0.0808 0.4847
vn 0.2100 0.4648 -0.8601
vn 0.9335 -0.0719 0.3514
vn 0.6967 0.2318 -0.6789
vn 0.9511 0.0774 -0.2991
vn 0.1122 -0.5049 0.8559
vn 0.6262 -0.2558 0.7365
vn 0.1884 -0.5178 0.8345
vn 0.0540 -0.5543 0.8305
vn 0.2065 0.8767 -0.4346
vn 0.9781 0.1562 0.1376
vn 0.5910 0.4877 -0.6425
vn 0.9583 0.2656 -0.1057
vn 0.1032 -0.2445 0.9641
vn 0.3606 0.0887 0.9285
vn -0.0099 -0.2429 0.9700
vn -0.0863 -0.1368 0.9868
vn -0.1180 0.6052 -0.7873
vn -0.9823 -0.0468 -0.1815
vn -0.6247 0.3955 -0.6733
vn -0.9552 -0.0045 -0.2961
vn -0.1197 -0.8363 0.5350
vn -0.9906 -0.1365 -0.0086
vn -0.6180 -0.5929 0.5163
vn -0.9499 -0.1953 0.2439
vn -0.1180 0.7882 -0.6041
vn -0.9906 0.1362 0.0162
vn -0.6790 0.5734 -0.4585
vn -0.9739 0.1871 -0.1285
vn -0.1218 -0.6678 0.7343
vn -0.9827 0.0467 0.1793
vn -0.5672 -0.4404 0.6959
vn -0.9083 -0.0081 0.4183
vn 0.1075 0.6062 -0.7880
vn 0.9819 -0.0468 -0.1835
vn 0.6139 0.4130 -0.6727
vn 0.9548 0.0185 -0.2966
vn 0.1234 -0.8209 0.5575
vn 0.9906 -0.1368 0.0035
vn 0.5788 -0.6033 0.5487
vn 0.9373 -0.2073 0.2803
vn 0.1074 0.7890 -0.6050
vn 0.9905 0.1361 0.0181
vn 0.6659 0.5904 -0.4560
vn 0.9725 0.1970 -0.1240
vn 0.1246 -0.6478 0.7515
vn 0.9815 0.0467 0.1857
vn 0.5641 -0.4012 0.7216
vn 0.8976 -0.0270 0.4399
vn -0.9815 -0.0467 -0.1856
vn -0.9847 0.1187 -0.1276
vn -0.0405 -0.5075 0.8607
vn -0.9905 -0.1374 0.0085
vn -0.3395 -0.4690 0.8154
vn -0.8251 -0.2918 0.4839
vn -0.9852 0.1401 -0.0986
vn -0.9281 0.3523 0.1201
vn -0.4474 0.8639 0.2313
vn -0.0265 -0.2456 0.9690
vn -0.9869 0.0466 0.1544
vn -0.3551 -0.2048 0.9121
vn -0.4474 0.2313 0.8639
vn -0.8812 -0.0797 0.4659
vn 0.1683 0.4664 -0.8684
vn 0.9821 -0.0468 -0.1826
vn 0.6848 0.2347 -0.6900
vn 0.9503 0.0773 -0.3016
vn 0.0405 -0.5075 0.8607
vn 0.8584 -0.5124 -0.0225
vn 0.4505 -0.4860 0.7489
vn 0.8523 -0.3626 0.3770
vn 0.1712 0.8809 -0.4413
vn 0.9906 0.1362 0.0154
vn 0.5697 0.4950 -0.6560
vn 0.9582 0.2656 -0.1067
vn 0.0265 -0.2456 0.9690
vn 0.9774 0.0629 0.2018
vn 0.5392 -0.2179 0.8135
vn 0.4278 -0.1873 0.8843
vn 0.4474 0.2313 0.8639
vn -0.9809 -0.0467 -0.1886
vn -0.9834 0.1190 -0.1367
vn -0.0572 -0.5063 0.8604
vn -0.9902 -0.1369 -0.0271
vn -0.3711 -0.4648 0.8039
vn -0.8428 -0.2897 0.4535
vn -0.9842 0.1405 -0.1076
vn -0.9286 0.3538 0.1124
vn -0.0445 -0.2450 0.9685
vn -0.9887 0.0466 0.1422
vn -0.3869 -0.2039 0.8993
vn -0.9006 -0.0802 0.4272
vn 0.1470 0.4673 -0.8718
vn 0.9809 -0.0467 -0.1886
vn 0.6788 0.2362 -0.6953
vn 0.9167 0.0768 -0.3920
vn 0.0572 -0.5063 0.8604
vn 0.8556 -0.5132 -0.0676
vn 0.4830 -0.4849 0.7291
vn 0.8737 -0.3626 0.3244
vn 0.1530 0.8830 -0.4437
vn 0.9842 0.1405 -0.1076
vn 0.5588 0.4990 -0.6623
vn 0.4474 0.8639 -0.2313
vn 0.9530 0.2671 -0.1433
vn 0.0445 -0.2450 0.9685
vn 0.9785 0.0630 0.1965
vn 0.5752 -0.2197 0.7880
vn 0.4669 -0.1975 0.8620
vn -0.2994 0.8988 -0.3202
vn -0.9268 -0.0712 0.3687
vn -0.4867 0.7526 -0.4436
vn -0.8227 0.4796 -0.3052
vn -0.0742 -0.5055 0.8596
vn -0.4971 -0.6898 0.5264
vn -0.1271 -0.5242 0.8420
vn 0.0139 -0.6431 0.7657
vn -0.2348 0.9719 0.0159
vn -0.9716 0.1544 0.1795
vn -0.4403 0.8757 -0.1982
vn -0.9001 0.4241 -0.1000
vn -0.0626 -0.2446 0.9676
vn -0.5430 0.0742 0.8365
vn 0.0582 -0.2446 0.9679
vn 0.2887 -0.1968 0.9370
vn 0.3195 0.8274 -0.4619
vn 0.9344 -0.0720 0.3489
vn 0.5142 0.6737 -0.5308
vn 0.8573 0.4098 -0.3117
vn 0.0742 -0.5055 0.8596
vn 0.4971 -0.6898 0.5264
vn 0.0973 -0.5585 0.8238
vn -0.1760 -0.7708 0.6122
vn 0.2511 0.9623 -0.1044
vn 0.9789 0.1564 0.1314
vn 0.5004 0.8205 -0.2763
vn 0.8993 0.4139 -0.1413
vn 0.0626 -0.2446 0.9676
vn 0.5430 0.0742 0.8365
vn -0.1333 -0.2737 0.9525
vn -0.3881 -0.2165 0.8958
vt 0.512165 0.012165
vt 0.508112 0.012165
vt 0.508284 0.008284
vt 0.512165 0.008112
vt 0.504049 0.012165
vt 0.504049 0.008284
vt 0.487835 0.512165
vt 0.487835 0.508112
vt 0.495951 0.508284
vt 0.495951 0.512165
vt 0.487835 0.504049
vt 0.495951 0.504049
vt 0.610343 0.487835
vt 0.610343 0.495951
vt 0.606462 0.495951
vt 0.602227 0.487835
vt 0.512165 0.004049
vt 0.508283 0.004049
vt 0.012165 0.512165
vt 0.004049 0.512165
vt 0.004049 0.508284
vt 0.012165 0.508112
vt 0.553138 0.487835
vt 0.557201 0.487835
vt 0.557373 0.491716
vt 0.553138 0.491716
vt 0.561254 0.487835
vt 0.561254 0.491888
vt 0.561254 0.495951
vt 0.557373 0.495951
vt 0.610343 0.012165
vt 0.602227 0.012165
vt 0.606462 0.004049
vt 0.610343 0.004049
vt 0.012165 0.504049
vt 0.004049 0.504049
vt 0.536925 0.012165
vt 0.536925 0.008112
vt 0.540806 0.008284
vt 0.540977 0.012165
vt 0.536925 0.004049
vt 0.540806 0.004049
vt 0.635103 0.487835
vt 0.643219 0.487835
vt 0.638984 0.495951
vt 0.635103 0.495951
vt 0.487835 0.495951
vt 0.487835 0.491888
vt 0.495951 0.491716
vt 0.495951 0.495951
vt 0.487835 0.487835
vt 0.495951 0.487835
vt 0.545041 0.012165
vt 0.545041 0.008284
vt 0.586014 0.487835
vt 0.590067 0.487835
vt 0.589895 0.491716
vt 0.586014 0.491888
vt 0.594130 0.487835
vt 0.594130 0.491716
vt 0.012165 0.487835
vt 0.012165 0.491888
vt 0.004049 0.491716
vt 0.004049 0.487835
vt 0.012165 0.495951
vt 0.004049 0.495951
vt 0.635103 0.012165
vt 0.635103 0.004049
vt 0.638984 0.004049
vt 0.643219 0.012165
vt 0.586014 0.495951
vt 0.589895 0.495951
vt 0.512165 0.487835
vt 0.512165 0.491888
vt 0.508283 0.491716
vt 0.508112 0.487835
vt 0.512165 0.495951
vt 0.508283 0.495951
vt 0.684193 0.487835
vt 0.688245 0.487835
vt 0.688074 0.495951
vt 0.684193 0.495951
vt 0.692309 0.487835
vt 0.692309 0.495951
vt 0.487835 0.987835
vt 0.495951 0.987835
vt 0.495951 0.991717
vt 0.487835 0.995951
vt 0.504049 0.487835
vt 0.504049 0.491716
vt 0.561254 0.012165
vt 0.557201 0.012165
vt 0.557373 0.008284
vt 0.561254 0.008112
vt 0.553138 0.012165
vt 0.553138 0.008284
vt 0.012165 0.987835
vt 0.012165 0.995951
vt 0.004049 0.991716
vt 0.004049 0.987835
vt 0.692309 0.012165
vt 0.688245 0.012165
vt 0.688074 0.004049
vt 0.692309 0.004049
vt 0.684193 0.012165
vt 0.684193 0.004049
vt 0.561254 0.004049
vt 0.557373 0.004049
vt 0.536925 0.487835
vt 0.540977 0.487835
vt 0.540806 0.491716
vt 0.536925 0.491888
vt 0.545041 0.487835
vt 0.545041 0.491716
vt 0.487835 0.012165
vt 0.487835 0.004049
vt 0.495951 0.008284
vt 0.495951 0.012165
vt 0.651317 0.487835
vt 0.655380 0.487835
vt 0.655552 0.495951
vt 0.651317 0.495951
vt 0.659433 0.487835
vt 0.659433 0.495951
vt 0.536925 0.495951
vt 0.540806 0.495951
vt 0.586014 0.012165
vt 0.586014 0.008112
vt 0.589895 0.008284
vt 0.590067 0.012165
vt 0.586014 0.004049
vt 0.589895 0.004049
vt 0.659433 0.012165
vt 0.655380 0.012165
vt 0.655552 0.004049
vt 0.659433 0.004049
vt 0.651317 0.012165
vt 0.651317 0.004049
vt 0.012165 0.012165
vt 0.004049 0.012165
vt 0.004049 0.008284
vt 0.012165 0.004049
vt 0.594130 0.012165
vt 0.594130 0.008284
vt 0.734839 0.012165
vt 0.731974 0.012165
vt 0.732095 0.008284
vt 0.734839 0.004049
vt 0.726227 0.012165
vt 0.727608 0.008284
vt 0.723361 0.012165
vt 0.723361 0.004049
vt 0.700406 0.872545
vt 0.704469 0.872545
vt 0.704641 0.876426
vt 0.702543 0.876426
vt 0.708522 0.872545
vt 0.708522 0.876598
vt 0.708522 0.880661
vt 0.704641 0.878523
vt 0.732095 0.006186
vt 0.706145 0.012165
vt 0.703279 0.012165
vt 0.703400 0.008284
vt 0.706145 0.004049
vt 0.700406 0.012165
vt 0.700406 0.008284
vt 0.944112 0.430181
vt 0.944112 0.422065
vt 0.949851 0.426300
vt 0.949851 0.430181
vt 0.708522 0.840081
vt 0.708522 0.844144
vt 0.704641 0.844316
vt 0.700406 0.840081
vt 0.708522 0.848197
vt 0.704469 0.848197
vt 0.700406 0.848197
vt 0.702544 0.844316
vt 0.703400 0.006186
vt 0.737584 0.004049
vt 0.740578 0.012165
vt 0.712403 0.876426
vt 0.712403 0.880661
vt 0.712575 0.872545
vt 0.716638 0.872545
vt 0.716638 0.876426
vt 0.868170 0.823868
vt 0.871036 0.823868
vt 0.870914 0.831984
vt 0.868170 0.831984
vt 0.873909 0.823868
vt 0.873909 0.831984
vt 0.938373 0.430181
vt 0.938373 0.426300
vt 0.944112 0.422065
vt 0.845214 0.823868
vt 0.848088 0.823868
vt 0.848209 0.827749
vt 0.845214 0.827749
vt 0.850953 0.823868
vt 0.850953 0.831984
vt 0.716638 0.848197
vt 0.712575 0.848197
vt 0.712403 0.844316
vt 0.714500 0.844316
vt 0.708522 0.848197
vt 0.708522 0.840081
vt 0.716638 0.840081
vt 0.848209 0.829846
vt 0.734839 0.405852
vt 0.734839 0.413967
vt 0.732095 0.413967
vt 0.731973 0.405851
vt 0.756791 0.880661
vt 0.756792 0.876598
vt 0.760673 0.876426
vt 0.760673 0.880661
vt 0.756791 0.872545
vt 0.760844 0.872545
vt 0.764907 0.872545
vt 0.764907 0.876426
vt 0.723361 0.405851
vt 0.726227 0.405851
vt 0.726106 0.413967
vt 0.723361 0.413967
vt 0.944112 0.823868
vt 0.949851 0.823868
vt 0.949851 0.827749
vt 0.944112 0.831984
vt 0.700406 0.405851
vt 0.703279 0.405851
vt 0.703400 0.409733
vt 0.700406 0.409733
vt 0.706145 0.405851
vt 0.706145 0.413967
vt 0.764907 0.848197
vt 0.760844 0.848197
vt 0.760673 0.844316
vt 0.762770 0.844316
vt 0.756791 0.848197
vt 0.756791 0.844145
vt 0.756791 0.840081
vt 0.764907 0.840081
vt 0.703400 0.411830
vt 0.740578 0.405851
vt 0.740578 0.409733
vt 0.873909 0.430181
vt 0.871036 0.430181
vt 0.870914 0.426300
vt 0.873909 0.426300
vt 0.868170 0.430181
vt 0.868170 0.426128
vt 0.868170 0.422065
vt 0.870914 0.422065
vt 0.756791 0.872545
vt 0.756791 0.876598
vt 0.748676 0.876426
vt 0.748675 0.872545
vt 0.748675 0.880661
vt 0.941368 0.831984
vt 0.938373 0.823868
vt 0.756792 0.844144
vt 0.752910 0.844316
vt 0.752910 0.840081
vt 0.756791 0.848197
vt 0.748675 0.848197
vt 0.850953 0.422065
vt 0.850953 0.426128
vt 0.848209 0.426300
vt 0.848209 0.424202
vt 0.850953 0.430181
vt 0.848088 0.430181
vt 0.845214 0.430181
vt 0.845214 0.422065
vt 0.750813 0.844316
vt 0.783109 0.012165
vt 0.780243 0.012165
vt 0.780364 0.008284
vt 0.783109 0.004049
vt 0.774497 0.012165
vt 0.775877 0.008284
vt 0.771631 0.012165
vt 0.771631 0.004049
vt 0.845214 0.872545
vt 0.849278 0.872545
vt 0.849449 0.876426
vt 0.847352 0.876426
vt 0.853330 0.872545
vt 0.853330 0.876598
vt 0.853330 0.880661
vt 0.849449 0.878523
vt 0.780364 0.006186
vt 0.754414 0.012165
vt 0.751549 0.012165
vt 0.751670 0.008284
vt 0.754414 0.004049
vt 0.748676 0.012165
vt 0.748676 0.008284
vt 0.918798 0.012165
vt 0.918798 0.004049
vt 0.924537 0.008284
vt 0.924537 0.012165
vt 0.853330 0.840081
vt 0.853330 0.844144
vt 0.849449 0.844316
vt 0.845214 0.840081
vt 0.853330 0.848197
vt 0.849278 0.848197
vt 0.845214 0.848197
vt 0.847352 0.844316
vt 0.751670 0.006186
vt 0.785853 0.004049
vt 0.788848 0.012165
vt 0.857212 0.876426
vt 0.857212 0.880661
vt 0.853330 0.872545
vt 0.857383 0.872545
vt 0.861446 0.872545
vt 0.861446 0.876426
vt 0.904962 0.823868
vt 0.907827 0.823868
vt 0.907706 0.831984
vt 0.904962 0.831984
vt 0.910701 0.823868
vt 0.910701 0.831984
vt 0.918798 0.012165
vt 0.913059 0.012165
vt 0.913059 0.008284
vt 0.882006 0.823868
vt 0.884879 0.823868
vt 0.885001 0.827749
vt 0.882006 0.827749
vt 0.887745 0.823868
vt 0.887745 0.831984
vt 0.861446 0.848197
vt 0.857383 0.848197
vt 0.857212 0.844316
vt 0.859309 0.844316
vt 0.853331 0.848197
vt 0.853330 0.844144
vt 0.853330 0.840081
vt 0.861446 0.840081
vt 0.885001 0.829846
vt 0.783109 0.405852
vt 0.783109 0.413967
vt 0.780364 0.413967
vt 0.780243 0.405851
vt 0.781121 0.929338
vt 0.781121 0.925275
vt 0.785002 0.925103
vt 0.785002 0.929338
vt 0.781121 0.921222
vt 0.785174 0.921222
vt 0.789237 0.921222
vt 0.789237 0.925103
vt 0.771631 0.405851
vt 0.774497 0.405851
vt 0.774375 0.413967
vt 0.771631 0.413967
vt 0.918798 0.405852
vt 0.924537 0.405851
vt 0.924537 0.409733
vt 0.918798 0.413967
vt 0.748675 0.405851
vt 0.751549 0.405851
vt 0.751670 0.409733
vt 0.748675 0.409733
vt 0.754414 0.405851
vt 0.754414 0.413967
vt 0.789237 0.896874
vt 0.785174 0.896874
vt 0.785002 0.892993
vt 0.787099 0.892993
vt 0.781121 0.896874
vt 0.781121 0.892822
vt 0.781121 0.888758
vt 0.789237 0.888758
vt 0.751670 0.411830
vt 0.788848 0.405851
vt 0.788848 0.409733
vt 0.910701 0.430181
vt 0.907827 0.430181
vt 0.907706 0.426300
vt 0.910701 0.426300
vt 0.904962 0.430181
vt 0.904962 0.426128
vt 0.904962 0.422065
vt 0.907706 0.422065
vt 0.781121 0.921222
vt 0.781121 0.925275
vt 0.773005 0.925104
vt 0.773005 0.921222
vt 0.781121 0.929338
vt 0.773005 0.929338
vt 0.916054 0.413967
vt 0.913059 0.405851
vt 0.781121 0.892822
vt 0.777240 0.892993
vt 0.777240 0.888758
vt 0.773005 0.896874
vt 0.887745 0.422065
vt 0.887745 0.426128
vt 0.885001 0.426300
vt 0.885001 0.424202
vt 0.887745 0.430181
vt 0.884879 0.430181
vt 0.882006 0.430181
vt 0.882006 0.422065
vt 0.775142 0.892993
vt 0.783109 0.430181
vt 0.780243 0.430181
vt 0.780364 0.426300
vt 0.783109 0.422065
vt 0.774497 0.430181
vt 0.775877 0.426300
vt 0.771631 0.430181
vt 0.771631 0.422065
vt 0.869544 0.872545
vt 0.873607 0.872545
vt 0.873779 0.876426
vt 0.871681 0.876426
vt 0.877660 0.872545
vt 0.877660 0.876598
vt 0.877660 0.880661
vt 0.873779 0.878523
vt 0.780364 0.424202
vt 0.754414 0.430181
vt 0.751549 0.430181
vt 0.751670 0.426300
vt 0.754414 0.422065
vt 0.748676 0.430181
vt 0.748676 0.426300
vt 0.924537 0.430181
vt 0.924537 0.422065
vt 0.930276 0.426300
vt 0.930276 0.430181
vt 0.877660 0.840081
vt 0.877660 0.844144
vt 0.873779 0.844316
vt 0.869544 0.840081
vt 0.877660 0.848197
vt 0.873607 0.848197
vt 0.869544 0.848197
vt 0.871681 0.844316
vt 0.751670 0.424202
vt 0.785853 0.422065
vt 0.788848 0.430181
vt 0.881541 0.876426
vt 0.881541 0.880661
vt 0.881712 0.872545
vt 0.885776 0.872545
vt 0.885776 0.876426
vt 0.527004 0.905851
vt 0.529870 0.905852
vt 0.529749 0.913968
vt 0.527004 0.913967
vt 0.532743 0.905852
vt 0.532743 0.913967
vt 0.918798 0.430181
vt 0.918798 0.426300
vt 0.504049 0.905852
vt 0.506922 0.905851
vt 0.507043 0.909733
vt 0.504049 0.909733
vt 0.509788 0.905851
vt 0.509788 0.913967
vt 0.885776 0.848197
vt 0.881713 0.848197
vt 0.881541 0.844316
vt 0.883638 0.844316
vt 0.877660 0.848197
vt 0.877660 0.840081
vt 0.885776 0.840081
vt 0.507043 0.911830
vt 0.783109 0.823868
vt 0.783109 0.831984
vt 0.780364 0.831984
vt 0.780243 0.823868
vt 0.901989 0.880661
vt 0.901989 0.876598
vt 0.905870 0.876426
vt 0.905870 0.880661
vt 0.901989 0.872545
vt 0.906042 0.872545
vt 0.910105 0.872545
vt 0.910105 0.876426
vt 0.771631 0.823868
vt 0.774497 0.823868
vt 0.774375 0.831984
vt 0.771631 0.831984
vt 0.924537 0.823868
vt 0.930276 0.823868
vt 0.930276 0.827749
vt 0.924537 0.831984
vt 0.748675 0.823868
vt 0.751549 0.823868
vt 0.751670 0.827749
vt 0.748675 0.827749
vt 0.754414 0.823868
vt 0.754414 0.831984
vt 0.910105 0.848197
vt 0.906042 0.848197
vt 0.905870 0.844316
vt 0.907968 0.844316
vt 0.901989 0.848197
vt 0.901989 0.844144
vt 0.901989 0.840081
vt 0.910105 0.840081
vt 0.751670 0.829846
vt 0.783109 0.823868
vt 0.788848 0.823868
vt 0.788848 0.827749
vt 0.532743 0.512165
vt 0.529870 0.512165
vt 0.529749 0.508284
vt 0.532743 0.508284
vt 0.527004 0.512165
vt 0.527004 0.508112
vt 0.527004 0.504049
vt 0.529749 0.504049
vt 0.901989 0.872545
vt 0.901989 0.876598
vt 0.893873 0.876426
vt 0.893873 0.872545
vt 0.893873 0.880661
vt 0.921792 0.831984
vt 0.918798 0.823868
vt 0.901989 0.840081
vt 0.901989 0.844144
vt 0.898108 0.844316
vt 0.898108 0.840081
vt 0.901989 0.848197
vt 0.893873 0.848197
vt 0.509788 0.504049
vt 0.509788 0.508112
vt 0.507043 0.508284
vt 0.507043 0.506186
vt 0.509788 0.512165
vt 0.506922 0.512165
vt 0.504049 0.512165
vt 0.504049 0.504049
vt 0.896011 0.844316
vt 0.938373 0.012165
vt 0.932634 0.012165
vt 0.932634 0.008284
vt 0.938373 0.004049
vt 0.885387 0.012165
vt 0.882513 0.012165
vt 0.882392 0.008284
vt 0.885386 0.008284
vt 0.879648 0.012165
vt 0.879648 0.004049
vt 0.700406 0.921222
vt 0.704469 0.921222
vt 0.704641 0.925103
vt 0.702543 0.925103
vt 0.708522 0.921222
vt 0.708522 0.925275
vt 0.708522 0.929338
vt 0.700406 0.929338
vt 0.882392 0.006186
vt 0.862431 0.012165
vt 0.859565 0.012165
vt 0.859687 0.008284
vt 0.862431 0.004049
vt 0.853819 0.012165
vt 0.855200 0.008284
vt 0.850953 0.012165
vt 0.850953 0.004049
vt 0.708522 0.888758
vt 0.708522 0.892822
vt 0.704641 0.892993
vt 0.704641 0.890896
vt 0.708522 0.896874
vt 0.704469 0.896874
vt 0.700406 0.896874
vt 0.702543 0.892993
vt 0.859687 0.006186
vt 0.938373 0.012165
vt 0.938373 0.004049
vt 0.941118 0.004049
vt 0.944112 0.012165
vt 0.708522 0.925275
vt 0.712403 0.925103
vt 0.712403 0.929338
vt 0.708522 0.921222
vt 0.712575 0.921222
vt 0.716638 0.921222
vt 0.716638 0.925103
vt 0.563796 0.905852
vt 0.566662 0.905852
vt 0.566540 0.913967
vt 0.563796 0.913967
vt 0.569535 0.905852
vt 0.569535 0.913967
vt 0.845215 0.012165
vt 0.845215 0.008284
vt 0.540841 0.905852
vt 0.543714 0.905851
vt 0.543835 0.909733
vt 0.540840 0.909733
vt 0.546579 0.905852
vt 0.546579 0.913967
vt 0.716638 0.896874
vt 0.712575 0.896874
vt 0.712403 0.892993
vt 0.714500 0.892993
vt 0.708522 0.896874
vt 0.708522 0.892822
vt 0.708522 0.888758
vt 0.716638 0.888758
vt 0.543835 0.911830
vt 0.938373 0.405851
vt 0.938373 0.413967
vt 0.935629 0.413967
vt 0.932634 0.405851
vt 0.756791 0.929338
vt 0.756792 0.925275
vt 0.760673 0.925103
vt 0.760673 0.929338
vt 0.756791 0.921222
vt 0.760844 0.921222
vt 0.764907 0.921222
vt 0.764907 0.925103
vt 0.879648 0.405851
vt 0.882513 0.405851
vt 0.882392 0.413967
vt 0.879648 0.413967
vt 0.885387 0.405851
vt 0.885387 0.413967
vt 0.850953 0.405851
vt 0.853819 0.405851
vt 0.855200 0.409733
vt 0.850953 0.413967
vt 0.859566 0.405852
vt 0.859687 0.409733
vt 0.862431 0.405851
vt 0.862431 0.413967
vt 0.764907 0.896874
vt 0.760844 0.896874
vt 0.760673 0.892993
vt 0.762770 0.892993
vt 0.756792 0.896874
vt 0.756792 0.892822
vt 0.756791 0.888758
vt 0.760673 0.890896
vt 0.859687 0.411830
vt 0.938373 0.405851
vt 0.944112 0.405851
vt 0.944112 0.409733
vt 0.569535 0.512165
vt 0.566662 0.512165
vt 0.566540 0.508284
vt 0.569535 0.508284
vt 0.563796 0.512165
vt 0.563796 0.508112
vt 0.563796 0.504049
vt 0.566540 0.504049
vt 0.756791 0.921222
vt 0.756792 0.925275
vt 0.748676 0.925103
vt 0.748676 0.921222
vt 0.748676 0.929338
vt 0.848209 0.413967
vt 0.845214 0.405851
vt 0.756791 0.892822
vt 0.752910 0.892993
vt 0.752910 0.888758
vt 0.756792 0.896874
vt 0.748675 0.896874
vt 0.546579 0.504049
vt 0.546579 0.508112
vt 0.543835 0.508284
vt 0.543835 0.506186
vt 0.546579 0.512165
vt 0.543714 0.512165
vt 0.540841 0.512165
vt 0.540841 0.504049
vt 0.750813 0.892993
vt 0.734839 0.430181
vt 0.731974 0.430181
vt 0.732095 0.426300
vt 0.734839 0.422065
vt 0.726227 0.430181
vt 0.727608 0.426300
vt 0.723361 0.430181
vt 0.723361 0.422065
vt 0.821274 0.921222
vt 0.825338 0.921222
vt 0.825509 0.925103
vt 0.823412 0.925103
vt 0.829390 0.921222
vt 0.829390 0.925275
vt 0.829390 0.929338
vt 0.825509 0.927201
vt 0.732095 0.424202
vt 0.706145 0.430181
vt 0.703279 0.430181
vt 0.703400 0.426300
vt 0.706145 0.422065
vt 0.700406 0.430181
vt 0.700406 0.426300
vt 0.899223 0.012165
vt 0.899223 0.004049
vt 0.904962 0.008284
vt 0.904962 0.012165
vt 0.829390 0.888758
vt 0.829390 0.892822
vt 0.825509 0.892993
vt 0.821274 0.888758
vt 0.829390 0.896874
vt 0.825338 0.896874
vt 0.821274 0.896874
vt 0.823412 0.892993
vt 0.703400 0.424202
vt 0.737584 0.422065
vt 0.740578 0.430181
vt 0.833272 0.925103
vt 0.833272 0.929338
vt 0.829390 0.921222
vt 0.833443 0.921222
vt 0.837506 0.921222
vt 0.837506 0.925103
vt 0.600588 0.905851
vt 0.603453 0.905852
vt 0.603332 0.913967
vt 0.600588 0.913967
vt 0.606327 0.905852
vt 0.606327 0.913967
vt 0.893484 0.012165
vt 0.893484 0.008284
vt 0.577632 0.905852
vt 0.580506 0.905852
vt 0.580627 0.909733
vt 0.577632 0.909733
vt 0.583371 0.905851
vt 0.583371 0.913967
vt 0.837506 0.896874
vt 0.833443 0.896874
vt 0.833272 0.892993
vt 0.835369 0.892993
vt 0.829390 0.896874
vt 0.829390 0.892822
vt 0.837506 0.888758
vt 0.580627 0.911830
vt 0.734839 0.823868
vt 0.734839 0.831984
vt 0.732095 0.831984
vt 0.731974 0.823868
vt 0.805061 0.880661
vt 0.805061 0.876598
vt 0.808942 0.876426
vt 0.808942 0.880661
vt 0.805061 0.872545
vt 0.809114 0.872545
vt 0.813177 0.872545
vt 0.813177 0.876426
vt 0.723361 0.823868
vt 0.726227 0.823868
vt 0.726106 0.831984
vt 0.723361 0.831984
vt 0.899223 0.405852
vt 0.904962 0.405851
vt 0.904962 0.409733
vt 0.899223 0.413967
vt 0.700406 0.823868
vt 0.703279 0.823868
vt 0.703400 0.827749
vt 0.700406 0.827749
vt 0.706145 0.823868
vt 0.706145 0.831984
vt 0.813177 0.848197
vt 0.809114 0.848197
vt 0.808942 0.844316
vt 0.811040 0.844316
vt 0.805061 0.848197
vt 0.805061 0.844144
vt 0.805061 0.840081
vt 0.813177 0.840081
vt 0.703400 0.829846
vt 0.740578 0.823868
vt 0.740578 0.827749
vt 0.606327 0.512165
vt 0.603454 0.512165
vt 0.603332 0.508284
vt 0.606327 0.508284
vt 0.600588 0.512165
vt 0.600588 0.508112
vt 0.600588 0.504049
vt 0.603332 0.504049
vt 0.805061 0.876598
vt 0.796945 0.876426
vt 0.796945 0.872545
vt 0.805061 0.880661
vt 0.796945 0.880661
vt 0.896478 0.413967
vt 0.893484 0.405851
vt 0.805061 0.844144
vt 0.801180 0.844316
vt 0.801180 0.840081
vt 0.796945 0.848197
vt 0.583371 0.504049
vt 0.583371 0.508112
vt 0.580627 0.508284
vt 0.580627 0.506186
vt 0.583371 0.512165
vt 0.580505 0.512165
vt 0.577632 0.512165
vt 0.577632 0.504049
vt 0.799082 0.844316
vt 0.831378 0.012165
vt 0.828513 0.012165
vt 0.828634 0.008284
vt 0.831378 0.004049
vt 0.822766 0.012165
vt 0.824147 0.008284
vt 0.819900 0.012165
vt 0.819900 0.004049
vt 0.918203 0.872545
vt 0.922266 0.872545
vt 0.922437 0.876426
vt 0.920340 0.876426
vt 0.926319 0.872545
vt 0.926319 0.876598
vt 0.926319 0.880661
vt 0.922437 0.878523
vt 0.828634 0.006186
vt 0.802684 0.012165
vt 0.799818 0.012165
vt 0.799940 0.008284
vt 0.802684 0.004049
vt 0.796945 0.012165
vt 0.796945 0.008284
vt 0.957948 0.012165
vt 0.957948 0.004049
vt 0.963687 0.008284
vt 0.963687 0.012165
vt 0.926319 0.840081
vt 0.926319 0.844144
vt 0.922437 0.844316
vt 0.918203 0.840081
vt 0.926319 0.848197
vt 0.922266 0.848197
vt 0.918203 0.848197
vt 0.920340 0.844316
vt 0.799939 0.006186
vt 0.834123 0.004049
vt 0.837117 0.012165
vt 0.930200 0.876426
vt 0.930200 0.880661
vt 0.930371 0.872545
vt 0.934435 0.872545
vt 0.934435 0.876426
vt 0.637379 0.905851
vt 0.640245 0.905852
vt 0.640124 0.913967
vt 0.637379 0.913967
vt 0.643118 0.905852
vt 0.643118 0.913967
vt 0.952210 0.012165
vt 0.952210 0.008284
vt 0.614424 0.905852
vt 0.617297 0.905852
vt 0.617419 0.909733
vt 0.614424 0.909733
vt 0.620163 0.905851
vt 0.620163 0.913967
vt 0.934435 0.848197
vt 0.930371 0.848197
vt 0.930200 0.844316
vt 0.932297 0.844316
vt 0.926319 0.848197
vt 0.926319 0.844144
vt 0.934435 0.840081
vt 0.617418 0.911830
vt 0.831378 0.405852
vt 0.831378 0.413967
vt 0.828634 0.413967
vt 0.828512 0.405851
vt 0.853720 0.929338
vt 0.853720 0.925275
vt 0.857601 0.925103
vt 0.857601 0.929338
vt 0.853720 0.921222
vt 0.857773 0.921222
vt 0.861836 0.921222
vt 0.861836 0.925103
vt 0.819900 0.405851
vt 0.822766 0.405851
vt 0.822645 0.413967
vt 0.819900 0.413967
vt 0.957948 0.405851
vt 0.963687 0.405851
vt 0.963687 0.409733
vt 0.957948 0.413967
vt 0.796945 0.405851
vt 0.799818 0.405851
vt 0.799939 0.409733
vt 0.796945 0.409733
vt 0.802684 0.405851
vt 0.802684 0.413967
vt 0.861836 0.896874
vt 0.857773 0.896874
vt 0.857601 0.892993
vt 0.859698 0.892993
vt 0.853720 0.896874
vt 0.853720 0.892822
vt 0.853720 0.888758
vt 0.861836 0.888758
vt 0.799939 0.411830
vt 0.837117 0.405851
vt 0.837117 0.409733
vt 0.643118 0.512165
vt 0.640245 0.512165
vt 0.640124 0.508284
vt 0.643118 0.508284
vt 0.637380 0.512165
vt 0.637380 0.508112
vt 0.637380 0.504049
vt 0.640124 0.504049
vt 0.853720 0.921222
vt 0.853720 0.925275
vt 0.845604 0.925103
vt 0.845604 0.921222
vt 0.845604 0.929338
vt 0.955204 0.413967
vt 0.952209 0.405851
vt 0.853720 0.892822
vt 0.849839 0.892993
vt 0.849839 0.888758
vt 0.845604 0.896874
vt 0.620163 0.504049
vt 0.620163 0.508112
vt 0.617419 0.508284
vt 0.617419 0.506186
vt 0.620163 0.512165
vt 0.617297 0.512165
vt 0.614424 0.512165
vt 0.614424 0.504049
vt 0.847741 0.892993
vt 0.831378 0.430181
vt 0.828513 0.430181
vt 0.828634 0.426300
vt 0.831378 0.422065
vt 0.822766 0.430181
vt 0.824147 0.426300
vt 0.819900 0.430181
vt 0.819901 0.422065
vt 0.893873 0.921222
vt 0.897937 0.921222
vt 0.898108 0.925103
vt 0.896011 0.925103
vt 0.901989 0.921222
vt 0.901989 0.925275
vt 0.901989 0.929338
vt 0.898108 0.927201
vt 0.828634 0.424202
vt 0.802684 0.430181
vt 0.799818 0.430181
vt 0.799940 0.426300
vt 0.802684 0.422065
vt 0.796945 0.430181
vt 0.796945 0.426300
vt 0.963687 0.430181
vt 0.963687 0.422065
vt 0.969426 0.426300
vt 0.969426 0.430181
vt 0.901989 0.888758
vt 0.901989 0.892822
vt 0.898108 0.892993
vt 0.893873 0.888758
vt 0.901989 0.896874
vt 0.897937 0.896874
vt 0.893873 0.896874
vt 0.896011 0.892993
vt 0.799939 0.424202
vt 0.834123 0.422065
vt 0.837117 0.430181
vt 0.901989 0.925275
vt 0.905870 0.925103
vt 0.905870 0.929338
vt 0.906042 0.921222
vt 0.910105 0.921222
vt 0.910105 0.925103
vt 0.674171 0.905851
vt 0.677037 0.905851
vt 0.676916 0.913967
vt 0.674171 0.913967
vt 0.679910 0.905852
vt 0.679910 0.913967
vt 0.957948 0.430181
vt 0.957948 0.426300
vt 0.651216 0.905852
vt 0.654089 0.905852
vt 0.654210 0.909733
vt 0.651216 0.909733
vt 0.656955 0.905851
vt 0.656955 0.913967
vt 0.910105 0.896874
vt 0.906042 0.896874
vt 0.905870 0.892993
vt 0.907968 0.892993
vt 0.901989 0.896874
vt 0.910105 0.888758
vt 0.654210 0.911830
vt 0.831378 0.823868
vt 0.831378 0.831984
vt 0.828634 0.831984
vt 0.828512 0.823868
vt 0.926319 0.929338
vt 0.926319 0.925275
vt 0.930200 0.925103
vt 0.930200 0.929338
vt 0.926319 0.921222
vt 0.930371 0.921222
vt 0.934435 0.921222
vt 0.934435 0.925103
vt 0.819900 0.823868
vt 0.822766 0.823868
vt 0.822645 0.831984
vt 0.819900 0.831984
vt 0.963687 0.823868
vt 0.969426 0.823868
vt 0.969426 0.827749
vt 0.963687 0.831984
vt 0.796945 0.823868
vt 0.799818 0.823868
vt 0.799939 0.827749
vt 0.796945 0.827749
vt 0.802684 0.823868
vt 0.802684 0.831984
vt 0.934434 0.896874
vt 0.930371 0.896874
vt 0.930200 0.892993
vt 0.932297 0.892993
vt 0.926318 0.896874
vt 0.926319 0.892822
vt 0.926319 0.888758
vt 0.934435 0.888758
vt 0.799939 0.829846
vt 0.837117 0.823868
vt 0.837117 0.827749
vt 0.831378 0.831984
vt 0.679910 0.512165
vt 0.677037 0.512165
vt 0.676916 0.508284
vt 0.679910 0.508284
vt 0.674171 0.512165
vt 0.674171 0.508112
vt 0.674171 0.504049
vt 0.676916 0.504049
vt 0.926319 0.921222
vt 0.926319 0.925275
vt 0.918203 0.925103
vt 0.918203 0.921222
vt 0.926319 0.929338
vt 0.918203 0.929338
vt 0.960943 0.831984
vt 0.957948 0.823868
vt 0.926319 0.892822
vt 0.922437 0.892993
vt 0.922437 0.888758
vt 0.926319 0.896874
vt 0.918203 0.896874
vt 0.656955 0.504049
vt 0.656955 0.508112
vt 0.654210 0.508284
vt 0.654210 0.506186
vt 0.656955 0.512165
vt 0.654089 0.512165
vt 0.651216 0.512165
vt 0.651216 0.504049
vt 0.920340 0.892993
s 1
usemtl BB_RustedSteel
f 1/1/1 4/2/4 6/3/6 5/4/5
f 4/2/4 8/5/8 9/6/9 6/3/6
f 2/7/2 7/8/7 9/9/9 8/10/8
f 7/8/7 11/11/11 12/12/12 9/9/9
f 3/13/3 10/14/10 12/15/12 11/16/11
f 10/17/10 5/4/5 6/3/6 12/18/12
f 6/3/6 9/6/9 12/18/12
f 13/19/13 16/20/16 18/21/18 17/22/17
f 16/23/16 20/24/20 21/25/21 18/26/18
f 14/27/14 19/28/19 21/25/21 20/24/20
f 19/28/19 23/29/23 24/30/24 21/25/21
f 15/31/15 22/32/22 24/33/24 23/34/23
f 22/35/22 17/22/17 18/21/18 24/36/24
f 18/26/18 21/25/21 24/30/24
f 25/37/25 28/38/28 30/39/30 29/40/29
f 28/38/28 32/41/32 33/42/33 30/39/30
f 26/43/26 31/44/31 33/45/33 32/46/32
f 31/47/31 35/48/35 36/49/36 33/50/33
f 27/51/27 34/52/34 36/49/36 35/48/35
f 34/53/34 29/40/29 30/39/30 36/54/36
f 30/39/30 33/42/33 36/54/36
f 37/55/37 40/56/40 42/57/42 41/58/41
f 40/56/40 44/59/44 45/60/45 42/57/42
f 38/61/38 43/62/43 45/63/45 44/64/44
f 43/62/43 47/65/47 48/66/48 45/63/45
f 39/67/39 46/68/46 48/69/48 47/70/47
f 46/71/46 41/58/41 42/57/42 48/72/48
f 42/57/42 45/60/45 48/72/48
f 49/73/49 52/74/52 54/75/54 53/76/53
f 52/74/52 56/77/56 57/78/57 54/75/54
f 50/79/50 55/80/55 57/81/57 56/82/56
f 55/80/55 59/83/59 60/84/60 57/81/57
f 51/85/51 58/86/58 60/87/60 59/88/59
f 58/89/58 53/76/53 54/75/54 60/90/60
f 54/75/54 57/78/57 60/90/60
f 61/91/61 64/92/64 66/93/66 65/94/65
f 64/92/64 68/95/68 69/96/69 66/93/66
f 62/97/62 67/98/67 69/99/69 68/100/68
f 67/101/67 71/102/71 72/103/72 69/104/69
f 63/105/63 70/106/70 72/103/72 71/102/71
f 70/107/70 65/94/65 66/93/66 72/108/72
f 66/93/66 69/96/69 72/108/72
f 73/109/73 76/110/76 78/111/78 77/112/77
f 76/110/76 80/113/80 81/114/81 78/111/78
f 74/115/74 79/116/79 81/117/81 80/118/80
f 79/119/79 83/120/83 84/121/84 81/122/81
f 75/123/75 82/124/82 84/121/84 83/120/83
f 82/125/82 77/112/77 78/111/78 84/126/84
f 78/111/78 81/114/81 84/126/84
f 85/127/85 88/128/88 90/129/90 89/130/89
f 88/128/88 92/131/92 93/132/93 90/129/90
f 86/133/86 91/134/91 93/135/93 92/136/92
f 91/134/91 95/137/95 96/138/96 93/135/93
f 87/139/87 94/140/94 96/141/96 95/142/95
f 94/143/94 89/130/89 90/129/90 96/144/96
f 90/129/90 93/132/93 96/144/96
f 97/145/97 100/146/100 102/147/102 101/148/101
f 100/146/100 104/149/104 105/150/105 102/147/102
f 98/151/98 103/152/103 105/150/105 104/149/104
f 103/153/103 107/154/107 108/155/108 105/156/105
f 99/157/99 106/158/106 108/155/108 107/154/107
f 106/158/106 101/159/101 102/160/102 108/155/108
f 102/147/102 105/150/105 108/161/108
f 109/162/109 112/163/112 114/164/114 113/165/113
f 112/163/112 116/166/116 117/167/117 114/164/114
f 110/168/110 115/169/115 117/170/117 116/171/116
f 115/172/115 119/173/119 120/174/120 117/175/117
f 111/176/111 118/177/118 120/174/120 119/173/119
f 118/177/118 113/178/113 114/179/114 120/174/120
f 114/164/114 117/167/117 120/180/120
f 121/145/121 124/148/124 126/181/126 125/182/125
f 124/159/124 128/158/128 129/183/129 126/184/126
f 122/157/122 127/185/127 129/183/129 128/158/128
f 127/185/127 131/186/131 132/187/132 129/183/129
f 123/188/123 130/189/130 132/190/132 131/191/131
f 130/189/130 125/192/125 126/193/126 132/190/132
f 126/184/126 129/183/129 132/187/132
f 133/168/133 136/194/136 138/195/138 137/196/137
f 136/197/136 140/198/140 141/199/141 138/200/138
f 134/201/134 139/202/139 141/199/141 140/198/140
f 139/203/139 143/204/143 144/205/144 141/206/141
f 135/207/135 142/173/142 144/205/144 143/204/143
f 142/173/142 137/208/137 138/209/138 144/205/144
f 138/200/138 141/199/141 144/210/144
f 145/211/145 148/212/148 150/213/150 149/214/149
f 148/215/148 152/216/152 153/217/153 150/218/150
f 146/219/146 151/220/151 153/217/153 152/216/152
f 151/220/151 155/221/155 156/222/156 153/217/153
f 147/223/147 154/224/154 156/225/156 155/226/155
f 154/224/154 149/214/149 150/213/150 156/225/156
f 150/218/150 153/217/153 156/222/156
f 157/227/157 160/228/160 162/229/162 161/230/161
f 160/231/160 164/232/164 165/233/165 162/234/162
f 158/235/158 163/236/163 165/233/165 164/232/164
f 163/237/163 167/238/167 168/239/168 165/240/165
f 159/241/159 166/242/166 168/239/168 167/238/167
f 166/242/166 161/243/161 162/244/162 168/239/168
f 162/234/162 165/233/165 168/245/168
f 169/211/169 172/246/172 174/247/174 173/212/173
f 172/248/172 176/249/176 177/250/177 174/251/174
f 170/252/170 175/253/175 177/250/177 176/249/176
f 175/253/175 179/254/179 180/255/180 177/250/177
f 171/256/171 178/257/178 180/258/180 179/259/179
f 178/257/178 173/215/173 174/260/174 180/258/180
f 174/251/174 177/250/177 180/255/180
f 181/227/181 184/230/184 186/261/186 185/262/185
f 184/243/184 188/263/188 189/264/189 186/265/186
f 182/266/182 187/267/187 189/264/189 188/263/188
f 187/268/187 191/269/191 192/270/192 189/271/189
f 183/272/183 190/273/190 192/270/192 191/269/191
f 190/273/190 185/274/185 186/275/186 192/270/192
f 186/265/186 189/264/189 192/276/192
f 193/277/97 196/278/100 198/279/102 197/280/101
f 196/278/100 200/281/104 201/282/105 198/279/102
f 194/283/98 199/284/103 201/282/105 200/281/104
f 199/285/103 203/286/107 204/287/108 201/288/105
f 195/289/193 202/290/194 204/287/108 203/286/107
f 202/290/194 197/291/101 198/292/102 204/287/108
f 198/279/102 201/282/105 204/293/108
f 205/294/109 208/295/112 210/296/114 209/297/113
f 208/295/112 212/298/116 213/299/117 210/296/114
f 206/300/195 211/301/197 213/302/117 212/303/116
f 211/304/197 215/305/198 216/306/120 213/307/117
f 207/308/196 214/309/118 216/306/120 215/305/198
f 214/309/118 209/310/113 210/311/114 216/306/120
f 210/296/114 213/299/117 216/312/120
f 217/277/121 220/280/124 222/313/126 221/314/125
f 220/291/124 224/290/200 225/315/129 222/316/126
f 218/317/199 223/318/127 225/315/129 224/290/200
f 223/318/127 227/319/131 228/320/132 225/315/129
f 219/321/123 226/322/130 228/323/132 227/324/131
f 226/322/130 221/325/125 222/326/126 228/323/132
f 222/316/126 225/315/129 228/320/132
f 229/327/201 232/328/136 234/329/138 233/301/203
f 232/330/136 236/331/140 237/332/141 234/333/138
f 230/334/134 235/335/139 237/332/141 236/331/140
f 235/336/139 239/337/143 240/338/144 237/339/141
f 231/340/202 238/341/204 240/338/144 239/337/143
f 238/341/204 233/342/203 234/343/138 240/338/144
f 234/333/138 237/332/141 240/344/144
f 241/345/205 244/346/207 246/347/150 245/348/149
f 244/349/207 248/350/208 249/351/153 246/352/150
f 242/353/206 247/354/151 249/351/153 248/350/208
f 247/354/151 251/355/155 252/356/156 249/351/153
f 243/357/147 250/358/154 252/359/156 251/360/155
f 250/358/154 245/348/149 246/347/150 252/359/156
f 246/352/150 249/351/153 252/356/156
f 253/361/209 256/362/160 258/363/162 257/364/211
f 256/365/160 260/366/164 261/367/165 258/368/162
f 254/369/158 259/370/163 261/367/165 260/366/164
f 259/371/163 263/372/167 264/373/168 261/374/165
f 255/375/210 262/376/212 264/373/168 263/372/167
f 262/376/212 257/377/211 258/378/162 264/373/168
f 258/368/162 261/367/165 264/379/168
f 265/345/213 268/380/172 270/381/174 269/346/215
f 268/382/172 272/383/176 273/384/177 270/385/174
f 266/386/170 271/387/175 273/384/177 272/383/176
f 271/387/175 275/388/179 276/389/180 273/384/177
f 267/390/214 274/391/216 276/392/180 275/393/179
f 274/391/216 269/394/215 270/395/174 276/392/180
f 270/385/174 273/384/177 276/389/180
f 277/361/217 280/364/219 282/396/186 281/397/185
f 280/377/219 284/398/220 285/399/189 282/400/186
f 278/375/218 283/401/187 285/399/189 284/398/220
f 283/402/187 287/403/191 288/404/192 285/405/189
f 279/406/183 286/407/190 288/404/192 287/403/191
f 286/407/190 281/408/185 282/409/186 288/404/192
f 282/400/186 285/399/189 288/410/192
f 289/411/97 292/412/100 294/413/102 293/414/101
f 292/412/100 296/415/104 297/416/105 294/413/102
f 290/417/98 295/418/103 297/416/105 296/415/104
f 295/419/103 299/420/107 300/421/108 297/422/105
f 291/423/221 298/424/222 300/421/108 299/420/107
f 298/424/222 293/425/101 294/426/102 300/421/108
f 294/413/102 297/416/105 300/427/108
f 301/428/109 304/429/112 306/430/114 305/431/113
f 304/429/112 308/432/116 309/433/117 306/430/114
f 302/434/223 307/435/225 309/436/117 308/437/116
f 307/438/225 311/439/226 312/440/120 309/441/117
f 303/442/224 310/443/118 312/440/120 311/439/226
f 310/443/118 305/444/113 306/445/114 312/440/120
f 306/430/114 309/433/117 312/446/120
f 313/411/121 316/414/124 318/447/126 317/448/125
f 316/425/124 320/424/228 321/449/129 318/450/126
f 314/423/227 319/451/127 321/449/129 320/424/228
f 319/451/127 323/452/131 324/453/132 321/449/129
f 315/454/123 322/455/130 324/456/132 323/457/131
f 322/455/130 317/458/125 318/459/126 324/456/132
f 318/450/126 321/449/129 324/453/132
f 325/434/229 328/460/136 330/461/138 329/435/231
f 328/462/136 332/463/140 333/464/141 330/465/138
f 326/466/134 331/467/139 333/464/141 332/463/140
f 331/468/139 335/469/143 336/470/144 333/471/141
f 327/472/230 334/439/232 336/470/144 335/469/143
f 334/439/232 329/473/231 330/474/138 336/470/144
f 330/465/138 333/464/141 336/475/144
f 337/476/233 340/477/235 342/478/150 341/479/149
f 340/480/235 344/481/236 345/482/153 342/483/150
f 338/484/234 343/485/151 345/482/153 344/481/236
f 343/485/151 347/486/155 348/487/156 345/482/153
f 339/488/147 346/489/154 348/490/156 347/491/155
f 346/489/154 341/479/149 342/478/150 348/490/156
f 342/483/150 345/482/153 348/487/156
f 349/492/237 352/493/160 354/494/162 353/495/239
f 352/496/160 356/497/164 357/498/165 354/499/162
f 350/500/158 355/501/163 357/498/165 356/497/164
f 355/502/163 359/503/167 360/504/168 357/505/165
f 351/506/238 358/507/240 360/504/168 359/503/167
f 358/507/240 353/508/239 354/509/162 360/504/168
f 354/499/162 357/498/165 360/510/168
f 361/511/241 364/512/172 366/513/174 365/477/243
f 364/514/172 368/515/176 369/516/177 366/517/174
f 362/518/170 367/519/175 369/516/177 368/515/176
f 367/519/175 371/520/179 372/521/180 369/516/177
f 363/522/242 370/523/244 372/524/180 371/525/179
f 370/523/244 365/480/243 366/526/174 372/524/180
f 366/517/174 369/516/177 372/521/180
f 373/492/245 376/495/247 378/527/186 377/528/185
f 376/529/247 380/530/248 381/531/189 378/532/186
f 374/533/246 379/534/187 381/531/189 380/530/248
f 379/535/187 383/536/191 384/537/192 381/538/189
f 375/539/183 382/540/190 384/537/192 383/536/191
f 382/540/190 377/541/185 378/542/186 384/537/192
f 378/532/186 381/531/189 384/543/192
f 385/544/249 388/545/100 390/546/102 389/547/251
f 388/548/100 392/549/104 393/550/105 390/551/102
f 386/552/98 391/553/103 393/550/105 392/549/104
f 391/554/103 395/555/107 396/556/108 393/557/105
f 387/558/250 394/559/252 396/556/108 395/555/107
f 394/559/252 389/560/251 390/561/102 396/556/108
f 390/551/102 393/550/105 396/562/108
f 397/563/109 400/564/112 402/565/114 401/566/113
f 400/564/112 404/567/116 405/568/117 402/565/114
f 398/569/253 403/570/255 405/568/117 404/567/116
f 403/571/255 407/572/256 408/573/120 405/574/117
f 399/575/254 406/576/118 408/573/120 407/572/256
f 406/576/118 401/577/113 402/578/114 408/573/120
f 402/565/114 405/568/117 408/579/120
f 409/580/257 412/581/259 414/582/126 413/583/125
f 412/560/259 416/584/260 417/585/129 414/586/126
f 410/587/258 415/588/127 417/585/129 416/584/260
f 415/588/127 419/589/131 420/590/132 417/585/129
f 411/591/123 418/592/130 420/593/132 419/594/131
f 418/592/130 413/595/125 414/596/126 420/593/132
f 414/586/126 417/585/129 420/590/132
f 421/569/261 424/597/136 426/598/138 425/570/263
f 424/599/136 428/600/140 429/601/141 426/602/138
f 422/603/134 427/604/139 429/601/141 428/600/140
f 427/605/139 431/606/143 432/607/144 429/608/141
f 423/609/262 430/610/264 432/607/144 431/606/143
f 430/610/264 425/611/263 426/612/138 432/607/144
f 426/602/138 429/601/141 432/613/144
f 433/614/265 436/615/267 438/616/150 437/617/149
f 436/618/267 440/619/268 441/620/153 438/621/150
f 434/622/266 439/623/151 441/620/153 440/619/268
f 439/623/151 443/624/155 444/625/156 441/620/153
f 435/626/147 442/627/154 444/628/156 443/629/155
f 442/627/154 437/630/149 438/631/150 444/628/156
f 438/621/150 441/620/153 444/625/156
f 445/632/269 448/633/160 450/634/162 449/635/271
f 448/633/160 452/636/164 453/637/165 450/634/162
f 446/638/158 451/639/163 453/637/165 452/636/164
f 451/640/163 455/641/167 456/642/168 453/643/165
f 447/644/270 454/645/272 456/642/168 455/641/167
f 454/645/272 449/646/271 450/647/162 456/642/168
f 450/634/162 453/637/165 456/648/168
f 457/649/273 460/650/172 462/651/174 461/615/275
f 460/652/172 464/653/176 465/654/177 462/655/174
f 458/656/170 463/657/175 465/654/177 464/653/176
f 463/657/175 467/658/179 468/659/180 465/654/177
f 459/660/274 466/661/276 468/662/180 467/663/179
f 466/661/276 461/618/275 462/664/174 468/662/180
f 462/655/174 465/654/177 468/659/180
f 469/632/277 472/635/279 474/665/186 473/666/185
f 472/646/279 476/667/280 477/668/189 474/669/186
f 470/670/278 475/671/187 477/668/189 476/667/280
f 475/672/187 479/673/191 480/674/192 477/675/189
f 471/676/183 478/677/190 480/674/192 479/673/191
f 478/677/190 473/678/185 474/679/186 480/674/192
f 474/669/186 477/668/189 480/680/192
f 481/681/97 484/682/100 486/683/102 485/684/101
f 484/682/100 488/685/104 489/686/105 486/683/102
f 482/687/98 487/688/103 489/686/105 488/685/104
f 487/689/103 491/690/107 492/691/108 489/692/105
f 483/693/281 490/694/282 492/691/108 491/690/107
f 490/694/282 485/695/101 486/696/102 492/691/108
f 486/683/102 489/686/105 492/697/108
f 493/698/109 496/699/112 498/700/114 497/701/113
f 496/699/112 500/702/116 501/703/117 498/700/114
f 494/704/283 499/705/285 501/706/117 500/707/116
f 499/708/285 503/709/286 504/710/120 501/711/117
f 495/712/284 502/713/118 504/710/120 503/709/286
f 502/713/118 497/714/113 498/715/114 504/710/120
f 498/700/114 501/703/117 504/716/120
f 505/681/121 508/684/124 510/717/126 509/718/125
f 508/695/124 512/694/288 513/719/129 510/720/126
f 506/721/287 511/722/127 513/719/129 512/694/288
f 511/722/127 515/723/131 516/724/289 513/719/129
f 507/725/123 514/726/130 516/727/289 515/728/131
f 514/726/130 509/729/125 510/730/126 516/727/289
f 510/720/126 513/719/129 516/724/289
f 517/704/290 520/731/136 522/732/138 521/705/292
f 520/733/136 524/734/140 525/735/293 522/736/138
f 518/737/134 523/738/139 525/735/293 524/734/140
f 523/739/139 527/740/143 528/741/144 525/742/293
f 519/743/291 526/744/294 528/741/144 527/740/143
f 526/744/294 521/708/292 522/745/138 528/741/144
f 522/736/138 525/735/293 528/746/144
f 529/747/295 532/748/297 534/749/150 533/750/149
f 532/751/297 536/752/298 537/753/153 534/754/150
f 530/755/296 535/756/151 537/753/153 536/752/298
f 535/756/151 539/757/155 540/758/156 537/753/153
f 531/759/147 538/760/154 540/761/156 539/762/155
f 538/760/154 533/750/149 534/749/150 540/761/156
f 534/754/150 537/753/153 540/758/156
f 541/763/299 544/764/160 546/765/162 545/766/301
f 544/767/160 548/768/164 549/769/165 546/770/162
f 542/771/158 547/772/163 549/769/165 548/768/164
f 547/773/163 551/774/167 552/775/168 549/776/165
f 543/777/300 550/778/302 552/775/168 551/774/167
f 550/778/302 545/779/301 546/780/162 552/775/168
f 546/770/162 549/769/165 552/781/168
f 553/747/303 556/782/172 558/783/174 557/748/305
f 556/784/172 560/785/176 561/786/177 558/787/174
f 554/788/170 559/789/175 561/786/177 560/785/176
f 559/789/175 563/790/179 564/791/180 561/786/177
f 555/755/304 562/792/306 564/793/180 563/794/179
f 562/792/306 557/795/305 558/796/174 564/793/180
f 558/787/174 561/786/177 564/791/180
f 565/763/307 568/766/309 570/797/186 569/798/185
f 568/779/309 572/799/310 573/800/189 570/801/186
f 566/777/308 571/802/187 573/800/189 572/799/310
f 571/803/187 575/804/191 576/805/311 573/806/189
f 567/807/183 574/808/190 576/805/311 575/804/191
f 574/808/190 569/809/185 570/810/186 576/805/311
f 570/801/186 573/800/189 576/811/311
f 577/812/97 580/813/100 582/814/102 581/815/101
f 580/813/100 584/816/104 585/817/105 582/814/102
f 578/818/98 583/819/103 585/817/105 584/816/104
f 583/820/103 587/821/107 588/822/108 585/823/105
f 579/824/312 586/825/313 588/822/108 587/821/107
f 586/825/313 581/826/101 582/827/102 588/822/108
f 582/814/102 585/817/105 588/828/108
f 589/829/109 592/830/112 594/831/114 593/832/113
f 592/830/112 596/833/116 597/834/117 594/831/114
f 590/835/314 595/836/316 597/837/117 596/838/116
f 595/839/316 599/840/317 600/841/120 597/842/117
f 591/843/315 598/844/118 600/841/120 599/840/317
f 598/844/118 593/845/113 594/846/114 600/841/120
f 594/831/114 597/834/117 600/847/120
f 601/812/121 604/815/124 606/848/126 605/849/125
f 604/826/124 608/825/319 609/850/129 606/851/126
f 602/824/318 607/852/127 609/850/129 608/825/319
f 607/852/127 611/853/131 612/854/132 609/850/129
f 603/855/123 610/856/130 612/857/132 611/858/131
f 610/856/130 605/859/125 606/860/126 612/857/132
f 606/851/126 609/850/129 612/854/132
f 613/835/320 616/861/136 618/862/138 617/836/322
f 616/863/136 620/864/140 621/865/141 618/866/138
f 614/867/134 619/868/139 621/865/141 620/864/140
f 619/869/139 623/870/143 624/871/144 621/872/141
f 615/873/321 622/874/323 624/871/144 623/870/143
f 622/874/323 617/839/322 618/875/138 624/871/144
f 618/866/138 621/865/141 624/876/144
f 625/877/324 628/878/326 630/879/150 629/880/149
f 628/881/326 632/882/327 633/883/153 630/884/150
f 626/885/325 631/886/151 633/883/153 632/882/327
f 631/886/151 635/887/155 636/888/156 633/883/153
f 627/889/147 634/890/154 636/891/156 635/892/155
f 634/890/154 629/880/149 630/879/150 636/891/156
f 630/884/150 633/883/153 636/888/156
f 637/893/328 640/894/160 642/895/162 641/896/330
f 640/897/160 644/898/164 645/899/165 642/900/162
f 638/901/158 643/902/163 645/899/165 644/898/164
f 643/903/163 647/904/167 648/905/168 645/906/165
f 639/907/329 646/908/331 648/905/168 647/904/167
f 646/908/331 641/909/330 642/910/162 648/905/168
f 642/900/162 645/899/165 648/911/168
f 649/877/332 652/912/172 654/913/335 653/878/334
f 652/914/172 656/915/176 657/916/177 654/917/335
f 650/918/170 655/919/175 657/916/177 656/915/176
f 655/919/175 659/920/179 660/921/180 657/916/177
f 651/922/333 658/923/336 660/924/180 659/925/179
f 658/923/336 653/881/334 654/926/335 660/924/180
f 654/917/335 657/916/177 660/921/180
f 661/893/337 664/896/339 666/927/186 665/928/185
f 664/909/339 668/929/340 669/930/189 666/931/186
f 662/907/338 667/932/187 669/930/189 668/929/340
f 667/933/187 671/934/191 672/935/192 669/936/189
f 663/937/183 670/938/190 672/935/192 671/934/191
f 670/938/190 665/939/185 666/940/186 672/935/192
f 666/931/186 669/930/189 672/941/192
f 673/942/341 676/943/100 678/944/102 677/945/343
f 676/943/100 680/946/104 681/947/105 678/944/102
f 674/948/98 679/949/103 681/947/105 680/946/104
f 679/950/103 683/951/107 684/952/108 681/953/105
f 675/954/342 682/955/344 684/952/108 683/951/107
f 682/955/344 677/956/343 678/957/102 684/952/108
f 678/944/102 681/947/105 684/958/108
f 685/959/109 688/960/112 690/961/114 689/962/113
f 688/960/112 692/963/116 693/964/117 690/961/114
f 686/965/345 691/966/347 693/967/117 692/968/116
f 691/969/347 695/970/348 696/971/120 693/972/117
f 687/973/346 694/974/118 696/971/120 695/970/348
f 694/974/118 689/975/113 690/976/114 696/971/120
f 690/961/114 693/964/117 696/977/120
f 697/942/349 700/945/351 702/978/126 701/979/125
f 700/956/351 704/980/352 705/981/129 702/982/126
f 698/954/350 703/983/127 705/981/129 704/980/352
f 703/983/127 707/984/131 708/985/132 705/981/129
f 699/986/123 706/987/130 708/988/132 707/989/131
f 706/987/130 701/990/125 702/991/126 708/988/132
f 702/982/126 705/981/129 708/985/132
f 709/965/353 712/992/136 714/993/138 713/966/355
f 712/994/136 716/995/140 717/996/141 714/997/138
f 710/998/134 715/999/139 717/996/141 716/995/140
f 715/1000/139 719/1001/143 720/1002/144 717/1003/141
f 711/1004/354 718/970/356 720/1002/144 719/1001/143
f 718/970/356 713/969/355 714/1005/138 720/1002/144
f 714/997/138 717/996/141 720/1006/144
f 721/1007/357 724/1008/359 726/1009/150 725/1010/149
f 724/1011/359 728/1012/360 729/1013/153 726/1014/150
f 722/1015/358 727/1016/151 729/1013/153 728/1012/360
f 727/1016/151 731/1017/155 732/1018/156 729/1013/153
f 723/1019/147 730/1020/154 732/1021/156 731/1022/155
f 730/1020/154 725/1010/149 726/1009/150 732/1021/156
f 726/1014/150 729/1013/153 732/1018/156
f 733/1023/361 736/1024/160 738/1025/162 737/1026/363
f 736/1027/160 740/1028/164 741/1029/165 738/1030/162
f 734/1031/158 739/1032/163 741/1029/165 740/1028/164
f 739/1033/163 743/1034/167 744/1035/168 741/1036/165
f 735/1037/362 742/1038/364 744/1035/168 743/1034/167
f 742/1038/364 737/1039/363 738/1040/162 744/1035/168
f 738/1030/162 741/1029/165 744/1041/168
f 745/1007/365 748/1042/172 750/1043/174 749/1044/367
f 748/1045/172 752/1046/176 753/1047/177 750/1048/174
f 746/1049/170 751/1050/175 753/1047/177 752/1046/176
f 751/1050/175 755/1051/179 756/1052/180 753/1047/177
f 747/1053/366 754/1054/368 756/1055/180 755/1056/179
f 754/1054/368 749/1057/367 750/1058/174 756/1055/180
f 750/1048/174 753/1047/177 756/1052/180
f 757/1023/369 760/1026/371 762/1059/186 761/1060/185
f 760/1039/371 764/1061/372 765/1062/189 762/1063/186
f 758/1064/370 763/1065/187 765/1062/189 764/1061/372
f 763/1066/187 767/1067/191 768/1068/192 765/1069/189
f 759/1070/183 766/1071/190 768/1068/192 767/1067/191
f 766/1071/190 761/1072/185 762/1073/186 768/1068/192
f 762/1063/186 765/1062/189 768/1074/192
f 25/37/25 1/1/1 5/4/5 28/38/28
f 28/38/28 5/4/5 10/17/10 32/41/32
f 32/46/32 10/14/10 3/13/3 26/43/26
f 2/7/2 13/19/13 17/22/17 7/8/7
f 7/8/7 17/22/17 22/35/22 11/11/11
f 11/16/11 22/32/22 15/31/15 3/13/3
f 14/27/14 37/55/37 41/58/41 19/28/19
f 19/28/19 41/58/41 46/71/46 23/29/23
f 23/34/23 46/68/46 39/67/39 15/31/15
f 38/61/38 27/51/27 35/48/35 43/62/43
f 43/62/43 35/48/35 31/47/31 47/65/47
f 47/70/47 31/44/31 26/43/26 39/67/39
f 73/109/73 25/37/25 29/40/29 76/110/76
f 76/110/76 29/40/29 34/53/34 80/113/80
f 80/118/80 34/52/34 27/51/27 74/115/74
f 37/55/37 85/127/85 89/130/89 40/56/40
f 40/56/40 89/130/89 94/143/94 44/59/44
f 44/64/44 94/140/94 87/139/87 38/61/38
f 86/133/86 75/123/75 83/120/83 91/134/91
f 91/134/91 83/120/83 79/119/79 95/137/95
f 95/142/95 79/116/79 74/115/74 87/139/87
f 49/73/49 73/109/73 77/112/77 52/74/52
f 52/74/52 77/112/77 82/125/82 56/77/56
f 56/82/56 82/124/82 75/123/75 50/79/50
f 85/127/85 61/91/61 65/94/65 88/128/88
f 88/128/88 65/94/65 70/107/70 92/131/92
f 92/136/92 70/106/70 63/105/63 86/133/86
f 62/97/62 51/85/51 59/88/59 67/98/67
f 67/101/67 59/83/59 55/80/55 71/102/71
f 71/102/71 55/80/55 50/79/50 63/105/63
f 1/1/1 49/73/49 53/76/53 4/2/4
f 4/2/4 53/76/53 58/89/58 8/5/8
f 8/10/8 58/86/58 51/85/51 2/7/2
f 61/91/61 14/27/14 20/24/20 64/92/64
f 64/92/64 20/24/20 16/23/16 68/95/68
f 68/100/68 16/20/16 13/19/13 62/97/62
f 121/145/121 97/145/97 101/148/101 124/148/124
f 124/159/124 101/159/101 106/158/106 128/158/128
f 128/158/128 106/158/106 99/157/99 122/157/122
f 98/151/98 109/162/109 113/165/113 103/152/103
f 103/153/103 113/178/113 118/177/118 107/154/107
f 107/154/107 118/177/118 111/176/111 99/157/99
f 110/168/110 133/168/133 137/196/137 115/169/115
f 115/172/115 137/208/137 142/173/142 119/173/119
f 119/173/119 142/173/142 135/207/135 111/176/111
f 134/201/134 123/188/123 131/191/131 139/202/139
f 139/203/139 131/186/131 127/185/127 143/204/143
f 143/204/143 127/185/127 122/157/122 135/207/135
f 169/211/169 121/145/121 125/182/125 172/246/172
f 172/248/172 125/192/125 130/189/130 176/249/176
f 176/249/176 130/189/130 123/188/123 170/252/170
f 133/168/133 181/227/181 185/262/185 136/194/136
f 136/197/136 185/274/185 190/273/190 140/198/140
f 140/198/140 190/273/190 183/272/183 134/201/134
f 182/266/182 171/256/171 179/259/179 187/267/187
f 187/268/187 179/254/179 175/253/175 191/269/191
f 191/269/191 175/253/175 170/252/170 183/272/183
f 145/211/145 169/211/169 173/212/173 148/212/148
f 148/215/148 173/215/173 178/257/178 152/216/152
f 152/216/152 178/257/178 171/256/171 146/219/146
f 181/227/181 157/227/157 161/230/161 184/230/184
f 184/243/184 161/243/161 166/242/166 188/263/188
f 188/263/188 166/242/166 159/241/159 182/266/182
f 158/235/158 147/223/147 155/226/155 163/236/163
f 163/237/163 155/221/155 151/220/151 167/238/167
f 167/238/167 151/220/151 146/219/146 159/241/159
f 97/145/97 145/211/145 149/214/149 100/146/100
f 100/146/100 149/214/149 154/224/154 104/149/104
f 104/149/104 154/224/154 147/223/147 98/151/98
f 157/227/157 110/168/110 116/171/116 160/228/160
f 160/231/160 116/166/116 112/163/112 164/232/164
f 164/232/164 112/163/112 109/162/109 158/235/158
f 217/277/121 193/277/97 197/280/101 220/280/124
f 220/291/124 197/291/101 202/290/194 224/290/200
f 224/290/200 202/290/194 195/289/193 218/317/199
f 194/283/98 205/294/109 209/297/113 199/284/103
f 199/285/103 209/310/113 214/309/118 203/286/107
f 203/286/107 214/309/118 207/308/196 195/289/193
f 206/300/195 229/327/201 233/301/203 211/301/197
f 211/304/197 233/342/203 238/341/204 215/305/198
f 215/305/198 238/341/204 231/340/202 207/308/196
f 230/334/134 219/321/123 227/324/131 235/335/139
f 235/336/139 227/319/131 223/318/127 239/337/143
f 239/337/143 223/318/127 218/317/199 231/340/202
f 265/345/213 217/277/121 221/314/125 268/380/172
f 268/382/172 221/325/125 226/322/130 272/383/176
f 272/383/176 226/322/130 219/321/123 266/386/170
f 229/327/201 277/361/217 281/397/185 232/328/136
f 232/330/136 281/408/185 286/407/190 236/331/140
f 236/331/140 286/407/190 279/406/183 230/334/134
f 278/375/218 267/390/214 275/393/179 283/401/187
f 283/402/187 275/388/179 271/387/175 287/403/191
f 287/403/191 271/387/175 266/386/170 279/406/183
f 241/345/205 265/345/213 269/346/215 244/346/207
f 244/349/207 269/394/215 274/391/216 248/350/208
f 248/350/208 274/391/216 267/390/214 242/353/206
f 277/361/217 253/361/209 257/364/211 280/364/219
f 280/377/219 257/377/211 262/376/212 284/398/220
f 284/398/220 262/376/212 255/375/210 278/375/218
f 254/369/158 243/357/147 251/360/155 259/370/163
f 259/371/163 251/355/155 247/354/151 263/372/167
f 263/372/167 247/354/151 242/353/206 255/375/210
f 193/277/97 241/345/205 245/348/149 196/278/100
f 196/278/100 245/348/149 250/358/154 200/281/104
f 200/281/104 250/358/154 243/357/147 194/283/98
f 253/361/209 206/300/195 212/303/116 256/362/160
f 256/365/160 212/298/116 208/295/112 260/366/164
f 260/366/164 208/295/112 205/294/109 254/369/158
f 313/411/121 289/411/97 293/414/101 316/414/124
f 316/425/124 293/425/101 298/424/222 320/424/228
f 320/424/228 298/424/222 291/423/221 314/423/227
f 290/417/98 301/428/109 305/431/113 295/418/103
f 295/419/103 305/444/113 310/443/118 299/420/107
f 299/420/107 310/443/118 303/442/224 291/423/221
f 302/434/223 325/434/229 329/435/231 307/435/225
f 307/438/225 329/473/231 334/439/232 311/439/226
f 311/439/226 334/439/232 327/472/230 303/442/224
f 326/466/134 315/454/123 323/457/131 331/467/139
f 331/468/139 323/452/131 319/451/127 335/469/143
f 335/469/143 319/451/127 314/423/227 327/472/230
f 361/511/241 313/411/121 317/448/125 364/512/172
f 364/514/172 317/458/125 322/455/130 368/515/176
f 368/515/176 322/455/130 315/454/123 362/518/170
f 325/434/229 373/492/245 377/528/185 328/460/136
f 328/462/136 377/541/185 382/540/190 332/463/140
f 332/463/140 382/540/190 375/539/183 326/466/134
f 374/533/246 363/522/242 371/525/179 379/534/187
f 379/535/187 371/520/179 367/519/175 383/536/191
f 383/536/191 367/519/175 362/518/170 375/539/183
f 337/476/233 361/511/241 365/477/243 340/477/235
f 340/480/235 365/480/243 370/523/244 344/481/236
f 344/481/236 370/523/244 363/522/242 338/484/234
f 373/492/245 349/492/237 353/495/239 376/495/247
f 376/529/247 353/508/239 358/507/240 380/530/248
f 380/530/248 358/507/240 351/506/238 374/533/246
f 350/500/158 339/488/147 347/491/155 355/501/163
f 355/502/163 347/486/155 343/485/151 359/503/167
f 359/503/167 343/485/151 338/484/234 351/506/238
f 289/411/97 337/476/233 341/479/149 292/412/100
f 292/412/100 341/479/149 346/489/154 296/415/104
f 296/415/104 346/489/154 339/488/147 290/417/98
f 349/492/237 302/434/223 308/437/116 352/493/160
f 352/496/160 308/432/116 304/429/112 356/497/164
f 356/497/164 304/429/112 301/428/109 350/500/158
f 409/580/257 385/544/249 389/547/251 412/581/259
f 412/560/259 389/560/251 394/559/252 416/584/260
f 416/584/260 394/559/252 387/558/250 410/587/258
f 386/552/98 397/563/109 401/566/113 391/553/103
f 391/554/103 401/577/113 406/576/118 395/555/107
f 395/555/107 406/576/118 399/575/254 387/558/250
f 398/569/253 421/569/261 425/570/263 403/570/255
f 403/571/255 425/611/263 430/610/264 407/572/256
f 407/572/256 430/610/264 423/609/262 399/575/254
f 422/603/134 411/591/123 419/594/131 427/604/139
f 427/605/139 419/589/131 415/588/127 431/606/143
f 431/606/143 415/588/127 410/587/258 423/609/262
f 457/649/273 409/580/257 413/583/125 460/650/172
f 460/652/172 413/595/125 418/592/130 464/653/176
f 464/653/176 418/592/130 411/591/123 458/656/170
f 421/569/261 469/632/277 473/666/185 424/597/136
f 424/599/136 473/678/185 478/677/190 428/600/140
f 428/600/140 478/677/190 471/676/183 422/603/134
f 470/670/278 459/660/274 467/663/179 475/671/187
f 475/672/187 467/658/179 463/657/175 479/673/191
f 479/673/191 463/657/175 458/656/170 471/676/183
f 433/614/265 457/649/273 461/615/275 436/615/267
f 436/618/267 461/618/275 466/661/276 440/619/268
f 440/619/268 466/661/276 459/660/274 434/622/266
f 469/632/277 445/632/269 449/635/271 472/635/279
f 472/646/279 449/646/271 454/645/272 476/667/280
f 476/667/280 454/645/272 447/644/270 470/670/278
f 446/638/158 435/626/147 443/629/155 451/639/163
f 451/640/163 443/624/155 439/623/151 455/641/167
f 455/641/167 439/623/151 434/622/266 447/644/270
f 385/544/249 433/614/265 437/617/149 388/545/100
f 388/548/100 437/630/149 442/627/154 392/549/104
f 392/549/104 442/627/154 435/626/147 386/552/98
f 445/632/269 398/569/253 404/567/116 448/633/160
f 448/633/160 404/567/116 400/564/112 452/636/164
f 452/636/164 400/564/112 397/563/109 446/638/158
f 505/681/121 481/681/97 485/684/101 508/684/124
f 508/695/124 485/695/101 490/694/282 512/694/288
f 512/694/288 490/694/282 483/693/281 506/721/287
f 482/687/98 493/698/109 497/701/113 487/688/103
f 487/689/103 497/714/113 502/713/118 491/690/107
f 491/690/107 502/713/118 495/712/284 483/693/281
f 494/704/283 517/704/290 521/705/292 499/705/285
f 499/708/285 521/708/292 526/744/294 503/709/286
f 503/709/286 526/744/294 519/743/291 495/712/284
f 518/737/134 507/725/123 515/728/131 523/738/139
f 523/739/139 515/723/131 511/722/127 527/740/143
f 527/740/143 511/722/127 506/721/287 519/743/291
f 553/747/303 505/681/121 509/718/125 556/782/172
f 556/784/172 509/729/125 514/726/130 560/785/176
f 560/785/176 514/726/130 507/725/123 554/788/170
f 517/704/290 565/763/307 569/798/185 520/731/136
f 520/733/136 569/809/185 574/808/190 524/734/140
f 524/734/140 574/808/190 567/807/183 518/737/134
f 566/777/308 555/755/304 563/794/179 571/802/187
f 571/803/187 563/790/179 559/789/175 575/804/191
f 575/804/191 559/789/175 554/788/170 567/807/183
f 529/747/295 553/747/303 557/748/305 532/748/297
f 532/751/297 557/795/305 562/792/306 536/752/298
f 536/752/298 562/792/306 555/755/304 530/755/296
f 565/763/307 541/763/299 545/766/301 568/766/309
f 568/779/309 545/779/301 550/778/302 572/799/310
f 572/799/310 550/778/302 543/777/300 566/777/308
f 542/771/158 531/759/147 539/762/155 547/772/163
f 547/773/163 539/757/155 535/756/151 551/774/167
f 551/774/167 535/756/151 530/755/296 543/777/300
f 481/681/97 529/747/295 533/750/149 484/682/100
f 484/682/100 533/750/149 538/760/154 488/685/104
f 488/685/104 538/760/154 531/759/147 482/687/98
f 541/763/299 494/704/283 500/707/116 544/764/160
f 544/767/160 500/702/116 496/699/112 548/768/164
f 548/768/164 496/699/112 493/698/109 542/771/158
f 601/812/121 577/812/97 581/815/101 604/815/124
f 604/826/124 581/826/101 586/825/313 608/825/319
f 608/825/319 586/825/313 579/824/312 602/824/318
f 578/818/98 589/829/109 593/832/113 583/819/103
f 583/820/103 593/845/113 598/844/118 587/821/107
f 587/821/107 598/844/118 591/843/315 579/824/312
f 590/835/314 613/835/320 617/836/322 595/836/316
f 595/839/316 617/839/322 622/874/323 599/840/317
f 599/840/317 622/874/323 615/873/321 591/843/315
f 614/867/134 603/855/123 611/858/131 619/868/139
f 619/869/139 611/853/131 607/852/127 623/870/143
f 623/870/143 607/852/127 602/824/318 615/873/321
f 649/877/332 601/812/121 605/849/125 652/912/172
f 652/914/172 605/859/125 610/856/130 656/915/176
f 656/915/176 610/856/130 603/855/123 650/918/170
f 613/835/320 661/893/337 665/928/185 616/861/136
f 616/863/136 665/939/185 670/938/190 620/864/140
f 620/864/140 670/938/190 663/937/183 614/867/134
f 662/907/338 651/922/333 659/925/179 667/932/187
f 667/933/187 659/920/179 655/919/175 671/934/191
f 671/934/191 655/919/175 650/918/170 663/937/183
f 625/877/324 649/877/332 653/878/334 628/878/326
f 628/881/326 653/881/334 658/923/336 632/882/327
f 632/882/327 658/923/336 651/922/333 626/885/325
f 661/893/337 637/893/328 641/896/330 664/896/339
f 664/909/339 641/909/330 646/908/331 668/929/340
f 668/929/340 646/908/331 639/907/329 662/907/338
f 638/901/158 627/889/147 635/892/155 643/902/163
f 643/903/163 635/887/155 631/886/151 647/904/167
f 647/904/167 631/886/151 626/885/325 639/907/329
f 577/812/97 625/877/324 629/880/149 580/813/100
f 580/813/100 629/880/149 634/890/154 584/816/104
f 584/816/104 634/890/154 627/889/147 578/818/98
f 637/893/328 590/835/314 596/838/116 640/894/160
f 640/897/160 596/833/116 592/830/112 644/898/164
f 644/898/164 592/830/112 589/829/109 638/901/158
f 697/942/349 673/942/341 677/945/343 700/945/351
f 700/956/351 677/956/343 682/955/344 704/980/352
f 704/980/352 682/955/344 675/954/342 698/954/350
f 674/948/98 685/959/109 689/962/113 679/949/103
f 679/950/103 689/975/113 694/974/118 683/951/107
f 683/951/107 694/974/118 687/973/346 675/954/342
f 686/965/345 709/965/353 713/966/355 691/966/347
f 691/969/347 713/969/355 718/970/356 695/970/348
f 695/970/348 718/970/356 711/1004/354 687/973/346
f 710/998/134 699/986/123 707/989/131 715/999/139
f 715/1000/139 707/984/131 703/983/127 719/1001/143
f 719/1001/143 703/983/127 698/954/350 711/1004/354
f 745/1007/365 697/942/349 701/979/125 748/1042/172
f 748/1045/172 701/990/125 706/987/130 752/1046/176
f 752/1046/176 706/987/130 699/986/123 746/1049/170
f 709/965/353 757/1023/369 761/1060/185 712/992/136
f 712/994/136 761/1072/185 766/1071/190 716/995/140
f 716/995/140 766/1071/190 759/1070/183 710/998/134
f 758/1064/370 747/1053/366 755/1056/179 763/1065/187
f 763/1066/187 755/1051/179 751/1050/175 767/1067/191
f 767/1067/191 751/1050/175 746/1049/170 759/1070/183
f 721/1007/357 745/1007/365 749/1044/367 724/1008/359
f 724/1011/359 749/1057/367 754/1054/368 728/1012/360
f 728/1012/360 754/1054/368 747/1053/366 722/1015/358
f 757/1023/369 733/1023/361 737/1026/363 760/1026/371
f 760/1039/371 737/1039/363 742/1038/364 764/1061/372
f 764/1061/372 742/1038/364 735/1037/362 758/1064/370
f 734/1031/158 723/1019/147 731/1022/155 739/1032/163
f 739/1033/163 731/1017/155 727/1016/151 743/1034/167
f 743/1034/167 727/1016/151 722/1015/358 735/1037/362
f 673/942/341 721/1007/357 725/1010/149 676/943/100
f 676/943/100 725/1010/149 730/1020/154 680/946/104
f 680/946/104 730/1020/154 723/1019/147 674/948/98
f 733/1023/361 686/965/345 692/968/116 736/1024/160
f 736/1027/160 692/963/116 688/960/112 740/1028/164
f 740/1028/164 688/960/112 685/959/109 734/1031/158
f 25/37/25 73/109/73 49/73/49 1/1/1
f 3/13/3 15/31/15 39/67/39 26/43/26
f 51/85/51 62/97/62 13/19/13 2/7/2
f 85/127/85 37/55/37 14/27/14 61/91/61
f 27/51/27 38/61/38 87/139/87 74/115/74
f 75/123/75 86/133/86 63/105/63 50/79/50
f 121/145/121 169/211/169 145/211/145 97/145/97
f 99/157/99 111/176/111 135/207/135 122/157/122
f 147/223/147 158/235/158 109/162/109 98/151/98
f 181/227/181 133/168/133 110/168/110 157/227/157
f 123/188/123 134/201/134 183/272/183 170/252/170
f 171/256/171 182/266/182 159/241/159 146/219/146
f 217/277/121 265/345/213 241/345/205 193/277/97
f 195/289/193 207/308/196 231/340/202 218/317/199
f 243/357/147 254/369/158 205/294/109 194/283/98
f 277/361/217 229/327/201 206/300/195 253/361/209
f 219/321/123 230/334/134 279/406/183 266/386/170
f 267/390/214 278/375/218 255/375/210 242/353/206
f 313/411/121 361/511/241 337/476/233 289/411/97
f 291/423/221 303/442/224 327/472/230 314/423/227
f 339/488/147 350/500/158 301/428/109 290/417/98
f 373/492/245 325/434/229 302/434/223 349/492/237
f 315/454/123 326/466/134 375/539/183 362/518/170
f 363/522/242 374/533/246 351/506/238 338/484/234
f 409/580/257 457/649/273 433/614/265 385/544/249
f 387/558/250 399/575/254 423/609/262 410/587/258
f 435/626/147 446/638/158 397/563/109 386/552/98
f 469/632/277 421/569/261 398/569/253 445/632/269
f 411/591/123 422/603/134 471/676/183 458/656/170
f 459/660/274 470/670/278 447/644/270 434/622/266
f 505/681/121 553/747/303 529/747/295 481/681/97
f 483/693/281 495/712/284 519/743/291 506/721/287
f 531/759/147 542/771/158 493/698/109 482/687/98
f 565/763/307 517/704/290 494/704/283 541/763/299
f 507/725/123 518/737/134 567/807/183 554/788/170
f 555/755/304 566/777/308 543/777/300 530/755/296
f 601/812/121 649/877/332 625/877/324 577/812/97
f 579/824/312 591/843/315 615/873/321 602/824/318
f 627/889/147 638/901/158 589/829/109 578/818/98
f 661/893/337 613/835/320 590/835/314 637/893/328
f 603/855/123 614/867/134 663/937/183 650/918/170
f 651/922/333 662/907/338 639/907/329 626/885/325
f 697/942/349 745/1007/365 721/1007/357 673/942/341
f 675/954/342 687/973/346 711/1004/354 698/954/350
f 723/1019/147 734/1031/158 685/959/109 674/948/98
f 757/1023/369 709/965/353 686/965/345 733/1023/361
f 699/986/123 710/998/134 759/1070/183 746/1049/170
f 747/1053/366 758/1064/370 735/1037/362 722/1015/358
