# Blender 5.0.1
# www.blender.org
mtllib BB_PROP_PipeBracket.mtl
o BB_PROP_PipeBracket
v 7.810000 1.985000 -0.050000
v 7.810000 1.975000 -0.040000
v 7.800000 1.985000 -0.040000
v 7.810000 1.980007 -0.048664
v 7.805007 1.985000 -0.048664
v 7.805218 1.980218 -0.047366
v 7.805007 1.976336 -0.040000
v 7.810000 1.976336 -0.044993
v 7.805218 1.977634 -0.044782
v 7.801336 1.985000 -0.044993
v 7.801336 1.980007 -0.040000
v 7.802634 1.980218 -0.044782
v 7.810000 1.975000 0.040000
v 7.810000 1.985000 0.050000
v 7.800000 1.985000 0.040000
v 7.810000 1.976336 0.044993
v 7.805007 1.976336 0.040000
v 7.805218 1.977634 0.044782
v 7.805007 1.985000 0.048664
v 7.810000 1.980007 0.048664
v 7.805218 1.980218 0.047366
v 7.801336 1.980007 0.040000
v 7.801336 1.985000 0.044993
v 7.802634 1.980218 0.044782
v 7.810000 2.015000 -0.050000
v 7.800000 2.015000 -0.040000
v 7.810000 2.025000 -0.040000
v 7.805007 2.015000 -0.048664
v 7.810000 2.019994 -0.048664
v 7.805218 2.019782 -0.047366
v 7.801336 2.019994 -0.040000
v 7.801336 2.015000 -0.044993
v 7.802634 2.019782 -0.044782
v 7.810000 2.023664 -0.044993
v 7.805007 2.023664 -0.040000
v 7.805218 2.022366 -0.044782
v 7.810000 2.015000 0.050000
v 7.810000 2.025000 0.040000
v 7.800000 2.015000 0.040000
v 7.810000 2.019994 0.048664
v 7.805007 2.015000 0.048664
v 7.805218 2.019782 0.047366
v 7.805007 2.023664 0.040000
v 7.810000 2.023664 0.044993
v 7.805218 2.022366 0.044782
v 7.801336 2.015000 0.044993
v 7.801336 2.019994 0.040000
v 7.802634 2.019782 0.044782
v 8.190000 1.985000 -0.050000
v 8.200000 1.985000 -0.040000
v 8.190000 1.975000 -0.040000
v 8.194993 1.985000 -0.048664
v 8.190000 1.980007 -0.048664
v 8.194782 1.980218 -0.047366
v 8.198664 1.980007 -0.040000
v 8.198664 1.985000 -0.044993
v 8.197367 1.980218 -0.044782
v 8.190000 1.976336 -0.044993
v 8.194993 1.976336 -0.040000
v 8.194782 1.977634 -0.044782
v 8.190000 1.985000 0.050000
v 8.190000 1.975000 0.040000
v 8.200000 1.985000 0.040000
v 8.190000 1.980007 0.048664
v 8.194993 1.985000 0.048664
v 8.194782 1.980218 0.047366
v 8.194993 1.976336 0.040000
v 8.190000 1.976336 0.044993
v 8.194782 1.977634 0.044782
v 8.198664 1.985000 0.044993
v 8.198664 1.980007 0.040000
v 8.197367 1.980218 0.044782
v 8.190000 2.015000 -0.050000
v 8.190000 2.025000 -0.040000
v 8.200000 2.015000 -0.040000
v 8.190000 2.019994 -0.048664
v 8.194993 2.015000 -0.048664
v 8.194782 2.019782 -0.047366
v 8.194993 2.023664 -0.040000
v 8.190000 2.023664 -0.044993
v 8.194782 2.022366 -0.044782
v 8.198664 2.015000 -0.044993
v 8.198664 2.019994 -0.040000
v 8.197367 2.019782 -0.044782
v 8.190000 2.015000 0.050000
v 8.200000 2.015000 0.040000
v 8.190000 2.025000 0.040000
v 8.194993 2.015000 0.048664
v 8.190000 2.019994 0.048664
v 8.194782 2.019782 0.047366
v 8.198664 2.019994 0.040000
v 8.198664 2.015000 0.044993
v 8.197367 2.019782 0.044782
v 8.190000 2.023664 0.044993
v 8.194993 2.023664 0.040000
v 8.194782 2.022366 0.044782
v 8.110000 2.090000 -0.050000
v 8.110000 2.080000 -0.040000
v 8.100000 2.090000 -0.040000
v 8.110000 2.085006 -0.048664
v 8.105006 2.090000 -0.048664
v 8.105218 2.085218 -0.047366
v 8.105006 2.081336 -0.040000
v 8.110000 2.081336 -0.044993
v 8.105218 2.082634 -0.044782
v 8.101336 2.090000 -0.044993
v 8.101336 2.085006 -0.040000
v 8.102633 2.085218 -0.044782
v 8.110000 2.080000 0.040000
v 8.110000 2.090000 0.050000
v 8.100000 2.090000 0.040000
v 8.110000 2.081336 0.044993
v 8.105006 2.081336 0.040000
v 8.105218 2.082634 0.044782
v 8.105006 2.090000 0.048664
v 8.110000 2.085006 0.048664
v 8.105218 2.085218 0.047366
v 8.101336 2.085006 0.040000
v 8.101336 2.090000 0.044993
v 8.102633 2.085218 0.044782
v 8.110000 2.110000 -0.050000
v 8.100000 2.110000 -0.040000
v 8.110000 2.120000 -0.040000
v 8.105006 2.110000 -0.048664
v 8.110000 2.114994 -0.048664
v 8.105218 2.114782 -0.047366
v 8.101336 2.114994 -0.040000
v 8.101336 2.110000 -0.044993
v 8.102633 2.114782 -0.044782
v 8.110000 2.118664 -0.044993
v 8.105006 2.118664 -0.040000
v 8.105218 2.117366 -0.044782
v 8.110000 2.110000 0.050000
v 8.110000 2.120000 0.040000
v 8.100000 2.110000 0.040000
v 8.110000 2.114994 0.048664
v 8.105006 2.110000 0.048664
v 8.105218 2.114782 0.047366
v 8.105006 2.118664 0.040000
v 8.110000 2.118664 0.044993
v 8.105218 2.117366 0.044782
v 8.101336 2.110000 0.044993
v 8.101336 2.114994 0.040000
v 8.102633 2.114782 0.044782
v 8.130000 2.090000 -0.050000
v 8.140000 2.090000 -0.040000
v 8.130000 2.080000 -0.040000
v 8.134994 2.090000 -0.048664
v 8.130000 2.085006 -0.048664
v 8.134782 2.085218 -0.047366
v 8.138664 2.085006 -0.040000
v 8.138664 2.090000 -0.044993
v 8.137366 2.085218 -0.044782
v 8.130000 2.081336 -0.044993
v 8.134994 2.081336 -0.040000
v 8.134782 2.082634 -0.044782
v 8.130000 2.090000 0.050000
v 8.130000 2.080000 0.040000
v 8.140000 2.090000 0.040000
v 8.130000 2.085006 0.048664
v 8.134994 2.090000 0.048664
v 8.134782 2.085218 0.047366
v 8.134994 2.081336 0.040000
v 8.130000 2.081336 0.044993
v 8.134782 2.082634 0.044782
v 8.138664 2.090000 0.044993
v 8.138664 2.085006 0.040000
v 8.137366 2.085218 0.044782
v 8.130000 2.110000 -0.050000
v 8.130000 2.120000 -0.040000
v 8.140000 2.110000 -0.040000
v 8.130000 2.114994 -0.048664
v 8.134994 2.110000 -0.048664
v 8.134782 2.114782 -0.047366
v 8.134994 2.118664 -0.040000
v 8.130000 2.118664 -0.044993
v 8.134782 2.117366 -0.044782
v 8.138664 2.110000 -0.044993
v 8.138664 2.114994 -0.040000
v 8.137366 2.114782 -0.044782
v 8.130000 2.110000 0.050000
v 8.140000 2.110000 0.040000
v 8.130000 2.120000 0.040000
v 8.134994 2.110000 0.048664
v 8.130000 2.114994 0.048664
v 8.134782 2.114782 0.047366
v 8.138664 2.114994 0.040000
v 8.138664 2.110000 0.044993
v 8.137366 2.114782 0.044782
v 8.130000 2.118664 0.044993
v 8.134994 2.118664 0.040000
v 8.134782 2.117366 0.044782
v 8.084853 2.170711 -0.050000
v 8.091924 2.163640 -0.040000
v 8.077782 2.163640 -0.040000
v 8.088384 2.167180 -0.048664
v 8.081322 2.167180 -0.048664
v 8.084853 2.163948 -0.047366
v 8.087448 2.161053 -0.040000
v 8.090980 2.164584 -0.044993
v 8.086680 2.162120 -0.044782
v 8.078727 2.164584 -0.044993
v 8.082257 2.161053 -0.040000
v 8.083026 2.162120 -0.044782
v 8.091924 2.163640 0.040000
v 8.084853 2.170711 0.050000
v 8.077782 2.163640 0.040000
v 8.090980 2.164584 0.044993
v 8.087448 2.161053 0.040000
v 8.086680 2.162120 0.044782
v 8.081322 2.167180 0.048664
v 8.088384 2.167180 0.048664
v 8.084853 2.163948 0.047366
v 8.082257 2.161053 0.040000
v 8.078727 2.164584 0.044993
v 8.083026 2.162120 0.044782
v 8.070711 2.184853 -0.050000
v 8.063640 2.177782 -0.040000
v 8.063640 2.191924 -0.040000
v 8.067180 2.181322 -0.048664
v 8.067180 2.188384 -0.048664
v 8.063948 2.184853 -0.047366
v 8.061053 2.182257 -0.040000
v 8.064585 2.178726 -0.044993
v 8.062120 2.183025 -0.044782
v 8.064585 2.190979 -0.044993
v 8.061053 2.187448 -0.040000
v 8.062120 2.186680 -0.044782
v 8.070711 2.184853 0.050000
v 8.063640 2.191924 0.040000
v 8.063640 2.177782 0.040000
v 8.067180 2.188384 0.048664
v 8.067180 2.181322 0.048664
v 8.063948 2.184853 0.047366
v 8.061053 2.187448 0.040000
v 8.064585 2.190979 0.044993
v 8.062120 2.186680 0.044782
v 8.064585 2.178726 0.044993
v 8.061053 2.182257 0.040000
v 8.062120 2.183026 0.044782
v 8.098995 2.184853 -0.050000
v 8.106066 2.191924 -0.040000
v 8.106066 2.177782 -0.040000
v 8.102526 2.188384 -0.048664
v 8.102526 2.181322 -0.048664
v 8.105758 2.184853 -0.047366
v 8.108652 2.187448 -0.040000
v 8.105122 2.190979 -0.044993
v 8.107585 2.186680 -0.044782
v 8.105122 2.178726 -0.044993
v 8.108652 2.182257 -0.040000
v 8.107585 2.183026 -0.044782
v 8.098995 2.184853 0.050000
v 8.106066 2.177782 0.040000
v 8.106066 2.191924 0.040000
v 8.102526 2.181322 0.048664
v 8.102526 2.188384 0.048664
v 8.105758 2.184853 0.047366
v 8.108652 2.182257 0.040000
v 8.105122 2.178726 0.044993
v 8.107585 2.183025 0.044782
v 8.105122 2.190979 0.044993
v 8.108652 2.187448 0.040000
v 8.107585 2.186680 0.044782
v 8.084853 2.198995 -0.050000
v 8.077782 2.206066 -0.040000
v 8.091924 2.206066 -0.040000
v 8.081322 2.202526 -0.048664
v 8.088384 2.202526 -0.048664
v 8.084853 2.205758 -0.047366
v 8.082257 2.208652 -0.040000
v 8.078727 2.205121 -0.044993
v 8.083026 2.207585 -0.044782
v 8.090980 2.205121 -0.044993
v 8.087448 2.208652 -0.040000
v 8.086680 2.207585 -0.044782
v 8.084853 2.198995 0.050000
v 8.091924 2.206066 0.040000
v 8.077782 2.206066 0.040000
v 8.088384 2.202526 0.048664
v 8.081322 2.202526 0.048664
v 8.084853 2.205758 0.047366
v 8.087448 2.208652 0.040000
v 8.090980 2.205121 0.044993
v 8.086680 2.207585 0.044782
v 8.078727 2.205121 0.044993
v 8.082257 2.208652 0.040000
v 8.083026 2.207585 0.044782
v 8.010000 2.210000 -0.050000
v 8.020000 2.210000 -0.040000
v 8.010000 2.200000 -0.040000
v 8.014994 2.210000 -0.048664
v 8.010000 2.205007 -0.048664
v 8.014782 2.205218 -0.047366
v 8.018664 2.205007 -0.040000
v 8.018664 2.210000 -0.044993
v 8.017366 2.205218 -0.044782
v 8.010000 2.201336 -0.044993
v 8.014994 2.201336 -0.040000
v 8.014782 2.202634 -0.044782
v 8.020000 2.210000 0.040000
v 8.010000 2.210000 0.050000
v 8.010000 2.200000 0.040000
v 8.018664 2.210000 0.044993
v 8.018664 2.205007 0.040000
v 8.017366 2.205218 0.044782
v 8.010000 2.205007 0.048664
v 8.014994 2.210000 0.048664
v 8.014782 2.205218 0.047366
v 8.014994 2.201336 0.040000
v 8.010000 2.201336 0.044993
v 8.014782 2.202634 0.044782
v 7.990000 2.210000 -0.050000
v 7.990000 2.200000 -0.040000
v 7.980000 2.210000 -0.040000
v 7.990000 2.205007 -0.048664
v 7.985006 2.210000 -0.048664
v 7.985218 2.205218 -0.047366
v 7.985006 2.201336 -0.040000
v 7.990000 2.201336 -0.044993
v 7.985218 2.202634 -0.044782
v 7.981336 2.210000 -0.044993
v 7.981336 2.205007 -0.040000
v 7.982634 2.205218 -0.044782
v 7.990000 2.210000 0.050000
v 7.980000 2.210000 0.040000
v 7.990000 2.200000 0.040000
v 7.985006 2.210000 0.048664
v 7.990000 2.205007 0.048664
v 7.985218 2.205218 0.047366
v 7.981336 2.205007 0.040000
v 7.981336 2.210000 0.044993
v 7.982634 2.205218 0.044782
v 7.990000 2.201336 0.044993
v 7.985006 2.201336 0.040000
v 7.985218 2.202634 0.044782
v 8.010000 2.230000 -0.050000
v 8.010000 2.240000 -0.040000
v 8.020000 2.230000 -0.040000
v 8.010000 2.234993 -0.048664
v 8.014994 2.230000 -0.048664
v 8.014782 2.234782 -0.047366
v 8.014994 2.238664 -0.040000
v 8.010000 2.238664 -0.044993
v 8.014782 2.237366 -0.044782
v 8.018664 2.230000 -0.044993
v 8.018664 2.234993 -0.040000
v 8.017366 2.234782 -0.044782
v 8.010000 2.230000 0.050000
v 8.020000 2.230000 0.040000
v 8.010000 2.240000 0.040000
v 8.014994 2.230000 0.048664
v 8.010000 2.234993 0.048664
v 8.014782 2.234782 0.047366
v 8.018664 2.234993 0.040000
v 8.018664 2.230000 0.044993
v 8.017366 2.234782 0.044782
v 8.010000 2.238664 0.044993
v 8.014994 2.238664 0.040000
v 8.014782 2.237366 0.044782
v 7.990000 2.230000 -0.050000
v 7.980000 2.230000 -0.040000
v 7.990000 2.240000 -0.040000
v 7.985006 2.230000 -0.048664
v 7.990000 2.234993 -0.048664
v 7.985218 2.234782 -0.047366
v 7.981336 2.234993 -0.040000
v 7.981336 2.230000 -0.044993
v 7.982634 2.234782 -0.044782
v 7.990000 2.238664 -0.044993
v 7.985006 2.238664 -0.040000
v 7.985218 2.237366 -0.044782
v 7.990000 2.230000 0.050000
v 7.990000 2.240000 0.040000
v 7.980000 2.230000 0.040000
v 7.990000 2.234993 0.048664
v 7.985006 2.230000 0.048664
v 7.985218 2.234782 0.047366
v 7.985006 2.238664 0.040000
v 7.990000 2.238664 0.044993
v 7.985218 2.237366 0.044782
v 7.981336 2.230000 0.044993
v 7.981336 2.234993 0.040000
v 7.982634 2.234782 0.044782
v 7.929289 2.184853 -0.050000
v 7.936360 2.191924 -0.040000
v 7.936360 2.177782 -0.040000
v 7.932820 2.188384 -0.048664
v 7.932820 2.181322 -0.048664
v 7.936052 2.184853 -0.047366
v 7.938947 2.187448 -0.040000
v 7.935416 2.190979 -0.044993
v 7.937880 2.186680 -0.044782
v 7.935416 2.178726 -0.044993
v 7.938947 2.182257 -0.040000
v 7.937880 2.183026 -0.044782
v 7.936360 2.191924 0.040000
v 7.929289 2.184853 0.050000
v 7.936360 2.177782 0.040000
v 7.935416 2.190979 0.044993
v 7.938947 2.187448 0.040000
v 7.937880 2.186680 0.044782
v 7.932820 2.181322 0.048664
v 7.932820 2.188384 0.048664
v 7.936052 2.184853 0.047366
v 7.938947 2.182257 0.040000
v 7.935416 2.178726 0.044993
v 7.937880 2.183026 0.044782
v 7.915147 2.170711 -0.050000
v 7.922218 2.163640 -0.040000
v 7.908076 2.163640 -0.040000
v 7.918678 2.167180 -0.048664
v 7.911616 2.167180 -0.048664
v 7.915147 2.163948 -0.047366
v 7.917743 2.161053 -0.040000
v 7.921274 2.164584 -0.044993
v 7.916975 2.162120 -0.044782
v 7.909021 2.164584 -0.044993
v 7.912552 2.161053 -0.040000
v 7.913320 2.162120 -0.044782
v 7.915147 2.170711 0.050000
v 7.908076 2.163640 0.040000
v 7.922218 2.163640 0.040000
v 7.911616 2.167180 0.048664
v 7.918678 2.167180 0.048664
v 7.915147 2.163948 0.047366
v 7.912552 2.161053 0.040000
v 7.909021 2.164584 0.044993
v 7.913320 2.162120 0.044782
v 7.921274 2.164584 0.044993
v 7.917743 2.161053 0.040000
v 7.916975 2.162120 0.044782
v 7.915147 2.198995 -0.050000
v 7.908076 2.206066 -0.040000
v 7.922218 2.206066 -0.040000
v 7.911616 2.202526 -0.048664
v 7.918678 2.202526 -0.048664
v 7.915147 2.205758 -0.047366
v 7.912552 2.208652 -0.040000
v 7.909021 2.205121 -0.044993
v 7.913320 2.207585 -0.044782
v 7.921274 2.205121 -0.044993
v 7.917743 2.208652 -0.040000
v 7.916975 2.207585 -0.044782
v 7.915147 2.198995 0.050000
v 7.922218 2.206066 0.040000
v 7.908076 2.206066 0.040000
v 7.918678 2.202526 0.048664
v 7.911616 2.202526 0.048664
v 7.915147 2.205758 0.047366
v 7.917743 2.208652 0.040000
v 7.921274 2.205121 0.044993
v 7.916975 2.207585 0.044782
v 7.909021 2.205121 0.044993
v 7.912552 2.208652 0.040000
v 7.913320 2.207585 0.044782
v 7.901005 2.184853 -0.050000
v 7.893934 2.177782 -0.040000
v 7.893934 2.191924 -0.040000
v 7.897474 2.181322 -0.048664
v 7.897474 2.188384 -0.048664
v 7.894242 2.184853 -0.047366
v 7.891348 2.182257 -0.040000
v 7.894879 2.178726 -0.044993
v 7.892415 2.183025 -0.044782
v 7.894879 2.190979 -0.044993
v 7.891348 2.187448 -0.040000
v 7.892415 2.186680 -0.044782
v 7.901005 2.184853 0.050000
v 7.893934 2.191924 0.040000
v 7.893934 2.177782 0.040000
v 7.897474 2.188384 0.048664
v 7.897474 2.181322 0.048664
v 7.894242 2.184853 0.047366
v 7.891348 2.187448 0.040000
v 7.894879 2.190979 0.044993
v 7.892415 2.186680 0.044782
v 7.894879 2.178726 0.044993
v 7.891348 2.182257 0.040000
v 7.892415 2.183026 0.044782
v 7.890000 2.110000 -0.050000
v 7.890000 2.120000 -0.040000
v 7.900000 2.110000 -0.040000
v 7.890000 2.114994 -0.048664
v 7.894993 2.110000 -0.048664
v 7.894782 2.114782 -0.047366
v 7.894993 2.118664 -0.040000
v 7.890000 2.118664 -0.044993
v 7.894782 2.117366 -0.044782
v 7.898664 2.110000 -0.044993
v 7.898664 2.114994 -0.040000
v 7.897367 2.114782 -0.044782
v 7.890000 2.120000 0.040000
v 7.890000 2.110000 0.050000
v 7.900000 2.110000 0.040000
v 7.890000 2.118664 0.044993
v 7.894993 2.118664 0.040000
v 7.894782 2.117366 0.044782
v 7.894993 2.110000 0.048664
v 7.890000 2.114994 0.048664
v 7.894782 2.114782 0.047366
v 7.898664 2.114994 0.040000
v 7.898664 2.110000 0.044993
v 7.897367 2.114782 0.044782
v 7.890000 2.090000 -0.050000
v 7.900000 2.090000 -0.040000
v 7.890000 2.080000 -0.040000
v 7.894993 2.090000 -0.048664
v 7.890000 2.085006 -0.048664
v 7.894782 2.085218 -0.047366
v 7.898664 2.085006 -0.040000
v 7.898664 2.090000 -0.044993
v 7.897367 2.085218 -0.044782
v 7.890000 2.081336 -0.044993
v 7.894993 2.081336 -0.040000
v 7.894782 2.082634 -0.044782
v 7.890000 2.090000 0.050000
v 7.890000 2.080000 0.040000
v 7.900000 2.090000 0.040000
v 7.890000 2.085006 0.048664
v 7.894993 2.090000 0.048664
v 7.894782 2.085218 0.047366
v 7.894993 2.081336 0.040000
v 7.890000 2.081336 0.044993
v 7.894782 2.082634 0.044782
v 7.898664 2.090000 0.044993
v 7.898664 2.085006 0.040000
v 7.897367 2.085218 0.044782
v 7.870000 2.110000 -0.050000
v 7.860000 2.110000 -0.040000
v 7.870000 2.120000 -0.040000
v 7.865006 2.110000 -0.048664
v 7.870000 2.114994 -0.048664
v 7.865218 2.114782 -0.047366
v 7.861336 2.114994 -0.040000
v 7.861336 2.110000 -0.044993
v 7.862634 2.114782 -0.044782
v 7.870000 2.118664 -0.044993
v 7.865006 2.118664 -0.040000
v 7.865218 2.117366 -0.044782
v 7.870000 2.110000 0.050000
v 7.870000 2.120000 0.040000
v 7.860000 2.110000 0.040000
v 7.870000 2.114994 0.048664
v 7.865006 2.110000 0.048664
v 7.865218 2.114782 0.047366
v 7.865006 2.118664 0.040000
v 7.870000 2.118664 0.044993
v 7.865218 2.117366 0.044782
v 7.861336 2.110000 0.044993
v 7.861336 2.114994 0.040000
v 7.862634 2.114782 0.044782
v 7.870000 2.090000 -0.050000
v 7.870000 2.080000 -0.040000
v 7.860000 2.090000 -0.040000
v 7.870000 2.085006 -0.048664
v 7.865006 2.090000 -0.048664
v 7.865218 2.085218 -0.047366
v 7.865006 2.081336 -0.040000
v 7.870000 2.081336 -0.044993
v 7.865218 2.082634 -0.044782
v 7.861336 2.090000 -0.044993
v 7.861336 2.085006 -0.040000
v 7.862634 2.085218 -0.044782
v 7.870000 2.090000 0.050000
v 7.860000 2.090000 0.040000
v 7.870000 2.080000 0.040000
v 7.865006 2.090000 0.048664
v 7.870000 2.085006 0.048664
v 7.865218 2.085218 0.047366
v 7.861336 2.085006 0.040000
v 7.861336 2.090000 0.044993
v 7.862634 2.085218 0.044782
v 7.870000 2.081336 0.044993
v 7.865006 2.081336 0.040000
v 7.865218 2.082634 0.044782
vn -0.1296 -0.1296 -0.9831
vn -0.1296 -0.9831 -0.1296
vn -0.9831 -0.1296 -0.1296
vn -0.1216 -0.4915 -0.8623
vn -0.4915 -0.1216 -0.8623
vn -0.4473 -0.4473 -0.7744
vn -0.4915 -0.8623 -0.1216
vn -0.1216 -0.8623 -0.4915
vn -0.4473 -0.7744 -0.4473
vn -0.8623 -0.1216 -0.4915
vn -0.8623 -0.4915 -0.1216
vn -0.7744 -0.4473 -0.4473
vn -0.1296 -0.9831 0.1296
vn -0.1296 -0.1296 0.9831
vn -0.9831 -0.1296 0.1296
vn -0.1216 -0.8623 0.4915
vn -0.4915 -0.8623 0.1216
vn -0.4473 -0.7744 0.4473
vn -0.4915 -0.1216 0.8623
vn -0.1216 -0.4915 0.8623
vn -0.4473 -0.4473 0.7744
vn -0.8623 -0.4915 0.1216
vn -0.8623 -0.1216 0.4915
vn -0.7744 -0.4473 0.4473
vn -0.1296 0.1296 -0.9831
vn -0.9831 0.1296 -0.1296
vn -0.1296 0.9831 -0.1296
vn -0.4915 0.1216 -0.8623
vn -0.1216 0.4915 -0.8623
vn -0.4473 0.4473 -0.7744
vn -0.8623 0.4915 -0.1216
vn -0.8623 0.1216 -0.4915
vn -0.7744 0.4473 -0.4473
vn -0.1216 0.8623 -0.4915
vn -0.4915 0.8623 -0.1216
vn -0.4473 0.7744 -0.4473
vn -0.1296 0.1296 0.9831
vn -0.1296 0.9831 0.1296
vn -0.9831 0.1296 0.1296
vn -0.1216 0.4915 0.8623
vn -0.4915 0.1216 0.8623
vn -0.4473 0.4473 0.7744
vn -0.4915 0.8623 0.1216
vn -0.1216 0.8623 0.4915
vn -0.4473 0.7744 0.4473
vn -0.8623 0.1216 0.4915
vn -0.8623 0.4915 0.1216
vn -0.7744 0.4473 0.4473
vn 0.1296 -0.1296 -0.9831
vn 0.9831 -0.1296 -0.1296
vn 0.1296 -0.9831 -0.1296
vn 0.4915 -0.1216 -0.8623
vn 0.1216 -0.4915 -0.8623
vn 0.4473 -0.4473 -0.7744
vn 0.8623 -0.4915 -0.1216
vn 0.8623 -0.1216 -0.4915
vn 0.7744 -0.4473 -0.4473
vn 0.1216 -0.8623 -0.4915
vn 0.4915 -0.8623 -0.1216
vn 0.4473 -0.7744 -0.4473
vn 0.1296 -0.1296 0.9831
vn 0.1296 -0.9831 0.1296
vn 0.9831 -0.1296 0.1296
vn 0.1216 -0.4915 0.8623
vn 0.4915 -0.1216 0.8623
vn 0.4473 -0.4473 0.7744
vn 0.4915 -0.8623 0.1216
vn 0.1216 -0.8623 0.4915
vn 0.4473 -0.7744 0.4473
vn 0.8623 -0.1216 0.4915
vn 0.8623 -0.4915 0.1216
vn 0.7744 -0.4473 0.4473
vn 0.1296 0.1296 -0.9831
vn 0.1296 0.9831 -0.1296
vn 0.9831 0.1296 -0.1296
vn 0.1216 0.4915 -0.8623
vn 0.4915 0.1216 -0.8623
vn 0.4473 0.4473 -0.7744
vn 0.4915 0.8623 -0.1216
vn 0.1216 0.8623 -0.4915
vn 0.4473 0.7744 -0.4473
vn 0.8623 0.1216 -0.4915
vn 0.8623 0.4915 -0.1216
vn 0.7744 0.4473 -0.4473
vn 0.1296 0.1296 0.9831
vn 0.9831 0.1296 0.1296
vn 0.1296 0.9831 0.1296
vn 0.4915 0.1216 0.8623
vn 0.1216 0.4915 0.8623
vn 0.4473 0.4473 0.7744
vn 0.8623 0.4915 0.1216
vn 0.8623 0.1216 0.4915
vn 0.7744 0.4473 0.4473
vn 0.1216 0.8623 0.4915
vn 0.4915 0.8623 0.1216
vn 0.4473 0.7744 0.4473
vn 0.7744 -0.4474 0.4473
vn -0.0000 -0.1833 -0.9831
vn 0.6035 -0.7868 -0.1296
vn -0.6035 -0.7868 -0.1296
vn 0.2616 -0.4335 -0.8623
vn -0.2616 -0.4335 -0.8623
vn -0.0000 -0.6326 -0.7744
vn 0.2622 -0.9573 -0.1216
vn 0.5238 -0.6957 -0.4915
vn 0.2313 -0.8639 -0.4473
vn -0.5238 -0.6957 -0.4915
vn -0.2622 -0.9573 -0.1216
vn -0.2313 -0.8639 -0.4474
vn 0.6035 -0.7868 0.1296
vn -0.0000 -0.1833 0.9831
vn -0.6035 -0.7868 0.1296
vn 0.5238 -0.6957 0.4915
vn 0.2622 -0.9573 0.1216
vn 0.2313 -0.8639 0.4474
vn -0.2616 -0.4335 0.8623
vn 0.2616 -0.4335 0.8623
vn -0.0000 -0.6326 0.7744
vn -0.2622 -0.9573 0.1216
vn -0.5238 -0.6957 0.4915
vn -0.2313 -0.8639 0.4473
vn -0.1833 -0.0000 -0.9831
vn -0.7868 -0.6035 -0.1296
vn -0.7868 0.6035 -0.1296
vn -0.4335 -0.2616 -0.8623
vn -0.4335 0.2616 -0.8623
vn -0.6326 -0.0000 -0.7744
vn -0.9573 -0.2622 -0.1216
vn -0.6957 -0.5238 -0.4915
vn -0.8639 -0.2313 -0.4473
vn -0.6957 0.5238 -0.4915
vn -0.9573 0.2622 -0.1216
vn -0.8639 0.2313 -0.4473
vn -0.1833 -0.0000 0.9831
vn -0.7868 0.6035 0.1296
vn -0.7868 -0.6035 0.1296
vn -0.4335 0.2616 0.8623
vn -0.4335 -0.2616 0.8623
vn -0.6326 -0.0000 0.7744
vn -0.9573 0.2622 0.1216
vn -0.6957 0.5238 0.4915
vn -0.8639 0.2313 0.4473
vn -0.6957 -0.5238 0.4915
vn -0.9573 -0.2622 0.1216
vn -0.8639 -0.2313 0.4474
vn 0.1833 -0.0000 -0.9831
vn 0.7868 0.6035 -0.1296
vn 0.7868 -0.6035 -0.1296
vn 0.4335 0.2616 -0.8623
vn 0.4335 -0.2616 -0.8623
vn 0.6326 -0.0000 -0.7744
vn 0.9573 0.2622 -0.1216
vn 0.6957 0.5238 -0.4915
vn 0.8639 0.2313 -0.4473
vn 0.6957 -0.5238 -0.4915
vn 0.9573 -0.2622 -0.1216
vn 0.8639 -0.2313 -0.4474
vn 0.1833 -0.0000 0.9831
vn 0.7868 -0.6035 0.1296
vn 0.7868 0.6035 0.1296
vn 0.4335 -0.2616 0.8623
vn 0.4335 0.2616 0.8623
vn 0.6326 -0.0000 0.7744
vn 0.9573 -0.2622 0.1216
vn 0.6957 -0.5238 0.4915
vn 0.8639 -0.2313 0.4473
vn 0.6957 0.5238 0.4915
vn 0.9573 0.2622 0.1216
vn 0.8639 0.2313 0.4473
vn -0.0000 0.1833 -0.9831
vn -0.6035 0.7868 -0.1296
vn 0.6035 0.7868 -0.1296
vn -0.2616 0.4335 -0.8623
vn 0.2616 0.4335 -0.8623
vn -0.0000 0.6326 -0.7744
vn -0.2622 0.9573 -0.1216
vn -0.5238 0.6957 -0.4915
vn -0.2313 0.8639 -0.4474
vn 0.5238 0.6957 -0.4915
vn 0.2622 0.9573 -0.1216
vn 0.2313 0.8639 -0.4474
vn -0.0000 0.1833 0.9831
vn 0.6035 0.7868 0.1296
vn -0.6035 0.7868 0.1296
vn 0.2616 0.4335 0.8623
vn -0.2616 0.4335 0.8623
vn -0.0000 0.6326 0.7744
vn 0.2622 0.9573 0.1216
vn 0.5238 0.6957 0.4915
vn 0.2313 0.8639 0.4474
vn -0.5238 0.6957 0.4915
vn -0.2622 0.9573 0.1216
vn -0.2313 0.8639 0.4474
vn 0.7744 -0.4473 0.4474
vn -0.7744 -0.4473 -0.4474
vn 0.4473 0.7744 -0.4474
vn -0.4473 0.7744 0.4474
vn -0.7744 -0.4474 -0.4473
vt 0.431523 0.023940
vt 0.421791 0.023940
vt 0.422203 0.014620
vt 0.431523 0.014209
vt 0.412034 0.023940
vt 0.412034 0.014620
vt 0.383643 0.023940
vt 0.383643 0.014209
vt 0.403131 0.014620
vt 0.403131 0.023940
vt 0.383643 0.004451
vt 0.403131 0.004451
vt 0.763366 0.179851
vt 0.763366 0.199340
vt 0.754046 0.199340
vt 0.743877 0.179851
vt 0.431523 0.004451
vt 0.422203 0.004451
vt 0.227732 0.023940
vt 0.208243 0.023940
vt 0.208243 0.014621
vt 0.227732 0.014209
vt 0.518381 0.764517
vt 0.528139 0.764517
vt 0.528550 0.773837
vt 0.518381 0.773837
vt 0.537870 0.764517
vt 0.537870 0.774249
vt 0.537870 0.784006
vt 0.528550 0.784006
vt 0.763366 0.023940
vt 0.743877 0.023940
vt 0.754046 0.004451
vt 0.763366 0.004451
vt 0.227732 0.004451
vt 0.208243 0.004451
vt 0.489990 0.023940
vt 0.489990 0.014209
vt 0.499309 0.014620
vt 0.499721 0.023940
vt 0.489990 0.004451
vt 0.499310 0.004451
vt 0.821832 0.179851
vt 0.841321 0.179851
vt 0.831152 0.199340
vt 0.821832 0.199340
vt 0.179851 0.784006
vt 0.179851 0.774249
vt 0.199340 0.773837
vt 0.199340 0.784006
vt 0.179851 0.764517
vt 0.199340 0.764517
vt 0.509479 0.023940
vt 0.509479 0.014621
vt 0.596337 0.764517
vt 0.606068 0.764517
vt 0.605657 0.773837
vt 0.596337 0.774249
vt 0.615826 0.764517
vt 0.615826 0.773837
vt 0.023940 0.764517
vt 0.023940 0.774249
vt 0.004451 0.773837
vt 0.004451 0.764517
vt 0.023940 0.784006
vt 0.004451 0.784006
vt 0.821832 0.023940
vt 0.821832 0.004451
vt 0.831152 0.004451
vt 0.841321 0.023940
vt 0.596337 0.784006
vt 0.605657 0.784006
vt 0.431523 0.764517
vt 0.431523 0.774249
vt 0.422203 0.773837
vt 0.421791 0.764517
vt 0.431523 0.784006
vt 0.422203 0.784006
vt 0.821832 0.383643
vt 0.831564 0.383642
vt 0.831152 0.403131
vt 0.821832 0.403131
vt 0.841321 0.383642
vt 0.841321 0.403131
vt 0.383643 0.764517
vt 0.403131 0.764517
vt 0.403131 0.773837
vt 0.383643 0.784006
vt 0.412034 0.764517
vt 0.412034 0.773837
vt 0.537870 0.023940
vt 0.528139 0.023940
vt 0.528551 0.014620
vt 0.537870 0.014209
vt 0.518381 0.023940
vt 0.518381 0.014621
vt 0.227732 0.764517
vt 0.227732 0.784006
vt 0.208243 0.773837
vt 0.208243 0.764517
vt 0.841321 0.227732
vt 0.831564 0.227732
vt 0.831152 0.208243
vt 0.841321 0.208243
vt 0.821832 0.227732
vt 0.821832 0.208243
vt 0.537870 0.004451
vt 0.528550 0.004451
vt 0.489990 0.764517
vt 0.499721 0.764517
vt 0.499309 0.773837
vt 0.489990 0.774249
vt 0.509479 0.764517
vt 0.509479 0.773837
vt 0.179851 0.023940
vt 0.179851 0.004451
vt 0.199340 0.014620
vt 0.199340 0.023940
vt 0.743877 0.383642
vt 0.753634 0.383642
vt 0.754046 0.403131
vt 0.743877 0.403131
vt 0.763366 0.383643
vt 0.763366 0.403131
vt 0.489990 0.784006
vt 0.499309 0.784006
vt 0.596337 0.023940
vt 0.596337 0.014209
vt 0.605657 0.014620
vt 0.606068 0.023940
vt 0.596337 0.004451
vt 0.605657 0.004451
vt 0.763366 0.227732
vt 0.753634 0.227732
vt 0.754046 0.208243
vt 0.763366 0.208243
vt 0.743877 0.227732
vt 0.743877 0.208243
vt 0.023940 0.023940
vt 0.004451 0.023940
vt 0.004451 0.014621
vt 0.023940 0.004451
vt 0.615826 0.023940
vt 0.615826 0.014621
vt 0.545089 0.812397
vt 0.525600 0.812397
vt 0.525600 0.803078
vt 0.545089 0.792909
vt 0.889201 0.810714
vt 0.889202 0.800957
vt 0.898521 0.800545
vt 0.898521 0.810714
vt 0.889201 0.791225
vt 0.908690 0.791225
vt 0.743877 0.587434
vt 0.753634 0.587434
vt 0.754046 0.596754
vt 0.749010 0.596754
vt 0.763366 0.587434
vt 0.763366 0.597166
vt 0.763366 0.606923
vt 0.743877 0.606923
vt 0.903558 0.800545
vt 0.889202 0.635314
vt 0.889201 0.625583
vt 0.898521 0.625995
vt 0.908690 0.635314
vt 0.889202 0.615825
vt 0.898521 0.615825
vt 0.644217 0.878083
vt 0.644217 0.897572
vt 0.624728 0.887403
vt 0.624728 0.878083
vt 0.763366 0.412034
vt 0.763366 0.421791
vt 0.754046 0.422203
vt 0.743877 0.412034
vt 0.763366 0.431523
vt 0.753634 0.431523
vt 0.743877 0.431523
vt 0.749010 0.422203
vt 0.903558 0.625995
vt 0.584067 0.812397
vt 0.584067 0.792909
vt 0.593387 0.792909
vt 0.603556 0.812397
vt 0.802343 0.606923
vt 0.802343 0.597165
vt 0.811663 0.596754
vt 0.811663 0.606923
vt 0.802343 0.587434
vt 0.812075 0.587434
vt 0.821832 0.587434
vt 0.821832 0.596754
vt 0.763366 0.791225
vt 0.763366 0.800957
vt 0.743877 0.800545
vt 0.743877 0.791225
vt 0.763366 0.810714
vt 0.743877 0.810714
vt 0.683195 0.878083
vt 0.702684 0.878083
vt 0.702684 0.887403
vt 0.683195 0.897572
vt 0.763366 0.615825
vt 0.763366 0.625583
vt 0.754046 0.625995
vt 0.754046 0.615825
vt 0.763366 0.635314
vt 0.743877 0.635314
vt 0.821832 0.431523
vt 0.812075 0.431523
vt 0.811663 0.422203
vt 0.816700 0.422203
vt 0.802343 0.431523
vt 0.802343 0.421791
vt 0.802343 0.412034
vt 0.821832 0.412034
vt 0.749010 0.625995
vt 0.545089 0.851375
vt 0.545089 0.870864
vt 0.535770 0.870864
vt 0.525600 0.851375
vt 0.889202 0.606923
vt 0.889202 0.597166
vt 0.898521 0.596754
vt 0.898521 0.606923
vt 0.889202 0.587434
vt 0.898933 0.587434
vt 0.908690 0.587434
vt 0.908690 0.596754
vt 0.850224 0.791225
vt 0.850224 0.800957
vt 0.830735 0.800545
vt 0.830735 0.791225
vt 0.850224 0.810714
vt 0.830735 0.810714
vt 0.644217 0.839106
vt 0.624728 0.839106
vt 0.624728 0.829786
vt 0.644217 0.819617
vt 0.850224 0.615825
vt 0.850224 0.625583
vt 0.840904 0.625995
vt 0.840904 0.615825
vt 0.850224 0.635314
vt 0.830735 0.635314
vt 0.908690 0.431523
vt 0.898933 0.431523
vt 0.898521 0.422203
vt 0.903558 0.422203
vt 0.889202 0.431523
vt 0.889202 0.421791
vt 0.889202 0.412034
vt 0.908690 0.412034
vt 0.835868 0.625995
vt 0.584067 0.851375
vt 0.603556 0.851375
vt 0.603556 0.860695
vt 0.584067 0.870864
vt 0.802343 0.810714
vt 0.802343 0.800957
vt 0.811663 0.800545
vt 0.811663 0.810714
vt 0.802343 0.791225
vt 0.812075 0.791225
vt 0.821832 0.791225
vt 0.821832 0.800545
vt 0.850224 0.587434
vt 0.850224 0.597165
vt 0.830735 0.596754
vt 0.830735 0.587434
vt 0.850224 0.606923
vt 0.830735 0.606923
vt 0.683195 0.839106
vt 0.683195 0.819617
vt 0.692515 0.819617
vt 0.702684 0.839106
vt 0.850224 0.412034
vt 0.850224 0.421791
vt 0.840904 0.422203
vt 0.840904 0.412034
vt 0.850224 0.431523
vt 0.830735 0.431523
vt 0.821832 0.635314
vt 0.812075 0.635314
vt 0.811663 0.625995
vt 0.816699 0.625995
vt 0.802343 0.635314
vt 0.802343 0.625583
vt 0.802343 0.615825
vt 0.821832 0.615825
vt 0.835868 0.422203
vt 0.545089 0.899256
vt 0.525600 0.899256
vt 0.525600 0.889936
vt 0.545089 0.879767
vt 0.666071 0.199340
vt 0.666070 0.189583
vt 0.672661 0.189171
vt 0.675058 0.199340
vt 0.666071 0.179851
vt 0.672952 0.179851
vt 0.686751 0.179851
vt 0.684337 0.189171
vt 0.693632 0.179851
vt 0.693632 0.189583
vt 0.693632 0.199340
vt 0.666071 0.023940
vt 0.666071 0.014209
vt 0.672661 0.014620
vt 0.672952 0.023940
vt 0.666071 0.004451
vt 0.675058 0.004451
vt 0.683195 0.925964
vt 0.683195 0.906475
vt 0.702684 0.916644
vt 0.702684 0.925964
vt 0.693632 0.004451
vt 0.693632 0.014209
vt 0.684337 0.014620
vt 0.693632 0.023940
vt 0.686751 0.023940
vt 0.584067 0.899256
vt 0.584067 0.879767
vt 0.593387 0.879767
vt 0.603556 0.899256
vt 0.721193 0.199340
vt 0.721193 0.189583
vt 0.727783 0.189171
vt 0.727783 0.199340
vt 0.721193 0.179851
vt 0.728075 0.179851
vt 0.734974 0.179851
vt 0.734974 0.189171
vt 0.638509 0.383642
vt 0.638509 0.393374
vt 0.624728 0.392962
vt 0.624728 0.383642
vt 0.638509 0.403131
vt 0.624728 0.403131
vt 0.644217 0.925964
vt 0.624729 0.925964
vt 0.624729 0.916644
vt 0.644217 0.906475
vt 0.638509 0.208243
vt 0.638509 0.218000
vt 0.631919 0.218412
vt 0.631919 0.208243
vt 0.638509 0.227732
vt 0.624728 0.227732
vt 0.734974 0.023940
vt 0.728075 0.023940
vt 0.727784 0.014620
vt 0.731345 0.014620
vt 0.721193 0.023940
vt 0.721193 0.014209
vt 0.721193 0.004451
vt 0.734974 0.004451
vt 0.628358 0.218412
vt 0.545089 0.938233
vt 0.545089 0.957722
vt 0.535770 0.957722
vt 0.525600 0.938233
vt 0.721193 0.403131
vt 0.721193 0.393374
vt 0.727783 0.392962
vt 0.727783 0.403131
vt 0.721193 0.383642
vt 0.734974 0.383642
vt 0.624728 0.179851
vt 0.631628 0.179851
vt 0.631919 0.189171
vt 0.628358 0.189171
vt 0.638509 0.179851
vt 0.638509 0.189583
vt 0.638509 0.199340
vt 0.624728 0.199340
vt 0.731345 0.392962
vt 0.683195 0.964942
vt 0.702684 0.964942
vt 0.702684 0.974261
vt 0.683195 0.984430
vt 0.638509 0.004451
vt 0.638509 0.014209
vt 0.631919 0.014620
vt 0.631919 0.004451
vt 0.638509 0.023940
vt 0.631628 0.023940
vt 0.624728 0.023940
vt 0.624728 0.014620
vt 0.721193 0.227732
vt 0.721193 0.218000
vt 0.734974 0.218412
vt 0.734974 0.227732
vt 0.721193 0.208243
vt 0.734974 0.208243
vt 0.584067 0.938233
vt 0.603556 0.938233
vt 0.603556 0.947553
vt 0.584067 0.957722
vt 0.666070 0.403131
vt 0.666070 0.393374
vt 0.672661 0.392962
vt 0.675058 0.403131
vt 0.666071 0.383642
vt 0.672952 0.383642
vt 0.686751 0.383642
vt 0.684337 0.392962
vt 0.693632 0.383642
vt 0.693632 0.393374
vt 0.693632 0.403131
vt 0.644217 0.964942
vt 0.644217 0.984430
vt 0.634898 0.984431
vt 0.624729 0.964942
vt 0.693632 0.208243
vt 0.693632 0.218000
vt 0.687042 0.218412
vt 0.684645 0.208243
vt 0.693632 0.227732
vt 0.686751 0.227732
vt 0.672952 0.227732
vt 0.675366 0.218412
vt 0.666071 0.227732
vt 0.666071 0.218000
vt 0.666071 0.208243
vt 0.937082 0.470501
vt 0.937082 0.489990
vt 0.927762 0.489990
vt 0.917593 0.470501
vt 0.497209 0.987797
vt 0.497209 0.978040
vt 0.506529 0.977628
vt 0.506529 0.987797
vt 0.497209 0.968308
vt 0.516698 0.968308
vt 0.178168 0.968308
vt 0.187925 0.968308
vt 0.188337 0.977628
vt 0.183301 0.977628
vt 0.197657 0.968308
vt 0.197657 0.978040
vt 0.197657 0.987797
vt 0.178168 0.987797
vt 0.511565 0.977628
vt 0.497209 0.812397
vt 0.497209 0.802666
vt 0.506529 0.803078
vt 0.516698 0.812398
vt 0.497209 0.792909
vt 0.506529 0.792909
vt 0.937082 0.635314
vt 0.917593 0.635314
vt 0.927762 0.615825
vt 0.937082 0.615825
vt 0.197657 0.792909
vt 0.197657 0.802666
vt 0.188337 0.803078
vt 0.178168 0.792909
vt 0.197657 0.812397
vt 0.187925 0.812398
vt 0.178168 0.812397
vt 0.183301 0.803078
vt 0.511565 0.803078
vt 0.937082 0.431523
vt 0.917593 0.431523
vt 0.917593 0.422203
vt 0.937082 0.412034
vt 0.236634 0.987797
vt 0.236634 0.978040
vt 0.245954 0.977628
vt 0.245954 0.987797
vt 0.236634 0.968308
vt 0.246366 0.968308
vt 0.256123 0.968308
vt 0.256123 0.977628
vt 0.371373 0.968308
vt 0.371373 0.978040
vt 0.351884 0.977628
vt 0.351884 0.968308
vt 0.371373 0.987797
vt 0.351884 0.987797
vt 0.937082 0.674292
vt 0.937082 0.693781
vt 0.927762 0.693781
vt 0.917593 0.674292
vt 0.371373 0.792909
vt 0.371373 0.802666
vt 0.362053 0.803078
vt 0.362053 0.792909
vt 0.371373 0.812397
vt 0.351884 0.812397
vt 0.256123 0.812397
vt 0.246366 0.812397
vt 0.245954 0.803078
vt 0.250990 0.803078
vt 0.236634 0.812397
vt 0.236634 0.802666
vt 0.236634 0.792909
vt 0.256123 0.792909
vt 0.357017 0.803078
vt 0.976060 0.470501
vt 0.995549 0.470501
vt 0.995549 0.479820
vt 0.976060 0.489990
vt 0.323493 0.987797
vt 0.323493 0.978040
vt 0.332812 0.977628
vt 0.332812 0.987797
vt 0.323493 0.968308
vt 0.333224 0.968308
vt 0.342981 0.968308
vt 0.342981 0.977628
vt 0.458231 0.968308
vt 0.458231 0.978040
vt 0.438742 0.977628
vt 0.438742 0.968308
vt 0.458231 0.987797
vt 0.438742 0.987797
vt 0.976060 0.635314
vt 0.976060 0.615825
vt 0.985380 0.615825
vt 0.995549 0.635314
vt 0.458231 0.792909
vt 0.458231 0.802666
vt 0.448911 0.803078
vt 0.448911 0.792909
vt 0.458231 0.812397
vt 0.438742 0.812397
vt 0.342981 0.812397
vt 0.333224 0.812397
vt 0.332812 0.803078
vt 0.337849 0.803078
vt 0.323493 0.812397
vt 0.323493 0.802666
vt 0.323493 0.792909
vt 0.342981 0.792909
vt 0.443875 0.803078
vt 0.976060 0.431523
vt 0.976060 0.412034
vt 0.985380 0.412034
vt 0.995549 0.431523
vt 0.410351 0.987797
vt 0.410351 0.978040
vt 0.419670 0.977628
vt 0.419671 0.987797
vt 0.410351 0.968308
vt 0.420082 0.968308
vt 0.429840 0.968308
vt 0.429840 0.977628
vt 0.284515 0.968308
vt 0.284515 0.978040
vt 0.265026 0.977628
vt 0.265026 0.968308
vt 0.284515 0.987797
vt 0.265026 0.987797
vt 0.976060 0.674292
vt 0.995549 0.674292
vt 0.995549 0.683612
vt 0.976060 0.693781
vt 0.284515 0.792909
vt 0.284515 0.802666
vt 0.275195 0.803078
vt 0.275195 0.792909
vt 0.284515 0.812397
vt 0.265026 0.812397
vt 0.429840 0.812397
vt 0.420082 0.812397
vt 0.419670 0.803078
vt 0.424707 0.803078
vt 0.410351 0.812397
vt 0.410351 0.802666
vt 0.410351 0.792909
vt 0.429840 0.792909
vt 0.270159 0.803078
vt 0.850224 0.925964
vt 0.830735 0.925964
vt 0.830735 0.916644
vt 0.850224 0.906475
vt 0.721193 0.810714
vt 0.721193 0.800957
vt 0.727783 0.800545
vt 0.727783 0.810714
vt 0.721193 0.791225
vt 0.734974 0.791225
vt 0.624728 0.587434
vt 0.631628 0.587434
vt 0.631919 0.596754
vt 0.628358 0.596754
vt 0.638509 0.587434
vt 0.638509 0.597165
vt 0.638509 0.606923
vt 0.624728 0.606923
vt 0.731345 0.800545
vt 0.721193 0.635314
vt 0.721193 0.625583
vt 0.727784 0.625995
vt 0.734974 0.635314
vt 0.721193 0.615825
vt 0.727783 0.615826
vt 0.802343 0.925964
vt 0.802343 0.906475
vt 0.821832 0.916644
vt 0.821832 0.925964
vt 0.638509 0.412034
vt 0.638509 0.421791
vt 0.631919 0.422203
vt 0.624728 0.412034
vt 0.638509 0.431523
vt 0.631628 0.431523
vt 0.624728 0.431523
vt 0.628358 0.422203
vt 0.731345 0.625994
vt 0.889201 0.925964
vt 0.889202 0.906475
vt 0.898521 0.906475
vt 0.908690 0.925964
vt 0.666070 0.606923
vt 0.666070 0.597166
vt 0.672661 0.596754
vt 0.675058 0.606923
vt 0.666071 0.587434
vt 0.672952 0.587434
vt 0.686751 0.587434
vt 0.684337 0.596754
vt 0.693632 0.587434
vt 0.693632 0.597165
vt 0.693632 0.606923
vt 0.763366 0.925964
vt 0.743877 0.925964
vt 0.743877 0.916644
vt 0.763366 0.906475
vt 0.693632 0.412034
vt 0.693632 0.421791
vt 0.687042 0.422203
vt 0.684645 0.412034
vt 0.693632 0.431523
vt 0.686751 0.431523
vt 0.672952 0.431523
vt 0.675366 0.422203
vt 0.666070 0.431523
vt 0.666071 0.421791
vt 0.666071 0.412034
vt 0.850224 0.964942
vt 0.850224 0.984430
vt 0.840904 0.984430
vt 0.830735 0.964942
vt 0.666070 0.810714
vt 0.666071 0.800957
vt 0.672661 0.800545
vt 0.675058 0.810714
vt 0.666070 0.791225
vt 0.672952 0.791225
vt 0.686751 0.791225
vt 0.684337 0.800545
vt 0.693632 0.791225
vt 0.693632 0.800957
vt 0.693632 0.810714
vt 0.802343 0.964942
vt 0.821832 0.964942
vt 0.821832 0.974261
vt 0.802343 0.984430
vt 0.693632 0.615825
vt 0.693632 0.625583
vt 0.687042 0.625995
vt 0.684645 0.615826
vt 0.693632 0.635314
vt 0.686751 0.635314
vt 0.672952 0.635314
vt 0.675366 0.625995
vt 0.666071 0.635314
vt 0.666071 0.625583
vt 0.666071 0.615825
vt 0.889202 0.964942
vt 0.908690 0.964942
vt 0.908690 0.974261
vt 0.889202 0.984430
vt 0.721193 0.606923
vt 0.721193 0.597166
vt 0.727783 0.596754
vt 0.727784 0.606923
vt 0.721193 0.587434
vt 0.728075 0.587434
vt 0.734974 0.587434
vt 0.734974 0.596754
vt 0.638509 0.791225
vt 0.638509 0.800957
vt 0.624728 0.800545
vt 0.624728 0.791225
vt 0.638509 0.810714
vt 0.624729 0.810714
vt 0.763366 0.964942
vt 0.763366 0.984430
vt 0.754046 0.984430
vt 0.743877 0.964942
vt 0.638509 0.615825
vt 0.638509 0.625583
vt 0.631919 0.625995
vt 0.631919 0.615826
vt 0.638509 0.635314
vt 0.624728 0.635314
vt 0.734974 0.431523
vt 0.728075 0.431523
vt 0.727784 0.422203
vt 0.731345 0.422203
vt 0.721193 0.431523
vt 0.721193 0.421791
vt 0.721193 0.412034
vt 0.734974 0.412034
vt 0.628358 0.625995
vt 0.802343 0.878083
vt 0.821832 0.878083
vt 0.821832 0.887403
vt 0.802343 0.897572
vt 0.149776 0.987797
vt 0.149776 0.978040
vt 0.159096 0.977628
vt 0.159096 0.987797
vt 0.149776 0.968308
vt 0.169265 0.968308
vt 0.850224 0.179851
vt 0.859981 0.179851
vt 0.860393 0.189171
vt 0.855357 0.189171
vt 0.869713 0.179851
vt 0.869713 0.189583
vt 0.869713 0.199340
vt 0.850224 0.199340
vt 0.164132 0.977628
vt 0.149776 0.812397
vt 0.149776 0.802666
vt 0.159096 0.803078
vt 0.169265 0.812398
vt 0.149776 0.792909
vt 0.159096 0.792909
vt 0.889202 0.839106
vt 0.889202 0.819617
vt 0.908691 0.829786
vt 0.908690 0.839106
vt 0.869713 0.004451
vt 0.869713 0.014209
vt 0.860393 0.014620
vt 0.850224 0.004451
vt 0.869713 0.023940
vt 0.859981 0.023940
vt 0.850224 0.023940
vt 0.855357 0.014620
vt 0.164132 0.803078
vt 0.763366 0.878083
vt 0.763366 0.897572
vt 0.754046 0.897572
vt 0.743877 0.878083
vt 0.908690 0.199340
vt 0.908690 0.189583
vt 0.918010 0.189171
vt 0.918010 0.199340
vt 0.908690 0.179851
vt 0.918422 0.179851
vt 0.928179 0.179851
vt 0.928179 0.189171
vt 0.869713 0.383642
vt 0.869713 0.393374
vt 0.850224 0.392962
vt 0.850224 0.383642
vt 0.869713 0.403131
vt 0.850224 0.403131
vt 0.850224 0.839106
vt 0.830735 0.839106
vt 0.830735 0.829786
vt 0.850224 0.819617
vt 0.869713 0.208243
vt 0.869713 0.218000
vt 0.860393 0.218412
vt 0.860393 0.208243
vt 0.869713 0.227732
vt 0.850224 0.227732
vt 0.928179 0.023940
vt 0.918422 0.023940
vt 0.918010 0.014620
vt 0.923046 0.014620
vt 0.908690 0.023940
vt 0.908690 0.014209
vt 0.908690 0.004451
vt 0.928179 0.004451
vt 0.855357 0.218412
vt 0.802343 0.839106
vt 0.802343 0.819617
vt 0.811663 0.819617
vt 0.821832 0.839106
vt 0.062918 0.987797
vt 0.062918 0.978040
vt 0.072238 0.977628
vt 0.072238 0.987797
vt 0.062918 0.968308
vt 0.072650 0.968308
vt 0.082407 0.968308
vt 0.082407 0.977628
vt 0.110798 0.968308
vt 0.110798 0.978040
vt 0.091310 0.977628
vt 0.091310 0.968308
vt 0.110798 0.987797
vt 0.091310 0.987797
vt 0.889202 0.878083
vt 0.908690 0.878083
vt 0.908690 0.887403
vt 0.889202 0.897572
vt 0.110798 0.792909
vt 0.110798 0.802666
vt 0.101479 0.803078
vt 0.101479 0.792909
vt 0.110798 0.812397
vt 0.091310 0.812397
vt 0.082407 0.812397
vt 0.072650 0.812397
vt 0.072238 0.803078
vt 0.077274 0.803078
vt 0.062918 0.812397
vt 0.062918 0.802666
vt 0.062918 0.792909
vt 0.082407 0.792909
vt 0.096442 0.803078
vt 0.763366 0.839106
vt 0.743877 0.839106
vt 0.743877 0.829786
vt 0.763366 0.819617
vt 0.908690 0.403131
vt 0.908690 0.393374
vt 0.918010 0.392962
vt 0.918010 0.403131
vt 0.908690 0.383642
vt 0.918422 0.383642
vt 0.928179 0.383642
vt 0.928179 0.392962
vt 0.023940 0.968308
vt 0.023940 0.978040
vt 0.004451 0.977628
vt 0.004451 0.968308
vt 0.023940 0.987797
vt 0.004451 0.987797
vt 0.850224 0.878083
vt 0.850224 0.897572
vt 0.840904 0.897572
vt 0.830735 0.878083
vt 0.023940 0.792909
vt 0.023940 0.802666
vt 0.014620 0.803078
vt 0.014620 0.792909
vt 0.023940 0.812397
vt 0.004451 0.812397
vt 0.928179 0.227732
vt 0.918422 0.227732
vt 0.918010 0.218412
vt 0.923046 0.218412
vt 0.908690 0.227732
vt 0.908690 0.218000
vt 0.908690 0.208243
vt 0.928179 0.208243
vt 0.009584 0.803078
s 1
usemtl BB_OxidizedIron
f 1/1/1 4/2/4 6/3/6 5/4/5
f 4/2/4 8/5/8 9/6/9 6/3/6
f 2/7/2 7/8/7 9/9/9 8/10/8
f 7/8/7 11/11/11 12/12/12 9/9/9
f 3/13/3 10/14/10 12/15/12 11/16/11
f 10/17/10 5/4/5 6/3/6 12/18/12
f 6/3/6 9/6/9 12/18/12
f 13/19/13 16/20/16 18/21/18 17/22/17
f 16/23/16 20/24/20 21/25/21 18/26/18
f 14/27/14 19/28/19 21/25/21 20/24/20
f 19/28/19 23/29/23 24/30/24 21/25/21
f 15/31/15 22/32/22 24/33/24 23/34/23
f 22/35/22 17/22/17 18/21/18 24/36/24
f 18/26/18 21/25/21 24/30/24
f 25/37/25 28/38/28 30/39/30 29/40/29
f 28/38/28 32/41/32 33/42/33 30/39/30
f 26/43/26 31/44/31 33/45/33 32/46/32
f 31/47/31 35/48/35 36/49/36 33/50/33
f 27/51/27 34/52/34 36/49/36 35/48/35
f 34/53/34 29/40/29 30/39/30 36/54/36
f 30/39/30 33/42/33 36/54/36
f 37/55/37 40/56/40 42/57/42 41/58/41
f 40/56/40 44/59/44 45/60/45 42/57/42
f 38/61/38 43/62/43 45/63/45 44/64/44
f 43/62/43 47/65/47 48/66/48 45/63/45
f 39/67/39 46/68/46 48/69/48 47/70/47
f 46/71/46 41/58/41 42/57/42 48/72/48
f 42/57/42 45/60/45 48/72/48
f 49/73/49 52/74/52 54/75/54 53/76/53
f 52/74/52 56/77/56 57/78/57 54/75/54
f 50/79/50 55/80/55 57/81/57 56/82/56
f 55/80/55 59/83/59 60/84/60 57/81/57
f 51/85/51 58/86/58 60/87/60 59/88/59
f 58/89/58 53/76/53 54/75/54 60/90/60
f 54/75/54 57/78/57 60/90/60
f 61/91/61 64/92/64 66/93/66 65/94/65
f 64/92/64 68/95/68 69/96/69 66/93/66
f 62/97/62 67/98/67 69/99/69 68/100/68
f 67/101/67 71/102/71 72/103/72 69/104/69
f 63/105/63 70/106/70 72/103/72 71/102/71
f 70/107/70 65/94/65 66/93/66 72/108/72
f 66/93/66 69/96/69 72/108/72
f 73/109/73 76/110/76 78/111/78 77/112/77
f 76/110/76 80/113/80 81/114/81 78/111/78
f 74/115/74 79/116/79 81/117/81 80/118/80
f 79/119/79 83/120/83 84/121/84 81/122/81
f 75/123/75 82/124/82 84/121/84 83/120/83
f 82/125/82 77/112/77 78/111/78 84/126/84
f 78/111/78 81/114/81 84/126/84
f 85/127/85 88/128/88 90/129/90 89/130/89
f 88/128/88 92/131/92 93/132/93 90/129/90
f 86/133/86 91/134/91 93/135/93 92/136/92
f 91/134/91 95/137/95 96/138/96 93/135/93
f 87/139/87 94/140/94 96/141/96 95/142/95
f 94/143/94 89/130/89 90/129/90 96/144/96
f 90/129/90 93/132/93 96/144/96
f 97/145/1 100/146/4 102/147/6 101/148/5
f 100/149/4 104/150/8 105/151/9 102/152/6
f 98/153/2 103/154/7 105/151/9 104/150/8
f 103/155/7 107/156/11 108/157/12 105/158/9
f 99/159/3 106/160/10 108/157/12 107/156/11
f 106/160/10 101/161/5 102/162/6 108/157/12
f 102/152/6 105/151/9 108/163/12
f 109/164/13 112/165/16 114/166/18 113/167/17
f 112/165/16 116/168/20 117/169/21 114/166/18
f 110/170/14 115/171/19 117/172/21 116/173/20
f 115/174/19 119/175/23 120/176/24 117/177/21
f 111/178/15 118/179/22 120/176/24 119/175/23
f 118/179/22 113/180/17 114/181/18 120/176/24
f 114/166/18 117/169/21 120/182/24
f 121/183/25 124/184/28 126/185/30 125/186/29
f 124/187/28 128/188/32 129/189/33 126/190/30
f 122/191/26 127/192/31 129/189/33 128/188/32
f 127/192/31 131/193/35 132/194/36 129/189/33
f 123/195/27 130/196/34 132/197/36 131/198/35
f 130/196/34 125/199/29 126/200/30 132/197/36
f 126/190/30 129/189/33 132/194/36
f 133/201/37 136/202/40 138/203/42 137/204/41
f 136/205/40 140/206/44 141/207/45 138/208/42
f 134/209/38 139/210/43 141/207/45 140/206/44
f 139/211/43 143/212/47 144/213/48 141/214/45
f 135/215/39 142/216/46 144/213/48 143/212/47
f 142/216/46 137/217/41 138/218/42 144/213/48
f 138/208/42 141/207/45 144/219/48
f 145/220/49 148/221/52 150/222/54 149/223/53
f 148/224/52 152/225/56 153/226/57 150/227/54
f 146/228/50 151/229/55 153/226/57 152/225/56
f 151/229/55 155/230/59 156/231/60 153/226/57
f 147/232/51 154/233/58 156/234/60 155/235/59
f 154/233/58 149/236/53 150/237/54 156/234/60
f 150/227/54 153/226/57 156/231/60
f 157/238/61 160/239/64 162/240/66 161/241/65
f 160/242/64 164/243/68 165/244/69 162/245/66
f 158/246/62 163/247/67 165/244/69 164/243/68
f 163/248/67 167/249/71 168/250/97 165/251/69
f 159/252/63 166/253/70 168/250/97 167/249/71
f 166/253/70 161/254/65 162/255/66 168/250/97
f 162/245/66 165/244/69 168/256/97
f 169/257/73 172/258/76 174/259/78 173/260/77
f 172/261/76 176/262/80 177/263/81 174/264/78
f 170/265/74 175/266/79 177/263/81 176/262/80
f 175/266/79 179/267/83 180/268/84 177/263/81
f 171/269/75 178/270/82 180/271/84 179/272/83
f 178/270/82 173/273/77 174/274/78 180/271/84
f 174/264/78 177/263/81 180/268/84
f 181/275/85 184/276/88 186/277/90 185/278/89
f 184/279/88 188/280/92 189/281/93 186/282/90
f 182/283/86 187/284/91 189/281/93 188/280/92
f 187/285/91 191/286/95 192/287/96 189/288/93
f 183/289/87 190/290/94 192/287/96 191/286/95
f 190/290/94 185/291/89 186/292/90 192/287/96
f 186/282/90 189/281/93 192/293/96
f 193/294/98 196/295/101 198/296/103 197/297/102
f 196/298/101 200/299/105 201/300/106 198/301/103
f 194/302/99 199/303/104 201/300/106 200/299/105
f 199/303/104 203/304/108 204/305/109 201/300/106
f 195/306/100 202/307/107 204/305/109 203/304/108
f 202/307/107 197/308/102 198/301/103 204/305/109
f 198/301/103 201/300/106 204/305/109
f 205/309/110 208/310/113 210/311/115 209/312/114
f 208/310/113 212/313/117 213/314/118 210/311/115
f 206/315/111 211/316/116 213/317/118 212/318/117
f 211/319/116 215/320/120 216/321/121 213/314/118
f 207/322/112 214/323/119 216/321/121 215/320/120
f 214/323/119 209/312/114 210/311/115 216/321/121
f 210/311/115 213/314/118 216/321/121
f 217/324/122 220/325/125 222/326/127 221/327/126
f 220/328/125 224/329/129 225/330/130 222/331/127
f 218/332/123 223/333/128 225/330/130 224/329/129
f 223/333/128 227/334/132 228/335/133 225/330/130
f 219/336/124 226/337/131 228/338/133 227/339/132
f 226/337/131 221/340/126 222/341/127 228/338/133
f 222/331/127 225/330/130 228/335/133
f 229/342/134 232/343/137 234/344/139 233/345/138
f 232/346/137 236/347/141 237/348/142 234/349/139
f 230/350/135 235/351/140 237/348/142 236/347/141
f 235/352/140 239/353/144 240/354/145 237/355/142
f 231/356/136 238/357/143 240/354/145 239/353/144
f 238/357/143 233/358/138 234/359/139 240/354/145
f 234/349/139 237/348/142 240/360/145
f 241/361/146 244/362/149 246/363/151 245/364/150
f 244/365/149 248/366/153 249/367/154 246/368/151
f 242/369/147 247/370/152 249/367/154 248/366/153
f 247/371/152 251/372/156 252/373/157 249/374/154
f 243/375/148 250/376/155 252/373/157 251/372/156
f 250/376/155 245/377/150 246/378/151 252/373/157
f 246/368/151 249/367/154 252/379/157
f 253/380/158 256/381/161 258/382/163 257/383/162
f 256/384/161 260/385/165 261/386/166 258/387/163
f 254/388/159 259/389/164 261/386/166 260/385/165
f 259/389/164 263/390/168 264/391/169 261/386/166
f 255/392/160 262/393/167 264/394/169 263/395/168
f 262/393/167 257/396/162 258/397/163 264/394/169
f 258/387/163 261/386/166 264/391/169
f 265/398/170 268/399/173 270/400/175 269/401/174
f 268/402/173 272/403/177 273/404/178 270/405/175
f 266/406/171 271/407/176 273/404/178 272/403/177
f 271/407/176 275/408/180 276/409/181 273/404/178
f 267/410/172 274/411/179 276/409/181 275/408/180
f 274/411/179 269/412/174 270/405/175 276/409/181
f 270/405/175 273/404/178 276/409/181
f 277/413/182 280/414/185 282/415/187 281/416/186
f 280/417/185 284/418/189 285/419/190 282/420/187
f 278/421/183 283/422/188 285/419/190 284/418/189
f 283/422/188 287/423/192 288/424/193 285/419/190
f 279/425/184 286/426/191 288/424/193 287/423/192
f 286/426/191 281/427/186 282/420/187 288/424/193
f 282/420/187 285/419/190 288/424/193
f 289/428/49 292/429/52 294/430/54 293/431/53
f 292/432/52 296/433/56 297/434/57 294/435/54
f 290/436/50 295/437/55 297/434/57 296/433/56
f 295/438/55 299/439/59 300/440/60 297/441/57
f 291/442/51 298/443/58 300/440/60 299/439/59
f 298/443/58 293/444/53 294/445/54 300/440/60
f 294/435/54 297/434/57 300/446/60
f 301/447/63 304/448/70 306/449/194 305/450/71
f 304/448/70 308/451/65 309/452/66 306/449/194
f 302/453/61 307/454/64 309/455/66 308/456/65
f 307/457/64 311/458/68 312/459/69 309/460/66
f 303/461/62 310/462/67 312/459/69 311/458/68
f 310/462/67 305/463/71 306/464/194 312/459/69
f 306/449/194 309/452/66 312/465/69
f 313/466/1 316/467/4 318/468/6 317/469/5
f 316/470/4 320/471/8 321/472/9 318/473/6
f 314/474/2 319/475/7 321/472/9 320/471/8
f 319/475/7 323/476/11 324/477/195 321/472/9
f 315/478/3 322/479/10 324/480/195 323/481/11
f 322/479/10 317/482/5 318/483/6 324/480/195
f 318/473/6 321/472/9 324/477/195
f 325/484/14 328/485/19 330/486/21 329/487/20
f 328/488/19 332/489/23 333/490/24 330/491/21
f 326/492/15 331/493/22 333/490/24 332/489/23
f 331/494/22 335/495/17 336/496/18 333/497/24
f 327/498/13 334/499/16 336/496/18 335/495/17
f 334/499/16 329/500/20 330/501/21 336/496/18
f 330/491/21 333/490/24 336/502/18
f 337/503/73 340/504/76 342/505/78 341/506/77
f 340/507/76 344/508/80 345/509/196 342/510/78
f 338/511/74 343/512/79 345/509/196 344/508/80
f 343/512/79 347/513/83 348/514/84 345/509/196
f 339/515/75 346/516/82 348/517/84 347/518/83
f 346/516/82 341/519/77 342/520/78 348/517/84
f 342/510/78 345/509/196 348/514/84
f 349/521/85 352/522/88 354/523/90 353/524/89
f 352/525/88 356/526/92 357/527/93 354/528/90
f 350/529/86 355/530/91 357/527/93 356/526/92
f 355/531/91 359/532/95 360/533/96 357/534/93
f 351/535/87 358/536/94 360/533/96 359/532/95
f 358/536/94 353/537/89 354/538/90 360/533/96
f 354/528/90 357/527/93 360/539/96
f 361/540/25 364/541/28 366/542/30 365/543/29
f 364/544/28 368/545/32 369/546/33 366/547/30
f 362/548/26 367/549/31 369/546/33 368/545/32
f 367/549/31 371/550/35 372/551/36 369/546/33
f 363/552/27 370/553/34 372/554/36 371/555/35
f 370/553/34 365/556/29 366/557/30 372/554/36
f 366/547/30 369/546/33 372/551/36
f 373/558/37 376/559/40 378/560/42 377/561/41
f 376/562/40 380/563/44 381/564/197 378/565/42
f 374/566/38 379/567/43 381/564/197 380/563/44
f 379/568/43 383/569/47 384/570/48 381/571/197
f 375/572/39 382/573/46 384/570/48 383/569/47
f 382/573/46 377/574/41 378/575/42 384/570/48
f 378/565/42 381/564/197 384/576/48
f 385/577/146 388/578/149 390/579/151 389/580/150
f 388/581/149 392/582/153 393/583/154 390/584/151
f 386/585/147 391/586/152 393/583/154 392/582/153
f 391/587/152 395/588/156 396/589/157 393/590/154
f 387/591/148 394/592/155 396/589/157 395/588/156
f 394/592/155 389/593/150 390/594/151 396/589/157
f 390/584/151 393/583/154 396/595/157
f 397/596/160 400/597/167 402/598/169 401/599/168
f 400/597/167 404/600/162 405/601/163 402/598/169
f 398/602/158 403/603/161 405/604/163 404/605/162
f 403/606/161 407/607/165 408/608/166 405/609/163
f 399/610/159 406/611/164 408/608/166 407/607/165
f 406/611/164 401/612/168 402/613/169 408/608/166
f 402/598/169 405/601/163 408/614/166
f 409/615/98 412/616/101 414/617/103 413/618/102
f 412/619/101 416/620/105 417/621/106 414/622/103
f 410/623/99 415/624/104 417/621/106 416/620/105
f 415/624/104 419/625/108 420/626/109 417/621/106
f 411/627/100 418/628/107 420/626/109 419/625/108
f 418/628/107 413/629/102 414/622/103 420/626/109
f 414/622/103 417/621/106 420/626/109
f 421/630/111 424/631/116 426/632/118 425/633/117
f 424/634/116 428/635/120 429/636/121 426/637/118
f 422/638/112 427/639/119 429/636/121 428/635/120
f 427/639/119 431/640/114 432/641/115 429/636/121
f 423/642/110 430/643/113 432/641/115 431/640/114
f 430/643/113 425/644/117 426/637/118 432/641/115
f 426/637/118 429/636/121 432/641/115
f 433/645/170 436/646/173 438/647/175 437/648/174
f 436/649/173 440/650/177 441/651/178 438/652/175
f 434/653/171 439/654/176 441/651/178 440/650/177
f 439/654/176 443/655/180 444/656/181 441/651/178
f 435/657/172 442/658/179 444/656/181 443/655/180
f 442/658/179 437/659/174 438/652/175 444/656/181
f 438/652/175 441/651/178 444/656/181
f 445/660/182 448/661/185 450/662/187 449/663/186
f 448/664/185 452/665/189 453/666/190 450/667/187
f 446/668/183 451/669/188 453/666/190 452/665/189
f 451/669/188 455/670/192 456/671/193 453/666/190
f 447/672/184 454/673/191 456/671/193 455/670/192
f 454/673/191 449/674/186 450/667/187 456/671/193
f 450/667/187 453/666/190 456/671/193
f 457/675/122 460/676/125 462/677/127 461/678/126
f 460/679/125 464/680/129 465/681/130 462/682/127
f 458/683/123 463/684/128 465/681/130 464/680/129
f 463/684/128 467/685/132 468/686/133 465/681/130
f 459/687/124 466/688/131 468/689/133 467/690/132
f 466/688/131 461/691/126 462/692/127 468/689/133
f 462/682/127 465/681/130 468/686/133
f 469/693/134 472/694/137 474/695/139 473/696/138
f 472/697/137 476/698/141 477/699/142 474/700/139
f 470/701/135 475/702/140 477/699/142 476/698/141
f 475/703/140 479/704/144 480/705/145 477/706/142
f 471/707/136 478/708/143 480/705/145 479/704/144
f 478/708/143 473/709/138 474/710/139 480/705/145
f 474/700/139 477/699/142 480/711/145
f 481/712/73 484/713/76 486/714/78 485/715/77
f 484/716/76 488/717/80 489/718/81 486/719/78
f 482/720/74 487/721/79 489/718/81 488/717/80
f 487/722/79 491/723/83 492/724/84 489/725/81
f 483/726/75 490/727/82 492/724/84 491/723/83
f 490/727/82 485/728/77 486/729/78 492/724/84
f 486/719/78 489/718/81 492/730/84
f 493/731/87 496/732/94 498/733/96 497/734/95
f 496/732/94 500/735/89 501/736/90 498/733/96
f 494/737/85 499/738/88 501/739/90 500/740/89
f 499/741/88 503/742/92 504/743/93 501/744/90
f 495/745/86 502/746/91 504/743/93 503/742/92
f 502/746/91 497/747/95 498/748/96 504/743/93
f 498/733/96 501/736/90 504/749/93
f 505/750/49 508/751/52 510/752/54 509/753/53
f 508/754/52 512/755/56 513/756/57 510/757/54
f 506/758/50 511/759/55 513/756/57 512/755/56
f 511/759/55 515/760/59 516/761/60 513/756/57
f 507/762/51 514/763/58 516/764/60 515/765/59
f 514/763/58 509/766/53 510/767/54 516/764/60
f 510/757/54 513/756/57 516/761/60
f 517/768/61 520/769/64 522/770/66 521/771/65
f 520/772/64 524/773/68 525/774/69 522/775/66
f 518/776/62 523/777/67 525/774/69 524/773/68
f 523/778/67 527/779/71 528/780/72 525/781/69
f 519/782/63 526/783/70 528/780/72 527/779/71
f 526/783/70 521/784/65 522/785/66 528/780/72
f 522/775/66 525/774/69 528/786/72
f 529/787/25 532/788/28 534/789/30 533/790/29
f 532/791/28 536/792/32 537/793/33 534/794/30
f 530/795/26 535/796/31 537/793/33 536/792/32
f 535/796/31 539/797/35 540/798/36 537/793/33
f 531/799/27 538/800/34 540/801/36 539/802/35
f 538/800/34 533/803/29 534/804/30 540/801/36
f 534/794/30 537/793/33 540/798/36
f 541/805/37 544/806/40 546/807/42 545/808/41
f 544/809/40 548/810/44 549/811/45 546/812/42
f 542/813/38 547/814/43 549/811/45 548/810/44
f 547/815/43 551/816/47 552/817/48 549/818/45
f 543/819/39 550/820/46 552/817/48 551/816/47
f 550/820/46 545/821/41 546/822/42 552/817/48
f 546/812/42 549/811/45 552/823/48
f 553/824/1 556/825/4 558/826/6 557/827/5
f 556/828/4 560/829/8 561/830/9 558/831/6
f 554/832/2 559/833/7 561/830/9 560/829/8
f 559/833/7 563/834/11 564/835/198 561/830/9
f 555/836/3 562/837/10 564/838/198 563/839/11
f 562/837/10 557/840/5 558/841/6 564/838/198
f 558/831/6 561/830/9 564/835/198
f 565/842/14 568/843/19 570/844/21 569/845/20
f 568/846/19 572/847/23 573/848/24 570/849/21
f 566/850/15 571/851/22 573/848/24 572/847/23
f 571/852/22 575/853/17 576/854/18 573/855/24
f 567/856/13 574/857/16 576/854/18 575/853/17
f 574/857/16 569/858/20 570/859/21 576/854/18
f 570/849/21 573/848/24 576/860/18
f 25/37/25 1/1/1 5/4/5 28/38/28
f 28/38/28 5/4/5 10/17/10 32/41/32
f 32/46/32 10/14/10 3/13/3 26/43/26
f 2/7/2 13/19/13 17/22/17 7/8/7
f 7/8/7 17/22/17 22/35/22 11/11/11
f 11/16/11 22/32/22 15/31/15 3/13/3
f 14/27/14 37/55/37 41/58/41 19/28/19
f 19/28/19 41/58/41 46/71/46 23/29/23
f 23/34/23 46/68/46 39/67/39 15/31/15
f 38/61/38 27/51/27 35/48/35 43/62/43
f 43/62/43 35/48/35 31/47/31 47/65/47
f 47/70/47 31/44/31 26/43/26 39/67/39
f 73/109/73 25/37/25 29/40/29 76/110/76
f 76/110/76 29/40/29 34/53/34 80/113/80
f 80/118/80 34/52/34 27/51/27 74/115/74
f 37/55/37 85/127/85 89/130/89 40/56/40
f 40/56/40 89/130/89 94/143/94 44/59/44
f 44/64/44 94/140/94 87/139/87 38/61/38
f 86/133/86 75/123/75 83/120/83 91/134/91
f 91/134/91 83/120/83 79/119/79 95/137/95
f 95/142/95 79/116/79 74/115/74 87/139/87
f 49/73/49 73/109/73 77/112/77 52/74/52
f 52/74/52 77/112/77 82/125/82 56/77/56
f 56/82/56 82/124/82 75/123/75 50/79/50
f 85/127/85 61/91/61 65/94/65 88/128/88
f 88/128/88 65/94/65 70/107/70 92/131/92
f 92/136/92 70/106/70 63/105/63 86/133/86
f 62/97/62 51/85/51 59/88/59 67/98/67
f 67/101/67 59/83/59 55/80/55 71/102/71
f 71/102/71 55/80/55 50/79/50 63/105/63
f 1/1/1 49/73/49 53/76/53 4/2/4
f 4/2/4 53/76/53 58/89/58 8/5/8
f 8/10/8 58/86/58 51/85/51 2/7/2
f 61/91/61 14/27/14 20/24/20 64/92/64
f 64/92/64 20/24/20 16/23/16 68/95/68
f 68/100/68 16/20/16 13/19/13 62/97/62
f 121/183/25 97/145/1 101/148/5 124/184/28
f 124/187/28 101/161/5 106/160/10 128/188/32
f 128/188/32 106/160/10 99/159/3 122/191/26
f 98/153/2 109/164/13 113/167/17 103/154/7
f 103/155/7 113/180/17 118/179/22 107/156/11
f 107/156/11 118/179/22 111/178/15 99/159/3
f 110/170/14 133/201/37 137/204/41 115/171/19
f 115/174/19 137/217/41 142/216/46 119/175/23
f 119/175/23 142/216/46 135/215/39 111/178/15
f 134/209/38 123/195/27 131/198/35 139/210/43
f 139/211/43 131/193/35 127/192/31 143/212/47
f 143/212/47 127/192/31 122/191/26 135/215/39
f 169/257/73 121/183/25 125/186/29 172/258/76
f 172/261/76 125/199/29 130/196/34 176/262/80
f 176/262/80 130/196/34 123/195/27 170/265/74
f 133/201/37 181/275/85 185/278/89 136/202/40
f 136/205/40 185/291/89 190/290/94 140/206/44
f 140/206/44 190/290/94 183/289/87 134/209/38
f 182/283/86 171/269/75 179/272/83 187/284/91
f 187/285/91 179/267/83 175/266/79 191/286/95
f 191/286/95 175/266/79 170/265/74 183/289/87
f 145/220/49 169/257/73 173/260/77 148/221/52
f 148/224/52 173/273/77 178/270/82 152/225/56
f 152/225/56 178/270/82 171/269/75 146/228/50
f 181/275/85 157/238/61 161/241/65 184/276/88
f 184/279/88 161/254/65 166/253/70 188/280/92
f 188/280/92 166/253/70 159/252/63 182/283/86
f 158/246/62 147/232/51 155/235/59 163/247/67
f 163/248/67 155/230/59 151/229/55 167/249/71
f 167/249/71 151/229/55 146/228/50 159/252/63
f 97/145/1 145/220/49 149/223/53 100/146/4
f 100/149/4 149/236/53 154/233/58 104/150/8
f 104/150/8 154/233/58 147/232/51 98/153/2
f 157/238/61 110/170/14 116/173/20 160/239/64
f 160/242/64 116/168/20 112/165/16 164/243/68
f 164/243/68 112/165/16 109/164/13 158/246/62
f 217/324/122 193/294/98 197/297/102 220/325/125
f 220/328/125 197/308/102 202/307/107 224/329/129
f 224/329/129 202/307/107 195/306/100 218/332/123
f 194/302/99 205/309/110 209/312/114 199/303/104
f 199/303/104 209/312/114 214/323/119 203/304/108
f 203/304/108 214/323/119 207/322/112 195/306/100
f 206/315/111 229/342/134 233/345/138 211/316/116
f 211/319/116 233/358/138 238/357/143 215/320/120
f 215/320/120 238/357/143 231/356/136 207/322/112
f 230/350/135 219/336/124 227/339/132 235/351/140
f 235/352/140 227/334/132 223/333/128 239/353/144
f 239/353/144 223/333/128 218/332/123 231/356/136
f 265/398/170 217/324/122 221/327/126 268/399/173
f 268/402/173 221/340/126 226/337/131 272/403/177
f 272/403/177 226/337/131 219/336/124 266/406/171
f 229/342/134 277/413/182 281/416/186 232/343/137
f 232/346/137 281/427/186 286/426/191 236/347/141
f 236/347/141 286/426/191 279/425/184 230/350/135
f 278/421/183 267/410/172 275/408/180 283/422/188
f 283/422/188 275/408/180 271/407/176 287/423/192
f 287/423/192 271/407/176 266/406/171 279/425/184
f 241/361/146 265/398/170 269/401/174 244/362/149
f 244/365/149 269/412/174 274/411/179 248/366/153
f 248/366/153 274/411/179 267/410/172 242/369/147
f 277/413/182 253/380/158 257/383/162 280/414/185
f 280/417/185 257/396/162 262/393/167 284/418/189
f 284/418/189 262/393/167 255/392/160 278/421/183
f 254/388/159 243/375/148 251/372/156 259/389/164
f 259/389/164 251/372/156 247/371/152 263/390/168
f 263/395/168 247/370/152 242/369/147 255/392/160
f 193/294/98 241/361/146 245/364/150 196/295/101
f 196/298/101 245/377/150 250/376/155 200/299/105
f 200/299/105 250/376/155 243/375/148 194/302/99
f 253/380/158 206/315/111 212/318/117 256/381/161
f 256/384/161 212/313/117 208/310/113 260/385/165
f 260/385/165 208/310/113 205/309/110 254/388/159
f 313/466/1 289/428/49 293/431/53 316/467/4
f 316/470/4 293/444/53 298/443/58 320/471/8
f 320/471/8 298/443/58 291/442/51 314/474/2
f 290/436/50 301/447/63 305/450/71 295/437/55
f 295/438/55 305/463/71 310/462/67 299/439/59
f 299/439/59 310/462/67 303/461/62 291/442/51
f 302/453/61 325/484/14 329/487/20 307/454/64
f 307/457/64 329/500/20 334/499/16 311/458/68
f 311/458/68 334/499/16 327/498/13 303/461/62
f 326/492/15 315/478/3 323/481/11 331/493/22
f 331/494/22 323/476/11 319/475/7 335/495/17
f 335/495/17 319/475/7 314/474/2 327/498/13
f 361/540/25 313/466/1 317/469/5 364/541/28
f 364/544/28 317/482/5 322/479/10 368/545/32
f 368/545/32 322/479/10 315/478/3 362/548/26
f 325/484/14 373/558/37 377/561/41 328/485/19
f 328/488/19 377/574/41 382/573/46 332/489/23
f 332/489/23 382/573/46 375/572/39 326/492/15
f 374/566/38 363/552/27 371/555/35 379/567/43
f 379/568/43 371/550/35 367/549/31 383/569/47
f 383/569/47 367/549/31 362/548/26 375/572/39
f 337/503/73 361/540/25 365/543/29 340/504/76
f 340/507/76 365/556/29 370/553/34 344/508/80
f 344/508/80 370/553/34 363/552/27 338/511/74
f 373/558/37 349/521/85 353/524/89 376/559/40
f 376/562/40 353/537/89 358/536/94 380/563/44
f 380/563/44 358/536/94 351/535/87 374/566/38
f 350/529/86 339/515/75 347/518/83 355/530/91
f 355/531/91 347/513/83 343/512/79 359/532/95
f 359/532/95 343/512/79 338/511/74 351/535/87
f 289/428/49 337/503/73 341/506/77 292/429/52
f 292/432/52 341/519/77 346/516/82 296/433/56
f 296/433/56 346/516/82 339/515/75 290/436/50
f 349/521/85 302/453/61 308/456/65 352/522/88
f 352/525/88 308/451/65 304/448/70 356/526/92
f 356/526/92 304/448/70 301/447/63 350/529/86
f 409/615/98 385/577/146 389/580/150 412/616/101
f 412/619/101 389/593/150 394/592/155 416/620/105
f 416/620/105 394/592/155 387/591/148 410/623/99
f 386/585/147 397/596/160 401/599/168 391/586/152
f 391/587/152 401/612/168 406/611/164 395/588/156
f 395/588/156 406/611/164 399/610/159 387/591/148
f 398/602/158 421/630/111 425/633/117 403/603/161
f 403/606/161 425/644/117 430/643/113 407/607/165
f 407/607/165 430/643/113 423/642/110 399/610/159
f 422/638/112 411/627/100 419/625/108 427/639/119
f 427/639/119 419/625/108 415/624/104 431/640/114
f 431/640/114 415/624/104 410/623/99 423/642/110
f 457/675/122 409/615/98 413/618/102 460/676/125
f 460/679/125 413/629/102 418/628/107 464/680/129
f 464/680/129 418/628/107 411/627/100 458/683/123
f 421/630/111 469/693/134 473/696/138 424/631/116
f 424/634/116 473/709/138 478/708/143 428/635/120
f 428/635/120 478/708/143 471/707/136 422/638/112
f 470/701/135 459/687/124 467/690/132 475/702/140
f 475/703/140 467/685/132 463/684/128 479/704/144
f 479/704/144 463/684/128 458/683/123 471/707/136
f 433/645/170 457/675/122 461/678/126 436/646/173
f 436/649/173 461/691/126 466/688/131 440/650/177
f 440/650/177 466/688/131 459/687/124 434/653/171
f 469/693/134 445/660/182 449/663/186 472/694/137
f 472/697/137 449/674/186 454/673/191 476/698/141
f 476/698/141 454/673/191 447/672/184 470/701/135
f 446/668/183 435/657/172 443/655/180 451/669/188
f 451/669/188 443/655/180 439/654/176 455/670/192
f 455/670/192 439/654/176 434/653/171 447/672/184
f 385/577/146 433/645/170 437/648/174 388/578/149
f 388/581/149 437/659/174 442/658/179 392/582/153
f 392/582/153 442/658/179 435/657/172 386/585/147
f 445/660/182 398/602/158 404/605/162 448/661/185
f 448/664/185 404/600/162 400/597/167 452/665/189
f 452/665/189 400/597/167 397/596/160 446/668/183
f 505/750/49 481/712/73 485/715/77 508/751/52
f 508/754/52 485/728/77 490/727/82 512/755/56
f 512/755/56 490/727/82 483/726/75 506/758/50
f 482/720/74 493/731/87 497/734/95 487/721/79
f 487/722/79 497/747/95 502/746/91 491/723/83
f 491/723/83 502/746/91 495/745/86 483/726/75
f 494/737/85 517/768/61 521/771/65 499/738/88
f 499/741/88 521/784/65 526/783/70 503/742/92
f 503/742/92 526/783/70 519/782/63 495/745/86
f 518/776/62 507/762/51 515/765/59 523/777/67
f 523/778/67 515/760/59 511/759/55 527/779/71
f 527/779/71 511/759/55 506/758/50 519/782/63
f 553/824/1 505/750/49 509/753/53 556/825/4
f 556/828/4 509/766/53 514/763/58 560/829/8
f 560/829/8 514/763/58 507/762/51 554/832/2
f 517/768/61 565/842/14 569/845/20 520/769/64
f 520/772/64 569/858/20 574/857/16 524/773/68
f 524/773/68 574/857/16 567/856/13 518/776/62
f 566/850/15 555/836/3 563/839/11 571/851/22
f 571/852/22 563/834/11 559/833/7 575/853/17
f 575/853/17 559/833/7 554/832/2 567/856/13
f 529/787/25 553/824/1 557/827/5 532/788/28
f 532/791/28 557/840/5 562/837/10 536/792/32
f 536/792/32 562/837/10 555/836/3 530/795/26
f 565/842/14 541/805/37 545/808/41 568/843/19
f 568/846/19 545/821/41 550/820/46 572/847/23
f 572/847/23 550/820/46 543/819/39 566/850/15
f 542/813/38 531/799/27 539/802/35 547/814/43
f 547/815/43 539/797/35 535/796/31 551/816/47
f 551/816/47 535/796/31 530/795/26 543/819/39
f 481/712/73 529/787/25 533/790/29 484/713/76
f 484/716/76 533/803/29 538/800/34 488/717/80
f 488/717/80 538/800/34 531/799/27 482/720/74
f 541/805/37 494/737/85 500/740/89 544/806/40
f 544/809/40 500/735/89 496/732/94 548/810/44
f 548/810/44 496/732/94 493/731/87 542/813/38
f 25/37/25 73/109/73 49/73/49 1/1/1
f 3/13/3 15/31/15 39/67/39 26/43/26
f 51/85/51 62/97/62 13/19/13 2/7/2
f 85/127/85 37/55/37 14/27/14 61/91/61
f 27/51/27 38/61/38 87/139/87 74/115/74
f 75/123/75 86/133/86 63/105/63 50/79/50
f 121/183/25 169/257/73 145/220/49 97/145/1
f 99/159/3 111/178/15 135/215/39 122/191/26
f 147/232/51 158/246/62 109/164/13 98/153/2
f 181/275/85 133/201/37 110/170/14 157/238/61
f 123/195/27 134/209/38 183/289/87 170/265/74
f 171/269/75 182/283/86 159/252/63 146/228/50
f 217/324/122 265/398/170 241/361/146 193/294/98
f 195/306/100 207/322/112 231/356/136 218/332/123
f 243/375/148 254/388/159 205/309/110 194/302/99
f 277/413/182 229/342/134 206/315/111 253/380/158
f 219/336/124 230/350/135 279/425/184 266/406/171
f 267/410/172 278/421/183 255/392/160 242/369/147
f 313/466/1 361/540/25 337/503/73 289/428/49
f 291/442/51 303/461/62 327/498/13 314/474/2
f 339/515/75 350/529/86 301/447/63 290/436/50
f 373/558/37 325/484/14 302/453/61 349/521/85
f 315/478/3 326/492/15 375/572/39 362/548/26
f 363/552/27 374/566/38 351/535/87 338/511/74
f 409/615/98 457/675/122 433/645/170 385/577/146
f 387/591/148 399/610/159 423/642/110 410/623/99
f 435/657/172 446/668/183 397/596/160 386/585/147
f 469/693/134 421/630/111 398/602/158 445/660/182
f 411/627/100 422/638/112 471/707/136 458/683/123
f 459/687/124 470/701/135 447/672/184 434/653/171
f 505/750/49 553/824/1 529/787/25 481/712/73
f 483/726/75 495/745/86 519/782/63 506/758/50
f 531/799/27 542/813/38 493/731/87 482/720/74
f 565/842/14 517/768/61 494/737/85 541/805/37
f 507/762/51 518/776/62 567/856/13 554/832/2
f 555/836/3 566/850/15 543/819/39 530/795/26
