# Blender 5.0.1
# www.blender.org
mtllib BB_PROP_Pipe_Straight.mtl
o BB_PROP_Pipe_Straight
v 0.000000 2.089804 -1.000000
v 0.000000 2.100000 -0.990000
v 0.000000 2.094902 -0.998660
v 0.000000 2.098634 -0.995000
v 0.000000 2.089804 1.000000
v 0.000000 2.100000 0.990000
v 0.000000 2.094902 0.998660
v 0.000000 2.098634 0.995000
v 0.034367 2.082968 -1.000000
v 0.038268 2.092388 -0.990000
v 0.036317 2.087678 -0.998660
v 0.037746 2.091126 -0.995000
v 0.034367 2.082968 1.000000
v 0.038268 2.092388 0.990000
v 0.036317 2.087678 0.998660
v 0.037746 2.091126 0.995000
v 0.063501 2.063501 -1.000000
v 0.070711 2.070711 -0.990000
v 0.067106 2.067106 -0.998660
v 0.069745 2.069745 -0.995000
v 0.063501 2.063501 1.000000
v 0.070711 2.070711 0.990000
v 0.067106 2.067106 0.998660
v 0.069745 2.069745 0.995000
v 0.082968 2.034367 -1.000000
v 0.092388 2.038268 -0.990000
v 0.087678 2.036317 -0.998660
v 0.091126 2.037746 -0.995000
v 0.082968 2.034367 1.000000
v 0.092388 2.038268 0.990000
v 0.087678 2.036317 0.998660
v 0.091126 2.037746 0.995000
v 0.089804 2.000000 -1.000000
v 0.100000 2.000000 -0.990000
v 0.094902 2.000000 -0.998660
v 0.098634 2.000000 -0.995000
v 0.089804 2.000000 1.000000
v 0.100000 2.000000 0.990000
v 0.094902 2.000000 0.998660
v 0.098634 2.000000 0.995000
v 0.082968 1.965634 -1.000000
v 0.092388 1.961732 -0.990000
v 0.087678 1.963683 -0.998660
v 0.091126 1.962254 -0.995000
v 0.082968 1.965634 1.000000
v 0.092388 1.961732 0.990000
v 0.087678 1.963683 0.998660
v 0.091126 1.962254 0.995000
v 0.063501 1.936499 -1.000000
v 0.070711 1.929289 -0.990000
v 0.067106 1.932894 -0.998660
v 0.069745 1.930255 -0.995000
v 0.063501 1.936499 1.000000
v 0.070711 1.929289 0.990000
v 0.067106 1.932894 0.998660
v 0.069745 1.930255 0.995000
v 0.034367 1.917032 -1.000000
v 0.038268 1.907612 -0.990000
v 0.036317 1.912322 -0.998660
v 0.037746 1.908874 -0.995000
v 0.034367 1.917032 1.000000
v 0.038268 1.907612 0.990000
v 0.036317 1.912322 0.998660
v 0.037746 1.908874 0.995000
v 0.000000 1.910196 -1.000000
v 0.000000 1.900000 -0.990000
v 0.000000 1.905098 -0.998660
v 0.000000 1.901366 -0.995000
v 0.000000 1.910196 1.000000
v 0.000000 1.900000 0.990000
v 0.000000 1.905098 0.998660
v 0.000000 1.901366 0.995000
v -0.034367 1.917032 -1.000000
v -0.038268 1.907612 -0.990000
v -0.036317 1.912322 -0.998660
v -0.037746 1.908874 -0.995000
v -0.034367 1.917032 1.000000
v -0.038268 1.907612 0.990000
v -0.036317 1.912322 0.998660
v -0.037746 1.908874 0.995000
v -0.063501 1.936499 -1.000000
v -0.070711 1.929289 -0.990000
v -0.067106 1.932894 -0.998660
v -0.069745 1.930255 -0.995000
v -0.063501 1.936499 1.000000
v -0.070711 1.929289 0.990000
v -0.067106 1.932894 0.998660
v -0.069745 1.930255 0.995000
v -0.082968 1.965634 -1.000000
v -0.092388 1.961732 -0.990000
v -0.087678 1.963683 -0.998660
v -0.091126 1.962254 -0.995000
v -0.082968 1.965634 1.000000
v -0.092388 1.961732 0.990000
v -0.087678 1.963683 0.998660
v -0.091126 1.962254 0.995000
v -0.089804 2.000000 -1.000000
v -0.100000 2.000000 -0.990000
v -0.094902 2.000000 -0.998660
v -0.098634 2.000000 -0.995000
v -0.089804 2.000000 1.000000
v -0.100000 2.000000 0.990000
v -0.094902 2.000000 0.998660
v -0.098634 2.000000 0.995000
v -0.082968 2.034367 -1.000000
v -0.092388 2.038268 -0.990000
v -0.087678 2.036317 -0.998660
v -0.091126 2.037746 -0.995000
v -0.082968 2.034367 1.000000
v -0.092388 2.038268 0.990000
v -0.087678 2.036317 0.998660
v -0.091126 2.037746 0.995000
v -0.063501 2.063501 -1.000000
v -0.070711 2.070711 -0.990000
v -0.067106 2.067106 -0.998660
v -0.069745 2.069745 -0.995000
v -0.063501 2.063501 1.000000
v -0.070711 2.070711 0.990000
v -0.067106 2.067106 0.998660
v -0.069745 2.069745 0.995000
v -0.034367 2.082968 -1.000000
v -0.038268 2.092388 -0.990000
v -0.036317 2.087678 -0.998660
v -0.037746 2.091126 -0.995000
v -0.034367 2.082968 1.000000
v -0.038268 2.092388 0.990000
v -0.036317 2.087678 0.998660
v -0.037746 2.091126 0.995000
v 0.000000 2.139804 0.950000
v 0.000000 2.150000 0.960000
v 0.000000 2.144902 0.951340
v 0.000000 2.148634 0.955000
v 0.000000 2.139804 1.050000
v 0.000000 2.150000 1.040000
v 0.000000 2.144902 1.048660
v 0.000000 2.148634 1.045000
v 0.053501 2.129162 0.950000
v 0.057403 2.138582 0.960000
v 0.055452 2.133872 0.951340
v 0.056880 2.137320 0.955000
v 0.053501 2.129162 1.050000
v 0.057403 2.138582 1.040000
v 0.055452 2.133872 1.048660
v 0.056880 2.137320 1.045000
v 0.098856 2.098856 0.950000
v 0.106066 2.106066 0.960000
v 0.102461 2.102461 0.951340
v 0.105100 2.105100 0.955000
v 0.098856 2.098856 1.050000
v 0.106066 2.106066 1.040000
v 0.102461 2.102461 1.048660
v 0.105100 2.105100 1.045000
v 0.138582 2.057403 0.960000
v 0.129162 2.053501 0.950000
v 0.137320 2.056880 0.955000
v 0.133872 2.055452 0.951340
v 0.129162 2.053501 1.050000
v 0.138582 2.057403 1.040000
v 0.133872 2.055452 1.048660
v 0.137320 2.056880 1.045000
v 0.139804 2.000000 0.950000
v 0.150000 2.000000 0.960000
v 0.144902 2.000000 0.951340
v 0.148634 2.000000 0.955000
v 0.139804 2.000000 1.050000
v 0.150000 2.000000 1.040000
v 0.144902 2.000000 1.048660
v 0.148634 2.000000 1.045000
v 0.129162 1.946499 0.950000
v 0.138582 1.942598 0.960000
v 0.133872 1.944548 0.951340
v 0.137320 1.943120 0.955000
v 0.129162 1.946499 1.050000
v 0.138582 1.942598 1.040000
v 0.133872 1.944548 1.048660
v 0.137320 1.943120 1.045000
v 0.098856 1.901144 0.950000
v 0.106066 1.893934 0.960000
v 0.102461 1.897539 0.951340
v 0.105100 1.894900 0.955000
v 0.098856 1.901144 1.050000
v 0.106066 1.893934 1.040000
v 0.102461 1.897539 1.048660
v 0.105100 1.894900 1.045000
v 0.053501 1.870838 0.950000
v 0.057403 1.861418 0.960000
v 0.055452 1.866128 0.951340
v 0.056880 1.862680 0.955000
v 0.053501 1.870838 1.050000
v 0.057403 1.861418 1.040000
v 0.055452 1.866128 1.048660
v 0.056880 1.862680 1.045000
v 0.000000 1.860196 0.950000
v 0.000000 1.850000 0.960000
v 0.000000 1.855098 0.951340
v 0.000000 1.851366 0.955000
v 0.000000 1.860196 1.050000
v 0.000000 1.850000 1.040000
v 0.000000 1.855098 1.048660
v 0.000000 1.851366 1.045000
v -0.053501 1.870838 0.950000
v -0.057403 1.861418 0.960000
v -0.055452 1.866128 0.951340
v -0.056880 1.862680 0.955000
v -0.053501 1.870838 1.050000
v -0.057403 1.861418 1.040000
v -0.055452 1.866128 1.048660
v -0.056880 1.862680 1.045000
v -0.098856 1.901144 0.950000
v -0.106066 1.893934 0.960000
v -0.102461 1.897539 0.951340
v -0.105100 1.894900 0.955000
v -0.098856 1.901144 1.050000
v -0.106066 1.893934 1.040000
v -0.102461 1.897539 1.048660
v -0.105100 1.894900 1.045000
v -0.129162 1.946499 0.950000
v -0.138582 1.942598 0.960000
v -0.133872 1.944548 0.951340
v -0.137320 1.943120 0.955000
v -0.129162 1.946499 1.050000
v -0.138582 1.942598 1.040000
v -0.133872 1.944548 1.048660
v -0.137320 1.943120 1.045000
v -0.139804 2.000000 0.950000
v -0.150000 2.000000 0.960000
v -0.144902 2.000000 0.951340
v -0.148634 2.000000 0.955000
v -0.139804 2.000000 1.050000
v -0.150000 2.000000 1.040000
v -0.144902 2.000000 1.048660
v -0.148634 2.000000 1.045000
v -0.129162 2.053501 0.950000
v -0.138582 2.057403 0.960000
v -0.133872 2.055452 0.951340
v -0.137320 2.056880 0.955000
v -0.129162 2.053501 1.050000
v -0.138582 2.057403 1.040000
v -0.133872 2.055452 1.048660
v -0.137320 2.056880 1.045000
v -0.098856 2.098856 0.950000
v -0.106066 2.106066 0.960000
v -0.102461 2.102461 0.951340
v -0.105100 2.105100 0.955000
v -0.098856 2.098856 1.050000
v -0.106066 2.106066 1.040000
v -0.102461 2.102461 1.048660
v -0.105100 2.105100 1.045000
v -0.053501 2.129162 0.950000
v -0.057403 2.138582 0.960000
v -0.055452 2.133872 0.951340
v -0.056880 2.137320 0.955000
v -0.053501 2.129162 1.050000
v -0.057403 2.138582 1.040000
v -0.055452 2.133872 1.048660
v -0.056880 2.137320 1.045000
v 0.000000 2.139804 -1.050000
v 0.000000 2.150000 -1.040000
v 0.000000 2.144902 -1.048660
v 0.000000 2.148634 -1.045000
v 0.000000 2.139804 -0.950000
v 0.000000 2.150000 -0.960000
v 0.000000 2.144902 -0.951340
v 0.000000 2.148634 -0.955000
v 0.053501 2.129162 -1.050000
v 0.057403 2.138582 -1.040000
v 0.055452 2.133872 -1.048660
v 0.056880 2.137320 -1.045000
v 0.053501 2.129162 -0.950000
v 0.057403 2.138582 -0.960000
v 0.055452 2.133872 -0.951340
v 0.056880 2.137320 -0.955000
v 0.098856 2.098856 -1.050000
v 0.106066 2.106066 -1.040000
v 0.102461 2.102461 -1.048660
v 0.105100 2.105100 -1.045000
v 0.098856 2.098856 -0.950000
v 0.106066 2.106066 -0.960000
v 0.102461 2.102461 -0.951340
v 0.105100 2.105100 -0.955000
v 0.138582 2.057403 -1.040000
v 0.129162 2.053501 -1.050000
v 0.137320 2.056880 -1.045000
v 0.133872 2.055452 -1.048660
v 0.129162 2.053501 -0.950000
v 0.138582 2.057403 -0.960000
v 0.133872 2.055452 -0.951340
v 0.137320 2.056880 -0.955000
v 0.139804 2.000000 -1.050000
v 0.150000 2.000000 -1.040000
v 0.144902 2.000000 -1.048660
v 0.148634 2.000000 -1.045000
v 0.139804 2.000000 -0.950000
v 0.150000 2.000000 -0.960000
v 0.144902 2.000000 -0.951340
v 0.148634 2.000000 -0.955000
v 0.129162 1.946499 -1.050000
v 0.138582 1.942598 -1.040000
v 0.133872 1.944548 -1.048660
v 0.137320 1.943120 -1.045000
v 0.129162 1.946499 -0.950000
v 0.138582 1.942598 -0.960000
v 0.133872 1.944548 -0.951340
v 0.137320 1.943120 -0.955000
v 0.098856 1.901144 -1.050000
v 0.106066 1.893934 -1.040000
v 0.102461 1.897539 -1.048660
v 0.105100 1.894900 -1.045000
v 0.098856 1.901144 -0.950000
v 0.106066 1.893934 -0.960000
v 0.102461 1.897539 -0.951340
v 0.105100 1.894900 -0.955000
v 0.053501 1.870838 -1.050000
v 0.057403 1.861418 -1.040000
v 0.055452 1.866128 -1.048660
v 0.056880 1.862680 -1.045000
v 0.053501 1.870838 -0.950000
v 0.057403 1.861418 -0.960000
v 0.055452 1.866128 -0.951340
v 0.056880 1.862680 -0.955000
v 0.000000 1.860196 -1.050000
v 0.000000 1.850000 -1.040000
v 0.000000 1.855098 -1.048660
v 0.000000 1.851366 -1.045000
v 0.000000 1.860196 -0.950000
v 0.000000 1.850000 -0.960000
v 0.000000 1.855098 -0.951340
v 0.000000 1.851366 -0.955000
v -0.053501 1.870838 -1.050000
v -0.057403 1.861418 -1.040000
v -0.055452 1.866128 -1.048660
v -0.056880 1.862680 -1.045000
v -0.053501 1.870838 -0.950000
v -0.057403 1.861418 -0.960000
v -0.055452 1.866128 -0.951340
v -0.056880 1.862680 -0.955000
v -0.098856 1.901144 -1.050000
v -0.106066 1.893934 -1.040000
v -0.102461 1.897539 -1.048660
v -0.105100 1.894900 -1.045000
v -0.098856 1.901144 -0.950000
v -0.106066 1.893934 -0.960000
v -0.102461 1.897539 -0.951340
v -0.105100 1.894900 -0.955000
v -0.129162 1.946499 -1.050000
v -0.138582 1.942598 -1.040000
v -0.133872 1.944548 -1.048660
v -0.137320 1.943120 -1.045000
v -0.129162 1.946499 -0.950000
v -0.138582 1.942598 -0.960000
v -0.133872 1.944548 -0.951340
v -0.137320 1.943120 -0.955000
v -0.139804 2.000000 -1.050000
v -0.150000 2.000000 -1.040000
v -0.144902 2.000000 -1.048660
v -0.148634 2.000000 -1.045000
v -0.139804 2.000000 -0.950000
v -0.150000 2.000000 -0.960000
v -0.144902 2.000000 -0.951340
v -0.148634 2.000000 -0.955000
v -0.129162 2.053501 -1.050000
v -0.138582 2.057403 -1.040000
v -0.133872 2.055452 -1.048660
v -0.137320 2.056880 -1.045000
v -0.129162 2.053501 -0.950000
v -0.138582 2.057403 -0.960000
v -0.133872 2.055452 -0.951340
v -0.137320 2.056880 -0.955000
v -0.098856 2.098856 -1.050000
v -0.106066 2.106066 -1.040000
v -0.102461 2.102461 -1.048660
v -0.105100 2.105100 -1.045000
v -0.098856 2.098856 -0.950000
v -0.106066 2.106066 -0.960000
v -0.102461 2.102461 -0.951340
v -0.105100 2.105100 -0.955000
v -0.053501 2.129162 -1.050000
v -0.057403 2.138582 -1.040000
v -0.055452 2.133872 -1.048660
v -0.056880 2.137320 -1.045000
v -0.053501 2.129162 -0.950000
v -0.057403 2.138582 -0.960000
v -0.055452 2.133872 -0.951340
v -0.056880 2.137320 -0.955000
vn -0.0000 0.1438 -0.9896
vn -0.0000 0.9914 -0.1308
vn -0.0000 0.5172 -0.8559
vn -0.0000 0.8702 -0.4926
vn -0.0000 0.1438 0.9896
vn -0.0000 0.9914 0.1308
vn -0.0000 0.5172 0.8559
vn -0.0000 0.8702 0.4926
vn 0.0550 0.1329 -0.9896
vn 0.3794 0.9159 -0.1308
vn 0.1979 0.4778 -0.8559
vn 0.3330 0.8040 -0.4926
vn 0.0550 0.1329 0.9896
vn 0.3794 0.9159 0.1308
vn 0.1979 0.4778 0.8559
vn 0.3330 0.8040 0.4926
vn 0.1017 0.1017 -0.9896
vn 0.7010 0.7010 -0.1308
vn 0.3657 0.3657 -0.8559
vn 0.6154 0.6154 -0.4926
vn 0.1017 0.1017 0.9896
vn 0.7010 0.7010 0.1308
vn 0.3657 0.3657 0.8559
vn 0.6154 0.6154 0.4926
vn 0.1329 0.0550 -0.9896
vn 0.9159 0.3794 -0.1308
vn 0.4778 0.1979 -0.8559
vn 0.8040 0.3330 -0.4926
vn 0.1329 0.0550 0.9896
vn 0.9159 0.3794 0.1308
vn 0.4778 0.1979 0.8559
vn 0.8040 0.3330 0.4926
vn 0.1438 -0.0000 -0.9896
vn 0.9914 -0.0000 -0.1308
vn 0.5172 -0.0000 -0.8559
vn 0.8702 -0.0000 -0.4926
vn 0.1438 -0.0000 0.9896
vn 0.9914 -0.0000 0.1308
vn 0.5172 -0.0000 0.8559
vn 0.8702 -0.0000 0.4926
vn 0.1329 -0.0550 -0.9896
vn 0.9159 -0.3794 -0.1308
vn 0.4778 -0.1979 -0.8559
vn 0.8040 -0.3330 -0.4926
vn 0.1329 -0.0550 0.9896
vn 0.9159 -0.3794 0.1308
vn 0.4778 -0.1979 0.8559
vn 0.8040 -0.3330 0.4926
vn 0.1017 -0.1017 -0.9896
vn 0.7010 -0.7010 -0.1308
vn 0.3657 -0.3657 -0.8559
vn 0.6154 -0.6154 -0.4926
vn 0.1017 -0.1017 0.9896
vn 0.7010 -0.7010 0.1308
vn 0.3657 -0.3657 0.8559
vn 0.6154 -0.6154 0.4926
vn 0.0550 -0.1329 -0.9896
vn 0.3794 -0.9159 -0.1308
vn 0.1979 -0.4778 -0.8559
vn 0.3330 -0.8040 -0.4926
vn 0.0550 -0.1329 0.9896
vn 0.3794 -0.9159 0.1308
vn 0.1979 -0.4778 0.8559
vn 0.3330 -0.8040 0.4926
vn -0.0000 -0.1438 -0.9896
vn -0.0000 -0.9914 -0.1308
vn -0.0000 -0.5172 -0.8559
vn -0.0000 -0.8702 -0.4926
vn -0.0000 -0.1438 0.9896
vn -0.0000 -0.9914 0.1308
vn -0.0000 -0.5172 0.8559
vn -0.0000 -0.8702 0.4926
vn -0.0550 -0.1329 -0.9896
vn -0.3794 -0.9159 -0.1308
vn -0.1979 -0.4778 -0.8559
vn -0.3330 -0.8040 -0.4926
vn -0.0550 -0.1329 0.9896
vn -0.3794 -0.9159 0.1308
vn -0.1979 -0.4778 0.8559
vn -0.3330 -0.8040 0.4926
vn -0.1017 -0.1017 -0.9896
vn -0.7010 -0.7010 -0.1308
vn -0.3657 -0.3657 -0.8559
vn -0.6154 -0.6154 -0.4926
vn -0.1017 -0.1017 0.9896
vn -0.7010 -0.7010 0.1308
vn -0.3657 -0.3657 0.8559
vn -0.6154 -0.6154 0.4926
vn -0.1329 -0.0550 -0.9896
vn -0.9159 -0.3794 -0.1308
vn -0.4778 -0.1979 -0.8559
vn -0.8040 -0.3330 -0.4926
vn -0.1329 -0.0550 0.9896
vn -0.9159 -0.3794 0.1308
vn -0.4778 -0.1979 0.8559
vn -0.8040 -0.3330 0.4926
vn -0.1438 -0.0000 -0.9896
vn -0.9914 -0.0000 -0.1308
vn -0.5172 -0.0000 -0.8559
vn -0.8702 -0.0000 -0.4926
vn -0.1438 -0.0000 0.9896
vn -0.9914 -0.0000 0.1308
vn -0.5172 -0.0000 0.8559
vn -0.8702 -0.0000 0.4926
vn -0.1329 0.0550 -0.9896
vn -0.9159 0.3794 -0.1308
vn -0.4778 0.1979 -0.8559
vn -0.8040 0.3330 -0.4926
vn -0.1329 0.0550 0.9896
vn -0.9159 0.3794 0.1308
vn -0.4778 0.1979 0.8559
vn -0.8040 0.3330 0.4926
vn -0.1017 0.1017 -0.9896
vn -0.7010 0.7010 -0.1308
vn -0.3657 0.3657 -0.8559
vn -0.6154 0.6154 -0.4926
vn -0.1017 0.1017 0.9896
vn -0.7010 0.7010 0.1308
vn -0.3657 0.3657 0.8559
vn -0.6154 0.6154 0.4926
vn -0.0550 0.1329 -0.9896
vn -0.3794 0.9159 -0.1308
vn -0.1979 0.4778 -0.8559
vn -0.3330 0.8040 -0.4926
vn -0.0550 0.1329 0.9896
vn -0.3794 0.9159 0.1308
vn -0.1979 0.4778 0.8559
vn -0.3330 0.8040 0.4926
vn 0.6154 0.6153 0.4926
vn 0.6154 -0.6153 0.4926
vn -0.6154 -0.6153 0.4926
vn -0.6154 0.6153 0.4926
vn 0.6154 0.6153 -0.4926
vn 0.6154 -0.6153 -0.4926
vn -0.6154 -0.6153 -0.4926
vn -0.6154 0.6153 -0.4926
vt 0.453898 0.022996
vt 0.453898 0.049902
vt 0.448922 0.049907
vt 0.448922 0.023011
vt 0.432949 0.117062
vt 0.412363 0.137648
vt 0.410968 0.135560
vt 0.430862 0.115667
vt 0.409559 0.133451
vt 0.428752 0.114258
vt 0.493706 0.483241
vt 0.493706 0.456335
vt 0.498682 0.456350
vt 0.498682 0.483246
vt 0.297730 0.363487
vt 0.308871 0.336590
vt 0.310959 0.337985
vt 0.300193 0.363977
vt 0.313068 0.339395
vt 0.302681 0.364472
vt 0.034069 0.992621
vt 0.053485 0.992621
vt 0.053480 0.995109
vt 0.034074 0.995109
vt 0.053466 0.997597
vt 0.034088 0.997597
vt 0.297800 0.768179
vt 0.297800 0.748802
vt 0.302681 0.749772
vt 0.302681 0.767208
vt 0.493706 0.348001
vt 0.493706 0.327408
vt 0.496194 0.327501
vt 0.496194 0.348015
vt 0.498682 0.327757
vt 0.498682 0.348054
vt 0.308930 0.185412
vt 0.330266 0.166288
vt 0.332262 0.168984
vt 0.313068 0.188177
vt 0.053485 0.007379
vt 0.034069 0.007379
vt 0.034074 0.004891
vt 0.053480 0.004891
vt 0.034088 0.002403
vt 0.053466 0.002403
vt 0.305215 0.683668
vt 0.297800 0.665765
vt 0.302681 0.664794
vt 0.309353 0.680903
vt 0.493706 0.049902
vt 0.493706 0.022996
vt 0.498682 0.023011
vt 0.498682 0.049907
vt 0.385467 0.153646
vt 0.412363 0.164787
vt 0.410968 0.166875
vt 0.384977 0.156109
vt 0.409559 0.168984
vt 0.384482 0.158597
vt 0.071422 0.992621
vt 0.071300 0.995109
vt 0.070965 0.997597
vt 0.305215 0.730899
vt 0.309353 0.733664
vt 0.071422 0.007379
vt 0.071300 0.004891
vt 0.070965 0.002403
vt 0.318917 0.697370
vt 0.321682 0.693232
vt 0.076229 0.992621
vt 0.089957 0.992621
vt 0.089972 0.995109
vt 0.076323 0.995109
vt 0.090011 0.997597
vt 0.076579 0.997597
vt 0.318917 0.717197
vt 0.321682 0.721335
vt 0.089957 0.007379
vt 0.076229 0.007379
vt 0.076323 0.004891
vt 0.089972 0.004891
vt 0.076579 0.002403
vt 0.090011 0.002403
vt 0.336820 0.704785
vt 0.337791 0.699904
vt 0.107895 0.992621
vt 0.107900 0.995109
vt 0.107914 0.997597
vt 0.336820 0.709782
vt 0.337791 0.714663
vt 0.453898 0.348001
vt 0.453898 0.374907
vt 0.448922 0.374912
vt 0.448922 0.348015
vt 0.329457 0.137648
vt 0.308871 0.117062
vt 0.310959 0.115667
vt 0.330852 0.135560
vt 0.313068 0.114258
vt 0.332261 0.133451
vt 0.107895 0.007379
vt 0.107900 0.004891
vt 0.107914 0.002403
vt 0.356197 0.704785
vt 0.355226 0.699904
vt 0.453898 0.079025
vt 0.448922 0.079020
vt 0.385467 0.148789
vt 0.384977 0.146326
vt 0.384482 0.143838
vt 0.127310 0.992621
vt 0.127305 0.995109
vt 0.127291 0.997597
vt 0.356197 0.709781
vt 0.355226 0.714663
vt 0.127310 0.007379
vt 0.127305 0.004891
vt 0.127291 0.002403
vt 0.374100 0.697370
vt 0.371335 0.693232
vt 0.145247 0.992621
vt 0.145125 0.995109
vt 0.144790 0.997597
vt 0.374100 0.717197
vt 0.371335 0.721335
vt 0.493706 0.374907
vt 0.496194 0.374912
vt 0.498682 0.374925
vt 0.297800 0.212283
vt 0.302681 0.213254
vt 0.145247 0.007379
vt 0.145125 0.004891
vt 0.144790 0.002403
vt 0.387802 0.683668
vt 0.383664 0.680903
vt 0.493706 0.079025
vt 0.498682 0.079020
vt 0.356354 0.153646
vt 0.356844 0.156109
vt 0.357339 0.158597
vt 0.150054 0.992621
vt 0.163783 0.992621
vt 0.163797 0.995109
vt 0.150148 0.995109
vt 0.163836 0.997597
vt 0.150404 0.997597
vt 0.387802 0.730899
vt 0.383664 0.733664
vt 0.493706 0.158237
vt 0.493706 0.131331
vt 0.498682 0.131345
vt 0.498682 0.158242
vt 0.385467 0.304864
vt 0.412363 0.316004
vt 0.410968 0.318092
vt 0.384977 0.307326
vt 0.409559 0.320201
vt 0.384482 0.309814
vt 0.163783 0.007379
vt 0.150054 0.007379
vt 0.150148 0.004891
vt 0.163797 0.004891
vt 0.150404 0.002403
vt 0.163836 0.002403
vt 0.395217 0.665765
vt 0.390336 0.664794
vt 0.453898 0.158237
vt 0.453898 0.187360
vt 0.451410 0.187355
vt 0.451410 0.158242
vt 0.448922 0.187341
vt 0.448922 0.158256
vt 0.412324 0.591241
vt 0.385453 0.602371
vt 0.384482 0.597490
vt 0.409559 0.587103
vt 0.181720 0.992621
vt 0.181725 0.995109
vt 0.181739 0.997597
vt 0.395217 0.748802
vt 0.390336 0.749772
vt 0.181720 0.007379
vt 0.181725 0.004891
vt 0.181739 0.002403
vt 0.395217 0.646388
vt 0.390336 0.647359
vt 0.201135 0.992621
vt 0.201130 0.995109
vt 0.201117 0.997597
vt 0.395217 0.768179
vt 0.390336 0.767208
vt 0.201135 0.007379
vt 0.201130 0.004891
vt 0.201117 0.002403
vt 0.387802 0.628485
vt 0.383664 0.631250
vt 0.453898 0.105931
vt 0.448922 0.105809
vt 0.356354 0.148789
vt 0.356844 0.146326
vt 0.357339 0.143838
vt 0.219073 0.992621
vt 0.218950 0.995109
vt 0.218616 0.997597
vt 0.387802 0.786082
vt 0.383664 0.783317
vt 0.453898 0.404029
vt 0.448922 0.404024
vt 0.297730 0.090165
vt 0.300193 0.089675
vt 0.302681 0.089180
vt 0.219073 0.007379
vt 0.218950 0.004891
vt 0.218616 0.002403
vt 0.374100 0.614783
vt 0.371335 0.618921
vt 0.453898 0.456335
vt 0.453898 0.483241
vt 0.451410 0.483246
vt 0.451410 0.456350
vt 0.448922 0.483260
vt 0.448922 0.456389
vt 0.329496 0.591241
vt 0.308930 0.570675
vt 0.313068 0.567910
vt 0.332261 0.587103
vt 0.223880 0.992621
vt 0.237608 0.992621
vt 0.237623 0.995109
vt 0.223973 0.995109
vt 0.237662 0.997597
vt 0.224230 0.997597
vt 0.374100 0.799784
vt 0.371335 0.795646
vt 0.493706 0.435742
vt 0.498682 0.435836
vt 0.329457 0.316004
vt 0.330852 0.318092
vt 0.332261 0.320201
vt 0.237608 0.007379
vt 0.223880 0.007379
vt 0.223973 0.004891
vt 0.237623 0.004891
vt 0.224230 0.002403
vt 0.237662 0.002403
vt 0.356197 0.607368
vt 0.355226 0.612249
vt 0.493706 0.105931
vt 0.498682 0.105809
vt 0.329565 0.164715
vt 0.255546 0.992621
vt 0.255551 0.995109
vt 0.255564 0.997597
vt 0.356197 0.807199
vt 0.355226 0.802318
vt 0.255546 0.007379
vt 0.255551 0.004891
vt 0.255564 0.002403
vt 0.336820 0.607368
vt 0.337791 0.612249
vt 0.274961 0.992621
vt 0.274956 0.995109
vt 0.274942 0.997597
vt 0.336820 0.807199
vt 0.337791 0.802318
vt 0.493706 0.404029
vt 0.496194 0.404024
vt 0.498682 0.404011
vt 0.297800 0.241369
vt 0.302681 0.240398
vt 0.274961 0.007379
vt 0.274956 0.004891
vt 0.274942 0.002403
vt 0.318917 0.614783
vt 0.321682 0.618921
vt 0.292898 0.992621
vt 0.292776 0.995109
vt 0.292441 0.997597
vt 0.318917 0.799784
vt 0.321682 0.795645
vt 0.292898 0.007379
vt 0.292776 0.004891
vt 0.292441 0.002403
vt 0.305215 0.628485
vt 0.309353 0.631250
vt 0.453898 0.327408
vt 0.448922 0.327501
vt 0.002403 0.992621
vt 0.016132 0.992621
vt 0.016146 0.995109
vt 0.002497 0.995109
vt 0.016186 0.997597
vt 0.002753 0.997597
vt 0.305215 0.786082
vt 0.309353 0.783317
vt 0.453898 0.131331
vt 0.451410 0.131345
vt 0.448922 0.131385
vt 0.432890 0.570675
vt 0.428752 0.567910
vt 0.016132 0.007379
vt 0.002403 0.007379
vt 0.002497 0.004891
vt 0.016146 0.004891
vt 0.002753 0.002403
vt 0.016186 0.002403
vt 0.297800 0.646388
vt 0.302681 0.647359
vt 0.493706 0.187360
vt 0.498682 0.187355
vt 0.356354 0.304864
vt 0.356844 0.307326
vt 0.357339 0.309814
vt 0.493706 0.002403
vt 0.498682 0.002497
vt 0.432877 0.185265
vt 0.431628 0.186451
vt 0.428752 0.188177
vt 0.453898 0.002403
vt 0.448922 0.002497
vt 0.444090 0.090165
vt 0.441628 0.089675
vt 0.439140 0.089180
vt 0.342489 0.915629
vt 0.342489 0.888723
vt 0.344977 0.888717
vt 0.344977 0.915506
vt 0.347465 0.888704
vt 0.347465 0.915171
vt 0.444021 0.212283
vt 0.439140 0.213254
vt 0.302681 0.888723
vt 0.302681 0.915629
vt 0.297705 0.915506
vt 0.297705 0.888718
vt 0.444090 0.061052
vt 0.441628 0.061542
vt 0.439140 0.062037
vt 0.342489 0.859600
vt 0.344977 0.859605
vt 0.347465 0.859618
vt 0.444021 0.241369
vt 0.439140 0.240398
vt 0.302681 0.859600
vt 0.297705 0.859605
vt 0.432949 0.034156
vt 0.430862 0.035551
vt 0.428752 0.036960
vt 0.453898 0.214266
vt 0.451410 0.214144
vt 0.448922 0.213809
vt 0.356368 0.602371
vt 0.357339 0.597490
vt 0.342489 0.832694
vt 0.344977 0.832708
vt 0.347465 0.832747
vt 0.432890 0.268240
vt 0.428752 0.265475
vt 0.453898 0.512364
vt 0.451410 0.512359
vt 0.448922 0.512345
vt 0.297800 0.543803
vt 0.302681 0.542832
vt 0.302681 0.832694
vt 0.297705 0.832708
vt 0.412363 0.013570
vt 0.410968 0.015657
vt 0.409559 0.017767
vt 0.342489 0.812101
vt 0.344977 0.812194
vt 0.347465 0.812451
vt 0.412324 0.288806
vt 0.409559 0.284668
vt 0.302681 0.812101
vt 0.297705 0.812194
vt 0.385467 0.002429
vt 0.384977 0.004891
vt 0.384482 0.007379
vt 0.493706 0.214266
vt 0.498682 0.214144
vt 0.493706 0.647605
vt 0.493706 0.620699
vt 0.496194 0.620694
vt 0.496194 0.647483
vt 0.498682 0.620680
vt 0.498682 0.647148
vt 0.385453 0.299937
vt 0.384482 0.295055
vt 0.453898 0.620699
vt 0.453898 0.647605
vt 0.448922 0.647482
vt 0.448922 0.620694
vt 0.356354 0.002429
vt 0.356844 0.004891
vt 0.357339 0.007379
vt 0.493706 0.591576
vt 0.496194 0.591581
vt 0.498682 0.591595
vt 0.356368 0.299937
vt 0.357339 0.295055
vt 0.493706 0.512364
vt 0.498682 0.512359
vt 0.297730 0.392600
vt 0.300193 0.392110
vt 0.302681 0.391615
vt 0.453898 0.591576
vt 0.448922 0.591581
vt 0.329457 0.013570
vt 0.330852 0.015657
vt 0.332261 0.017767
vt 0.493706 0.564670
vt 0.496194 0.564684
vt 0.498682 0.564724
vt 0.329496 0.288806
vt 0.332261 0.284668
vt 0.453898 0.564670
vt 0.448922 0.564684
vt 0.308871 0.034156
vt 0.310959 0.035551
vt 0.313068 0.036960
vt 0.453898 0.435742
vt 0.451410 0.435836
vt 0.448922 0.436092
vt 0.493706 0.544077
vt 0.496194 0.544171
vt 0.498682 0.544427
vt 0.308930 0.268240
vt 0.313068 0.265475
vt 0.453898 0.544077
vt 0.448922 0.544171
vt 0.297730 0.061052
vt 0.300193 0.061542
vt 0.302681 0.062037
vt 0.493706 0.430936
vt 0.496194 0.430813
vt 0.498682 0.430478
vt 0.453898 0.430936
vt 0.448922 0.430813
vt 0.493706 0.110738
vt 0.498682 0.110832
vt 0.432949 0.336590
vt 0.430862 0.337985
vt 0.428752 0.339395
vt 0.453898 0.110738
vt 0.451410 0.110832
vt 0.448922 0.111088
vt 0.444021 0.543803
vt 0.439140 0.542833
vt 0.493706 0.322601
vt 0.493706 0.295695
vt 0.498682 0.295690
vt 0.498682 0.322478
vt 0.444090 0.363487
vt 0.441628 0.363977
vt 0.439140 0.364472
vt 0.453898 0.295695
vt 0.453898 0.322601
vt 0.451410 0.322478
vt 0.451410 0.295690
vt 0.448922 0.322144
vt 0.448922 0.295676
vt 0.444021 0.514718
vt 0.439140 0.515689
vt 0.493706 0.266572
vt 0.498682 0.266577
vt 0.444090 0.392600
vt 0.441628 0.392110
vt 0.439140 0.391615
vt 0.453898 0.266572
vt 0.451410 0.266577
vt 0.448922 0.266591
vt 0.432890 0.487847
vt 0.428752 0.490612
vt 0.493706 0.239666
vt 0.498682 0.239680
vt 0.432949 0.419497
vt 0.430862 0.418102
vt 0.428752 0.416692
vt 0.453898 0.239666
vt 0.451410 0.239680
vt 0.448922 0.239719
vt 0.412324 0.467281
vt 0.409559 0.471419
vt 0.493706 0.219073
vt 0.498682 0.219167
vt 0.412363 0.440082
vt 0.410968 0.437995
vt 0.409559 0.435886
vt 0.453898 0.219073
vt 0.451410 0.219167
vt 0.448922 0.219423
vt 0.385453 0.456150
vt 0.384482 0.461032
vt 0.493706 0.755940
vt 0.493706 0.729034
vt 0.498682 0.729029
vt 0.498682 0.755817
vt 0.385467 0.451223
vt 0.384977 0.448761
vt 0.384482 0.446273
vt 0.453898 0.729034
vt 0.453898 0.755940
vt 0.451410 0.755817
vt 0.451410 0.729029
vt 0.448922 0.755482
vt 0.448922 0.729015
vt 0.356368 0.456150
vt 0.357339 0.461032
vt 0.493706 0.699911
vt 0.498682 0.699916
vt 0.356354 0.451223
vt 0.356844 0.448761
vt 0.357339 0.446273
vt 0.453898 0.699911
vt 0.451410 0.699916
vt 0.448922 0.699930
vt 0.329496 0.467281
vt 0.332261 0.471419
vt 0.493706 0.673005
vt 0.498682 0.673019
vt 0.329457 0.440082
vt 0.330852 0.437995
vt 0.332262 0.435886
vt 0.453898 0.673005
vt 0.451410 0.673019
vt 0.448922 0.673058
vt 0.308930 0.487847
vt 0.313068 0.490612
vt 0.493706 0.652412
vt 0.498682 0.652505
vt 0.308871 0.419497
vt 0.310959 0.418102
vt 0.313068 0.416692
vt 0.453898 0.652412
vt 0.451410 0.652505
vt 0.448922 0.652762
vt 0.297800 0.514718
vt 0.302681 0.515689
vt 0.493706 0.539270
vt 0.498682 0.539148
vt 0.453898 0.539270
vt 0.451410 0.539148
vt 0.448922 0.538813
s 1
usemtl BB_RustedSteel
f 182/1/54 174/2/46 176/3/48 184/4/130
f 184/5/130 176/6/48 175/7/47 183/8/55
f 183/8/55 175/7/47 173/9/45 181/10/53
f 266/11/10 274/12/18 276/13/133 268/14/12
f 268/15/12 276/16/133 275/17/19 267/18/11
f 267/18/11 275/17/19 273/19/17 265/20/9
f 2/21/2 10/22/10 12/23/12 4/24/4
f 4/24/4 12/23/12 11/25/11 3/26/3
f 3/27/3 11/28/11 9/29/9 1/30/1
f 146/31/18 153/32/26 155/33/28 148/34/20
f 148/34/20 155/33/28 156/35/27 147/36/19
f 147/37/19 156/38/27 154/39/25 145/40/17
f 14/41/14 6/42/6 8/43/8 16/44/16
f 16/44/16 8/43/8 7/45/7 15/46/15
f 15/47/15 7/48/7 5/49/5 13/50/13
f 170/51/42 178/52/50 180/53/52 172/54/44
f 172/55/44 180/56/52 179/57/51 171/58/43
f 171/58/43 179/57/51 177/59/49 169/60/41
f 10/22/10 18/61/18 20/62/20 12/23/12
f 12/23/12 20/62/20 19/63/19 11/25/11
f 11/28/11 19/64/19 17/65/17 9/29/9
f 22/66/22 14/41/14 16/44/16 24/67/24
f 24/67/24 16/44/16 15/46/15 23/68/23
f 23/69/23 15/47/15 13/50/13 21/70/21
f 18/71/18 26/72/26 28/73/28 20/74/20
f 20/74/20 28/73/28 27/75/27 19/76/19
f 19/64/19 27/77/27 25/78/25 17/65/17
f 30/79/30 22/80/22 24/81/24 32/82/32
f 32/82/32 24/81/24 23/83/23 31/84/31
f 31/85/31 23/69/23 21/70/21 29/86/29
f 26/72/26 34/87/34 36/88/36 28/73/28
f 28/73/28 36/88/36 35/89/35 27/75/27
f 27/77/27 35/90/35 33/91/33 25/78/25
f 150/92/22 142/93/14 144/94/16 152/95/129
f 152/96/129 144/97/16 143/98/15 151/99/23
f 151/99/23 143/98/15 141/100/13 149/101/21
f 38/102/38 30/79/30 32/82/32 40/103/40
f 40/103/40 32/82/32 31/84/31 39/104/39
f 39/105/39 31/85/31 29/86/29 37/106/37
f 174/2/46 166/107/38 168/108/40 176/3/48
f 176/6/48 168/109/40 167/110/39 175/7/47
f 175/7/47 167/110/39 165/111/37 173/9/45
f 34/87/34 42/112/42 44/113/44 36/88/36
f 36/88/36 44/113/44 43/114/43 35/89/35
f 35/90/35 43/115/43 41/116/41 33/91/33
f 46/117/46 38/102/38 40/103/40 48/118/48
f 48/118/48 40/103/40 39/104/39 47/119/47
f 47/120/47 39/105/39 37/106/37 45/121/45
f 42/112/42 50/122/50 52/123/52 44/113/44
f 44/113/44 52/123/52 51/124/51 43/114/43
f 43/115/43 51/125/51 49/126/49 41/116/41
f 138/127/10 146/31/18 148/34/20 140/128/12
f 140/128/12 148/34/20 147/36/19 139/129/11
f 139/130/11 147/37/19 145/40/17 137/131/9
f 54/132/54 46/117/46 48/118/48 56/133/56
f 56/133/56 48/118/48 47/119/47 55/134/55
f 55/135/55 47/120/47 45/121/45 53/136/53
f 162/137/34 170/51/42 172/54/44 164/138/36
f 164/139/36 172/55/44 171/58/43 163/140/35
f 163/140/35 171/58/43 169/60/41 161/141/33
f 50/142/50 58/143/58 60/144/60 52/145/52
f 52/145/52 60/144/60 59/146/59 51/147/51
f 51/125/51 59/148/59 57/149/57 49/126/49
f 298/150/42 306/151/50 308/152/134 300/153/44
f 300/154/44 308/155/134 307/156/51 299/157/43
f 299/157/43 307/156/51 305/158/49 297/159/41
f 62/160/62 54/161/54 56/162/56 64/163/64
f 64/163/64 56/162/56 55/164/55 63/165/63
f 63/166/63 55/135/55 53/136/53 61/167/61
f 302/168/46 294/169/38 296/170/40 304/171/48
f 304/171/48 296/170/40 295/172/39 303/173/47
f 303/174/47 295/175/39 293/176/37 301/177/45
f 58/143/58 66/178/66 68/179/68 60/144/60
f 60/144/60 68/179/68 67/180/67 59/146/59
f 59/148/59 67/181/67 65/182/65 57/149/57
f 70/183/70 62/160/62 64/163/64 72/184/72
f 72/184/72 64/163/64 63/165/63 71/185/71
f 71/186/71 63/166/63 61/167/61 69/187/69
f 66/178/66 74/188/74 76/189/76 68/179/68
f 68/179/68 76/189/76 75/190/75 67/180/67
f 67/181/67 75/191/75 73/192/73 65/182/65
f 78/193/78 70/183/70 72/184/72 80/194/80
f 80/194/80 72/184/72 71/185/71 79/195/79
f 79/196/79 71/186/71 69/187/69 77/197/77
f 166/107/38 158/198/30 160/199/32 168/108/40
f 168/109/40 160/200/32 159/201/31 167/110/39
f 167/110/39 159/201/31 157/202/29 165/111/37
f 74/188/74 82/203/82 84/204/84 76/189/76
f 76/189/76 84/204/84 83/205/83 75/190/75
f 75/191/75 83/206/83 81/207/81 73/192/73
f 142/93/14 134/208/6 136/209/8 144/94/16
f 144/97/16 136/210/8 135/211/7 143/98/15
f 143/98/15 135/211/7 133/212/5 141/100/13
f 86/213/86 78/193/78 80/194/80 88/214/88
f 88/214/88 80/194/80 79/195/79 87/215/87
f 87/216/87 79/196/79 77/197/77 85/217/85
f 278/218/22 270/219/14 272/220/16 280/221/24
f 280/221/24 272/220/16 271/222/15 279/223/23
f 279/224/23 271/225/15 269/226/13 277/227/21
f 82/228/82 90/229/90 92/230/92 84/231/84
f 84/231/84 92/230/92 91/232/91 83/233/83
f 83/206/83 91/234/91 89/235/89 81/207/81
f 274/12/18 281/236/26 283/237/28 276/13/133
f 276/16/133 283/238/28 284/239/27 275/17/19
f 275/17/19 284/239/27 282/240/25 273/19/17
f 94/241/94 86/242/86 88/243/88 96/244/96
f 96/244/96 88/243/88 87/245/87 95/246/95
f 95/247/95 87/216/87 85/217/85 93/248/93
f 153/249/26 162/137/34 164/138/36 155/250/28
f 155/251/28 164/139/36 163/140/35 156/38/27
f 156/38/27 163/140/35 161/141/33 154/39/25
f 90/229/90 98/252/98 100/253/100 92/230/92
f 92/230/92 100/253/100 99/254/99 91/232/91
f 91/234/91 99/255/99 97/256/97 89/235/89
f 102/257/102 94/241/94 96/244/96 104/258/104
f 104/258/104 96/244/96 95/246/95 103/259/103
f 103/260/103 95/247/95 93/248/93 101/261/101
f 98/252/98 106/262/106 108/263/108 100/253/100
f 100/253/100 108/263/108 107/264/107 99/254/99
f 99/255/99 107/265/107 105/266/105 97/256/97
f 130/267/2 138/127/10 140/128/12 132/268/4
f 132/268/4 140/128/12 139/129/11 131/269/3
f 131/270/3 139/130/11 137/131/9 129/271/1
f 110/272/110 102/257/102 104/258/104 112/273/112
f 112/273/112 104/258/104 103/259/103 111/274/111
f 111/275/111 103/260/103 101/261/101 109/276/109
f 106/262/106 114/277/114 116/278/116 108/263/108
f 108/263/108 116/278/116 115/279/115 107/264/107
f 107/265/107 115/280/115 113/281/113 105/266/105
f 118/282/118 110/272/110 112/273/112 120/283/120
f 120/283/120 112/273/112 111/274/111 119/284/119
f 119/285/119 111/275/111 109/276/109 117/286/117
f 158/287/30 150/92/22 152/95/129 160/288/32
f 160/200/32 152/96/129 151/99/23 159/201/31
f 159/201/31 151/99/23 149/101/21 157/202/29
f 114/289/114 122/290/122 124/291/124 116/292/116
f 116/292/116 124/291/124 123/293/123 115/294/115
f 115/280/115 123/295/123 121/296/121 113/281/113
f 310/297/54 302/168/46 304/171/48 312/298/56
f 312/298/56 304/171/48 303/173/47 311/299/55
f 311/300/55 303/174/47 301/177/45 309/301/53
f 126/302/126 118/303/118 120/304/120 128/305/128
f 128/305/128 120/304/120 119/306/119 127/307/127
f 127/308/127 119/285/119 117/286/117 125/309/125
f 122/290/122 2/21/2 4/24/4 124/291/124
f 124/291/124 4/24/4 3/26/3 123/293/123
f 123/295/123 3/27/3 1/30/1 121/296/121
f 6/42/6 126/302/126 128/305/128 8/43/8
f 8/43/8 128/305/128 127/307/127 7/45/7
f 7/48/7 127/308/127 125/309/125 5/49/5
f 290/310/34 298/150/42 300/153/44 292/311/36
f 292/312/36 300/154/44 299/157/43 291/313/35
f 291/313/35 299/157/43 297/159/41 289/314/33
f 178/52/50 186/315/58 188/316/60 180/53/52
f 180/56/52 188/317/60 187/318/59 179/57/51
f 179/57/51 187/318/59 185/319/57 177/59/49
f 190/320/62 182/1/54 184/4/130 192/321/64
f 192/322/64 184/5/130 183/8/55 191/323/63
f 191/323/63 183/8/55 181/10/53 189/324/61
f 186/325/58 194/326/66 196/327/68 188/328/60
f 188/328/60 196/327/68 195/329/67 187/330/59
f 187/318/59 195/331/67 193/332/65 185/319/57
f 198/333/70 190/334/62 192/335/64 200/336/72
f 200/337/72 192/322/64 191/323/63 199/338/71
f 199/338/71 191/323/63 189/324/61 197/339/69
f 194/326/66 202/340/74 204/341/76 196/327/68
f 196/327/68 204/341/76 203/342/75 195/329/67
f 195/331/67 203/343/75 201/344/73 193/332/65
f 206/345/78 198/333/70 200/336/72 208/346/80
f 208/347/80 200/337/72 199/338/71 207/348/79
f 207/348/79 199/338/71 197/339/69 205/349/77
f 294/169/38 286/350/30 288/351/32 296/170/40
f 296/170/40 288/351/32 287/352/31 295/172/39
f 295/175/39 287/353/31 285/354/29 293/176/37
f 202/340/74 210/355/82 212/356/84 204/341/76
f 204/341/76 212/356/84 211/357/83 203/342/75
f 203/343/75 211/358/83 209/359/81 201/344/73
f 270/219/14 262/360/6 264/361/8 272/220/16
f 272/220/16 264/361/8 263/362/7 271/222/15
f 271/225/15 263/363/7 261/364/5 269/226/13
f 214/365/86 206/345/78 208/346/80 216/366/131
f 216/367/131 208/347/80 207/348/79 215/368/87
f 215/368/87 207/348/79 205/349/77 213/369/85
f 210/355/82 218/370/90 220/371/92 212/356/84
f 212/356/84 220/371/92 219/372/91 211/357/83
f 211/358/83 219/373/91 217/374/89 209/359/81
f 222/375/94 214/365/86 216/366/131 224/376/96
f 224/377/96 216/367/131 215/368/87 223/378/95
f 223/378/95 215/368/87 213/369/85 221/379/93
f 281/380/26 290/310/34 292/311/36 283/381/28
f 283/238/28 292/312/36 291/313/35 284/239/27
f 284/239/27 291/313/35 289/314/33 282/240/25
f 218/382/90 226/383/98 228/384/100 220/385/92
f 220/385/92 228/384/100 227/386/99 219/387/91
f 219/373/91 227/388/99 225/389/97 217/374/89
f 230/390/102 222/391/94 224/392/96 232/393/104
f 232/394/104 224/377/96 223/378/95 231/395/103
f 231/395/103 223/378/95 221/379/93 229/396/101
f 226/383/98 234/397/106 236/398/108 228/384/100
f 228/384/100 236/398/108 235/399/107 227/386/99
f 227/388/99 235/400/107 233/401/105 225/389/97
f 258/402/2 266/11/10 268/14/12 260/403/4
f 260/404/4 268/15/12 267/18/11 259/405/3
f 259/405/3 267/18/11 265/20/9 257/406/1
f 238/407/110 230/390/102 232/393/104 240/408/112
f 240/409/112 232/394/104 231/395/103 239/410/111
f 239/410/111 231/395/103 229/396/101 237/411/109
f 234/397/106 242/412/114 244/413/116 236/398/108
f 236/398/108 244/413/116 243/414/115 235/399/107
f 235/400/107 243/415/115 241/416/113 233/401/105
f 246/417/118 238/407/110 240/408/112 248/418/132
f 248/419/132 240/409/112 239/410/111 247/420/119
f 247/420/119 239/410/111 237/411/109 245/421/117
f 286/422/30 278/218/22 280/221/24 288/423/32
f 288/423/32 280/221/24 279/223/23 287/424/31
f 287/353/31 279/224/23 277/227/21 285/354/29
f 242/412/114 250/425/122 252/426/124 244/413/116
f 244/413/116 252/426/124 251/427/123 243/414/115
f 243/415/115 251/428/123 249/429/121 241/416/113
f 254/430/126 246/417/118 248/418/132 256/431/128
f 256/432/128 248/419/132 247/420/119 255/433/127
f 255/433/127 247/420/119 245/421/117 253/434/125
f 250/435/122 130/267/2 132/268/4 252/436/124
f 252/436/124 132/268/4 131/269/3 251/437/123
f 251/428/123 131/270/3 129/271/1 249/429/121
f 134/208/6 254/438/126 256/439/128 136/209/8
f 136/210/8 256/432/128 255/433/127 135/211/7
f 135/211/7 255/433/127 253/434/125 133/212/5
f 306/151/50 314/440/58 316/441/60 308/152/134
f 308/155/134 316/442/60 315/443/59 307/156/51
f 307/156/51 315/443/59 313/444/57 305/158/49
f 318/445/62 310/297/54 312/298/56 320/446/64
f 320/446/64 312/298/56 311/299/55 319/447/63
f 319/448/63 311/300/55 309/301/53 317/449/61
f 314/450/58 322/451/66 324/452/68 316/453/60
f 316/442/60 324/454/68 323/455/67 315/443/59
f 315/443/59 323/455/67 321/456/65 313/444/57
f 326/457/70 318/458/62 320/459/64 328/460/72
f 328/460/72 320/459/64 319/461/63 327/462/71
f 327/463/71 319/448/63 317/449/61 325/464/69
f 322/451/66 330/465/74 332/466/76 324/452/68
f 324/454/68 332/467/76 331/468/75 323/455/67
f 323/455/67 331/468/75 329/469/73 321/456/65
f 334/470/78 326/457/70 328/460/72 336/471/80
f 336/471/80 328/460/72 327/462/71 335/472/79
f 335/473/79 327/463/71 325/464/69 333/474/77
f 330/465/74 338/475/82 340/476/135 332/466/76
f 332/467/76 340/477/135 339/478/83 331/468/75
f 331/468/75 339/478/83 337/479/81 329/469/73
f 342/480/86 334/470/78 336/471/80 344/481/88
f 344/481/88 336/471/80 335/472/79 343/482/87
f 343/483/87 335/473/79 333/474/77 341/484/85
f 338/475/82 346/485/90 348/486/92 340/476/135
f 340/477/135 348/487/92 347/488/91 339/478/83
f 339/478/83 347/488/91 345/489/89 337/479/81
f 350/490/94 342/480/86 344/481/88 352/491/96
f 352/491/96 344/481/88 343/482/87 351/492/95
f 351/493/95 343/483/87 341/484/85 349/494/93
f 346/495/90 354/496/98 356/497/100 348/498/92
f 348/487/92 356/499/100 355/500/99 347/488/91
f 347/488/91 355/500/99 353/501/97 345/489/89
f 358/502/102 350/503/94 352/504/96 360/505/104
f 360/505/104 352/504/96 351/506/95 359/507/103
f 359/508/103 351/493/95 349/494/93 357/509/101
f 354/496/98 362/510/106 364/511/108 356/497/100
f 356/499/100 364/512/108 363/513/107 355/500/99
f 355/500/99 363/513/107 361/514/105 353/501/97
f 366/515/110 358/502/102 360/505/104 368/516/112
f 368/516/112 360/505/104 359/507/103 367/517/111
f 367/518/111 359/508/103 357/509/101 365/519/109
f 362/510/106 370/520/114 372/521/136 364/511/108
f 364/512/108 372/522/136 371/523/115 363/513/107
f 363/513/107 371/523/115 369/524/113 361/514/105
f 374/525/118 366/515/110 368/516/112 376/526/120
f 376/526/120 368/516/112 367/517/111 375/527/119
f 375/528/119 367/518/111 365/519/109 373/529/117
f 370/520/114 378/530/122 380/531/124 372/521/136
f 372/522/136 380/532/124 379/533/123 371/523/115
f 371/523/115 379/533/123 377/534/121 369/524/113
f 382/535/126 374/525/118 376/526/120 384/536/128
f 384/536/128 376/526/120 375/527/119 383/537/127
f 383/538/127 375/528/119 373/529/117 381/539/125
f 378/540/122 258/402/2 260/403/4 380/541/124
f 380/532/124 260/404/4 259/405/3 379/533/123
f 379/533/123 259/405/3 257/406/1 377/534/121
f 262/360/6 382/542/126 384/543/128 264/361/8
f 264/361/8 384/543/128 383/544/127 263/362/7
f 263/363/7 383/538/127 381/539/125 261/364/5
f 1/30/1 9/29/9 17/65/17 25/78/25 33/91/33 41/116/41 49/126/49 57/149/57 65/182/65 73/192/73 81/207/81 89/235/89 97/256/97 105/266/105 113/281/113 121/296/121
f 2/21/2 6/42/6 14/41/14 10/22/10
f 122/290/122 126/302/126 6/42/6 2/21/2
f 13/50/13 5/49/5 125/309/125 117/286/117 109/276/109 101/261/101 93/248/93 85/217/85 77/197/77 69/187/69 61/167/61 53/136/53 45/121/45 37/106/37 29/86/29 21/70/21
f 10/22/10 14/41/14 22/66/22 18/61/18
f 18/71/18 22/80/22 30/79/30 26/72/26
f 26/72/26 30/79/30 38/102/38 34/87/34
f 34/87/34 38/102/38 46/117/46 42/112/42
f 42/112/42 46/117/46 54/132/54 50/122/50
f 50/142/50 54/161/54 62/160/62 58/143/58
f 58/143/58 62/160/62 70/183/70 66/178/66
f 66/178/66 70/183/70 78/193/78 74/188/74
f 74/188/74 78/193/78 86/213/86 82/203/82
f 82/228/82 86/242/86 94/241/94 90/229/90
f 90/229/90 94/241/94 102/257/102 98/252/98
f 98/252/98 102/257/102 110/272/110 106/262/106
f 106/262/106 110/272/110 118/282/118 114/277/114
f 114/289/114 118/303/118 126/302/126 122/290/122
f 250/435/122 254/438/126 134/208/6 130/267/2
f 130/267/2 134/208/6 142/93/14 138/127/10
f 209/359/81 217/374/89 225/389/97 233/401/105 241/416/113 249/429/121 129/271/1 137/131/9 145/40/17 154/39/25 161/141/33 169/60/41 177/59/49 185/319/57 193/332/65 201/344/73
f 173/9/45 165/111/37 157/202/29 149/101/21 141/100/13 133/212/5 253/434/125 245/421/117 237/411/109 229/396/101 221/379/93 213/369/85 205/349/77 197/339/69 189/324/61 181/10/53
f 138/127/10 142/93/14 150/92/22 146/31/18
f 146/31/18 150/92/22 158/287/30 153/32/26
f 153/249/26 158/198/30 166/107/38 162/137/34
f 162/137/34 166/107/38 174/2/46 170/51/42
f 170/51/42 174/2/46 182/1/54 178/52/50
f 178/52/50 182/1/54 190/320/62 186/315/58
f 186/325/58 190/334/62 198/333/70 194/326/66
f 194/326/66 198/333/70 206/345/78 202/340/74
f 202/340/74 206/345/78 214/365/86 210/355/82
f 210/355/82 214/365/86 222/375/94 218/370/90
f 218/382/90 222/391/94 230/390/102 226/383/98
f 226/383/98 230/390/102 238/407/110 234/397/106
f 234/397/106 238/407/110 246/417/118 242/412/114
f 242/412/114 246/417/118 254/430/126 250/425/122
f 378/540/122 382/542/126 262/360/6 258/402/2
f 258/402/2 262/360/6 270/219/14 266/11/10
f 273/19/17 282/240/25 289/314/33 297/159/41 305/158/49 313/444/57 321/456/65 329/469/73 337/479/81 345/489/89 353/501/97 361/514/105 369/524/113 377/534/121 257/406/1 265/20/9
f 317/449/61 309/301/53 301/177/45 293/176/37 285/354/29 277/227/21 269/226/13 261/364/5 381/539/125 373/529/117 365/519/109 357/509/101 349/494/93 341/484/85 333/474/77 325/464/69
f 266/11/10 270/219/14 278/218/22 274/12/18
f 274/12/18 278/218/22 286/422/30 281/236/26
f 281/380/26 286/350/30 294/169/38 290/310/34
f 290/310/34 294/169/38 302/168/46 298/150/42
f 298/150/42 302/168/46 310/297/54 306/151/50
f 306/151/50 310/297/54 318/445/62 314/440/58
f 314/450/58 318/458/62 326/457/70 322/451/66
f 322/451/66 326/457/70 334/470/78 330/465/74
f 330/465/74 334/470/78 342/480/86 338/475/82
f 338/475/82 342/480/86 350/490/94 346/485/90
f 346/495/90 350/503/94 358/502/102 354/496/98
f 354/496/98 358/502/102 366/515/110 362/510/106
f 362/510/106 366/515/110 374/525/118 370/520/114
f 370/520/114 374/525/118 382/535/126 378/530/122
