# Blender 5.0.1
# www.blender.org
mtllib BB_PROP_Gauge.mtl
o BB_PROP_Gauge
v 9.950969 -0.118372 -0.041271
v 9.947019 -0.127909 -0.031272
v 9.949012 -0.123097 -0.039932
v 9.947565 -0.126588 -0.036272
v 9.909402 -0.090598 -0.041271
v 9.902102 -0.097897 -0.031272
v 9.905786 -0.094215 -0.039932
v 9.903113 -0.096886 -0.036272
v 10.000000 0.139804 -0.050000
v 10.000000 0.150000 -0.040000
v 10.000000 0.144902 -0.048660
v 10.000000 0.148634 -0.045000
v 10.000000 0.150000 0.040000
v 10.000000 0.139804 0.050000
v 10.000000 0.148634 0.045000
v 10.000000 0.144902 0.048660
v 10.053501 0.129162 -0.050000
v 10.057403 0.138582 -0.040000
v 10.055451 0.133872 -0.048660
v 10.056880 0.137320 -0.045000
v 10.053501 0.129162 0.050000
v 10.057403 0.138582 0.040000
v 10.055451 0.133872 0.048660
v 10.056880 0.137320 0.045000
v 10.098856 0.098856 -0.050000
v 10.106066 0.106066 -0.040000
v 10.102461 0.102461 -0.048660
v 10.105100 0.105100 -0.045000
v 10.098856 0.098856 0.050000
v 10.106066 0.106066 0.040000
v 10.102461 0.102461 0.048660
v 10.105100 0.105100 0.045000
v 10.129162 0.053501 -0.050000
v 10.138582 0.057403 -0.040000
v 10.133872 0.055452 -0.048660
v 10.137320 0.056880 -0.045000
v 10.129162 0.053501 0.050000
v 10.138582 0.057403 0.040000
v 10.133872 0.055452 0.048660
v 10.137320 0.056880 0.045000
v 10.139804 -0.000000 -0.050000
v 10.150000 0.000000 -0.040000
v 10.144902 -0.000000 -0.048660
v 10.148634 -0.000000 -0.045000
v 10.139804 0.000000 0.050000
v 10.150000 0.000000 0.040000
v 10.144902 0.000000 0.048660
v 10.148634 0.000000 0.045000
v 10.129162 -0.053501 -0.050000
v 10.138582 -0.057403 -0.040000
v 10.133872 -0.055452 -0.048660
v 10.137320 -0.056880 -0.045000
v 10.129162 -0.053501 0.050000
v 10.138582 -0.057403 0.040000
v 10.133872 -0.055452 0.048660
v 10.137320 -0.056880 0.045000
v 10.098856 -0.098856 -0.050000
v 10.106066 -0.106066 -0.040000
v 10.102461 -0.102461 -0.048660
v 10.105100 -0.105100 -0.045000
v 10.098856 -0.098856 0.050000
v 10.106066 -0.106066 0.040000
v 10.102461 -0.102461 0.048660
v 10.105100 -0.105100 0.045000
v 10.053501 -0.129162 -0.050000
v 10.057403 -0.138582 -0.040000
v 10.055451 -0.133872 -0.048660
v 10.056880 -0.137320 -0.045000
v 10.053501 -0.129162 0.050000
v 10.057403 -0.138582 0.040000
v 10.055451 -0.133872 0.048660
v 10.056880 -0.137320 0.045000
v 10.000000 -0.139804 -0.050000
v 10.000000 -0.150000 -0.040000
v 10.000000 -0.144902 -0.048660
v 10.000000 -0.148634 -0.045000
v 10.000000 -0.139804 0.050000
v 10.000000 -0.150000 0.040000
v 10.000000 -0.144902 0.048660
v 10.000000 -0.148634 0.045000
v 9.946499 -0.129162 -0.050000
v 9.942597 -0.138582 -0.040000
v 9.944549 -0.133872 -0.048660
v 9.943120 -0.137320 -0.045000
v 9.946499 -0.129162 0.050000
v 9.942597 -0.138582 0.040000
v 9.944549 -0.133872 0.048660
v 9.943120 -0.137320 0.045000
v 9.901144 -0.098856 -0.050000
v 9.893934 -0.106066 -0.040000
v 9.897539 -0.102461 -0.048660
v 9.894900 -0.105100 -0.045000
v 9.901144 -0.098856 0.050000
v 9.893934 -0.106066 0.040000
v 9.897539 -0.102461 0.048660
v 9.894900 -0.105100 0.045000
v 9.870838 -0.053501 -0.050000
v 9.861418 -0.057403 -0.040000
v 9.866128 -0.055452 -0.048660
v 9.862680 -0.056880 -0.045000
v 9.870838 -0.053501 0.050000
v 9.861418 -0.057403 0.040000
v 9.866128 -0.055452 0.048660
v 9.862680 -0.056880 0.045000
v 9.860196 0.000000 -0.050000
v 9.850000 0.000000 -0.040000
v 9.855098 0.000000 -0.048660
v 9.851366 0.000000 -0.045000
v 9.860196 0.000000 0.050000
v 9.850000 0.000000 0.040000
v 9.855098 0.000000 0.048660
v 9.851366 0.000000 0.045000
v 9.870838 0.053501 -0.050000
v 9.861418 0.057403 -0.040000
v 9.866128 0.055452 -0.048660
v 9.862680 0.056880 -0.045000
v 9.870838 0.053501 0.050000
v 9.861418 0.057403 0.040000
v 9.866128 0.055452 0.048660
v 9.862680 0.056880 0.045000
v 9.901144 0.098856 -0.050000
v 9.893934 0.106066 -0.040000
v 9.897539 0.102461 -0.048660
v 9.894900 0.105100 -0.045000
v 9.901144 0.098856 0.050000
v 9.893934 0.106066 0.040000
v 9.897539 0.102461 0.048660
v 9.894900 0.105100 0.045000
v 9.946499 0.129162 -0.050000
v 9.942597 0.138582 -0.040000
v 9.944549 0.133872 -0.048660
v 9.943120 0.137320 -0.045000
v 9.946499 0.129162 0.050000
v 9.942597 0.138582 0.040000
v 9.944549 0.133872 0.048660
v 9.943120 0.137320 0.045000
v 10.000000 0.149804 -0.060000
v 10.000000 0.160000 -0.050000
v 10.000000 0.154902 -0.058660
v 10.000000 0.158634 -0.055000
v 10.000000 0.160000 0.050000
v 10.000000 0.149804 0.060000
v 10.000000 0.158634 0.055000
v 10.000000 0.154902 0.058660
v 10.057327 0.138401 -0.060000
v 10.061230 0.147821 -0.050000
v 10.059278 0.143111 -0.058660
v 10.060706 0.146559 -0.055000
v 10.061230 0.147821 0.050000
v 10.057327 0.138401 0.060000
v 10.060706 0.146559 0.055000
v 10.059278 0.143111 0.058660
v 10.105927 0.105927 -0.060000
v 10.113137 0.113137 -0.050000
v 10.109532 0.109532 -0.058660
v 10.112171 0.112171 -0.055000
v 10.105927 0.105927 0.060000
v 10.113137 0.113137 0.050000
v 10.109532 0.109532 0.058660
v 10.112171 0.112171 0.055000
v 10.147820 0.061229 -0.050000
v 10.138401 0.057328 -0.060000
v 10.146559 0.060707 -0.055000
v 10.143111 0.059278 -0.058660
v 10.147820 0.061229 0.050000
v 10.138401 0.057328 0.060000
v 10.146559 0.060707 0.055000
v 10.143111 0.059278 0.058660
v 10.149804 0.000000 -0.060000
v 10.160000 0.000000 -0.050000
v 10.154902 0.000000 -0.058660
v 10.158634 0.000000 -0.055000
v 10.160000 0.000000 0.050000
v 10.149804 0.000000 0.060000
v 10.158634 0.000000 0.055000
v 10.154902 0.000000 0.058660
v 10.138401 -0.057328 -0.060000
v 10.147820 -0.061229 -0.050000
v 10.143111 -0.059278 -0.058660
v 10.146559 -0.060707 -0.055000
v 10.147820 -0.061229 0.050000
v 10.138401 -0.057328 0.060000
v 10.146559 -0.060707 0.055000
v 10.143111 -0.059278 0.058660
v 10.105927 -0.105927 -0.060000
v 10.113137 -0.113137 -0.050000
v 10.109532 -0.109532 -0.058660
v 10.112171 -0.112171 -0.055000
v 10.105927 -0.105927 0.060000
v 10.113137 -0.113137 0.050000
v 10.109532 -0.109532 0.058660
v 10.112171 -0.112171 0.055000
v 10.057327 -0.138401 -0.060000
v 10.061230 -0.147821 -0.050000
v 10.059278 -0.143111 -0.058660
v 10.060706 -0.146559 -0.055000
v 10.057327 -0.138401 0.060000
v 10.061230 -0.147821 0.050000
v 10.059278 -0.143111 0.058660
v 10.060706 -0.146559 0.055000
v 10.000000 -0.149804 -0.060000
v 10.000000 -0.160000 -0.050000
v 10.000000 -0.154902 -0.058660
v 10.000000 -0.158634 -0.055000
v 10.000000 -0.149804 0.060000
v 10.000000 -0.160000 0.050000
v 10.000000 -0.154902 0.058660
v 10.000000 -0.158634 0.055000
v 9.942673 -0.138401 -0.060000
v 9.938770 -0.147821 -0.050000
v 9.940722 -0.143111 -0.058660
v 9.939294 -0.146559 -0.055000
v 9.942673 -0.138401 0.060000
v 9.938770 -0.147821 0.050000
v 9.940722 -0.143111 0.058660
v 9.939294 -0.146559 0.055000
v 9.894073 -0.105927 -0.060000
v 9.886863 -0.113137 -0.050000
v 9.890468 -0.109532 -0.058660
v 9.887829 -0.112171 -0.055000
v 9.894073 -0.105927 0.060000
v 9.886863 -0.113137 0.050000
v 9.890468 -0.109532 0.058660
v 9.887829 -0.112171 0.055000
v 9.861599 -0.057328 -0.060000
v 9.852180 -0.061229 -0.050000
v 9.856889 -0.059278 -0.058660
v 9.853441 -0.060707 -0.055000
v 9.861599 -0.057328 0.060000
v 9.852180 -0.061229 0.050000
v 9.856889 -0.059278 0.058660
v 9.853441 -0.060707 0.055000
v 9.850196 0.000000 -0.060000
v 9.840000 0.000000 -0.050000
v 9.845098 0.000000 -0.058660
v 9.841366 0.000000 -0.055000
v 9.850196 0.000000 0.060000
v 9.840000 0.000000 0.050000
v 9.845098 0.000000 0.058660
v 9.841366 0.000000 0.055000
v 9.861599 0.057328 -0.060000
v 9.852180 0.061229 -0.050000
v 9.856889 0.059278 -0.058660
v 9.853441 0.060707 -0.055000
v 9.861599 0.057328 0.060000
v 9.852180 0.061229 0.050000
v 9.856889 0.059278 0.058660
v 9.853441 0.060707 0.055000
v 9.894073 0.105927 -0.060000
v 9.886863 0.113137 -0.050000
v 9.890468 0.109532 -0.058660
v 9.887829 0.112171 -0.055000
v 9.894073 0.105927 0.060000
v 9.886863 0.113137 0.050000
v 9.890468 0.109532 0.058660
v 9.887829 0.112171 0.055000
v 9.942673 0.138401 -0.060000
v 9.938770 0.147821 -0.050000
v 9.940722 0.143111 -0.058660
v 9.939294 0.146559 -0.055000
v 9.942673 0.138401 0.060000
v 9.938770 0.147821 0.050000
v 9.940722 0.143111 0.058660
v 9.939294 0.146559 0.055000
v 9.901372 -0.098628 0.050001
v 9.894073 -0.105927 0.060000
v 9.900361 -0.099639 0.055000
v 9.897690 -0.102311 0.058660
v 9.946623 -0.128864 0.050001
v 9.942673 -0.138401 0.060000
v 9.946075 -0.130184 0.055000
v 9.944630 -0.133675 0.058660
v 10.128124 0.000000 -0.041271
v 10.138448 0.000000 -0.031272
v 10.133240 0.000000 -0.039932
v 10.137018 0.000000 -0.036272
v 10.118372 -0.049031 -0.041271
v 10.127909 -0.052982 -0.031272
v 10.123097 -0.050989 -0.039932
v 10.126588 -0.052435 -0.036272
v 10.128863 -0.053377 0.050001
v 10.138401 -0.057328 0.060000
v 10.130184 -0.053924 0.055000
v 10.133676 -0.055370 0.058660
v 10.139481 0.000000 0.050001
v 10.149804 0.000000 0.060000
v 10.140910 0.000000 0.055000
v 10.144690 0.000000 0.058660
v 10.000000 0.118125 -0.031271
v 10.000000 0.128479 -0.021273
v 10.000000 0.123244 -0.029932
v 10.000000 0.127034 -0.026272
v 10.045204 0.109133 -0.031271
v 10.049167 0.118699 -0.021273
v 10.047163 0.113862 -0.029932
v 10.048614 0.117364 -0.026272
v 10.049539 0.119596 0.040001
v 10.053501 0.129162 0.050000
v 10.050092 0.120931 0.045001
v 10.051541 0.124433 0.048660
v 10.000000 0.139804 0.050000
v 10.000000 0.129450 0.040001
v 10.000000 0.134685 0.048660
v 10.000000 0.130895 0.045001
v 10.083527 0.083527 -0.031271
v 10.090848 0.090848 -0.021273
v 10.087147 0.087146 -0.029932
v 10.089827 0.089826 -0.026272
v 10.091535 0.091535 0.040001
v 10.098856 0.098856 0.050000
v 10.092557 0.092557 0.045001
v 10.095237 0.095237 0.048660
v 10.109133 0.045204 -0.031271
v 10.118699 0.049167 -0.021273
v 10.113862 0.047163 -0.029932
v 10.117364 0.048614 -0.026272
v 10.129162 0.053501 0.050000
v 10.119596 0.049538 0.040001
v 10.124433 0.051542 0.048660
v 10.120932 0.050091 0.045001
v 10.000000 -0.128125 -0.041271
v 10.000000 -0.138448 -0.031272
v 10.000000 -0.133240 -0.039932
v 10.000000 -0.137018 -0.036272
v 10.000000 -0.149804 0.060000
v 10.000000 -0.139481 0.050001
v 10.000000 -0.144689 0.058660
v 10.000000 -0.140911 0.055000
v 10.118372 0.049031 -0.041271
v 10.127909 0.052982 -0.031272
v 10.123097 0.050989 -0.039932
v 10.126588 0.052435 -0.036272
v 10.138401 0.057328 0.060000
v 10.128863 0.053377 0.050001
v 10.133676 0.055370 0.058660
v 10.130184 0.053924 0.055000
v 10.118125 -0.000000 -0.031271
v 10.128479 0.000000 -0.021273
v 10.123243 -0.000000 -0.029932
v 10.127033 -0.000000 -0.026272
v 10.139804 0.000000 0.050000
v 10.129450 0.000000 0.040001
v 10.134685 0.000000 0.048660
v 10.130895 0.000000 0.045001
v 10.109133 -0.045204 -0.031271
v 10.118699 -0.049167 -0.021273
v 10.113862 -0.047163 -0.029932
v 10.117364 -0.048614 -0.026272
v 10.119596 -0.049538 0.040001
v 10.129162 -0.053501 0.050000
v 10.120932 -0.050091 0.045001
v 10.124433 -0.051542 0.048660
v 10.083527 -0.083527 -0.031271
v 10.090848 -0.090848 -0.021273
v 10.087147 -0.087146 -0.029932
v 10.089827 -0.089826 -0.026272
v 10.091535 -0.091535 0.040001
v 10.098856 -0.098856 0.050000
v 10.092557 -0.092557 0.045001
v 10.095237 -0.095237 0.048660
v 10.049031 -0.118372 -0.041271
v 10.052981 -0.127909 -0.031272
v 10.050988 -0.123097 -0.039932
v 10.052435 -0.126588 -0.036272
v 10.057327 -0.138401 0.060000
v 10.053377 -0.128864 0.050001
v 10.055370 -0.133675 0.058660
v 10.053925 -0.130184 0.055000
v 10.090598 0.090598 -0.041271
v 10.097898 0.097897 -0.031272
v 10.094214 0.094215 -0.039932
v 10.096887 0.096886 -0.036272
v 10.105927 0.105927 0.060000
v 10.098628 0.098628 0.050001
v 10.102310 0.102311 0.058660
v 10.099639 0.099639 0.055000
v 10.045204 -0.109133 -0.031271
v 10.049167 -0.118699 -0.021273
v 10.047163 -0.113862 -0.029932
v 10.048614 -0.117364 -0.026272
v 10.049539 -0.119596 0.040001
v 10.053501 -0.129162 0.050000
v 10.050092 -0.120931 0.045001
v 10.051541 -0.124433 0.048660
v 10.000000 -0.118125 -0.031271
v 10.000000 -0.128479 -0.021273
v 10.000000 -0.123244 -0.029932
v 10.000000 -0.127034 -0.026272
v 10.000000 -0.129450 0.040001
v 10.000000 -0.139804 0.050000
v 10.000000 -0.130895 0.045001
v 10.000000 -0.134685 0.048660
v 9.954796 -0.109133 -0.031271
v 9.950833 -0.118699 -0.021273
v 9.952837 -0.113862 -0.029932
v 9.951386 -0.117364 -0.026272
v 9.950461 -0.119596 0.040001
v 9.946499 -0.129162 0.050000
v 9.949908 -0.120931 0.045001
v 9.948459 -0.124433 0.048660
v 10.090598 -0.090598 -0.041271
v 10.097898 -0.097897 -0.031272
v 10.094214 -0.094215 -0.039932
v 10.096887 -0.096886 -0.036272
v 10.105927 -0.105927 0.060000
v 10.098628 -0.098628 0.050001
v 10.102310 -0.102311 0.058660
v 10.099639 -0.099639 0.055000
v 10.049031 0.118372 -0.041271
v 10.052981 0.127909 -0.031272
v 10.050988 0.123097 -0.039932
v 10.052435 0.126588 -0.036272
v 10.057327 0.138401 0.060000
v 10.053377 0.128864 0.050001
v 10.055370 0.133675 0.058660
v 10.053925 0.130184 0.055000
v 9.916473 -0.083527 -0.031271
v 9.909152 -0.090848 -0.021273
v 9.912853 -0.087146 -0.029932
v 9.910173 -0.089826 -0.026272
v 9.908465 -0.091535 0.040001
v 9.901144 -0.098856 0.050000
v 9.907443 -0.092557 0.045001
v 9.904763 -0.095237 0.048660
v 9.890867 -0.045204 -0.031271
v 9.881301 -0.049167 -0.021273
v 9.886138 -0.047163 -0.029932
v 9.882636 -0.048614 -0.026272
v 9.880404 -0.049538 0.040001
v 9.870838 -0.053501 0.050000
v 9.879068 -0.050091 0.045001
v 9.875567 -0.051542 0.048660
v 9.881875 0.000000 -0.031271
v 9.871521 0.000000 -0.021273
v 9.876757 0.000000 -0.029932
v 9.872967 0.000000 -0.026272
v 9.870550 0.000000 0.040001
v 9.860196 0.000000 0.050000
v 9.869105 0.000000 0.045001
v 9.865315 0.000000 0.048660
v 10.000000 0.128125 -0.041271
v 10.000000 0.138448 -0.031272
v 10.000000 0.133240 -0.039932
v 10.000000 0.137018 -0.036272
v 10.000000 0.149804 0.060000
v 10.000000 0.139481 0.050001
v 10.000000 0.144689 0.058660
v 10.000000 0.140911 0.055000
v 9.890867 0.045204 -0.031271
v 9.881301 0.049167 -0.021273
v 9.886138 0.047163 -0.029932
v 9.882636 0.048614 -0.026272
v 9.880404 0.049538 0.040001
v 9.870838 0.053501 0.050000
v 9.879068 0.050091 0.045001
v 9.875567 0.051542 0.048660
v 9.916473 0.083527 -0.031271
v 9.909152 0.090848 -0.021273
v 9.912853 0.087146 -0.029932
v 9.910173 0.089826 -0.026272
v 9.908465 0.091535 0.040001
v 9.901144 0.098856 0.050000
v 9.907443 0.092557 0.045001
v 9.904763 0.095237 0.048660
v 9.954796 0.109133 -0.031271
v 9.950833 0.118699 -0.021273
v 9.952837 0.113862 -0.029932
v 9.951386 0.117364 -0.026272
v 9.950461 0.119596 0.040001
v 9.946499 0.129162 0.050000
v 9.949908 0.120931 0.045001
v 9.948459 0.124433 0.048660
v 9.881628 -0.049031 -0.041271
v 9.872091 -0.052982 -0.031272
v 9.876903 -0.050989 -0.039932
v 9.873412 -0.052435 -0.036272
v 9.871137 -0.053377 0.050001
v 9.861599 -0.057328 0.060000
v 9.869816 -0.053924 0.055000
v 9.866324 -0.055370 0.058660
v 9.871876 0.000000 -0.041271
v 9.861552 0.000000 -0.031272
v 9.866760 0.000000 -0.039932
v 9.862982 0.000000 -0.036272
v 9.860519 0.000000 0.050001
v 9.850196 0.000000 0.060000
v 9.859090 0.000000 0.055000
v 9.855310 0.000000 0.058660
v 9.881628 0.049031 -0.041271
v 9.872091 0.052982 -0.031272
v 9.876903 0.050989 -0.039932
v 9.873412 0.052435 -0.036272
v 9.871137 0.053377 0.050001
v 9.861599 0.057328 0.060000
v 9.869816 0.053924 0.055000
v 9.866324 0.055370 0.058660
v 9.909402 0.090598 -0.041271
v 9.902102 0.097897 -0.031272
v 9.905786 0.094215 -0.039932
v 9.903113 0.096886 -0.036272
v 9.901372 0.098628 0.050001
v 9.894073 0.105927 0.060000
v 9.900361 0.099639 0.055000
v 9.897690 0.102311 0.058660
v 9.950969 0.118372 -0.041271
v 9.947019 0.127909 -0.031272
v 9.949012 0.123097 -0.039932
v 9.947565 0.126588 -0.036272
v 9.946623 0.128864 0.050001
v 9.942673 0.138401 0.060000
v 9.946075 0.130184 0.055000
v 9.944630 0.133675 0.058660
vn 0.0549 0.1324 0.9897
vn 0.3788 0.9144 0.1428
vn 0.1967 0.4748 0.8578
vn 0.3313 0.7999 0.5004
vn 0.1014 0.1014 0.9897
vn 0.6999 0.6999 0.1428
vn 0.3634 0.3634 0.8578
vn 0.6122 0.6122 0.5004
vn -0.0000 0.1438 -0.9896
vn -0.0000 0.9914 -0.1308
vn -0.0000 0.5172 -0.8559
vn -0.0000 0.8702 -0.4926
vn -0.0000 0.9914 0.1308
vn -0.0000 0.1354 0.9908
vn -0.0000 0.8702 0.4926
vn -0.0000 0.5172 0.8559
vn 0.0550 0.1329 -0.9896
vn 0.3794 0.9159 -0.1308
vn 0.1979 0.4778 -0.8559
vn 0.3330 0.8040 -0.4926
vn 0.0550 0.1329 0.9896
vn 0.3794 0.9159 0.1308
vn 0.1979 0.4778 0.8559
vn 0.3330 0.8040 0.4926
vn 0.1017 0.1017 -0.9896
vn 0.7010 0.7010 -0.1308
vn 0.3657 0.3657 -0.8559
vn 0.6154 0.6154 -0.4926
vn 0.0957 0.0957 0.9908
vn 0.7010 0.7010 0.1308
vn 0.3657 0.3657 0.8559
vn 0.6154 0.6154 0.4926
vn 0.1329 0.0550 -0.9896
vn 0.9159 0.3794 -0.1308
vn 0.4778 0.1979 -0.8559
vn 0.8040 0.3330 -0.4926
vn 0.2564 0.0555 0.9650
vn 0.9159 0.3794 0.1308
vn 0.4778 0.1979 0.8559
vn 0.8040 0.3330 0.4926
vn 0.1438 -0.0000 -0.9896
vn 0.9914 -0.0000 -0.1308
vn 0.5172 -0.0000 -0.8559
vn 0.8702 -0.0000 -0.4926
vn 0.5459 -0.0000 0.8378
vn 0.9914 -0.0000 0.1308
vn 0.5172 -0.0000 0.8559
vn 0.8702 -0.0000 0.4926
vn 0.1329 -0.0550 -0.9896
vn 0.9159 -0.3794 -0.1308
vn 0.4778 -0.1979 -0.8559
vn 0.8040 -0.3330 -0.4926
vn 0.1680 -0.0563 0.9842
vn 0.9159 -0.3794 0.1308
vn 0.4778 -0.1979 0.8559
vn 0.8040 -0.3330 0.4926
vn 0.1017 -0.1017 -0.9896
vn 0.7010 -0.7010 -0.1308
vn 0.3657 -0.3657 -0.8559
vn 0.6154 -0.6154 -0.4926
vn 0.0957 -0.0957 0.9908
vn 0.7010 -0.7010 0.1308
vn 0.3657 -0.3657 0.8559
vn 0.6154 -0.6154 0.4926
vn 0.0550 -0.1329 -0.9896
vn 0.3794 -0.9159 -0.1308
vn 0.1979 -0.4778 -0.8559
vn 0.3330 -0.8040 -0.4926
vn 0.0550 -0.1329 0.9896
vn 0.3794 -0.9159 0.1308
vn 0.1979 -0.4778 0.8559
vn 0.3330 -0.8040 0.4926
vn -0.0000 -0.1438 -0.9896
vn -0.0000 -0.9914 -0.1308
vn -0.0000 -0.5172 -0.8559
vn -0.0000 -0.8702 -0.4926
vn -0.0000 -0.1354 0.9908
vn -0.0000 -0.9914 0.1308
vn -0.0000 -0.5172 0.8559
vn -0.0000 -0.8702 0.4926
vn -0.0550 -0.1329 -0.9896
vn -0.3794 -0.9159 -0.1308
vn -0.1979 -0.4778 -0.8559
vn -0.3330 -0.8040 -0.4926
vn -0.0550 -0.1329 0.9896
vn -0.3794 -0.9159 0.1308
vn -0.1979 -0.4778 0.8559
vn -0.3330 -0.8040 0.4926
vn -0.1017 -0.1017 -0.9896
vn -0.7010 -0.7010 -0.1308
vn -0.3657 -0.3657 -0.8559
vn -0.6154 -0.6154 -0.4926
vn -0.0957 -0.0957 0.9908
vn -0.7010 -0.7010 0.1308
vn -0.3657 -0.3657 0.8559
vn -0.6154 -0.6154 0.4926
vn -0.1329 -0.0550 -0.9896
vn -0.9159 -0.3794 -0.1308
vn -0.4778 -0.1979 -0.8559
vn -0.8040 -0.3330 -0.4926
vn -0.2564 -0.0555 0.9650
vn -0.9159 -0.3794 0.1308
vn -0.4778 -0.1979 0.8559
vn -0.8040 -0.3330 0.4926
vn -0.1438 -0.0000 -0.9896
vn -0.9914 -0.0000 -0.1308
vn -0.5172 -0.0000 -0.8559
vn -0.8702 -0.0000 -0.4926
vn -0.5459 -0.0000 0.8378
vn -0.9914 -0.0000 0.1308
vn -0.5172 -0.0000 0.8559
vn -0.8702 -0.0000 0.4926
vn -0.1329 0.0550 -0.9896
vn -0.9159 0.3794 -0.1308
vn -0.4778 0.1979 -0.8559
vn -0.8040 0.3330 -0.4926
vn -0.1680 0.0563 0.9842
vn -0.9159 0.3794 0.1308
vn -0.4778 0.1979 0.8559
vn -0.8040 0.3330 0.4926
vn -0.1017 0.1017 -0.9896
vn -0.7010 0.7010 -0.1308
vn -0.3657 0.3657 -0.8559
vn -0.6154 0.6154 -0.4926
vn -0.0957 0.0957 0.9908
vn -0.7010 0.7010 0.1308
vn -0.3657 0.3657 0.8559
vn -0.6154 0.6154 0.4926
vn -0.0550 0.1329 -0.9896
vn -0.3794 0.9159 -0.1308
vn -0.1979 0.4778 -0.8559
vn -0.3330 0.8040 -0.4926
vn -0.0550 0.1329 0.9896
vn -0.3794 0.9159 0.1308
vn -0.1979 0.4778 0.8559
vn -0.3330 0.8040 0.4926
vn 0.1329 0.0550 0.9896
vn 0.1354 -0.0000 0.9908
vn 0.1329 -0.0550 0.9896
vn -0.1329 -0.0550 0.9896
vn -0.1354 -0.0000 0.9908
vn -0.1329 0.0550 0.9896
vn 0.6994 0.6994 0.1475
vn 0.0844 0.0844 0.9928
vn 0.6002 0.6002 0.5288
vn 0.3294 0.3294 0.8849
vn 0.3785 0.9138 0.1475
vn 0.0428 0.1034 0.9937
vn 0.3248 0.7842 0.5288
vn 0.1783 0.4304 0.8849
vn -0.1434 -0.0000 0.9897
vn -0.9898 -0.0000 0.1428
vn -0.5139 -0.0000 0.8578
vn -0.8658 -0.0000 0.5004
vn -0.1324 0.0549 0.9897
vn -0.9144 0.3788 0.1428
vn -0.4748 0.1967 0.8578
vn -0.7999 0.3313 0.5004
vn -0.9138 0.3785 0.1475
vn -0.1034 0.0428 0.9937
vn -0.7842 0.3248 0.5288
vn -0.4304 0.1783 0.8849
vn -0.9891 -0.0000 0.1475
vn -0.1194 -0.0000 0.9928
vn -0.8488 -0.0000 0.5288
vn -0.4658 -0.0000 0.8849
vn -0.0000 -0.1432 0.9897
vn -0.0000 -0.9893 0.1457
vn -0.0000 -0.5132 0.8583
vn -0.0000 -0.8647 0.5023
vn -0.0548 -0.1323 0.9897
vn -0.3786 -0.9140 0.1457
vn -0.1964 -0.4741 0.8583
vn -0.3309 -0.7989 0.5023
vn -0.3783 -0.9134 0.1505
vn -0.0428 -0.1034 0.9937
vn -0.3244 -0.7831 0.5307
vn -0.1780 -0.4297 0.8853
vn -0.0000 -0.1193 0.9929
vn -0.0000 -0.9886 0.1505
vn -0.0000 -0.4651 0.8853
vn -0.0000 -0.8476 0.5307
vn -0.1013 -0.1013 0.9897
vn -0.6996 -0.6996 0.1457
vn -0.3629 -0.3629 0.8583
vn -0.6114 -0.6114 0.5023
vn -0.6990 -0.6990 0.1505
vn -0.0844 -0.0844 0.9929
vn -0.5993 -0.5993 0.5307
vn -0.3289 -0.3289 0.8853
vn -0.1323 -0.0548 0.9897
vn -0.9140 -0.3786 0.1457
vn -0.4741 -0.1964 0.8583
vn -0.7989 -0.3309 0.5023
vn 0.0264 -0.0446 0.9987
vn -0.9134 -0.3783 0.1505
vn -0.4297 -0.1780 0.8853
vn -0.7831 -0.3244 0.5307
vn -0.0000 0.1434 0.9897
vn -0.0000 0.9898 0.1428
vn -0.0000 0.5139 0.8578
vn -0.0000 0.8658 0.5004
vn -0.0000 0.1194 0.9928
vn -0.0000 0.9891 0.1475
vn -0.0000 0.4658 0.8849
vn -0.0000 0.8488 0.5288
vn -0.1324 -0.0549 0.9897
vn -0.9144 -0.3788 0.1428
vn -0.4748 -0.1967 0.8578
vn -0.7999 -0.3313 0.5004
vn -0.1034 -0.0428 0.9937
vn -0.9138 -0.3785 0.1475
vn -0.4304 -0.1783 0.8849
vn -0.7842 -0.3248 0.5288
vn -0.1432 -0.0000 0.9897
vn -0.9893 -0.0000 0.1457
vn -0.5132 -0.0000 0.8583
vn -0.8647 -0.0000 0.5023
vn 0.3616 -0.0000 0.9323
vn -0.9886 -0.0000 0.1505
vn -0.4651 -0.0000 0.8853
vn -0.8476 -0.0000 0.5307
vn -0.1323 0.0548 0.9897
vn -0.9140 0.3786 0.1457
vn -0.4741 0.1964 0.8583
vn -0.7989 0.3309 0.5023
vn -0.9134 0.3783 0.1505
vn 0.5312 0.0623 0.8450
vn -0.7831 0.3244 0.5307
vn -0.4297 0.1780 0.8853
vn -0.1013 0.1013 0.9897
vn -0.6996 0.6996 0.1457
vn -0.3629 0.3629 0.8583
vn -0.6114 0.6114 0.5023
vn -0.6990 0.6990 0.1505
vn -0.0844 0.0844 0.9929
vn -0.5993 0.5993 0.5307
vn -0.3289 0.3289 0.8853
vn -0.0549 0.1324 0.9897
vn -0.3788 0.9144 0.1428
vn -0.1967 0.4748 0.8578
vn -0.3313 0.7999 0.5004
vn -0.0428 0.1034 0.9937
vn -0.3785 0.9138 0.1475
vn -0.1783 0.4304 0.8849
vn -0.3248 0.7842 0.5288
vn -0.1014 -0.1014 0.9897
vn -0.6999 -0.6999 0.1428
vn -0.3634 -0.3634 0.8578
vn -0.6122 -0.6122 0.5004
vn -0.0844 -0.0844 0.9928
vn -0.6994 -0.6994 0.1475
vn -0.3294 -0.3294 0.8849
vn -0.6002 -0.6002 0.5288
vn -0.0548 0.1323 0.9897
vn -0.3786 0.9140 0.1457
vn -0.1964 0.4741 0.8583
vn -0.3309 0.7989 0.5023
vn -0.3783 0.9134 0.1505
vn -0.3244 0.7831 0.5307
vn -0.1780 0.4297 0.8853
vn -0.0000 0.1432 0.9897
vn -0.0000 0.9893 0.1457
vn -0.0000 0.5132 0.8583
vn -0.0000 0.8647 0.5023
vn -0.0000 0.9886 0.1505
vn -0.0000 0.1193 0.9929
vn -0.0000 0.8476 0.5307
vn -0.0000 0.4651 0.8853
vn 0.0548 0.1323 0.9897
vn 0.3786 0.9140 0.1457
vn 0.1964 0.4741 0.8583
vn 0.3309 0.7989 0.5023
vn 0.3783 0.9134 0.1505
vn 0.3244 0.7831 0.5307
vn 0.1780 0.4297 0.8853
vn -0.1014 0.1014 0.9897
vn -0.6999 0.6999 0.1428
vn -0.3634 0.3634 0.8578
vn -0.6122 0.6122 0.5004
vn -0.0844 0.0844 0.9928
vn -0.6994 0.6994 0.1475
vn -0.3294 0.3294 0.8849
vn -0.6002 0.6002 0.5288
vn -0.0549 -0.1324 0.9897
vn -0.3788 -0.9144 0.1428
vn -0.1967 -0.4748 0.8578
vn -0.3313 -0.7999 0.5004
vn -0.3785 -0.9138 0.1475
vn -0.1783 -0.4304 0.8849
vn -0.3248 -0.7842 0.5288
vn 0.1013 0.1013 0.9897
vn 0.6996 0.6996 0.1457
vn 0.3629 0.3629 0.8583
vn 0.6114 0.6114 0.5023
vn 0.6990 0.6990 0.1505
vn 0.0844 0.0844 0.9929
vn 0.5993 0.5993 0.5307
vn 0.3289 0.3289 0.8853
vn 0.1323 0.0548 0.9897
vn 0.9140 0.3786 0.1457
vn 0.4741 0.1964 0.8583
vn 0.7989 0.3309 0.5023
vn 0.9134 0.3783 0.1505
vn -0.0264 0.0446 0.9987
vn 0.7831 0.3244 0.5307
vn 0.4297 0.1780 0.8853
vn 0.1432 -0.0000 0.9897
vn 0.9893 -0.0000 0.1457
vn 0.5132 -0.0000 0.8583
vn 0.8647 -0.0000 0.5023
vn 0.9886 -0.0000 0.1505
vn -0.3616 -0.0000 0.9323
vn 0.8476 -0.0000 0.5307
vn 0.4651 -0.0000 0.8853
vn -0.0000 -0.1434 0.9897
vn -0.0000 -0.9898 0.1428
vn -0.0000 -0.5139 0.8578
vn -0.0000 -0.8658 0.5004
vn -0.0000 -0.1194 0.9928
vn -0.0000 -0.9891 0.1475
vn -0.0000 -0.4658 0.8849
vn -0.0000 -0.8488 0.5288
vn 0.1323 -0.0548 0.9897
vn 0.9140 -0.3786 0.1457
vn 0.4741 -0.1964 0.8583
vn 0.7989 -0.3309 0.5023
vn 0.9134 -0.3783 0.1505
vn -0.5312 -0.0623 0.8450
vn 0.7831 -0.3244 0.5307
vn 0.4297 -0.1780 0.8853
vn 0.1013 -0.1013 0.9897
vn 0.6996 -0.6996 0.1457
vn 0.3629 -0.3629 0.8583
vn 0.6114 -0.6114 0.5023
vn 0.6990 -0.6990 0.1505
vn 0.0844 -0.0844 0.9929
vn 0.5993 -0.5993 0.5307
vn 0.3289 -0.3289 0.8853
vn 0.0548 -0.1323 0.9897
vn 0.3786 -0.9140 0.1457
vn 0.1964 -0.4741 0.8583
vn 0.3309 -0.7989 0.5023
vn 0.3783 -0.9134 0.1505
vn 0.0428 -0.1034 0.9937
vn 0.3244 -0.7831 0.5307
vn 0.1780 -0.4297 0.8853
vn 0.1324 0.0549 0.9897
vn 0.9144 0.3788 0.1428
vn 0.4748 0.1967 0.8578
vn 0.7999 0.3313 0.5004
vn 0.9138 0.3785 0.1475
vn 0.1034 0.0428 0.9937
vn 0.7842 0.3248 0.5288
vn 0.4304 0.1783 0.8849
vn 0.1434 -0.0000 0.9897
vn 0.9898 -0.0000 0.1428
vn 0.5139 -0.0000 0.8578
vn 0.8658 -0.0000 0.5004
vn 0.9891 -0.0000 0.1475
vn 0.1194 -0.0000 0.9928
vn 0.8488 -0.0000 0.5288
vn 0.4658 -0.0000 0.8849
vn 0.1324 -0.0549 0.9897
vn 0.9144 -0.3788 0.1428
vn 0.4748 -0.1967 0.8578
vn 0.7999 -0.3313 0.5004
vn 0.9138 -0.3785 0.1475
vn 0.1034 -0.0428 0.9937
vn 0.7842 -0.3248 0.5288
vn 0.4304 -0.1783 0.8849
vn 0.1014 -0.1014 0.9897
vn 0.6999 -0.6999 0.1428
vn 0.3634 -0.3634 0.8578
vn 0.6122 -0.6122 0.5004
vn 0.6994 -0.6994 0.1475
vn 0.0844 -0.0844 0.9928
vn 0.6002 -0.6002 0.5288
vn 0.3294 -0.3294 0.8849
vn 0.0549 -0.1324 0.9897
vn 0.3788 -0.9144 0.1428
vn 0.1967 -0.4748 0.8578
vn 0.3313 -0.7999 0.5004
vn 0.3785 -0.9138 0.1475
vn 0.3248 -0.7842 0.5288
vn 0.1783 -0.4304 0.8849
vt 0.696595 0.430202
vt 0.696349 0.375799
vt 0.705781 0.375775
vt 0.706026 0.429956
vt 0.277252 0.539239
vt 0.235626 0.580864
vt 0.232982 0.576907
vt 0.273294 0.536594
vt 0.230310 0.572908
vt 0.269296 0.533923
vt 0.901055 0.149157
vt 0.901136 0.093950
vt 0.905851 0.093967
vt 0.905771 0.149154
vt 0.910567 0.094000
vt 0.910486 0.149135
vt 0.307577 0.170122
vt 0.307577 0.114987
vt 0.316830 0.116828
vt 0.316830 0.168282
vt 0.596966 0.754620
vt 0.627707 0.785362
vt 0.622465 0.793207
vt 0.589121 0.759862
vt 0.996019 0.913140
vt 0.996211 0.945976
vt 0.991518 0.946514
vt 0.991322 0.913249
vt 0.986783 0.946747
vt 0.986586 0.913311
vt 0.602272 0.221007
vt 0.602026 0.262646
vt 0.592594 0.262687
vt 0.592838 0.221198
vt 0.026360 0.067986
vt 0.067986 0.026361
vt 0.070630 0.030318
vt 0.030318 0.070630
vt 0.073302 0.034316
vt 0.034316 0.073302
vt 0.825677 0.093840
vt 0.825596 0.149046
vt 0.820880 0.149029
vt 0.820961 0.093842
vt 0.816163 0.148996
vt 0.816244 0.093862
vt 0.328676 0.506170
vt 0.307577 0.455232
vt 0.316830 0.453391
vt 0.336520 0.500928
vt 0.602026 0.375937
vt 0.602272 0.430341
vt 0.592838 0.430122
vt 0.592594 0.375941
vt 0.181240 0.003833
vt 0.235626 0.026360
vt 0.232982 0.030318
vt 0.180311 0.008501
vt 0.230310 0.034316
vt 0.179373 0.013217
vt 0.901055 0.042946
vt 0.905771 0.042981
vt 0.910486 0.043062
vt 0.328676 0.064050
vt 0.336520 0.069291
vt 0.825596 0.042836
vt 0.820880 0.042856
vt 0.816163 0.042924
vt 0.367662 0.545156
vt 0.372903 0.537311
vt 0.900824 0.003909
vt 0.905541 0.004094
vt 0.910260 0.004587
vt 0.367662 0.025063
vt 0.372903 0.032908
vt 0.825366 0.003799
vt 0.820651 0.003970
vt 0.815937 0.004448
vt 0.418600 0.566255
vt 0.420440 0.557002
vt 0.655787 0.976215
vt 0.655943 0.925211
vt 0.660659 0.925201
vt 0.660504 0.975983
vt 0.665374 0.925175
vt 0.665222 0.975348
vt 0.418600 0.003964
vt 0.420440 0.013217
vt 0.107873 0.820357
vt 0.107627 0.765953
vt 0.117059 0.765930
vt 0.117304 0.820111
vt 0.067986 0.580864
vt 0.026361 0.539239
vt 0.030318 0.536594
vt 0.070630 0.576907
vt 0.034316 0.533923
vt 0.073302 0.572908
vt 0.580485 0.925211
vt 0.580329 0.976215
vt 0.575613 0.975982
vt 0.575768 0.925201
vt 0.570899 0.975348
vt 0.571051 0.925175
vt 0.473734 0.566255
vt 0.471894 0.557002
vt 0.696262 0.316912
vt 0.705695 0.316908
vt 0.181240 0.603392
vt 0.180311 0.598724
vt 0.179373 0.594007
vt 0.655943 0.870005
vt 0.660659 0.870014
vt 0.665374 0.870040
vt 0.473734 0.003964
vt 0.471894 0.013217
vt 0.580485 0.870005
vt 0.575768 0.870014
vt 0.571051 0.870040
vt 0.524672 0.545156
vt 0.519431 0.537311
vt 0.336520 0.500928
vt 0.326262 0.451515
vt 0.344517 0.495585
vt 0.919352 0.913804
vt 0.919282 0.869734
vt 0.923978 0.869736
vt 0.924048 0.913797
vt 0.928714 0.869719
vt 0.928784 0.913735
vt 0.655787 0.819001
vt 0.660504 0.819233
vt 0.665222 0.819868
vt 0.524672 0.025063
vt 0.519431 0.032908
vt 0.013304 0.766092
vt 0.013550 0.820496
vt 0.004116 0.820277
vt 0.003872 0.766096
vt 0.003833 0.122372
vt 0.008501 0.123301
vt 0.013217 0.124239
vt 0.580329 0.819001
vt 0.575613 0.819233
vt 0.570899 0.819868
vt 0.563658 0.506170
vt 0.555814 0.500928
vt 0.601939 0.317051
vt 0.592507 0.317074
vt 0.122372 0.003833
vt 0.123301 0.008501
vt 0.124239 0.013217
vt 0.900784 0.770379
vt 0.901015 0.719376
vt 0.905731 0.719373
vt 0.905501 0.770154
vt 0.910446 0.719354
vt 0.910220 0.769526
vt 0.563658 0.064050
vt 0.555814 0.069291
vt 0.470018 0.547569
vt 0.514088 0.529315
vt 0.918098 0.692593
vt 0.918098 0.644892
vt 0.922794 0.644897
vt 0.922794 0.692588
vt 0.927530 0.644921
vt 0.927530 0.692564
vt 0.825556 0.719265
vt 0.825326 0.770269
vt 0.820611 0.770030
vt 0.820840 0.719249
vt 0.815897 0.769388
vt 0.816123 0.719216
vt 0.584758 0.455232
vt 0.575505 0.453391
vt 0.422317 0.547569
vt 0.918232 0.600822
vt 0.922928 0.600836
vt 0.927664 0.600905
vt 0.901096 0.664170
vt 0.905812 0.664186
vt 0.910527 0.664219
vt 0.584758 0.114987
vt 0.575505 0.116828
vt 0.825637 0.664059
vt 0.820921 0.664062
vt 0.816204 0.664081
vt 0.584758 0.400097
vt 0.575505 0.401938
vt 0.901015 0.613166
vt 0.905731 0.613200
vt 0.910446 0.613281
vt 0.584758 0.170122
vt 0.575505 0.168282
vt 0.825556 0.613055
vt 0.820840 0.613075
vt 0.816123 0.613143
vt 0.563658 0.349159
vt 0.555814 0.354401
vt 0.696349 0.262508
vt 0.705781 0.262521
vt 0.122372 0.603392
vt 0.123301 0.598724
vt 0.124239 0.594007
vt 0.900784 0.574129
vt 0.905501 0.574313
vt 0.910220 0.574806
vt 0.563659 0.221060
vt 0.555814 0.215819
vt 0.107540 0.707067
vt 0.116973 0.707063
vt 0.003833 0.484852
vt 0.008501 0.483924
vt 0.013217 0.482985
vt 0.825326 0.574018
vt 0.820611 0.574189
vt 0.815897 0.574667
vt 0.524672 0.310173
vt 0.519431 0.318018
vt 0.798487 0.239072
vt 0.798775 0.200035
vt 0.803491 0.200008
vt 0.803205 0.238894
vt 0.808207 0.199934
vt 0.807925 0.238409
vt 0.524672 0.260046
vt 0.519431 0.252202
vt 0.378246 0.529315
vt 0.919551 0.947534
vt 0.924248 0.947657
vt 0.928983 0.947424
vt 0.723317 0.200035
vt 0.723029 0.239072
vt 0.718314 0.238894
vt 0.718600 0.200008
vt 0.713601 0.238409
vt 0.713883 0.199934
vt 0.473734 0.289074
vt 0.471894 0.298327
vt 0.798931 0.149031
vt 0.803647 0.149022
vt 0.808362 0.148996
vt 0.473734 0.281145
vt 0.471894 0.271892
vt 0.667873 0.801999
vt 0.666032 0.811252
vt 0.995139 0.568763
vt 0.994899 0.601598
vt 0.990201 0.601483
vt 0.990446 0.568218
vt 0.985465 0.601414
vt 0.985712 0.567978
vt 0.723473 0.149031
vt 0.718756 0.149022
vt 0.714039 0.148996
vt 0.418600 0.289074
vt 0.420440 0.298327
vt 0.711347 0.801999
vt 0.751513 0.785362
vt 0.756755 0.793207
vt 0.713188 0.811252
vt 0.994766 0.645165
vt 0.994766 0.692321
vt 0.990068 0.692361
vt 0.990068 0.645124
vt 0.985332 0.692386
vt 0.985332 0.645100
vt 0.798931 0.093825
vt 0.803647 0.093835
vt 0.808362 0.093861
vt 0.418600 0.281145
vt 0.420440 0.271892
vt 0.013217 0.707205
vt 0.003785 0.707229
vt 0.003833 0.181240
vt 0.008501 0.180311
vt 0.013217 0.179373
vt 0.723473 0.093825
vt 0.718756 0.093835
vt 0.714039 0.093861
vt 0.367662 0.310173
vt 0.372903 0.318018
vt 0.798775 0.042821
vt 0.803491 0.042849
vt 0.808207 0.042923
vt 0.367662 0.260046
vt 0.372903 0.252202
vt 0.782254 0.754620
vt 0.790099 0.759862
vt 0.994899 0.735887
vt 0.990201 0.736003
vt 0.985465 0.736072
vt 0.723317 0.042821
vt 0.718600 0.042849
vt 0.713884 0.042923
vt 0.328676 0.349159
vt 0.336520 0.354401
vt 0.696595 0.220868
vt 0.706026 0.221032
vt 0.798487 0.003785
vt 0.803205 0.003963
vt 0.807925 0.004448
vt 0.328676 0.221060
vt 0.336520 0.215819
vt 0.723029 0.003785
vt 0.718314 0.003963
vt 0.713601 0.004448
vt 0.307577 0.400097
vt 0.316830 0.401938
vt 0.900824 0.200160
vt 0.905541 0.199935
vt 0.910260 0.199307
vt 0.825366 0.200049
vt 0.820650 0.199810
vt 0.815937 0.199169
vt 0.696262 0.213271
vt 0.696508 0.158867
vt 0.705940 0.158872
vt 0.705696 0.213053
vt 0.277252 0.067986
vt 0.273294 0.070630
vt 0.269296 0.073302
vt 0.580329 0.714455
vt 0.571075 0.716296
vt 0.995950 0.869574
vt 0.991252 0.869607
vt 0.986516 0.869625
vt 0.602185 0.158729
vt 0.601939 0.213133
vt 0.592508 0.212887
vt 0.592753 0.158706
vt 0.299779 0.484852
vt 0.295111 0.483924
vt 0.290395 0.482985
vt 0.696595 0.099981
vt 0.706027 0.100004
vt 0.299779 0.122372
vt 0.295111 0.123301
vt 0.290395 0.124239
vt 0.602272 0.099842
vt 0.592839 0.099838
vt 0.299779 0.425985
vt 0.295111 0.426913
vt 0.290395 0.427851
vt 0.125180 0.589275
vt 0.178432 0.589275
vt 0.126115 0.584575
vt 0.177497 0.584575
vt 0.713597 0.330444
vt 0.713742 0.282974
vt 0.723174 0.283040
vt 0.723029 0.330468
vt 0.696508 0.045577
vt 0.705940 0.045618
vt 0.299779 0.181240
vt 0.295111 0.180311
vt 0.290395 0.179373
vt 0.227630 0.568897
vt 0.224967 0.564912
vt 0.713597 0.381826
vt 0.723029 0.381802
vt 0.602185 0.045438
vt 0.592753 0.045452
vt 0.277252 0.371598
vt 0.273294 0.374243
vt 0.269296 0.376914
vt 0.458940 0.820501
vt 0.502505 0.802456
vt 0.507747 0.810301
vt 0.460780 0.829755
vt 0.809273 0.283750
vt 0.809129 0.330717
vt 0.804428 0.330679
vt 0.804571 0.283643
vt 0.799695 0.330658
vt 0.799839 0.283582
vt 0.696262 0.003937
vt 0.705696 0.004129
vt 0.277252 0.235626
vt 0.273294 0.232982
vt 0.269296 0.230310
vt 0.601939 0.003799
vt 0.592508 0.003963
vt 0.235626 0.329973
vt 0.232982 0.333930
vt 0.230310 0.337929
vt 0.134639 0.611162
vt 0.134393 0.652801
vt 0.124961 0.652842
vt 0.125206 0.611353
vt 0.235626 0.277252
vt 0.232982 0.273294
vt 0.230310 0.269296
vt 0.535849 0.769112
vt 0.543694 0.774354
vt 0.809129 0.381553
vt 0.804428 0.381591
vt 0.799695 0.381612
vt 0.228717 0.652663
vt 0.228963 0.611023
vt 0.238394 0.611187
vt 0.238149 0.652676
vt 0.181240 0.307445
vt 0.180311 0.312113
vt 0.179373 0.316830
vt 0.269296 0.376914
vt 0.285663 0.428793
vt 0.265284 0.379595
vt 0.280962 0.429728
vt 0.261299 0.382257
vt 0.815893 0.876814
vt 0.815969 0.825433
vt 0.825401 0.825470
vt 0.825326 0.876805
vt 0.134307 0.707205
vt 0.124875 0.707229
vt 0.181240 0.299779
vt 0.180311 0.295111
vt 0.179373 0.290395
vt 0.228630 0.707067
vt 0.238063 0.707063
vt 0.122372 0.307445
vt 0.123301 0.312113
vt 0.124239 0.316830
vt 0.535849 0.634826
vt 0.502505 0.601482
vt 0.507747 0.593637
vt 0.543694 0.629584
vt 0.911501 0.825846
vt 0.911426 0.876682
vt 0.906725 0.876713
vt 0.906799 0.825801
vt 0.901992 0.876727
vt 0.902067 0.825773
vt 0.134393 0.766092
vt 0.124961 0.766096
vt 0.122372 0.299779
vt 0.123301 0.295111
vt 0.124239 0.290395
vt 0.227630 0.341940
vt 0.224967 0.345925
vt 0.815969 0.924285
vt 0.825401 0.924232
vt 0.228717 0.765954
vt 0.238149 0.765930
vt 0.067986 0.329973
vt 0.070630 0.333930
vt 0.073302 0.337929
vt 0.918481 0.567092
vt 0.923179 0.566977
vt 0.927913 0.567217
vt 0.134639 0.820496
vt 0.125206 0.820277
vt 0.067986 0.277252
vt 0.070630 0.273294
vt 0.073302 0.269296
vt 0.228963 0.820357
vt 0.238394 0.820111
vt 0.026360 0.371598
vt 0.030318 0.374243
vt 0.034316 0.376914
vt 0.013550 0.611162
vt 0.013304 0.652801
vt 0.003872 0.652842
vt 0.004116 0.611353
vt 0.026361 0.235626
vt 0.030318 0.232982
vt 0.034316 0.230310
vt 0.458940 0.583437
vt 0.460780 0.574183
vt 0.911501 0.923649
vt 0.906799 0.923749
vt 0.902067 0.923803
vt 0.107627 0.652663
vt 0.107873 0.611023
vt 0.117304 0.611187
vt 0.117059 0.652676
vt 0.003833 0.425985
vt 0.008501 0.426913
vt 0.013217 0.427851
vt 0.547818 0.495585
vt 0.918232 0.736663
vt 0.922928 0.736649
vt 0.927664 0.736580
vt 0.553894 0.678391
vt 0.563148 0.676551
vt 0.911708 0.779642
vt 0.907011 0.778970
vt 0.902280 0.778697
vt 0.285663 0.482044
vt 0.280962 0.481109
vt 0.816183 0.777963
vt 0.825616 0.778043
vt 0.411784 0.820501
vt 0.409944 0.829755
vt 0.809532 0.248313
vt 0.804835 0.247780
vt 0.800105 0.247552
vt 0.075982 0.568897
vt 0.078645 0.564912
vt 0.714010 0.246642
vt 0.723442 0.246741
vt 0.798891 0.714455
vt 0.808145 0.716296
vt 0.995139 0.768723
vt 0.990446 0.769267
vt 0.985712 0.769508
vt 0.566072 0.451515
vt 0.918481 0.770393
vt 0.923179 0.770509
vt 0.927913 0.770269
vt 0.798891 0.670980
vt 0.808145 0.669140
vt 0.995067 0.005435
vt 0.994875 0.048240
vt 0.990178 0.048192
vt 0.990374 0.004756
vt 0.985442 0.048161
vt 0.985639 0.004475
vt 0.566072 0.403814
vt 0.918208 0.047855
vt 0.918407 0.003785
vt 0.923104 0.003601
vt 0.922904 0.047867
vt 0.927839 0.003882
vt 0.927640 0.047898
vt 0.782254 0.630815
vt 0.790099 0.625573
vt 0.994806 0.095396
vt 0.990108 0.095429
vt 0.985372 0.095447
vt 0.547818 0.359744
vt 0.918138 0.095556
vt 0.922834 0.095558
vt 0.927570 0.095540
vt 0.553894 0.725547
vt 0.563148 0.727387
vt 0.809273 0.428520
vt 0.809532 0.463957
vt 0.804835 0.464490
vt 0.804571 0.428627
vt 0.800105 0.464718
vt 0.799839 0.428688
vt 0.265284 0.531242
vt 0.261300 0.528580
vt 0.714010 0.465628
vt 0.713742 0.429296
vt 0.723174 0.429229
vt 0.723442 0.465528
vt 0.368219 0.802456
vt 0.362977 0.810301
vt 0.912714 0.392328
vt 0.912922 0.427765
vt 0.908224 0.428291
vt 0.908013 0.392428
vt 0.903493 0.428512
vt 0.903280 0.392482
vt 0.034316 0.533923
vt 0.038328 0.531242
vt 0.042313 0.528580
vt 0.817397 0.429296
vt 0.817182 0.392964
vt 0.826614 0.392911
vt 0.826829 0.429210
vt 0.751513 0.600074
vt 0.756755 0.592229
vt 0.994875 0.138962
vt 0.990178 0.139071
vt 0.985442 0.139133
vt 0.514088 0.326014
vt 0.918208 0.139626
vt 0.922904 0.139619
vt 0.927640 0.139557
vt 0.711347 0.583437
vt 0.713188 0.574183
vt 0.995067 0.171798
vt 0.990374 0.172336
vt 0.985639 0.172569
vt 0.470018 0.307760
vt 0.918407 0.173356
vt 0.923104 0.173479
vt 0.927839 0.173246
vt 0.667873 0.583437
vt 0.666032 0.574183
vt 0.080582 0.829617
vt 0.080453 0.872422
vt 0.075755 0.872381
vt 0.075888 0.828945
vt 0.071019 0.872357
vt 0.071153 0.828671
vt 0.422317 0.307760
vt 0.003785 0.872149
vt 0.003919 0.828079
vt 0.008617 0.827888
vt 0.008481 0.872154
vt 0.013352 0.828162
vt 0.013217 0.872178
vt 0.334875 0.769112
vt 0.327030 0.774354
vt 0.912639 0.345361
vt 0.907938 0.345392
vt 0.903206 0.345406
vt 0.017949 0.482044
vt 0.022650 0.481109
vt 0.817107 0.345493
vt 0.826539 0.345484
vt 0.627707 0.600074
vt 0.622465 0.592229
vt 0.080453 0.919578
vt 0.075755 0.919618
vt 0.071019 0.919643
vt 0.372903 0.318018
vt 0.378246 0.326014
vt 0.003785 0.919850
vt 0.008481 0.919845
vt 0.013217 0.919821
vt 0.596966 0.630815
vt 0.589121 0.625573
vt 0.080582 0.962382
vt 0.075888 0.963055
vt 0.071153 0.963329
vt 0.344517 0.359744
vt 0.003919 0.963920
vt 0.008617 0.964111
vt 0.013352 0.963838
vt 0.580329 0.670980
vt 0.571075 0.669140
vt 0.996211 0.779613
vt 0.996019 0.822418
vt 0.991322 0.822370
vt 0.991518 0.778934
vt 0.986586 0.822339
vt 0.986783 0.778653
vt 0.326262 0.403814
vt 0.919352 0.822033
vt 0.919551 0.777963
vt 0.924248 0.777779
vt 0.924048 0.822045
vt 0.928983 0.778060
vt 0.928784 0.822076
vt 0.411784 0.583437
vt 0.409944 0.574183
vt 0.911708 0.959087
vt 0.907011 0.959613
vt 0.902280 0.959834
vt 0.179373 0.316830
vt 0.178432 0.321562
vt 0.177497 0.326262
vt 0.816183 0.960617
vt 0.825616 0.960532
vt 0.368219 0.601482
vt 0.362977 0.593637
vt 0.768618 0.820540
vt 0.768478 0.866744
vt 0.763776 0.866706
vt 0.763919 0.819875
vt 0.759044 0.866685
vt 0.759188 0.819609
vt 0.125180 0.321562
vt 0.126115 0.326262
vt 0.672945 0.866471
vt 0.673090 0.819001
vt 0.682523 0.819067
vt 0.682378 0.866495
vt 0.334875 0.634826
vt 0.327030 0.629584
vt 0.768478 0.917580
vt 0.763776 0.917618
vt 0.759044 0.917639
vt 0.073302 0.337929
vt 0.075982 0.341940
vt 0.078645 0.345925
vt 0.672945 0.917853
vt 0.682378 0.917829
vt 0.316830 0.678392
vt 0.307576 0.676551
vt 0.768617 0.963784
vt 0.763919 0.964449
vt 0.759188 0.964715
vt 0.038328 0.379595
vt 0.042313 0.382257
vt 0.673090 0.965323
vt 0.682523 0.965256
vt 0.316830 0.725547
vt 0.307576 0.727387
vt 0.912922 0.248320
vt 0.912714 0.294524
vt 0.908013 0.294480
vt 0.908224 0.247649
vt 0.903280 0.294451
vt 0.903493 0.247376
vt 0.013217 0.427851
vt 0.017949 0.428793
vt 0.022650 0.429728
vt 0.817182 0.294112
vt 0.817397 0.246642
vt 0.826829 0.246722
vt 0.826614 0.294149
s 1
usemtl BB_AgedBrass
f 190/1/62 181/2/54 183/3/56 192/4/64
f 10/11/10 18/12/18 20/13/20 12/14/12
f 12/14/12 20/13/20 19/15/19 11/16/11
f 11/17/11 19/18/19 17/19/17 9/20/9
f 293/21/171 305/22/183 307/23/185 295/24/173
f 295/25/173 307/26/185 308/27/186 296/28/174
f 296/28/174 308/27/186 306/29/184 294/30/172
f 154/31/26 161/32/34 163/33/36 156/34/28
f 156/35/28 163/36/36 164/37/35 155/38/27
f 155/38/27 164/37/35 162/39/33 153/40/25
f 22/41/22 13/42/13 15/43/15 24/44/24
f 24/44/24 15/43/15 16/45/16 23/46/23
f 178/51/50 186/52/58 188/53/60 180/54/52
f 180/55/52 188/56/60 187/57/59 179/58/51
f 179/58/51 187/57/59 185/59/57 177/60/49
f 18/12/18 26/61/26 28/62/28 20/13/20
f 20/13/20 28/62/28 27/63/27 19/15/19
f 19/18/19 27/64/27 25/65/25 17/19/17
f 30/66/30 22/41/22 24/44/24 32/67/32
f 32/67/32 24/44/24 23/46/23 31/68/31
f 26/61/26 34/71/34 36/72/36 28/62/28
f 28/62/28 36/72/36 35/73/35 27/63/27
f 27/64/27 35/74/35 33/75/33 25/65/25
f 38/76/38 30/66/30 32/67/32 40/77/40
f 40/77/40 32/67/32 31/68/31 39/78/39
f 34/81/34 42/82/42 44/83/44 36/84/36
f 36/84/36 44/83/44 43/85/43 35/86/35
f 35/74/35 43/87/43 41/88/41 33/75/33
f 158/89/30 149/90/22 151/91/24 160/92/32
f 46/99/46 38/100/38 40/101/40 48/102/48
f 48/102/48 40/101/40 39/103/39 47/104/47
f 181/2/54 173/107/46 175/108/48 183/3/56
f 42/82/42 50/112/50 52/113/52 44/83/44
f 44/83/44 52/113/52 51/114/51 43/85/43
f 43/87/43 51/115/51 49/116/49 41/88/41
f 54/117/54 46/99/46 48/102/48 56/118/56
f 56/118/56 48/102/48 47/104/47 55/119/55
f 300/125/178 303/126/181 304/127/182 299/128/177
f 299/128/177 304/127/182 302/129/180 297/130/175
f 50/112/50 58/131/58 60/132/60 52/113/52
f 52/113/52 60/132/60 59/133/59 51/114/51
f 51/115/51 59/134/59 57/135/57 49/116/49
f 146/136/18 154/137/26 156/138/28 148/139/20
f 148/140/20 156/35/28 155/38/27 147/141/19
f 147/141/19 155/38/27 153/40/25 145/142/17
f 62/143/62 54/117/54 56/118/56 64/144/64
f 64/144/64 56/118/56 55/119/55 63/145/63
f 170/148/42 178/51/50 180/54/52 172/149/44
f 172/150/44 180/55/52 179/58/51 171/151/43
f 171/151/43 179/58/51 177/60/49 169/152/41
f 58/153/58 66/154/66 68/155/68 60/156/60
f 60/156/60 68/155/68 67/157/67 59/158/59
f 59/134/59 67/159/67 65/160/65 57/135/57
f 352/163/230 343/164/221 344/165/222 351/166/229
f 351/166/229 344/165/222 342/167/220 349/168/227
f 70/169/70 62/170/62 64/171/64 72/172/72
f 72/172/72 64/171/64 63/173/63 71/174/71
f 343/164/221 319/178/197 320/179/198 344/165/222
f 344/165/222 320/179/198 318/180/196 342/167/220
f 66/154/66 74/181/74 76/182/76 68/155/68
f 68/155/68 76/182/76 75/183/75 67/157/67
f 67/159/67 75/184/75 73/185/73 65/160/65
f 78/186/78 70/169/70 72/172/72 80/187/80
f 80/187/80 72/172/72 71/174/71 79/188/79
f 74/181/74 82/191/82 84/192/84 76/182/76
f 76/182/76 84/192/84 83/193/83 75/183/75
f 75/184/75 83/194/83 81/195/81 73/185/73
f 86/196/86 78/186/78 80/187/80 88/197/88
f 88/197/88 80/187/80 79/188/79 87/198/87
f 173/107/46 165/201/38 167/202/40 175/108/48
f 82/191/82 90/206/90 92/207/92 84/192/84
f 84/192/84 92/207/92 91/208/91 83/193/83
f 83/194/83 91/209/91 89/210/89 81/195/81
f 149/90/22 141/211/13 143/212/15 151/91/24
f 94/216/94 86/196/86 88/197/88 96/217/96
f 96/217/96 88/197/88 87/198/87 95/218/95
f 90/221/90 98/222/98 100/223/100 92/224/92
f 92/224/92 100/223/100 99/225/99 91/226/91
f 91/209/91 99/227/99 97/228/97 89/210/89
f 312/230/190 300/125/178 299/128/177 311/231/189
f 311/231/189 299/128/177 297/130/175 309/232/187
f 102/233/102 94/234/94 96/235/96 104/236/104
f 104/236/104 96/235/96 95/237/95 103/238/103
f 161/32/34 170/148/42 172/149/44 163/33/36
f 163/36/36 172/150/44 171/151/43 164/37/35
f 164/37/35 171/151/43 169/152/41 162/39/33
f 98/222/98 106/241/106 108/242/108 100/223/100
f 100/223/100 108/242/108 107/243/107 99/225/99
f 99/227/99 107/244/107 105/245/105 97/228/97
f 305/22/183 313/246/191 315/247/193 307/23/185
f 307/248/185 315/249/193 316/250/194 308/251/186
f 308/251/186 316/250/194 314/252/192 306/253/184
f 110/254/110 102/233/102 104/236/104 112/255/112
f 112/255/112 104/236/104 103/238/103 111/256/111
f 337/259/215 345/260/223 347/261/225 339/262/217
f 339/263/217 347/264/225 348/265/226 340/266/218
f 340/266/218 348/265/226 346/267/224 338/268/216
f 106/241/106 114/269/114 116/270/116 108/242/108
f 108/242/108 116/270/116 115/271/115 107/243/107
f 107/244/107 115/272/115 113/273/113 105/245/105
f 138/274/10 146/136/18 148/139/20 140/275/12
f 140/276/12 148/140/20 147/141/19 139/277/11
f 139/277/11 147/141/19 145/142/17 137/278/9
f 118/279/118 110/254/110 112/255/112 120/280/120
f 120/280/120 112/255/112 111/256/111 119/281/119
f 114/269/114 122/284/122 124/285/124 116/270/116
f 116/270/116 124/285/124 123/286/123 115/271/115
f 115/272/115 123/287/123 121/288/121 113/273/113
f 345/260/223 353/289/231 355/290/233 347/261/225
f 347/264/225 355/291/233 356/292/234 348/265/226
f 348/265/226 356/292/234 354/293/232 346/267/224
f 126/294/126 118/279/118 120/280/120 128/295/128
f 128/295/128 120/280/120 119/281/119 127/296/127
f 165/201/38 158/299/30 160/300/32 167/202/40
f 122/284/122 130/301/130 132/302/132 124/285/124
f 124/285/124 132/302/132 131/303/131 123/286/123
f 123/287/123 131/304/131 129/305/129 121/288/121
f 134/306/134 126/294/126 128/295/128 136/307/136
f 136/307/136 128/295/128 127/296/127 135/308/135
f 130/311/130 10/11/10 12/14/12 132/312/132
f 132/312/132 12/14/12 11/16/11 131/313/131
f 131/304/131 11/17/11 9/20/9 129/305/129
f 13/42/13 134/314/134 136/315/136 15/43/15
f 15/43/15 136/315/136 135/316/135 16/45/16
f 313/246/191 337/259/215 339/262/217 315/247/193
f 315/249/193 339/263/217 340/266/218 316/250/194
f 316/250/194 340/266/218 338/268/216 314/252/192
f 186/317/58 194/318/66 196/319/68 188/320/60
f 188/56/60 196/321/68 195/322/67 187/57/59
f 187/57/59 195/322/67 193/323/65 185/59/57
f 289/324/167 293/21/171 295/24/173 291/325/169
f 291/326/169 295/25/173 296/28/174 292/327/170
f 292/327/170 296/28/174 294/30/172 290/328/168
f 198/329/70 190/330/62 192/331/64 200/332/72
f 194/318/66 202/336/74 204/337/76 196/319/68
f 196/321/68 204/338/76 203/339/75 195/322/67
f 195/322/67 203/339/75 201/340/73 193/323/65
f 206/341/78 198/329/70 200/332/72 208/342/80
f 287/350/165 336/351/214 334/352/212 285/353/163
f 202/336/74 210/354/82 212/355/84 204/337/76
f 204/338/76 212/356/84 211/357/83 203/339/75
f 203/339/75 211/357/83 209/358/81 201/340/73
f 283/361/161 287/350/165 285/353/163 281/362/159
f 214/363/86 206/341/78 208/342/80 216/364/88
f 329/368/207 273/369/151 275/370/153 331/371/209
f 331/372/209 275/373/153 276/374/154 332/375/210
f 332/375/210 276/374/154 274/376/152 330/377/208
f 210/354/82 218/378/90 220/379/92 212/355/84
f 212/356/84 220/380/92 219/381/91 211/357/83
f 211/357/83 219/381/91 217/382/89 209/358/81
f 222/383/94 214/363/86 216/364/88 224/384/96
f 218/388/90 226/389/98 228/390/100 220/391/92
f 220/380/92 228/392/100 227/393/99 219/381/91
f 219/381/91 227/393/99 225/394/97 217/382/89
f 273/369/151 277/395/155 279/396/157 275/370/153
f 275/373/153 279/397/157 280/398/158 276/374/154
f 276/374/154 280/398/158 278/399/156 274/376/152
f 230/400/102 222/401/94 224/402/96 232/403/104
f 271/412/149 328/413/206 326/414/204 269/415/147
f 226/389/98 234/416/106 236/417/108 228/390/100
f 228/392/100 236/418/108 235/419/107 227/393/99
f 227/393/99 235/419/107 233/420/105 225/394/97
f 238/421/110 230/400/102 232/403/104 240/422/112
f 321/426/199 1/427/1 3/428/3 323/429/201
f 323/430/201 3/431/3 4/432/4 324/433/202
f 324/433/202 4/432/4 2/434/2 322/435/200
f 234/416/106 242/436/114 244/437/116 236/417/108
f 236/418/108 244/438/116 243/439/115 235/419/107
f 235/419/107 243/439/115 241/440/113 233/420/105
f 267/443/145 271/412/149 269/415/147 265/444/143
f 246/445/118 238/421/110 240/422/112 248/446/120
f 319/178/197 312/450/190 311/451/189 320/179/198
f 320/179/198 311/451/189 309/452/187 318/180/196
f 242/436/114 250/453/122 252/454/124 244/437/116
f 244/438/116 252/455/124 251/456/123 243/439/115
f 243/439/115 251/456/123 249/457/121 241/440/113
f 254/458/126 246/445/118 248/446/120 256/459/128
f 250/463/122 258/464/130 260/465/132 252/466/124
f 252/455/124 260/467/132 259/468/131 251/456/123
f 251/456/123 259/468/131 257/469/129 249/457/121
f 1/427/1 5/470/5 7/471/7 3/428/3
f 3/431/3 7/472/7 8/473/8 4/432/4
f 4/432/4 8/473/8 6/474/6 2/434/2
f 262/475/134 254/476/126 256/477/128 264/478/136
f 258/464/130 138/274/10 140/275/12 260/465/132
f 260/467/132 140/276/12 139/277/11 259/468/131
f 259/468/131 139/277/11 137/278/9 257/469/129
f 141/211/13 262/475/134 264/478/136 143/212/15
f 360/483/238 352/163/230 351/166/229 359/484/237
f 359/484/237 351/166/229 349/168/227 357/485/235
f 361/486/239 321/426/199 323/429/201 363/487/241
f 363/488/241 323/430/201 324/433/202 364/489/242
f 364/489/242 324/433/202 322/435/200 362/490/240
f 328/413/206 368/493/246 366/494/244 326/414/204
f 369/495/247 329/368/207 331/371/209 371/496/249
f 371/497/249 331/372/209 332/375/210 372/498/250
f 372/498/250 332/375/210 330/377/208 370/499/248
f 336/351/214 376/502/254 374/503/252 334/352/212
f 353/289/231 377/504/255 379/505/257 355/290/233
f 355/291/233 379/506/257 380/507/258 356/292/234
f 356/292/234 380/507/258 378/508/256 354/293/232
f 384/510/261 360/483/238 359/484/237 383/511/260
f 383/511/260 359/484/237 357/485/235 381/512/259
f 377/504/255 385/513/262 387/514/264 379/505/257
f 379/515/257 387/516/264 388/517/265 380/518/258
f 380/518/258 388/517/265 386/519/263 378/520/256
f 392/522/269 384/523/261 383/524/260 391/525/268
f 391/525/268 383/524/260 381/526/259 389/527/266
f 385/513/262 393/528/270 395/529/272 387/514/264
f 387/516/264 395/530/272 396/531/273 388/517/265
f 388/517/265 396/531/273 394/532/271 386/519/263
f 400/534/276 392/522/269 391/525/268 399/535/275
f 399/535/275 391/525/268 389/527/266 397/536/274
f 401/537/277 361/486/239 363/487/241 403/538/279
f 403/539/279 363/540/241 364/541/242 404/542/280
f 404/542/280 364/541/242 362/543/240 402/544/278
f 368/547/246 408/548/284 406/549/282 366/550/244
f 409/551/285 369/495/247 371/496/249 411/552/287
f 411/553/287 371/554/249 372/555/250 412/556/288
f 412/556/288 372/555/250 370/557/248 410/558/286
f 376/562/254 416/563/291 414/564/289 374/565/252
f 393/528/270 417/566/292 419/567/294 395/529/272
f 395/530/272 419/568/294 420/569/295 396/531/273
f 396/531/273 420/569/295 418/570/293 394/532/271
f 424/572/299 400/534/276 399/535/275 423/573/298
f 423/573/298 399/535/275 397/536/274 421/574/296
f 417/566/292 425/575/300 427/576/302 419/567/294
f 419/568/294 427/577/302 428/578/303 420/569/295
f 420/569/295 428/578/303 426/579/301 418/570/293
f 432/581/307 424/572/299 423/573/298 431/582/306
f 431/582/306 423/573/298 421/574/296 429/583/304
f 425/575/300 433/584/308 435/585/310 427/576/302
f 427/586/302 435/587/310 436/588/311 428/589/303
f 428/589/303 436/588/311 434/590/309 426/591/301
f 440/593/315 432/594/307 431/595/306 439/596/314
f 439/596/314 431/595/306 429/597/304 437/598/312
f 277/395/155 401/537/277 403/538/279 279/396/157
f 279/397/157 403/539/279 404/542/280 280/398/158
f 280/398/158 404/542/280 402/544/278 278/399/156
f 408/548/284 283/361/161 281/362/159 406/549/282
f 441/599/316 409/551/285 411/552/287 443/600/318
f 443/601/318 411/553/287 412/556/288 444/602/319
f 444/602/319 412/556/288 410/558/286 442/603/317
f 416/563/291 448/606/323 446/607/321 414/564/289
f 433/584/308 449/608/324 451/609/326 435/585/310
f 435/587/310 451/610/326 452/611/327 436/588/311
f 436/588/311 452/611/327 450/612/325 434/590/309
f 456/615/331 440/593/315 439/596/314 455/616/330
f 455/616/330 439/596/314 437/598/312 453/617/328
f 449/608/324 457/618/332 459/619/334 451/609/326
f 451/610/326 459/620/334 460/621/335 452/611/327
f 452/611/327 460/621/335 458/622/333 450/612/325
f 464/624/339 456/615/331 455/616/330 463/625/338
f 463/625/338 455/616/330 453/617/328 461/626/336
f 457/618/332 465/627/340 467/628/342 459/619/334
f 459/629/334 467/630/342 468/631/343 460/632/335
f 460/632/335 468/631/343 466/633/341 458/634/333
f 472/636/347 464/637/339 463/638/338 471/639/346
f 471/639/346 463/638/338 461/640/336 469/641/344
f 465/627/340 289/324/167 291/325/169 467/628/342
f 467/630/342 291/326/169 292/327/170 468/631/343
f 468/631/343 292/327/170 290/328/168 466/633/341
f 303/126/181 472/636/347 471/639/346 304/127/182
f 304/127/182 471/639/346 469/641/344 302/129/180
f 5/470/5 473/642/348 475/643/350 7/471/7
f 7/472/7 475/644/350 476/645/351 8/473/8
f 8/473/8 476/645/351 474/646/349 6/474/6
f 479/650/354 267/443/145 265/444/143 477/651/352
f 473/642/348 481/652/356 483/653/358 475/643/350
f 475/654/350 483/655/358 484/656/359 476/657/351
f 476/657/351 484/656/359 482/658/357 474/659/349
f 487/662/362 479/663/354 477/664/352 485/665/360
f 481/652/356 489/666/364 491/667/366 483/653/358
f 483/655/358 491/668/366 492/669/367 484/656/359
f 484/656/359 492/669/367 490/670/365 482/658/357
f 495/674/370 487/662/362 485/665/360 493/675/368
f 489/666/364 497/676/372 499/677/374 491/667/366
f 491/668/366 499/678/374 500/679/375 492/669/367
f 492/669/367 500/679/375 498/680/373 490/670/365
f 503/683/378 495/674/370 493/675/368 501/684/376
f 497/676/372 505/685/380 507/686/382 499/677/374
f 499/687/374 507/688/382 508/689/383 500/690/375
f 500/690/375 508/689/383 506/691/381 498/692/373
f 511/696/385 503/697/378 501/698/376 509/699/384
f 505/685/380 441/599/316 443/600/318 507/686/382
f 507/688/382 443/601/318 444/602/319 508/689/383
f 508/689/383 444/602/319 442/603/317 506/691/381
f 448/606/323 511/696/385 509/699/384 446/607/321
f 2/434/2 6/474/6 265/444/143 269/415/147
f 322/435/200 2/434/2 269/415/147 326/414/204
f 5/470/5 1/427/1 321/426/199 361/486/239 401/537/277 277/395/155 273/369/151 329/368/207 369/495/247 409/551/285 441/599/316 505/685/380 497/676/372 489/666/364 481/652/356 473/642/348
f 6/474/6 474/646/349 477/651/352 265/444/143
f 9/20/9 17/19/17 25/65/25 33/75/33 41/88/41 49/116/49 57/135/57 65/160/65 73/185/73 81/195/81 89/210/89 97/228/97 105/245/105 113/273/113 121/288/121 129/305/129
f 10/11/10 13/42/13 22/41/22 18/12/18
f 130/311/130 134/314/134 13/42/13 10/11/10
f 18/12/18 22/41/22 30/66/30 26/61/26
f 26/61/26 30/66/30 38/76/38 34/71/34
f 34/81/34 38/100/38 46/99/46 42/82/42
f 42/82/42 46/99/46 54/117/54 50/112/50
f 50/112/50 54/117/54 62/143/62 58/131/58
f 58/153/58 62/170/62 70/169/70 66/154/66
f 66/154/66 70/169/70 78/186/78 74/181/74
f 74/181/74 78/186/78 86/196/86 82/191/82
f 82/191/82 86/196/86 94/216/94 90/206/90
f 90/221/90 94/234/94 102/233/102 98/222/98
f 98/222/98 102/233/102 110/254/110 106/241/106
f 106/241/106 110/254/110 118/279/118 114/269/114
f 114/269/114 118/279/118 126/294/126 122/284/122
f 122/284/122 126/294/126 134/306/134 130/301/130
f 258/464/130 262/475/134 141/211/13 138/274/10
f 138/274/10 141/211/13 149/90/22 146/136/18
f 217/382/89 225/394/97 233/420/105 241/440/113 249/457/121 257/469/129 137/278/9 145/142/17 153/40/25 162/39/33 169/152/41 177/60/49 185/59/57 193/323/65 201/340/73 209/358/81
f 146/136/18 149/90/22 158/89/30 154/137/26
f 154/31/26 158/299/30 165/201/38 161/32/34
f 161/32/34 165/201/38 173/107/46 170/148/42
f 170/148/42 173/107/46 181/2/54 178/51/50
f 178/51/50 181/2/54 190/1/62 186/52/58
f 186/317/58 190/330/62 198/329/70 194/318/66
f 194/318/66 198/329/70 206/341/78 202/336/74
f 202/336/74 206/341/78 214/363/86 210/354/82
f 210/354/82 214/363/86 222/383/94 218/378/90
f 218/388/90 222/401/94 230/400/102 226/389/98
f 226/389/98 230/400/102 238/421/110 234/416/106
f 234/416/106 238/421/110 246/445/118 242/436/114
f 242/436/114 246/445/118 254/458/126 250/453/122
f 250/463/122 254/476/126 262/475/134 258/464/130
f 330/377/208 274/376/152 285/353/163 334/352/212
f 274/376/152 278/399/156 281/362/159 285/353/163
f 278/399/156 402/544/278 406/549/282 281/362/159
f 290/328/168 294/30/172 297/130/175 302/129/180
f 289/324/167 465/627/340 457/618/332 449/608/324 433/584/308 425/575/300 417/566/292 393/528/270 385/513/262 377/504/255 353/289/231 345/260/223 337/259/215 313/246/191 305/22/183 293/21/171
f 466/633/341 290/328/168 302/129/180 469/641/344
f 294/30/172 306/29/184 309/232/187 297/130/175
f 306/253/184 314/252/192 318/180/196 309/452/187
f 314/252/192 338/268/216 342/167/220 318/180/196
f 362/490/240 322/435/200 326/414/204 366/494/244
f 370/499/248 330/377/208 334/352/212 374/503/252
f 338/268/216 346/267/224 349/168/227 342/167/220
f 346/267/224 354/293/232 357/485/235 349/168/227
f 354/293/232 378/508/256 381/512/259 357/485/235
f 402/544/278 362/543/240 366/550/244 406/549/282
f 410/558/286 370/557/248 374/565/252 414/564/289
f 378/520/256 386/519/263 389/527/266 381/526/259
f 386/519/263 394/532/271 397/536/274 389/527/266
f 394/532/271 418/570/293 421/574/296 397/536/274
f 442/603/317 410/558/286 414/564/289 446/607/321
f 418/570/293 426/579/301 429/583/304 421/574/296
f 426/591/301 434/590/309 437/598/312 429/597/304
f 434/590/309 450/612/325 453/617/328 437/598/312
f 506/691/381 442/603/317 446/607/321 509/699/384
f 450/612/325 458/622/333 461/626/336 453/617/328
f 458/634/333 466/633/341 469/641/344 461/640/336
f 474/659/349 482/658/357 485/665/360 477/664/352
f 482/658/357 490/670/365 493/675/368 485/665/360
f 490/670/365 498/680/373 501/684/376 493/675/368
f 498/692/373 506/691/381 509/699/384 501/698/376
usemtl BB_DirtyGlass
f 192/5/64 183/6/56 184/7/55 191/8/63
f 191/8/63 184/7/55 182/9/139 189/10/61
f 23/47/23 16/48/16 14/49/14 21/50/21
f 31/69/31 23/47/23 21/50/21 29/70/29
f 39/79/39 31/69/31 29/70/29 37/80/37
f 160/93/32 151/94/24 152/95/23 159/96/31
f 159/96/31 152/95/23 150/97/21 157/98/29
f 47/105/47 39/79/39 37/80/37 45/106/45
f 183/6/56 175/109/48 176/110/47 184/7/55
f 184/7/55 176/110/47 174/111/138 182/9/139
f 55/120/55 47/105/47 45/106/45 53/121/53
f 298/122/176 301/49/179 303/123/181 300/124/178
f 63/146/63 55/120/55 53/121/53 61/147/61
f 350/121/228 341/106/219 343/161/221 352/162/230
f 71/175/71 63/146/63 61/147/61 69/176/69
f 341/106/219 317/80/195 319/177/197 343/161/221
f 79/189/79 71/175/71 69/176/69 77/190/77
f 87/199/87 79/189/79 77/190/77 85/200/85
f 175/109/48 167/203/40 168/204/39 176/110/47
f 176/110/47 168/204/39 166/205/137 174/111/138
f 151/94/24 143/213/15 144/214/16 152/95/23
f 152/95/23 144/214/16 142/215/14 150/97/21
f 95/219/95 87/199/87 85/200/85 93/220/93
f 310/70/188 298/122/176 300/124/178 312/229/190
f 103/239/103 95/219/95 93/220/93 101/240/101
f 111/257/111 103/239/103 101/240/101 109/258/109
f 119/282/119 111/257/111 109/258/109 117/283/117
f 127/297/127 119/282/119 117/283/117 125/298/125
f 167/203/40 160/93/32 159/96/31 168/204/39
f 168/204/39 159/96/31 157/98/29 166/205/137
f 135/309/135 127/297/127 125/298/125 133/310/133
f 16/48/16 135/309/135 133/310/133 14/49/14
f 200/333/72 192/5/64 191/8/63 199/334/71
f 199/334/71 191/8/63 189/10/61 197/335/69
f 208/343/80 200/333/72 199/334/71 207/344/79
f 207/344/79 199/334/71 197/335/69 205/345/77
f 286/111/164 333/205/211 335/346/213 288/347/166
f 288/347/166 335/346/213 336/348/214 287/349/165
f 282/9/160 286/111/164 288/347/166 284/359/162
f 284/359/162 288/347/166 287/349/165 283/360/161
f 216/365/88 208/343/80 207/344/79 215/366/87
f 215/366/87 207/344/79 205/345/77 213/367/85
f 224/385/96 216/365/88 215/366/87 223/386/95
f 223/386/95 215/366/87 213/367/85 221/387/93
f 232/404/104 224/385/96 223/386/95 231/405/103
f 231/405/103 223/386/95 221/387/93 229/406/140
f 270/407/148 325/345/203 327/408/205 272/409/150
f 272/409/150 327/408/205 328/410/206 271/411/149
f 240/423/112 232/404/104 231/405/103 239/424/111
f 239/424/111 231/405/103 229/406/140 237/425/141
f 266/387/144 270/407/148 272/409/150 268/441/146
f 268/441/146 272/409/150 271/411/149 267/442/145
f 248/447/120 240/423/112 239/424/111 247/448/119
f 247/448/119 239/424/111 237/425/141 245/449/142
f 317/80/195 310/70/188 312/229/190 319/177/197
f 256/460/128 248/447/120 247/448/119 255/461/127
f 255/461/127 247/448/119 245/449/142 253/462/125
f 264/479/136 256/460/128 255/461/127 263/480/135
f 263/480/135 255/461/127 253/462/125 261/481/133
f 143/213/15 264/479/136 263/480/135 144/214/16
f 144/214/16 263/480/135 261/481/133 142/215/14
f 358/147/236 350/121/228 352/162/230 360/482/238
f 325/345/203 365/335/243 367/491/245 327/408/205
f 327/408/205 367/491/245 368/492/246 328/410/206
f 333/205/211 373/98/251 375/500/253 335/346/213
f 335/346/213 375/500/253 376/501/254 336/348/214
f 382/176/243 358/147/236 360/482/238 384/509/261
f 390/190/267 382/176/243 384/509/261 392/521/269
f 398/200/148 390/190/267 392/521/269 400/533/276
f 365/335/243 405/10/281 407/545/283 367/491/245
f 367/491/245 407/545/283 408/546/284 368/492/246
f 373/98/251 413/559/176 415/560/290 375/500/253
f 375/500/253 415/560/290 416/561/291 376/501/254
f 422/220/297 398/200/148 400/533/276 424/571/299
f 430/240/305 422/220/297 424/571/299 432/580/307
f 438/258/313 430/240/305 432/580/307 440/592/315
f 405/10/281 282/9/160 284/359/162 407/545/283
f 407/545/283 284/359/162 283/360/161 408/546/284
f 413/559/176 445/215/320 447/604/322 415/560/290
f 415/560/290 447/604/322 448/605/323 416/561/291
f 454/613/329 438/258/313 440/592/315 456/614/331
f 462/298/337 454/613/329 456/614/331 464/623/339
f 470/310/345 462/298/337 464/623/339 472/635/347
f 301/49/179 470/310/345 472/635/347 303/123/181
f 478/647/353 266/387/144 268/441/146 480/648/355
f 480/648/355 268/441/146 267/442/145 479/649/354
f 486/425/361 478/647/353 480/648/355 488/660/363
f 488/660/363 480/648/355 479/649/354 487/661/362
f 494/671/369 486/425/361 488/660/363 496/672/371
f 496/672/371 488/660/363 487/661/362 495/673/370
f 502/462/377 494/671/369 496/672/371 504/681/379
f 504/681/379 496/672/371 495/673/370 503/682/378
f 510/693/345 502/462/377 504/681/379 512/694/386
f 512/694/386 504/681/379 503/682/378 511/695/385
f 445/215/320 510/693/345 512/694/386 447/604/322
f 447/604/322 512/694/386 511/695/385 448/605/323
f 21/50/21 14/49/14 301/49/179 298/122/176
f 14/49/14 133/310/133 470/310/345 301/49/179
f 29/70/29 21/50/21 298/122/176 310/70/188
f 37/80/37 29/70/29 310/70/188 317/80/195
f 45/106/45 37/80/37 317/80/195 341/106/219
f 53/121/53 45/106/45 341/106/219 350/121/228
f 61/147/61 53/121/53 350/121/228 358/147/236
f 69/176/69 61/147/61 358/147/236 382/176/243
f 77/190/77 69/176/69 382/176/243 390/190/267
f 85/200/85 77/190/77 390/190/267 398/200/148
f 93/220/93 85/200/85 398/200/148 422/220/297
f 101/240/101 93/220/93 422/220/297 430/240/305
f 109/258/109 101/240/101 430/240/305 438/258/313
f 117/283/117 109/258/109 438/258/313 454/613/329
f 125/298/125 117/283/117 454/613/329 462/298/337
f 133/310/133 125/298/125 462/298/337 470/310/345
f 142/215/14 261/481/133 510/693/345 445/215/320
f 150/97/21 142/215/14 445/215/320 413/559/176
f 157/98/29 150/97/21 413/559/176 373/98/251
f 166/205/137 157/98/29 373/98/251 333/205/211
f 174/111/138 166/205/137 333/205/211 286/111/164
f 182/9/139 174/111/138 286/111/164 282/9/160
f 189/10/61 182/9/139 282/9/160 405/10/281
f 197/335/69 189/10/61 405/10/281 365/335/243
f 205/345/77 197/335/69 365/335/243 325/345/203
f 213/367/85 205/345/77 325/345/203 270/407/148
f 221/387/93 213/367/85 270/407/148 266/387/144
f 229/406/140 221/387/93 266/387/144 478/647/353
f 237/425/141 229/406/140 478/647/353 486/425/361
f 245/449/142 237/425/141 486/425/361 494/671/369
f 253/462/125 245/449/142 494/671/369 502/462/377
f 261/481/133 253/462/125 502/462/377 510/693/345
