# Blender 5.0.1
# www.blender.org
mtllib BB_PROP_Pipe_Elbow90.mtl
o BB_PROP_Pipe_Elbow90
v 2.000000 2.000000 -0.130000
v 2.094069 1.931656 -0.058139
v 1.964070 1.889416 -0.058139
v 1.883725 2.000000 -0.058138
v 1.964070 2.110584 -0.058139
v 2.094069 2.068344 -0.058139
v 2.035930 1.889416 0.058139
v 1.905931 1.931656 0.058139
v 1.905931 2.068344 0.058139
v 2.035930 2.110584 0.058139
v 2.116275 2.000000 0.058138
v 2.000000 2.000000 0.130000
v 2.034173 2.105171 -0.068346
v 2.000000 1.870000 0.000000
v 1.944708 2.040171 0.110585
v 2.021119 1.935001 0.110585
v 2.076412 1.894828 0.000000
v 2.123637 1.959828 0.000000
v 2.021119 2.064999 0.110585
v 2.068345 2.000000 0.110585
v 2.123637 2.040172 0.000000
v 1.876362 1.959828 0.000000
v 1.923588 1.894828 0.000000
v 1.944708 1.959828 0.110585
v 2.089465 2.065000 0.068346
v 1.910535 2.065000 -0.068346
v 1.965827 2.105171 0.068346
v 1.978881 2.064999 -0.110585
v 1.889416 2.000000 0.068346
v 1.910535 1.935000 -0.068346
v 1.965827 1.894828 0.068346
v 1.931655 2.000000 -0.110585
v 2.089465 1.935000 0.068346
v 2.055292 2.040171 -0.110585
v 2.000000 2.130000 0.000000
v 2.110584 2.000000 -0.068346
v 2.076412 2.105172 0.000000
v 2.034173 1.894828 -0.068346
v 1.876362 2.040172 0.000000
v 2.055292 1.959828 -0.110585
v 1.923588 2.105172 0.000000
v 1.978881 1.935001 -0.110585
v 2.000000 2.089804 -0.600000
v 2.000000 2.100000 -0.590000
v 2.000000 2.094902 -0.598660
v 2.000000 2.098634 -0.595000
v 2.000000 2.089804 0.000000
v 2.000000 2.100000 -0.010000
v 2.000000 2.094902 -0.001340
v 2.000000 2.098634 -0.005000
v 2.034367 2.082968 -0.600000
v 2.038268 2.092388 -0.590000
v 2.036317 2.087678 -0.598660
v 2.037746 2.091126 -0.595000
v 2.034367 2.082968 0.000000
v 2.038268 2.092388 -0.010000
v 2.036317 2.087678 -0.001340
v 2.037746 2.091126 -0.005000
v 2.063501 2.063501 -0.600000
v 2.070711 2.070711 -0.590000
v 2.067106 2.067106 -0.598660
v 2.069745 2.069745 -0.595000
v 2.063501 2.063501 0.000000
v 2.070711 2.070711 -0.010000
v 2.067106 2.067106 -0.001340
v 2.069745 2.069745 -0.005000
v 2.082968 2.034367 -0.600000
v 2.092388 2.038268 -0.590000
v 2.087678 2.036317 -0.598660
v 2.091126 2.037746 -0.595000
v 2.082968 2.034367 0.000000
v 2.092388 2.038268 -0.010000
v 2.087678 2.036317 -0.001340
v 2.091126 2.037746 -0.005000
v 2.089804 2.000000 -0.600000
v 2.100000 2.000000 -0.590000
v 2.094902 2.000000 -0.598660
v 2.098634 2.000000 -0.595000
v 2.089804 2.000000 0.000000
v 2.100000 2.000000 -0.010000
v 2.094902 2.000000 -0.001340
v 2.098634 2.000000 -0.005000
v 2.082968 1.965634 -0.600000
v 2.092388 1.961732 -0.590000
v 2.087678 1.963683 -0.598660
v 2.091126 1.962254 -0.595000
v 2.082968 1.965634 0.000000
v 2.092388 1.961732 -0.010000
v 2.087678 1.963683 -0.001340
v 2.091126 1.962254 -0.005000
v 2.063501 1.936499 -0.600000
v 2.070711 1.929289 -0.590000
v 2.067106 1.932894 -0.598660
v 2.069745 1.930255 -0.595000
v 2.063501 1.936499 0.000000
v 2.070711 1.929289 -0.010000
v 2.067106 1.932894 -0.001340
v 2.069745 1.930255 -0.005000
v 2.034367 1.917032 -0.600000
v 2.038268 1.907612 -0.590000
v 2.036317 1.912322 -0.598660
v 2.037746 1.908874 -0.595000
v 2.034367 1.917032 0.000000
v 2.038268 1.907612 -0.010000
v 2.036317 1.912322 -0.001340
v 2.037746 1.908874 -0.005000
v 2.000000 1.910196 -0.600000
v 2.000000 1.900000 -0.590000
v 2.000000 1.905098 -0.598660
v 2.000000 1.901366 -0.595000
v 2.000000 1.910196 0.000000
v 2.000000 1.900000 -0.010000
v 2.000000 1.905098 -0.001340
v 2.000000 1.901366 -0.005000
v 1.965634 1.917032 -0.600000
v 1.961732 1.907612 -0.590000
v 1.963683 1.912322 -0.598660
v 1.962254 1.908874 -0.595000
v 1.965634 1.917032 0.000000
v 1.961732 1.907612 -0.010000
v 1.963683 1.912322 -0.001340
v 1.962254 1.908874 -0.005000
v 1.936499 1.936499 -0.600000
v 1.929289 1.929289 -0.590000
v 1.932894 1.932894 -0.598660
v 1.930255 1.930255 -0.595000
v 1.936499 1.936499 0.000000
v 1.929289 1.929289 -0.010000
v 1.932894 1.932894 -0.001340
v 1.930255 1.930255 -0.005000
v 1.917032 1.965634 -0.600000
v 1.907612 1.961732 -0.590000
v 1.912322 1.963683 -0.598660
v 1.908874 1.962254 -0.595000
v 1.917032 1.965634 0.000000
v 1.907612 1.961732 -0.010000
v 1.912322 1.963683 -0.001340
v 1.908874 1.962254 -0.005000
v 1.910196 2.000000 -0.600000
v 1.900000 2.000000 -0.590000
v 1.905098 2.000000 -0.598660
v 1.901366 2.000000 -0.595000
v 1.910196 2.000000 0.000000
v 1.900000 2.000000 -0.010000
v 1.905098 2.000000 -0.001340
v 1.901366 2.000000 -0.005000
v 1.917032 2.034367 -0.600000
v 1.907612 2.038268 -0.590000
v 1.912322 2.036317 -0.598660
v 1.908874 2.037746 -0.595000
v 1.917032 2.034367 0.000000
v 1.907612 2.038268 -0.010000
v 1.912322 2.036317 -0.001340
v 1.908874 2.037746 -0.005000
v 1.936499 2.063501 -0.600000
v 1.929289 2.070711 -0.590000
v 1.932894 2.067106 -0.598660
v 1.930255 2.069745 -0.595000
v 1.936499 2.063501 0.000000
v 1.929289 2.070711 -0.010000
v 1.932894 2.067106 -0.001340
v 1.930255 2.069745 -0.005000
v 1.965634 2.082968 -0.600000
v 1.961732 2.092388 -0.590000
v 1.963683 2.087678 -0.598660
v 1.962254 2.091126 -0.595000
v 1.965634 2.082968 0.000000
v 1.961732 2.092388 -0.010000
v 1.963683 2.087678 -0.001340
v 1.962254 2.091126 -0.005000
v 2.000000 2.089804 0.000000
v 2.010000 2.100000 0.000000
v 2.001340 2.094902 0.000000
v 2.005000 2.098634 0.000000
v 2.600000 2.089804 0.000000
v 2.590000 2.100000 0.000000
v 2.598660 2.094902 0.000000
v 2.595000 2.098634 0.000000
v 2.000000 2.082968 0.034367
v 2.010000 2.092388 0.038268
v 2.001340 2.087678 0.036317
v 2.005000 2.091126 0.037746
v 2.600000 2.082968 0.034367
v 2.590000 2.092388 0.038268
v 2.598660 2.087678 0.036317
v 2.595000 2.091126 0.037746
v 2.000000 2.063501 0.063501
v 2.010000 2.070711 0.070711
v 2.001340 2.067106 0.067106
v 2.005000 2.069745 0.069745
v 2.600000 2.063501 0.063501
v 2.590000 2.070711 0.070711
v 2.598660 2.067106 0.067106
v 2.595000 2.069745 0.069745
v 2.010000 2.038268 0.092388
v 2.000000 2.034367 0.082968
v 2.005000 2.037746 0.091126
v 2.001340 2.036317 0.087678
v 2.600000 2.034367 0.082968
v 2.590000 2.038268 0.092388
v 2.598660 2.036317 0.087678
v 2.595000 2.037746 0.091126
v 2.000000 2.000000 0.089804
v 2.010000 2.000000 0.100000
v 2.001340 2.000000 0.094902
v 2.005000 2.000000 0.098634
v 2.600000 2.000000 0.089804
v 2.590000 2.000000 0.100000
v 2.598660 2.000000 0.094902
v 2.595000 2.000000 0.098634
v 2.000000 1.965634 0.082968
v 2.010000 1.961732 0.092388
v 2.001340 1.963683 0.087678
v 2.005000 1.962254 0.091126
v 2.600000 1.965634 0.082968
v 2.590000 1.961732 0.092388
v 2.598660 1.963683 0.087678
v 2.595000 1.962254 0.091126
v 2.000000 1.936499 0.063501
v 2.010000 1.929289 0.070711
v 2.001340 1.932894 0.067106
v 2.005000 1.930255 0.069745
v 2.600000 1.936499 0.063501
v 2.590000 1.929289 0.070711
v 2.598660 1.932894 0.067106
v 2.595000 1.930255 0.069745
v 2.000000 1.917032 0.034367
v 2.010000 1.907612 0.038268
v 2.001340 1.912322 0.036317
v 2.005000 1.908874 0.037746
v 2.600000 1.917032 0.034367
v 2.590000 1.907612 0.038268
v 2.598660 1.912322 0.036317
v 2.595000 1.908874 0.037746
v 2.000000 1.910196 0.000000
v 2.010000 1.900000 0.000000
v 2.001340 1.905098 0.000000
v 2.005000 1.901366 0.000000
v 2.600000 1.910196 0.000000
v 2.590000 1.900000 0.000000
v 2.598660 1.905098 0.000000
v 2.595000 1.901366 0.000000
v 2.000000 1.917032 -0.034367
v 2.010000 1.907612 -0.038268
v 2.001340 1.912322 -0.036317
v 2.005000 1.908874 -0.037746
v 2.600000 1.917032 -0.034367
v 2.590000 1.907612 -0.038268
v 2.598660 1.912322 -0.036317
v 2.595000 1.908874 -0.037746
v 2.000000 1.936499 -0.063501
v 2.010000 1.929289 -0.070711
v 2.001340 1.932894 -0.067106
v 2.005000 1.930255 -0.069745
v 2.600000 1.936499 -0.063501
v 2.590000 1.929289 -0.070711
v 2.598660 1.932894 -0.067106
v 2.595000 1.930255 -0.069745
v 2.000000 1.965634 -0.082968
v 2.010000 1.961732 -0.092388
v 2.001340 1.963683 -0.087678
v 2.005000 1.962254 -0.091126
v 2.600000 1.965634 -0.082968
v 2.590000 1.961732 -0.092388
v 2.598660 1.963683 -0.087678
v 2.595000 1.962254 -0.091126
v 2.000000 2.000000 -0.089804
v 2.010000 2.000000 -0.100000
v 2.001340 2.000000 -0.094902
v 2.005000 2.000000 -0.098634
v 2.600000 2.000000 -0.089804
v 2.590000 2.000000 -0.100000
v 2.598660 2.000000 -0.094902
v 2.595000 2.000000 -0.098634
v 2.000000 2.034367 -0.082968
v 2.010000 2.038268 -0.092388
v 2.001340 2.036317 -0.087678
v 2.005000 2.037746 -0.091126
v 2.600000 2.034367 -0.082968
v 2.590000 2.038268 -0.092388
v 2.598660 2.036317 -0.087678
v 2.595000 2.037746 -0.091126
v 2.000000 2.063501 -0.063501
v 2.010000 2.070711 -0.070711
v 2.001340 2.067106 -0.067106
v 2.005000 2.069745 -0.069745
v 2.600000 2.063501 -0.063501
v 2.590000 2.070711 -0.070711
v 2.598660 2.067106 -0.067106
v 2.595000 2.069745 -0.069745
v 2.000000 2.082968 -0.034367
v 2.010000 2.092388 -0.038268
v 2.001340 2.087678 -0.036317
v 2.005000 2.091126 -0.037746
v 2.600000 2.082968 -0.034367
v 2.590000 2.092388 -0.038268
v 2.598660 2.087678 -0.036317
v 2.595000 2.091126 -0.037746
v 2.000000 2.139804 -0.650000
v 2.000000 2.150000 -0.640000
v 2.000000 2.144902 -0.648660
v 2.000000 2.148634 -0.645000
v 2.000000 2.139804 -0.550000
v 2.000000 2.150000 -0.560000
v 2.000000 2.144902 -0.551340
v 2.000000 2.148634 -0.555000
v 2.053501 2.129162 -0.650000
v 2.057403 2.138582 -0.640000
v 2.055452 2.133872 -0.648660
v 2.056880 2.137320 -0.645000
v 2.053501 2.129162 -0.550000
v 2.057403 2.138582 -0.560000
v 2.055452 2.133872 -0.551340
v 2.056880 2.137320 -0.555000
v 2.098856 2.098856 -0.650000
v 2.106066 2.106066 -0.640000
v 2.102461 2.102461 -0.648660
v 2.105100 2.105100 -0.645000
v 2.098856 2.098856 -0.550000
v 2.106066 2.106066 -0.560000
v 2.102461 2.102461 -0.551340
v 2.105100 2.105100 -0.555000
v 2.129162 2.053501 -0.650000
v 2.138582 2.057403 -0.640000
v 2.133872 2.055452 -0.648660
v 2.137320 2.056880 -0.645000
v 2.129162 2.053501 -0.550000
v 2.138582 2.057403 -0.560000
v 2.133872 2.055452 -0.551340
v 2.137320 2.056880 -0.555000
v 2.139804 2.000000 -0.650000
v 2.150000 2.000000 -0.640000
v 2.144902 2.000000 -0.648660
v 2.148634 2.000000 -0.645000
v 2.139804 2.000000 -0.550000
v 2.150000 2.000000 -0.560000
v 2.144902 2.000000 -0.551340
v 2.148634 2.000000 -0.555000
v 2.129162 1.946499 -0.650000
v 2.138582 1.942598 -0.640000
v 2.133872 1.944548 -0.648660
v 2.137320 1.943120 -0.645000
v 2.129162 1.946499 -0.550000
v 2.138582 1.942598 -0.560000
v 2.133872 1.944548 -0.551340
v 2.137320 1.943120 -0.555000
v 2.098856 1.901144 -0.650000
v 2.106066 1.893934 -0.640000
v 2.102461 1.897539 -0.648660
v 2.105100 1.894900 -0.645000
v 2.098856 1.901144 -0.550000
v 2.106066 1.893934 -0.560000
v 2.102461 1.897539 -0.551340
v 2.105100 1.894900 -0.555000
v 2.053501 1.870838 -0.650000
v 2.057403 1.861418 -0.640000
v 2.055452 1.866128 -0.648660
v 2.056880 1.862680 -0.645000
v 2.053501 1.870838 -0.550000
v 2.057403 1.861418 -0.560000
v 2.055452 1.866128 -0.551340
v 2.056880 1.862680 -0.555000
v 2.000000 1.860196 -0.650000
v 2.000000 1.850000 -0.640000
v 2.000000 1.855098 -0.648660
v 2.000000 1.851366 -0.645000
v 2.000000 1.860196 -0.550000
v 2.000000 1.850000 -0.560000
v 2.000000 1.855098 -0.551340
v 2.000000 1.851366 -0.555000
v 1.946499 1.870838 -0.650000
v 1.942598 1.861418 -0.640000
v 1.944548 1.866128 -0.648660
v 1.943120 1.862680 -0.645000
v 1.946499 1.870838 -0.550000
v 1.942598 1.861418 -0.560000
v 1.944548 1.866128 -0.551340
v 1.943120 1.862680 -0.555000
v 1.901144 1.901144 -0.650000
v 1.893934 1.893934 -0.640000
v 1.897539 1.897539 -0.648660
v 1.894900 1.894900 -0.645000
v 1.901144 1.901144 -0.550000
v 1.893934 1.893934 -0.560000
v 1.897539 1.897539 -0.551340
v 1.894900 1.894900 -0.555000
v 1.870838 1.946499 -0.650000
v 1.861418 1.942598 -0.640000
v 1.866128 1.944548 -0.648660
v 1.862680 1.943120 -0.645000
v 1.870838 1.946499 -0.550000
v 1.861418 1.942598 -0.560000
v 1.866128 1.944548 -0.551340
v 1.862680 1.943120 -0.555000
v 1.860196 2.000000 -0.650000
v 1.850000 2.000000 -0.640000
v 1.855098 2.000000 -0.648660
v 1.851366 2.000000 -0.645000
v 1.860196 2.000000 -0.550000
v 1.850000 2.000000 -0.560000
v 1.855098 2.000000 -0.551340
v 1.851366 2.000000 -0.555000
v 1.870838 2.053501 -0.650000
v 1.861418 2.057403 -0.640000
v 1.866128 2.055452 -0.648660
v 1.862680 2.056880 -0.645000
v 1.870838 2.053501 -0.550000
v 1.861418 2.057403 -0.560000
v 1.866128 2.055452 -0.551340
v 1.862680 2.056880 -0.555000
v 1.901144 2.098856 -0.650000
v 1.893934 2.106066 -0.640000
v 1.897539 2.102461 -0.648660
v 1.894900 2.105100 -0.645000
v 1.901144 2.098856 -0.550000
v 1.893934 2.106066 -0.560000
v 1.897539 2.102461 -0.551340
v 1.894900 2.105100 -0.555000
v 1.946499 2.129162 -0.650000
v 1.942598 2.138582 -0.640000
v 1.944548 2.133872 -0.648660
v 1.943120 2.137320 -0.645000
v 1.946499 2.129162 -0.550000
v 1.942598 2.138582 -0.560000
v 1.944548 2.133872 -0.551340
v 1.943120 2.137320 -0.555000
v 2.550000 2.139804 0.000000
v 2.560000 2.150000 0.000000
v 2.551340 2.144902 0.000000
v 2.555000 2.148634 0.000000
v 2.650000 2.139804 0.000000
v 2.640000 2.150000 0.000000
v 2.648660 2.144902 0.000000
v 2.645000 2.148634 0.000000
v 2.550000 2.129162 0.053501
v 2.560000 2.138582 0.057403
v 2.551340 2.133872 0.055452
v 2.555000 2.137320 0.056880
v 2.650000 2.129162 0.053501
v 2.640000 2.138582 0.057403
v 2.648660 2.133872 0.055452
v 2.645000 2.137320 0.056880
v 2.550000 2.098856 0.098856
v 2.560000 2.106066 0.106066
v 2.551340 2.102461 0.102461
v 2.555000 2.105100 0.105100
v 2.650000 2.098856 0.098856
v 2.640000 2.106066 0.106066
v 2.648660 2.102461 0.102461
v 2.645000 2.105100 0.105100
v 2.560000 2.057403 0.138582
v 2.550000 2.053501 0.129162
v 2.555000 2.056880 0.137320
v 2.551340 2.055452 0.133872
v 2.650000 2.053501 0.129162
v 2.640000 2.057403 0.138582
v 2.648660 2.055452 0.133872
v 2.645000 2.056880 0.137320
v 2.550000 2.000000 0.139804
v 2.560000 2.000000 0.150000
v 2.551340 2.000000 0.144902
v 2.555000 2.000000 0.148634
v 2.650000 2.000000 0.139804
v 2.640000 2.000000 0.150000
v 2.648660 2.000000 0.144902
v 2.645000 2.000000 0.148634
v 2.550000 1.946499 0.129162
v 2.560000 1.942598 0.138582
v 2.551340 1.944548 0.133872
v 2.555000 1.943120 0.137320
v 2.650000 1.946499 0.129162
v 2.640000 1.942598 0.138582
v 2.648660 1.944548 0.133872
v 2.645000 1.943120 0.137320
v 2.550000 1.901144 0.098856
v 2.560000 1.893934 0.106066
v 2.551340 1.897539 0.102461
v 2.555000 1.894900 0.105100
v 2.650000 1.901144 0.098856
v 2.640000 1.893934 0.106066
v 2.648660 1.897539 0.102461
v 2.645000 1.894900 0.105100
v 2.550000 1.870838 0.053501
v 2.560000 1.861418 0.057403
v 2.551340 1.866128 0.055452
v 2.555000 1.862680 0.056880
v 2.650000 1.870838 0.053501
v 2.640000 1.861418 0.057403
v 2.648660 1.866128 0.055452
v 2.645000 1.862680 0.056880
v 2.550000 1.860196 0.000000
v 2.560000 1.850000 0.000000
v 2.551340 1.855098 0.000000
v 2.555000 1.851366 0.000000
v 2.650000 1.860196 0.000000
v 2.640000 1.850000 0.000000
v 2.648660 1.855098 0.000000
v 2.645000 1.851366 0.000000
v 2.550000 1.870838 -0.053501
v 2.560000 1.861418 -0.057403
v 2.551340 1.866128 -0.055452
v 2.555000 1.862680 -0.056880
v 2.650000 1.870838 -0.053501
v 2.640000 1.861418 -0.057403
v 2.648660 1.866128 -0.055452
v 2.645000 1.862680 -0.056880
v 2.550000 1.901144 -0.098856
v 2.560000 1.893934 -0.106066
v 2.551340 1.897539 -0.102461
v 2.555000 1.894900 -0.105100
v 2.650000 1.901144 -0.098856
v 2.640000 1.893934 -0.106066
v 2.648660 1.897539 -0.102461
v 2.645000 1.894900 -0.105100
v 2.550000 1.946499 -0.129162
v 2.560000 1.942598 -0.138582
v 2.551340 1.944548 -0.133872
v 2.555000 1.943120 -0.137320
v 2.650000 1.946499 -0.129162
v 2.640000 1.942598 -0.138582
v 2.648660 1.944548 -0.133872
v 2.645000 1.943120 -0.137320
v 2.550000 2.000000 -0.139804
v 2.560000 2.000000 -0.150000
v 2.551340 2.000000 -0.144902
v 2.555000 2.000000 -0.148634
v 2.650000 2.000000 -0.139804
v 2.640000 2.000000 -0.150000
v 2.648660 2.000000 -0.144902
v 2.645000 2.000000 -0.148634
v 2.550000 2.053501 -0.129162
v 2.560000 2.057403 -0.138582
v 2.551340 2.055452 -0.133872
v 2.555000 2.056880 -0.137320
v 2.650000 2.053501 -0.129162
v 2.640000 2.057403 -0.138582
v 2.648660 2.055452 -0.133872
v 2.645000 2.056880 -0.137320
v 2.550000 2.098856 -0.098856
v 2.560000 2.106066 -0.106066
v 2.551340 2.102461 -0.102461
v 2.555000 2.105100 -0.105100
v 2.650000 2.098856 -0.098856
v 2.640000 2.106066 -0.106066
v 2.648660 2.102461 -0.102461
v 2.645000 2.105100 -0.105100
v 2.550000 2.129162 -0.053501
v 2.560000 2.138582 -0.057403
v 2.551340 2.133872 -0.055452
v 2.555000 2.137320 -0.056880
v 2.650000 2.129162 -0.053501
v 2.640000 2.138582 -0.057403
v 2.648660 2.133872 -0.055452
v 2.645000 2.137320 -0.056880
vn -0.0000 -0.0000 -1.0000
vn 0.7236 -0.5257 -0.4472
vn -0.2764 -0.8506 -0.4472
vn -0.8944 -0.0000 -0.4472
vn -0.2764 0.8506 -0.4472
vn 0.7236 0.5257 -0.4472
vn 0.2764 -0.8506 0.4472
vn -0.7236 -0.5257 0.4472
vn -0.7236 0.5257 0.4472
vn 0.2764 0.8506 0.4472
vn 0.8944 -0.0000 0.4472
vn -0.0000 -0.0000 1.0000
vn 0.2629 0.8090 -0.5257
vn -0.0000 -1.0000 -0.0000
vn -0.4253 0.3090 0.8507
vn 0.1625 -0.5000 0.8507
vn 0.5878 -0.8090 -0.0000
vn 0.9511 -0.3090 -0.0000
vn 0.1625 0.5000 0.8507
vn 0.5257 -0.0000 0.8507
vn 0.9511 0.3090 -0.0000
vn -0.9511 -0.3090 -0.0000
vn -0.5878 -0.8090 -0.0000
vn -0.4253 -0.3090 0.8507
vn 0.6882 0.5000 0.5257
vn -0.6882 0.5000 -0.5257
vn -0.2629 0.8090 0.5257
vn -0.1625 0.5000 -0.8507
vn -0.8506 -0.0000 0.5257
vn -0.6882 -0.5000 -0.5257
vn -0.2629 -0.8090 0.5257
vn -0.5257 -0.0000 -0.8507
vn 0.6882 -0.5000 0.5257
vn 0.4253 0.3090 -0.8507
vn -0.0000 1.0000 -0.0000
vn 0.8506 -0.0000 -0.5257
vn 0.5878 0.8090 -0.0000
vn 0.2629 -0.8090 -0.5257
vn -0.9511 0.3090 -0.0000
vn 0.4253 -0.3090 -0.8507
vn -0.5878 0.8090 -0.0000
vn -0.1625 -0.5000 -0.8507
vn -0.0000 0.1438 -0.9896
vn -0.0000 0.9914 -0.1308
vn -0.0000 0.5172 -0.8559
vn -0.0000 0.8702 -0.4926
vn -0.0000 0.1438 0.9896
vn -0.0000 0.9914 0.1308
vn -0.0000 0.5172 0.8559
vn -0.0000 0.8702 0.4926
vn 0.0550 0.1329 -0.9896
vn 0.3794 0.9159 -0.1308
vn 0.1979 0.4778 -0.8559
vn 0.3330 0.8040 -0.4926
vn 0.0550 0.1329 0.9896
vn 0.3794 0.9159 0.1308
vn 0.1979 0.4778 0.8559
vn 0.3330 0.8040 0.4926
vn 0.1017 0.1017 -0.9896
vn 0.7010 0.7010 -0.1308
vn 0.3657 0.3657 -0.8559
vn 0.6154 0.6154 -0.4926
vn 0.1017 0.1017 0.9896
vn 0.7010 0.7010 0.1308
vn 0.3657 0.3657 0.8559
vn 0.6154 0.6154 0.4926
vn 0.1329 0.0550 -0.9896
vn 0.9159 0.3794 -0.1308
vn 0.4778 0.1979 -0.8559
vn 0.8040 0.3330 -0.4926
vn 0.1329 0.0550 0.9896
vn 0.9159 0.3794 0.1308
vn 0.4778 0.1979 0.8559
vn 0.8040 0.3330 0.4926
vn 0.1438 -0.0000 -0.9896
vn 0.9914 -0.0000 -0.1308
vn 0.5172 -0.0000 -0.8559
vn 0.8702 -0.0000 -0.4926
vn 0.1438 -0.0000 0.9896
vn 0.9914 -0.0000 0.1308
vn 0.5172 -0.0000 0.8559
vn 0.8702 -0.0000 0.4926
vn 0.1329 -0.0550 -0.9896
vn 0.9159 -0.3794 -0.1308
vn 0.4778 -0.1979 -0.8559
vn 0.8040 -0.3330 -0.4926
vn 0.1329 -0.0550 0.9896
vn 0.9159 -0.3794 0.1308
vn 0.4778 -0.1979 0.8559
vn 0.8040 -0.3330 0.4926
vn 0.1017 -0.1017 -0.9896
vn 0.7010 -0.7010 -0.1308
vn 0.3657 -0.3657 -0.8559
vn 0.6154 -0.6154 -0.4926
vn 0.1017 -0.1017 0.9896
vn 0.7010 -0.7010 0.1308
vn 0.3657 -0.3657 0.8559
vn 0.6154 -0.6154 0.4926
vn 0.0550 -0.1329 -0.9896
vn 0.3794 -0.9159 -0.1308
vn 0.1979 -0.4778 -0.8559
vn 0.3330 -0.8040 -0.4926
vn 0.0550 -0.1329 0.9896
vn 0.3794 -0.9159 0.1308
vn 0.1979 -0.4778 0.8559
vn 0.3330 -0.8040 0.4926
vn -0.0000 -0.1438 -0.9896
vn -0.0000 -0.9914 -0.1308
vn -0.0000 -0.5172 -0.8559
vn -0.0000 -0.8702 -0.4926
vn -0.0000 -0.1438 0.9896
vn -0.0000 -0.9914 0.1308
vn -0.0000 -0.5172 0.8559
vn -0.0000 -0.8702 0.4926
vn -0.0550 -0.1329 -0.9896
vn -0.3794 -0.9159 -0.1308
vn -0.1979 -0.4778 -0.8559
vn -0.3330 -0.8040 -0.4926
vn -0.0550 -0.1329 0.9896
vn -0.3794 -0.9159 0.1308
vn -0.1979 -0.4778 0.8559
vn -0.3330 -0.8040 0.4926
vn -0.1017 -0.1017 -0.9896
vn -0.7010 -0.7010 -0.1308
vn -0.3657 -0.3657 -0.8559
vn -0.6154 -0.6154 -0.4926
vn -0.1017 -0.1017 0.9896
vn -0.7010 -0.7010 0.1308
vn -0.3657 -0.3657 0.8559
vn -0.6154 -0.6154 0.4926
vn -0.1329 -0.0550 -0.9896
vn -0.9159 -0.3794 -0.1308
vn -0.4778 -0.1979 -0.8559
vn -0.8040 -0.3330 -0.4926
vn -0.1329 -0.0550 0.9896
vn -0.9159 -0.3794 0.1308
vn -0.4778 -0.1979 0.8559
vn -0.8040 -0.3330 0.4926
vn -0.1438 -0.0000 -0.9896
vn -0.9914 -0.0000 -0.1308
vn -0.5172 -0.0000 -0.8559
vn -0.8702 -0.0000 -0.4926
vn -0.1438 -0.0000 0.9896
vn -0.9914 -0.0000 0.1308
vn -0.5172 -0.0000 0.8559
vn -0.8702 -0.0000 0.4926
vn -0.1329 0.0550 -0.9896
vn -0.9159 0.3794 -0.1308
vn -0.4778 0.1979 -0.8559
vn -0.8040 0.3330 -0.4926
vn -0.1329 0.0550 0.9896
vn -0.9159 0.3794 0.1308
vn -0.4778 0.1979 0.8559
vn -0.8040 0.3330 0.4926
vn -0.1017 0.1017 -0.9896
vn -0.7010 0.7010 -0.1308
vn -0.3657 0.3657 -0.8559
vn -0.6154 0.6154 -0.4926
vn -0.1017 0.1017 0.9896
vn -0.7010 0.7010 0.1308
vn -0.3657 0.3657 0.8559
vn -0.6154 0.6154 0.4926
vn -0.0550 0.1329 -0.9896
vn -0.3794 0.9159 -0.1308
vn -0.1979 0.4778 -0.8559
vn -0.3330 0.8040 -0.4926
vn -0.0550 0.1329 0.9896
vn -0.3794 0.9159 0.1308
vn -0.1979 0.4778 0.8559
vn -0.3330 0.8040 0.4926
vn 0.9896 -0.1438 -0.0000
vn 0.1308 -0.9914 -0.0000
vn 0.8559 -0.5172 -0.0000
vn 0.4926 -0.8702 -0.0000
vn -0.9896 -0.1438 -0.0000
vn -0.1308 -0.9914 -0.0000
vn -0.8559 -0.5172 -0.0000
vn -0.4926 -0.8702 -0.0000
vn 0.9896 -0.1329 -0.0550
vn 0.1308 -0.9159 -0.3794
vn 0.8559 -0.4778 -0.1979
vn 0.4926 -0.8040 -0.3330
vn -0.9896 -0.1329 -0.0550
vn -0.1308 -0.9159 -0.3794
vn -0.8559 -0.4778 -0.1979
vn -0.4926 -0.8040 -0.3330
vn 0.9896 -0.1017 -0.1017
vn 0.1308 -0.7010 -0.7010
vn 0.8559 -0.3657 -0.3657
vn 0.4926 -0.6154 -0.6154
vn -0.9896 -0.1017 -0.1017
vn -0.1308 -0.7010 -0.7010
vn -0.8559 -0.3657 -0.3657
vn -0.4926 -0.6154 -0.6154
vn 0.1308 -0.3794 -0.9159
vn 0.9896 -0.0550 -0.1329
vn 0.4926 -0.3330 -0.8040
vn 0.8559 -0.1979 -0.4778
vn -0.9896 -0.0550 -0.1329
vn -0.1308 -0.3794 -0.9159
vn -0.8559 -0.1979 -0.4778
vn -0.4926 -0.3330 -0.8040
vn 0.9896 -0.0000 -0.1438
vn 0.1308 -0.0000 -0.9914
vn 0.8559 -0.0000 -0.5172
vn 0.4926 -0.0000 -0.8702
vn -0.9896 -0.0000 -0.1438
vn -0.1308 -0.0000 -0.9914
vn -0.8559 -0.0000 -0.5172
vn -0.4926 -0.0000 -0.8702
vn 0.9896 0.0550 -0.1329
vn 0.1308 0.3794 -0.9159
vn 0.8559 0.1979 -0.4778
vn 0.4926 0.3330 -0.8040
vn -0.9896 0.0550 -0.1329
vn -0.1308 0.3794 -0.9159
vn -0.8559 0.1979 -0.4778
vn -0.4926 0.3330 -0.8040
vn 0.9896 0.1017 -0.1017
vn 0.1308 0.7010 -0.7010
vn 0.8559 0.3657 -0.3657
vn 0.4926 0.6154 -0.6154
vn -0.9896 0.1017 -0.1017
vn -0.1308 0.7010 -0.7010
vn -0.8559 0.3657 -0.3657
vn -0.4926 0.6154 -0.6154
vn 0.9896 0.1329 -0.0550
vn 0.1308 0.9159 -0.3794
vn 0.8559 0.4778 -0.1979
vn 0.4926 0.8040 -0.3330
vn -0.9896 0.1329 -0.0550
vn -0.1308 0.9159 -0.3794
vn -0.8559 0.4778 -0.1979
vn -0.4926 0.8040 -0.3330
vn 0.9896 0.1438 -0.0000
vn 0.1308 0.9914 -0.0000
vn 0.8559 0.5172 -0.0000
vn 0.4926 0.8702 -0.0000
vn -0.9896 0.1438 -0.0000
vn -0.1308 0.9914 -0.0000
vn -0.8559 0.5172 -0.0000
vn -0.4926 0.8702 -0.0000
vn 0.9896 0.1329 0.0550
vn 0.1308 0.9159 0.3794
vn 0.8559 0.4778 0.1979
vn 0.4926 0.8040 0.3330
vn -0.9896 0.1329 0.0550
vn -0.1308 0.9159 0.3794
vn -0.8559 0.4778 0.1979
vn -0.4926 0.8040 0.3330
vn 0.9896 0.1017 0.1017
vn 0.1308 0.7010 0.7010
vn 0.8559 0.3657 0.3657
vn 0.4926 0.6154 0.6154
vn -0.9896 0.1017 0.1017
vn -0.1308 0.7010 0.7010
vn -0.8559 0.3657 0.3657
vn -0.4926 0.6154 0.6154
vn 0.9896 0.0550 0.1329
vn 0.1308 0.3794 0.9159
vn 0.8559 0.1979 0.4778
vn 0.4926 0.3330 0.8040
vn -0.9896 0.0550 0.1329
vn -0.1308 0.3794 0.9159
vn -0.8559 0.1979 0.4778
vn -0.4926 0.3330 0.8040
vn 0.9896 -0.0000 0.1438
vn 0.1308 -0.0000 0.9914
vn 0.8559 -0.0000 0.5172
vn 0.4926 -0.0000 0.8702
vn -0.9896 -0.0000 0.1438
vn -0.1308 -0.0000 0.9914
vn -0.8559 -0.0000 0.5172
vn -0.4926 -0.0000 0.8702
vn 0.9896 -0.0550 0.1329
vn 0.1308 -0.3794 0.9159
vn 0.8559 -0.1979 0.4778
vn 0.4926 -0.3330 0.8040
vn -0.9896 -0.0550 0.1329
vn -0.1308 -0.3794 0.9159
vn -0.8559 -0.1979 0.4778
vn -0.4926 -0.3330 0.8040
vn 0.9896 -0.1017 0.1017
vn 0.1308 -0.7010 0.7010
vn 0.8559 -0.3657 0.3657
vn 0.4926 -0.6154 0.6154
vn -0.9896 -0.1017 0.1017
vn -0.1308 -0.7010 0.7010
vn -0.8559 -0.3657 0.3657
vn -0.4926 -0.6154 0.6154
vn 0.9896 -0.1329 0.0550
vn 0.1308 -0.9159 0.3794
vn 0.8559 -0.4778 0.1979
vn 0.4926 -0.8040 0.3330
vn -0.9896 -0.1329 0.0550
vn -0.1308 -0.9159 0.3794
vn -0.8559 -0.4778 0.1979
vn -0.4926 -0.8040 0.3330
vt 0.046759 0.824945
vt 0.004597 0.841655
vt 0.028538 0.793914
vt 0.128034 0.870290
vt 0.090929 0.845463
vt 0.129667 0.822921
vt 0.095410 0.667384
vt 0.127973 0.712202
vt 0.080847 0.712202
vt 0.468214 0.688132
vt 0.441476 0.668706
vt 0.482776 0.643313
vt 0.843930 0.119139
vt 0.795838 0.128086
vt 0.819571 0.079984
vt 0.869500 0.078008
vt 0.142535 0.667383
vt 0.090930 0.900168
vt 0.081895 0.939486
vt 0.046760 0.918014
vt 0.472250 0.915817
vt 0.430089 0.899107
vt 0.468649 0.867247
vt 0.516420 0.895299
vt 0.081894 0.796267
vt 0.430089 0.715831
vt 0.468214 0.743530
vt 0.783393 0.279574
vt 0.750697 0.285324
vt 0.757823 0.238443
vt 0.807751 0.240419
vt 0.831100 0.155838
vt 0.042722 0.684503
vt 0.057284 0.639684
vt 0.876017 0.283240
vt 0.831484 0.288521
vt 0.862195 0.242573
vt 0.004597 0.896360
vt 0.043157 0.873515
vt 0.520901 0.671013
vt 0.506339 0.715831
vt 0.520901 0.760650
vt 0.835641 0.201403
vt 0.788534 0.192496
vt 0.831100 0.165032
vt 0.553464 0.715831
vt 0.553525 0.870472
vt 0.516421 0.840594
vt 0.555158 0.829327
vt 0.015985 0.665077
vt 0.129667 0.911435
vt 0.791682 0.040968
vt 0.750697 0.035547
vt 0.796222 0.004597
vt 0.838789 0.032060
vt 0.454030 0.946848
vt 0.568027 0.671013
vt 0.531114 0.639581
vt 0.042722 0.739901
vt 0.004597 0.712202
vt 0.472251 0.822748
vt 0.507387 0.801276
vt 0.568027 0.760650
vt 0.531114 0.792082
vt 0.507385 0.944495
vt 0.095410 0.757021
vt 0.057284 0.784720
vt 0.015985 0.759327
vt 0.482776 0.788349
vt 0.441476 0.762956
vt 0.796223 0.316273
vt 0.876625 0.195982
vt 0.750697 0.198042
vt 0.555158 0.917841
vt 0.430089 0.844402
vt 0.876625 0.124889
vt 0.876625 0.037607
vt 0.765127 0.082138
vt 0.751305 0.122804
vt 0.142535 0.757021
vt 0.218012 0.411415
vt 0.240382 0.411415
vt 0.240396 0.418310
vt 0.218165 0.418310
vt 0.761022 0.864730
vt 0.750733 0.839887
vt 0.754145 0.839208
vt 0.763915 0.862797
vt 0.757593 0.838522
vt 0.766838 0.860844
vt 0.690508 0.411415
vt 0.717356 0.411415
vt 0.717347 0.414863
vt 0.690512 0.414863
vt 0.717322 0.418310
vt 0.690525 0.418310
vt 0.750829 0.550970
vt 0.750829 0.524118
vt 0.757592 0.525463
vt 0.757593 0.549624
vt 0.315525 0.011492
vt 0.293156 0.011492
vt 0.293142 0.004597
vt 0.315373 0.004597
vt 0.760922 0.720131
vt 0.750732 0.695438
vt 0.754145 0.694759
vt 0.763103 0.719160
vt 0.757592 0.694073
vt 0.766838 0.716395
vt 0.717356 0.011492
vt 0.690508 0.011492
vt 0.690512 0.008045
vt 0.717347 0.008045
vt 0.690525 0.004597
vt 0.717322 0.004597
vt 0.761104 0.431328
vt 0.750829 0.406521
vt 0.757593 0.405175
vt 0.766838 0.427497
vt 0.240382 0.011492
vt 0.218012 0.011492
vt 0.218165 0.004597
vt 0.240396 0.004597
vt 0.761023 0.643705
vt 0.780037 0.624691
vt 0.781970 0.627584
vt 0.763916 0.645638
vt 0.783923 0.630507
vt 0.766838 0.647591
vt 0.741503 0.411415
vt 0.741338 0.414863
vt 0.740887 0.418310
vt 0.761104 0.499310
vt 0.766838 0.503142
vt 0.741503 0.011492
vt 0.741338 0.008045
vt 0.740887 0.004597
vt 0.780091 0.450315
vt 0.783923 0.444581
vt 0.004597 0.411518
vt 0.026967 0.411437
vt 0.026981 0.414885
vt 0.004750 0.414965
vt 0.027018 0.418333
vt 0.005167 0.418411
vt 0.780091 0.480323
vt 0.783923 0.486058
vt 0.026967 0.011521
vt 0.004597 0.011601
vt 0.004750 0.008153
vt 0.026981 0.008073
vt 0.005167 0.004704
vt 0.027018 0.004626
vt 0.804899 0.460591
vt 0.806244 0.453827
vt 0.053354 0.411409
vt 0.053354 0.414857
vt 0.053354 0.418305
vt 0.804899 0.470048
vt 0.806244 0.476812
vt 0.635648 0.014097
vt 0.613278 0.012125
vt 0.613265 0.008712
vt 0.635495 0.010666
vt 0.613227 0.005306
vt 0.635078 0.007212
vt 0.781530 0.770971
vt 0.804899 0.758946
vt 0.806244 0.765710
vt 0.783923 0.774956
vt 0.053354 0.011492
vt 0.053354 0.008045
vt 0.053354 0.004598
vt 0.831750 0.460591
vt 0.830405 0.453827
vt 0.266769 0.411415
vt 0.266769 0.418310
vt 0.750733 0.812997
vt 0.754145 0.813676
vt 0.757592 0.814361
vt 0.079741 0.411438
vt 0.079727 0.414885
vt 0.079689 0.418333
vt 0.831750 0.470048
vt 0.830405 0.476812
vt 0.079741 0.011521
vt 0.079727 0.008073
vt 0.079689 0.004626
vt 0.856558 0.450315
vt 0.852727 0.444581
vt 0.102110 0.411518
vt 0.101958 0.414965
vt 0.101540 0.418411
vt 0.856558 0.480323
vt 0.852726 0.486058
vt 0.613278 0.408550
vt 0.635648 0.410522
vt 0.635495 0.413926
vt 0.613265 0.411972
vt 0.635078 0.417307
vt 0.613227 0.415401
vt 0.780090 0.739213
vt 0.783922 0.733479
vt 0.102110 0.011601
vt 0.101958 0.008153
vt 0.101540 0.004704
vt 0.875545 0.431328
vt 0.869811 0.427497
vt 0.266769 0.011492
vt 0.266769 0.004597
vt 0.750733 0.668548
vt 0.754145 0.669227
vt 0.757593 0.669913
vt 0.644843 0.834323
vt 0.668989 0.834323
vt 0.668998 0.837770
vt 0.645007 0.837770
vt 0.669023 0.841218
vt 0.645458 0.841218
vt 0.875545 0.499310
vt 0.869811 0.503142
vt 0.668989 0.434400
vt 0.644843 0.434400
vt 0.645007 0.430952
vt 0.668998 0.430952
vt 0.645458 0.427505
vt 0.669024 0.427505
vt 0.885821 0.406521
vt 0.879057 0.405175
vt 0.695838 0.834323
vt 0.695833 0.837770
vt 0.695820 0.841218
vt 0.885821 0.524118
vt 0.879057 0.525464
vt 0.695838 0.434400
vt 0.695833 0.430952
vt 0.695820 0.427505
vt 0.885821 0.379669
vt 0.879057 0.381015
vt 0.721301 0.834323
vt 0.721283 0.837770
vt 0.721234 0.841218
vt 0.885821 0.550970
vt 0.879057 0.549624
vt 0.721301 0.434400
vt 0.721283 0.430952
vt 0.721234 0.427505
vt 0.875545 0.354861
vt 0.869811 0.358693
vt 0.293156 0.411415
vt 0.293142 0.418310
vt 0.761023 0.788154
vt 0.763916 0.790087
vt 0.766838 0.792040
vt 0.741503 0.834323
vt 0.741365 0.837770
vt 0.740988 0.841218
vt 0.875545 0.575777
vt 0.869811 0.571946
vt 0.586892 0.011432
vt 0.586892 0.008019
vt 0.586892 0.004615
vt 0.831750 0.758946
vt 0.830404 0.765710
vt 0.741503 0.434400
vt 0.741365 0.430952
vt 0.740988 0.427505
vt 0.856558 0.335874
vt 0.852726 0.341609
vt 0.111305 0.411409
vt 0.133674 0.411490
vt 0.133688 0.414937
vt 0.111458 0.414857
vt 0.133726 0.418384
vt 0.111875 0.418306
vt 0.856558 0.594764
vt 0.852727 0.589030
vt 0.133674 0.011573
vt 0.111305 0.011492
vt 0.111458 0.008045
vt 0.133688 0.008125
vt 0.111875 0.004599
vt 0.133726 0.004677
vt 0.831750 0.325599
vt 0.830405 0.332363
vt 0.160061 0.411518
vt 0.160061 0.414965
vt 0.160061 0.418413
vt 0.831750 0.605040
vt 0.830405 0.598276
vt 0.160061 0.011601
vt 0.160061 0.008154
vt 0.160061 0.004705
vt 0.804899 0.325599
vt 0.806244 0.332363
vt 0.186448 0.411490
vt 0.186434 0.414937
vt 0.186397 0.418384
vt 0.804899 0.605040
vt 0.806244 0.598276
vt 0.586892 0.407857
vt 0.586892 0.411280
vt 0.586892 0.414710
vt 0.804898 0.749489
vt 0.806243 0.742725
vt 0.186448 0.011573
vt 0.186434 0.008125
vt 0.186397 0.004677
vt 0.780091 0.335874
vt 0.783923 0.341609
vt 0.208818 0.411409
vt 0.208665 0.414857
vt 0.208248 0.418306
vt 0.780091 0.594764
vt 0.783923 0.589030
vt 0.208818 0.011492
vt 0.208665 0.008045
vt 0.208248 0.004599
vt 0.761104 0.354861
vt 0.766838 0.358693
vt 0.315525 0.411415
vt 0.315373 0.418310
vt 0.779887 0.769240
vt 0.644843 0.411415
vt 0.665044 0.411415
vt 0.665062 0.414863
vt 0.644980 0.414863
vt 0.665111 0.418310
vt 0.645357 0.418310
vt 0.761104 0.575777
vt 0.766838 0.571946
vt 0.665044 0.011492
vt 0.644843 0.011492
vt 0.644981 0.008045
vt 0.665062 0.008045
vt 0.645357 0.004597
vt 0.665111 0.004597
vt 0.750829 0.379669
vt 0.757592 0.381015
vt 0.431427 0.410522
vt 0.453797 0.408550
vt 0.453811 0.415389
vt 0.431580 0.417344
vt 0.804879 0.614401
vt 0.805558 0.617813
vt 0.806244 0.621261
vt 0.453797 0.012125
vt 0.431427 0.014097
vt 0.431580 0.007249
vt 0.453811 0.005294
vt 0.780036 0.883744
vt 0.781969 0.880851
vt 0.783922 0.877928
vt 0.480184 0.407857
vt 0.480184 0.414697
vt 0.831769 0.614401
vt 0.831090 0.617813
vt 0.830404 0.621261
vt 0.480184 0.011432
vt 0.480184 0.004602
vt 0.804879 0.894034
vt 0.805557 0.890621
vt 0.806243 0.887174
vt 0.506571 0.408550
vt 0.506557 0.415389
vt 0.856611 0.624691
vt 0.854678 0.627584
vt 0.852725 0.630507
vt 0.506571 0.012125
vt 0.506557 0.005294
vt 0.831768 0.894034
vt 0.831089 0.890621
vt 0.830404 0.887174
vt 0.528941 0.410522
vt 0.528788 0.417344
vt 0.875525 0.643555
vt 0.873794 0.645198
vt 0.869809 0.647591
vt 0.528941 0.014097
vt 0.528788 0.007249
vt 0.856461 0.883844
vt 0.855490 0.881663
vt 0.852725 0.877928
vt 0.324720 0.411415
vt 0.347090 0.411415
vt 0.347103 0.414863
vt 0.324873 0.414863
vt 0.347141 0.418310
vt 0.325290 0.418310
vt 0.885819 0.668567
vt 0.879055 0.669913
vt 0.347090 0.011492
vt 0.324720 0.011492
vt 0.324873 0.008045
vt 0.347103 0.008045
vt 0.325290 0.004597
vt 0.347141 0.004597
vt 0.875543 0.864675
vt 0.869809 0.860844
vt 0.373476 0.411415
vt 0.373476 0.414863
vt 0.373476 0.418310
vt 0.885819 0.695419
vt 0.879055 0.694073
vt 0.373476 0.011492
vt 0.373476 0.008045
vt 0.373476 0.004597
vt 0.885819 0.839868
vt 0.879055 0.838522
vt 0.399863 0.411415
vt 0.399850 0.414863
vt 0.399812 0.418310
vt 0.875543 0.720226
vt 0.869809 0.716395
vt 0.399863 0.011492
vt 0.399850 0.008045
vt 0.399812 0.004597
vt 0.885819 0.813016
vt 0.879055 0.814361
vt 0.422233 0.411415
vt 0.422080 0.414863
vt 0.421663 0.418310
vt 0.856556 0.739213
vt 0.852725 0.733479
vt 0.422233 0.011492
vt 0.422080 0.008045
vt 0.421663 0.004597
vt 0.875544 0.788208
vt 0.869810 0.792040
vt 0.538135 0.410522
vt 0.560505 0.408550
vt 0.560518 0.411972
vt 0.538288 0.413926
vt 0.560556 0.415401
vt 0.538705 0.417307
vt 0.831749 0.749489
vt 0.830403 0.742725
vt 0.560505 0.012125
vt 0.538135 0.014097
vt 0.538288 0.010666
vt 0.560518 0.008712
vt 0.538705 0.007212
vt 0.560556 0.005306
vt 0.856557 0.769221
vt 0.852726 0.774956
vt 0.902040 0.758815
vt 0.902040 0.792369
vt 0.898592 0.792383
vt 0.898592 0.758967
vt 0.895144 0.792420
vt 0.895144 0.759385
vt 0.445643 0.586333
vt 0.430220 0.549097
vt 0.436984 0.547752
vt 0.451377 0.582501
vt 0.957203 0.557425
vt 0.957203 0.517151
vt 0.964098 0.517161
vt 0.964098 0.557420
vt 0.004632 0.549219
vt 0.004632 0.508878
vt 0.008045 0.509557
vt 0.008045 0.548541
vt 0.011492 0.510242
vt 0.011492 0.547855
vt 0.957201 0.905084
vt 0.957201 0.871530
vt 0.960649 0.871516
vt 0.960649 0.904931
vt 0.964097 0.871478
vt 0.964097 0.904514
vt 0.233567 0.798409
vt 0.218144 0.761174
vt 0.224907 0.759828
vt 0.239301 0.794578
vt 0.902041 0.517151
vt 0.902041 0.557425
vt 0.898594 0.557420
vt 0.898594 0.517161
vt 0.895146 0.557407
vt 0.895146 0.517186
vt 0.233567 0.586333
vt 0.218144 0.549097
vt 0.224908 0.547752
vt 0.239301 0.582502
vt 0.957201 0.792369
vt 0.957201 0.758815
vt 0.960649 0.758967
vt 0.960649 0.792383
vt 0.964097 0.759385
vt 0.964097 0.792420
vt 0.233567 0.683635
vt 0.262066 0.655136
vt 0.265897 0.660870
vt 0.239301 0.687466
vt 0.957203 0.480932
vt 0.964098 0.481097
vt 0.020070 0.471607
vt 0.022963 0.473540
vt 0.025886 0.475493
vt 0.902041 0.480932
vt 0.898594 0.481097
vt 0.895146 0.481547
vt 0.262066 0.614832
vt 0.265897 0.609098
vt 0.145756 0.793914
vt 0.145877 0.827469
vt 0.138982 0.827483
vt 0.138862 0.794067
vt 0.048596 0.443081
vt 0.050529 0.445974
vt 0.052482 0.448897
vt 0.201038 0.827469
vt 0.200917 0.793914
vt 0.204365 0.794067
vt 0.204486 0.827483
vt 0.207814 0.794485
vt 0.207933 0.827520
vt 0.299301 0.630255
vt 0.300647 0.623491
vt 0.145920 0.867049
vt 0.139024 0.867049
vt 0.085867 0.427643
vt 0.086546 0.431055
vt 0.087232 0.434503
vt 0.896652 0.165032
vt 0.893694 0.198587
vt 0.890280 0.198601
vt 0.893221 0.165185
vt 0.886875 0.198638
vt 0.889767 0.165603
vt 0.474142 0.443059
vt 0.511377 0.427636
vt 0.512723 0.434400
vt 0.477974 0.448794
vt 0.201081 0.867049
vt 0.204528 0.867049
vt 0.207975 0.867049
vt 0.339605 0.630255
vt 0.338260 0.623491
vt 0.902040 0.831949
vt 0.898592 0.831949
vt 0.895144 0.831949
vt 0.430220 0.508794
vt 0.436984 0.510139
vt 0.145877 0.906630
vt 0.138982 0.906616
vt 0.126209 0.427643
vt 0.125530 0.431055
vt 0.124844 0.434503
vt 0.201038 0.906630
vt 0.204486 0.906616
vt 0.207933 0.906578
vt 0.376841 0.614832
vt 0.373009 0.609098
vt 0.145756 0.940184
vt 0.138862 0.940031
vt 0.163480 0.443081
vt 0.161547 0.445974
vt 0.159594 0.448897
vt 0.948373 0.198587
vt 0.951332 0.165032
vt 0.954736 0.165185
vt 0.951795 0.198601
vt 0.958116 0.165603
vt 0.955224 0.198638
vt 0.262065 0.826908
vt 0.265896 0.821174
vt 0.200917 0.940184
vt 0.204365 0.940031
vt 0.207814 0.939614
vt 0.405339 0.586333
vt 0.399605 0.582502
vt 0.957201 0.831949
vt 0.960649 0.831949
vt 0.964097 0.831949
vt 0.218144 0.720870
vt 0.224908 0.722216
vt 0.706899 0.995403
vt 0.706899 0.959183
vt 0.713795 0.959174
vt 0.713795 0.995238
vt 0.192006 0.471607
vt 0.189113 0.473540
vt 0.186190 0.475493
vt 0.651738 0.959183
vt 0.651738 0.995403
vt 0.648290 0.995238
vt 0.648290 0.959174
vt 0.644843 0.994787
vt 0.644843 0.959149
vt 0.420763 0.549097
vt 0.413999 0.547752
vt 0.706899 0.918910
vt 0.713795 0.918915
vt 0.207444 0.508878
vt 0.204031 0.509557
vt 0.200584 0.510242
vt 0.651738 0.918910
vt 0.648290 0.918915
vt 0.644843 0.918928
vt 0.420763 0.508794
vt 0.413999 0.510139
vt 0.706899 0.880715
vt 0.713795 0.880733
vt 0.207444 0.549219
vt 0.204031 0.548541
vt 0.200584 0.547855
vt 0.651738 0.880715
vt 0.648290 0.880733
vt 0.644843 0.880782
vt 0.405339 0.471558
vt 0.399605 0.475390
vt 0.902040 0.871530
vt 0.898592 0.871516
vt 0.895144 0.871478
vt 0.445643 0.471558
vt 0.451378 0.475390
vt 0.706899 0.850412
vt 0.713795 0.850550
vt 0.192006 0.586490
vt 0.189113 0.584557
vt 0.186190 0.582604
vt 0.892655 0.238167
vt 0.889242 0.238167
vt 0.885837 0.238167
vt 0.551680 0.427636
vt 0.550335 0.434400
vt 0.651738 0.850412
vt 0.648290 0.850550
vt 0.644843 0.850927
vt 0.376841 0.443059
vt 0.373009 0.448794
vt 0.626409 0.947546
vt 0.626530 0.913991
vt 0.633424 0.913978
vt 0.633304 0.947393
vt 0.163480 0.615016
vt 0.161547 0.612123
vt 0.159594 0.609201
vt 0.571369 0.913991
vt 0.571248 0.947546
vt 0.567801 0.947393
vt 0.567921 0.913978
vt 0.564355 0.946976
vt 0.564473 0.913940
vt 0.339605 0.427636
vt 0.338260 0.434400
vt 0.626572 0.874411
vt 0.633467 0.874411
vt 0.126209 0.630454
vt 0.125530 0.627042
vt 0.124844 0.623594
vt 0.571411 0.874411
vt 0.567963 0.874411
vt 0.564515 0.874411
vt 0.299301 0.427636
vt 0.300647 0.434400
vt 0.626530 0.834831
vt 0.633424 0.834844
vt 0.085867 0.630454
vt 0.086546 0.627042
vt 0.087232 0.623594
vt 0.947334 0.238167
vt 0.950756 0.238167
vt 0.954186 0.238167
vt 0.299300 0.842332
vt 0.300645 0.835568
vt 0.571369 0.834831
vt 0.567921 0.834844
vt 0.564473 0.834882
vt 0.262066 0.443059
vt 0.265897 0.448794
vt 0.626409 0.801276
vt 0.633304 0.801429
vt 0.048596 0.615016
vt 0.050529 0.612123
vt 0.052482 0.609201
vt 0.571248 0.801276
vt 0.567801 0.801429
vt 0.564355 0.801846
vt 0.233567 0.471558
vt 0.239301 0.475390
vt 0.902040 0.905084
vt 0.898592 0.904931
vt 0.895144 0.904514
vt 0.957203 0.625922
vt 0.957203 0.595620
vt 0.964098 0.595602
vt 0.964098 0.625784
vt 0.020070 0.586490
vt 0.022963 0.584557
vt 0.025886 0.582605
vt 0.902041 0.595620
vt 0.902041 0.625922
vt 0.898594 0.625784
vt 0.898594 0.595602
vt 0.895146 0.625407
vt 0.895146 0.595553
vt 0.218144 0.508794
vt 0.224908 0.510139
vt 0.892655 0.004597
vt 0.895613 0.038152
vt 0.892191 0.038165
vt 0.889251 0.004750
vt 0.888762 0.038203
vt 0.885870 0.005167
vt 0.299301 0.639712
vt 0.300646 0.646476
vt 0.950293 0.038152
vt 0.947334 0.004597
vt 0.950765 0.004750
vt 0.953706 0.038165
vt 0.954219 0.005167
vt 0.957111 0.038203
vt 0.474141 0.614832
vt 0.477973 0.609098
vt 0.896652 0.077732
vt 0.893230 0.077732
vt 0.889800 0.077732
vt 0.339604 0.639712
vt 0.338259 0.646476
vt 0.951332 0.077732
vt 0.954744 0.077732
vt 0.958149 0.077732
vt 0.511376 0.630255
vt 0.512722 0.623491
vt 0.895613 0.117312
vt 0.892191 0.117299
vt 0.888762 0.117261
vt 0.376839 0.655136
vt 0.373008 0.660870
vt 0.950293 0.117312
vt 0.953706 0.117299
vt 0.957111 0.117261
vt 0.551679 0.630255
vt 0.550334 0.623491
vt 0.892655 0.150867
vt 0.889251 0.150714
vt 0.885870 0.150297
vt 0.405337 0.683635
vt 0.399603 0.687466
vt 0.947334 0.150867
vt 0.950765 0.150714
vt 0.954219 0.150297
vt 0.588914 0.614832
vt 0.585083 0.609097
vt 0.902041 0.325468
vt 0.902041 0.359022
vt 0.898594 0.359036
vt 0.898594 0.325620
vt 0.895146 0.359073
vt 0.895146 0.326038
vt 0.420760 0.720870
vt 0.413997 0.722216
vt 0.957203 0.359022
vt 0.957203 0.325468
vt 0.960651 0.325620
vt 0.960651 0.359036
vt 0.964098 0.326038
vt 0.964098 0.359073
vt 0.617413 0.586333
vt 0.611679 0.582501
vt 0.902041 0.398602
vt 0.898594 0.398602
vt 0.895146 0.398602
vt 0.420760 0.761174
vt 0.413996 0.759828
vt 0.957203 0.398602
vt 0.960651 0.398602
vt 0.964098 0.398602
vt 0.632836 0.549097
vt 0.626073 0.547752
vt 0.902041 0.438183
vt 0.898594 0.438169
vt 0.895146 0.438132
vt 0.405337 0.798409
vt 0.399603 0.794578
vt 0.957203 0.438183
vt 0.960651 0.438169
vt 0.964098 0.438132
vt 0.632837 0.508794
vt 0.626073 0.510139
vt 0.902041 0.471737
vt 0.898594 0.471585
vt 0.895146 0.471167
vt 0.376838 0.826908
vt 0.373007 0.821174
vt 0.957203 0.471737
vt 0.960651 0.471585
vt 0.964098 0.471167
vt 0.617414 0.471558
vt 0.611679 0.475390
vt 0.951332 0.311302
vt 0.948373 0.277748
vt 0.951795 0.277734
vt 0.954736 0.311149
vt 0.955224 0.277696
vt 0.958116 0.310732
vt 0.339603 0.842332
vt 0.338257 0.835568
vt 0.893694 0.277748
vt 0.896652 0.311302
vt 0.893221 0.311149
vt 0.890280 0.277734
vt 0.889767 0.310732
vt 0.886875 0.277696
vt 0.588915 0.443059
vt 0.585084 0.448794
s 1
usemtl BB_RustedSteel
f 11/1/11 25/2/25 20/3/20
f 2/4/2 18/5/18 17/6/17
f 16/7/16 20/8/20 12/9/12
f 40/10/40 2/11/2 38/12/38
f 3/13/3 38/14/38 14/15/14
f 3/13/3 14/15/14 23/16/23
f 16/7/16 33/17/33 20/8/20
f 36/18/36 34/19/34 6/20/6
f 4/21/4 30/22/30 22/23/22
f 4/21/4 22/23/22 39/24/39
f 33/25/33 11/1/11 20/3/20
f 36/26/36 40/10/40 34/27/34
f 5/28/5 26/29/26 41/30/41
f 5/28/5 41/30/41 35/31/35
f 42/32/42 38/14/38 3/13/3
f 24/33/24 31/34/31 16/7/16
f 6/35/6 13/36/13 37/37/37
f 6/20/6 37/38/37 21/39/21
f 24/33/24 16/7/16 12/9/12
f 2/4/2 36/18/36 18/5/18
f 42/40/42 40/10/40 38/12/38
f 1/41/1 28/42/28 34/27/34
f 10/43/10 27/44/27 19/45/19
f 1/41/1 32/46/32 28/42/28
f 9/47/9 29/48/29 15/49/15
f 1/41/1 42/40/42 32/46/32
f 8/50/8 31/34/31 24/33/24
f 2/4/2 40/51/40 36/18/36
f 1/41/1 40/10/40 42/40/42
f 40/10/40 1/41/1 34/27/34
f 7/52/7 33/53/33 16/54/16
f 31/55/31 7/52/7 16/54/16
f 32/56/32 30/22/30 4/21/4
f 32/46/32 42/40/42 30/57/30
f 42/40/42 3/58/3 30/57/30
f 15/59/15 24/33/24 12/9/12
f 15/59/15 29/60/29 24/33/24
f 29/48/29 8/61/8 24/62/24
f 28/42/28 26/63/26 5/64/5
f 28/42/28 32/46/32 26/63/26
f 32/56/32 4/21/4 26/65/26
f 19/66/19 15/59/15 12/9/12
f 19/66/19 27/67/27 15/59/15
f 27/67/27 9/68/9 15/59/15
f 34/27/34 13/69/13 6/70/6
f 34/27/34 28/42/28 13/69/13
f 28/71/28 5/28/5 13/36/13
f 18/5/18 21/39/21 11/1/11
f 18/5/18 36/18/36 21/39/21
f 36/18/36 6/20/6 21/39/21
f 21/39/21 25/2/25 11/1/11
f 21/39/21 37/38/37 25/2/25
f 37/37/37 10/43/10 25/72/25
f 37/37/37 35/31/35 10/43/10
f 37/37/37 13/36/13 35/31/35
f 13/36/13 5/28/5 35/31/35
f 35/31/35 27/44/27 10/43/10
f 35/31/35 41/30/41 27/44/27
f 41/30/41 9/73/9 27/44/27
f 41/74/41 39/24/39 9/47/9
f 41/74/41 26/65/26 39/24/39
f 26/65/26 4/21/4 39/24/39
f 39/24/39 29/48/29 9/47/9
f 39/24/39 22/23/22 29/48/29
f 22/23/22 8/61/8 29/48/29
f 22/23/22 23/75/23 8/61/8
f 22/23/22 30/22/30 23/75/23
f 30/76/30 3/13/3 23/16/23
f 23/16/23 31/55/31 8/77/8
f 23/16/23 14/15/14 31/55/31
f 14/15/14 7/52/7 31/55/31
f 14/15/14 17/78/17 7/52/7
f 14/15/14 38/14/38 17/78/17
f 38/14/38 2/79/2 17/78/17
f 17/78/17 33/53/33 7/52/7
f 17/6/17 18/5/18 33/25/33
f 18/5/18 11/1/11 33/25/33
f 20/8/20 19/66/19 12/9/12
f 20/8/20 25/80/25 19/66/19
f 25/72/25 10/43/10 19/45/19
f 224/81/224 216/82/216 218/83/218 226/84/226
f 226/85/226 218/86/218 217/87/217 225/88/225
f 225/88/225 217/87/217 215/89/215 223/90/223
f 44/91/44 52/92/52 54/93/54 46/94/46
f 46/94/46 54/93/54 53/95/53 45/96/45
f 45/97/45 53/98/53 51/99/51 43/100/43
f 188/101/188 195/102/195 197/103/197 190/104/190
f 190/105/190 197/106/197 198/107/198 189/108/189
f 189/108/189 198/107/198 196/109/196 187/110/187
f 56/111/56 48/112/48 50/113/50 58/114/58
f 58/114/58 50/113/50 49/115/49 57/116/57
f 57/117/57 49/118/49 47/119/47 55/120/55
f 212/121/212 220/122/220 222/123/222 214/124/214
f 214/125/214 222/126/222 221/127/221 213/128/213
f 213/128/213 221/127/221 219/129/219 211/130/211
f 52/92/52 60/131/60 62/132/62 54/93/54
f 54/93/54 62/132/62 61/133/61 53/95/53
f 53/98/53 61/134/61 59/135/59 51/99/51
f 64/136/64 56/111/56 58/114/58 66/137/66
f 66/137/66 58/114/58 57/116/57 65/138/65
f 65/139/65 57/117/57 55/120/55 63/140/63
f 60/141/60 68/142/68 70/143/70 62/144/62
f 62/144/62 70/143/70 69/145/69 61/146/61
f 61/134/61 69/147/69 67/148/67 59/135/59
f 72/149/72 64/150/64 66/151/66 74/152/74
f 74/152/74 66/151/66 65/153/65 73/154/73
f 73/155/73 65/139/65 63/140/63 71/156/71
f 68/142/68 76/157/76 78/158/78 70/143/70
f 70/143/70 78/158/78 77/159/77 69/145/69
f 69/147/69 77/160/77 75/161/75 67/148/67
f 192/162/192 184/163/184 186/164/186 194/165/194
f 194/165/194 186/164/186 185/166/185 193/167/193
f 193/168/193 185/169/185 183/170/183 191/171/191
f 80/172/80 72/149/72 74/152/74 82/173/82
f 82/173/82 74/152/74 73/154/73 81/174/81
f 81/175/81 73/155/73 71/156/71 79/176/79
f 216/82/216 208/177/208 210/178/210 218/83/218
f 218/86/218 210/179/210 209/180/209 217/87/217
f 217/87/217 209/180/209 207/181/207 215/89/215
f 76/157/76 84/182/84 86/183/86 78/158/78
f 78/158/78 86/183/86 85/184/85 77/159/77
f 77/160/77 85/185/85 83/186/83 75/161/75
f 88/187/88 80/172/80 82/173/82 90/188/90
f 90/188/90 82/173/82 81/174/81 89/189/89
f 89/190/89 81/175/81 79/176/79 87/191/87
f 84/182/84 92/192/92 94/193/94 86/183/86
f 86/183/86 94/193/94 93/194/93 85/184/85
f 85/185/85 93/195/93 91/196/91 83/186/83
f 180/197/180 188/198/188 190/199/190 182/200/182
f 182/200/182 190/199/190 189/201/189 181/202/181
f 181/203/181 189/108/189 187/110/187 179/204/179
f 96/205/96 88/187/88 90/188/90 98/206/98
f 98/206/98 90/188/90 89/189/89 97/207/97
f 97/208/97 89/190/89 87/191/87 95/209/95
f 204/210/204 212/121/212 214/124/214 206/211/206
f 206/212/206 214/125/214 213/128/213 205/213/205
f 205/213/205 213/128/213 211/130/211 203/214/203
f 92/215/92 100/216/100 102/217/102 94/218/94
f 94/218/94 102/217/102 101/219/101 93/220/93
f 93/195/93 101/221/101 99/222/99 91/196/91
f 104/223/104 96/224/96 98/225/98 106/226/106
f 106/226/106 98/225/98 97/227/97 105/228/105
f 105/229/105 97/208/97 95/209/95 103/230/103
f 100/216/100 108/231/108 110/232/110 102/217/102
f 102/217/102 110/232/110 109/233/109 101/219/101
f 101/221/101 109/234/109 107/235/107 99/222/99
f 112/236/112 104/223/104 106/226/106 114/237/114
f 114/237/114 106/226/106 105/228/105 113/238/113
f 113/239/113 105/229/105 103/230/103 111/240/111
f 108/231/108 116/241/116 118/242/118 110/232/110
f 110/232/110 118/242/118 117/243/117 109/233/109
f 109/234/109 117/244/117 115/245/115 107/235/107
f 120/246/120 112/236/112 114/237/114 122/247/122
f 122/247/122 114/237/114 113/238/113 121/248/121
f 121/249/121 113/239/113 111/240/111 119/250/119
f 208/177/208 200/251/200 202/252/202 210/178/210
f 210/179/210 202/253/202 201/254/201 209/180/209
f 209/180/209 201/254/201 199/255/199 207/181/207
f 116/241/116 124/256/124 126/257/126 118/242/118
f 118/242/118 126/257/126 125/258/125 117/243/117
f 117/244/117 125/259/125 123/260/123 115/245/115
f 184/163/184 176/261/176 178/262/178 186/164/186
f 186/164/186 178/262/178 177/263/177 185/166/185
f 185/169/185 177/264/177 175/265/175 183/170/183
f 128/266/128 120/246/120 122/247/122 130/267/130
f 130/267/130 122/247/122 121/248/121 129/268/129
f 129/269/129 121/249/121 119/250/119 127/270/127
f 124/271/124 132/272/132 134/273/134 126/274/126
f 126/274/126 134/273/134 133/275/133 125/276/125
f 125/259/125 133/277/133 131/278/131 123/260/123
f 136/279/136 128/280/128 130/281/130 138/282/138
f 138/282/138 130/281/130 129/283/129 137/284/137
f 137/285/137 129/269/129 127/270/127 135/286/135
f 195/102/195 204/210/204 206/211/206 197/103/197
f 197/106/197 206/212/206 205/213/205 198/107/198
f 198/107/198 205/213/205 203/214/203 196/109/196
f 132/272/132 140/287/140 142/288/142 134/273/134
f 134/273/134 142/288/142 141/289/141 133/275/133
f 133/277/133 141/290/141 139/291/139 131/278/131
f 144/292/144 136/279/136 138/282/138 146/293/146
f 146/293/146 138/282/138 137/284/137 145/294/145
f 145/295/145 137/285/137 135/286/135 143/296/143
f 140/287/140 148/297/148 150/298/150 142/288/142
f 142/288/142 150/298/150 149/299/149 141/289/141
f 141/290/141 149/300/149 147/301/147 139/291/139
f 172/302/172 180/197/180 182/200/182 174/303/174
f 174/303/174 182/200/182 181/202/181 173/304/173
f 173/305/173 181/203/181 179/204/179 171/306/171
f 152/307/152 144/292/144 146/293/146 154/308/154
f 154/308/154 146/293/146 145/294/145 153/309/153
f 153/310/153 145/295/145 143/296/143 151/311/151
f 148/297/148 156/312/156 158/313/158 150/298/150
f 150/298/150 158/313/158 157/314/157 149/299/149
f 149/300/149 157/315/157 155/316/155 147/301/147
f 160/317/160 152/307/152 154/308/154 162/318/162
f 162/318/162 154/308/154 153/309/153 161/319/161
f 161/320/161 153/310/153 151/311/151 159/321/159
f 200/251/200 192/322/192 194/323/194 202/252/202
f 202/253/202 194/324/194 193/168/193 201/254/201
f 201/254/201 193/168/193 191/171/191 199/255/199
f 156/325/156 164/326/164 166/327/166 158/328/158
f 158/328/158 166/327/166 165/329/165 157/330/157
f 157/315/157 165/331/165 163/332/163 155/316/155
f 168/333/168 160/334/160 162/335/162 170/336/170
f 170/336/170 162/335/162 161/337/161 169/338/169
f 169/339/169 161/320/161 159/321/159 167/340/167
f 164/326/164 44/91/44 46/94/46 166/327/166
f 166/327/166 46/94/46 45/96/45 165/329/165
f 165/331/165 45/97/45 43/100/43 163/332/163
f 48/112/48 168/333/168 170/336/170 50/113/50
f 50/113/50 170/336/170 169/338/169 49/115/49
f 49/118/49 169/339/169 167/340/167 47/119/47
f 220/341/220 228/342/228 230/343/230 222/344/222
f 222/126/222 230/345/230 229/346/229 221/127/221
f 221/127/221 229/346/229 227/347/227 219/129/219
f 232/348/232 224/349/224 226/350/226 234/351/234
f 234/352/234 226/85/226 225/88/225 233/353/233
f 233/353/233 225/88/225 223/90/223 231/354/231
f 228/342/228 236/355/236 238/356/238 230/343/230
f 230/345/230 238/357/238 237/358/237 229/346/229
f 229/346/229 237/358/237 235/359/235 227/347/227
f 240/360/240 232/348/232 234/351/234 242/361/242
f 242/362/242 234/352/234 233/353/233 241/363/241
f 241/363/241 233/353/233 231/354/231 239/364/239
f 236/355/236 244/365/244 246/366/246 238/356/238
f 238/357/238 246/367/246 245/368/245 237/358/237
f 237/358/237 245/368/245 243/369/243 235/359/235
f 248/370/248 240/360/240 242/361/242 250/371/250
f 250/372/250 242/362/242 241/363/241 249/373/249
f 249/373/249 241/363/241 239/364/239 247/374/247
f 244/365/244 252/375/252 254/376/254 246/366/246
f 246/367/246 254/377/254 253/378/253 245/368/245
f 245/368/245 253/378/253 251/379/251 243/369/243
f 256/380/256 248/370/248 250/371/250 258/381/258
f 258/382/258 250/372/250 249/373/249 257/383/257
f 257/383/257 249/373/249 247/374/247 255/384/255
f 252/385/252 260/386/260 262/387/262 254/388/254
f 254/388/254 262/387/262 261/389/261 253/390/253
f 253/378/253 261/391/261 259/392/259 251/379/251
f 264/393/264 256/394/256 258/395/258 266/396/266
f 266/396/266 258/395/258 257/397/257 265/398/265
f 265/399/265 257/383/257 255/384/255 263/400/263
f 260/386/260 268/401/268 270/402/270 262/387/262
f 262/387/262 270/402/270 269/403/269 261/389/261
f 261/391/261 269/404/269 267/405/267 259/392/259
f 272/406/272 264/393/264 266/396/266 274/407/274
f 274/407/274 266/396/266 265/398/265 273/408/273
f 273/409/273 265/399/265 263/400/263 271/410/271
f 268/401/268 276/411/276 278/412/278 270/402/270
f 270/402/270 278/412/278 277/413/277 269/403/269
f 269/404/269 277/414/277 275/415/275 267/405/267
f 280/416/280 272/406/272 274/407/274 282/417/282
f 282/417/282 274/407/274 273/408/273 281/418/281
f 281/419/281 273/409/273 271/410/271 279/420/279
f 276/411/276 284/421/284 286/422/286 278/412/278
f 278/412/278 286/422/286 285/423/285 277/413/277
f 277/414/277 285/424/285 283/425/283 275/415/275
f 288/426/288 280/416/280 282/417/282 290/427/290
f 290/427/290 282/417/282 281/418/281 289/428/289
f 289/429/289 281/419/281 279/420/279 287/430/287
f 284/431/284 292/432/292 294/433/294 286/434/286
f 286/434/286 294/433/294 293/435/293 285/436/285
f 285/424/285 293/437/293 291/438/291 283/425/283
f 296/439/296 288/440/288 290/441/290 298/442/298
f 298/442/298 290/441/290 289/443/289 297/444/297
f 297/445/297 289/429/289 287/430/287 295/446/295
f 292/432/292 172/302/172 174/303/174 294/433/294
f 294/433/294 174/303/174 173/304/173 293/435/293
f 293/437/293 173/305/173 171/306/171 291/438/291
f 176/261/176 296/439/296 298/442/298 178/262/178
f 178/262/178 298/442/298 297/444/297 177/263/177
f 177/264/177 297/445/297 295/446/295 175/265/175
f 480/447/224 472/448/216 474/449/218 482/450/226
f 482/450/226 474/449/218 473/451/217 481/452/225
f 481/453/225 473/454/217 471/455/215 479/456/223
f 300/457/44 308/458/52 310/459/54 302/460/46
f 302/461/46 310/462/54 309/463/53 301/464/45
f 301/464/45 309/463/53 307/465/51 299/466/43
f 444/467/188 451/468/195 453/469/197 446/470/190
f 446/470/190 453/469/197 454/471/198 445/472/189
f 445/473/189 454/474/198 452/475/196 443/476/187
f 312/477/56 304/478/48 306/479/50 314/480/58
f 314/480/58 306/479/50 305/481/49 313/482/57
f 313/483/57 305/484/49 303/485/47 311/486/55
f 468/487/212 476/488/220 478/489/222 470/490/214
f 470/490/214 478/489/222 477/491/221 469/492/213
f 469/493/213 477/494/221 475/495/219 467/496/211
f 308/458/52 316/497/60 318/498/62 310/459/54
f 310/462/54 318/499/62 317/500/61 309/463/53
f 309/463/53 317/500/61 315/501/59 307/465/51
f 320/502/64 312/477/56 314/480/58 322/503/66
f 322/503/66 314/480/58 313/482/57 321/504/65
f 321/505/65 313/483/57 311/486/55 319/506/63
f 316/507/60 324/508/68 326/509/70 318/510/62
f 318/499/62 326/511/70 325/512/69 317/500/61
f 317/500/61 325/512/69 323/513/67 315/501/59
f 328/514/72 320/515/64 322/516/66 330/517/74
f 330/517/74 322/516/66 321/518/65 329/519/73
f 329/520/73 321/505/65 319/506/63 327/521/71
f 324/508/68 332/522/76 334/523/78 326/509/70
f 326/511/70 334/524/78 333/525/77 325/512/69
f 325/512/69 333/525/77 331/526/75 323/513/67
f 448/527/192 440/528/184 442/529/186 450/530/194
f 450/530/194 442/529/186 441/531/185 449/532/193
f 449/533/193 441/534/185 439/535/183 447/536/191
f 336/537/80 328/514/72 330/517/74 338/538/82
f 338/538/82 330/517/74 329/519/73 337/539/81
f 337/540/81 329/520/73 327/521/71 335/541/79
f 472/448/216 464/542/208 466/543/210 474/449/218
f 474/449/218 466/543/210 465/544/209 473/451/217
f 473/454/217 465/545/209 463/546/207 471/455/215
f 332/522/76 340/547/84 342/548/86 334/523/78
f 334/524/78 342/549/86 341/550/85 333/525/77
f 333/525/77 341/550/85 339/551/83 331/526/75
f 344/552/88 336/537/80 338/538/82 346/553/90
f 346/553/90 338/538/82 337/539/81 345/554/89
f 345/555/89 337/540/81 335/541/79 343/556/87
f 340/547/84 348/557/92 350/558/94 342/548/86
f 342/549/86 350/559/94 349/560/93 341/550/85
f 341/550/85 349/560/93 347/561/91 339/551/83
f 436/562/180 444/563/188 446/564/190 438/565/182
f 438/565/182 446/564/190 445/566/189 437/567/181
f 437/568/181 445/473/189 443/476/187 435/569/179
f 352/570/96 344/552/88 346/553/90 354/571/98
f 354/571/98 346/553/90 345/554/89 353/572/97
f 353/573/97 345/555/89 343/556/87 351/574/95
f 460/575/204 468/487/212 470/490/214 462/576/206
f 462/576/206 470/490/214 469/492/213 461/577/205
f 461/578/205 469/493/213 467/496/211 459/579/203
f 348/580/92 356/581/100 358/582/102 350/583/94
f 350/559/94 358/584/102 357/585/101 349/560/93
f 349/560/93 357/585/101 355/586/99 347/561/91
f 360/587/104 352/588/96 354/589/98 362/590/106
f 362/590/106 354/589/98 353/591/97 361/592/105
f 361/593/105 353/573/97 351/574/95 359/594/103
f 356/581/100 364/595/108 366/596/110 358/582/102
f 358/584/102 366/597/110 365/598/109 357/585/101
f 357/585/101 365/598/109 363/599/107 355/586/99
f 368/600/112 360/587/104 362/590/106 370/601/114
f 370/601/114 362/590/106 361/592/105 369/602/113
f 369/603/113 361/593/105 359/594/103 367/604/111
f 364/595/108 372/605/116 374/606/118 366/596/110
f 366/597/110 374/607/118 373/608/117 365/598/109
f 365/598/109 373/608/117 371/609/115 363/599/107
f 376/610/120 368/600/112 370/601/114 378/611/122
f 378/611/122 370/601/114 369/602/113 377/612/121
f 377/613/121 369/603/113 367/604/111 375/614/119
f 464/542/208 456/615/200 458/616/202 466/543/210
f 466/543/210 458/616/202 457/617/201 465/544/209
f 465/545/209 457/618/201 455/619/199 463/546/207
f 372/605/116 380/620/124 382/621/126 374/606/118
f 374/607/118 382/622/126 381/623/125 373/608/117
f 373/608/117 381/623/125 379/624/123 371/609/115
f 440/528/184 432/625/176 434/626/178 442/529/186
f 442/529/186 434/626/178 433/627/177 441/531/185
f 441/534/185 433/628/177 431/629/175 439/535/183
f 384/630/128 376/610/120 378/611/122 386/631/130
f 386/631/130 378/611/122 377/612/121 385/632/129
f 385/633/129 377/613/121 375/614/119 383/634/127
f 380/635/124 388/636/132 390/637/134 382/638/126
f 382/622/126 390/639/134 389/640/133 381/623/125
f 381/623/125 389/640/133 387/641/131 379/624/123
f 392/642/136 384/643/128 386/644/130 394/645/138
f 394/645/138 386/644/130 385/646/129 393/647/137
f 393/648/137 385/633/129 383/634/127 391/649/135
f 451/468/195 460/575/204 462/576/206 453/469/197
f 453/469/197 462/576/206 461/577/205 454/471/198
f 454/474/198 461/578/205 459/579/203 452/475/196
f 388/636/132 396/650/140 398/651/142 390/637/134
f 390/639/134 398/652/142 397/653/141 389/640/133
f 389/640/133 397/653/141 395/654/139 387/641/131
f 400/655/144 392/642/136 394/645/138 402/656/146
f 402/656/146 394/645/138 393/647/137 401/657/145
f 401/658/145 393/648/137 391/649/135 399/659/143
f 396/650/140 404/660/148 406/661/150 398/651/142
f 398/652/142 406/662/150 405/663/149 397/653/141
f 397/653/141 405/663/149 403/664/147 395/654/139
f 428/665/172 436/562/180 438/565/182 430/666/174
f 430/666/174 438/565/182 437/567/181 429/667/173
f 429/668/173 437/568/181 435/569/179 427/669/171
f 408/670/152 400/655/144 402/656/146 410/671/154
f 410/671/154 402/656/146 401/657/145 409/672/153
f 409/673/153 401/658/145 399/659/143 407/674/151
f 404/660/148 412/675/156 414/676/158 406/661/150
f 406/662/150 414/677/158 413/678/157 405/663/149
f 405/663/149 413/678/157 411/679/155 403/664/147
f 416/680/160 408/670/152 410/671/154 418/681/162
f 418/681/162 410/671/154 409/672/153 417/682/161
f 417/683/161 409/673/153 407/674/151 415/684/159
f 456/615/200 448/685/192 450/686/194 458/616/202
f 458/616/202 450/686/194 449/687/193 457/617/201
f 457/618/201 449/533/193 447/536/191 455/619/199
f 412/688/156 420/689/164 422/690/166 414/691/158
f 414/677/158 422/692/166 421/693/165 413/678/157
f 413/678/157 421/693/165 419/694/163 411/679/155
f 424/695/168 416/696/160 418/697/162 426/698/170
f 426/698/170 418/697/162 417/699/161 425/700/169
f 425/701/169 417/683/161 415/684/159 423/702/167
f 420/689/164 300/457/44 302/460/46 422/690/166
f 422/692/166 302/461/46 301/464/45 421/693/165
f 421/693/165 301/464/45 299/466/43 419/694/163
f 304/478/48 424/695/168 426/698/170 306/479/50
f 306/479/50 426/698/170 425/700/169 305/481/49
f 305/484/49 425/701/169 423/702/167 303/485/47
f 476/703/220 484/704/228 486/705/230 478/706/222
f 478/706/222 486/705/230 485/707/229 477/708/221
f 477/494/221 485/709/229 483/710/227 475/495/219
f 488/711/232 480/712/224 482/713/226 490/714/234
f 490/714/234 482/713/226 481/715/225 489/716/233
f 489/717/233 481/453/225 479/456/223 487/718/231
f 484/704/228 492/719/236 494/720/238 486/705/230
f 486/705/230 494/720/238 493/721/237 485/707/229
f 485/709/229 493/722/237 491/723/235 483/710/227
f 496/724/240 488/711/232 490/714/234 498/725/242
f 498/725/242 490/714/234 489/716/233 497/726/241
f 497/727/241 489/717/233 487/718/231 495/728/239
f 492/719/236 500/729/244 502/730/246 494/720/238
f 494/720/238 502/730/246 501/731/245 493/721/237
f 493/722/237 501/732/245 499/733/243 491/723/235
f 504/734/248 496/724/240 498/725/242 506/735/250
f 506/735/250 498/725/242 497/726/241 505/736/249
f 505/737/249 497/727/241 495/728/239 503/738/247
f 500/729/244 508/739/252 510/740/254 502/730/246
f 502/730/246 510/740/254 509/741/253 501/731/245
f 501/732/245 509/742/253 507/743/251 499/733/243
f 512/744/256 504/734/248 506/735/250 514/745/258
f 514/745/258 506/735/250 505/736/249 513/746/257
f 513/747/257 505/737/249 503/738/247 511/748/255
f 508/749/252 516/750/260 518/751/262 510/752/254
f 510/752/254 518/751/262 517/753/261 509/754/253
f 509/742/253 517/755/261 515/756/259 507/743/251
f 520/757/264 512/758/256 514/759/258 522/760/266
f 522/760/266 514/759/258 513/761/257 521/762/265
f 521/763/265 513/747/257 511/748/255 519/764/263
f 516/750/260 524/765/268 526/766/270 518/751/262
f 518/751/262 526/766/270 525/767/269 517/753/261
f 517/755/261 525/768/269 523/769/267 515/756/259
f 528/770/272 520/757/264 522/760/266 530/771/274
f 530/771/274 522/760/266 521/762/265 529/772/273
f 529/773/273 521/763/265 519/764/263 527/774/271
f 524/765/268 532/775/276 534/776/278 526/766/270
f 526/766/270 534/776/278 533/777/277 525/767/269
f 525/768/269 533/778/277 531/779/275 523/769/267
f 536/780/280 528/770/272 530/771/274 538/781/282
f 538/781/282 530/771/274 529/772/273 537/782/281
f 537/783/281 529/773/273 527/774/271 535/784/279
f 532/775/276 540/785/284 542/786/286 534/776/278
f 534/776/278 542/786/286 541/787/285 533/777/277
f 533/778/277 541/788/285 539/789/283 531/779/275
f 544/790/288 536/780/280 538/781/282 546/791/290
f 546/791/290 538/781/282 537/782/281 545/792/289
f 545/793/289 537/783/281 535/784/279 543/794/287
f 540/795/284 548/796/292 550/797/294 542/798/286
f 542/798/286 550/797/294 549/799/293 541/800/285
f 541/788/285 549/801/293 547/802/291 539/789/283
f 552/803/296 544/804/288 546/805/290 554/806/298
f 554/806/298 546/805/290 545/807/289 553/808/297
f 553/809/297 545/793/289 543/794/287 551/810/295
f 548/796/292 428/665/172 430/666/174 550/797/294
f 550/797/294 430/666/174 429/667/173 549/799/293
f 549/801/293 429/668/173 427/669/171 547/802/291
f 432/625/176 552/803/296 554/806/298 434/626/178
f 434/626/178 554/806/298 553/808/297 433/627/177
f 433/628/177 553/809/297 551/810/295 431/629/175
f 43/100/43 51/99/51 59/135/59 67/148/67 75/161/75 83/186/83 91/196/91 99/222/99 107/235/107 115/245/115 123/260/123 131/278/131 139/291/139 147/301/147 155/316/155 163/332/163
f 44/91/44 48/112/48 56/111/56 52/92/52
f 164/326/164 168/333/168 48/112/48 44/91/44
f 55/120/55 47/119/47 167/340/167 159/321/159 151/311/151 143/296/143 135/286/135 127/270/127 119/250/119 111/240/111 103/230/103 95/209/95 87/191/87 79/176/79 71/156/71 63/140/63
f 52/92/52 56/111/56 64/136/64 60/131/60
f 60/141/60 64/150/64 72/149/72 68/142/68
f 68/142/68 72/149/72 80/172/80 76/157/76
f 76/157/76 80/172/80 88/187/88 84/182/84
f 84/182/84 88/187/88 96/205/96 92/192/92
f 92/215/92 96/224/96 104/223/104 100/216/100
f 100/216/100 104/223/104 112/236/112 108/231/108
f 108/231/108 112/236/112 120/246/120 116/241/116
f 116/241/116 120/246/120 128/266/128 124/256/124
f 124/271/124 128/280/128 136/279/136 132/272/132
f 132/272/132 136/279/136 144/292/144 140/287/140
f 140/287/140 144/292/144 152/307/152 148/297/148
f 148/297/148 152/307/152 160/317/160 156/312/156
f 156/325/156 160/334/160 168/333/168 164/326/164
f 292/432/292 296/439/296 176/261/176 172/302/172
f 172/302/172 176/261/176 184/163/184 180/197/180
f 251/379/251 259/392/259 267/405/267 275/415/275 283/425/283 291/438/291 171/306/171 179/204/179 187/110/187 196/109/196 203/214/203 211/130/211 219/129/219 227/347/227 235/359/235 243/369/243
f 215/89/215 207/181/207 199/255/199 191/171/191 183/170/183 175/265/175 295/446/295 287/430/287 279/420/279 271/410/271 263/400/263 255/384/255 247/374/247 239/364/239 231/354/231 223/90/223
f 180/197/180 184/163/184 192/162/192 188/198/188
f 188/101/188 192/322/192 200/251/200 195/102/195
f 195/102/195 200/251/200 208/177/208 204/210/204
f 204/210/204 208/177/208 216/82/216 212/121/212
f 212/121/212 216/82/216 224/81/224 220/122/220
f 220/341/220 224/349/224 232/348/232 228/342/228
f 228/342/228 232/348/232 240/360/240 236/355/236
f 236/355/236 240/360/240 248/370/248 244/365/244
f 244/365/244 248/370/248 256/380/256 252/375/252
f 252/385/252 256/394/256 264/393/264 260/386/260
f 260/386/260 264/393/264 272/406/272 268/401/268
f 268/401/268 272/406/272 280/416/280 276/411/276
f 276/411/276 280/416/280 288/426/288 284/421/284
f 284/431/284 288/440/288 296/439/296 292/432/292
f 299/466/43 307/465/51 315/501/59 323/513/67 331/526/75 339/551/83 347/561/91 355/586/99 363/599/107 371/609/115 379/624/123 387/641/131 395/654/139 403/664/147 411/679/155 419/694/163
f 300/457/44 304/478/48 312/477/56 308/458/52
f 420/689/164 424/695/168 304/478/48 300/457/44
f 311/486/55 303/485/47 423/702/167 415/684/159 407/674/151 399/659/143 391/649/135 383/634/127 375/614/119 367/604/111 359/594/103 351/574/95 343/556/87 335/541/79 327/521/71 319/506/63
f 308/458/52 312/477/56 320/502/64 316/497/60
f 316/507/60 320/515/64 328/514/72 324/508/68
f 324/508/68 328/514/72 336/537/80 332/522/76
f 332/522/76 336/537/80 344/552/88 340/547/84
f 340/547/84 344/552/88 352/570/96 348/557/92
f 348/580/92 352/588/96 360/587/104 356/581/100
f 356/581/100 360/587/104 368/600/112 364/595/108
f 364/595/108 368/600/112 376/610/120 372/605/116
f 372/605/116 376/610/120 384/630/128 380/620/124
f 380/635/124 384/643/128 392/642/136 388/636/132
f 388/636/132 392/642/136 400/655/144 396/650/140
f 396/650/140 400/655/144 408/670/152 404/660/148
f 404/660/148 408/670/152 416/680/160 412/675/156
f 412/688/156 416/696/160 424/695/168 420/689/164
f 548/796/292 552/803/296 432/625/176 428/665/172
f 428/665/172 432/625/176 440/528/184 436/562/180
f 507/743/251 515/756/259 523/769/267 531/779/275 539/789/283 547/802/291 427/669/171 435/569/179 443/476/187 452/475/196 459/579/203 467/496/211 475/495/219 483/710/227 491/723/235 499/733/243
f 471/455/215 463/546/207 455/619/199 447/536/191 439/535/183 431/629/175 551/810/295 543/794/287 535/784/279 527/774/271 519/764/263 511/748/255 503/738/247 495/728/239 487/718/231 479/456/223
f 436/562/180 440/528/184 448/527/192 444/563/188
f 444/467/188 448/685/192 456/615/200 451/468/195
f 451/468/195 456/615/200 464/542/208 460/575/204
f 460/575/204 464/542/208 472/448/216 468/487/212
f 468/487/212 472/448/216 480/447/224 476/488/220
f 476/703/220 480/712/224 488/711/232 484/704/228
f 484/704/228 488/711/232 496/724/240 492/719/236
f 492/719/236 496/724/240 504/734/248 500/729/244
f 500/729/244 504/734/248 512/744/256 508/739/252
f 508/749/252 512/758/256 520/757/264 516/750/260
f 516/750/260 520/757/264 528/770/272 524/765/268
f 524/765/268 528/770/272 536/780/280 532/775/276
f 532/775/276 536/780/280 544/790/288 540/785/284
f 540/795/284 544/804/288 552/803/296 548/796/292
