# Blender 5.0.1
# www.blender.org
mtllib BB_PROP_OilCan.mtl
o BB_PROP_OilCan
v 7.501078 3.501583 -0.496268
v 7.527078 3.536767 -0.466167
v 7.501194 3.501498 -0.496127
v 7.509236 3.513129 -0.487115
v 7.500682 3.500938 -0.496205
v 7.504911 3.506717 -0.492341
v 7.519176 3.525492 -0.475814
v 7.518752 3.526007 -0.476097
v 7.511602 3.515754 -0.484856
v 7.500694 3.500929 -0.496191
v 7.509702 3.512583 -0.486781
v 7.504951 3.506672 -0.492313
v 7.501194 3.501498 0.497487
v 7.529533 3.540073 0.486718
v 7.501078 3.501583 0.497527
v 7.510471 3.513581 0.494326
v 7.500687 3.500923 0.497505
v 7.505242 3.507074 0.496489
v 7.520305 3.528134 0.490530
v 7.520844 3.527700 0.490384
v 7.512561 3.517044 0.493829
v 7.500678 3.500929 0.497509
v 7.509890 3.514046 0.494486
v 7.505206 3.507103 0.496499
v 8.000000 4.148047 0.000000
v 8.000000 4.150000 0.001915
v 8.000000 4.149024 0.000257
v 8.000000 4.149738 0.000958
v 8.000000 4.148047 0.300000
v 8.000000 4.150000 0.298085
v 8.000000 4.149024 0.299743
v 8.000000 4.149738 0.299042
v 8.056655 4.136778 0.000000
v 8.057403 4.138582 0.001915
v 8.057029 4.137680 0.000257
v 8.057302 4.138340 0.000958
v 8.056655 4.136778 0.300000
v 8.057403 4.138582 0.298085
v 8.057029 4.137680 0.299743
v 8.057302 4.138340 0.299042
v 8.104685 4.104685 0.000000
v 8.106066 4.106066 0.001915
v 8.105375 4.105376 0.000257
v 8.105881 4.105881 0.000958
v 8.104685 4.104685 0.300000
v 8.106066 4.106066 0.298085
v 8.105375 4.105376 0.299743
v 8.105881 4.105881 0.299042
v 8.136778 4.056655 0.000000
v 8.138582 4.057403 0.001915
v 8.137680 4.057029 0.000257
v 8.138340 4.057302 0.000958
v 8.136778 4.056655 0.300000
v 8.138582 4.057403 0.298085
v 8.137680 4.057029 0.299743
v 8.138340 4.057302 0.299042
v 8.148047 4.000000 0.000000
v 8.150000 4.000000 0.001915
v 8.149024 4.000000 0.000257
v 8.149738 4.000000 0.000958
v 8.148047 4.000000 0.300000
v 8.150000 4.000000 0.298085
v 8.149024 4.000000 0.299743
v 8.149738 4.000000 0.299042
v 8.136778 3.943345 0.000000
v 8.138582 3.942597 0.001915
v 8.137680 3.942971 0.000257
v 8.138340 3.942698 0.000958
v 8.136778 3.943345 0.300000
v 8.138582 3.942597 0.298085
v 8.137680 3.942971 0.299743
v 8.138340 3.942698 0.299042
v 8.104685 3.895315 0.000000
v 8.106066 3.893934 0.001915
v 8.105375 3.894624 0.000257
v 8.105881 3.894119 0.000958
v 8.104685 3.895315 0.300000
v 8.106066 3.893934 0.298085
v 8.105375 3.894624 0.299743
v 8.105881 3.894119 0.299042
v 8.056655 3.863222 0.000000
v 8.057403 3.861418 0.001915
v 8.057029 3.862320 0.000257
v 8.057302 3.861660 0.000958
v 8.056655 3.863222 0.300000
v 8.057403 3.861418 0.298085
v 8.057029 3.862320 0.299743
v 8.057302 3.861660 0.299042
v 8.000000 3.851953 0.000000
v 8.000000 3.850000 0.001915
v 8.000000 3.850976 0.000257
v 8.000000 3.850262 0.000958
v 8.000000 3.851953 0.300000
v 8.000000 3.850000 0.298085
v 8.000000 3.850976 0.299743
v 8.000000 3.850262 0.299042
v 7.943345 3.863222 0.000000
v 7.942597 3.861418 0.001915
v 7.942971 3.862320 0.000257
v 7.942698 3.861660 0.000958
v 7.943345 3.863222 0.300000
v 7.942597 3.861418 0.298085
v 7.942971 3.862320 0.299743
v 7.942698 3.861660 0.299042
v 7.895315 3.895315 0.000000
v 7.893934 3.893934 0.001915
v 7.894624 3.894624 0.000257
v 7.894119 3.894119 0.000958
v 7.895315 3.895315 0.300000
v 7.893934 3.893934 0.298085
v 7.894624 3.894624 0.299743
v 7.894119 3.894119 0.299042
v 7.863222 3.943345 0.000000
v 7.861418 3.942597 0.001915
v 7.862320 3.942971 0.000257
v 7.861660 3.942698 0.000958
v 7.863222 3.943345 0.300000
v 7.861418 3.942597 0.298085
v 7.862320 3.942971 0.299743
v 7.861660 3.942698 0.299042
v 7.851953 4.000000 0.000000
v 7.850000 4.000000 0.001915
v 7.850976 4.000000 0.000257
v 7.850262 4.000000 0.000958
v 7.851953 4.000000 0.300000
v 7.850000 4.000000 0.298085
v 7.850976 4.000000 0.299743
v 7.850262 4.000000 0.299042
v 7.863222 4.056655 0.000000
v 7.861418 4.057403 0.001915
v 7.862320 4.057029 0.000257
v 7.861660 4.057302 0.000958
v 7.863222 4.056655 0.300000
v 7.861418 4.057403 0.298085
v 7.862320 4.057029 0.299743
v 7.861660 4.057302 0.299042
v 7.895315 4.104685 0.000000
v 7.893934 4.106066 0.001915
v 7.894624 4.105376 0.000257
v 7.894119 4.105881 0.000958
v 7.895315 4.104685 0.300000
v 7.893934 4.106066 0.298085
v 7.894624 4.105376 0.299743
v 7.894119 4.105881 0.299042
v 7.943345 4.136778 0.000000
v 7.942597 4.138582 0.001915
v 7.942971 4.137680 0.000257
v 7.942698 4.138340 0.000958
v 7.943345 4.136778 0.300000
v 7.942597 4.138582 0.298085
v 7.942971 4.137680 0.299743
v 7.942698 4.138340 0.299042
v 8.000000 4.148047 0.300000
v 8.000000 4.148633 0.301367
v 8.000000 4.148840 0.300183
v 8.000000 4.149055 0.300684
v 8.000000 4.048047 0.400000
v 8.000000 4.051367 0.398633
v 8.000000 4.049207 0.399817
v 8.000000 4.050422 0.399316
v 8.056655 4.136778 0.300000
v 8.056879 4.137319 0.301367
v 8.056959 4.137511 0.300183
v 8.057041 4.137709 0.300684
v 8.018387 4.044390 0.400000
v 8.019657 4.047457 0.398633
v 8.018830 4.045461 0.399817
v 8.019296 4.046584 0.399316
v 8.104685 4.104685 0.300000
v 8.105099 4.105099 0.301367
v 8.105246 4.105246 0.300183
v 8.105397 4.105398 0.300684
v 8.033975 4.033975 0.400000
v 8.036323 4.036322 0.398633
v 8.034795 4.034794 0.399817
v 8.035654 4.035654 0.399316
v 8.137319 4.056879 0.301367
v 8.136778 4.056655 0.300000
v 8.137709 4.057041 0.300684
v 8.137510 4.056959 0.300183
v 8.044390 4.018387 0.400000
v 8.047458 4.019658 0.398633
v 8.045461 4.018831 0.399817
v 8.046584 4.019296 0.399316
v 8.148047 4.000000 0.300000
v 8.148633 4.000000 0.301367
v 8.148840 4.000000 0.300183
v 8.149055 4.000000 0.300684
v 8.048047 4.000000 0.400000
v 8.051368 4.000000 0.398633
v 8.049207 4.000000 0.399817
v 8.050422 4.000000 0.399316
v 8.136778 3.943345 0.300000
v 8.137319 3.943121 0.301367
v 8.137510 3.943041 0.300183
v 8.137709 3.942959 0.300684
v 8.044390 3.981613 0.400000
v 8.047458 3.980343 0.398633
v 8.045461 3.981169 0.399817
v 8.046584 3.980704 0.399316
v 8.104685 3.895315 0.300000
v 8.105099 3.894901 0.301367
v 8.105246 3.894754 0.300183
v 8.105397 3.894602 0.300684
v 8.033975 3.966026 0.400000
v 8.036323 3.963678 0.398633
v 8.034795 3.965205 0.399817
v 8.035654 3.964346 0.399316
v 8.056655 3.863222 0.300000
v 8.056879 3.862681 0.301367
v 8.056959 3.862489 0.300183
v 8.057041 3.862291 0.300684
v 8.018387 3.955610 0.400000
v 8.019657 3.952543 0.398633
v 8.018830 3.954539 0.399817
v 8.019296 3.953416 0.399316
v 8.000000 3.851953 0.300000
v 8.000000 3.851367 0.301367
v 8.000000 3.851160 0.300183
v 8.000000 3.850945 0.300684
v 8.000000 3.951953 0.400000
v 8.000000 3.948633 0.398633
v 8.000000 3.950793 0.399817
v 8.000000 3.949578 0.399316
v 7.943345 3.863222 0.300000
v 7.943121 3.862681 0.301367
v 7.943041 3.862489 0.300183
v 7.942959 3.862291 0.300684
v 7.981613 3.955610 0.400000
v 7.980342 3.952543 0.398633
v 7.981169 3.954539 0.399817
v 7.980704 3.953416 0.399316
v 7.895315 3.895315 0.300000
v 7.894901 3.894901 0.301367
v 7.894754 3.894754 0.300183
v 7.894602 3.894602 0.300684
v 7.966025 3.966026 0.400000
v 7.963678 3.963678 0.398633
v 7.965206 3.965205 0.399817
v 7.964346 3.964346 0.399316
v 7.863222 3.943345 0.300000
v 7.862681 3.943121 0.301367
v 7.862489 3.943041 0.300183
v 7.862291 3.942959 0.300684
v 7.955610 3.981613 0.400000
v 7.952543 3.980343 0.398633
v 7.954539 3.981169 0.399817
v 7.953416 3.980704 0.399316
v 7.851953 4.000000 0.300000
v 7.851367 4.000000 0.301367
v 7.851160 4.000000 0.300183
v 7.850945 4.000000 0.300684
v 7.951953 4.000000 0.400000
v 7.948633 4.000000 0.398633
v 7.950793 4.000000 0.399817
v 7.949578 4.000000 0.399316
v 7.863222 4.056655 0.300000
v 7.862681 4.056879 0.301367
v 7.862489 4.056959 0.300183
v 7.862291 4.057041 0.300684
v 7.955610 4.018387 0.400000
v 7.952543 4.019658 0.398633
v 7.954539 4.018831 0.399817
v 7.953416 4.019296 0.399316
v 7.895315 4.104685 0.300000
v 7.894901 4.105099 0.301367
v 7.894754 4.105246 0.300183
v 7.894602 4.105398 0.300684
v 7.966025 4.033975 0.400000
v 7.963678 4.036322 0.398633
v 7.965206 4.034794 0.399817
v 7.964346 4.035654 0.399316
v 7.943345 4.136778 0.300000
v 7.943121 4.137319 0.301367
v 7.943041 4.137511 0.300183
v 7.942959 4.137709 0.300684
v 7.981613 4.044390 0.400000
v 7.980342 4.047457 0.398633
v 7.981169 4.045461 0.399817
v 7.980704 4.046584 0.399316
v 7.999994 3.978189 0.388513
v 8.001772 3.975098 0.387806
v 7.998223 3.975899 0.388555
v 8.000257 3.977067 0.388141
v 7.999732 3.977212 0.388147
v 7.999998 3.976806 0.387849
v 8.000665 3.975861 0.387634
v 8.000905 3.975940 0.387884
v 8.000302 3.976356 0.387686
v 7.999096 3.976389 0.388163
v 7.999386 3.976150 0.387903
v 7.999715 3.976501 0.387780
v 7.999998 3.856821 0.503960
v 7.998225 3.832469 0.525152
v 8.001772 3.834374 0.521666
v 7.999738 3.849223 0.510842
v 8.000257 3.849565 0.509426
v 8.000000 3.843038 0.515452
v 7.999364 3.833096 0.524074
v 7.999090 3.840310 0.518598
v 7.999704 3.837743 0.520153
v 8.000908 3.841350 0.515906
v 8.000662 3.833793 0.522798
v 8.000304 3.838084 0.519297
v 8.006070 3.973776 0.383776
v 8.005264 3.974086 0.386794
v 8.007776 3.972322 0.385030
v 8.005940 3.974326 0.384726
v 8.006852 3.973640 0.384035
v 8.006596 3.974095 0.384793
v 8.006238 3.973647 0.386364
v 8.005649 3.974438 0.385819
v 8.006403 3.974102 0.385527
v 8.007471 3.973117 0.384487
v 8.007155 3.973003 0.385720
v 8.006983 3.973684 0.385100
v 8.002075 3.831435 0.521435
v 8.004309 3.832603 0.519895
v 8.001798 3.834367 0.521659
v 8.003083 3.831663 0.521263
v 8.002108 3.832348 0.521947
v 8.002919 3.832386 0.521685
v 8.003688 3.833284 0.520585
v 8.003891 3.832086 0.520706
v 8.003421 3.832678 0.521260
v 8.002007 3.833409 0.522028
v 8.002771 3.833928 0.521229
v 8.002821 3.833099 0.521681
v 8.009212 3.969895 0.382603
v 8.009160 3.968581 0.378581
v 8.009494 3.969758 0.381111
v 8.009475 3.969276 0.379639
v 8.004212 3.829941 0.517233
v 8.004309 3.832603 0.519895
v 8.002924 3.830000 0.520000
v 8.004512 3.830812 0.518113
v 8.004097 3.829641 0.518260
v 8.004375 3.830356 0.518937
v 8.004163 3.831628 0.520248
v 8.004547 3.831784 0.519086
v 8.004395 3.830988 0.519570
v 8.003630 3.829662 0.519262
v 8.003661 3.830686 0.520286
v 8.004104 3.830321 0.519621
v 8.007811 3.966300 0.376300
v 8.005299 3.964536 0.374536
v 8.007203 3.965606 0.375606
v 8.006284 3.964961 0.374961
v 8.002075 3.828565 0.518565
v 8.001798 3.828341 0.515633
v 8.004309 3.830105 0.517397
v 8.002108 3.828053 0.517652
v 8.003083 3.828737 0.518337
v 8.002919 3.828315 0.517614
v 8.002771 3.828771 0.516072
v 8.002007 3.827972 0.516591
v 8.002821 3.828319 0.516901
v 8.003891 3.829294 0.517914
v 8.003688 3.829415 0.516716
v 8.003421 3.828740 0.517322
v 8.002021 3.963586 0.373586
v 7.998228 3.962194 0.374902
v 8.000772 3.963185 0.373548
v 7.999384 3.962675 0.374029
v 8.000000 3.827964 0.517964
v 7.998228 3.828334 0.515626
v 8.002011 3.828403 0.515695
v 7.999313 3.827641 0.517240
v 8.000763 3.827663 0.517262
v 8.000043 3.827479 0.516778
v 7.999384 3.828164 0.515466
v 7.998672 3.827775 0.516394
v 7.999606 3.827632 0.516214
v 8.001491 3.827822 0.516441
v 8.000766 3.828189 0.515490
v 8.000503 3.827647 0.516228
v 7.994590 3.965751 0.375751
v 7.994735 3.963207 0.375914
v 7.992224 3.964970 0.377678
v 7.994507 3.965008 0.375402
v 7.993526 3.965642 0.376043
v 7.993644 3.965036 0.375734
v 7.993762 3.963636 0.376353
v 7.994558 3.964088 0.375458
v 7.993719 3.964406 0.375822
v 7.992669 3.965359 0.376740
v 7.992845 3.964280 0.376997
v 7.993118 3.964808 0.376233
v 7.997925 3.828565 0.518565
v 7.995691 3.830105 0.517397
v 7.998202 3.828341 0.515633
v 7.996917 3.828737 0.518337
v 7.997892 3.828053 0.517652
v 7.997081 3.828315 0.517614
v 7.996312 3.829415 0.516716
v 7.996109 3.829294 0.517914
v 7.996580 3.828740 0.517322
v 7.997993 3.827972 0.516591
v 7.997229 3.828771 0.516072
v 7.997179 3.828319 0.516901
v 7.989163 3.969590 0.382273
v 7.990788 3.967397 0.380105
v 7.990488 3.971141 0.381481
v 7.989718 3.969360 0.381127
v 7.989644 3.969777 0.381481
v 7.989923 3.969611 0.380870
v 7.990484 3.968570 0.380534
v 7.990302 3.968571 0.380347
v 7.990194 3.969220 0.380557
v 7.990109 3.970321 0.381204
v 7.990375 3.969939 0.381038
v 7.990130 3.969802 0.380833
v 7.994230 3.829690 0.522391
v 7.994846 3.847508 0.505133
v 7.995691 3.830105 0.517397
v 7.994626 3.835347 0.516936
v 7.994722 3.829830 0.520817
v 7.994857 3.833244 0.517652
v 7.994915 3.841976 0.509012
v 7.994852 3.841869 0.510619
v 7.994925 3.837146 0.513860
v 7.995257 3.829981 0.518989
v 7.995224 3.835606 0.513500
v 7.995059 3.833327 0.516549
v 7.998521 4.121410 0.292549
v 7.999717 4.172954 0.262921
v 7.999873 4.172650 0.263457
v 7.998641 4.137478 0.282675
v 7.999183 4.137599 0.283243
v 7.999278 4.152704 0.273927
v 7.999807 4.173451 0.263463
v 7.999079 4.156343 0.271831
v 7.999530 4.165001 0.267133
v 7.999678 4.156353 0.272595
v 7.999845 4.173378 0.263593
v 7.999650 4.165000 0.267289
v 7.999929 4.165055 0.279506
v 7.999917 4.165125 0.277078
v 7.999863 4.165132 0.277068
v 7.999928 4.165065 0.279181
v 7.999913 4.165066 0.279169
v 7.999917 4.165382 0.278684
v 7.999898 4.165127 0.277074
v 7.999923 4.165090 0.278292
v 7.999913 4.165417 0.278010
v 7.999888 4.165094 0.278276
v 7.999881 4.165129 0.277071
v 7.999902 4.165418 0.278005
v 7.991169 4.218554 0.123744
v 7.988923 4.218417 0.125983
v 7.991915 4.220000 0.126915
v 7.990108 4.218510 0.124103
v 7.991602 4.219301 0.124568
v 7.990566 4.219227 0.124892
v 7.989656 4.219182 0.126508
v 7.989283 4.218460 0.124924
v 7.989986 4.219192 0.125470
v 7.991876 4.219832 0.125732
v 7.990754 4.219763 0.126850
v 7.990759 4.219601 0.125711
v 7.991915 4.220000 0.273085
v 7.988923 4.218417 0.273517
v 7.991040 4.218172 0.275571
v 7.990778 4.219833 0.273117
v 7.991835 4.219711 0.274143
v 7.990742 4.219551 0.274133
v 7.989242 4.218339 0.274517
v 7.989679 4.219252 0.273275
v 7.989969 4.219141 0.274244
v 7.991514 4.219040 0.275056
v 7.990019 4.218249 0.275271
v 7.990516 4.219079 0.274775
v 8.008789 4.140925 0.123516
v 8.010000 4.141915 0.126915
v 8.008806 4.138502 0.125947
v 8.009380 4.141239 0.124521
v 8.009047 4.140055 0.124186
v 8.009458 4.140417 0.124874
v 8.009825 4.140761 0.126608
v 8.009823 4.141601 0.125763
v 8.009708 4.140643 0.125649
v 8.009053 4.139171 0.125073
v 8.009389 4.139513 0.126254
v 8.009460 4.139866 0.125428
v 8.010000 4.141915 0.273085
v 8.008247 4.140717 0.275773
v 8.008806 4.138502 0.273540
v 8.009743 4.141534 0.274135
v 8.009825 4.140761 0.273229
v 8.009641 4.140600 0.274171
v 8.008705 4.139865 0.275279
v 8.009104 4.141098 0.275114
v 8.009280 4.140314 0.274820
v 8.009389 4.139514 0.273396
v 8.008908 4.139060 0.274467
v 8.009374 4.139810 0.274278
v 8.008084 4.218085 0.125000
v 8.008084 4.220000 0.126915
v 8.010000 4.218085 0.126915
v 8.008084 4.219025 0.125284
v 8.009025 4.218085 0.125284
v 8.008995 4.218995 0.125497
v 8.009025 4.219716 0.126915
v 8.008084 4.219716 0.125975
v 8.008995 4.219503 0.126005
v 8.009716 4.218085 0.125975
v 8.009716 4.219025 0.126915
v 8.009503 4.218995 0.126005
v 8.008084 4.218085 0.275000
v 8.010000 4.218085 0.273085
v 8.008084 4.220000 0.273085
v 8.009041 4.218085 0.274744
v 8.008084 4.219041 0.274744
v 8.009001 4.219001 0.274496
v 8.009744 4.219041 0.273085
v 8.009744 4.218085 0.274041
v 8.009496 4.219001 0.274001
v 8.008084 4.219744 0.274041
v 8.009041 4.219744 0.273085
v 8.009001 4.219496 0.274001
vn -0.3560 0.6849 -0.6357
vn 0.5261 0.3096 -0.7921
vn 0.8453 -0.4467 -0.2932
vn -0.3519 0.7321 -0.5833
vn -0.4975 0.2719 -0.8238
vn 0.5249 0.2307 -0.8193
vn 0.8064 -0.0828 -0.5855
vn 0.1856 0.5604 -0.8072
vn 0.5677 0.2453 -0.7859
vn 0.3681 -0.8061 -0.4633
vn 0.8663 -0.3640 -0.3421
vn 0.7511 -0.0592 -0.6575
vn 0.7830 -0.5682 0.2531
vn 0.2478 0.1155 0.9619
vn -0.7519 0.5761 0.3205
vn 0.7587 -0.4416 0.4789
vn 0.1866 -0.8351 0.5175
vn 0.5556 -0.2421 0.7954
vn -0.0996 0.3472 0.9325
vn 0.5498 -0.1618 0.8195
vn 0.2321 0.0970 0.9678
vn -0.7547 -0.0670 0.6526
vn -0.5652 0.5655 0.6006
vn -0.1752 0.3240 0.9297
vn -0.0000 0.1438 -0.9896
vn -0.0000 0.9914 -0.1308
vn -0.0000 0.5172 -0.8559
vn -0.0000 0.8702 -0.4926
vn -0.0000 0.1438 0.9896
vn -0.0000 0.9914 0.1308
vn -0.0000 0.5172 0.8559
vn -0.0000 0.8702 0.4926
vn 0.0550 0.1329 -0.9896
vn 0.3794 0.9159 -0.1308
vn 0.1979 0.4778 -0.8559
vn 0.3330 0.8040 -0.4926
vn 0.0550 0.1329 0.9896
vn 0.3794 0.9159 0.1308
vn 0.1979 0.4778 0.8559
vn 0.3330 0.8040 0.4926
vn 0.1017 0.1017 -0.9896
vn 0.7010 0.7010 -0.1308
vn 0.3657 0.3657 -0.8559
vn 0.6154 0.6154 -0.4926
vn 0.1017 0.1017 0.9896
vn 0.7010 0.7010 0.1308
vn 0.3657 0.3657 0.8559
vn 0.6154 0.6154 0.4926
vn 0.1329 0.0550 -0.9896
vn 0.9159 0.3794 -0.1308
vn 0.4778 0.1979 -0.8559
vn 0.8040 0.3330 -0.4926
vn 0.1329 0.0550 0.9896
vn 0.9159 0.3794 0.1308
vn 0.4778 0.1979 0.8559
vn 0.8040 0.3330 0.4926
vn 0.1438 -0.0000 -0.9896
vn 0.9914 -0.0000 -0.1308
vn 0.5172 -0.0000 -0.8559
vn 0.8702 -0.0000 -0.4926
vn 0.1438 -0.0000 0.9896
vn 0.9914 -0.0000 0.1308
vn 0.5172 -0.0000 0.8559
vn 0.8702 -0.0000 0.4926
vn 0.1329 -0.0550 -0.9896
vn 0.9159 -0.3794 -0.1308
vn 0.4778 -0.1979 -0.8559
vn 0.8040 -0.3330 -0.4926
vn 0.1329 -0.0550 0.9896
vn 0.9159 -0.3794 0.1308
vn 0.4778 -0.1979 0.8559
vn 0.8040 -0.3330 0.4926
vn 0.1017 -0.1017 -0.9896
vn 0.7010 -0.7010 -0.1308
vn 0.3657 -0.3657 -0.8559
vn 0.6154 -0.6154 -0.4926
vn 0.1017 -0.1017 0.9896
vn 0.7010 -0.7010 0.1308
vn 0.3657 -0.3657 0.8559
vn 0.6154 -0.6154 0.4926
vn 0.0550 -0.1329 -0.9896
vn 0.3794 -0.9159 -0.1308
vn 0.1979 -0.4778 -0.8559
vn 0.3330 -0.8040 -0.4926
vn 0.0550 -0.1329 0.9896
vn 0.3794 -0.9159 0.1308
vn 0.1979 -0.4778 0.8559
vn 0.3330 -0.8040 0.4926
vn -0.0000 -0.1438 -0.9896
vn -0.0000 -0.9914 -0.1308
vn -0.0000 -0.5172 -0.8559
vn -0.0000 -0.8702 -0.4926
vn -0.0000 -0.1438 0.9896
vn -0.0000 -0.9914 0.1308
vn -0.0000 -0.5172 0.8559
vn -0.0000 -0.8702 0.4926
vn -0.0550 -0.1329 -0.9896
vn -0.3794 -0.9159 -0.1308
vn -0.1979 -0.4778 -0.8559
vn -0.3330 -0.8040 -0.4926
vn -0.0550 -0.1329 0.9896
vn -0.3794 -0.9159 0.1308
vn -0.1979 -0.4778 0.8559
vn -0.3330 -0.8040 0.4926
vn -0.1017 -0.1017 -0.9896
vn -0.7010 -0.7010 -0.1308
vn -0.3657 -0.3657 -0.8559
vn -0.6154 -0.6154 -0.4926
vn -0.1017 -0.1017 0.9896
vn -0.7010 -0.7010 0.1308
vn -0.3657 -0.3657 0.8559
vn -0.6154 -0.6154 0.4926
vn -0.1329 -0.0550 -0.9896
vn -0.9159 -0.3794 -0.1308
vn -0.4778 -0.1979 -0.8559
vn -0.8040 -0.3330 -0.4926
vn -0.1329 -0.0550 0.9896
vn -0.9159 -0.3794 0.1308
vn -0.4778 -0.1979 0.8559
vn -0.8040 -0.3330 0.4926
vn -0.1438 -0.0000 -0.9896
vn -0.9914 -0.0000 -0.1308
vn -0.5172 -0.0000 -0.8559
vn -0.8702 -0.0000 -0.4926
vn -0.1438 -0.0000 0.9896
vn -0.9914 -0.0000 0.1308
vn -0.5172 -0.0000 0.8559
vn -0.8702 -0.0000 0.4926
vn -0.1329 0.0550 -0.9896
vn -0.9159 0.3794 -0.1308
vn -0.4778 0.1979 -0.8559
vn -0.8040 0.3330 -0.4926
vn -0.1329 0.0550 0.9896
vn -0.9159 0.3794 0.1308
vn -0.4778 0.1979 0.8559
vn -0.8040 0.3330 0.4926
vn -0.1017 0.1017 -0.9896
vn -0.7010 0.7010 -0.1308
vn -0.3657 0.3657 -0.8559
vn -0.6154 0.6154 -0.4926
vn -0.1017 0.1017 0.9896
vn -0.7010 0.7010 0.1308
vn -0.3657 0.3657 0.8559
vn -0.6154 0.6154 0.4926
vn -0.0550 0.1329 -0.9896
vn -0.3794 0.9159 -0.1308
vn -0.1979 0.4778 -0.8559
vn -0.3330 0.8040 -0.4926
vn -0.0550 0.1329 0.9896
vn -0.3794 0.9159 0.1308
vn -0.1979 0.4778 0.8559
vn -0.3330 0.8040 0.4926
vn -0.0000 0.1272 -0.9919
vn -0.0000 0.7897 0.6135
vn -0.0000 0.6726 -0.7400
vn -0.0000 0.9975 0.0703
vn -0.0000 0.0880 0.9961
vn -0.0000 0.6543 0.7562
vn -0.0000 0.2837 0.9589
vn -0.0000 0.4978 0.8673
vn 0.0487 0.1175 -0.9919
vn 0.3022 0.7296 0.6135
vn 0.2574 0.6214 -0.7400
vn 0.3817 0.9216 0.0703
vn 0.0337 0.0813 0.9961
vn 0.2504 0.6045 0.7562
vn 0.1086 0.2621 0.9589
vn 0.1905 0.4599 0.8673
vn 0.0899 0.0899 -0.9919
vn 0.5584 0.5584 0.6135
vn 0.4756 0.4756 -0.7400
vn 0.7054 0.7054 0.0703
vn 0.0622 0.0622 0.9961
vn 0.4627 0.4627 0.7562
vn 0.2006 0.2006 0.9589
vn 0.3520 0.3520 0.8673
vn 0.7296 0.3022 0.6135
vn 0.1175 0.0487 -0.9919
vn 0.9216 0.3817 0.0703
vn 0.6214 0.2574 -0.7400
vn 0.0813 0.0337 0.9961
vn 0.6045 0.2504 0.7562
vn 0.2621 0.1086 0.9589
vn 0.4599 0.1905 0.8673
vn 0.1272 -0.0000 -0.9919
vn 0.7897 -0.0000 0.6135
vn 0.6726 -0.0000 -0.7400
vn 0.9975 -0.0000 0.0703
vn 0.0880 -0.0000 0.9961
vn 0.6543 -0.0000 0.7562
vn 0.2837 -0.0000 0.9589
vn 0.4978 -0.0000 0.8673
vn 0.1175 -0.0487 -0.9919
vn 0.7296 -0.3022 0.6135
vn 0.6214 -0.2574 -0.7400
vn 0.9216 -0.3817 0.0703
vn 0.0813 -0.0337 0.9961
vn 0.6045 -0.2504 0.7562
vn 0.2621 -0.1086 0.9589
vn 0.4599 -0.1905 0.8673
vn 0.0899 -0.0899 -0.9919
vn 0.5584 -0.5584 0.6135
vn 0.4756 -0.4756 -0.7400
vn 0.7054 -0.7054 0.0703
vn 0.0622 -0.0622 0.9961
vn 0.4627 -0.4627 0.7562
vn 0.2006 -0.2006 0.9589
vn 0.3520 -0.3520 0.8673
vn 0.0487 -0.1175 -0.9919
vn 0.3022 -0.7296 0.6135
vn 0.2574 -0.6214 -0.7400
vn 0.3817 -0.9216 0.0703
vn 0.0337 -0.0813 0.9961
vn 0.2504 -0.6045 0.7562
vn 0.1086 -0.2621 0.9589
vn 0.1905 -0.4599 0.8673
vn -0.0000 -0.1272 -0.9919
vn -0.0000 -0.7897 0.6135
vn -0.0000 -0.6726 -0.7400
vn -0.0000 -0.9975 0.0703
vn -0.0000 -0.0880 0.9961
vn -0.0000 -0.6543 0.7562
vn -0.0000 -0.2837 0.9589
vn -0.0000 -0.4978 0.8673
vn -0.0487 -0.1175 -0.9919
vn -0.3022 -0.7296 0.6135
vn -0.2574 -0.6214 -0.7400
vn -0.3817 -0.9216 0.0703
vn -0.0337 -0.0813 0.9961
vn -0.2504 -0.6045 0.7562
vn -0.1086 -0.2621 0.9589
vn -0.1905 -0.4599 0.8673
vn -0.0899 -0.0899 -0.9919
vn -0.5584 -0.5584 0.6135
vn -0.4756 -0.4756 -0.7400
vn -0.7054 -0.7054 0.0703
vn -0.0622 -0.0622 0.9961
vn -0.4627 -0.4627 0.7562
vn -0.2006 -0.2006 0.9589
vn -0.3520 -0.3520 0.8673
vn -0.1175 -0.0487 -0.9919
vn -0.7296 -0.3022 0.6135
vn -0.6214 -0.2574 -0.7400
vn -0.9216 -0.3817 0.0703
vn -0.0813 -0.0337 0.9961
vn -0.6045 -0.2504 0.7562
vn -0.2621 -0.1086 0.9589
vn -0.4599 -0.1905 0.8673
vn -0.1272 -0.0000 -0.9919
vn -0.7897 -0.0000 0.6135
vn -0.6726 -0.0000 -0.7400
vn -0.9975 -0.0000 0.0703
vn -0.0880 -0.0000 0.9961
vn -0.6543 -0.0000 0.7562
vn -0.2837 -0.0000 0.9589
vn -0.4978 -0.0000 0.8673
vn -0.1175 0.0487 -0.9919
vn -0.7296 0.3022 0.6135
vn -0.6214 0.2574 -0.7400
vn -0.9216 0.3817 0.0703
vn -0.0813 0.0337 0.9961
vn -0.6045 0.2504 0.7562
vn -0.2621 0.1086 0.9589
vn -0.4599 0.1905 0.8673
vn -0.0899 0.0899 -0.9919
vn -0.5584 0.5584 0.6135
vn -0.4756 0.4756 -0.7400
vn -0.7054 0.7054 0.0703
vn -0.0622 0.0622 0.9961
vn -0.4627 0.4627 0.7562
vn -0.2006 0.2006 0.9589
vn -0.3520 0.3520 0.8673
vn -0.0487 0.1175 -0.9919
vn -0.3022 0.7296 0.6135
vn -0.2574 0.6214 -0.7400
vn -0.3817 0.9216 0.0703
vn -0.0337 0.0813 0.9961
vn -0.2504 0.6045 0.7562
vn -0.1086 0.2621 0.9589
vn -0.1905 0.4599 0.8673
vn 0.9944 0.0186 -0.1036
vn 0.4752 0.6903 0.5456
vn 0.4723 -0.1670 -0.8655
vn 0.7691 0.4766 -0.4259
vn 0.4901 0.1453 -0.8595
vn 0.0153 0.4519 -0.8919
vn 0.3794 0.8201 -0.4282
vn 0.7785 0.6078 -0.1569
vn 0.1652 0.2690 -0.9489
vn 0.0113 -0.0385 -0.9992
vn -0.3572 0.3985 -0.8448
vn -0.3264 0.2082 -0.9220
vn 0.9825 0.1223 0.1405
vn -0.0878 0.4311 0.8980
vn 0.4633 0.5418 0.7013
vn 0.8992 0.2715 0.3432
vn 0.8444 0.3569 0.3995
vn 0.6389 0.4932 0.5904
vn 0.5640 0.2311 0.7928
vn 0.6728 0.4518 0.5859
vn 0.4661 0.5558 0.6884
vn 0.6143 0.5306 0.5841
vn 0.5309 0.3937 0.7505
vn 0.5035 0.5642 0.6543
vn 0.4581 0.4444 -0.7698
vn 0.4484 0.6857 0.5733
vn 0.8873 0.3783 0.2638
vn 0.1364 0.9022 -0.4092
vn 0.5218 0.7717 -0.3636
vn 0.5231 0.8429 -0.1258
vn 0.6122 0.5975 0.5179
vn 0.3970 0.8886 0.2297
vn 0.5682 0.7735 0.2807
vn 0.8177 0.5755 0.0125
vn 0.7837 0.4732 0.4023
vn 0.7572 0.6284 0.1784
vn -0.0890 -0.1261 0.9880
vn 0.8801 0.2040 0.4287
vn 0.4938 0.5165 0.6996
vn 0.4565 -0.4252 0.7815
vn 0.4832 -0.1494 0.8627
vn 0.4749 -0.1841 0.8606
vn 0.7801 0.3521 0.5171
vn 0.7758 -0.0725 0.6268
vn 0.7269 0.1000 0.6794
vn 0.5231 0.2602 0.8116
vn 0.6090 0.4723 0.6372
vn 0.5460 0.2271 0.8064
vn 0.9437 0.2762 0.1819
vn 0.8513 -0.1380 -0.5062
vn 0.9355 0.3485 -0.0584
vn 0.8346 0.3971 -0.3818
vn 0.9405 -0.3137 -0.1309
vn 0.9402 0.1140 0.3210
vn -0.0951 -0.3813 0.9195
vn 0.9830 -0.1825 -0.0217
vn 0.8236 -0.5472 0.1494
vn 0.9029 -0.3881 0.1846
vn 0.8286 -0.1578 0.5371
vn 0.9883 -0.0073 0.1524
vn 0.9083 -0.2086 0.3625
vn 0.5018 -0.7097 0.4945
vn 0.5063 -0.5007 0.7021
vn 0.6774 -0.5288 0.5114
vn 0.7983 -0.2947 -0.5252
vn 0.5699 -0.4543 -0.6847
vn 0.7350 -0.3539 -0.5783
vn 0.6502 -0.4132 -0.6376
vn -0.1895 -0.5416 0.8190
vn 0.4487 -0.7194 -0.5302
vn 0.8804 -0.4163 -0.2271
vn 0.2487 -0.9275 0.2792
vn 0.4566 -0.7815 0.4252
vn 0.4749 -0.8606 0.1841
vn 0.6075 -0.6381 -0.4731
vn 0.3865 -0.9002 -0.2009
vn 0.5460 -0.8064 -0.2271
vn 0.7757 -0.6269 0.0725
vn 0.7814 -0.5160 -0.3510
vn 0.7269 -0.6794 -0.1000
vn 0.4476 -0.4227 -0.7880
vn -0.3181 -0.6221 -0.7154
vn -0.0112 -0.2019 -0.9793
vn -0.2017 -0.4603 -0.8646
vn -0.3764 -0.5758 0.7258
vn -0.3015 -0.7731 -0.5581
vn 0.3090 -0.7574 -0.5752
vn -0.1400 -0.9599 0.2430
vn 0.1500 -0.9573 0.2471
vn 0.0124 -0.9991 0.0410
vn -0.1002 -0.7789 -0.6191
vn -0.2635 -0.9344 -0.2396
vn -0.1068 -0.9281 -0.3568
vn 0.2767 -0.9318 -0.2350
vn 0.1424 -0.7757 -0.6149
vn 0.1422 -0.9251 -0.3521
vn 0.2415 0.2655 -0.9334
vn -0.4478 -0.5731 -0.6863
vn -0.8865 -0.2811 -0.3676
vn -0.2863 0.1935 -0.9384
vn -0.3391 0.5691 -0.7491
vn -0.5041 0.1093 -0.8567
vn -0.6135 -0.5224 -0.5922
vn -0.4104 -0.3017 -0.8605
vn -0.5654 -0.3156 -0.7620
vn -0.8032 -0.0084 -0.5956
vn -0.7843 -0.3975 -0.4763
vn -0.7415 -0.1604 -0.6515
vn -0.6144 -0.4799 0.6262
vn -0.8722 -0.4036 -0.2763
vn -0.4412 -0.7336 -0.5169
vn -0.4990 -0.8579 0.1224
vn -0.2487 -0.9275 0.2792
vn -0.4749 -0.8606 0.1841
vn -0.7802 -0.5171 -0.3521
vn -0.7442 -0.6556 -0.1277
vn -0.7269 -0.6794 -0.1000
vn -0.3864 -0.9002 -0.2009
vn -0.6090 -0.6372 -0.4723
vn -0.5460 -0.8064 -0.2271
vn 0.8507 -0.1311 -0.5091
vn -0.9393 -0.2285 -0.2560
vn -0.9800 0.0895 0.1778
vn 0.8629 0.4816 0.1531
vn 0.9176 -0.3397 0.2062
vn 0.7070 -0.2798 0.6495
vn -0.9051 -0.2736 0.3254
vn -0.9920 -0.1240 -0.0226
vn 0.0997 -0.2960 0.9500
vn -0.6434 -0.4560 0.6149
vn -0.7674 -0.2604 0.5859
vn 0.1374 -0.4761 0.8686
vn -0.9634 -0.0751 0.2572
vn -0.9967 0.0491 0.0651
vn -0.8992 -0.3568 -0.2533
vn -0.9755 -0.1290 -0.1783
vn -0.7638 -0.6161 -0.1925
vn -0.9441 -0.2080 -0.2558
vn -0.9975 -0.0582 -0.0402
vn -0.9987 -0.0293 -0.0426
vn -0.9749 -0.1481 -0.1660
vn -0.8385 -0.4951 -0.2275
vn -0.9712 -0.1760 -0.1605
vn -0.9512 -0.2115 -0.2248
vn 0.7806 -0.3531 -0.5158
vn -0.3136 -0.3228 -0.8930
vn 0.9502 -0.1356 -0.2805
vn -0.2322 -0.4736 -0.8496
vn 0.7735 -0.3396 -0.5351
vn 0.5713 -0.4146 -0.7084
vn -0.3070 -0.0440 -0.9507
vn -0.7237 -0.3103 -0.6164
vn 0.8360 -0.2634 -0.4813
vn 0.9385 -0.1836 -0.2924
vn 0.8923 0.4513 -0.0135
vn 0.7823 -0.2976 -0.5472
vn -0.4504 0.5612 0.6944
vn 0.9991 0.0400 0.0149
vn -0.9891 0.1141 0.0930
vn 0.5855 0.6802 0.4411
vn -0.8689 0.4718 0.1499
vn 0.0320 0.9665 0.2546
vn 0.7560 0.6528 0.0490
vn 0.9944 0.0763 0.0734
vn 0.6964 0.7150 -0.0626
vn -0.9984 0.0513 0.0219
vn -0.6682 0.7293 0.1474
vn -0.5790 0.8065 -0.1196
vn 0.2103 0.5541 -0.8054
vn -0.7410 0.6644 -0.0978
vn -0.0896 0.9923 -0.0857
vn -0.2368 0.7463 -0.6220
vn -0.0742 0.7745 -0.6282
vn -0.3139 0.8398 -0.4430
vn -0.5906 0.8035 -0.0747
vn -0.5670 0.7440 -0.3536
vn -0.4983 0.8255 -0.2652
vn -0.0811 0.9410 -0.3285
vn -0.3208 0.9451 -0.0624
vn -0.2922 0.9271 -0.2346
vn -0.0768 0.9887 0.1289
vn -0.7568 0.6387 0.1389
vn 0.0450 0.3420 0.9386
vn -0.3035 0.9454 0.1186
vn -0.0607 0.8944 0.4432
vn -0.2598 0.8872 0.3813
vn -0.6170 0.6313 0.4699
vn -0.5951 0.7943 0.1225
vn -0.5131 0.7629 0.3933
vn -0.0656 0.6360 0.7689
vn -0.3066 0.5315 0.7896
vn -0.2934 0.7169 0.6325
vn 0.7506 0.0169 -0.6606
vn 0.9946 -0.0623 -0.0826
vn 0.8382 -0.5416 -0.0647
vn 0.8401 -0.0395 -0.5410
vn 0.8663 -0.2041 -0.4559
vn 0.9169 -0.1881 -0.3520
vn 0.9742 -0.2204 -0.0479
vn 0.9557 -0.0452 -0.2909
vn 0.9674 -0.1771 -0.1810
vn 0.8757 -0.4142 -0.2481
vn 0.9100 -0.4121 -0.0459
vn 0.9183 -0.3465 -0.1916
vn 0.9922 -0.0606 0.1088
vn 0.4628 -0.0211 0.8862
vn 0.8282 -0.5501 0.1072
vn 0.9152 -0.0430 0.4007
vn 0.9719 -0.2206 0.0815
vn 0.9350 -0.1735 0.3094
vn 0.6707 -0.2370 0.7028
vn 0.6824 -0.0361 0.7301
vn 0.7973 -0.1939 0.5716
vn 0.9066 -0.4145 0.0793
vn 0.8034 -0.4498 0.3902
vn 0.8755 -0.3673 0.3141
vn 0.4360 0.2540 -0.8634
vn 0.1339 0.9842 -0.1158
vn 0.9841 0.1329 -0.1176
vn 0.1364 0.5998 -0.7884
vn 0.6380 0.1197 -0.7607
vn 0.4408 0.4408 -0.7820
vn 0.4957 0.8610 -0.1135
vn 0.1207 0.8928 -0.4341
vn 0.4408 0.7820 -0.4408
vn 0.8986 0.1143 -0.4237
vn 0.8610 0.4957 -0.1135
vn 0.7820 0.4408 -0.4408
vn 0.2680 0.1835 0.9458
vn 0.9829 0.1336 0.1269
vn 0.1336 0.9824 0.1303
vn 0.5608 0.1237 0.8186
vn 0.1297 0.5384 0.8326
vn 0.4473 0.4473 0.7744
vn 0.8603 0.4951 0.1214
vn 0.8776 0.1215 0.4637
vn 0.7744 0.4474 0.4474
vn 0.1228 0.8720 0.4738
vn 0.4951 0.8603 0.1214
vn 0.4473 0.7744 0.4474
vt 0.487619 0.543915
vt 0.495614 0.539407
vt 0.491515 0.542375
vt 0.486583 0.543884
vt 0.996468 0.509297
vt 0.995934 0.517711
vt 0.995957 0.510978
vt 0.996468 0.505177
vt 0.995544 0.525023
vt 0.995584 0.517611
vt 0.995797 0.509116
vt 0.996102 0.505074
vt 0.480164 0.543330
vt 0.480572 0.543368
vt 0.476368 0.541696
vt 0.472345 0.538578
vt 0.481197 0.543379
vt 0.476293 0.541855
vt 0.480164 0.004050
vt 0.471816 0.005226
vt 0.476300 0.004015
vt 0.480577 0.004043
vt 0.963746 0.011425
vt 0.963981 0.020081
vt 0.963529 0.013343
vt 0.963397 0.007251
vt 0.964087 0.027576
vt 0.963607 0.020049
vt 0.963037 0.011358
vt 0.963027 0.007215
vt 0.487619 0.004033
vt 0.486583 0.004046
vt 0.491504 0.003954
vt 0.496014 0.005110
vt 0.481197 0.004045
vt 0.476303 0.003936
vt 0.831810 0.651627
vt 0.832728 0.651378
vt 0.832729 0.651384
vt 0.832248 0.651412
vt 0.747866 0.827929
vt 0.748340 0.827583
vt 0.748007 0.827820
vt 0.747866 0.827936
vt 0.748907 0.827282
vt 0.748267 0.827645
vt 0.747866 0.828328
vt 0.834852 0.653061
vt 0.834009 0.652671
vt 0.832775 0.651752
vt 0.821245 0.566694
vt 0.820723 0.561502
vt 0.820700 0.557635
vt 0.821630 0.562152
vt 0.820284 0.555534
vt 0.820284 0.554037
vt 0.812438 0.553101
vt 0.814898 0.552323
vt 0.814898 0.555055
vt 0.814898 0.556567
vt 0.747866 0.721254
vt 0.748262 0.721629
vt 0.747995 0.724615
vt 0.747725 0.724151
vt 0.748907 0.722278
vt 0.748341 0.727158
vt 0.747866 0.732791
vt 0.747713 0.727989
vt 0.820619 0.554482
vt 0.833926 0.653150
vt 0.832748 0.652995
vt 0.832745 0.653113
vt 0.833261 0.653253
vt 0.751575 0.828289
vt 0.751247 0.827761
vt 0.751718 0.827738
vt 0.751943 0.828287
vt 0.750958 0.827260
vt 0.751574 0.827248
vt 0.752296 0.827202
vt 0.752235 0.827710
vt 0.752727 0.827149
vt 0.752634 0.827671
vt 0.752539 0.828213
vt 0.813348 0.553047
vt 0.814345 0.553043
vt 0.814668 0.552992
vt 0.814830 0.552777
vt 0.750378 0.721172
vt 0.750544 0.721675
vt 0.750191 0.721736
vt 0.750070 0.721219
vt 0.750691 0.722167
vt 0.750260 0.722220
vt 0.749538 0.722266
vt 0.749684 0.721773
vt 0.748922 0.722278
vt 0.749108 0.721765
vt 0.749320 0.721238
vt 0.823002 0.553156
vt 0.821835 0.553299
vt 0.821771 0.552834
vt 0.822700 0.552703
vt 0.751419 0.722055
vt 0.751130 0.722100
vt 0.751172 0.721600
vt 0.751402 0.721565
vt 0.750691 0.722167
vt 0.750810 0.721638
vt 0.750947 0.721093
vt 0.751268 0.721049
vt 0.812596 0.553083
vt 0.812630 0.553107
vt 0.813413 0.553189
vt 0.813749 0.553136
vt 0.822364 0.552241
vt 0.821585 0.552342
vt 0.811405 0.552910
vt 0.810841 0.552692
vt 0.811132 0.552836
vt 0.811868 0.552990
vt 0.824180 0.551854
vt 0.824414 0.552277
vt 0.824062 0.552455
vt 0.823871 0.552013
vt 0.824628 0.552695
vt 0.824195 0.552892
vt 0.823477 0.553087
vt 0.823557 0.552606
vt 0.822868 0.553173
vt 0.822986 0.552665
vt 0.823128 0.552141
vt 0.810615 0.552498
vt 0.810501 0.552170
vt 0.810612 0.552229
vt 0.810319 0.552434
vt 0.809919 0.551955
vt 0.809895 0.552116
vt 0.477018 0.551846
vt 0.476063 0.551535
vt 0.476376 0.550919
vt 0.476851 0.551070
vt 0.825366 0.552338
vt 0.825020 0.552504
vt 0.825016 0.552007
vt 0.825358 0.551296
vt 0.824540 0.552736
vt 0.824627 0.552177
vt 0.824734 0.551594
vt 0.825096 0.551686
vt 0.810951 0.552214
vt 0.841922 0.650931
vt 0.842427 0.650938
vt 0.842587 0.650820
vt 0.842206 0.650771
vt 0.842629 0.650751
vt 0.842632 0.650576
vt 0.477032 0.625178
vt 0.477988 0.625475
vt 0.477640 0.626095
vt 0.477161 0.625942
vt 0.792476 0.650862
vt 0.792786 0.650817
vt 0.792518 0.651807
vt 0.792108 0.651866
vt 0.793236 0.650752
vt 0.792862 0.651753
vt 0.842105 0.650338
vt 0.842431 0.650406
vt 0.810560 0.552210
vt 0.811160 0.551485
vt 0.811165 0.551282
vt 0.810751 0.551735
vt 0.810509 0.551963
vt 0.810459 0.551816
vt 0.810568 0.552419
vt 0.810118 0.552484
vt 0.809808 0.552529
vt 0.809909 0.551646
vt 0.477032 0.551851
vt 0.477217 0.551187
vt 0.477681 0.551334
vt 0.477988 0.552148
vt 0.809938 0.551830
vt 0.840873 0.650959
vt 0.840716 0.650656
vt 0.840449 0.650548
vt 0.840523 0.650738
vt 0.840079 0.649912
vt 0.839851 0.649864
vt 0.794717 0.650519
vt 0.795135 0.650711
vt 0.795235 0.651381
vt 0.794995 0.651418
vt 0.795786 0.651012
vt 0.795323 0.651367
vt 0.796365 0.651346
vt 0.839768 0.649846
vt 0.809716 0.552316
vt 0.811581 0.554476
vt 0.811477 0.553328
vt 0.810390 0.552029
vt 0.811206 0.559017
vt 0.811110 0.556116
vt 0.810641 0.562998
vt 0.810562 0.559574
vt 0.810489 0.555702
vt 0.811036 0.553761
vt 0.810568 0.552419
vt 0.811120 0.551735
vt 0.828295 0.736992
vt 0.827522 0.746355
vt 0.826435 0.755110
vt 0.827146 0.746301
vt 0.826801 0.757124
vt 0.826163 0.762069
vt 0.810412 0.769255
vt 0.811380 0.769461
vt 0.808872 0.764928
vt 0.808280 0.759965
vt 0.823731 0.766450
vt 0.824254 0.766211
vt 0.825313 0.761946
vt 0.824526 0.766000
vt 0.825680 0.756900
vt 0.814898 0.760531
vt 0.814898 0.760633
vt 0.814898 0.760911
vt 0.814802 0.760616
vt 0.820284 0.757603
vt 0.820766 0.757954
vt 0.820783 0.758172
vt 0.820284 0.757879
vt 0.821248 0.758405
vt 0.821248 0.758407
vt 0.820374 0.758671
vt 0.820284 0.758462
vt 0.813896 0.761393
vt 0.814391 0.760963
vt 0.814898 0.761500
vt 0.814806 0.761708
vt 0.995658 0.973121
vt 0.995964 0.972953
vt 0.995905 0.973497
vt 0.995585 0.973710
vt 0.996468 0.972970
vt 0.996468 0.973469
vt 0.956595 0.204392
vt 0.957631 0.204104
vt 0.957510 0.205010
vt 0.957013 0.205370
vt 0.963027 0.489716
vt 0.963370 0.489763
vt 0.963359 0.490440
vt 0.962959 0.490296
vt 0.963893 0.490005
vt 0.963863 0.490695
vt 0.995625 0.974164
vt 0.996127 0.973823
vt 0.964867 0.436636
vt 0.964355 0.436364
vt 0.964346 0.435985
vt 0.964838 0.436231
vt 0.964005 0.436129
vt 0.964044 0.435709
vt 0.956595 0.124244
vt 0.956782 0.123217
vt 0.957631 0.123845
vt 0.957631 0.124372
vt 0.964015 0.434719
vt 0.964572 0.434796
vt 0.964494 0.435395
vt 0.965013 0.434985
vt 0.965002 0.435484
vt 0.963901 0.943741
vt 0.963659 0.944144
vt 0.963318 0.943859
vt 0.963435 0.943523
vt 0.963507 0.944479
vt 0.963214 0.944048
vt 0.038883 0.202282
vt 0.039418 0.202431
vt 0.039473 0.203302
vt 0.039029 0.203317
vt 0.040181 0.202615
vt 0.039810 0.203323
vt 0.040804 0.202785
vt 0.040174 0.203605
vt 0.963048 0.943354
vt 0.963020 0.943720
vt 0.038883 0.122949
vt 0.039060 0.121904
vt 0.039493 0.121890
vt 0.039418 0.122853
vt 0.996842 0.414054
vt 0.996593 0.413619
vt 0.996936 0.413449
vt 0.997125 0.413745
vt 0.996287 0.413138
vt 0.996789 0.413056
vt 0.997258 0.412953
vt 0.997294 0.413387
vt 0.040804 0.122680
vt 0.040181 0.122754
vt 0.039941 0.121835
vt 0.040407 0.121709
vt 0.987662 0.978366
vt 0.987890 0.978855
vt 0.987427 0.979170
vt 0.987193 0.978706
vt 0.988342 0.979121
vt 0.987933 0.979399
vt 0.971184 0.493699
vt 0.971608 0.493914
vt 0.971582 0.494606
vt 0.971172 0.494398
vt 0.972048 0.494136
vt 0.972035 0.494836
vt 0.003581 0.203442
vt 0.003581 0.204481
vt 0.003159 0.204495
vt 0.002693 0.203471
vt 0.986896 0.978846
vt 0.987174 0.979255
vt 0.972768 0.438963
vt 0.973225 0.439221
vt 0.972956 0.439545
vt 0.972503 0.439319
vt 0.973616 0.439433
vt 0.973237 0.439848
vt 0.003581 0.124109
vt 0.002693 0.124138
vt 0.003156 0.123083
vt 0.003581 0.123069
vt 0.973022 0.440768
vt 0.972590 0.440549
vt 0.972649 0.440095
vt 0.972158 0.440330
vt 0.972165 0.439981
vt 0.622255 0.717346
vt 0.611370 0.717346
vt 0.611452 0.716928
vt 0.622137 0.716928
vt 0.611569 0.716643
vt 0.621996 0.716643
vt 0.244135 0.724112
vt 0.249643 0.718391
vt 0.250247 0.719233
vt 0.244730 0.724592
vt 0.754142 0.826954
vt 0.754601 0.827407
vt 0.754902 0.827814
vt 0.835602 0.653678
vt 0.836783 0.653592
vt 0.651894 0.830576
vt 0.681408 0.839369
vt 0.681409 0.839714
vt 0.651920 0.830934
vt 0.681411 0.840053
vt 0.651990 0.831304
vt 0.168024 0.646689
vt 0.168024 0.614886
vt 0.169045 0.615089
vt 0.169045 0.646486
vt 0.583586 0.795457
vt 0.595253 0.767378
vt 0.595657 0.767497
vt 0.583946 0.795681
vt 0.596233 0.767672
vt 0.584461 0.796002
vt 0.498777 0.586012
vt 0.521264 0.563525
vt 0.521840 0.564388
vt 0.499639 0.586589
vt 0.681408 0.731215
vt 0.651894 0.722423
vt 0.651920 0.722081
vt 0.681409 0.730861
vt 0.651990 0.721752
vt 0.681411 0.730501
vt 0.098557 0.550840
vt 0.127722 0.560226
vt 0.127361 0.560680
vt 0.098354 0.551611
vt 0.603213 0.767354
vt 0.634709 0.767354
vt 0.634766 0.767639
vt 0.603180 0.767640
vt 0.634762 0.768057
vt 0.603221 0.768057
vt 0.582447 0.551355
vt 0.611828 0.563525
vt 0.611251 0.564388
vt 0.582244 0.552373
vt 0.713217 0.839126
vt 0.713216 0.839472
vt 0.713213 0.839811
vt 0.180195 0.585504
vt 0.181060 0.586082
vt 0.713217 0.730972
vt 0.713216 0.730619
vt 0.713213 0.730258
vt 0.066754 0.550840
vt 0.066957 0.551611
vt 0.742480 0.829886
vt 0.742454 0.830244
vt 0.742385 0.830616
vt 0.202683 0.563015
vt 0.203261 0.563881
vt 0.742480 0.721732
vt 0.742454 0.721391
vt 0.742385 0.721063
vt 0.037372 0.560026
vt 0.037950 0.560680
vt 0.333315 0.714357
vt 0.356678 0.713200
vt 0.356681 0.713720
vt 0.333336 0.714876
vt 0.356688 0.714240
vt 0.333391 0.715393
vt 0.232065 0.550845
vt 0.232268 0.551866
vt 0.520107 0.756203
vt 0.513156 0.764590
vt 0.512735 0.764128
vt 0.519575 0.755875
vt 0.512441 0.763805
vt 0.519203 0.755646
vt 0.276065 0.722475
vt 0.283449 0.730076
vt 0.282752 0.730469
vt 0.275652 0.723160
vt 0.356678 0.552455
vt 0.333315 0.553612
vt 0.333336 0.553091
vt 0.356681 0.551935
vt 0.333391 0.552569
vt 0.356688 0.551416
vt 0.014883 0.577000
vt 0.015749 0.577437
vt 0.521530 0.729024
vt 0.524639 0.736955
vt 0.524035 0.736932
vt 0.520981 0.729136
vt 0.523612 0.736922
vt 0.520624 0.729257
vt 0.257769 0.716151
vt 0.258060 0.717080
vt 0.386524 0.712610
vt 0.386525 0.713130
vt 0.386527 0.713650
vt 0.263868 0.550845
vt 0.263665 0.551866
vt 0.386524 0.551865
vt 0.386525 0.551345
vt 0.386527 0.550826
vt 0.002713 0.599177
vt 0.003734 0.599330
vt 0.418311 0.712677
vt 0.418309 0.713197
vt 0.418306 0.713717
vt 0.293251 0.563015
vt 0.292672 0.563881
vt 0.563472 0.819726
vt 0.563758 0.820039
vt 0.564169 0.820486
vt 0.486607 0.615393
vt 0.487624 0.615596
vt 0.418311 0.551932
vt 0.418309 0.551412
vt 0.418306 0.550893
vt 0.002713 0.623182
vt 0.003734 0.623028
vt 0.596699 0.739762
vt 0.587702 0.716814
vt 0.588084 0.716755
vt 0.597108 0.739779
vt 0.588667 0.716732
vt 0.597692 0.739810
vt 0.550645 0.551355
vt 0.550847 0.552373
vt 0.447198 0.713391
vt 0.447195 0.713911
vt 0.447186 0.714431
vt 0.315739 0.585504
vt 0.314873 0.586082
vt 0.447198 0.552646
vt 0.447195 0.552127
vt 0.447186 0.551607
vt 0.014883 0.645359
vt 0.015749 0.644922
vt 0.468788 0.714643
vt 0.468769 0.715162
vt 0.468718 0.715679
vt 0.327910 0.614886
vt 0.326888 0.615089
vt 0.468788 0.553899
vt 0.468769 0.553378
vt 0.468718 0.552855
vt 0.037533 0.662105
vt 0.037950 0.661679
vt 0.037360 0.768625
vt 0.066750 0.777813
vt 0.066751 0.778151
vt 0.037386 0.768974
vt 0.066754 0.778481
vt 0.037456 0.769338
vt 0.327910 0.646689
vt 0.326888 0.646486
vt 0.066750 0.672217
vt 0.037360 0.663028
vt 0.037386 0.662695
vt 0.066751 0.671871
vt 0.066854 0.671141
vt 0.066957 0.670748
vt 0.524140 0.746499
vt 0.523544 0.746324
vt 0.523126 0.746206
vt 0.267047 0.717585
vt 0.266982 0.718459
vt 0.098561 0.777813
vt 0.098560 0.778151
vt 0.098557 0.778481
vt 0.315739 0.676072
vt 0.314873 0.675493
vt 0.504344 0.770384
vt 0.504063 0.769829
vt 0.503869 0.769441
vt 0.288075 0.739232
vt 0.287200 0.739272
vt 0.098561 0.672217
vt 0.098560 0.671871
vt 0.098458 0.671141
vt 0.098354 0.670748
vt 0.127951 0.768625
vt 0.127925 0.768974
vt 0.127855 0.769338
vt 0.293251 0.698560
vt 0.292672 0.697694
vt 0.127951 0.663028
vt 0.127940 0.662573
vt 0.127656 0.662012
vt 0.127361 0.661679
vt 0.651894 0.713657
vt 0.676330 0.714305
vt 0.676333 0.714825
vt 0.651916 0.714178
vt 0.676340 0.715345
vt 0.651974 0.714700
vt 0.263868 0.710731
vt 0.263665 0.709709
vt 0.676330 0.553410
vt 0.651894 0.552762
vt 0.651916 0.551722
vt 0.676333 0.552370
vt 0.150440 0.645365
vt 0.150003 0.645145
vt 0.149562 0.644922
vt 0.706700 0.714606
vt 0.706701 0.715127
vt 0.706702 0.715646
vt 0.232065 0.710731
vt 0.232268 0.709709
vt 0.537974 0.836489
vt 0.538166 0.836864
vt 0.538444 0.837399
vt 0.486607 0.647195
vt 0.487624 0.646993
vt 0.706700 0.553712
vt 0.706701 0.552671
vt 0.162613 0.623184
vt 0.162098 0.623106
vt 0.161577 0.623028
vt 0.738381 0.714515
vt 0.738380 0.715035
vt 0.738375 0.715555
vt 0.202683 0.698560
vt 0.203261 0.697694
vt 0.738381 0.553620
vt 0.738380 0.552579
vt 0.162613 0.599175
vt 0.162098 0.599252
vt 0.161577 0.599331
vt 0.766549 0.714045
vt 0.766546 0.714565
vt 0.766537 0.715084
vt 0.180195 0.676072
vt 0.181060 0.675493
vt 0.766549 0.553150
vt 0.766546 0.552109
vt 0.150440 0.576994
vt 0.150003 0.577214
vt 0.149562 0.577437
vt 0.786917 0.713267
vt 0.786899 0.713788
vt 0.786851 0.714310
vt 0.786917 0.552372
vt 0.786899 0.551332
vt 0.127970 0.560028
vt 0.475148 0.624579
vt 0.474368 0.624871
vt 0.842564 0.651526
vt 0.842269 0.651953
vt 0.841774 0.652231
vt 0.176370 0.716243
vt 0.169008 0.740211
vt 0.168603 0.740258
vt 0.175986 0.716211
vt 0.168025 0.740332
vt 0.175405 0.716230
vt 0.634315 0.586012
vt 0.633452 0.586589
vt 0.240412 0.732131
vt 0.242957 0.723848
vt 0.243509 0.723922
vt 0.241011 0.732064
vt 0.241796 0.732148
vt 0.242350 0.732340
vt 0.172471 0.767921
vt 0.172079 0.768070
vt 0.171519 0.768288
vt 0.646485 0.615393
vt 0.645467 0.615596
vt 0.241609 0.741707
vt 0.242189 0.741488
vt 0.242942 0.741322
vt 0.243470 0.741298
vt 0.186232 0.795153
vt 0.185890 0.795404
vt 0.185402 0.795763
vt 0.646485 0.647195
vt 0.645467 0.646993
vt 0.246365 0.751119
vt 0.246869 0.750750
vt 0.247498 0.750338
vt 0.247918 0.750101
vt 0.208195 0.817763
vt 0.207935 0.818097
vt 0.207561 0.818574
vt 0.634315 0.676576
vt 0.633452 0.676000
vt 0.253955 0.758933
vt 0.254338 0.758440
vt 0.254769 0.757823
vt 0.255018 0.757410
vt 0.235017 0.832308
vt 0.234856 0.832696
vt 0.234622 0.833249
vt 0.611828 0.699063
vt 0.611251 0.698201
vt 0.263225 0.763959
vt 0.263461 0.763386
vt 0.263649 0.762638
vt 0.263689 0.762112
vt 0.262614 0.836573
vt 0.262555 0.836977
vt 0.262465 0.837552
vt 0.582447 0.711233
vt 0.582244 0.710216
vt 0.272763 0.765434
vt 0.272847 0.764837
vt 0.272785 0.764050
vt 0.272610 0.763491
vt 0.286786 0.829910
vt 0.286807 0.830295
vt 0.286771 0.830875
vt 0.550645 0.711233
vt 0.550847 0.710216
vt 0.281116 0.763131
vt 0.281051 0.762448
vt 0.280787 0.761844
vt 0.280423 0.761336
vt 0.840425 0.652865
vt 0.839975 0.653072
vt 0.839285 0.653259
vt 0.838665 0.653343
vt 0.294720 0.771399
vt 0.326112 0.771399
vt 0.326183 0.771710
vt 0.294702 0.771710
vt 0.326198 0.772165
vt 0.294762 0.772165
vt 0.521264 0.699063
vt 0.521840 0.698201
vt 0.311309 0.716902
vt 0.300460 0.716902
vt 0.300541 0.716136
vt 0.311101 0.716136
vt 0.286777 0.756615
vt 0.286557 0.756421
vt 0.285940 0.755978
vt 0.486583 0.838821
vt 0.510974 0.843194
vt 0.511066 0.843594
vt 0.486594 0.839209
vt 0.511204 0.844164
vt 0.486678 0.839789
vt 0.498777 0.676576
vt 0.499639 0.676000
vt 0.495013 0.772701
vt 0.486583 0.771190
vt 0.486594 0.770627
vt 0.494880 0.772110
vt 0.486648 0.770250
vt 0.494792 0.771695
vt 0.289239 0.748548
vt 0.288320 0.748230
s 1
usemtl BB_OilyMetal
f 1/1/1 4/2/4 6/3/6 5/4/5
f 4/5/4 8/6/8 9/7/9 6/8/6
f 2/9/2 7/10/7 9/7/9 8/6/8
f 7/10/7 11/11/11 12/12/12 9/7/9
f 3/13/3 10/14/10 12/15/12 11/16/11
f 10/14/10 5/17/5 6/18/6 12/15/12
f 6/8/6 9/7/9 12/12/12
f 13/19/13 16/20/16 18/21/18 17/22/17
f 16/23/16 20/24/20 21/25/21 18/26/18
f 14/27/14 19/28/19 21/25/21 20/24/20
f 19/28/19 23/29/23 24/30/24 21/25/21
f 15/31/15 22/32/22 24/33/24 23/34/23
f 22/35/22 17/22/17 18/21/18 24/36/24
f 18/26/18 21/25/21 24/30/24
f 281/37/281 284/38/284 286/39/286 285/40/285
f 284/41/284 288/42/288 289/43/289 286/44/286
f 282/45/282 287/46/287 289/43/289 288/42/288
f 287/46/287 291/47/291 292/47/292 289/43/289
f 283/48/283 290/49/290 292/50/292 291/50/291
f 290/49/290 285/40/285 286/39/286 292/50/292
f 286/44/286 289/43/289 292/47/292
f 293/51/293 296/52/296 298/53/298 297/54/297
f 296/52/296 300/55/300 301/56/301 298/53/298
f 294/57/294 299/58/299 301/59/301 300/60/300
f 299/61/299 303/62/303 304/63/304 301/64/301
f 295/65/295 302/66/302 304/63/304 303/62/303
f 302/66/302 297/67/297 298/68/298 304/63/304
f 298/53/298 301/56/301 304/69/304
f 305/70/305 308/71/308 310/72/310 309/73/309
f 308/74/308 312/75/312 313/76/313 310/77/310
f 306/78/306 311/79/311 313/76/313 312/75/312
f 311/79/311 315/80/315 316/81/316 313/76/313
f 307/82/307 314/83/314 316/81/316 315/80/315
f 314/83/314 309/84/309 310/77/310 316/81/316
f 310/77/310 313/76/313 316/81/316
f 317/85/317 320/86/320 322/87/322 321/88/321
f 320/89/320 324/90/324 325/91/325 322/92/322
f 318/93/318 323/94/323 325/91/325 324/90/324
f 323/94/323 327/95/327 328/96/328 325/91/325
f 319/97/319 326/98/326 328/96/328 327/95/327
f 326/98/326 321/99/321 322/92/322 328/96/328
f 322/92/322 325/91/325 328/96/328
f 333/100/333 336/101/336 338/102/338 337/103/337
f 336/104/336 340/105/340 341/106/341 338/107/338
f 334/108/334 339/109/339 341/106/341 340/105/340
f 339/109/339 343/110/343 344/111/344 341/106/341
f 335/112/335 342/113/342 344/114/344 343/115/343
f 342/116/342 337/103/337 338/102/338 344/117/344
f 338/107/338 341/106/341 344/111/344
f 349/118/349 352/119/352 354/120/354 353/121/353
f 352/122/352 356/123/356 357/124/357 354/125/354
f 350/126/350 355/127/355 357/124/357 356/123/356
f 355/127/355 359/128/359 360/129/360 357/124/357
f 351/130/351 358/131/358 360/129/360 359/128/359
f 358/131/358 353/132/353 354/125/354 360/129/360
f 354/125/354 357/124/357 360/129/360
f 365/133/365 368/134/368 370/135/370 369/136/369
f 368/134/368 372/137/372 373/138/373 370/135/370
f 366/139/366 371/140/371 373/141/373 372/142/372
f 371/143/371 375/144/375 376/145/376 373/146/373
f 367/147/367 374/148/374 376/145/376 375/144/375
f 374/148/374 369/149/369 370/150/370 376/145/376
f 370/135/370 373/138/373 376/151/376
f 377/152/377 380/153/380 382/154/382 381/155/381
f 380/153/380 384/156/384 385/157/385 382/154/382
f 378/158/378 383/159/383 385/160/385 384/161/384
f 383/162/383 387/163/387 388/164/388 385/165/385
f 379/166/379 386/167/386 388/164/388 387/163/387
f 386/168/386 381/155/381 382/154/382 388/169/388
f 382/154/382 385/157/385 388/169/388
f 389/170/389 392/171/392 394/172/394 393/173/393
f 392/171/392 396/174/396 397/175/397 394/172/394
f 390/176/390 395/177/395 397/175/397 396/174/396
f 395/177/395 399/178/399 400/179/400 397/175/397
f 391/180/391 398/181/398 400/182/400 399/183/399
f 398/184/398 393/173/393 394/172/394 400/179/400
f 394/172/394 397/175/397 400/179/400
f 401/185/401 404/186/404 406/187/406 405/188/405
f 404/186/404 408/189/408 409/190/409 406/187/406
f 402/191/402 407/192/407 409/193/409 408/194/408
f 407/192/407 411/195/411 412/196/412 409/193/409
f 403/197/403 410/196/410 412/196/412 411/195/411
f 410/198/410 405/188/405 406/187/406 412/198/412
f 406/187/406 409/190/409 412/198/412
f 413/199/413 416/200/416 418/201/418 417/202/417
f 416/200/416 420/203/420 421/204/421 418/201/418
f 414/205/414 419/206/419 421/204/421 420/203/420
f 419/206/419 423/207/423 424/208/424 421/204/421
f 415/209/415 422/210/422 424/208/424 423/207/423
f 422/210/422 417/202/417 418/201/418 424/208/424
f 418/201/418 421/204/421 424/208/424
f 425/211/425 428/212/428 430/213/430 429/214/429
f 428/212/428 432/215/432 433/216/433 430/213/430
f 426/217/426 431/218/431 433/219/433 432/220/432
f 431/221/431 435/222/435 436/223/436 433/216/433
f 427/224/427 434/225/434 436/223/436 435/222/435
f 434/225/434 429/214/429 430/213/430 436/223/436
f 430/213/430 433/216/433 436/223/436
f 437/226/437 440/227/440 442/228/442 441/229/441
f 440/230/440 444/231/444 445/232/445 442/233/442
f 438/234/438 443/235/443 445/232/445 444/231/444
f 443/235/443 447/236/447 448/237/448 445/232/445
f 439/238/439 446/239/446 448/240/448 447/241/447
f 446/239/446 441/229/441 442/228/442 448/240/448
f 442/233/442 445/232/445 448/237/448
f 449/242/449 452/243/452 454/244/454 453/245/453
f 452/243/452 456/246/456 457/247/457 454/244/454
f 450/248/450 455/249/455 457/250/457 456/251/456
f 455/252/455 459/253/459 460/254/460 457/255/457
f 451/256/451 458/257/458 460/254/460 459/253/459
f 458/258/458 453/245/453 454/244/454 460/259/460
f 454/244/454 457/247/457 460/259/460
f 461/260/461 464/261/464 466/262/466 465/263/465
f 464/261/464 468/264/468 469/265/469 466/262/466
f 462/266/462 467/267/467 469/268/469 468/269/468
f 467/270/467 471/271/471 472/272/472 469/265/469
f 463/273/463 470/274/470 472/272/472 471/271/471
f 470/274/470 465/263/465 466/262/466 472/272/472
f 466/262/466 469/265/469 472/272/472
f 473/275/473 476/276/476 478/277/478 477/278/477
f 476/276/476 480/279/480 481/280/481 478/277/478
f 474/281/474 479/282/479 481/283/481 480/284/480
f 479/282/479 483/285/483 484/286/484 481/283/481
f 475/287/475 482/288/482 484/286/484 483/285/483
f 482/289/482 477/278/477 478/277/478 484/290/484
f 478/277/478 481/280/481 484/290/484
f 485/291/485 488/292/488 490/293/490 489/294/489
f 488/295/488 492/296/492 493/297/493 490/298/490
f 486/299/486 491/300/491 493/297/493 492/296/492
f 491/300/491 495/301/495 496/302/496 493/297/493
f 487/303/487 494/304/494 496/305/496 495/306/495
f 494/304/494 489/294/489 490/293/490 496/305/496
f 490/298/490 493/297/493 496/302/496
f 497/307/497 500/308/500 502/309/502 501/310/501
f 500/308/500 504/311/504 505/312/505 502/309/502
f 498/313/498 503/314/503 505/315/505 504/316/504
f 503/314/503 507/317/507 508/318/508 505/315/505
f 499/319/499 506/320/506 508/321/508 507/322/507
f 506/323/506 501/310/501 502/309/502 508/324/508
f 502/309/502 505/312/505 508/324/508
f 509/325/509 512/326/512 514/327/514 513/328/513
f 512/326/512 516/329/516 517/330/517 514/327/514
f 510/331/510 515/332/515 517/333/517 516/334/516
f 515/335/515 519/336/519 520/337/520 517/330/517
f 511/338/511 518/339/518 520/337/520 519/336/519
f 518/339/518 513/328/513 514/327/514 520/337/520
f 514/327/514 517/330/517 520/337/520
f 206/340/206 198/341/198 200/342/200 208/343/208
f 208/343/208 200/342/200 199/344/199 207/345/207
f 207/346/207 199/347/199 197/348/197 205/349/205
f 307/82/307 329/350/329 331/351/331 314/83/314
f 314/83/314 331/351/331 332/352/332 309/84/309
f 309/73/309 332/353/332 330/354/330 305/70/305
f 26/355/26 34/356/34 36/357/36 28/358/28
f 28/358/28 36/357/36 35/359/35 27/360/27
f 27/361/27 35/362/35 33/363/33 25/364/25
f 333/100/333 330/354/330 332/353/332 336/101/336
f 336/104/336 332/352/332 331/351/331 340/105/340
f 340/105/340 331/351/331 329/350/329 334/108/334
f 170/365/170 177/366/177 179/367/179 172/368/172
f 172/368/172 179/367/179 180/369/180 171/370/171
f 171/371/171 180/372/180 178/373/178 169/374/169
f 38/375/38 30/376/30 32/377/32 40/378/40
f 40/378/40 32/377/32 31/379/31 39/380/39
f 39/381/39 31/382/31 29/383/29 37/384/37
f 194/385/194 202/386/202 204/387/204 196/388/196
f 196/388/196 204/387/204 203/389/203 195/390/195
f 195/391/195 203/392/203 201/393/201 193/394/193
f 34/356/34 42/395/42 44/396/44 36/357/36
f 36/357/36 44/396/44 43/397/43 35/359/35
f 35/362/35 43/398/43 41/399/41 33/363/33
f 3/13/3 13/19/13 17/22/17 10/14/10
f 10/14/10 17/22/17 22/35/22 5/17/5
f 5/4/5 22/32/22 15/31/15 1/1/1
f 46/400/46 38/375/38 40/378/40 48/401/48
f 48/401/48 40/378/40 39/380/39 47/402/47
f 47/403/47 39/381/39 37/384/37 45/404/45
f 2/9/2 473/275/473 477/278/477 7/10/7
f 7/10/7 477/278/477 482/289/482 11/11/11
f 11/16/11 482/288/482 475/287/475 3/13/3
f 42/395/42 50/405/50 52/406/52 44/396/44
f 44/396/44 52/406/52 51/407/51 43/397/43
f 43/398/43 51/408/51 49/409/49 41/399/41
f 54/410/54 46/400/46 48/401/48 56/411/56
f 56/411/56 48/401/48 47/402/47 55/412/55
f 55/413/55 47/403/47 45/404/45 53/414/53
f 50/415/50 58/416/58 60/417/60 52/418/52
f 52/418/52 60/417/60 59/419/59 51/420/51
f 51/408/51 59/421/59 57/422/57 49/409/49
f 174/423/174 166/424/166 168/425/168 176/426/176
f 176/426/176 168/425/168 167/427/167 175/428/175
f 175/429/175 167/430/167 165/431/165 173/432/173
f 62/433/62 54/434/54 56/435/56 64/436/64
f 64/436/64 56/435/56 55/437/55 63/438/63
f 63/439/63 55/413/55 53/414/53 61/440/61
f 198/441/198 190/442/190 192/443/192 200/444/200
f 200/444/200 192/443/192 191/445/191 199/446/199
f 199/347/199 191/447/191 189/448/189 197/348/197
f 58/416/58 66/449/66 68/450/68 60/417/60
f 60/417/60 68/450/68 67/451/67 59/419/59
f 59/421/59 67/452/67 65/453/65 57/422/57
f 497/307/497 449/242/449 453/245/453 500/308/500
f 500/308/500 453/245/453 458/258/458 504/311/504
f 504/316/504 458/257/458 451/256/451 498/313/498
f 70/454/70 62/433/62 64/436/64 72/455/72
f 72/455/72 64/436/64 63/438/63 71/456/71
f 71/457/71 63/439/63 61/440/61 69/458/69
f 66/449/66 74/459/74 76/460/76 68/450/68
f 68/450/68 76/460/76 75/461/75 67/451/67
f 67/452/67 75/462/75 73/463/73 65/453/65
f 162/464/162 170/365/170 172/368/172 164/465/164
f 164/465/164 172/368/172 171/370/171 163/466/163
f 163/467/163 171/371/171 169/374/169 161/468/161
f 78/469/78 70/454/70 72/455/72 80/470/80
f 80/470/80 72/455/72 71/456/71 79/471/79
f 79/472/79 71/457/71 69/458/69 77/473/77
f 186/474/186 194/475/194 196/476/196 188/477/188
f 188/477/188 196/476/196 195/478/195 187/479/187
f 187/480/187 195/391/195 193/394/193 185/481/185
f 74/459/74 82/482/82 84/483/84 76/460/76
f 76/460/76 84/483/84 83/484/83 75/461/75
f 75/462/75 83/485/83 81/486/81 73/463/73
f 379/166/379 402/191/402 408/194/408 386/167/386
f 386/168/386 408/189/408 404/186/404 381/155/381
f 381/155/381 404/186/404 401/185/401 377/152/377
f 86/487/86 78/469/78 80/470/80 88/488/88
f 88/488/88 80/470/80 79/471/79 87/489/87
f 87/490/87 79/472/79 77/473/77 85/491/85
f 391/180/391 366/139/366 372/142/372 398/181/398
f 398/184/398 372/137/372 368/134/368 393/173/393
f 393/173/393 368/134/368 365/133/365 389/170/389
f 82/482/82 90/492/90 92/493/92 84/483/84
f 84/483/84 92/493/92 91/494/91 83/484/83
f 83/485/83 91/495/91 89/496/89 81/486/81
f 94/497/94 86/487/86 88/488/88 96/498/96
f 96/498/96 88/488/88 87/489/87 95/499/95
f 95/500/95 87/490/87 85/491/85 93/501/93
f 90/502/90 98/503/98 100/504/100 92/505/92
f 92/505/92 100/504/100 99/506/99 91/507/91
f 91/495/91 99/508/99 97/509/97 89/496/89
f 102/510/102 94/511/94 96/512/96 104/513/104
f 104/513/104 96/512/96 95/500/95 103/514/103
f 103/514/103 95/500/95 93/501/93 101/515/101
f 190/442/190 182/516/182 184/517/184 192/443/192
f 192/443/192 184/517/184 183/518/183 191/445/191
f 191/447/191 183/519/183 181/520/181 189/448/189
f 98/503/98 106/521/106 108/522/108 100/504/100
f 100/504/100 108/522/108 107/523/107 99/506/99
f 99/508/99 107/524/107 105/525/105 97/509/97
f 166/424/166 158/526/158 160/527/160 168/425/168
f 168/425/168 160/527/160 159/528/159 167/427/167
f 167/430/167 159/529/159 157/530/157 165/431/165
f 110/531/110 102/510/102 104/513/104 112/532/112
f 112/532/112 104/513/104 103/514/103 111/533/111
f 111/533/111 103/514/103 101/515/101 109/534/109
f 334/108/334 318/93/318 324/90/324 339/109/339
f 339/109/339 324/90/324 320/89/320 343/110/343
f 343/115/343 320/86/320 317/85/317 335/112/335
f 106/521/106 114/535/114 116/536/116 108/522/108
f 108/522/108 116/536/116 115/537/115 107/523/107
f 107/524/107 115/538/115 113/539/113 105/525/105
f 118/540/118 110/531/110 112/532/112 120/541/120
f 120/541/120 112/532/112 111/533/111 119/542/119
f 119/542/119 111/533/111 109/534/109 117/543/117
f 177/366/177 186/474/186 188/477/188 179/367/179
f 179/367/179 188/477/188 187/479/187 180/369/180
f 180/372/180 187/480/187 185/481/185 178/373/178
f 114/544/114 122/545/122 124/546/124 116/547/116
f 116/547/116 124/546/124 123/548/123 115/549/115
f 115/538/115 123/550/123 121/551/121 113/539/113
f 126/552/126 118/553/118 120/554/120 128/555/128
f 128/556/128 120/541/120 119/542/119 127/557/127
f 127/557/127 119/542/119 117/543/117 125/558/125
f 390/176/390 379/166/379 387/163/387 395/177/395
f 395/177/395 387/163/387 383/162/383 399/178/399
f 399/183/399 383/159/383 378/158/378 391/180/391
f 122/545/122 130/559/130 132/560/132 124/546/124
f 124/546/124 132/560/132 131/561/131 123/548/123
f 123/550/123 131/562/131 129/563/129 121/551/121
f 154/564/154 162/464/162 164/465/164 156/565/156
f 156/565/156 164/465/164 163/466/163 155/566/155
f 155/567/155 163/467/163 161/468/161 153/568/153
f 134/569/134 126/552/126 128/555/128 136/570/136
f 136/571/136 128/556/128 127/557/127 135/572/135
f 135/572/135 127/557/127 125/558/125 133/573/133
f 130/559/130 138/574/138 140/575/140 132/560/132
f 132/560/132 140/575/140 139/576/139 131/561/131
f 131/562/131 139/577/139 137/578/137 129/563/129
f 487/303/487 475/287/475 483/285/483 494/304/494
f 494/304/494 483/285/483 479/282/479 489/294/489
f 489/294/489 479/282/479 474/281/474 485/291/485
f 142/579/142 134/569/134 136/570/136 144/580/144
f 144/581/144 136/571/136 135/572/135 143/582/143
f 143/582/143 135/572/135 133/573/133 141/583/141
f 182/516/182 174/423/174 176/426/176 184/517/184
f 184/517/184 176/426/176 175/428/175 183/518/183
f 183/519/183 175/429/175 173/432/173 181/520/181
f 138/574/138 146/584/146 148/585/148 140/575/140
f 140/575/140 148/585/148 147/586/147 139/576/139
f 139/577/139 147/587/147 145/588/145 137/578/137
f 415/209/415 390/176/390 396/174/396 422/210/422
f 422/210/422 396/174/396 392/171/392 417/202/417
f 417/202/417 392/171/392 389/170/389 413/199/413
f 150/589/150 142/579/142 144/580/144 152/590/152
f 152/591/152 144/581/144 143/582/143 151/592/151
f 151/592/151 143/582/143 141/583/141 149/593/149
f 146/584/146 26/594/26 28/595/28 148/585/148
f 148/585/148 28/595/28 27/596/27 147/586/147
f 147/587/147 27/361/27 25/364/25 145/588/145
f 30/597/30 150/589/150 152/590/152 32/598/32
f 32/599/32 152/591/152 151/592/151 31/382/31
f 31/382/31 151/592/151 149/593/149 29/383/29
f 362/600/362 378/158/378 384/161/384 364/601/364
f 364/602/364 384/156/384 380/153/380 363/603/363
f 363/603/363 380/153/380 377/152/377 361/604/361
f 202/605/202 210/606/210 212/607/212 204/608/204
f 204/608/204 212/607/212 211/609/211 203/610/203
f 203/392/203 211/611/211 209/612/209 201/393/201
f 463/273/463 509/325/509 513/328/513 470/274/470
f 470/274/470 513/328/513 518/339/518 465/263/465
f 465/263/465 518/339/518 511/338/511 461/260/461
f 214/613/214 206/614/206 208/615/208 216/616/216
f 216/616/216 208/615/208 207/346/207 215/617/215
f 215/617/215 207/346/207 205/349/205 213/618/213
f 14/27/14 463/273/463 471/271/471 19/28/19
f 19/28/19 471/271/471 467/270/467 23/29/23
f 23/34/23 467/267/467 462/266/462 15/31/15
f 210/606/210 218/619/218 220/620/220 212/607/212
f 212/607/212 220/620/220 219/621/219 211/609/211
f 211/611/211 219/622/219 217/623/217 209/612/209
f 318/93/318 307/82/307 315/80/315 323/94/323
f 323/94/323 315/80/315 311/79/311 327/95/327
f 327/95/327 311/79/311 306/78/306 319/97/319
f 222/624/222 214/613/214 216/616/216 224/625/224
f 224/625/224 216/616/216 215/617/215 223/626/223
f 223/626/223 215/617/215 213/618/213 221/627/221
f 366/139/366 362/600/362 364/601/364 371/140/371
f 371/143/371 364/602/364 363/603/363 375/144/375
f 375/144/375 363/603/363 361/604/361 367/147/367
f 218/619/218 226/628/226 228/629/228 220/620/220
f 220/620/220 228/629/228 227/630/227 219/621/219
f 219/622/219 227/631/227 225/632/225 217/623/217
f 281/37/281 293/51/293 297/54/297 284/38/284
f 284/41/284 297/67/297 302/66/302 288/42/288
f 288/42/288 302/66/302 295/65/295 282/45/282
f 230/633/230 222/624/222 224/625/224 232/634/232
f 232/634/232 224/625/224 223/626/223 231/635/231
f 231/635/231 223/626/223 221/627/221 229/636/229
f 367/147/367 350/126/350 356/123/356 374/148/374
f 374/148/374 356/123/356 352/122/352 369/149/369
f 369/136/369 352/119/352 349/118/349 365/133/365
f 226/628/226 234/637/234 236/638/236 228/629/228
f 228/629/228 236/638/236 235/639/235 227/630/227
f 227/631/227 235/640/235 233/641/233 225/632/225
f 319/97/319 295/65/295 303/62/303 326/98/326
f 326/98/326 303/62/303 299/61/299 321/99/321
f 321/88/321 299/58/299 294/57/294 317/85/317
f 238/642/238 230/633/230 232/634/232 240/643/240
f 240/643/240 232/634/232 231/635/231 239/644/239
f 239/644/239 231/635/231 229/636/229 237/645/237
f 486/299/486 14/27/14 20/24/20 491/300/491
f 491/300/491 20/24/20 16/23/16 495/301/495
f 495/306/495 16/20/16 13/19/13 487/303/487
f 234/637/234 242/646/242 244/647/244 236/638/236
f 236/638/236 244/647/244 243/648/243 235/639/235
f 235/640/235 243/649/243 241/650/241 233/641/233
f 246/651/246 238/642/238 240/643/240 248/652/248
f 248/652/248 240/643/240 239/644/239 247/653/247
f 247/653/247 239/644/239 237/645/237 245/654/245
f 242/646/242 250/655/250 252/656/252 244/647/244
f 244/647/244 252/656/252 251/657/251 243/648/243
f 243/649/243 251/658/251 249/659/249 241/650/241
f 254/660/254 246/651/246 248/652/248 256/661/256
f 256/661/256 248/652/248 247/653/247 255/662/255
f 255/662/255 247/653/247 245/654/245 253/663/253
f 461/260/461 451/256/451 459/253/459 464/261/464
f 464/261/464 459/253/459 455/252/455 468/264/468
f 468/269/468 455/249/455 450/248/450 462/266/462
f 250/655/250 258/664/258 260/665/260 252/656/252
f 252/656/252 260/665/260 259/666/259 251/657/251
f 251/658/251 259/667/259 257/668/257 249/659/249
f 282/45/282 306/78/306 312/75/312 287/46/287
f 287/46/287 312/75/312 308/74/308 291/47/291
f 291/50/291 308/71/308 305/70/305 283/48/283
f 262/669/262 254/660/254 256/661/256 264/670/264
f 264/670/264 256/661/256 255/662/255 263/671/263
f 263/671/263 255/662/255 253/663/253 261/672/261
f 350/126/350 346/673/346 348/674/348 355/127/355
f 355/127/355 348/674/348 347/675/347 359/128/359
f 359/128/359 347/675/347 345/676/345 351/130/351
f 258/677/258 266/678/266 268/679/268 260/680/260
f 260/680/260 268/679/268 267/681/267 259/682/259
f 259/667/259 267/683/267 265/684/265 257/668/257
f 510/331/510 499/319/499 507/322/507 515/332/515
f 515/335/515 507/317/507 503/314/503 519/336/519
f 519/336/519 503/314/503 498/313/498 511/338/511
f 270/685/270 262/686/262 264/687/264 272/688/272
f 272/689/272 264/670/264 263/671/263 271/690/271
f 271/690/271 263/671/263 261/672/261 269/691/269
f 351/130/351 333/100/333 337/103/337 358/131/358
f 358/131/358 337/103/337 342/116/342 353/132/353
f 353/121/353 342/113/342 335/112/335 349/118/349
f 266/692/266 274/693/274 276/694/276 268/695/268
f 268/695/268 276/694/276 275/696/275 267/697/267
f 267/683/267 275/698/275 273/699/273 265/684/265
f 473/275/473 497/307/497 501/310/501 476/276/476
f 476/276/476 501/310/501 506/323/506 480/279/480
f 480/284/480 506/320/506 499/319/499 474/281/474
f 278/700/278 270/701/270 272/702/272 280/703/280
f 280/703/280 272/702/272 271/704/271 279/705/279
f 279/706/279 271/690/271 269/691/269 277/707/277
f 274/693/274 154/564/154 156/565/156 276/694/276
f 276/694/276 156/565/156 155/566/155 275/696/275
f 275/698/275 155/567/155 153/568/153 273/699/273
f 158/526/158 278/700/278 280/703/280 160/527/160
f 160/527/160 280/703/280 279/705/279 159/528/159
f 159/529/159 279/706/279 277/707/277 157/530/157
f 414/205/414 403/197/403 411/195/411 419/206/419
f 419/206/419 411/195/411 407/192/407 423/207/423
f 423/207/423 407/192/407 402/191/402 415/209/415
f 449/242/449 2/9/2 8/6/8 452/243/452
f 452/243/452 8/6/8 4/5/4 456/246/456
f 456/251/456 4/2/4 1/1/1 450/248/450
f 403/197/403 426/217/426 432/220/432 410/196/410
f 410/198/410 432/215/432 428/212/428 405/188/405
f 405/188/405 428/212/428 425/211/425 401/185/401
f 509/325/509 486/299/486 492/296/492 512/326/512
f 512/326/512 492/296/492 488/295/488 516/329/516
f 516/334/516 488/292/488 485/291/485 510/331/510
f 439/238/439 414/205/414 420/203/420 446/239/446
f 446/239/446 420/203/420 416/200/416 441/229/441
f 441/229/441 416/200/416 413/199/413 437/226/437
f 438/234/438 427/224/427 435/222/435 443/235/443
f 443/235/443 435/222/435 431/221/431 447/236/447
f 447/241/447 431/218/431 426/217/426 439/238/439
f 427/224/427 281/37/281 285/40/285 434/225/434
f 434/225/434 285/40/285 290/49/290 429/214/429
f 429/214/429 290/49/290 283/48/283 425/211/425
f 293/51/293 438/234/438 444/231/444 296/52/296
f 296/52/296 444/231/444 440/230/440 300/55/300
f 300/60/300 440/227/440 437/226/437 294/57/294
f 1/1/1 15/31/15 462/266/462 450/248/450
f 475/287/475 487/303/487 13/19/13 3/13/3
f 449/242/449 497/307/497 473/275/473 2/9/2
f 509/325/509 463/273/463 14/27/14 486/299/486
f 25/364/25 33/363/33 41/399/41 49/409/49 57/422/57 65/453/65 73/463/73 81/486/81 89/496/89 97/509/97 105/525/105 113/539/113 121/551/121 129/563/129 137/578/137 145/588/145
f 26/355/26 30/376/30 38/375/38 34/356/34
f 146/584/146 150/589/150 30/597/30 26/594/26
f 37/384/37 29/383/29 149/593/149 141/583/141 133/573/133 125/558/125 117/543/117 109/534/109 101/515/101 93/501/93 85/491/85 77/473/77 69/458/69 61/440/61 53/414/53 45/404/45
f 34/356/34 38/375/38 46/400/46 42/395/42
f 42/395/42 46/400/46 54/410/54 50/405/50
f 50/415/50 54/434/54 62/433/62 58/416/58
f 58/416/58 62/433/62 70/454/70 66/449/66
f 66/449/66 70/454/70 78/469/78 74/459/74
f 74/459/74 78/469/78 86/487/86 82/482/82
f 82/482/82 86/487/86 94/497/94 90/492/90
f 90/502/90 94/511/94 102/510/102 98/503/98
f 98/503/98 102/510/102 110/531/110 106/521/106
f 106/521/106 110/531/110 118/540/118 114/535/114
f 114/544/114 118/553/118 126/552/126 122/545/122
f 122/545/122 126/552/126 134/569/134 130/559/130
f 130/559/130 134/569/134 142/579/142 138/574/138
f 138/574/138 142/579/142 150/589/150 146/584/146
f 274/693/274 278/700/278 158/526/158 154/564/154
f 154/564/154 158/526/158 166/424/166 162/464/162
f 233/641/233 241/650/241 249/659/249 257/668/257 265/684/265 273/699/273 153/568/153 161/468/161 169/374/169 178/373/178 185/481/185 193/394/193 201/393/201 209/612/209 217/623/217 225/632/225
f 197/348/197 189/448/189 181/520/181 173/432/173 165/431/165 157/530/157 277/707/277 269/691/269 261/672/261 253/663/253 245/654/245 237/645/237 229/636/229 221/627/221 213/618/213 205/349/205
f 162/464/162 166/424/166 174/423/174 170/365/170
f 170/365/170 174/423/174 182/516/182 177/366/177
f 177/366/177 182/516/182 190/442/190 186/474/186
f 186/474/186 190/442/190 198/441/198 194/475/194
f 194/385/194 198/341/198 206/340/206 202/386/202
f 202/605/202 206/614/206 214/613/214 210/606/210
f 210/606/210 214/613/214 222/624/222 218/619/218
f 218/619/218 222/624/222 230/633/230 226/628/226
f 226/628/226 230/633/230 238/642/238 234/637/234
f 234/637/234 238/642/238 246/651/246 242/646/242
f 242/646/242 246/651/246 254/660/254 250/655/250
f 250/655/250 254/660/254 262/669/262 258/664/258
f 258/677/258 262/686/262 270/685/270 266/678/266
f 266/692/266 270/701/270 278/700/278 274/693/274
f 282/45/282 295/65/295 319/97/319 306/78/306
f 330/354/330 345/676/345 347/675/347 348/674/348 346/673/346 361/604/361 377/152/377 401/185/401 425/211/425 283/48/283 305/70/305
f 427/224/427 438/234/438 293/51/293 281/37/281
f 437/226/437 413/199/413 389/170/389 365/133/365 349/118/349 335/112/335 317/85/317 294/57/294
f 307/82/307 318/93/318 334/108/334 329/350/329
f 330/354/330 333/100/333 351/130/351 345/676/345
f 346/673/346 350/126/350 367/147/367 361/604/361
f 362/600/362 366/139/366 391/180/391 378/158/378
f 379/166/379 390/176/390 415/209/415 402/191/402
f 403/197/403 414/205/414 439/238/439 426/217/426
f 451/256/451 461/260/461 511/338/511 498/313/498
f 499/319/499 510/331/510 485/291/485 474/281/474
