# Blender 5.0.1
# www.blender.org
mtllib BB_PROP_Conduit_Straight.mtl
o BB_PROP_Conduit_Straight
v 6.000000 0.029647 -0.750000
v 6.000000 0.040000 -0.740000
v 6.000000 0.034824 -0.748660
v 6.000000 0.038613 -0.745000
v 6.000000 0.029647 0.750000
v 6.000000 0.040000 0.740000
v 6.000000 0.034824 0.748660
v 6.000000 0.038613 0.745000
v 6.014823 0.025675 -0.750000
v 6.020000 0.034641 -0.740000
v 6.017412 0.030158 -0.748660
v 6.019307 0.033440 -0.745000
v 6.014823 0.025675 0.750000
v 6.020000 0.034641 0.740000
v 6.017412 0.030158 0.748660
v 6.019307 0.033440 0.745000
v 6.025675 0.014824 -0.750000
v 6.034641 0.020000 -0.740000
v 6.030158 0.017412 -0.748660
v 6.033440 0.019306 -0.745000
v 6.025675 0.014824 0.750000
v 6.034641 0.020000 0.740000
v 6.030158 0.017412 0.748660
v 6.033440 0.019306 0.745000
v 6.029647 0.000000 -0.750000
v 6.040000 0.000000 -0.740000
v 6.034823 0.000000 -0.748660
v 6.038613 0.000000 -0.745000
v 6.029647 -0.000000 0.750000
v 6.040000 0.000000 0.740000
v 6.034823 -0.000000 0.748660
v 6.038613 -0.000000 0.745000
v 6.025675 -0.014824 -0.750000
v 6.034641 -0.020000 -0.740000
v 6.030158 -0.017412 -0.748660
v 6.033440 -0.019306 -0.745000
v 6.025675 -0.014824 0.750000
v 6.034641 -0.020000 0.740000
v 6.030158 -0.017412 0.748660
v 6.033440 -0.019306 0.745000
v 6.014823 -0.025675 -0.750000
v 6.020000 -0.034641 -0.740000
v 6.017412 -0.030158 -0.748660
v 6.019307 -0.033440 -0.745000
v 6.014823 -0.025675 0.750000
v 6.020000 -0.034641 0.740000
v 6.017412 -0.030158 0.748660
v 6.019307 -0.033440 0.745000
v 6.000000 -0.029647 -0.750000
v 6.000000 -0.040000 -0.740000
v 6.000000 -0.034824 -0.748660
v 6.000000 -0.038613 -0.745000
v 6.000000 -0.029647 0.750000
v 6.000000 -0.040000 0.740000
v 6.000000 -0.034824 0.748660
v 6.000000 -0.038613 0.745000
v 5.985177 -0.025675 -0.750000
v 5.980000 -0.034641 -0.740000
v 5.982588 -0.030158 -0.748660
v 5.980693 -0.033440 -0.745000
v 5.985177 -0.025675 0.750000
v 5.980000 -0.034641 0.740000
v 5.982588 -0.030158 0.748660
v 5.980693 -0.033440 0.745000
v 5.974325 -0.014824 -0.750000
v 5.965359 -0.020000 -0.740000
v 5.969842 -0.017412 -0.748660
v 5.966560 -0.019306 -0.745000
v 5.974325 -0.014824 0.750000
v 5.965359 -0.020000 0.740000
v 5.969842 -0.017412 0.748660
v 5.966560 -0.019306 0.745000
v 5.970353 -0.000000 -0.750000
v 5.960000 0.000000 -0.740000
v 5.965177 -0.000000 -0.748660
v 5.961387 -0.000000 -0.745000
v 5.970353 0.000000 0.750000
v 5.960000 0.000000 0.740000
v 5.965177 0.000000 0.748660
v 5.961387 0.000000 0.745000
v 5.974325 0.014824 -0.750000
v 5.965359 0.020000 -0.740000
v 5.969842 0.017412 -0.748660
v 5.966560 0.019306 -0.745000
v 5.974325 0.014824 0.750000
v 5.965359 0.020000 0.740000
v 5.969842 0.017412 0.748660
v 5.966560 0.019306 0.745000
v 5.985177 0.025675 -0.750000
v 5.980000 0.034641 -0.740000
v 5.982588 0.030158 -0.748660
v 5.980693 0.033440 -0.745000
v 5.985177 0.025675 0.750000
v 5.980000 0.034641 0.740000
v 5.982588 0.030158 0.748660
v 5.980693 0.033440 0.745000
v 6.000000 0.039647 0.650000
v 6.000000 0.050000 0.660000
v 6.000000 0.044824 0.651340
v 6.000000 0.048613 0.655000
v 6.000000 0.039647 0.750000
v 6.000000 0.050000 0.740000
v 6.000000 0.044824 0.748660
v 6.000000 0.048613 0.745000
v 6.019824 0.034336 0.650000
v 6.025000 0.043301 0.660000
v 6.022412 0.038818 0.651340
v 6.024306 0.042100 0.655000
v 6.019824 0.034336 0.750000
v 6.025000 0.043301 0.740000
v 6.022412 0.038818 0.748660
v 6.024306 0.042100 0.745000
v 6.043301 0.025000 0.660000
v 6.034336 0.019824 0.650000
v 6.042100 0.024306 0.655000
v 6.038818 0.022412 0.651340
v 6.034336 0.019824 0.750000
v 6.043301 0.025000 0.740000
v 6.038818 0.022412 0.748660
v 6.042100 0.024306 0.745000
v 6.039647 -0.000000 0.650000
v 6.050000 0.000000 0.660000
v 6.044824 -0.000000 0.651340
v 6.048613 -0.000000 0.655000
v 6.039647 0.000000 0.750000
v 6.050000 0.000000 0.740000
v 6.044824 0.000000 0.748660
v 6.048613 0.000000 0.745000
v 6.034336 -0.019824 0.650000
v 6.043301 -0.025000 0.660000
v 6.038818 -0.022412 0.651340
v 6.042100 -0.024306 0.655000
v 6.034336 -0.019824 0.750000
v 6.043301 -0.025000 0.740000
v 6.038818 -0.022412 0.748660
v 6.042100 -0.024306 0.745000
v 6.019824 -0.034336 0.650000
v 6.025000 -0.043301 0.660000
v 6.022412 -0.038818 0.651340
v 6.024306 -0.042100 0.655000
v 6.019824 -0.034336 0.750000
v 6.025000 -0.043301 0.740000
v 6.022412 -0.038818 0.748660
v 6.024306 -0.042100 0.745000
v 6.000000 -0.039647 0.650000
v 6.000000 -0.050000 0.660000
v 6.000000 -0.044824 0.651340
v 6.000000 -0.048613 0.655000
v 6.000000 -0.039647 0.750000
v 6.000000 -0.050000 0.740000
v 6.000000 -0.044824 0.748660
v 6.000000 -0.048613 0.745000
v 5.980176 -0.034336 0.650000
v 5.975000 -0.043301 0.660000
v 5.977588 -0.038818 0.651340
v 5.975694 -0.042100 0.655000
v 5.980176 -0.034336 0.750000
v 5.975000 -0.043301 0.740000
v 5.977588 -0.038818 0.748660
v 5.975694 -0.042100 0.745000
v 5.965664 -0.019824 0.650000
v 5.956699 -0.025000 0.660000
v 5.961182 -0.022412 0.651340
v 5.957900 -0.024306 0.655000
v 5.965664 -0.019824 0.750000
v 5.956699 -0.025000 0.740000
v 5.961182 -0.022412 0.748660
v 5.957900 -0.024306 0.745000
v 5.960353 0.000000 0.650000
v 5.950000 0.000000 0.660000
v 5.955176 0.000000 0.651340
v 5.951387 0.000000 0.655000
v 5.960353 -0.000000 0.750000
v 5.950000 0.000000 0.740000
v 5.955176 -0.000000 0.748660
v 5.951387 -0.000000 0.745000
v 5.965664 0.019824 0.650000
v 5.956699 0.025000 0.660000
v 5.961182 0.022412 0.651340
v 5.957900 0.024306 0.655000
v 5.965664 0.019824 0.750000
v 5.956699 0.025000 0.740000
v 5.961182 0.022412 0.748660
v 5.957900 0.024306 0.745000
v 5.980176 0.034336 0.650000
v 5.975000 0.043301 0.660000
v 5.977588 0.038818 0.651340
v 5.975694 0.042100 0.655000
v 5.980176 0.034336 0.750000
v 5.975000 0.043301 0.740000
v 5.977588 0.038818 0.748660
v 5.975694 0.042100 0.745000
v 6.000000 0.039647 -0.750000
v 6.000000 0.050000 -0.740000
v 6.000000 0.044824 -0.748660
v 6.000000 0.048613 -0.745000
v 6.000000 0.039647 -0.650000
v 6.000000 0.050000 -0.660000
v 6.000000 0.044824 -0.651340
v 6.000000 0.048613 -0.655000
v 6.019824 0.034336 -0.750000
v 6.025000 0.043301 -0.740000
v 6.022412 0.038818 -0.748660
v 6.024306 0.042100 -0.745000
v 6.019824 0.034336 -0.650000
v 6.025000 0.043301 -0.660000
v 6.022412 0.038818 -0.651340
v 6.024306 0.042100 -0.655000
v 6.043301 0.025000 -0.740000
v 6.034336 0.019824 -0.750000
v 6.042100 0.024306 -0.745000
v 6.038818 0.022412 -0.748660
v 6.034336 0.019824 -0.650000
v 6.043301 0.025000 -0.660000
v 6.038818 0.022412 -0.651340
v 6.042100 0.024306 -0.655000
v 6.039647 -0.000000 -0.750000
v 6.050000 0.000000 -0.740000
v 6.044824 -0.000000 -0.748660
v 6.048613 -0.000000 -0.745000
v 6.039647 0.000000 -0.650000
v 6.050000 0.000000 -0.660000
v 6.044824 0.000000 -0.651340
v 6.048613 0.000000 -0.655000
v 6.034336 -0.019824 -0.750000
v 6.043301 -0.025000 -0.740000
v 6.038818 -0.022412 -0.748660
v 6.042100 -0.024306 -0.745000
v 6.034336 -0.019824 -0.650000
v 6.043301 -0.025000 -0.660000
v 6.038818 -0.022412 -0.651340
v 6.042100 -0.024306 -0.655000
v 6.019824 -0.034336 -0.750000
v 6.025000 -0.043301 -0.740000
v 6.022412 -0.038818 -0.748660
v 6.024306 -0.042100 -0.745000
v 6.019824 -0.034336 -0.650000
v 6.025000 -0.043301 -0.660000
v 6.022412 -0.038818 -0.651340
v 6.024306 -0.042100 -0.655000
v 6.000000 -0.039647 -0.750000
v 6.000000 -0.050000 -0.740000
v 6.000000 -0.044824 -0.748660
v 6.000000 -0.048613 -0.745000
v 6.000000 -0.039647 -0.650000
v 6.000000 -0.050000 -0.660000
v 6.000000 -0.044824 -0.651340
v 6.000000 -0.048613 -0.655000
v 5.980176 -0.034336 -0.750000
v 5.975000 -0.043301 -0.740000
v 5.977588 -0.038818 -0.748660
v 5.975694 -0.042100 -0.745000
v 5.980176 -0.034336 -0.650000
v 5.975000 -0.043301 -0.660000
v 5.977588 -0.038818 -0.651340
v 5.975694 -0.042100 -0.655000
v 5.965664 -0.019824 -0.750000
v 5.956699 -0.025000 -0.740000
v 5.961182 -0.022412 -0.748660
v 5.957900 -0.024306 -0.745000
v 5.965664 -0.019824 -0.650000
v 5.956699 -0.025000 -0.660000
v 5.961182 -0.022412 -0.651340
v 5.957900 -0.024306 -0.655000
v 5.960353 0.000000 -0.750000
v 5.950000 0.000000 -0.740000
v 5.955176 0.000000 -0.748660
v 5.951387 0.000000 -0.745000
v 5.960353 -0.000000 -0.650000
v 5.950000 0.000000 -0.660000
v 5.955176 -0.000000 -0.651340
v 5.951387 -0.000000 -0.655000
v 5.965664 0.019824 -0.750000
v 5.956699 0.025000 -0.740000
v 5.961182 0.022412 -0.748660
v 5.957900 0.024306 -0.745000
v 5.965664 0.019824 -0.650000
v 5.956699 0.025000 -0.660000
v 5.961182 0.022412 -0.651340
v 5.957900 0.024306 -0.655000
v 5.980176 0.034336 -0.750000
v 5.975000 0.043301 -0.740000
v 5.977588 0.038818 -0.748660
v 5.975694 0.042100 -0.745000
v 5.980176 0.034336 -0.650000
v 5.975000 0.043301 -0.660000
v 5.977588 0.038818 -0.651340
v 5.975694 0.042100 -0.655000
vn -0.0000 0.1469 -0.9892
vn -0.0000 0.9912 -0.1320
vn -0.0000 0.5197 -0.8544
vn -0.0000 0.8700 -0.4931
vn -0.0000 0.1469 0.9892
vn -0.0000 0.9912 0.1320
vn -0.0000 0.5197 0.8544
vn -0.0000 0.8700 0.4931
vn 0.0734 0.1272 -0.9892
vn 0.4956 0.8584 -0.1320
vn 0.2598 0.4500 -0.8544
vn 0.4350 0.7534 -0.4931
vn 0.0734 0.1272 0.9892
vn 0.4956 0.8584 0.1320
vn 0.2598 0.4500 0.8544
vn 0.4350 0.7534 0.4931
vn 0.1272 0.0734 -0.9892
vn 0.8584 0.4956 -0.1320
vn 0.4500 0.2598 -0.8544
vn 0.7534 0.4350 -0.4931
vn 0.1272 0.0734 0.9892
vn 0.8584 0.4956 0.1320
vn 0.4500 0.2598 0.8544
vn 0.7534 0.4350 0.4931
vn 0.1469 -0.0000 -0.9892
vn 0.9912 -0.0000 -0.1320
vn 0.5197 -0.0000 -0.8544
vn 0.8700 -0.0000 -0.4931
vn 0.1469 -0.0000 0.9892
vn 0.9912 -0.0000 0.1320
vn 0.5197 -0.0000 0.8544
vn 0.8700 -0.0000 0.4931
vn 0.1272 -0.0734 -0.9892
vn 0.8584 -0.4956 -0.1320
vn 0.4500 -0.2598 -0.8544
vn 0.7534 -0.4350 -0.4931
vn 0.1272 -0.0734 0.9892
vn 0.8584 -0.4956 0.1320
vn 0.4500 -0.2598 0.8544
vn 0.7534 -0.4350 0.4931
vn 0.0734 -0.1272 -0.9892
vn 0.4956 -0.8584 -0.1320
vn 0.2598 -0.4500 -0.8544
vn 0.4350 -0.7534 -0.4931
vn 0.0734 -0.1272 0.9892
vn 0.4956 -0.8584 0.1320
vn 0.2598 -0.4500 0.8544
vn 0.4350 -0.7534 0.4931
vn -0.0000 -0.1469 -0.9892
vn -0.0000 -0.9912 -0.1320
vn -0.0000 -0.5197 -0.8544
vn -0.0000 -0.8700 -0.4931
vn -0.0000 -0.1469 0.9892
vn -0.0000 -0.9912 0.1320
vn -0.0000 -0.5197 0.8544
vn -0.0000 -0.8700 0.4931
vn -0.0734 -0.1272 -0.9892
vn -0.4956 -0.8584 -0.1320
vn -0.2598 -0.4500 -0.8544
vn -0.4350 -0.7534 -0.4931
vn -0.0734 -0.1272 0.9892
vn -0.4956 -0.8584 0.1320
vn -0.2598 -0.4500 0.8544
vn -0.4350 -0.7534 0.4931
vn -0.1272 -0.0734 -0.9892
vn -0.8584 -0.4956 -0.1320
vn -0.4500 -0.2598 -0.8544
vn -0.7534 -0.4350 -0.4931
vn -0.1272 -0.0734 0.9892
vn -0.8584 -0.4956 0.1320
vn -0.4500 -0.2598 0.8544
vn -0.7534 -0.4350 0.4931
vn -0.1469 -0.0000 -0.9892
vn -0.9912 -0.0000 -0.1320
vn -0.5197 -0.0000 -0.8544
vn -0.8700 -0.0000 -0.4931
vn -0.1469 -0.0000 0.9892
vn -0.9912 -0.0000 0.1320
vn -0.5197 -0.0000 0.8544
vn -0.8700 -0.0000 0.4931
vn -0.1272 0.0734 -0.9892
vn -0.8584 0.4956 -0.1320
vn -0.4500 0.2598 -0.8544
vn -0.7534 0.4350 -0.4931
vn -0.1272 0.0734 0.9892
vn -0.8584 0.4956 0.1320
vn -0.4500 0.2598 0.8544
vn -0.7534 0.4350 0.4931
vn -0.0734 0.1272 -0.9892
vn -0.4956 0.8584 -0.1320
vn -0.2598 0.4500 -0.8544
vn -0.4350 0.7534 -0.4931
vn -0.0734 0.1272 0.9892
vn -0.4956 0.8584 0.1320
vn -0.2598 0.4500 0.8544
vn -0.4350 0.7534 0.4931
vt 0.001581 0.991774
vt 0.013497 0.991774
vt 0.013513 0.998419
vt 0.001787 0.998419
vt 0.164660 0.914990
vt 0.164660 0.901262
vt 0.167923 0.902136
vt 0.167923 0.914116
vt 0.171246 0.903027
vt 0.171246 0.913226
vt 0.196696 0.347257
vt 0.179496 0.347257
vt 0.179512 0.343934
vt 0.196680 0.343934
vt 0.179556 0.340611
vt 0.196636 0.340611
vt 0.188156 0.065550
vt 0.173363 0.057009
vt 0.178065 0.052307
vt 0.189877 0.059127
vt 0.179496 0.470039
vt 0.196696 0.470039
vt 0.196680 0.473362
vt 0.179512 0.473362
vt 0.196636 0.476685
vt 0.179556 0.476685
vt 0.164823 0.159843
vt 0.173363 0.145050
vt 0.178065 0.149752
vt 0.171246 0.161564
vt 0.013497 0.008226
vt 0.001581 0.008227
vt 0.001787 0.001581
vt 0.013513 0.001581
vt 0.171524 0.872364
vt 0.164660 0.860475
vt 0.167923 0.859601
vt 0.173913 0.869975
vt 0.171246 0.858711
vt 0.176345 0.867543
vt 0.179496 0.486492
vt 0.164600 0.486492
vt 0.164807 0.483169
vt 0.179512 0.483169
vt 0.165371 0.479847
vt 0.179556 0.479847
vt 0.220029 0.057009
vt 0.205236 0.065550
vt 0.203515 0.059127
vt 0.215327 0.052307
vt 0.027257 0.991774
vt 0.027241 0.998419
vt 0.171524 0.889374
vt 0.173913 0.891762
vt 0.176345 0.894195
vt 0.179496 0.400422
vt 0.196696 0.400422
vt 0.196680 0.403744
vt 0.179512 0.403744
vt 0.196636 0.407067
vt 0.179556 0.407067
vt 0.164823 0.092489
vt 0.173363 0.077697
vt 0.178065 0.082399
vt 0.171246 0.094210
vt 0.027257 0.008226
vt 0.027241 0.001581
vt 0.183413 0.879228
vt 0.184287 0.875965
vt 0.185177 0.872642
vt 0.039174 0.991774
vt 0.038967 0.998419
vt 0.183413 0.882509
vt 0.184287 0.885772
vt 0.185178 0.889096
vt 0.179496 0.277639
vt 0.164600 0.277639
vt 0.164807 0.274316
vt 0.179512 0.274316
vt 0.165371 0.270994
vt 0.179556 0.270994
vt 0.220029 0.259069
vt 0.205236 0.267609
vt 0.203515 0.261186
vt 0.215327 0.254367
vt 0.039174 0.008226
vt 0.038967 0.001581
vt 0.197141 0.879228
vt 0.196267 0.875965
vt 0.195376 0.872642
vt 0.164600 0.539657
vt 0.179496 0.539657
vt 0.179512 0.542980
vt 0.164807 0.542980
vt 0.179556 0.546302
vt 0.165371 0.546302
vt 0.188156 0.069157
vt 0.205236 0.069157
vt 0.203515 0.075580
vt 0.189877 0.075580
vt 0.042336 0.991774
vt 0.054252 0.991774
vt 0.054268 0.998419
vt 0.042542 0.998419
vt 0.197141 0.882509
vt 0.196266 0.885772
vt 0.195376 0.889095
vt 0.054252 0.008226
vt 0.042336 0.008227
vt 0.042542 0.001581
vt 0.054268 0.001581
vt 0.209030 0.872364
vt 0.206641 0.869976
vt 0.204208 0.867543
vt 0.164600 0.330804
vt 0.179496 0.330804
vt 0.179512 0.334127
vt 0.164807 0.334127
vt 0.179556 0.337450
vt 0.165371 0.337450
vt 0.188156 0.136510
vt 0.205236 0.136510
vt 0.203515 0.142933
vt 0.189877 0.142933
vt 0.068012 0.991774
vt 0.067996 0.998419
vt 0.209030 0.889373
vt 0.206641 0.891762
vt 0.204208 0.894195
vt 0.068012 0.008226
vt 0.067996 0.001581
vt 0.215894 0.860475
vt 0.212631 0.859601
vt 0.209308 0.858711
vt 0.079929 0.991774
vt 0.079722 0.998419
vt 0.215894 0.901262
vt 0.212631 0.902137
vt 0.209308 0.903027
vt 0.164600 0.347257
vt 0.164807 0.343934
vt 0.165371 0.340611
vt 0.164823 0.042217
vt 0.171246 0.040496
vt 0.079929 0.008226
vt 0.079722 0.001581
vt 0.215894 0.846747
vt 0.212631 0.847622
vt 0.209308 0.848512
vt 0.211592 0.347257
vt 0.211385 0.343934
vt 0.210821 0.340611
vt 0.083091 0.991774
vt 0.095007 0.991774
vt 0.095023 0.998419
vt 0.083297 0.998419
vt 0.215894 0.914990
vt 0.212631 0.914116
vt 0.209308 0.913226
vt 0.095007 0.008226
vt 0.083091 0.008227
vt 0.083297 0.001581
vt 0.095023 0.001581
vt 0.209030 0.834859
vt 0.206641 0.837247
vt 0.204208 0.839680
vt 0.108767 0.991774
vt 0.108751 0.998419
vt 0.209030 0.926879
vt 0.206641 0.924490
vt 0.204208 0.922058
vt 0.196696 0.416874
vt 0.179496 0.416874
vt 0.179512 0.413552
vt 0.196680 0.413552
vt 0.179556 0.410229
vt 0.196636 0.410229
vt 0.188156 0.267609
vt 0.173363 0.259069
vt 0.178065 0.254367
vt 0.189877 0.261186
vt 0.108767 0.008226
vt 0.108751 0.001581
vt 0.197141 0.827994
vt 0.196266 0.831258
vt 0.195376 0.834581
vt 0.211592 0.400422
vt 0.211385 0.403744
vt 0.210821 0.407067
vt 0.120684 0.991774
vt 0.120477 0.998419
vt 0.197141 0.933743
vt 0.196267 0.930480
vt 0.195376 0.927157
vt 0.164600 0.400422
vt 0.164807 0.403744
vt 0.165371 0.407067
vt 0.164823 0.109570
vt 0.171246 0.107849
vt 0.120684 0.008226
vt 0.120477 0.001581
vt 0.183413 0.827995
vt 0.184287 0.831257
vt 0.185177 0.834581
vt 0.123845 0.991774
vt 0.135762 0.991774
vt 0.135778 0.998419
vt 0.124052 0.998419
vt 0.183413 0.933743
vt 0.184287 0.930480
vt 0.185178 0.927157
vt 0.135762 0.008226
vt 0.123845 0.008227
vt 0.124052 0.001581
vt 0.135778 0.001581
vt 0.171524 0.834859
vt 0.173913 0.837247
vt 0.176345 0.839680
vt 0.149522 0.991774
vt 0.149506 0.998419
vt 0.171524 0.926879
vt 0.173913 0.924490
vt 0.176345 0.922058
vt 0.149522 0.008226
vt 0.149506 0.001581
vt 0.164660 0.846747
vt 0.167923 0.847621
vt 0.171246 0.848512
vt 0.161439 0.991774
vt 0.161232 0.998419
vt 0.161439 0.008226
vt 0.161232 0.001581
vt 0.196696 0.539657
vt 0.196680 0.542980
vt 0.196636 0.546302
vt 0.220029 0.077697
vt 0.215327 0.082399
vt 0.196696 0.486492
vt 0.196680 0.483169
vt 0.196636 0.479847
vt 0.228569 0.042217
vt 0.222146 0.040496
vt 0.211592 0.539657
vt 0.211385 0.542980
vt 0.210821 0.546302
vt 0.228569 0.092489
vt 0.222146 0.094210
vt 0.164600 0.416874
vt 0.164807 0.413552
vt 0.165371 0.410229
vt 0.164823 0.244276
vt 0.171246 0.242556
vt 0.211592 0.486492
vt 0.211385 0.483169
vt 0.210821 0.479847
vt 0.228569 0.025136
vt 0.222146 0.026857
vt 0.211592 0.416874
vt 0.211385 0.413552
vt 0.210821 0.410229
vt 0.164600 0.609274
vt 0.179496 0.609275
vt 0.179512 0.612597
vt 0.164807 0.612597
vt 0.179556 0.615920
vt 0.165371 0.615920
vt 0.228569 0.109570
vt 0.222146 0.107849
vt 0.179496 0.556110
vt 0.164600 0.556110
vt 0.164807 0.552787
vt 0.179512 0.552787
vt 0.165371 0.549464
vt 0.179556 0.549464
vt 0.220029 0.010344
vt 0.215327 0.015046
vt 0.196696 0.609275
vt 0.196680 0.612597
vt 0.196636 0.615920
vt 0.220029 0.124363
vt 0.215327 0.119661
vt 0.196696 0.556110
vt 0.196680 0.552787
vt 0.196636 0.549464
vt 0.205236 0.001803
vt 0.203515 0.008226
vt 0.211592 0.470039
vt 0.211385 0.473362
vt 0.210821 0.476685
vt 0.211592 0.609275
vt 0.211385 0.612597
vt 0.210821 0.615920
vt 0.205236 0.132903
vt 0.203515 0.126480
vt 0.164600 0.470039
vt 0.164807 0.473362
vt 0.165371 0.476685
vt 0.164823 0.176923
vt 0.171246 0.175202
vt 0.211592 0.556110
vt 0.211385 0.552787
vt 0.210821 0.549464
vt 0.188156 0.001803
vt 0.189877 0.008226
vt 0.164600 0.678892
vt 0.179496 0.678892
vt 0.179512 0.682215
vt 0.164807 0.682215
vt 0.179556 0.685538
vt 0.165371 0.685538
vt 0.188156 0.132903
vt 0.189877 0.126480
vt 0.179496 0.625727
vt 0.164600 0.625727
vt 0.164807 0.622405
vt 0.179512 0.622405
vt 0.165371 0.619082
vt 0.179556 0.619082
vt 0.173363 0.010344
vt 0.178065 0.015046
vt 0.196696 0.678892
vt 0.196680 0.682215
vt 0.196636 0.685538
vt 0.173363 0.124363
vt 0.178065 0.119661
vt 0.196696 0.625727
vt 0.196680 0.622405
vt 0.196636 0.619082
vt 0.164823 0.025136
vt 0.171246 0.026857
vt 0.211592 0.678892
vt 0.211385 0.682215
vt 0.210821 0.685538
vt 0.211592 0.625727
vt 0.211385 0.622405
vt 0.210821 0.619082
vt 0.196696 0.330804
vt 0.196680 0.334127
vt 0.196636 0.337450
vt 0.220029 0.145050
vt 0.215327 0.149752
vt 0.196696 0.277639
vt 0.196680 0.274316
vt 0.196636 0.270994
vt 0.228569 0.244276
vt 0.222146 0.242555
vt 0.211592 0.330804
vt 0.211385 0.334127
vt 0.210821 0.337450
vt 0.228569 0.159843
vt 0.222146 0.161564
vt 0.211592 0.277639
vt 0.211385 0.274316
vt 0.210821 0.270994
vt 0.228569 0.227196
vt 0.222146 0.228917
vt 0.164600 0.748510
vt 0.179496 0.748510
vt 0.179512 0.751833
vt 0.164807 0.751833
vt 0.179556 0.755156
vt 0.165371 0.755156
vt 0.228569 0.176923
vt 0.222146 0.175202
vt 0.179496 0.695345
vt 0.164600 0.695345
vt 0.164807 0.692022
vt 0.179512 0.692022
vt 0.165371 0.688700
vt 0.179556 0.688700
vt 0.220029 0.212403
vt 0.215327 0.217105
vt 0.196696 0.748510
vt 0.196680 0.751833
vt 0.196636 0.755156
vt 0.220029 0.191716
vt 0.215327 0.187014
vt 0.196696 0.695345
vt 0.196680 0.692022
vt 0.196636 0.688700
vt 0.205236 0.203863
vt 0.203515 0.210286
vt 0.211592 0.748510
vt 0.211385 0.751833
vt 0.210821 0.755156
vt 0.205236 0.200256
vt 0.203515 0.193833
vt 0.211592 0.695345
vt 0.211385 0.692022
vt 0.210821 0.688700
vt 0.188156 0.203863
vt 0.189877 0.210286
vt 0.164600 0.818128
vt 0.179496 0.818128
vt 0.179512 0.821450
vt 0.164807 0.821450
vt 0.179556 0.824773
vt 0.165371 0.824773
vt 0.188156 0.200256
vt 0.189877 0.193833
vt 0.179496 0.764963
vt 0.164600 0.764963
vt 0.164807 0.761640
vt 0.179512 0.761640
vt 0.165371 0.758317
vt 0.179556 0.758317
vt 0.173363 0.212403
vt 0.178065 0.217105
vt 0.196696 0.818128
vt 0.196680 0.821450
vt 0.196636 0.824773
vt 0.173363 0.191716
vt 0.178065 0.187014
vt 0.196696 0.764963
vt 0.196680 0.761640
vt 0.196636 0.758317
vt 0.164823 0.227196
vt 0.171246 0.228917
vt 0.211592 0.818128
vt 0.211385 0.821450
vt 0.210821 0.824773
vt 0.211592 0.764963
vt 0.211385 0.761640
vt 0.210821 0.758317
s 1
usemtl BB_OxidizedIron
f 2/1/2 10/2/10 12/3/12 4/4/4
f 4/5/4 12/6/12 11/7/11 3/8/3
f 3/8/3 11/7/11 9/9/9 1/10/1
f 118/11/22 110/12/14 112/13/16 120/14/24
f 120/14/24 112/13/16 111/15/15 119/16/23
f 119/17/23 111/18/15 109/19/13 117/20/21
f 202/21/10 209/22/18 211/23/20 204/24/12
f 204/24/12 211/23/20 212/25/19 203/26/11
f 203/27/11 212/28/19 210/29/17 201/30/9
f 14/31/14 6/32/6 8/33/8 16/34/16
f 16/35/16 8/36/8 7/37/7 15/38/15
f 15/38/15 7/37/7 5/39/5 13/40/13
f 134/41/38 126/42/30 128/43/32 136/44/40
f 136/44/40 128/43/32 127/45/31 135/46/39
f 135/47/39 127/48/31 125/49/29 133/50/37
f 10/2/10 18/51/18 20/52/20 12/3/12
f 12/6/12 20/53/20 19/54/19 11/7/11
f 11/7/11 19/54/19 17/55/17 9/9/9
f 106/56/10 113/57/18 115/58/20 108/59/12
f 108/59/12 115/58/20 116/60/19 107/61/11
f 107/62/11 116/63/19 114/64/17 105/65/9
f 22/66/22 14/31/14 16/34/16 24/67/24
f 24/68/24 16/35/16 15/38/15 23/69/23
f 23/69/23 15/38/15 13/40/13 21/70/21
f 18/51/18 26/71/26 28/72/28 20/52/20
f 20/53/20 28/73/28 27/74/27 19/54/19
f 19/54/19 27/74/27 25/75/25 17/55/17
f 230/76/38 222/77/30 224/78/32 232/79/40
f 232/79/40 224/78/32 223/80/31 231/81/39
f 231/82/39 223/83/31 221/84/29 229/85/37
f 30/86/30 22/66/22 24/67/24 32/87/32
f 32/88/32 24/68/24 23/69/23 31/89/31
f 31/89/31 23/69/23 21/70/21 29/90/29
f 122/91/26 130/92/34 132/93/36 124/94/28
f 124/94/28 132/93/36 131/95/35 123/96/27
f 123/97/27 131/98/35 129/99/33 121/100/25
f 26/101/26 34/102/34 36/103/36 28/104/28
f 28/73/28 36/105/36 35/106/35 27/74/27
f 27/74/27 35/106/35 33/107/33 25/75/25
f 38/108/38 30/109/30 32/110/32 40/111/40
f 40/112/40 32/88/32 31/89/31 39/113/39
f 39/113/39 31/89/31 29/90/29 37/114/37
f 218/115/26 226/116/34 228/117/36 220/118/28
f 220/118/28 228/117/36 227/119/35 219/120/27
f 219/121/27 227/122/35 225/123/33 217/124/25
f 34/102/34 42/125/42 44/126/44 36/103/36
f 36/105/36 44/127/44 43/128/43 35/106/35
f 35/106/35 43/128/43 41/129/41 33/107/33
f 46/130/46 38/108/38 40/111/40 48/131/48
f 48/132/48 40/112/40 39/113/39 47/133/47
f 47/133/47 39/113/39 37/114/37 45/134/45
f 42/125/42 50/135/50 52/136/52 44/126/44
f 44/127/44 52/137/52 51/138/51 43/128/43
f 43/128/43 51/138/51 49/139/49 41/129/41
f 110/12/14 102/140/6 104/141/8 112/13/16
f 112/13/16 104/141/8 103/142/7 111/15/15
f 111/18/15 103/143/7 101/144/5 109/19/13
f 54/145/54 46/130/46 48/131/48 56/146/56
f 56/147/56 48/132/48 47/133/47 55/148/55
f 55/148/55 47/133/47 45/134/45 53/149/53
f 126/150/30 118/11/22 120/14/24 128/151/32
f 128/151/32 120/14/24 119/16/23 127/152/31
f 127/48/31 119/17/23 117/20/21 125/49/29
f 50/153/50 58/154/58 60/155/60 52/156/52
f 52/137/52 60/157/60 59/158/59 51/138/51
f 51/138/51 59/158/59 57/159/57 49/139/49
f 62/160/62 54/161/54 56/162/56 64/163/64
f 64/164/64 56/147/56 55/148/55 63/165/63
f 63/165/63 55/148/55 53/149/53 61/166/61
f 58/154/58 66/167/66 68/168/68 60/155/60
f 60/157/60 68/169/68 67/170/67 59/158/59
f 59/158/59 67/170/67 65/171/65 57/159/57
f 214/172/22 206/173/14 208/174/16 216/175/24
f 216/175/24 208/174/16 207/176/15 215/177/23
f 215/178/23 207/179/15 205/180/13 213/181/21
f 70/182/70 62/160/62 64/163/64 72/183/72
f 72/184/72 64/164/64 63/165/63 71/185/71
f 71/185/71 63/165/63 61/166/61 69/186/69
f 113/57/18 122/187/26 124/188/28 115/58/20
f 115/58/20 124/188/28 123/189/27 116/60/19
f 116/63/19 123/97/27 121/100/25 114/64/17
f 66/167/66 74/190/74 76/191/76 68/168/68
f 68/169/68 76/192/76 75/193/75 67/170/67
f 67/170/67 75/193/75 73/194/73 65/171/65
f 98/195/2 106/56/10 108/59/12 100/196/4
f 100/196/4 108/59/12 107/61/11 99/197/3
f 99/198/3 107/62/11 105/65/9 97/199/1
f 78/200/78 70/182/70 72/183/72 80/201/80
f 80/202/80 72/184/72 71/185/71 79/203/79
f 79/203/79 71/185/71 69/186/69 77/204/77
f 74/205/74 82/206/82 84/207/84 76/208/76
f 76/192/76 84/209/84 83/210/83 75/193/75
f 75/193/75 83/210/83 81/211/81 73/194/73
f 86/212/86 78/213/78 80/214/80 88/215/88
f 88/216/88 80/202/80 79/203/79 87/217/87
f 87/217/87 79/203/79 77/204/77 85/218/85
f 82/206/82 90/219/90 92/220/92 84/207/84
f 84/209/84 92/221/92 91/222/91 83/210/83
f 83/210/83 91/222/91 89/223/89 81/211/81
f 94/224/94 86/212/86 88/215/88 96/225/96
f 96/226/96 88/216/88 87/217/87 95/227/95
f 95/227/95 87/217/87 85/218/85 93/228/93
f 90/219/90 2/229/2 4/230/4 92/220/92
f 92/221/92 4/5/4 3/8/3 91/222/91
f 91/222/91 3/8/3 1/10/1 89/223/89
f 6/231/6 94/224/94 96/225/96 8/232/8
f 8/36/8 96/226/96 95/227/95 7/37/7
f 7/37/7 95/227/95 93/228/93 5/39/5
f 130/92/34 138/233/42 140/234/44 132/93/36
f 132/93/36 140/234/44 139/235/43 131/95/35
f 131/98/35 139/236/43 137/237/41 129/99/33
f 142/238/46 134/41/38 136/44/40 144/239/48
f 144/239/48 136/44/40 135/46/39 143/240/47
f 143/241/47 135/47/39 133/50/37 141/242/45
f 138/233/42 146/243/50 148/244/52 140/234/44
f 140/234/44 148/244/52 147/245/51 139/235/43
f 139/236/43 147/246/51 145/247/49 137/237/41
f 206/173/14 198/248/6 200/249/8 208/174/16
f 208/174/16 200/249/8 199/250/7 207/176/15
f 207/179/15 199/251/7 197/252/5 205/180/13
f 150/253/54 142/238/46 144/239/48 152/254/56
f 152/254/56 144/239/48 143/240/47 151/255/55
f 151/256/55 143/241/47 141/242/45 149/257/53
f 222/258/30 214/172/22 216/175/24 224/259/32
f 224/259/32 216/175/24 215/177/23 223/260/31
f 223/83/31 215/178/23 213/181/21 221/84/29
f 146/261/50 154/262/58 156/263/60 148/264/52
f 148/264/52 156/263/60 155/265/59 147/266/51
f 147/246/51 155/267/59 153/268/57 145/247/49
f 158/269/62 150/270/54 152/271/56 160/272/64
f 160/272/64 152/271/56 151/273/55 159/274/63
f 159/275/63 151/256/55 149/257/53 157/276/61
f 154/262/58 162/277/66 164/278/68 156/263/60
f 156/263/60 164/278/68 163/279/67 155/265/59
f 155/267/59 163/280/67 161/281/65 153/268/57
f 166/282/70 158/269/62 160/272/64 168/283/72
f 168/283/72 160/272/64 159/274/63 167/284/71
f 167/285/71 159/275/63 157/276/61 165/286/69
f 209/22/18 218/287/26 220/288/28 211/23/20
f 211/23/20 220/288/28 219/289/27 212/25/19
f 212/28/19 219/121/27 217/124/25 210/29/17
f 162/277/66 170/290/74 172/291/76 164/278/68
f 164/278/68 172/291/76 171/292/75 163/279/67
f 163/280/67 171/293/75 169/294/73 161/281/65
f 194/295/2 202/21/10 204/24/12 196/296/4
f 196/296/4 204/24/12 203/26/11 195/297/3
f 195/298/3 203/27/11 201/30/9 193/299/1
f 174/300/78 166/282/70 168/283/72 176/301/80
f 176/301/80 168/283/72 167/284/71 175/302/79
f 175/303/79 167/285/71 165/286/69 173/304/77
f 170/305/74 178/306/82 180/307/84 172/308/76
f 172/308/76 180/307/84 179/309/83 171/310/75
f 171/293/75 179/311/83 177/312/81 169/294/73
f 182/313/86 174/314/78 176/315/80 184/316/88
f 184/316/88 176/315/80 175/317/79 183/318/87
f 183/319/87 175/303/79 173/304/77 181/320/85
f 178/306/82 186/321/90 188/322/92 180/307/84
f 180/307/84 188/322/92 187/323/91 179/309/83
f 179/311/83 187/324/91 185/325/89 177/312/81
f 190/326/94 182/313/86 184/316/88 192/327/96
f 192/327/96 184/316/88 183/318/87 191/328/95
f 191/329/95 183/319/87 181/320/85 189/330/93
f 186/321/90 98/331/2 100/332/4 188/322/92
f 188/322/92 100/332/4 99/333/3 187/323/91
f 187/324/91 99/198/3 97/199/1 185/325/89
f 102/334/6 190/326/94 192/327/96 104/335/8
f 104/335/8 192/327/96 191/328/95 103/336/7
f 103/143/7 191/329/95 189/330/93 101/144/5
f 226/116/34 234/337/42 236/338/44 228/117/36
f 228/117/36 236/338/44 235/339/43 227/119/35
f 227/122/35 235/340/43 233/341/41 225/123/33
f 238/342/46 230/76/38 232/79/40 240/343/48
f 240/343/48 232/79/40 231/81/39 239/344/47
f 239/345/47 231/82/39 229/85/37 237/346/45
f 234/337/42 242/347/50 244/348/52 236/338/44
f 236/338/44 244/348/52 243/349/51 235/339/43
f 235/340/43 243/350/51 241/351/49 233/341/41
f 246/352/54 238/342/46 240/343/48 248/353/56
f 248/353/56 240/343/48 239/344/47 247/354/55
f 247/355/55 239/345/47 237/346/45 245/356/53
f 242/357/50 250/358/58 252/359/60 244/360/52
f 244/360/52 252/359/60 251/361/59 243/362/51
f 243/350/51 251/363/59 249/364/57 241/351/49
f 254/365/62 246/366/54 248/367/56 256/368/64
f 256/368/64 248/367/56 247/369/55 255/370/63
f 255/371/63 247/355/55 245/356/53 253/372/61
f 250/358/58 258/373/66 260/374/68 252/359/60
f 252/359/60 260/374/68 259/375/67 251/361/59
f 251/363/59 259/376/67 257/377/65 249/364/57
f 262/378/70 254/365/62 256/368/64 264/379/72
f 264/379/72 256/368/64 255/370/63 263/380/71
f 263/381/71 255/371/63 253/372/61 261/382/69
f 258/373/66 266/383/74 268/384/76 260/374/68
f 260/374/68 268/384/76 267/385/75 259/375/67
f 259/376/67 267/386/75 265/387/73 257/377/65
f 270/388/78 262/378/70 264/379/72 272/389/80
f 272/389/80 264/379/72 263/380/71 271/390/79
f 271/391/79 263/381/71 261/382/69 269/392/77
f 266/393/74 274/394/82 276/395/84 268/396/76
f 268/396/76 276/395/84 275/397/83 267/398/75
f 267/386/75 275/399/83 273/400/81 265/387/73
f 278/401/86 270/402/78 272/403/80 280/404/88
f 280/404/88 272/403/80 271/405/79 279/406/87
f 279/407/87 271/391/79 269/392/77 277/408/85
f 274/394/82 282/409/90 284/410/92 276/395/84
f 276/395/84 284/410/92 283/411/91 275/397/83
f 275/399/83 283/412/91 281/413/89 273/400/81
f 286/414/94 278/401/86 280/404/88 288/415/96
f 288/415/96 280/404/88 279/406/87 287/416/95
f 287/417/95 279/407/87 277/408/85 285/418/93
f 282/409/90 194/419/2 196/420/4 284/410/92
f 284/410/92 196/420/4 195/421/3 283/411/91
f 283/412/91 195/298/3 193/299/1 281/413/89
f 198/422/6 286/414/94 288/415/96 200/423/8
f 200/423/8 288/415/96 287/416/95 199/424/7
f 199/251/7 287/417/95 285/418/93 197/252/5
f 1/10/1 9/9/9 17/55/17 25/75/25 33/107/33 41/129/41 49/139/49 57/159/57 65/171/65 73/194/73 81/211/81 89/223/89
f 2/1/2 6/32/6 14/31/14 10/2/10
f 90/219/90 94/224/94 6/231/6 2/229/2
f 13/40/13 5/39/5 93/228/93 85/218/85 77/204/77 69/186/69 61/166/61 53/149/53 45/134/45 37/114/37 29/90/29 21/70/21
f 10/2/10 14/31/14 22/66/22 18/51/18
f 18/51/18 22/66/22 30/86/30 26/71/26
f 26/101/26 30/109/30 38/108/38 34/102/34
f 34/102/34 38/108/38 46/130/46 42/125/42
f 42/125/42 46/130/46 54/145/54 50/135/50
f 50/153/50 54/161/54 62/160/62 58/154/58
f 58/154/58 62/160/62 70/182/70 66/167/66
f 66/167/66 70/182/70 78/200/78 74/190/74
f 74/205/74 78/213/78 86/212/86 82/206/82
f 82/206/82 86/212/86 94/224/94 90/219/90
f 186/321/90 190/326/94 102/334/6 98/331/2
f 98/195/2 102/140/6 110/12/14 106/56/10
f 153/268/57 161/281/65 169/294/73 177/312/81 185/325/89 97/199/1 105/65/9 114/64/17 121/100/25 129/99/33 137/237/41 145/247/49
f 133/50/37 125/49/29 117/20/21 109/19/13 101/144/5 189/330/93 181/320/85 173/304/77 165/286/69 157/276/61 149/257/53 141/242/45
f 106/56/10 110/12/14 118/11/22 113/57/18
f 113/57/18 118/11/22 126/150/30 122/187/26
f 122/91/26 126/42/30 134/41/38 130/92/34
f 130/92/34 134/41/38 142/238/46 138/233/42
f 138/233/42 142/238/46 150/253/54 146/243/50
f 146/261/50 150/270/54 158/269/62 154/262/58
f 154/262/58 158/269/62 166/282/70 162/277/66
f 162/277/66 166/282/70 174/300/78 170/290/74
f 170/305/74 174/314/78 182/313/86 178/306/82
f 178/306/82 182/313/86 190/326/94 186/321/90
f 282/409/90 286/414/94 198/422/6 194/419/2
f 194/295/2 198/248/6 206/173/14 202/21/10
f 201/30/9 210/29/17 217/124/25 225/123/33 233/341/41 241/351/49 249/364/57 257/377/65 265/387/73 273/400/81 281/413/89 193/299/1
f 221/84/29 213/181/21 205/180/13 197/252/5 285/418/93 277/408/85 269/392/77 261/382/69 253/372/61 245/356/53 237/346/45 229/85/37
f 202/21/10 206/173/14 214/172/22 209/22/18
f 209/22/18 214/172/22 222/258/30 218/287/26
f 218/115/26 222/77/30 230/76/38 226/116/34
f 226/116/34 230/76/38 238/342/46 234/337/42
f 234/337/42 238/342/46 246/352/54 242/347/50
f 242/357/50 246/366/54 254/365/62 250/358/58
f 250/358/58 254/365/62 262/378/70 258/373/66
f 258/373/66 262/378/70 270/388/78 266/383/74
f 266/393/74 270/402/78 278/401/86 274/394/82
f 274/394/82 278/401/86 286/414/94 282/409/90
