# Blender 5.0.1
# www.blender.org
mtllib BB_PROP_BreakerBox.mtl
o BB_PROP_BreakerBox
v -0.290000 -0.140000 -0.400000
v -0.278039 -0.154924 -0.391296
v -0.291296 -0.154924 -0.378039
v -0.300000 -0.140000 -0.390000
v -0.286202 -0.145606 -0.398723
v -0.294908 -0.140000 -0.398516
v -0.292621 -0.145881 -0.396781
v -0.282558 -0.156028 -0.387402
v -0.281837 -0.151052 -0.395547
v -0.288475 -0.151262 -0.393058
v -0.295547 -0.151052 -0.381837
v -0.287402 -0.156028 -0.382558
v -0.293058 -0.151262 -0.388475
v -0.298516 -0.140000 -0.394908
v -0.298723 -0.145606 -0.386202
v -0.296781 -0.145881 -0.392621
v -0.291296 -0.154924 0.378039
v -0.278039 -0.154924 0.391296
v -0.290000 -0.140000 0.400000
v -0.300000 -0.140000 0.390000
v -0.287402 -0.156028 0.382558
v -0.295547 -0.151052 0.381837
v -0.293058 -0.151262 0.388475
v -0.281837 -0.151052 0.395547
v -0.282558 -0.156028 0.387402
v -0.288475 -0.151262 0.393058
v -0.294908 -0.140000 0.398516
v -0.286202 -0.145606 0.398723
v -0.292622 -0.145881 0.396780
v -0.298723 -0.145606 0.386202
v -0.298516 -0.140000 0.394908
v -0.296781 -0.145881 0.392622
v -0.290000 0.140000 -0.400000
v -0.300000 0.140000 -0.390000
v -0.290000 0.150000 -0.390000
v -0.294993 0.140000 -0.398664
v -0.290000 0.144993 -0.398664
v -0.294782 0.144782 -0.397366
v -0.298664 0.144993 -0.390000
v -0.298664 0.140000 -0.394993
v -0.297366 0.144782 -0.394782
v -0.290000 0.148664 -0.394993
v -0.294993 0.148664 -0.390000
v -0.294782 0.147366 -0.394782
v -0.290000 0.140000 0.400000
v -0.290000 0.150000 0.390000
v -0.300000 0.140000 0.390000
v -0.290000 0.144993 0.398664
v -0.294993 0.140000 0.398664
v -0.294782 0.144782 0.397366
v -0.294993 0.148664 0.390000
v -0.290000 0.148664 0.394993
v -0.294782 0.147366 0.394782
v -0.298664 0.140000 0.394993
v -0.298664 0.144993 0.390000
v -0.297366 0.144782 0.394782
v 0.290000 -0.140000 -0.400000
v 0.300000 -0.140000 -0.390000
v 0.291296 -0.154924 -0.378039
v 0.278039 -0.154924 -0.391296
v 0.294908 -0.140000 -0.398516
v 0.286202 -0.145606 -0.398723
v 0.292622 -0.145881 -0.396780
v 0.298723 -0.145606 -0.386202
v 0.298516 -0.140000 -0.394908
v 0.296781 -0.145881 -0.392622
v 0.287402 -0.156028 -0.382558
v 0.295547 -0.151052 -0.381837
v 0.293058 -0.151262 -0.388475
v 0.281837 -0.151052 -0.395547
v 0.282558 -0.156028 -0.387402
v 0.288475 -0.151262 -0.393058
v 0.290000 -0.140000 0.400000
v 0.278039 -0.154924 0.391296
v 0.291296 -0.154924 0.378039
v 0.300000 -0.140000 0.390000
v 0.286202 -0.145606 0.398723
v 0.294908 -0.140000 0.398516
v 0.292621 -0.145881 0.396781
v 0.282558 -0.156028 0.387402
v 0.281837 -0.151052 0.395547
v 0.288475 -0.151262 0.393058
v 0.295547 -0.151052 0.381837
v 0.287402 -0.156028 0.382558
v 0.293058 -0.151262 0.388475
v 0.298516 -0.140000 0.394908
v 0.298723 -0.145606 0.386202
v 0.296781 -0.145881 0.392621
v 0.290000 0.140000 -0.400000
v 0.290000 0.150000 -0.390000
v 0.300000 0.140000 -0.390000
v 0.290000 0.144993 -0.398664
v 0.294993 0.140000 -0.398664
v 0.294782 0.144782 -0.397366
v 0.294993 0.148664 -0.390000
v 0.290000 0.148664 -0.394993
v 0.294782 0.147366 -0.394782
v 0.298664 0.140000 -0.394993
v 0.298664 0.144993 -0.390000
v 0.297366 0.144782 -0.394782
v 0.290000 0.140000 0.400000
v 0.300000 0.140000 0.390000
v 0.290000 0.150000 0.390000
v 0.294993 0.140000 0.398664
v 0.290000 0.144993 0.398664
v 0.294782 0.144782 0.397366
v 0.298664 0.144993 0.390000
v 0.298664 0.140000 0.394993
v 0.297366 0.144782 0.394782
v 0.290000 0.148664 0.394993
v 0.294993 0.148664 0.390000
v 0.294782 0.147366 0.394782
v 0.251387 -0.170000 -0.364645
v 0.264645 -0.170000 -0.351387
v 0.258016 -0.170000 -0.362869
v 0.262869 -0.170000 -0.358016
v 0.264645 -0.170000 0.351387
v 0.251387 -0.170000 0.364645
v 0.262869 -0.170000 0.358016
v 0.258016 -0.170000 0.362869
v -0.251387 -0.170000 0.364645
v -0.264645 -0.170000 0.351387
v -0.258016 -0.170000 0.362869
v -0.262869 -0.170000 0.358016
v -0.264645 -0.170000 -0.351387
v -0.251387 -0.170000 -0.364645
v -0.262869 -0.170000 -0.358016
v -0.258016 -0.170000 -0.362869
v 0.060000 -0.030000 0.120000
v 0.060000 -0.040000 0.130000
v 0.050000 -0.030000 0.130000
v 0.060000 -0.034993 0.121336
v 0.055007 -0.030000 0.121336
v 0.055218 -0.034782 0.122634
v 0.055007 -0.038664 0.130000
v 0.060000 -0.038664 0.125007
v 0.055218 -0.037366 0.125218
v 0.051336 -0.030000 0.125007
v 0.051336 -0.034993 0.130000
v 0.052634 -0.034782 0.125218
v 0.060000 -0.040000 0.190000
v 0.060000 -0.030000 0.200000
v 0.050000 -0.030000 0.190000
v 0.060000 -0.038664 0.194993
v 0.055007 -0.038664 0.190000
v 0.055218 -0.037366 0.194782
v 0.055007 -0.030000 0.198664
v 0.060000 -0.034993 0.198664
v 0.055218 -0.034782 0.197366
v 0.051336 -0.034993 0.190000
v 0.051336 -0.030000 0.194993
v 0.052634 -0.034782 0.194782
v 0.060000 -0.030000 0.120000
v 0.050000 -0.030000 0.130000
v 0.060000 -0.020000 0.130000
v 0.055007 -0.030000 0.121336
v 0.060000 -0.025007 0.121336
v 0.055218 -0.025218 0.122634
v 0.051336 -0.025007 0.130000
v 0.051336 -0.030000 0.125007
v 0.052634 -0.025218 0.125218
v 0.060000 -0.021336 0.125007
v 0.055007 -0.021336 0.130000
v 0.055218 -0.022634 0.125218
v 0.060000 -0.030000 0.200000
v 0.060000 -0.020000 0.190000
v 0.050000 -0.030000 0.190000
v 0.060000 -0.025007 0.198664
v 0.055007 -0.030000 0.198664
v 0.055218 -0.025218 0.197366
v 0.055007 -0.021336 0.190000
v 0.060000 -0.021336 0.194993
v 0.055218 -0.022634 0.194782
v 0.051336 -0.030000 0.194993
v 0.051336 -0.025007 0.190000
v 0.052634 -0.025218 0.194782
v 0.060000 -0.030000 0.120000
v 0.070000 -0.030000 0.130000
v 0.060000 -0.040000 0.130000
v 0.064993 -0.030000 0.121336
v 0.060000 -0.034993 0.121336
v 0.064782 -0.034782 0.122634
v 0.068664 -0.034993 0.130000
v 0.068664 -0.030000 0.125007
v 0.067366 -0.034782 0.125218
v 0.060000 -0.038664 0.125007
v 0.064993 -0.038664 0.130000
v 0.064782 -0.037366 0.125218
v 0.060000 -0.030000 0.200000
v 0.060000 -0.040000 0.190000
v 0.070000 -0.030000 0.190000
v 0.060000 -0.034993 0.198664
v 0.064993 -0.030000 0.198664
v 0.064782 -0.034782 0.197366
v 0.064993 -0.038664 0.190000
v 0.060000 -0.038664 0.194993
v 0.064782 -0.037366 0.194782
v 0.068664 -0.030000 0.194993
v 0.068664 -0.034993 0.190000
v 0.067366 -0.034782 0.194782
v 0.060000 -0.030000 0.120000
v 0.060000 -0.020000 0.130000
v 0.070000 -0.030000 0.130000
v 0.060000 -0.025007 0.121336
v 0.064993 -0.030000 0.121336
v 0.064782 -0.025218 0.122634
v 0.064993 -0.021336 0.130000
v 0.060000 -0.021336 0.125007
v 0.064782 -0.022634 0.125218
v 0.068664 -0.030000 0.125007
v 0.068664 -0.025007 0.130000
v 0.067366 -0.025218 0.125218
v 0.060000 -0.030000 0.200000
v 0.070000 -0.030000 0.190000
v 0.060000 -0.020000 0.190000
v 0.064993 -0.030000 0.198664
v 0.060000 -0.025007 0.198664
v 0.064782 -0.025218 0.197366
v 0.068664 -0.025007 0.190000
v 0.068664 -0.030000 0.194993
v 0.067366 -0.025218 0.194782
v 0.060000 -0.021336 0.194993
v 0.064993 -0.021336 0.190000
v 0.064782 -0.022634 0.194782
v 0.060000 -0.030000 -0.200000
v 0.060000 -0.040000 -0.190000
v 0.050000 -0.030000 -0.190000
v 0.060000 -0.034993 -0.198664
v 0.055007 -0.030000 -0.198664
v 0.055218 -0.034782 -0.197366
v 0.055007 -0.038664 -0.190000
v 0.060000 -0.038664 -0.194993
v 0.055218 -0.037366 -0.194782
v 0.051336 -0.030000 -0.194993
v 0.051336 -0.034993 -0.190000
v 0.052634 -0.034782 -0.194782
v 0.060000 -0.040000 -0.130000
v 0.060000 -0.030000 -0.120000
v 0.050000 -0.030000 -0.130000
v 0.060000 -0.038664 -0.125007
v 0.055007 -0.038664 -0.130000
v 0.055218 -0.037366 -0.125218
v 0.055007 -0.030000 -0.121336
v 0.060000 -0.034993 -0.121336
v 0.055218 -0.034782 -0.122634
v 0.051336 -0.034993 -0.130000
v 0.051336 -0.030000 -0.125007
v 0.052634 -0.034782 -0.125218
v 0.060000 -0.030000 -0.200000
v 0.050000 -0.030000 -0.190000
v 0.060000 -0.020000 -0.190000
v 0.055007 -0.030000 -0.198664
v 0.060000 -0.025007 -0.198664
v 0.055218 -0.025218 -0.197366
v 0.051336 -0.025007 -0.190000
v 0.051336 -0.030000 -0.194993
v 0.052634 -0.025218 -0.194782
v 0.060000 -0.021336 -0.194993
v 0.055007 -0.021336 -0.190000
v 0.055218 -0.022634 -0.194782
v 0.060000 -0.030000 -0.120000
v 0.060000 -0.020000 -0.130000
v 0.050000 -0.030000 -0.130000
v 0.060000 -0.025007 -0.121336
v 0.055007 -0.030000 -0.121336
v 0.055218 -0.025218 -0.122634
v 0.055007 -0.021336 -0.130000
v 0.060000 -0.021336 -0.125007
v 0.055218 -0.022634 -0.125218
v 0.051336 -0.030000 -0.125007
v 0.051336 -0.025007 -0.130000
v 0.052634 -0.025218 -0.125218
v 0.060000 -0.030000 -0.200000
v 0.070000 -0.030000 -0.190000
v 0.060000 -0.040000 -0.190000
v 0.064993 -0.030000 -0.198664
v 0.060000 -0.034993 -0.198664
v 0.064782 -0.034782 -0.197366
v 0.068664 -0.034993 -0.190000
v 0.068664 -0.030000 -0.194993
v 0.067366 -0.034782 -0.194782
v 0.060000 -0.038664 -0.194993
v 0.064993 -0.038664 -0.190000
v 0.064782 -0.037366 -0.194782
v 0.060000 -0.030000 -0.120000
v 0.060000 -0.040000 -0.130000
v 0.070000 -0.030000 -0.130000
v 0.060000 -0.034993 -0.121336
v 0.064993 -0.030000 -0.121336
v 0.064782 -0.034782 -0.122634
v 0.064993 -0.038664 -0.130000
v 0.060000 -0.038664 -0.125007
v 0.064782 -0.037366 -0.125218
v 0.068664 -0.030000 -0.125007
v 0.068664 -0.034993 -0.130000
v 0.067366 -0.034782 -0.125218
v 0.060000 -0.030000 -0.200000
v 0.060000 -0.020000 -0.190000
v 0.070000 -0.030000 -0.190000
v 0.060000 -0.025007 -0.198664
v 0.064993 -0.030000 -0.198664
v 0.064782 -0.025218 -0.197366
v 0.064993 -0.021336 -0.190000
v 0.060000 -0.021336 -0.194993
v 0.064782 -0.022634 -0.194782
v 0.068664 -0.030000 -0.194993
v 0.068664 -0.025007 -0.190000
v 0.067366 -0.025218 -0.194782
v 0.060000 -0.030000 -0.120000
v 0.070000 -0.030000 -0.130000
v 0.060000 -0.020000 -0.130000
v 0.064993 -0.030000 -0.121336
v 0.060000 -0.025007 -0.121336
v 0.064782 -0.025218 -0.122634
v 0.068664 -0.025007 -0.130000
v 0.068664 -0.030000 -0.125007
v 0.067366 -0.025218 -0.125218
v 0.060000 -0.021336 -0.125007
v 0.064993 -0.021336 -0.130000
v 0.064782 -0.022634 -0.125218
vn -0.1602 -0.1633 -0.9735
vn -0.0835 -0.8332 -0.5467
vn -0.5467 -0.8332 -0.0835
vn -0.9735 -0.1633 -0.1602
vn -0.1216 -0.4390 -0.8902
vn -0.5063 -0.2078 -0.8369
vn -0.4222 -0.5528 -0.7184
vn -0.2359 -0.8902 -0.3897
vn -0.1062 -0.6814 -0.7242
vn -0.3266 -0.7703 -0.5477
vn -0.7242 -0.6814 -0.1062
vn -0.3897 -0.8902 -0.2359
vn -0.5477 -0.7703 -0.3266
vn -0.8369 -0.2078 -0.5063
vn -0.8902 -0.4390 -0.1216
vn -0.7184 -0.5528 -0.4222
vn -0.5467 -0.8332 0.0835
vn -0.0835 -0.8332 0.5467
vn -0.1602 -0.1633 0.9735
vn -0.9735 -0.1633 0.1602
vn -0.3897 -0.8902 0.2359
vn -0.7242 -0.6814 0.1062
vn -0.5477 -0.7703 0.3266
vn -0.1062 -0.6814 0.7242
vn -0.2359 -0.8902 0.3897
vn -0.3266 -0.7703 0.5477
vn -0.5063 -0.2078 0.8369
vn -0.1216 -0.4390 0.8902
vn -0.4222 -0.5528 0.7184
vn -0.8902 -0.4390 0.1216
vn -0.8369 -0.2078 0.5063
vn -0.7184 -0.5528 0.4222
vn -0.1336 0.1296 -0.9825
vn -0.9825 0.1296 -0.1336
vn -0.1296 0.9831 -0.1296
vn -0.4951 0.1212 -0.8603
vn -0.1216 0.4915 -0.8623
vn -0.4473 0.4473 -0.7744
vn -0.8623 0.4915 -0.1216
vn -0.8603 0.1212 -0.4951
vn -0.7744 0.4473 -0.4473
vn -0.1216 0.8623 -0.4915
vn -0.4915 0.8623 -0.1216
vn -0.4473 0.7744 -0.4473
vn -0.1336 0.1296 0.9825
vn -0.1296 0.9831 0.1296
vn -0.9825 0.1296 0.1336
vn -0.1216 0.4915 0.8623
vn -0.4951 0.1212 0.8603
vn -0.4473 0.4473 0.7744
vn -0.4915 0.8623 0.1216
vn -0.1216 0.8623 0.4915
vn -0.4473 0.7744 0.4473
vn -0.8603 0.1212 0.4951
vn -0.8623 0.4915 0.1216
vn -0.7744 0.4473 0.4473
vn 0.1602 -0.1633 -0.9735
vn 0.9735 -0.1633 -0.1602
vn 0.5467 -0.8332 -0.0835
vn 0.0835 -0.8332 -0.5467
vn 0.5063 -0.2078 -0.8369
vn 0.1216 -0.4390 -0.8902
vn 0.4222 -0.5528 -0.7184
vn 0.8902 -0.4390 -0.1216
vn 0.8369 -0.2078 -0.5063
vn 0.7184 -0.5528 -0.4222
vn 0.3897 -0.8902 -0.2359
vn 0.7242 -0.6814 -0.1062
vn 0.5477 -0.7703 -0.3266
vn 0.1062 -0.6814 -0.7242
vn 0.2359 -0.8902 -0.3897
vn 0.3266 -0.7703 -0.5477
vn 0.1602 -0.1633 0.9735
vn 0.0835 -0.8332 0.5467
vn 0.5467 -0.8332 0.0835
vn 0.9735 -0.1633 0.1602
vn 0.1216 -0.4390 0.8902
vn 0.5063 -0.2078 0.8369
vn 0.4222 -0.5528 0.7184
vn 0.2359 -0.8902 0.3897
vn 0.1062 -0.6814 0.7242
vn 0.3266 -0.7703 0.5477
vn 0.7242 -0.6814 0.1062
vn 0.3897 -0.8902 0.2359
vn 0.5477 -0.7703 0.3266
vn 0.8369 -0.2078 0.5063
vn 0.8902 -0.4390 0.1216
vn 0.7184 -0.5528 0.4222
vn 0.1336 0.1296 -0.9825
vn 0.1296 0.9831 -0.1296
vn 0.9825 0.1296 -0.1336
vn 0.1216 0.4915 -0.8623
vn 0.4951 0.1212 -0.8603
vn 0.4473 0.4473 -0.7744
vn 0.4915 0.8623 -0.1216
vn 0.1216 0.8623 -0.4915
vn 0.4473 0.7744 -0.4473
vn 0.8603 0.1212 -0.4951
vn 0.8623 0.4915 -0.1216
vn 0.7744 0.4473 -0.4473
vn 0.1336 0.1296 0.9825
vn 0.9825 0.1296 0.1336
vn 0.1296 0.9831 0.1296
vn 0.4951 0.1212 0.8603
vn 0.1216 0.4915 0.8623
vn 0.4473 0.4473 0.7744
vn 0.8623 0.4915 0.1216
vn 0.8603 0.1212 0.4951
vn 0.7744 0.4473 0.4473
vn 0.1216 0.8623 0.4915
vn 0.4915 0.8623 0.1216
vn 0.4473 0.7744 0.4473
vn 0.0205 -0.9660 -0.2577
vn 0.2577 -0.9660 -0.0205
vn 0.1064 -0.9734 -0.2030
vn 0.2030 -0.9734 -0.1064
vn 0.2577 -0.9660 0.0205
vn 0.0205 -0.9660 0.2577
vn 0.2030 -0.9734 0.1064
vn 0.1064 -0.9734 0.2030
vn -0.0205 -0.9660 0.2577
vn -0.2577 -0.9660 0.0205
vn -0.1064 -0.9734 0.2030
vn -0.2030 -0.9734 0.1064
vn -0.2577 -0.9660 -0.0205
vn -0.0205 -0.9660 -0.2577
vn -0.2030 -0.9734 -0.1064
vn -0.1064 -0.9734 -0.2030
vn -0.1268 -0.1123 -0.9856
vn -0.1299 -0.9806 -0.1467
vn -0.9789 -0.1302 -0.1576
vn -0.1225 -0.4832 -0.8669
vn -0.4823 -0.1214 -0.8676
vn -0.4473 -0.4473 -0.7744
vn -0.4915 -0.8623 -0.1216
vn -0.1208 -0.8576 -0.4999
vn -0.4473 -0.7744 -0.4473
vn -0.8436 -0.1211 -0.5232
vn -0.8623 -0.4915 -0.1216
vn -0.7744 -0.4473 -0.4473
vn -0.1293 -0.9859 0.1062
vn -0.1268 -0.1123 0.9856
vn -0.9789 -0.1302 0.1576
vn -0.1221 -0.8774 0.4639
vn -0.4915 -0.8623 0.1216
vn -0.4473 -0.7744 0.4473
vn -0.4823 -0.1214 0.8676
vn -0.1225 -0.4832 0.8669
vn -0.4473 -0.4473 0.7744
vn -0.8623 -0.4915 0.1216
vn -0.8436 -0.1211 0.5232
vn -0.7744 -0.4473 0.4473
vn -0.1268 0.1123 -0.9856
vn -0.9789 0.1302 -0.1576
vn -0.1299 0.9806 -0.1467
vn -0.4823 0.1214 -0.8676
vn -0.1225 0.4832 -0.8669
vn -0.8436 0.1211 -0.5232
vn -0.1208 0.8576 -0.4999
vn -0.1268 0.1123 0.9856
vn -0.1293 0.9859 0.1062
vn -0.9789 0.1302 0.1576
vn -0.1225 0.4832 0.8669
vn -0.4823 0.1214 0.8676
vn -0.1221 0.8774 0.4639
vn -0.8436 0.1211 0.5232
vn -0.7744 0.4473 0.4474
vn 0.0954 -0.1120 -0.9891
vn 0.9789 -0.1302 -0.1576
vn 0.1299 -0.9806 -0.1467
vn 0.4545 -0.1226 -0.8823
vn 0.1225 -0.4832 -0.8669
vn 0.4473 -0.4473 -0.7744
vn 0.8623 -0.4915 -0.1216
vn 0.8436 -0.1211 -0.5232
vn 0.7744 -0.4473 -0.4473
vn 0.1208 -0.8576 -0.4999
vn 0.4915 -0.8623 -0.1216
vn 0.4473 -0.7744 -0.4473
vn 0.0954 -0.1120 0.9891
vn 0.1293 -0.9859 0.1062
vn 0.9789 -0.1302 0.1576
vn 0.1225 -0.4832 0.8669
vn 0.4545 -0.1226 0.8823
vn 0.4473 -0.4473 0.7744
vn 0.4915 -0.8623 0.1216
vn 0.1221 -0.8774 0.4639
vn 0.4473 -0.7744 0.4473
vn 0.8436 -0.1211 0.5232
vn 0.8623 -0.4915 0.1216
vn 0.7744 -0.4473 0.4473
vn 0.0954 0.1120 -0.9891
vn 0.1299 0.9806 -0.1467
vn 0.9789 0.1302 -0.1576
vn 0.1225 0.4832 -0.8669
vn 0.4545 0.1226 -0.8823
vn 0.1208 0.8576 -0.4999
vn 0.8436 0.1211 -0.5232
vn 0.0954 0.1120 0.9891
vn 0.9789 0.1302 0.1576
vn 0.1293 0.9859 0.1062
vn 0.4545 0.1226 0.8823
vn 0.1225 0.4832 0.8669
vn 0.8436 0.1211 0.5232
vn 0.1221 0.8774 0.4639
vn -0.1293 -0.9859 -0.1062
vn -0.1221 -0.8774 -0.4639
vn -0.1299 -0.9806 0.1467
vn -0.1208 -0.8576 0.4999
vn -0.1293 0.9859 -0.1062
vn -0.7744 0.4473 -0.4474
vn -0.1221 0.8774 -0.4639
vn -0.1299 0.9806 0.1467
vn -0.1208 0.8576 0.4999
vn 0.1293 -0.9859 -0.1062
vn 0.1221 -0.8774 -0.4639
vn 0.1299 -0.9806 0.1467
vn 0.1208 -0.8576 0.4999
vn 0.1293 0.9859 -0.1062
vn 0.1221 0.8774 -0.4639
vn 0.1299 0.9806 0.1467
vn 0.1208 0.8576 0.4999
vt 0.389029 0.508433
vt 0.385557 0.510785
vt 0.385386 0.506809
vt 0.389029 0.505392
vt 0.382835 0.513489
vt 0.382835 0.509377
vt 0.736397 0.492370
vt 0.739196 0.490250
vt 0.742861 0.497761
vt 0.738750 0.497761
vt 0.742488 0.486958
vt 0.746407 0.490623
vt 0.744609 0.484159
vt 0.747631 0.486511
vt 0.750000 0.489215
vt 0.751093 0.497761
vt 0.008433 0.991568
vt 0.008433 0.997761
vt 0.004790 0.997761
vt 0.002239 0.989215
vt 0.389029 0.502239
vt 0.385386 0.502239
vt 0.382053 0.506539
vt 0.744609 0.015841
vt 0.742488 0.013042
vt 0.746407 0.009377
vt 0.747631 0.013489
vt 0.739196 0.009750
vt 0.742861 0.002239
vt 0.736397 0.007630
vt 0.738750 0.002239
vt 0.754477 0.362630
vt 0.757199 0.365334
vt 0.757029 0.369310
vt 0.754477 0.366742
vt 0.760671 0.367687
vt 0.760671 0.370727
vt 0.760671 0.373881
vt 0.757029 0.373881
vt 0.008433 0.508433
vt 0.002239 0.510785
vt 0.004790 0.502238
vt 0.008433 0.502238
vt 0.750000 0.010785
vt 0.751093 0.002239
vt 0.753696 0.369581
vt 0.562462 0.508433
vt 0.562462 0.505340
vt 0.565424 0.505471
vt 0.565555 0.508433
vt 0.562462 0.502239
vt 0.565424 0.502239
vt 0.181866 0.991568
vt 0.188060 0.991567
vt 0.184828 0.997761
vt 0.181866 0.997761
vt 0.002239 0.491567
vt 0.005340 0.491567
vt 0.005470 0.497761
vt 0.002239 0.497761
vt 0.008433 0.491567
vt 0.008432 0.497761
vt 0.568656 0.508433
vt 0.568656 0.505471
vt 0.934104 0.367687
vt 0.937197 0.367687
vt 0.937066 0.370649
vt 0.934104 0.370780
vt 0.940298 0.367687
vt 0.940298 0.370649
vt 0.008433 0.008433
vt 0.005340 0.008433
vt 0.005470 0.002239
vt 0.008433 0.002239
vt 0.002239 0.008433
vt 0.002239 0.002239
vt 0.181866 0.508432
vt 0.181866 0.502238
vt 0.184828 0.502238
vt 0.188060 0.508432
vt 0.934104 0.373881
vt 0.937066 0.373881
vt 0.389029 0.867687
vt 0.389029 0.870727
vt 0.385386 0.869310
vt 0.385556 0.865334
vt 0.389029 0.873881
vt 0.385386 0.873881
vt 0.372164 0.991568
vt 0.375636 0.989215
vt 0.375806 0.997761
vt 0.372164 0.997761
vt 0.378358 0.986511
vt 0.379139 0.990623
vt 0.383749 0.484159
vt 0.385869 0.486958
vt 0.381950 0.490623
vt 0.378358 0.486511
vt 0.389162 0.490250
vt 0.385496 0.497761
vt 0.391961 0.492370
vt 0.389608 0.497761
vt 0.382835 0.862630
vt 0.382835 0.866742
vt 0.382053 0.869581
vt 0.760671 0.008433
vt 0.757199 0.010785
vt 0.757029 0.006809
vt 0.760671 0.005392
vt 0.754477 0.013489
vt 0.754477 0.009377
vt 0.391961 0.007630
vt 0.389162 0.009750
vt 0.385496 0.002239
vt 0.389608 0.002239
vt 0.385870 0.013042
vt 0.381950 0.009377
vt 0.383749 0.015841
vt 0.378358 0.013489
vt 0.378358 0.513489
vt 0.375636 0.510785
vt 0.375806 0.502238
vt 0.379139 0.509377
vt 0.372164 0.508432
vt 0.372164 0.502238
vt 0.760671 0.002239
vt 0.757029 0.002239
vt 0.753696 0.006539
vt 0.562462 0.867687
vt 0.565555 0.867687
vt 0.565424 0.870649
vt 0.562462 0.870780
vt 0.568656 0.867687
vt 0.568656 0.870649
vt 0.367687 0.491567
vt 0.373881 0.491567
vt 0.370649 0.497761
vt 0.367687 0.497761
vt 0.192537 0.991567
vt 0.195638 0.991567
vt 0.195769 0.997761
vt 0.192537 0.997761
vt 0.198731 0.991568
vt 0.198731 0.997761
vt 0.562462 0.873881
vt 0.565424 0.873881
vt 0.934104 0.008433
vt 0.934104 0.005340
vt 0.937066 0.005471
vt 0.937197 0.008433
vt 0.934104 0.002239
vt 0.937066 0.002239
vt 0.198731 0.508433
vt 0.195638 0.508432
vt 0.195769 0.502238
vt 0.198731 0.502238
vt 0.192537 0.508432
vt 0.192537 0.502238
vt 0.367687 0.008433
vt 0.367687 0.002239
vt 0.370649 0.002239
vt 0.373881 0.008433
vt 0.940298 0.008433
vt 0.940298 0.005471
vt 0.760671 0.816786
vt 0.754477 0.816786
vt 0.754477 0.813824
vt 0.760671 0.810592
vt 0.760671 0.535969
vt 0.760671 0.532868
vt 0.763633 0.532737
vt 0.763633 0.535969
vt 0.760671 0.529775
vt 0.766865 0.529775
vt 0.754477 0.637833
vt 0.757578 0.637833
vt 0.757709 0.640795
vt 0.756108 0.640795
vt 0.760671 0.637833
vt 0.760671 0.640926
vt 0.760671 0.644027
vt 0.754477 0.644027
vt 0.765234 0.532737
vt 0.760671 0.492610
vt 0.760671 0.489518
vt 0.763633 0.489648
vt 0.766865 0.492610
vt 0.760671 0.486416
vt 0.763633 0.486416
vt 0.760671 0.850517
vt 0.760671 0.856711
vt 0.754477 0.853479
vt 0.754477 0.850516
vt 0.760671 0.594475
vt 0.760671 0.597576
vt 0.757709 0.597707
vt 0.754477 0.594475
vt 0.760671 0.600669
vt 0.757578 0.600669
vt 0.754477 0.600669
vt 0.756108 0.597707
vt 0.765234 0.489648
vt 0.760671 0.816786
vt 0.763633 0.810592
vt 0.766865 0.816786
vt 0.760671 0.644027
vt 0.760671 0.640926
vt 0.763633 0.640795
vt 0.763633 0.644027
vt 0.763764 0.637833
vt 0.766865 0.637833
vt 0.766865 0.640795
vt 0.760671 0.421716
vt 0.760671 0.424809
vt 0.754477 0.424678
vt 0.754477 0.421716
vt 0.760671 0.427910
vt 0.754477 0.427910
vt 0.760671 0.850516
vt 0.766865 0.850516
vt 0.766865 0.853479
vt 0.760671 0.378358
vt 0.760671 0.381459
vt 0.757709 0.381590
vt 0.757709 0.378358
vt 0.760671 0.384552
vt 0.754477 0.384552
vt 0.766865 0.600669
vt 0.763764 0.600669
vt 0.763633 0.597707
vt 0.765234 0.597707
vt 0.760671 0.594475
vt 0.766865 0.594475
vt 0.756108 0.381590
vt 0.760671 0.816786
vt 0.760671 0.822980
vt 0.757709 0.822980
vt 0.760671 0.698056
vt 0.760671 0.694955
vt 0.763633 0.694825
vt 0.763633 0.698057
vt 0.760671 0.691862
vt 0.763764 0.691862
vt 0.766865 0.691862
vt 0.766865 0.694825
vt 0.760671 0.529775
vt 0.754477 0.532737
vt 0.754477 0.529775
vt 0.754477 0.535969
vt 0.760671 0.850517
vt 0.754477 0.850516
vt 0.754477 0.847554
vt 0.760671 0.844322
vt 0.757709 0.489648
vt 0.757709 0.486416
vt 0.760671 0.492610
vt 0.754477 0.492610
vt 0.766865 0.654698
vt 0.763764 0.654698
vt 0.763633 0.651736
vt 0.765234 0.651736
vt 0.760671 0.654698
vt 0.760671 0.651605
vt 0.760671 0.648504
vt 0.766865 0.648504
vt 0.756108 0.489648
vt 0.760671 0.816786
vt 0.766865 0.819748
vt 0.760671 0.822980
vt 0.763633 0.424678
vt 0.763633 0.427910
vt 0.763764 0.421716
vt 0.766865 0.421716
vt 0.766865 0.424678
vt 0.754477 0.694825
vt 0.754477 0.691863
vt 0.760671 0.698057
vt 0.754477 0.698057
vt 0.760671 0.850516
vt 0.763633 0.844322
vt 0.766865 0.850516
vt 0.760671 0.648504
vt 0.757709 0.651736
vt 0.757709 0.648504
vt 0.760671 0.654698
vt 0.754477 0.654698
vt 0.766865 0.384552
vt 0.763764 0.384552
vt 0.763633 0.381590
vt 0.765234 0.381590
vt 0.766865 0.378358
vt 0.756108 0.651736
vt 0.760671 0.833651
vt 0.754477 0.833651
vt 0.754477 0.830689
vt 0.760671 0.827457
vt 0.760671 0.589998
vt 0.760671 0.586897
vt 0.763633 0.586766
vt 0.763633 0.589998
vt 0.760671 0.583804
vt 0.766865 0.583804
vt 0.754477 0.745892
vt 0.757578 0.745892
vt 0.757709 0.748854
vt 0.756108 0.748854
vt 0.760671 0.745892
vt 0.760671 0.748985
vt 0.760671 0.752086
vt 0.754477 0.752086
vt 0.765234 0.586766
vt 0.760671 0.546640
vt 0.760671 0.543547
vt 0.763633 0.543678
vt 0.766865 0.546640
vt 0.760671 0.540446
vt 0.763633 0.540446
vt 0.760671 0.867382
vt 0.760671 0.873576
vt 0.754477 0.870344
vt 0.754477 0.867382
vt 0.760671 0.702534
vt 0.760671 0.705635
vt 0.757709 0.705766
vt 0.754477 0.702534
vt 0.760671 0.708728
vt 0.757578 0.708728
vt 0.754477 0.708728
vt 0.756108 0.705766
vt 0.765234 0.543678
vt 0.760671 0.833651
vt 0.760671 0.827457
vt 0.763633 0.827457
vt 0.766865 0.833651
vt 0.760671 0.752086
vt 0.763633 0.748854
vt 0.763633 0.752086
vt 0.763764 0.745892
vt 0.766865 0.745892
vt 0.766865 0.748854
vt 0.760671 0.475745
vt 0.760671 0.478838
vt 0.754477 0.478707
vt 0.754477 0.475745
vt 0.760671 0.481939
vt 0.754477 0.481939
vt 0.760671 0.867382
vt 0.766865 0.867382
vt 0.766865 0.870344
vt 0.760671 0.873576
vt 0.760671 0.432387
vt 0.760671 0.435488
vt 0.757709 0.435619
vt 0.757709 0.432387
vt 0.760671 0.438581
vt 0.754477 0.438581
vt 0.766865 0.708728
vt 0.763764 0.708728
vt 0.763633 0.705766
vt 0.765234 0.705766
vt 0.766865 0.702534
vt 0.756108 0.435619
vt 0.760671 0.833651
vt 0.760671 0.839845
vt 0.757709 0.839845
vt 0.760671 0.806115
vt 0.760671 0.803014
vt 0.763633 0.802883
vt 0.763633 0.806115
vt 0.760671 0.799921
vt 0.763764 0.799921
vt 0.766865 0.799921
vt 0.766865 0.802883
vt 0.760671 0.586897
vt 0.754477 0.586766
vt 0.754477 0.583804
vt 0.754477 0.589998
vt 0.754477 0.864419
vt 0.760671 0.861187
vt 0.757709 0.543678
vt 0.757709 0.540446
vt 0.760671 0.546640
vt 0.754477 0.546640
vt 0.766865 0.762757
vt 0.763764 0.762757
vt 0.763633 0.759795
vt 0.765234 0.759795
vt 0.760671 0.762757
vt 0.760671 0.759664
vt 0.760671 0.756563
vt 0.766865 0.756563
vt 0.756108 0.543678
vt 0.766865 0.836613
vt 0.760671 0.478838
vt 0.763633 0.478707
vt 0.763633 0.481939
vt 0.760671 0.475745
vt 0.763764 0.475745
vt 0.766865 0.475745
vt 0.766865 0.478707
vt 0.754477 0.802883
vt 0.754477 0.799921
vt 0.760671 0.806115
vt 0.754477 0.806115
vt 0.760671 0.867382
vt 0.760671 0.861188
vt 0.763633 0.861188
vt 0.760671 0.756563
vt 0.757709 0.759795
vt 0.757709 0.756563
vt 0.760671 0.762757
vt 0.754477 0.762757
vt 0.766865 0.438581
vt 0.763764 0.438581
vt 0.763633 0.435619
vt 0.765234 0.435619
vt 0.760671 0.438581
vt 0.760671 0.435488
vt 0.766865 0.432387
vt 0.756108 0.759795
vt 0.408469 0.475862
vt 0.404363 0.474940
vt 0.401179 0.471756
vt 0.400257 0.467651
vt 0.408469 0.024138
vt 0.404363 0.025060
vt 0.401179 0.028244
vt 0.400257 0.032349
vt 0.728101 0.032349
vt 0.727178 0.028244
vt 0.723995 0.025060
vt 0.719889 0.024138
vt 0.719889 0.475862
vt 0.723995 0.474940
vt 0.727179 0.471756
vt 0.728101 0.467651
s 1
usemtl BB_PaintedIron
f 1/1/1 5/2/5 7/3/7 6/4/6
f 5/2/5 9/5/9 10/6/10 7/3/7
f 2/7/2 8/8/8 10/9/10 9/10/9
f 8/8/8 12/11/12 13/12/13 10/9/10
f 3/13/3 11/14/11 13/12/13 12/11/12
f 11/14/11 15/15/15 16/16/16 13/12/13
f 4/17/4 14/18/14 16/19/16 15/20/15
f 14/21/14 6/4/6 7/3/7 16/22/16
f 7/3/7 10/6/10 13/23/13 16/22/16
f 17/24/17 21/25/21 23/26/23 22/27/22
f 21/25/21 25/28/25 26/29/26 23/26/23
f 18/30/18 24/31/24 26/29/26 25/28/25
f 24/32/24 28/33/28 29/34/29 26/35/26
f 19/36/19 27/37/27 29/34/29 28/33/28
f 27/37/27 31/38/31 32/39/32 29/34/29
f 20/40/20 30/41/30 32/42/32 31/43/31
f 30/44/30 22/27/22 23/26/23 32/45/32
f 23/46/23 26/35/26 29/34/29 32/39/32
f 33/47/33 36/48/36 38/49/38 37/50/37
f 36/48/36 40/51/40 41/52/41 38/49/38
f 34/53/34 39/54/39 41/55/41 40/56/40
f 39/57/39 43/58/43 44/59/44 41/60/41
f 35/61/35 42/62/42 44/59/44 43/58/43
f 42/63/42 37/50/37 38/49/38 44/64/44
f 38/49/38 41/52/41 44/64/44
f 45/65/45 48/66/48 50/67/50 49/68/49
f 48/66/48 52/69/52 53/70/53 50/67/50
f 46/71/46 51/72/51 53/73/53 52/74/52
f 51/72/51 55/75/55 56/76/56 53/73/53
f 47/77/47 54/78/54 56/79/56 55/80/55
f 54/81/54 49/68/49 50/67/50 56/82/56
f 50/67/50 53/70/53 56/82/56
f 57/83/57 61/84/61 63/85/63 62/86/62
f 61/84/61 65/87/65 66/88/66 63/85/63
f 58/89/58 64/90/64 66/91/66 65/92/65
f 64/90/64 68/93/68 69/94/69 66/91/66
f 59/95/59 67/96/67 69/97/69 68/98/68
f 67/96/67 71/99/71 72/100/72 69/97/69
f 60/101/60 70/102/70 72/100/72 71/99/71
f 70/103/70 62/86/62 63/85/63 72/104/72
f 63/85/63 66/88/66 69/105/69 72/104/72
f 73/106/73 77/107/77 79/108/79 78/109/78
f 77/107/77 81/110/81 82/111/82 79/108/79
f 74/112/74 80/113/80 82/114/82 81/115/81
f 80/113/80 84/116/84 85/117/85 82/114/82
f 75/118/75 83/119/83 85/117/85 84/116/84
f 83/120/83 87/121/87 88/122/88 85/123/85
f 76/124/76 86/125/86 88/122/88 87/121/87
f 86/126/86 78/109/78 79/108/79 88/127/88
f 79/108/79 82/111/82 85/128/85 88/127/88
f 89/129/89 92/130/92 94/131/94 93/132/93
f 92/130/92 96/133/96 97/134/97 94/131/94
f 90/135/90 95/136/95 97/137/97 96/138/96
f 95/139/95 99/140/99 100/141/100 97/142/97
f 91/143/91 98/144/98 100/141/100 99/140/99
f 98/145/98 93/132/93 94/131/94 100/146/100
f 94/131/94 97/134/97 100/146/100
f 101/147/101 104/148/104 106/149/106 105/150/105
f 104/148/104 108/151/108 109/152/109 106/149/106
f 102/153/102 107/154/107 109/155/109 108/156/108
f 107/154/107 111/157/111 112/158/112 109/155/109
f 103/159/103 110/160/110 112/161/112 111/162/111
f 110/163/110 105/150/105 106/149/106 112/164/112
f 106/149/106 109/152/109 112/164/112
f 129/165/129 132/166/132 134/167/134 133/168/133
f 132/169/132 136/170/136 137/171/137 134/172/134
f 130/173/130 135/174/135 137/171/137 136/170/136
f 135/175/135 139/176/139 140/177/140 137/178/137
f 131/179/131 138/180/138 140/177/140 139/176/139
f 138/180/138 133/181/133 134/182/134 140/177/140
f 134/172/134 137/171/137 140/183/140
f 141/184/141 144/185/144 146/186/146 145/187/145
f 144/185/144 148/188/148 149/189/149 146/186/146
f 142/190/142 147/191/147 149/192/149 148/193/148
f 147/194/147 151/195/151 152/196/152 149/197/149
f 143/198/143 150/199/150 152/196/152 151/195/151
f 150/199/150 145/200/145 146/201/146 152/196/152
f 146/186/146 149/189/149 152/202/152
f 153/203/153 156/168/156 158/204/38 157/205/157
f 156/206/156 160/207/158 161/208/41 158/209/38
f 154/179/154 159/210/39 161/208/41 160/207/158
f 159/210/39 163/211/43 164/212/44 161/208/41
f 155/213/155 162/214/159 164/215/44 163/216/43
f 162/214/159 157/217/157 158/218/38 164/215/44
f 158/209/38 161/208/41 164/212/44
f 165/219/160 168/220/163 170/221/50 169/191/164
f 168/222/163 172/223/165 173/224/53 170/225/50
f 166/226/161 171/227/51 173/224/53 172/223/165
f 171/228/51 175/229/55 176/230/167 173/231/53
f 167/198/162 174/195/166 176/230/167 175/229/55
f 174/195/166 169/232/164 170/233/50 176/230/167
f 170/225/50 173/224/53 176/234/167
f 177/235/168 180/236/171 182/237/173 181/166/172
f 180/238/171 184/239/175 185/240/176 182/241/173
f 178/242/169 183/243/174 185/240/176 184/239/175
f 183/243/174 187/244/178 188/245/179 185/240/176
f 179/246/170 186/170/177 188/247/179 187/248/178
f 186/170/177 181/169/172 182/249/173 188/247/179
f 182/241/173 185/240/176 188/245/179
f 189/250/180 192/251/183 194/252/185 193/253/184
f 192/188/183 196/185/187 197/254/188 194/255/185
f 190/256/181 195/257/186 197/254/188 196/185/187
f 195/258/186 199/259/190 200/260/191 197/261/188
f 191/262/182 198/263/189 200/260/191 199/259/190
f 198/263/189 193/264/184 194/265/185 200/260/191
f 194/255/185 197/254/188 200/266/191
f 201/267/192 204/205/195 206/268/94 205/269/196
f 204/217/195 208/214/197 209/270/97 206/271/94
f 202/213/193 207/272/95 209/270/97 208/214/197
f 207/272/95 211/273/99 212/274/100 209/270/97
f 203/242/194 210/239/198 212/275/100 211/276/99
f 210/239/198 205/277/196 206/278/94 212/275/100
f 206/271/94 209/270/97 212/274/100
f 213/279/199 216/253/202 218/280/106 217/281/203
f 216/282/202 220/263/204 221/283/109 218/284/106
f 214/285/200 219/286/107 221/283/109 220/263/204
f 219/287/107 223/288/111 224/289/112 221/290/109
f 215/226/201 222/223/205 224/289/112 223/288/111
f 222/223/205 217/222/203 218/291/106 224/289/112
f 218/284/106 221/283/109 224/292/112
f 225/293/129 228/294/132 230/295/134 229/296/133
f 228/297/132 232/298/207 233/299/137 230/300/134
f 226/301/206 231/302/135 233/299/137 232/298/207
f 231/303/135 235/304/139 236/305/140 233/306/137
f 227/307/131 234/308/138 236/305/140 235/304/139
f 234/308/138 229/309/133 230/310/134 236/305/140
f 230/300/134 233/299/137 236/311/140
f 237/312/208 240/313/209 242/314/146 241/315/145
f 240/313/209 244/316/148 245/317/149 242/314/146
f 238/318/142 243/319/147 245/320/149 244/321/148
f 243/322/147 247/323/151 248/324/152 245/325/149
f 239/326/143 246/327/150 248/324/152 247/323/151
f 246/327/150 241/328/145 242/329/146 248/324/152
f 242/314/146 245/317/149 248/330/152
f 249/331/153 252/332/156 254/333/38 253/334/157
f 252/335/156 256/308/158 257/336/211 254/337/38
f 250/307/154 255/338/39 257/336/211 256/308/158
f 255/338/39 259/339/43 260/340/44 257/336/211
f 251/341/210 258/342/212 260/343/44 259/344/43
f 258/342/212 253/345/157 254/346/38 260/343/44
f 254/337/38 257/336/211 260/340/44
f 261/347/160 264/348/163 266/349/50 265/350/164
f 264/351/163 268/352/214 269/353/53 266/354/50
f 262/355/213 267/356/51 269/353/53 268/352/214
f 267/357/51 271/358/55 272/359/56 269/360/53
f 263/326/162 270/323/166 272/359/56 271/358/55
f 270/323/166 265/322/164 266/361/50 272/359/56
f 266/354/50 269/353/53 272/362/56
f 273/363/168 276/364/171 278/365/173 277/294/172
f 276/366/171 280/367/175 281/368/176 278/369/173
f 274/370/169 279/371/174 281/368/176 280/367/175
f 279/371/174 283/372/178 284/373/179 281/368/176
f 275/301/215 282/374/216 284/375/179 283/376/178
f 282/374/216 277/297/172 278/377/173 284/375/179
f 278/369/173 281/368/176 284/373/179
f 285/347/180 288/321/183 290/378/185 289/379/184
f 288/316/183 292/313/218 293/380/188 290/381/185
f 286/382/217 291/383/186 293/380/188 292/313/218
f 291/384/186 295/385/190 296/386/191 293/387/188
f 287/388/182 294/389/189 296/386/191 295/385/190
f 294/389/189 289/390/184 290/391/185 296/386/191
f 290/381/185 293/380/188 296/392/191
f 297/331/192 300/334/195 302/393/94 301/364/196
f 300/345/195 304/394/220 305/395/97 302/396/94
f 298/397/219 303/398/95 305/395/97 304/394/220
f 303/398/95 307/399/99 308/400/100 305/395/97
f 299/370/194 306/367/198 308/401/100 307/402/99
f 306/367/198 301/403/196 302/404/94 308/401/100
f 302/396/94 305/395/97 308/400/100
f 309/405/199 312/406/202 314/407/106 313/348/203
f 312/408/202 316/389/204 317/409/109 314/410/106
f 310/411/200 315/412/107 317/409/109 316/389/204
f 315/413/107 319/414/111 320/415/112 317/416/109
f 311/417/221 318/418/222 320/415/112 319/414/111
f 318/418/222 313/351/203 314/419/106 320/415/112
f 314/410/106 317/409/109 320/420/112
f 33/47/33 1/1/1 6/4/6 36/48/36
f 36/48/36 6/4/6 14/21/14 40/51/40
f 40/56/40 14/18/14 4/17/4 34/53/34
f 3/13/3 17/24/17 22/27/22 11/14/11
f 11/14/11 22/27/22 30/44/30 15/15/15
f 15/20/15 30/41/30 20/40/20 4/17/4
f 19/36/19 45/65/45 49/68/49 27/37/27
f 27/37/27 49/68/49 54/81/54 31/38/31
f 31/43/31 54/78/54 47/77/47 20/40/20
f 46/71/46 35/61/35 43/58/43 51/72/51
f 51/72/51 43/58/43 39/57/39 55/75/55
f 55/80/55 39/54/39 34/53/34 47/77/47
f 89/129/89 33/47/33 37/50/37 92/130/92
f 92/130/92 37/50/37 42/63/42 96/133/96
f 96/138/96 42/62/42 35/61/35 90/135/90
f 45/65/45 101/147/101 105/150/105 48/66/48
f 48/66/48 105/150/105 110/163/110 52/69/52
f 52/74/52 110/160/110 103/159/103 46/71/46
f 102/153/102 91/143/91 99/140/99 107/154/107
f 107/154/107 99/140/99 95/139/95 111/157/111
f 111/162/111 95/136/95 90/135/90 103/159/103
f 57/83/57 89/129/89 93/132/93 61/84/61
f 61/84/61 93/132/93 98/145/98 65/87/65
f 65/92/65 98/144/98 91/143/91 58/89/58
f 101/147/101 73/106/73 78/109/78 104/148/104
f 104/148/104 78/109/78 86/126/86 108/151/108
f 108/156/108 86/125/86 76/124/76 102/153/102
f 75/118/75 59/95/59 68/98/68 83/119/83
f 83/120/83 68/93/68 64/90/64 87/121/87
f 87/121/87 64/90/64 58/89/58 76/124/76
f 1/1/1 57/83/57 62/86/62 5/2/5
f 5/2/5 62/86/62 70/103/70 9/5/9
f 9/10/9 70/102/70 60/101/60 2/7/2
f 73/106/73 19/36/19 28/33/28 77/107/77
f 77/107/77 28/33/28 24/32/24 81/110/81
f 81/115/81 24/31/24 18/30/18 74/112/74
f 113/421/113 60/101/60 71/99/71 115/422/115
f 115/422/115 71/99/71 67/96/67 116/423/116
f 116/423/116 67/96/67 59/95/59 114/424/114
f 74/112/74 118/425/118 120/426/120 80/113/80
f 80/113/80 120/426/120 119/427/119 84/116/84
f 84/116/84 119/427/119 117/428/117 75/118/75
f 17/24/17 122/429/122 124/430/124 21/25/21
f 21/25/21 124/430/124 123/431/123 25/28/25
f 25/28/25 123/431/123 121/432/121 18/30/18
f 2/7/2 126/433/126 128/434/128 8/8/8
f 8/8/8 128/434/128 127/435/127 12/11/12
f 12/11/12 127/435/127 125/436/125 3/13/3
f 153/203/153 129/165/129 133/168/133 156/168/156
f 156/206/156 133/181/133 138/180/138 160/207/158
f 160/207/158 138/180/138 131/179/131 154/179/154
f 130/173/130 141/184/141 145/187/145 135/174/135
f 135/175/135 145/200/145 150/199/150 139/176/139
f 139/176/139 150/199/150 143/198/143 131/179/131
f 142/190/142 165/219/160 169/191/164 147/191/147
f 147/194/147 169/232/164 174/195/166 151/195/151
f 151/195/151 174/195/166 167/198/162 143/198/143
f 166/226/161 155/213/155 163/216/43 171/227/51
f 171/228/51 163/211/43 159/210/39 175/229/55
f 175/229/55 159/210/39 154/179/154 167/198/162
f 201/267/192 153/203/153 157/205/157 204/205/195
f 204/217/195 157/217/157 162/214/159 208/214/197
f 208/214/197 162/214/159 155/213/155 202/213/193
f 165/219/160 213/279/199 217/281/203 168/220/163
f 168/222/163 217/222/203 222/223/205 172/223/165
f 172/223/165 222/223/205 215/226/201 166/226/161
f 214/285/200 203/242/194 211/276/99 219/286/107
f 219/287/107 211/273/99 207/272/95 223/288/111
f 223/288/111 207/272/95 202/213/193 215/226/201
f 177/235/168 201/267/192 205/269/196 180/236/171
f 180/238/171 205/277/196 210/239/198 184/239/175
f 184/239/175 210/239/198 203/242/194 178/242/169
f 213/279/199 189/250/180 193/253/184 216/253/202
f 216/282/202 193/264/184 198/263/189 220/263/204
f 220/263/204 198/263/189 191/262/182 214/285/200
f 190/256/181 179/246/170 187/248/178 195/257/186
f 195/258/186 187/244/178 183/243/174 199/259/190
f 199/259/190 183/243/174 178/242/169 191/262/182
f 129/165/129 177/235/168 181/166/172 132/166/132
f 132/169/132 181/169/172 186/170/177 136/170/136
f 136/170/136 186/170/177 179/246/170 130/173/130
f 189/250/180 142/190/142 148/193/148 192/251/183
f 192/188/183 148/188/148 144/185/144 196/185/187
f 196/185/187 144/185/144 141/184/141 190/256/181
f 249/331/153 225/293/129 229/296/133 252/332/156
f 252/335/156 229/309/133 234/308/138 256/308/158
f 256/308/158 234/308/138 227/307/131 250/307/154
f 226/301/206 237/312/208 241/315/145 231/302/135
f 231/303/135 241/328/145 246/327/150 235/304/139
f 235/304/139 246/327/150 239/326/143 227/307/131
f 238/318/142 261/347/160 265/350/164 243/319/147
f 243/322/147 265/322/164 270/323/166 247/323/151
f 247/323/151 270/323/166 263/326/162 239/326/143
f 262/355/213 251/341/210 259/344/43 267/356/51
f 267/357/51 259/339/43 255/338/39 271/358/55
f 271/358/55 255/338/39 250/307/154 263/326/162
f 297/331/192 249/331/153 253/334/157 300/334/195
f 300/345/195 253/345/157 258/342/212 304/394/220
f 304/394/220 258/342/212 251/341/210 298/397/219
f 261/347/160 309/405/199 313/348/203 264/348/163
f 264/351/163 313/351/203 318/418/222 268/352/214
f 268/352/214 318/418/222 311/417/221 262/355/213
f 310/411/200 299/370/194 307/402/99 315/412/107
f 315/413/107 307/399/99 303/398/95 319/414/111
f 319/414/111 303/398/95 298/397/219 311/417/221
f 273/363/168 297/331/192 301/364/196 276/364/171
f 276/366/171 301/403/196 306/367/198 280/367/175
f 280/367/175 306/367/198 299/370/194 274/370/169
f 309/405/199 285/347/180 289/379/184 312/406/202
f 312/408/202 289/390/184 294/389/189 316/389/204
f 316/389/204 294/389/189 287/388/182 310/411/200
f 286/382/217 275/301/215 283/376/178 291/383/186
f 291/384/186 283/372/178 279/371/174 295/385/190
f 295/385/190 279/371/174 274/370/169 287/388/182
f 225/293/129 273/363/168 277/294/172 228/294/132
f 228/297/132 277/297/172 282/374/216 232/298/207
f 232/298/207 282/374/216 275/301/215 226/301/206
f 285/347/180 238/318/142 244/321/148 288/321/183
f 288/316/183 244/316/148 240/313/209 292/313/218
f 292/313/218 240/313/209 237/312/208 286/382/217
f 33/47/33 89/129/89 57/83/57 1/1/1
f 4/17/4 20/40/20 47/77/47 34/53/34
f 2/7/2 60/101/60 113/421/113 126/433/126
f 17/24/17 3/13/3 125/436/125 122/429/122
f 101/147/101 45/65/45 19/36/19 73/106/73
f 74/112/74 18/30/18 121/432/121 118/425/118
f 35/61/35 46/71/46 103/159/103 90/135/90
f 91/143/91 102/153/102 76/124/76 58/89/58
f 59/95/59 75/118/75 117/428/117 114/424/114
f 113/421/113 115/422/115 116/423/116 114/424/114 117/428/117 119/427/119 120/426/120 118/425/118 121/432/121 123/431/123 124/430/124 122/429/122 125/436/125 127/435/127 128/434/128 126/433/126
f 153/203/153 201/267/192 177/235/168 129/165/129
f 131/179/131 143/198/143 167/198/162 154/179/154
f 179/246/170 190/256/181 141/184/141 130/173/130
f 213/279/199 165/219/160 142/190/142 189/250/180
f 155/213/155 166/226/161 215/226/201 202/213/193
f 203/242/194 214/285/200 191/262/182 178/242/169
f 249/331/153 297/331/192 273/363/168 225/293/129
f 227/307/131 239/326/143 263/326/162 250/307/154
f 275/301/215 286/382/217 237/312/208 226/301/206
f 309/405/199 261/347/160 238/318/142 285/347/180
f 251/341/210 262/355/213 311/417/221 298/397/219
f 299/370/194 310/411/200 287/388/182 274/370/169
