# Blender 5.0.1
# www.blender.org
mtllib BB_PROP_Conduit_Elbow90.mtl
o BB_PROP_Conduit_Elbow90
v 8.000000 0.000000 -0.050000
v 8.036180 -0.026286 -0.022361
v 7.986181 -0.042532 -0.022361
v 7.955279 0.000000 -0.022361
v 7.986181 0.042532 -0.022361
v 8.036180 0.026286 -0.022361
v 8.013820 -0.042532 0.022361
v 7.963820 -0.026286 0.022361
v 7.963820 0.026286 0.022361
v 8.013820 0.042532 0.022361
v 8.044722 0.000000 0.022361
v 8.000000 0.000000 0.050000
v 8.029389 0.040451 0.000000
v 8.013144 0.040451 -0.026287
v 7.991877 0.025000 -0.042533
v 7.986856 -0.040451 0.026287
v 8.000000 0.050000 0.000000
v 8.047553 -0.015451 0.000000
v 7.965590 0.025000 -0.026287
v 8.047553 0.015451 0.000000
v 8.034410 -0.025000 0.026287
v 7.957468 0.000000 0.026287
v 7.986856 0.040451 0.026287
v 7.965590 -0.025000 -0.026287
v 7.952447 0.015451 0.000000
v 7.973713 0.000000 -0.042533
v 7.970611 0.040451 0.000000
v 8.021266 0.015451 -0.042533
v 7.970611 -0.040451 0.000000
v 8.042532 0.000000 -0.026287
v 7.952447 -0.015451 0.000000
v 8.013144 -0.040451 -0.026287
v 8.029389 -0.040451 0.000000
v 8.021266 -0.015451 -0.042533
v 8.000000 -0.050000 0.000000
v 7.991877 -0.025000 -0.042533
v 8.034410 0.025000 0.026287
v 8.008122 -0.025000 0.042533
v 8.026286 0.000000 0.042533
v 7.978734 -0.015451 0.042533
v 7.978734 0.015451 0.042533
v 8.008122 0.025000 0.042533
v 8.000000 0.029647 -0.500000
v 8.000000 0.040000 -0.490000
v 8.000000 0.034824 -0.498660
v 8.000000 0.038613 -0.495000
v 8.000000 0.029647 0.000000
v 8.000000 0.040000 -0.010000
v 8.000000 0.034824 -0.001340
v 8.000000 0.038613 -0.005000
v 8.014824 0.025675 -0.500000
v 8.020000 0.034641 -0.490000
v 8.017412 0.030158 -0.498660
v 8.019306 0.033440 -0.495000
v 8.014824 0.025675 0.000000
v 8.020000 0.034641 -0.010000
v 8.017412 0.030158 -0.001340
v 8.019306 0.033440 -0.005000
v 8.025675 0.014824 -0.500000
v 8.034641 0.020000 -0.490000
v 8.030158 0.017412 -0.498660
v 8.033440 0.019306 -0.495000
v 8.025675 0.014824 0.000000
v 8.034641 0.020000 -0.010000
v 8.030158 0.017412 -0.001340
v 8.033440 0.019306 -0.005000
v 8.029647 0.000000 -0.500000
v 8.040000 0.000000 -0.490000
v 8.034823 0.000000 -0.498660
v 8.038613 0.000000 -0.495000
v 8.029647 -0.000000 0.000000
v 8.040000 0.000000 -0.010000
v 8.034823 -0.000000 -0.001340
v 8.038613 -0.000000 -0.005000
v 8.025675 -0.014824 -0.500000
v 8.034641 -0.020000 -0.490000
v 8.030158 -0.017412 -0.498660
v 8.033440 -0.019306 -0.495000
v 8.025675 -0.014824 0.000000
v 8.034641 -0.020000 -0.010000
v 8.030158 -0.017412 -0.001340
v 8.033440 -0.019306 -0.005000
v 8.014824 -0.025675 -0.500000
v 8.020000 -0.034641 -0.490000
v 8.017412 -0.030158 -0.498660
v 8.019306 -0.033440 -0.495000
v 8.014824 -0.025675 0.000000
v 8.020000 -0.034641 -0.010000
v 8.017412 -0.030158 -0.001340
v 8.019306 -0.033440 -0.005000
v 8.000000 -0.029647 -0.500000
v 8.000000 -0.040000 -0.490000
v 8.000000 -0.034824 -0.498660
v 8.000000 -0.038613 -0.495000
v 8.000000 -0.029647 0.000000
v 8.000000 -0.040000 -0.010000
v 8.000000 -0.034824 -0.001340
v 8.000000 -0.038613 -0.005000
v 7.985177 -0.025675 -0.500000
v 7.980000 -0.034641 -0.490000
v 7.982588 -0.030158 -0.498660
v 7.980693 -0.033440 -0.495000
v 7.985177 -0.025675 0.000000
v 7.980000 -0.034641 -0.010000
v 7.982588 -0.030158 -0.001340
v 7.980693 -0.033440 -0.005000
v 7.974325 -0.014824 -0.500000
v 7.965359 -0.020000 -0.490000
v 7.969842 -0.017412 -0.498660
v 7.966560 -0.019306 -0.495000
v 7.974325 -0.014824 0.000000
v 7.965359 -0.020000 -0.010000
v 7.969842 -0.017412 -0.001340
v 7.966560 -0.019306 -0.005000
v 7.970353 -0.000000 -0.500000
v 7.960000 0.000000 -0.490000
v 7.965177 -0.000000 -0.498660
v 7.961387 -0.000000 -0.495000
v 7.970353 0.000000 0.000000
v 7.960000 0.000000 -0.010000
v 7.965177 0.000000 -0.001340
v 7.961387 0.000000 -0.005000
v 7.974325 0.014824 -0.500000
v 7.965359 0.020000 -0.490000
v 7.969842 0.017412 -0.498660
v 7.966560 0.019306 -0.495000
v 7.974325 0.014824 0.000000
v 7.965359 0.020000 -0.010000
v 7.969842 0.017412 -0.001340
v 7.966560 0.019306 -0.005000
v 7.985177 0.025675 -0.500000
v 7.980000 0.034641 -0.490000
v 7.982588 0.030158 -0.498660
v 7.980693 0.033440 -0.495000
v 7.985177 0.025675 0.000000
v 7.980000 0.034641 -0.010000
v 7.982588 0.030158 -0.001340
v 7.980693 0.033440 -0.005000
v 8.000000 0.029647 -0.000000
v 8.010000 0.040000 0.000000
v 8.001340 0.034824 -0.000000
v 8.005000 0.038613 -0.000000
v 8.500000 0.029647 0.000000
v 8.490000 0.040000 0.000000
v 8.498660 0.034824 0.000000
v 8.495000 0.038613 0.000000
v 8.000000 0.025675 0.014824
v 8.010000 0.034641 0.020000
v 8.001340 0.030158 0.017412
v 8.005000 0.033440 0.019306
v 8.500000 0.025675 0.014824
v 8.490000 0.034641 0.020000
v 8.498660 0.030158 0.017412
v 8.495000 0.033440 0.019306
v 8.010000 0.020000 0.034641
v 8.000000 0.014824 0.025675
v 8.005000 0.019306 0.033440
v 8.001340 0.017412 0.030158
v 8.500000 0.014824 0.025675
v 8.490000 0.020000 0.034641
v 8.498660 0.017412 0.030158
v 8.495000 0.019306 0.033440
v 8.000000 0.000000 0.029647
v 8.010000 0.000000 0.040000
v 8.001340 0.000000 0.034824
v 8.005000 0.000000 0.038613
v 8.500000 -0.000000 0.029647
v 8.490000 0.000000 0.040000
v 8.498660 -0.000000 0.034824
v 8.495000 -0.000000 0.038613
v 8.000000 -0.014824 0.025675
v 8.010000 -0.020000 0.034641
v 8.001340 -0.017412 0.030158
v 8.005000 -0.019306 0.033440
v 8.500000 -0.014824 0.025675
v 8.490000 -0.020000 0.034641
v 8.498660 -0.017412 0.030158
v 8.495000 -0.019306 0.033440
v 8.000000 -0.025675 0.014824
v 8.010000 -0.034641 0.020000
v 8.001340 -0.030158 0.017412
v 8.005000 -0.033440 0.019306
v 8.500000 -0.025675 0.014824
v 8.490000 -0.034641 0.020000
v 8.498660 -0.030158 0.017412
v 8.495000 -0.033440 0.019306
v 8.000000 -0.029647 0.000000
v 8.010000 -0.040000 0.000000
v 8.001340 -0.034824 0.000000
v 8.005000 -0.038613 0.000000
v 8.500000 -0.029647 -0.000000
v 8.490000 -0.040000 0.000000
v 8.498660 -0.034824 -0.000000
v 8.495000 -0.038613 -0.000000
v 8.000000 -0.025675 -0.014824
v 8.010000 -0.034641 -0.020000
v 8.001340 -0.030158 -0.017412
v 8.005000 -0.033440 -0.019306
v 8.500000 -0.025675 -0.014824
v 8.490000 -0.034641 -0.020000
v 8.498660 -0.030158 -0.017412
v 8.495000 -0.033440 -0.019306
v 8.000000 -0.014824 -0.025675
v 8.010000 -0.020000 -0.034641
v 8.001340 -0.017412 -0.030158
v 8.005000 -0.019306 -0.033440
v 8.500000 -0.014824 -0.025675
v 8.490000 -0.020000 -0.034641
v 8.498660 -0.017412 -0.030158
v 8.495000 -0.019306 -0.033440
v 8.000000 -0.000000 -0.029647
v 8.010000 0.000000 -0.040000
v 8.001340 -0.000000 -0.034824
v 8.005000 -0.000000 -0.038613
v 8.500000 0.000000 -0.029647
v 8.490000 0.000000 -0.040000
v 8.498660 0.000000 -0.034824
v 8.495000 0.000000 -0.038613
v 8.000000 0.014824 -0.025675
v 8.010000 0.020000 -0.034641
v 8.001340 0.017412 -0.030158
v 8.005000 0.019306 -0.033440
v 8.500000 0.014824 -0.025675
v 8.490000 0.020000 -0.034641
v 8.498660 0.017412 -0.030158
v 8.495000 0.019306 -0.033440
v 8.000000 0.025675 -0.014824
v 8.010000 0.034641 -0.020000
v 8.001340 0.030158 -0.017412
v 8.005000 0.033440 -0.019306
v 8.500000 0.025675 -0.014824
v 8.490000 0.034641 -0.020000
v 8.498660 0.030158 -0.017412
v 8.495000 0.033440 -0.019306
vn -0.0000 -0.0000 -1.0000
vn 0.7236 -0.5257 -0.4472
vn -0.2764 -0.8506 -0.4472
vn -0.8944 -0.0000 -0.4472
vn -0.2764 0.8506 -0.4472
vn 0.7236 0.5257 -0.4472
vn 0.2764 -0.8506 0.4472
vn -0.7236 -0.5257 0.4472
vn -0.7236 0.5257 0.4472
vn 0.2764 0.8506 0.4472
vn 0.8944 -0.0000 0.4472
vn -0.0000 -0.0000 1.0000
vn 0.5878 0.8090 -0.0000
vn 0.2629 0.8090 -0.5257
vn -0.1625 0.5000 -0.8507
vn -0.2629 -0.8090 0.5257
vn -0.0000 1.0000 -0.0000
vn 0.9511 -0.3090 -0.0000
vn -0.6882 0.5000 -0.5257
vn 0.9511 0.3090 -0.0000
vn 0.6882 -0.5000 0.5257
vn -0.8506 -0.0000 0.5257
vn -0.2629 0.8090 0.5257
vn -0.6882 -0.5000 -0.5257
vn -0.9511 0.3090 -0.0000
vn -0.5257 -0.0000 -0.8507
vn -0.5878 0.8090 -0.0000
vn 0.4253 0.3090 -0.8507
vn -0.5878 -0.8090 -0.0000
vn 0.8506 -0.0000 -0.5257
vn -0.9511 -0.3090 -0.0000
vn 0.2629 -0.8090 -0.5257
vn 0.5878 -0.8090 -0.0000
vn 0.4253 -0.3090 -0.8507
vn -0.0000 -1.0000 -0.0000
vn -0.1625 -0.5000 -0.8507
vn 0.6882 0.5000 0.5257
vn 0.1625 -0.5000 0.8507
vn 0.5257 -0.0000 0.8507
vn -0.4253 -0.3090 0.8507
vn -0.4253 0.3090 0.8507
vn 0.1625 0.5000 0.8507
vn -0.0000 0.1469 -0.9892
vn -0.0000 0.9912 -0.1320
vn -0.0000 0.5197 -0.8544
vn -0.0000 0.8700 -0.4931
vn -0.0000 0.1469 0.9892
vn -0.0000 0.9912 0.1320
vn -0.0000 0.5197 0.8544
vn -0.0000 0.8700 0.4931
vn 0.0734 0.1272 -0.9892
vn 0.4956 0.8584 -0.1320
vn 0.2598 0.4500 -0.8544
vn 0.4350 0.7534 -0.4931
vn 0.0734 0.1272 0.9892
vn 0.4956 0.8584 0.1320
vn 0.2598 0.4500 0.8544
vn 0.4350 0.7534 0.4931
vn 0.1272 0.0734 -0.9892
vn 0.8584 0.4956 -0.1320
vn 0.4500 0.2598 -0.8544
vn 0.7534 0.4350 -0.4931
vn 0.1272 0.0734 0.9892
vn 0.8584 0.4956 0.1320
vn 0.4500 0.2598 0.8544
vn 0.7534 0.4350 0.4931
vn 0.1469 -0.0000 -0.9892
vn 0.9912 -0.0000 -0.1320
vn 0.5197 -0.0000 -0.8544
vn 0.8700 -0.0000 -0.4931
vn 0.1469 -0.0000 0.9892
vn 0.9912 -0.0000 0.1320
vn 0.5197 -0.0000 0.8544
vn 0.8700 -0.0000 0.4931
vn 0.1272 -0.0734 -0.9892
vn 0.8584 -0.4956 -0.1320
vn 0.4500 -0.2598 -0.8544
vn 0.7534 -0.4350 -0.4931
vn 0.1272 -0.0734 0.9892
vn 0.8584 -0.4956 0.1320
vn 0.4500 -0.2598 0.8544
vn 0.7534 -0.4350 0.4931
vn 0.0734 -0.1272 -0.9892
vn 0.4956 -0.8584 -0.1320
vn 0.2598 -0.4500 -0.8544
vn 0.4350 -0.7534 -0.4931
vn 0.0734 -0.1272 0.9892
vn 0.4956 -0.8584 0.1320
vn 0.2598 -0.4500 0.8544
vn 0.4350 -0.7534 0.4931
vn -0.0000 -0.1469 -0.9892
vn -0.0000 -0.9912 -0.1320
vn -0.0000 -0.5197 -0.8544
vn -0.0000 -0.8700 -0.4931
vn -0.0000 -0.1469 0.9892
vn -0.0000 -0.9912 0.1320
vn -0.0000 -0.5197 0.8544
vn -0.0000 -0.8700 0.4931
vn -0.0734 -0.1272 -0.9892
vn -0.4956 -0.8584 -0.1320
vn -0.2598 -0.4500 -0.8544
vn -0.4350 -0.7534 -0.4931
vn -0.0734 -0.1272 0.9892
vn -0.4956 -0.8584 0.1320
vn -0.2598 -0.4500 0.8544
vn -0.4350 -0.7534 0.4931
vn -0.1272 -0.0734 -0.9892
vn -0.8584 -0.4956 -0.1320
vn -0.4500 -0.2598 -0.8544
vn -0.7534 -0.4350 -0.4931
vn -0.1272 -0.0734 0.9892
vn -0.8584 -0.4956 0.1320
vn -0.4500 -0.2598 0.8544
vn -0.7534 -0.4350 0.4931
vn -0.1469 -0.0000 -0.9892
vn -0.9912 -0.0000 -0.1320
vn -0.5197 -0.0000 -0.8544
vn -0.8700 -0.0000 -0.4931
vn -0.1469 -0.0000 0.9892
vn -0.9912 -0.0000 0.1320
vn -0.5197 -0.0000 0.8544
vn -0.8700 -0.0000 0.4931
vn -0.1272 0.0734 -0.9892
vn -0.8584 0.4956 -0.1320
vn -0.4500 0.2598 -0.8544
vn -0.7534 0.4350 -0.4931
vn -0.1272 0.0734 0.9892
vn -0.8584 0.4956 0.1320
vn -0.4500 0.2598 0.8544
vn -0.7534 0.4350 0.4931
vn -0.0734 0.1272 -0.9892
vn -0.4956 0.8584 -0.1320
vn -0.2598 0.4500 -0.8544
vn -0.4350 0.7534 -0.4931
vn -0.0734 0.1272 0.9892
vn -0.4956 0.8584 0.1320
vn -0.2598 0.4500 0.8544
vn -0.4350 0.7534 0.4931
vn 0.9892 -0.1469 -0.0000
vn 0.1320 -0.9912 -0.0000
vn 0.8544 -0.5197 -0.0000
vn 0.4931 -0.8700 -0.0000
vn -0.9892 -0.1469 -0.0000
vn -0.1320 -0.9912 -0.0000
vn -0.8544 -0.5197 -0.0000
vn -0.4931 -0.8700 -0.0000
vn 0.9892 -0.1272 -0.0734
vn 0.1320 -0.8584 -0.4956
vn 0.8544 -0.4500 -0.2598
vn 0.4931 -0.7534 -0.4350
vn -0.9892 -0.1272 -0.0734
vn -0.1320 -0.8584 -0.4956
vn -0.8544 -0.4500 -0.2598
vn -0.4931 -0.7534 -0.4350
vn 0.1320 -0.4956 -0.8584
vn 0.9892 -0.0734 -0.1272
vn 0.4931 -0.4350 -0.7534
vn 0.8544 -0.2598 -0.4500
vn -0.9892 -0.0734 -0.1272
vn -0.1320 -0.4956 -0.8584
vn -0.8544 -0.2598 -0.4500
vn -0.4931 -0.4350 -0.7534
vn 0.9892 -0.0000 -0.1469
vn 0.1320 -0.0000 -0.9912
vn 0.8544 -0.0000 -0.5197
vn 0.4931 -0.0000 -0.8700
vn -0.9892 -0.0000 -0.1469
vn -0.1320 -0.0000 -0.9912
vn -0.8544 -0.0000 -0.5197
vn -0.4931 -0.0000 -0.8700
vn 0.9892 0.0734 -0.1272
vn 0.1320 0.4956 -0.8584
vn 0.8544 0.2598 -0.4500
vn 0.4931 0.4350 -0.7534
vn -0.9892 0.0734 -0.1272
vn -0.1320 0.4956 -0.8584
vn -0.8544 0.2598 -0.4500
vn -0.4931 0.4350 -0.7534
vn 0.9892 0.1272 -0.0734
vn 0.1320 0.8584 -0.4956
vn 0.8544 0.4500 -0.2598
vn 0.4931 0.7534 -0.4350
vn -0.9892 0.1272 -0.0734
vn -0.1320 0.8584 -0.4956
vn -0.8544 0.4500 -0.2598
vn -0.4931 0.7534 -0.4350
vn 0.9892 0.1469 -0.0000
vn 0.1320 0.9912 -0.0000
vn 0.8544 0.5197 -0.0000
vn 0.4931 0.8700 -0.0000
vn -0.9892 0.1469 -0.0000
vn -0.1320 0.9912 -0.0000
vn -0.8544 0.5197 -0.0000
vn -0.4931 0.8700 -0.0000
vn 0.9892 0.1272 0.0734
vn 0.1320 0.8584 0.4956
vn 0.8544 0.4500 0.2598
vn 0.4931 0.7534 0.4350
vn -0.9892 0.1272 0.0734
vn -0.1320 0.8584 0.4956
vn -0.8544 0.4500 0.2598
vn -0.4931 0.7534 0.4350
vn 0.9892 0.0734 0.1272
vn 0.1320 0.4956 0.8584
vn 0.8544 0.2598 0.4500
vn 0.4931 0.4350 0.7534
vn -0.9892 0.0734 0.1272
vn -0.1320 0.4956 0.8584
vn -0.8544 0.2598 0.4500
vn -0.4931 0.4350 0.7534
vn 0.9892 -0.0000 0.1469
vn 0.1320 -0.0000 0.9912
vn 0.8544 -0.0000 0.5197
vn 0.4931 -0.0000 0.8700
vn -0.9892 -0.0000 0.1469
vn -0.1320 -0.0000 0.9912
vn -0.8544 -0.0000 0.5197
vn -0.4931 -0.0000 0.8700
vn 0.9892 -0.0734 0.1272
vn 0.1320 -0.4956 0.8584
vn 0.8544 -0.2598 0.4500
vn 0.4931 -0.4350 0.7534
vn -0.9892 -0.0734 0.1272
vn -0.1320 -0.4956 0.8584
vn -0.8544 -0.2598 0.4500
vn -0.4931 -0.4350 0.7534
vn 0.9892 -0.1272 0.0734
vn 0.1320 -0.8584 0.4956
vn 0.8544 -0.4500 0.2598
vn 0.4931 -0.7534 0.4350
vn -0.9892 -0.1272 0.0734
vn -0.1320 -0.8584 0.4956
vn -0.8544 -0.4500 0.2598
vn -0.4931 -0.7534 0.4350
vt 0.267224 0.899591
vt 0.289299 0.864038
vt 0.309737 0.907235
vt 0.494049 0.711282
vt 0.482846 0.748598
vt 0.455832 0.707915
vt 0.305107 0.749285
vt 0.332047 0.780923
vt 0.283342 0.784683
vt 0.035158 0.931518
vt 0.010031 0.896932
vt 0.050422 0.906693
vt 0.264716 0.739524
vt 0.824483 0.808116
vt 0.800915 0.844292
vt 0.789713 0.805067
vt 0.989414 0.679326
vt 0.953239 0.702893
vt 0.955752 0.655442
vt 0.118020 0.925121
vt 0.077362 0.938331
vt 0.099127 0.902933
vt 0.870442 0.877331
vt 0.860437 0.911576
vt 0.827929 0.884975
vt 0.413319 0.715559
vt 0.390256 0.751206
vt 0.382797 0.708069
vt 0.244161 0.863943
vt 0.417270 0.791890
vt 0.382485 0.784934
vt 0.901276 0.807955
vt 0.893505 0.841683
vt 0.866491 0.801000
vt 0.003469 0.854689
vt 0.028597 0.820104
vt 0.031796 0.861534
vt 0.848367 0.841778
vt 0.435394 0.751111
vt 0.996531 0.637318
vt 0.343521 0.733440
vt 0.470776 0.678800
vt 0.299665 0.678800
vt 0.301908 0.707855
vt 0.261517 0.698094
vt 0.459279 0.784773
vt 0.340322 0.692010
vt 0.370461 0.722328
vt 0.900965 0.884820
vt 0.236390 0.732679
vt 0.912556 0.675879
vt 0.885954 0.643372
vt 0.920200 0.633366
vt 0.423324 0.681313
vt 0.370461 0.765079
vt 0.350940 0.803111
vt 0.494049 0.787822
vt 0.955847 0.610303
vt 0.989575 0.602532
vt 0.789713 0.881607
vt 0.068988 0.829865
vt 0.072187 0.871295
vt 0.066745 0.800810
vt 0.271175 0.823260
vt 0.313183 0.830376
vt 0.236390 0.830215
vt 0.110601 0.855451
vt 0.107402 0.814020
vt 0.137541 0.844338
vt 0.324681 0.936350
vt 0.347953 0.903867
vt 0.812985 0.914090
vt 0.277229 0.933836
vt 0.336751 0.866552
vt 0.347953 0.827327
vt 0.915923 0.714096
vt 0.137541 0.887089
vt 0.236701 0.907080
vt 0.242951 0.774922
vt 0.268079 0.809508
vt 0.912710 0.602844
vt 0.992463 0.714096
vt 0.310282 0.816321
vt 0.597229 0.777728
vt 0.626387 0.778263
vt 0.626418 0.794056
vt 0.597735 0.793535
vt 0.468277 0.878405
vt 0.468277 0.845750
vt 0.476039 0.847829
vt 0.476039 0.876325
vt 0.483943 0.849948
vt 0.483943 0.874207
vt 0.089846 0.778063
vt 0.112991 0.778063
vt 0.112589 0.785967
vt 0.089773 0.785967
vt 0.111493 0.793871
vt 0.089572 0.793871
vt 0.248752 0.602499
vt 0.275462 0.593637
vt 0.280367 0.600305
vt 0.261449 0.609461
vt 0.626387 0.019970
vt 0.597229 0.019434
vt 0.597735 0.011545
vt 0.626418 0.012066
vt 0.599116 0.003671
vt 0.626501 0.004153
vt 0.613982 0.906402
vt 0.597759 0.878301
vt 0.613037 0.874208
vt 0.625167 0.895217
vt 0.026614 0.778063
vt 0.058230 0.778063
vt 0.058230 0.785967
vt 0.026687 0.785967
vt 0.058230 0.793871
vt 0.026888 0.793871
vt 0.241763 0.643908
vt 0.236933 0.622138
vt 0.252612 0.624145
vt 0.256224 0.640421
vt 0.659074 0.778202
vt 0.659029 0.793995
vt 0.484605 0.817469
vt 0.490287 0.823152
vt 0.496073 0.828938
vt 0.112991 0.019277
vt 0.089846 0.019277
vt 0.089773 0.011373
vt 0.112589 0.011373
vt 0.089572 0.003469
vt 0.111493 0.003469
vt 0.394247 0.077127
vt 0.374062 0.059060
vt 0.388523 0.055573
vt 0.403614 0.069081
vt 0.659074 0.019909
vt 0.659029 0.012005
vt 0.658905 0.004092
vt 0.642083 0.922626
vt 0.646177 0.907347
vt 0.686532 0.777561
vt 0.686056 0.793369
vt 0.512885 0.801142
vt 0.514965 0.808904
vt 0.517083 0.816808
vt 0.686532 0.019267
vt 0.686056 0.011379
vt 0.684755 0.003511
vt 0.674531 0.922626
vt 0.670437 0.907347
vt 0.058230 0.019277
vt 0.026614 0.019277
vt 0.026687 0.011373
vt 0.058230 0.011373
vt 0.026888 0.003469
vt 0.058230 0.003469
vt 0.369232 0.037290
vt 0.381051 0.017650
vt 0.393748 0.024613
vt 0.384911 0.039296
vt 0.500987 0.777561
vt 0.528445 0.778202
vt 0.528490 0.793995
vt 0.501463 0.793369
vt 0.545540 0.801142
vt 0.543460 0.808904
vt 0.541343 0.816808
vt 0.528445 0.019909
vt 0.500987 0.019267
vt 0.501463 0.011379
vt 0.528490 0.012005
vt 0.502764 0.003511
vt 0.528614 0.004092
vt 0.702631 0.906402
vt 0.691446 0.895217
vt 0.561132 0.778263
vt 0.561102 0.794056
vt 0.573821 0.817469
vt 0.568138 0.823152
vt 0.562352 0.828938
vt 0.561132 0.019970
vt 0.561102 0.012066
vt 0.561018 0.004153
vt 0.718855 0.878301
vt 0.703576 0.874207
vt 0.590290 0.777728
vt 0.589785 0.793535
vt 0.590149 0.845750
vt 0.582386 0.847830
vt 0.574482 0.849948
vt 0.274948 0.578207
vt 0.307233 0.576621
vt 0.306293 0.584493
vt 0.274951 0.584028
vt 0.305208 0.593723
vt 0.304295 0.599129
vt 0.590290 0.019434
vt 0.589785 0.011545
vt 0.588404 0.003671
vt 0.718855 0.845854
vt 0.703576 0.849948
vt 0.693471 0.778096
vt 0.722629 0.777561
vt 0.722660 0.793363
vt 0.693976 0.793885
vt 0.590148 0.878405
vt 0.582386 0.876325
vt 0.574482 0.874207
vt 0.722629 0.019267
vt 0.693471 0.019803
vt 0.693976 0.011894
vt 0.722660 0.011373
vt 0.695358 0.003970
vt 0.722743 0.003489
vt 0.702631 0.817753
vt 0.691446 0.828938
vt 0.755316 0.777622
vt 0.755271 0.793425
vt 0.573821 0.906685
vt 0.568139 0.901003
vt 0.562352 0.895217
vt 0.755316 0.019328
vt 0.755271 0.011435
vt 0.755147 0.003549
vt 0.674530 0.801529
vt 0.670437 0.816808
vt 0.782774 0.778263
vt 0.782298 0.794050
vt 0.545540 0.923013
vt 0.543461 0.915251
vt 0.541343 0.907347
vt 0.360637 0.015166
vt 0.328353 0.016752
vt 0.329469 0.010876
vt 0.360634 0.009345
vt 0.331554 0.004953
vt 0.359661 0.003572
vt 0.424271 0.083202
vt 0.426143 0.076201
vt 0.782774 0.019970
vt 0.782298 0.012060
vt 0.780997 0.004131
vt 0.642083 0.801529
vt 0.646177 0.816808
vt 0.789713 0.778263
vt 0.817170 0.777622
vt 0.817216 0.793425
vt 0.790189 0.794050
vt 0.512885 0.923013
vt 0.514965 0.915251
vt 0.517083 0.907347
vt 0.817170 0.019328
vt 0.789713 0.019970
vt 0.790189 0.012060
vt 0.817216 0.011435
vt 0.791489 0.004131
vt 0.817339 0.003549
vt 0.613982 0.817753
vt 0.625167 0.828938
vt 0.849857 0.777561
vt 0.849827 0.793364
vt 0.484605 0.906685
vt 0.490287 0.901003
vt 0.496073 0.895217
vt 0.849857 0.019267
vt 0.849827 0.011373
vt 0.849743 0.003489
vt 0.597759 0.845854
vt 0.613037 0.849948
vt 0.879016 0.778096
vt 0.878510 0.793885
vt 0.879016 0.019803
vt 0.878510 0.011894
vt 0.877129 0.003970
vt 0.003469 0.019277
vt 0.003871 0.011373
vt 0.004967 0.003469
vt 0.406353 0.005404
vt 0.412665 0.015456
vt 0.003469 0.778063
vt 0.003871 0.785967
vt 0.004967 0.793871
vt 0.261948 0.661976
vt 0.271316 0.653929
vt 0.917944 0.019855
vt 0.885954 0.015219
vt 0.886509 0.009425
vt 0.917389 0.013900
vt 0.888024 0.003769
vt 0.915874 0.007805
vt 0.438358 0.003832
vt 0.436594 0.014281
vt 0.885954 0.579208
vt 0.917944 0.583844
vt 0.917389 0.589638
vt 0.886509 0.585163
vt 0.915874 0.595293
vt 0.888024 0.591257
vt 0.291972 0.668050
vt 0.293844 0.661050
vt 0.956872 0.019855
vt 0.924883 0.015219
vt 0.925437 0.009425
vt 0.956317 0.013900
vt 0.926952 0.003769
vt 0.954802 0.007805
vt 0.468490 0.013355
vt 0.459123 0.021401
vt 0.924883 0.579208
vt 0.956872 0.583844
vt 0.956317 0.595513
vt 0.925437 0.591038
vt 0.324245 0.670182
vt 0.292579 0.671833
vt 0.321038 0.665074
vt 0.317773 0.659874
vt 0.119929 0.778063
vt 0.143074 0.778063
vt 0.143147 0.785967
vt 0.120331 0.785967
vt 0.143348 0.793871
vt 0.121427 0.793871
vt 0.488675 0.031422
vt 0.474214 0.034909
vt 0.143074 0.019277
vt 0.119930 0.019277
vt 0.120331 0.003469
vt 0.143148 0.003469
vt 0.349709 0.657856
vt 0.343258 0.654319
vt 0.336690 0.650718
vt 0.174690 0.778063
vt 0.174690 0.785967
vt 0.174690 0.793871
vt 0.493505 0.053192
vt 0.477826 0.051186
vt 0.174690 0.019277
vt 0.174690 0.003469
vt 0.361604 0.638091
vt 0.353638 0.637072
vt 0.345527 0.636034
vt 0.206306 0.778063
vt 0.206233 0.785967
vt 0.206032 0.793871
vt 0.481686 0.072832
vt 0.468989 0.065869
vt 0.206306 0.019277
vt 0.206233 0.003469
vt 0.356743 0.616182
vt 0.349396 0.617953
vt 0.341916 0.619757
vt 0.229451 0.778063
vt 0.229049 0.785967
vt 0.227953 0.793871
vt 0.454976 0.081693
vt 0.450072 0.075026
vt 0.229451 0.019277
vt 0.229050 0.003469
vt 0.336428 0.597999
vt 0.331670 0.602087
vt 0.326824 0.606249
vt 0.455490 0.097124
vt 0.423206 0.098710
vt 0.424322 0.092834
vt 0.455487 0.091303
vt 0.369801 0.660164
vt 0.402086 0.658578
vt 0.400413 0.670302
vt 0.369248 0.671833
s 1
usemtl BB_OxidizedIron
f 6/1/6 13/2/13 20/3/20
f 4/4/4 24/5/24 31/6/31
f 1/7/1 26/8/26 15/9/15
f 10/10/10 23/11/23 42/12/42
f 1/7/1 15/9/15 28/13/28
f 7/14/7 21/15/21 38/16/38
f 5/17/5 19/18/19 27/19/27
f 11/20/11 37/21/37 39/22/39
f 2/23/2 30/24/30 18/25/18
f 8/26/8 16/27/16 40/28/40
f 6/1/6 14/29/14 13/2/13
f 35/30/35 7/31/7 16/27/16
f 3/32/3 32/33/32 35/34/35
f 9/35/9 22/36/22 41/37/41
f 2/23/2 18/25/18 33/38/33
f 29/39/29 35/30/35 16/27/16
f 5/17/5 27/19/27 17/40/17
f 1/7/1 36/41/36 26/8/26
f 4/4/4 31/6/31 25/42/25
f 2/43/2 34/44/34 30/45/30
f 1/7/1 34/44/34 36/41/36
f 29/39/29 16/27/16 8/26/8
f 3/46/3 35/30/35 29/39/29
f 36/41/36 32/47/32 3/48/3
f 36/41/36 34/44/34 32/47/32
f 34/49/34 2/23/2 32/33/32
f 30/45/30 28/13/28 6/50/6
f 30/45/30 34/44/34 28/13/28
f 34/44/34 1/7/1 28/13/28
f 25/51/25 22/52/22 9/53/9
f 25/42/25 31/6/31 22/54/22
f 31/6/31 8/26/8 22/54/22
f 26/8/26 24/55/24 4/56/4
f 26/8/26 36/41/36 24/55/24
f 36/57/36 3/46/3 24/5/24
f 17/40/17 23/58/23 10/59/10
f 17/40/17 27/19/27 23/58/23
f 27/19/27 9/53/9 23/58/23
f 33/38/33 21/15/21 7/14/7
f 33/38/33 18/25/18 21/15/21
f 18/25/18 11/60/11 21/15/21
f 41/37/41 40/61/40 12/62/12
f 41/37/41 22/36/22 40/61/40
f 22/36/22 8/63/8 40/61/40
f 35/34/35 33/38/33 7/14/7
f 35/34/35 32/33/32 33/38/33
f 32/33/32 2/23/2 33/38/33
f 13/2/13 17/64/17 10/65/10
f 13/2/13 14/29/14 17/64/17
f 14/29/14 5/66/5 17/64/17
f 40/61/40 38/67/38 12/62/12
f 40/61/40 16/68/16 38/67/38
f 16/68/16 7/69/7 38/67/38
f 18/70/18 20/3/20 11/71/11
f 18/25/18 30/24/30 20/72/20
f 30/73/30 6/1/6 20/3/20
f 39/22/39 42/12/42 12/62/12
f 39/22/39 37/21/37 42/12/42
f 37/74/37 10/65/10 42/75/42
f 27/19/27 25/51/25 9/53/9
f 27/19/27 19/18/19 25/51/25
f 19/18/19 4/76/4 25/51/25
f 38/67/38 39/22/39 12/62/12
f 38/67/38 21/77/21 39/22/39
f 21/77/21 11/20/11 39/22/39
f 28/78/28 14/29/14 6/1/6
f 28/13/28 15/9/15 14/79/14
f 15/9/15 5/80/5 14/79/14
f 42/12/42 41/37/41 12/62/12
f 42/12/42 23/11/23 41/37/41
f 23/58/23 9/53/9 41/81/41
f 15/82/15 19/18/19 5/17/5
f 15/9/15 26/8/26 19/83/19
f 26/8/26 4/56/4 19/83/19
f 31/6/31 29/39/29 8/26/8
f 31/6/31 24/5/24 29/39/29
f 24/5/24 3/46/3 29/39/29
f 20/3/20 37/74/37 11/71/11
f 20/3/20 13/2/13 37/74/37
f 13/2/13 10/65/10 37/74/37
f 44/84/44 52/85/52 54/86/54 46/87/46
f 46/88/46 54/89/54 53/90/53 45/91/45
f 45/91/45 53/90/53 51/92/51 43/93/43
f 160/94/160 152/95/152 154/96/154 162/97/162
f 162/97/162 154/96/154 153/98/153 161/99/161
f 161/100/161 153/101/153 151/102/151 159/103/159
f 56/104/56 48/105/48 50/106/50 58/107/58
f 58/107/58 50/106/50 49/108/49 57/109/57
f 57/110/57 49/111/49 47/112/47 55/113/55
f 176/114/176 168/115/168 170/116/170 178/117/178
f 178/117/178 170/116/170 169/118/169 177/119/177
f 177/120/177 169/121/169 167/122/167 175/123/175
f 52/85/52 60/124/60 62/125/62 54/86/54
f 54/89/54 62/126/62 61/127/61 53/90/53
f 53/90/53 61/127/61 59/128/59 51/92/51
f 148/129/148 155/130/155 157/131/157 150/132/150
f 150/132/150 157/131/157 158/133/158 149/134/149
f 149/135/149 158/136/158 156/137/156 147/138/147
f 64/139/64 56/104/56 58/107/58 66/140/66
f 66/140/66 58/107/58 57/109/57 65/141/65
f 65/142/65 57/110/57 55/113/55 63/143/63
f 60/124/60 68/144/68 70/145/70 62/125/62
f 62/126/62 70/146/70 69/147/69 61/127/61
f 61/127/61 69/147/69 67/148/67 59/128/59
f 72/149/72 64/139/64 66/140/66 74/150/74
f 74/150/74 66/140/66 65/141/65 73/151/73
f 73/152/73 65/142/65 63/143/63 71/153/71
f 164/154/164 172/155/172 174/156/174 166/157/166
f 166/157/166 174/156/174 173/158/173 165/159/165
f 165/160/165 173/161/173 171/162/171 163/163/163
f 68/164/68 76/165/76 78/166/78 70/167/70
f 70/146/70 78/168/78 77/169/77 69/147/69
f 69/147/69 77/169/77 75/170/75 67/148/67
f 80/171/80 72/172/72 74/173/74 82/174/82
f 82/174/82 74/173/74 73/175/73 81/176/81
f 81/177/81 73/152/73 71/153/71 79/178/79
f 76/165/76 84/179/84 86/180/86 78/166/78
f 78/168/78 86/181/86 85/182/85 77/169/77
f 77/169/77 85/182/85 83/183/83 75/170/75
f 88/184/88 80/171/80 82/174/82 90/185/90
f 90/185/90 82/174/82 81/176/81 89/186/89
f 89/187/89 81/177/81 79/178/79 87/188/87
f 84/179/84 92/189/92 94/190/94 86/180/86
f 86/181/86 94/191/94 93/192/93 85/182/85
f 85/182/85 93/192/93 91/193/91 83/183/83
f 152/194/152 144/195/144 146/196/146 154/197/154
f 154/197/154 146/196/146 145/198/145 153/101/153
f 153/101/153 145/198/145 143/199/143 151/102/151
f 96/200/96 88/184/88 90/185/90 98/201/98
f 98/201/98 90/185/90 89/186/89 97/202/97
f 97/203/97 89/187/89 87/188/87 95/204/95
f 168/115/168 160/94/160 162/97/162 170/116/170
f 170/116/170 162/97/162 161/99/161 169/118/169
f 169/121/169 161/100/161 159/103/159 167/122/167
f 92/205/92 100/206/100 102/207/102 94/208/94
f 94/191/94 102/209/102 101/210/101 93/192/93
f 93/192/93 101/210/101 99/211/99 91/193/91
f 104/212/104 96/213/96 98/214/98 106/215/106
f 106/215/106 98/214/98 97/216/97 105/217/105
f 105/218/105 97/203/97 95/204/95 103/219/103
f 100/206/100 108/220/108 110/221/110 102/207/102
f 102/209/102 110/222/110 109/223/109 101/210/101
f 101/210/101 109/223/109 107/224/107 99/211/99
f 112/225/112 104/212/104 106/215/106 114/226/114
f 114/226/114 106/215/106 105/217/105 113/227/113
f 113/228/113 105/218/105 103/219/103 111/229/111
f 155/130/155 164/154/164 166/157/166 157/131/157
f 157/131/157 166/157/166 165/159/165 158/133/158
f 158/136/158 165/160/165 163/163/163 156/137/156
f 108/220/108 116/230/116 118/231/118 110/221/110
f 110/222/110 118/232/118 117/233/117 109/223/109
f 109/223/109 117/233/117 115/234/115 107/224/107
f 140/235/140 148/236/148 150/237/150 142/238/142
f 142/238/142 150/237/150 149/239/149 141/240/141
f 141/241/141 149/135/149 147/138/147 139/242/139
f 120/243/120 112/225/112 114/226/114 122/244/122
f 122/244/122 114/226/114 113/227/113 121/245/121
f 121/246/121 113/228/113 111/229/111 119/247/119
f 116/248/116 124/249/124 126/250/126 118/251/118
f 118/232/118 126/252/126 125/253/125 117/233/117
f 117/233/117 125/253/125 123/254/123 115/234/115
f 128/255/128 120/256/120 122/257/122 130/258/130
f 130/258/130 122/257/122 121/259/121 129/260/129
f 129/261/129 121/246/121 119/247/119 127/262/127
f 124/249/124 132/263/132 134/264/134 126/250/126
f 126/252/126 134/265/134 133/266/133 125/253/125
f 125/253/125 133/266/133 131/267/131 123/254/123
f 136/268/136 128/255/128 130/258/130 138/269/138
f 138/269/138 130/258/130 129/260/129 137/270/137
f 137/271/137 129/261/129 127/262/127 135/272/135
f 132/263/132 44/273/44 46/274/46 134/264/134
f 134/265/134 46/88/46 45/91/45 133/266/133
f 133/266/133 45/91/45 43/93/43 131/267/131
f 48/275/48 136/268/136 138/269/138 50/276/50
f 50/276/50 138/269/138 137/270/137 49/277/49
f 49/111/49 137/271/137 135/272/135 47/112/47
f 172/155/172 180/278/180 182/279/182 174/156/174
f 174/156/174 182/279/182 181/280/181 173/158/173
f 173/161/173 181/281/181 179/282/179 171/162/171
f 184/283/184 176/114/176 178/117/178 186/284/186
f 186/284/186 178/117/178 177/119/177 185/285/185
f 185/286/185 177/120/177 175/123/175 183/287/183
f 180/288/180 188/289/188 190/290/190 182/291/182
f 182/291/182 190/290/190 189/292/189 181/293/181
f 181/281/181 189/294/189 187/295/187 179/282/179
f 192/296/192 184/297/184 186/298/186 194/299/194
f 194/299/194 186/298/186 185/300/185 193/301/193
f 193/302/193 185/286/185 183/287/183 191/303/191
f 188/304/188 196/305/196 198/306/198 190/307/190
f 190/307/190 198/306/198 197/308/197 189/309/189
f 189/294/189 197/310/197 195/311/195 187/295/187
f 200/312/200 192/313/192 194/314/194 202/315/202
f 202/316/202 194/317/194 193/302/193 201/318/201
f 201/318/201 193/302/193 191/303/191 199/319/199
f 196/320/196 204/321/204 206/322/206 198/323/198
f 198/323/198 206/322/206 205/324/205 197/325/197
f 197/310/197 205/326/205 203/327/203 195/311/195
f 208/328/208 200/329/200 202/330/202 210/331/210
f 210/332/210 202/316/202 201/318/201 209/333/209
f 209/333/209 201/318/201 199/319/199 207/334/207
f 204/321/204 212/335/212 214/336/214 206/322/206
f 206/322/206 214/336/214 213/337/213 205/324/205
f 205/326/205 213/338/213 211/339/211 203/327/203
f 216/340/216 208/328/208 210/331/210 218/341/218
f 218/342/218 210/332/210 209/333/209 217/343/217
f 217/343/217 209/333/209 207/334/207 215/344/215
f 212/335/212 220/345/220 222/346/222 214/336/214
f 214/336/214 222/346/222 221/347/221 213/337/213
f 213/338/213 221/348/221 219/349/219 211/339/211
f 224/350/224 216/340/216 218/341/218 226/351/226
f 226/352/226 218/342/218 217/343/217 225/353/225
f 225/353/225 217/343/217 215/344/215 223/354/223
f 220/345/220 228/355/228 230/356/230 222/346/222
f 222/346/222 230/356/230 229/357/229 221/347/221
f 221/348/221 229/358/229 227/359/227 219/349/219
f 232/360/232 224/350/224 226/351/226 234/361/234
f 234/362/234 226/352/226 225/353/225 233/363/233
f 233/363/233 225/353/225 223/354/223 231/364/231
f 228/365/228 140/366/140 142/367/142 230/368/230
f 230/368/230 142/367/142 141/241/141 229/358/229
f 229/358/229 141/241/141 139/242/139 227/359/227
f 144/369/144 232/370/232 234/371/234 146/372/146
f 146/196/146 234/362/234 233/363/233 145/198/145
f 145/198/145 233/363/233 231/364/231 143/199/143
f 43/93/43 51/92/51 59/128/59 67/148/67 75/170/75 83/183/83 91/193/91 99/211/99 107/224/107 115/234/115 123/254/123 131/267/131
f 44/84/44 48/105/48 56/104/56 52/85/52
f 132/263/132 136/268/136 48/275/48 44/273/44
f 55/113/55 47/112/47 135/272/135 127/262/127 119/247/119 111/229/111 103/219/103 95/204/95 87/188/87 79/178/79 71/153/71 63/143/63
f 52/85/52 56/104/56 64/139/64 60/124/60
f 60/124/60 64/139/64 72/149/72 68/144/68
f 68/164/68 72/172/72 80/171/80 76/165/76
f 76/165/76 80/171/80 88/184/88 84/179/84
f 84/179/84 88/184/88 96/200/96 92/189/92
f 92/205/92 96/213/96 104/212/104 100/206/100
f 100/206/100 104/212/104 112/225/112 108/220/108
f 108/220/108 112/225/112 120/243/120 116/230/116
f 116/248/116 120/256/120 128/255/128 124/249/124
f 124/249/124 128/255/128 136/268/136 132/263/132
f 228/365/228 232/370/232 144/369/144 140/366/140
f 140/235/140 144/195/144 152/194/152 148/236/148
f 195/311/195 203/327/203 211/339/211 219/349/219 227/359/227 139/242/139 147/138/147 156/137/156 163/163/163 171/162/171 179/282/179 187/295/187
f 175/123/175 167/122/167 159/103/159 151/102/151 143/199/143 231/364/231 223/354/223 215/344/215 207/334/207 199/319/199 191/303/191 183/287/183
f 148/129/148 152/95/152 160/94/160 155/130/155
f 155/130/155 160/94/160 168/115/168 164/154/164
f 164/154/164 168/115/168 176/114/176 172/155/172
f 172/155/172 176/114/176 184/283/184 180/278/180
f 180/288/180 184/297/184 192/296/192 188/289/188
f 188/304/188 192/313/192 200/312/200 196/305/196
f 196/320/196 200/329/200 208/328/208 204/321/204
f 204/321/204 208/328/208 216/340/216 212/335/212
f 212/335/212 216/340/216 224/350/224 220/345/220
f 220/345/220 224/350/224 232/360/232 228/355/228
