# Blender 5.0.1
# www.blender.org
mtllib BB_PROP_WallSwitch.mtl
o BB_PROP_WallSwitch
v 11.910000 -0.040000 -0.150000
v 11.910000 -0.050000 -0.140000
v 11.900000 -0.040000 -0.140000
v 11.910000 -0.044993 -0.148664
v 11.905006 -0.040000 -0.148664
v 11.905218 -0.044782 -0.147366
v 11.905006 -0.048664 -0.140000
v 11.910000 -0.048664 -0.144993
v 11.905218 -0.047366 -0.144782
v 11.901336 -0.040000 -0.144993
v 11.901336 -0.044993 -0.140000
v 11.902634 -0.044782 -0.144782
v 11.910000 -0.050000 0.140000
v 11.910000 -0.040000 0.150000
v 11.900000 -0.040000 0.140000
v 11.910000 -0.048664 0.144993
v 11.905006 -0.048664 0.140000
v 11.905218 -0.047366 0.144782
v 11.905006 -0.040000 0.148664
v 11.910000 -0.044993 0.148664
v 11.905218 -0.044782 0.147366
v 11.901336 -0.044993 0.140000
v 11.901336 -0.040000 0.144993
v 11.902634 -0.044782 0.144782
v 11.910000 0.040000 -0.150000
v 11.900000 0.040000 -0.140000
v 11.910000 0.050000 -0.140000
v 11.905006 0.040000 -0.148664
v 11.910000 0.044993 -0.148664
v 11.905218 0.044782 -0.147366
v 11.901336 0.044993 -0.140000
v 11.901336 0.040000 -0.144993
v 11.902634 0.044782 -0.144782
v 11.910000 0.048664 -0.144993
v 11.905006 0.048664 -0.140000
v 11.905218 0.047366 -0.144782
v 11.910000 0.040000 0.150000
v 11.910000 0.050000 0.140000
v 11.900000 0.040000 0.140000
v 11.910000 0.044993 0.148664
v 11.905006 0.040000 0.148664
v 11.905218 0.044782 0.147366
v 11.905006 0.048664 0.140000
v 11.910000 0.048664 0.144993
v 11.905218 0.047366 0.144782
v 11.901336 0.040000 0.144993
v 11.901336 0.044993 0.140000
v 11.902634 0.044782 0.144782
v 12.090000 -0.040000 -0.150000
v 12.100000 -0.040000 -0.140000
v 12.090000 -0.050000 -0.140000
v 12.094994 -0.040000 -0.148664
v 12.090000 -0.044993 -0.148664
v 12.094782 -0.044782 -0.147366
v 12.098664 -0.044993 -0.140000
v 12.098664 -0.040000 -0.144993
v 12.097366 -0.044782 -0.144782
v 12.090000 -0.048664 -0.144993
v 12.094994 -0.048664 -0.140000
v 12.094782 -0.047366 -0.144782
v 12.090000 -0.040000 0.150000
v 12.090000 -0.050000 0.140000
v 12.100000 -0.040000 0.140000
v 12.090000 -0.044993 0.148664
v 12.094994 -0.040000 0.148664
v 12.094782 -0.044782 0.147366
v 12.094994 -0.048664 0.140000
v 12.090000 -0.048664 0.144993
v 12.094782 -0.047366 0.144782
v 12.098664 -0.040000 0.144993
v 12.098664 -0.044993 0.140000
v 12.097366 -0.044782 0.144782
v 12.090000 0.040000 -0.150000
v 12.090000 0.050000 -0.140000
v 12.100000 0.040000 -0.140000
v 12.090000 0.044993 -0.148664
v 12.094994 0.040000 -0.148664
v 12.094782 0.044782 -0.147366
v 12.094994 0.048664 -0.140000
v 12.090000 0.048664 -0.144993
v 12.094782 0.047366 -0.144782
v 12.098664 0.040000 -0.144993
v 12.098664 0.044993 -0.140000
v 12.097366 0.044782 -0.144782
v 12.090000 0.040000 0.150000
v 12.100000 0.040000 0.140000
v 12.090000 0.050000 0.140000
v 12.094994 0.040000 0.148664
v 12.090000 0.044993 0.148664
v 12.094782 0.044782 0.147366
v 12.098664 0.044993 0.140000
v 12.098664 0.040000 0.144993
v 12.097366 0.044782 0.144782
v 12.090000 0.048664 0.144993
v 12.094994 0.048664 0.140000
v 12.094782 0.047366 0.144782
v 11.985000 -0.140000 0.000000
v 11.985000 -0.150000 0.010000
v 11.975000 -0.140000 0.010000
v 11.985000 -0.144993 0.001336
v 11.980006 -0.140000 0.001336
v 11.980218 -0.144782 0.002634
v 11.980006 -0.148664 0.010000
v 11.985000 -0.148664 0.005007
v 11.980218 -0.147366 0.005218
v 11.976336 -0.140000 0.005007
v 11.976336 -0.144993 0.010000
v 11.977633 -0.144782 0.005218
v 11.985000 -0.150000 0.190000
v 11.985000 -0.140000 0.200000
v 11.975000 -0.140000 0.190000
v 11.985000 -0.148664 0.194993
v 11.980006 -0.148664 0.190000
v 11.980218 -0.147366 0.194782
v 11.980006 -0.140000 0.198664
v 11.985000 -0.144993 0.198664
v 11.980218 -0.144782 0.197366
v 11.976336 -0.144993 0.190000
v 11.976336 -0.140000 0.194993
v 11.977633 -0.144782 0.194782
v 11.985000 -0.060000 0.000000
v 11.975000 -0.060000 0.010000
v 11.985000 -0.050000 0.010000
v 11.980006 -0.060000 0.001336
v 11.985000 -0.055007 0.001336
v 11.980218 -0.055218 0.002634
v 11.976336 -0.055007 0.010000
v 11.976336 -0.060000 0.005007
v 11.977633 -0.055218 0.005218
v 11.985000 -0.051336 0.005007
v 11.980006 -0.051336 0.010000
v 11.980218 -0.052634 0.005218
v 11.985000 -0.060000 0.200000
v 11.985000 -0.050000 0.190000
v 11.975000 -0.060000 0.190000
v 11.985000 -0.055007 0.198664
v 11.980006 -0.060000 0.198664
v 11.980218 -0.055218 0.197366
v 11.980006 -0.051336 0.190000
v 11.985000 -0.051336 0.194993
v 11.980218 -0.052634 0.194782
v 11.976336 -0.060000 0.194993
v 11.976336 -0.055007 0.190000
v 11.977633 -0.055218 0.194782
v 12.015000 -0.140000 0.000000
v 12.025000 -0.140000 0.010000
v 12.015000 -0.150000 0.010000
v 12.019994 -0.140000 0.001336
v 12.015000 -0.144993 0.001336
v 12.019782 -0.144782 0.002634
v 12.023664 -0.144993 0.010000
v 12.023664 -0.140000 0.005007
v 12.022367 -0.144782 0.005218
v 12.015000 -0.148664 0.005007
v 12.019994 -0.148664 0.010000
v 12.019782 -0.147366 0.005218
v 12.015000 -0.140000 0.200000
v 12.015000 -0.150000 0.190000
v 12.025000 -0.140000 0.190000
v 12.015000 -0.144993 0.198664
v 12.019994 -0.140000 0.198664
v 12.019782 -0.144782 0.197366
v 12.019994 -0.148664 0.190000
v 12.015000 -0.148664 0.194993
v 12.019782 -0.147366 0.194782
v 12.023664 -0.140000 0.194993
v 12.023664 -0.144993 0.190000
v 12.022367 -0.144782 0.194782
v 12.015000 -0.060000 0.000000
v 12.015000 -0.050000 0.010000
v 12.025000 -0.060000 0.010000
v 12.015000 -0.055007 0.001336
v 12.019994 -0.060000 0.001336
v 12.019782 -0.055218 0.002634
v 12.019994 -0.051336 0.010000
v 12.015000 -0.051336 0.005007
v 12.019782 -0.052634 0.005218
v 12.023664 -0.060000 0.005007
v 12.023664 -0.055007 0.010000
v 12.022367 -0.055218 0.005218
v 12.015000 -0.060000 0.200000
v 12.025000 -0.060000 0.190000
v 12.015000 -0.050000 0.190000
v 12.019994 -0.060000 0.198664
v 12.015000 -0.055007 0.198664
v 12.019782 -0.055218 0.197366
v 12.023664 -0.055007 0.190000
v 12.023664 -0.060000 0.194993
v 12.022367 -0.055218 0.194782
v 12.015000 -0.051336 0.194993
v 12.019994 -0.051336 0.190000
v 12.019782 -0.052634 0.194782
vn -0.1296 -0.1296 -0.9831
vn -0.1296 -0.9831 -0.1296
vn -0.9831 -0.1296 -0.1296
vn -0.1216 -0.4915 -0.8623
vn -0.4915 -0.1216 -0.8623
vn -0.4473 -0.4473 -0.7744
vn -0.4915 -0.8623 -0.1216
vn -0.1216 -0.8623 -0.4915
vn -0.4473 -0.7744 -0.4473
vn -0.8623 -0.1216 -0.4915
vn -0.8623 -0.4915 -0.1216
vn -0.7744 -0.4473 -0.4473
vn -0.1296 -0.9831 0.1296
vn -0.1296 -0.1296 0.9831
vn -0.9831 -0.1296 0.1296
vn -0.1216 -0.8623 0.4915
vn -0.4915 -0.8623 0.1216
vn -0.4473 -0.7744 0.4473
vn -0.4915 -0.1216 0.8623
vn -0.1216 -0.4915 0.8623
vn -0.4473 -0.4473 0.7744
vn -0.8623 -0.4915 0.1216
vn -0.8623 -0.1216 0.4915
vn -0.7744 -0.4473 0.4473
vn -0.1296 0.1296 -0.9831
vn -0.9831 0.1296 -0.1296
vn -0.1296 0.9831 -0.1296
vn -0.4915 0.1216 -0.8623
vn -0.1216 0.4915 -0.8623
vn -0.4473 0.4473 -0.7744
vn -0.8623 0.4915 -0.1216
vn -0.8623 0.1216 -0.4915
vn -0.7744 0.4473 -0.4473
vn -0.1216 0.8623 -0.4915
vn -0.4915 0.8623 -0.1216
vn -0.4473 0.7744 -0.4473
vn -0.1296 0.1296 0.9831
vn -0.1296 0.9831 0.1296
vn -0.9831 0.1296 0.1296
vn -0.1216 0.4915 0.8623
vn -0.4915 0.1216 0.8623
vn -0.4473 0.4473 0.7744
vn -0.4915 0.8623 0.1216
vn -0.1216 0.8623 0.4915
vn -0.4473 0.7744 0.4473
vn -0.8623 0.1216 0.4915
vn -0.8623 0.4915 0.1216
vn -0.7744 0.4473 0.4473
vn 0.1296 -0.1296 -0.9831
vn 0.9831 -0.1296 -0.1296
vn 0.1296 -0.9831 -0.1296
vn 0.4915 -0.1216 -0.8623
vn 0.1216 -0.4915 -0.8623
vn 0.4473 -0.4473 -0.7744
vn 0.8623 -0.4915 -0.1216
vn 0.8623 -0.1216 -0.4915
vn 0.7744 -0.4473 -0.4473
vn 0.1216 -0.8623 -0.4915
vn 0.4915 -0.8623 -0.1216
vn 0.4473 -0.7744 -0.4473
vn 0.1296 -0.1296 0.9831
vn 0.1296 -0.9831 0.1296
vn 0.9831 -0.1296 0.1296
vn 0.1216 -0.4915 0.8623
vn 0.4915 -0.1216 0.8623
vn 0.4473 -0.4473 0.7744
vn 0.4915 -0.8623 0.1216
vn 0.1216 -0.8623 0.4915
vn 0.4473 -0.7744 0.4473
vn 0.8623 -0.1216 0.4915
vn 0.8623 -0.4915 0.1216
vn 0.7744 -0.4473 0.4473
vn 0.1296 0.1296 -0.9831
vn 0.1296 0.9831 -0.1296
vn 0.9831 0.1296 -0.1296
vn 0.1216 0.4915 -0.8623
vn 0.4915 0.1216 -0.8623
vn 0.4473 0.4473 -0.7744
vn 0.4915 0.8623 -0.1216
vn 0.1216 0.8623 -0.4915
vn 0.4473 0.7744 -0.4473
vn 0.8623 0.1216 -0.4915
vn 0.8623 0.4915 -0.1216
vn 0.7744 0.4473 -0.4473
vn 0.1296 0.1296 0.9831
vn 0.9831 0.1296 0.1296
vn 0.1296 0.9831 0.1296
vn 0.4915 0.1216 0.8623
vn 0.1216 0.4915 0.8623
vn 0.4473 0.4473 0.7744
vn 0.8623 0.4915 0.1216
vn 0.8623 0.1216 0.4915
vn 0.7744 0.4473 0.4473
vn 0.1216 0.8623 0.4915
vn 0.4915 0.8623 0.1216
vn 0.4473 0.7744 0.4473
vt 0.188760 0.516381
vt 0.180580 0.516381
vt 0.180926 0.508548
vt 0.188760 0.508201
vt 0.172378 0.516381
vt 0.172378 0.508548
vt 0.647430 0.477907
vt 0.655609 0.477907
vt 0.655263 0.494288
vt 0.647430 0.494288
vt 0.663811 0.477907
vt 0.663811 0.494288
vt 0.685904 0.477907
vt 0.685904 0.494288
vt 0.678070 0.494288
vt 0.669523 0.477907
vt 0.188760 0.500000
vt 0.180926 0.500000
vt 0.647430 0.019237
vt 0.647430 0.011057
vt 0.655263 0.011403
vt 0.655609 0.019237
vt 0.647430 0.002856
vt 0.655263 0.002856
vt 0.358282 0.811240
vt 0.358282 0.819420
vt 0.341901 0.819074
vt 0.341901 0.811240
vt 0.358282 0.827622
vt 0.341901 0.827622
vt 0.685904 0.019237
vt 0.669523 0.019237
vt 0.669523 0.011403
vt 0.685904 0.002856
vt 0.663811 0.019237
vt 0.663811 0.011403
vt 0.319808 0.516381
vt 0.319808 0.508201
vt 0.327642 0.508548
vt 0.327988 0.516381
vt 0.319808 0.500000
vt 0.327642 0.500000
vt 0.816952 0.477907
vt 0.833333 0.477907
vt 0.824786 0.494288
vt 0.816952 0.494288
vt 0.002856 0.477907
vt 0.011057 0.477907
vt 0.011403 0.494288
vt 0.002856 0.494288
vt 0.019237 0.477907
vt 0.019237 0.494288
vt 0.336189 0.516381
vt 0.336189 0.508547
vt 0.489331 0.811240
vt 0.505712 0.811240
vt 0.505712 0.819074
vt 0.489331 0.819420
vt 0.019237 0.002856
vt 0.019237 0.011057
vt 0.011403 0.011403
vt 0.011403 0.002856
vt 0.019237 0.019237
vt 0.011057 0.019237
vt 0.002856 0.019237
vt 0.002856 0.011403
vt 0.816952 0.019237
vt 0.816952 0.002856
vt 0.833333 0.011403
vt 0.833333 0.019237
vt 0.489331 0.827622
vt 0.505712 0.827622
vt 0.188760 0.811240
vt 0.188760 0.819420
vt 0.180926 0.819074
vt 0.180580 0.811240
vt 0.188760 0.827622
vt 0.180926 0.827622
vt 0.150286 0.975051
vt 0.158465 0.975051
vt 0.158119 0.991432
vt 0.150286 0.991432
vt 0.166667 0.975051
vt 0.166667 0.991432
vt 0.352570 0.477907
vt 0.352570 0.494288
vt 0.344737 0.494288
vt 0.336189 0.477907
vt 0.172378 0.811240
vt 0.172378 0.819074
vt 0.358282 0.516381
vt 0.341901 0.516381
vt 0.341901 0.508547
vt 0.358282 0.500000
vt 0.352570 0.002856
vt 0.352570 0.011057
vt 0.344737 0.011403
vt 0.344737 0.002856
vt 0.352570 0.019237
vt 0.336189 0.019237
vt 0.166667 0.516381
vt 0.158465 0.516381
vt 0.158119 0.508548
vt 0.162352 0.508548
vt 0.150286 0.516381
vt 0.150286 0.508201
vt 0.150286 0.500000
vt 0.166667 0.500000
vt 0.340503 0.011403
vt 0.319808 0.811240
vt 0.327988 0.811240
vt 0.327642 0.819074
vt 0.319808 0.819420
vt 0.336189 0.811240
vt 0.336189 0.819074
vt 0.314096 0.477907
vt 0.330477 0.477907
vt 0.321930 0.494288
vt 0.314096 0.494288
vt 0.002856 0.975051
vt 0.011057 0.975051
vt 0.011403 0.991432
vt 0.002856 0.991432
vt 0.019237 0.975051
vt 0.019237 0.991432
vt 0.319808 0.827622
vt 0.327642 0.827622
vt 0.489331 0.516381
vt 0.489331 0.500000
vt 0.497164 0.500000
vt 0.505712 0.516381
vt 0.019237 0.500000
vt 0.019237 0.508201
vt 0.011403 0.508548
vt 0.011403 0.500000
vt 0.019237 0.516381
vt 0.011057 0.516381
vt 0.002856 0.516381
vt 0.002856 0.508547
vt 0.314096 0.019237
vt 0.314096 0.011057
vt 0.330477 0.011403
vt 0.330477 0.019237
vt 0.314096 0.002856
vt 0.330477 0.002856
vt 0.237903 0.849714
vt 0.237903 0.833333
vt 0.245736 0.833333
vt 0.254284 0.849714
vt 0.915993 0.827622
vt 0.915993 0.819420
vt 0.923827 0.819074
vt 0.923827 0.827622
vt 0.915993 0.811240
vt 0.932374 0.811240
vt 0.511424 0.811240
vt 0.519625 0.811241
vt 0.519971 0.819074
vt 0.515738 0.819074
vt 0.527805 0.811240
vt 0.527805 0.819420
vt 0.527805 0.827622
vt 0.511424 0.827622
vt 0.928060 0.819074
vt 0.915993 0.516381
vt 0.915993 0.500000
vt 0.923827 0.500000
vt 0.932374 0.516381
vt 0.276377 0.833333
vt 0.276377 0.841535
vt 0.268543 0.841881
vt 0.268543 0.833333
vt 0.276377 0.849714
vt 0.268197 0.849714
vt 0.259996 0.849714
vt 0.259996 0.841881
vt 0.527805 0.516381
vt 0.519625 0.516381
vt 0.519971 0.500000
vt 0.527805 0.500000
vt 0.511424 0.516381
vt 0.511424 0.500000
vt 0.237903 0.980763
vt 0.254284 0.980763
vt 0.254284 0.988597
vt 0.237903 0.997144
vt 0.658853 0.827622
vt 0.658853 0.819420
vt 0.666687 0.819074
vt 0.666687 0.827622
vt 0.658853 0.811241
vt 0.667033 0.811240
vt 0.675234 0.811240
vt 0.675234 0.819074
vt 0.855426 0.314096
vt 0.855426 0.322276
vt 0.839045 0.321930
vt 0.839045 0.314096
vt 0.855426 0.330477
vt 0.839045 0.330477
vt 0.276377 0.980763
vt 0.276377 0.988943
vt 0.268543 0.988597
vt 0.268197 0.980763
vt 0.276377 0.997144
vt 0.268543 0.997144
vt 0.855426 0.019237
vt 0.839045 0.019237
vt 0.847593 0.002856
vt 0.855426 0.002856
vt 0.675234 0.516381
vt 0.667033 0.516381
vt 0.666687 0.500000
vt 0.675234 0.500000
vt 0.658853 0.516381
vt 0.658853 0.500000
vt 0.259996 0.980763
vt 0.259996 0.988597
vt 0.188760 0.849714
vt 0.172378 0.849714
vt 0.172378 0.841881
vt 0.188760 0.833333
vt 0.828376 0.827622
vt 0.828376 0.819420
vt 0.836210 0.819074
vt 0.836209 0.827622
vt 0.828376 0.811240
vt 0.836556 0.811240
vt 0.844757 0.811240
vt 0.844757 0.819074
vt 0.866850 0.811240
vt 0.866850 0.819420
vt 0.850469 0.819074
vt 0.850469 0.811240
vt 0.866850 0.827622
vt 0.850469 0.827622
vt 0.325520 0.849714
vt 0.325520 0.841535
vt 0.333354 0.841881
vt 0.333700 0.849714
vt 0.325520 0.833333
vt 0.333354 0.833333
vt 0.866850 0.516381
vt 0.850469 0.516381
vt 0.859016 0.500000
vt 0.866850 0.500000
vt 0.844757 0.516381
vt 0.836556 0.516381
vt 0.836210 0.500000
vt 0.844757 0.500000
vt 0.828376 0.516381
vt 0.828376 0.500000
vt 0.341901 0.849714
vt 0.341901 0.841881
vt 0.188760 0.980763
vt 0.188760 0.997144
vt 0.180926 0.997144
vt 0.172378 0.980763
vt 0.904569 0.330477
vt 0.904569 0.322276
vt 0.912403 0.321930
vt 0.912403 0.330477
vt 0.904569 0.314096
vt 0.912749 0.314096
vt 0.920950 0.314096
vt 0.920950 0.321930
vt 0.697327 0.811241
vt 0.697327 0.819420
vt 0.680946 0.819074
vt 0.680946 0.811240
vt 0.697327 0.827622
vt 0.680946 0.827622
vt 0.325520 0.980763
vt 0.333700 0.980763
vt 0.333354 0.988597
vt 0.325520 0.988943
vt 0.341901 0.980763
vt 0.341901 0.988597
vt 0.697327 0.516381
vt 0.680946 0.516381
vt 0.689494 0.500000
vt 0.697327 0.500000
vt 0.920951 0.019237
vt 0.912749 0.019237
vt 0.912403 0.002856
vt 0.920950 0.002856
vt 0.904569 0.019237
vt 0.904569 0.002856
vt 0.325520 0.997144
vt 0.333354 0.997144
s 1
usemtl BB_OxidizedIron
f 1/1/1 4/2/4 6/3/6 5/4/5
f 4/2/4 8/5/8 9/6/9 6/3/6
f 2/7/2 7/8/7 9/9/9 8/10/8
f 7/8/7 11/11/11 12/12/12 9/9/9
f 3/13/3 10/14/10 12/15/12 11/16/11
f 10/17/10 5/4/5 6/3/6 12/18/12
f 6/3/6 9/6/9 12/18/12
f 13/19/13 16/20/16 18/21/18 17/22/17
f 16/20/16 20/23/20 21/24/21 18/21/18
f 14/25/14 19/26/19 21/27/21 20/28/20
f 19/26/19 23/29/23 24/30/24 21/27/21
f 15/31/15 22/32/22 24/33/24 23/34/23
f 22/35/22 17/22/17 18/21/18 24/36/24
f 18/21/18 21/24/21 24/36/24
f 25/37/25 28/38/28 30/39/30 29/40/29
f 28/38/28 32/41/32 33/42/33 30/39/30
f 26/43/26 31/44/31 33/45/33 32/46/32
f 31/47/31 35/48/35 36/49/36 33/50/33
f 27/51/27 34/52/34 36/49/36 35/48/35
f 34/53/34 29/40/29 30/39/30 36/54/36
f 30/39/30 33/42/33 36/54/36
f 37/55/37 40/56/40 42/57/42 41/58/41
f 40/59/40 44/60/44 45/61/45 42/62/42
f 38/63/38 43/64/43 45/61/45 44/60/44
f 43/64/43 47/65/47 48/66/48 45/61/45
f 39/67/39 46/68/46 48/69/48 47/70/47
f 46/71/46 41/58/41 42/57/42 48/72/48
f 42/62/42 45/61/45 48/66/48
f 49/73/49 52/74/52 54/75/54 53/76/53
f 52/74/52 56/77/56 57/78/57 54/75/54
f 50/79/50 55/80/55 57/81/57 56/82/56
f 55/80/55 59/83/59 60/84/60 57/81/57
f 51/85/51 58/86/58 60/87/60 59/88/59
f 58/89/58 53/76/53 54/75/54 60/90/60
f 54/75/54 57/78/57 60/90/60
f 61/91/61 64/92/64 66/93/66 65/94/65
f 64/95/64 68/96/68 69/97/69 66/98/66
f 62/99/62 67/100/67 69/97/69 68/96/68
f 67/101/67 71/102/71 72/103/72 69/104/69
f 63/105/63 70/106/70 72/103/72 71/102/71
f 70/106/70 65/107/65 66/108/66 72/103/72
f 66/98/66 69/97/69 72/109/72
f 73/110/73 76/111/76 78/112/78 77/113/77
f 76/111/76 80/114/80 81/115/81 78/112/78
f 74/116/74 79/117/79 81/118/81 80/119/80
f 79/120/79 83/121/83 84/122/84 81/123/81
f 75/124/75 82/125/82 84/122/84 83/121/83
f 82/126/82 77/113/77 78/112/78 84/127/84
f 78/112/78 81/115/81 84/127/84
f 85/128/85 88/129/88 90/130/90 89/131/89
f 88/132/88 92/133/92 93/134/93 90/135/90
f 86/136/86 91/137/91 93/134/93 92/133/92
f 91/137/91 95/138/95 96/139/96 93/134/93
f 87/140/87 94/141/94 96/142/96 95/143/95
f 94/141/94 89/144/89 90/145/90 96/142/96
f 90/135/90 93/134/93 96/139/96
f 97/146/1 100/147/4 102/148/6 101/149/5
f 100/150/4 104/151/8 105/152/9 102/153/6
f 98/154/2 103/155/7 105/152/9 104/151/8
f 103/156/7 107/157/11 108/158/12 105/159/9
f 99/160/3 106/161/10 108/158/12 107/157/11
f 106/161/10 101/162/5 102/163/6 108/158/12
f 102/153/6 105/152/9 108/164/12
f 109/165/13 112/166/16 114/167/18 113/168/17
f 112/169/16 116/170/20 117/171/21 114/172/18
f 110/173/14 115/174/19 117/171/21 116/170/20
f 115/174/19 119/175/23 120/176/24 117/171/21
f 111/177/15 118/178/22 120/179/24 119/180/23
f 118/178/22 113/181/17 114/182/18 120/179/24
f 114/172/18 117/171/21 120/176/24
f 121/183/25 124/184/28 126/185/30 125/186/29
f 124/187/28 128/188/32 129/189/33 126/190/30
f 122/191/26 127/192/31 129/189/33 128/188/32
f 127/192/31 131/193/35 132/194/36 129/189/33
f 123/195/27 130/196/34 132/197/36 131/198/35
f 130/196/34 125/199/29 126/200/30 132/197/36
f 126/190/30 129/189/33 132/194/36
f 133/201/37 136/202/40 138/203/42 137/204/41
f 136/202/40 140/205/44 141/206/45 138/203/42
f 134/207/38 139/208/43 141/209/45 140/210/44
f 139/211/43 143/212/47 144/213/48 141/214/45
f 135/215/39 142/216/46 144/213/48 143/212/47
f 142/217/46 137/204/41 138/203/42 144/218/48
f 138/203/42 141/206/45 144/218/48
f 145/219/49 148/220/52 150/221/54 149/222/53
f 148/223/52 152/224/56 153/225/57 150/226/54
f 146/227/50 151/228/55 153/225/57 152/224/56
f 151/228/55 155/229/59 156/230/60 153/225/57
f 147/231/51 154/232/58 156/233/60 155/234/59
f 154/232/58 149/235/53 150/236/54 156/233/60
f 150/226/54 153/225/57 156/230/60
f 157/237/61 160/238/64 162/239/66 161/240/65
f 160/238/64 164/241/68 165/242/69 162/239/66
f 158/243/62 163/244/67 165/245/69 164/246/68
f 163/247/67 167/248/71 168/249/72 165/250/69
f 159/251/63 166/252/70 168/249/72 167/248/71
f 166/253/70 161/240/65 162/239/66 168/254/72
f 162/239/66 165/242/69 168/254/72
f 169/255/73 172/256/76 174/257/78 173/258/77
f 172/259/76 176/260/80 177/261/81 174/262/78
f 170/263/74 175/264/79 177/261/81 176/260/80
f 175/264/79 179/265/83 180/266/84 177/261/81
f 171/267/75 178/268/82 180/269/84 179/270/83
f 178/268/82 173/271/77 174/272/78 180/269/84
f 174/262/78 177/261/81 180/266/84
f 181/273/85 184/274/88 186/275/90 185/276/89
f 184/274/88 188/277/92 189/278/93 186/275/90
f 182/279/86 187/280/91 189/281/93 188/282/92
f 187/283/91 191/284/95 192/285/96 189/286/93
f 183/287/87 190/288/94 192/285/96 191/284/95
f 190/289/94 185/276/89 186/275/90 192/290/96
f 186/275/90 189/278/93 192/290/96
f 25/37/25 1/1/1 5/4/5 28/38/28
f 28/38/28 5/4/5 10/17/10 32/41/32
f 32/46/32 10/14/10 3/13/3 26/43/26
f 2/7/2 13/19/13 17/22/17 7/8/7
f 7/8/7 17/22/17 22/35/22 11/11/11
f 11/16/11 22/32/22 15/31/15 3/13/3
f 14/25/14 37/55/37 41/58/41 19/26/19
f 19/26/19 41/58/41 46/71/46 23/29/23
f 23/34/23 46/68/46 39/67/39 15/31/15
f 38/63/38 27/51/27 35/48/35 43/64/43
f 43/64/43 35/48/35 31/47/31 47/65/47
f 47/70/47 31/44/31 26/43/26 39/67/39
f 73/110/73 25/37/25 29/40/29 76/111/76
f 76/111/76 29/40/29 34/53/34 80/114/80
f 80/119/80 34/52/34 27/51/27 74/116/74
f 37/55/37 85/128/85 89/131/89 40/56/40
f 40/59/40 89/144/89 94/141/94 44/60/44
f 44/60/44 94/141/94 87/140/87 38/63/38
f 86/136/86 75/124/75 83/121/83 91/137/91
f 91/137/91 83/121/83 79/120/79 95/138/95
f 95/143/95 79/117/79 74/116/74 87/140/87
f 49/73/49 73/110/73 77/113/77 52/74/52
f 52/74/52 77/113/77 82/126/82 56/77/56
f 56/82/56 82/125/82 75/124/75 50/79/50
f 85/128/85 61/91/61 65/94/65 88/129/88
f 88/132/88 65/107/65 70/106/70 92/133/92
f 92/133/92 70/106/70 63/105/63 86/136/86
f 62/99/62 51/85/51 59/88/59 67/100/67
f 67/101/67 59/83/59 55/80/55 71/102/71
f 71/102/71 55/80/55 50/79/50 63/105/63
f 1/1/1 49/73/49 53/76/53 4/2/4
f 4/2/4 53/76/53 58/89/58 8/5/8
f 8/10/8 58/86/58 51/85/51 2/7/2
f 61/91/61 14/25/14 20/28/20 64/92/64
f 64/95/64 20/23/20 16/20/16 68/96/68
f 68/96/68 16/20/16 13/19/13 62/99/62
f 121/183/25 97/146/1 101/149/5 124/184/28
f 124/187/28 101/162/5 106/161/10 128/188/32
f 128/188/32 106/161/10 99/160/3 122/191/26
f 98/154/2 109/165/13 113/168/17 103/155/7
f 103/156/7 113/181/17 118/178/22 107/157/11
f 107/157/11 118/178/22 111/177/15 99/160/3
f 110/173/14 133/201/37 137/204/41 115/174/19
f 115/174/19 137/204/41 142/217/46 119/175/23
f 119/180/23 142/216/46 135/215/39 111/177/15
f 134/207/38 123/195/27 131/198/35 139/208/43
f 139/211/43 131/193/35 127/192/31 143/212/47
f 143/212/47 127/192/31 122/191/26 135/215/39
f 169/255/73 121/183/25 125/186/29 172/256/76
f 172/259/76 125/199/29 130/196/34 176/260/80
f 176/260/80 130/196/34 123/195/27 170/263/74
f 133/201/37 181/273/85 185/276/89 136/202/40
f 136/202/40 185/276/89 190/289/94 140/205/44
f 140/210/44 190/288/94 183/287/87 134/207/38
f 182/279/86 171/267/75 179/270/83 187/280/91
f 187/283/91 179/265/83 175/264/79 191/284/95
f 191/284/95 175/264/79 170/263/74 183/287/87
f 145/219/49 169/255/73 173/258/77 148/220/52
f 148/223/52 173/271/77 178/268/82 152/224/56
f 152/224/56 178/268/82 171/267/75 146/227/50
f 181/273/85 157/237/61 161/240/65 184/274/88
f 184/274/88 161/240/65 166/253/70 188/277/92
f 188/282/92 166/252/70 159/251/63 182/279/86
f 158/243/62 147/231/51 155/234/59 163/244/67
f 163/247/67 155/229/59 151/228/55 167/248/71
f 167/248/71 151/228/55 146/227/50 159/251/63
f 97/146/1 145/219/49 149/222/53 100/147/4
f 100/150/4 149/235/53 154/232/58 104/151/8
f 104/151/8 154/232/58 147/231/51 98/154/2
f 157/237/61 110/173/14 116/170/20 160/238/64
f 160/238/64 116/170/20 112/169/16 164/241/68
f 164/246/68 112/166/16 109/165/13 158/243/62
f 25/37/25 73/110/73 49/73/49 1/1/1
f 3/13/3 15/31/15 39/67/39 26/43/26
f 51/85/51 62/99/62 13/19/13 2/7/2
f 85/128/85 37/55/37 14/25/14 61/91/61
f 27/51/27 38/63/38 87/140/87 74/116/74
f 75/124/75 86/136/86 63/105/63 50/79/50
f 121/183/25 169/255/73 145/219/49 97/146/1
f 99/160/3 111/177/15 135/215/39 122/191/26
f 147/231/51 158/243/62 109/165/13 98/154/2
f 181/273/85 133/201/37 110/173/14 157/237/61
f 123/195/27 134/207/38 183/287/87 170/263/74
f 171/267/75 182/279/86 159/251/63 146/227/50
