# Blender 5.0.1
# www.blender.org
mtllib BB_PROP_MetalShelf.mtl
o BB_PROP_MetalShelf
v 3.260000 3.710000 -0.025000
v 3.260000 3.700000 -0.015000
v 3.250000 3.710000 -0.015000
v 3.260000 3.705007 -0.023664
v 3.255007 3.710000 -0.023664
v 3.255218 3.705218 -0.022366
v 3.255007 3.701336 -0.015000
v 3.260000 3.701336 -0.019993
v 3.255218 3.702634 -0.019782
v 3.251336 3.710000 -0.019993
v 3.251336 3.705007 -0.015000
v 3.252634 3.705218 -0.019782
v 3.260000 3.700000 0.015000
v 3.260000 3.710000 0.025000
v 3.250000 3.710000 0.015000
v 3.260000 3.701336 0.019993
v 3.255007 3.701336 0.015000
v 3.255218 3.702634 0.019782
v 3.255007 3.710000 0.023664
v 3.260000 3.705007 0.023664
v 3.255218 3.705218 0.022366
v 3.251336 3.705007 0.015000
v 3.251336 3.710000 0.019993
v 3.252634 3.705218 0.019782
v 3.260000 4.290000 -0.025000
v 3.250000 4.290000 -0.015000
v 3.260000 4.300000 -0.015000
v 3.255007 4.290000 -0.023664
v 3.260000 4.294993 -0.023664
v 3.255218 4.294782 -0.022366
v 3.251336 4.294993 -0.015000
v 3.251336 4.290000 -0.019993
v 3.252634 4.294782 -0.019782
v 3.260000 4.298664 -0.019993
v 3.255007 4.298664 -0.015000
v 3.255218 4.297366 -0.019782
v 3.260000 4.290000 0.025000
v 3.260000 4.300000 0.015000
v 3.250000 4.290000 0.015000
v 3.260000 4.294993 0.023664
v 3.255007 4.290000 0.023664
v 3.255218 4.294782 0.022366
v 3.255007 4.298664 0.015000
v 3.260000 4.298664 0.019993
v 3.255218 4.297366 0.019782
v 3.251336 4.290000 0.019993
v 3.251336 4.294993 0.015000
v 3.252634 4.294782 0.019782
v 4.740000 3.710000 -0.025000
v 4.750000 3.710000 -0.015000
v 4.740000 3.700000 -0.015000
v 4.744993 3.710000 -0.023664
v 4.740000 3.705007 -0.023664
v 4.744782 3.705218 -0.022366
v 4.748664 3.705007 -0.015000
v 4.748664 3.710000 -0.019993
v 4.747366 3.705218 -0.019782
v 4.740000 3.701336 -0.019993
v 4.744993 3.701336 -0.015000
v 4.744782 3.702634 -0.019782
v 4.740000 3.710000 0.025000
v 4.740000 3.700000 0.015000
v 4.750000 3.710000 0.015000
v 4.740000 3.705007 0.023664
v 4.744993 3.710000 0.023664
v 4.744782 3.705218 0.022366
v 4.744993 3.701336 0.015000
v 4.740000 3.701336 0.019993
v 4.744782 3.702634 0.019782
v 4.748664 3.710000 0.019993
v 4.748664 3.705007 0.015000
v 4.747366 3.705218 0.019782
v 4.740000 4.290000 -0.025000
v 4.740000 4.300000 -0.015000
v 4.750000 4.290000 -0.015000
v 4.740000 4.294993 -0.023664
v 4.744993 4.290000 -0.023664
v 4.744782 4.294782 -0.022366
v 4.744993 4.298664 -0.015000
v 4.740000 4.298664 -0.019993
v 4.744782 4.297366 -0.019782
v 4.748664 4.290000 -0.019993
v 4.748664 4.294993 -0.015000
v 4.747366 4.294782 -0.019782
v 4.740000 4.290000 0.025000
v 4.750000 4.290000 0.015000
v 4.740000 4.300000 0.015000
v 4.744993 4.290000 0.023664
v 4.740000 4.294993 0.023664
v 4.744782 4.294782 0.022366
v 4.748664 4.294993 0.015000
v 4.748664 4.290000 0.019993
v 4.747366 4.294782 0.019782
v 4.740000 4.298664 0.019993
v 4.744993 4.298664 0.015000
v 4.744782 4.297366 0.019782
v 3.260000 3.700000 0.025000
v 3.260000 3.690000 0.035000
v 3.250000 3.700000 0.035000
v 3.260000 3.695007 0.026336
v 3.255007 3.700000 0.026336
v 3.255218 3.695218 0.027634
v 3.255007 3.691336 0.035000
v 3.260000 3.691336 0.030007
v 3.255218 3.692634 0.030218
v 3.251336 3.700000 0.030007
v 3.251336 3.695007 0.035000
v 3.252634 3.695218 0.030218
v 3.260000 3.690000 0.065000
v 3.260000 3.700000 0.075000
v 3.250000 3.700000 0.065000
v 3.260000 3.691336 0.069993
v 3.255007 3.691336 0.065000
v 3.255218 3.692634 0.069782
v 3.255007 3.700000 0.073664
v 3.260000 3.695007 0.073664
v 3.255218 3.695218 0.072366
v 3.251336 3.695007 0.065000
v 3.251336 3.700000 0.069993
v 3.252634 3.695218 0.069782
v 3.260000 3.700000 0.025000
v 3.250000 3.700000 0.035000
v 3.260000 3.710000 0.035000
v 3.255007 3.700000 0.026336
v 3.260000 3.704993 0.026336
v 3.255218 3.704782 0.027634
v 3.251336 3.704993 0.035000
v 3.251336 3.700000 0.030007
v 3.252634 3.704782 0.030218
v 3.260000 3.708664 0.030007
v 3.255007 3.708664 0.035000
v 3.255218 3.707366 0.030218
v 3.260000 3.700000 0.075000
v 3.260000 3.710000 0.065000
v 3.250000 3.700000 0.065000
v 3.260000 3.704993 0.073664
v 3.255007 3.700000 0.073664
v 3.255218 3.704782 0.072366
v 3.255007 3.708664 0.065000
v 3.260000 3.708664 0.069993
v 3.255218 3.707366 0.069782
v 3.251336 3.700000 0.069993
v 3.251336 3.704993 0.065000
v 3.252634 3.704782 0.069782
v 4.740000 3.700000 0.025000
v 4.750000 3.700000 0.035000
v 4.740000 3.690000 0.035000
v 4.744993 3.700000 0.026336
v 4.740000 3.695007 0.026336
v 4.744782 3.695218 0.027634
v 4.748664 3.695007 0.035000
v 4.748664 3.700000 0.030007
v 4.747366 3.695218 0.030218
v 4.740000 3.691336 0.030007
v 4.744993 3.691336 0.035000
v 4.744782 3.692634 0.030218
v 4.740000 3.700000 0.075000
v 4.740000 3.690000 0.065000
v 4.750000 3.700000 0.065000
v 4.740000 3.695007 0.073664
v 4.744993 3.700000 0.073664
v 4.744782 3.695218 0.072366
v 4.744993 3.691336 0.065000
v 4.740000 3.691336 0.069993
v 4.744782 3.692634 0.069782
v 4.748664 3.700000 0.069993
v 4.748664 3.695007 0.065000
v 4.747366 3.695218 0.069782
v 4.740000 3.700000 0.025000
v 4.740000 3.710000 0.035000
v 4.750000 3.700000 0.035000
v 4.740000 3.704993 0.026336
v 4.744993 3.700000 0.026336
v 4.744782 3.704782 0.027634
v 4.744993 3.708664 0.035000
v 4.740000 3.708664 0.030007
v 4.744782 3.707366 0.030218
v 4.748664 3.700000 0.030007
v 4.748664 3.704993 0.035000
v 4.747366 3.704782 0.030218
v 4.740000 3.700000 0.075000
v 4.750000 3.700000 0.065000
v 4.740000 3.710000 0.065000
v 4.744993 3.700000 0.073664
v 4.740000 3.704993 0.073664
v 4.744782 3.704782 0.072366
v 4.748664 3.704993 0.065000
v 4.748664 3.700000 0.069993
v 4.747366 3.704782 0.069782
v 4.740000 3.708664 0.069993
v 4.744993 3.708664 0.065000
v 4.744782 3.707366 0.069782
v 3.260000 4.300000 0.025000
v 3.260000 4.290000 0.035000
v 3.250000 4.300000 0.035000
v 3.260000 4.295007 0.026336
v 3.255007 4.300000 0.026336
v 3.255218 4.295218 0.027634
v 3.255007 4.291336 0.035000
v 3.260000 4.291336 0.030007
v 3.255218 4.292634 0.030218
v 3.251336 4.300000 0.030007
v 3.251336 4.295007 0.035000
v 3.252634 4.295218 0.030218
v 3.260000 4.290000 0.065000
v 3.260000 4.300000 0.075000
v 3.250000 4.300000 0.065000
v 3.260000 4.291336 0.069993
v 3.255007 4.291336 0.065000
v 3.255218 4.292634 0.069782
v 3.255007 4.300000 0.073664
v 3.260000 4.295007 0.073664
v 3.255218 4.295218 0.072366
v 3.251336 4.295007 0.065000
v 3.251336 4.300000 0.069993
v 3.252634 4.295218 0.069782
v 3.260000 4.300000 0.025000
v 3.250000 4.300000 0.035000
v 3.260000 4.310000 0.035000
v 3.255007 4.300000 0.026336
v 3.260000 4.304994 0.026336
v 3.255218 4.304782 0.027634
v 3.251336 4.304994 0.035000
v 3.251336 4.300000 0.030007
v 3.252634 4.304782 0.030218
v 3.260000 4.308664 0.030007
v 3.255007 4.308664 0.035000
v 3.255218 4.307366 0.030218
v 3.260000 4.300000 0.075000
v 3.260000 4.310000 0.065000
v 3.250000 4.300000 0.065000
v 3.260000 4.304994 0.073664
v 3.255007 4.300000 0.073664
v 3.255218 4.304782 0.072366
v 3.255007 4.308664 0.065000
v 3.260000 4.308664 0.069993
v 3.255218 4.307366 0.069782
v 3.251336 4.300000 0.069993
v 3.251336 4.304994 0.065000
v 3.252634 4.304782 0.069782
v 4.740000 4.300000 0.025000
v 4.750000 4.300000 0.035000
v 4.740000 4.290000 0.035000
v 4.744993 4.300000 0.026336
v 4.740000 4.295007 0.026336
v 4.744782 4.295218 0.027634
v 4.748664 4.295007 0.035000
v 4.748664 4.300000 0.030007
v 4.747366 4.295218 0.030218
v 4.740000 4.291336 0.030007
v 4.744993 4.291336 0.035000
v 4.744782 4.292634 0.030218
v 4.740000 4.300000 0.075000
v 4.740000 4.290000 0.065000
v 4.750000 4.300000 0.065000
v 4.740000 4.295007 0.073664
v 4.744993 4.300000 0.073664
v 4.744782 4.295218 0.072366
v 4.744993 4.291336 0.065000
v 4.740000 4.291336 0.069993
v 4.744782 4.292634 0.069782
v 4.748664 4.300000 0.069993
v 4.748664 4.295007 0.065000
v 4.747366 4.295218 0.069782
v 4.740000 4.300000 0.025000
v 4.740000 4.310000 0.035000
v 4.750000 4.300000 0.035000
v 4.740000 4.304994 0.026336
v 4.744993 4.300000 0.026336
v 4.744782 4.304782 0.027634
v 4.744993 4.308664 0.035000
v 4.740000 4.308664 0.030007
v 4.744782 4.307366 0.030218
v 4.748664 4.300000 0.030007
v 4.748664 4.304994 0.035000
v 4.747366 4.304782 0.030218
v 4.740000 4.300000 0.075000
v 4.750000 4.300000 0.065000
v 4.740000 4.310000 0.065000
v 4.744993 4.300000 0.073664
v 4.740000 4.304994 0.073664
v 4.744782 4.304782 0.072366
v 4.748664 4.304994 0.065000
v 4.748664 4.300000 0.069993
v 4.747366 4.304782 0.069782
v 4.740000 4.308664 0.069993
v 4.744993 4.308664 0.065000
v 4.744782 4.307366 0.069782
vn -0.1296 -0.1296 -0.9831
vn -0.1296 -0.9831 -0.1296
vn -0.9831 -0.1296 -0.1296
vn -0.1216 -0.4915 -0.8623
vn -0.4915 -0.1216 -0.8623
vn -0.4474 -0.4473 -0.7744
vn -0.4915 -0.8623 -0.1216
vn -0.1216 -0.8623 -0.4915
vn -0.4474 -0.7744 -0.4474
vn -0.8623 -0.1216 -0.4915
vn -0.8623 -0.4915 -0.1216
vn -0.7744 -0.4473 -0.4473
vn -0.1296 -0.9831 0.1296
vn -0.1296 -0.1296 0.9831
vn -0.9831 -0.1296 0.1296
vn -0.1216 -0.8623 0.4915
vn -0.4915 -0.8623 0.1216
vn -0.4474 -0.7744 0.4473
vn -0.4915 -0.1216 0.8623
vn -0.1216 -0.4915 0.8623
vn -0.4474 -0.4473 0.7744
vn -0.8623 -0.4915 0.1216
vn -0.8623 -0.1216 0.4915
vn -0.7744 -0.4473 0.4473
vn -0.1296 0.1296 -0.9831
vn -0.9831 0.1296 -0.1296
vn -0.1296 0.9831 -0.1296
vn -0.4915 0.1216 -0.8623
vn -0.1216 0.4915 -0.8623
vn -0.4474 0.4473 -0.7744
vn -0.8623 0.4915 -0.1216
vn -0.8623 0.1216 -0.4915
vn -0.7744 0.4473 -0.4473
vn -0.1216 0.8623 -0.4915
vn -0.4915 0.8623 -0.1216
vn -0.4474 0.7744 -0.4474
vn -0.1296 0.1296 0.9831
vn -0.1296 0.9831 0.1296
vn -0.9831 0.1296 0.1296
vn -0.1216 0.4915 0.8623
vn -0.4915 0.1216 0.8623
vn -0.4474 0.4473 0.7744
vn -0.4915 0.8623 0.1216
vn -0.1216 0.8623 0.4915
vn -0.4474 0.7744 0.4474
vn -0.8623 0.1216 0.4915
vn -0.8623 0.4915 0.1216
vn -0.7744 0.4473 0.4473
vn 0.1296 -0.1296 -0.9831
vn 0.9831 -0.1296 -0.1296
vn 0.1296 -0.9831 -0.1296
vn 0.4915 -0.1216 -0.8623
vn 0.1216 -0.4915 -0.8623
vn 0.4474 -0.4473 -0.7744
vn 0.8623 -0.4915 -0.1216
vn 0.8623 -0.1216 -0.4915
vn 0.7744 -0.4473 -0.4473
vn 0.1216 -0.8623 -0.4915
vn 0.4915 -0.8623 -0.1216
vn 0.4474 -0.7744 -0.4474
vn 0.1296 -0.1296 0.9831
vn 0.1296 -0.9831 0.1296
vn 0.9831 -0.1296 0.1296
vn 0.1216 -0.4915 0.8623
vn 0.4915 -0.1216 0.8623
vn 0.4474 -0.4473 0.7744
vn 0.4915 -0.8623 0.1216
vn 0.1216 -0.8623 0.4915
vn 0.4474 -0.7744 0.4474
vn 0.8623 -0.1216 0.4915
vn 0.8623 -0.4915 0.1216
vn 0.7744 -0.4473 0.4473
vn 0.1296 0.1296 -0.9831
vn 0.1296 0.9831 -0.1296
vn 0.9831 0.1296 -0.1296
vn 0.1216 0.4915 -0.8623
vn 0.4915 0.1216 -0.8623
vn 0.4474 0.4473 -0.7744
vn 0.4915 0.8623 -0.1216
vn 0.1216 0.8623 -0.4915
vn 0.4474 0.7744 -0.4474
vn 0.8623 0.1216 -0.4915
vn 0.8623 0.4915 -0.1216
vn 0.7744 0.4473 -0.4473
vn 0.1296 0.1296 0.9831
vn 0.9831 0.1296 0.1296
vn 0.1296 0.9831 0.1296
vn 0.4915 0.1216 0.8623
vn 0.1216 0.4915 0.8623
vn 0.4474 0.4473 0.7744
vn 0.8623 0.4915 0.1216
vn 0.8623 0.1216 0.4915
vn 0.7744 0.4473 0.4473
vn 0.1216 0.8623 0.4915
vn 0.4915 0.8623 0.1216
vn 0.4474 0.7744 0.4473
vn -0.4247 -0.8715 0.2451
vn -0.7134 -0.1935 0.6735
vn -0.8148 -0.4220 0.3975
vn -0.4474 -0.7744 -0.4473
vn -0.7926 -0.2309 0.5643
vn -0.0630 -0.1293 0.9896
vn -0.6282 -0.1704 0.7592
vn -0.2382 -0.1234 0.9633
vn -0.4736 -0.1379 0.8699
vn -0.4247 0.8715 0.2451
vn -0.7134 0.1935 0.6735
vn -0.8148 0.4220 0.3975
vn -0.7926 0.2309 0.5643
vn -0.4474 0.7744 -0.4473
vn -0.0630 0.1293 0.9896
vn -0.6282 0.1704 0.7592
vn -0.2382 0.1234 0.9633
vn -0.4474 0.7744 0.4473
vn -0.4736 0.1379 0.8699
vn 0.4247 -0.8715 0.2451
vn 0.7134 -0.1935 0.6735
vn 0.8148 -0.4220 0.3975
vn 0.7926 -0.2309 0.5643
vn 0.4474 -0.7744 -0.4473
vn 0.0630 -0.1293 0.9896
vn 0.6282 -0.1704 0.7592
vn 0.2382 -0.1234 0.9633
vn 0.4474 -0.7744 0.4473
vn 0.4736 -0.1379 0.8699
vn 0.4247 0.8715 0.2451
vn 0.7134 0.1935 0.6735
vn 0.8148 0.4220 0.3975
vn 0.4474 0.7744 -0.4473
vn 0.7926 0.2309 0.5643
vn 0.0630 0.1293 0.9896
vn 0.6282 0.1704 0.7592
vn 0.2382 0.1234 0.9633
vn 0.4736 0.1379 0.8699
vt 0.008392 0.008392
vt 0.005543 0.008392
vt 0.005663 0.005663
vt 0.008392 0.005543
vt 0.002686 0.008392
vt 0.002686 0.005663
vt 0.890565 0.008392
vt 0.890565 0.005543
vt 0.896272 0.005663
vt 0.896272 0.008392
vt 0.890565 0.002686
vt 0.896272 0.002686
vt 0.991608 0.339374
vt 0.997314 0.339374
vt 0.997314 0.342103
vt 0.991608 0.345080
vt 0.008392 0.002686
vt 0.005663 0.002686
vt 0.873446 0.008392
vt 0.870596 0.008392
vt 0.870717 0.005663
vt 0.873446 0.005543
vt 0.867739 0.008392
vt 0.867739 0.005663
vt 0.356158 0.852966
vt 0.356158 0.855815
vt 0.350452 0.855695
vt 0.350452 0.852966
vt 0.356158 0.858672
vt 0.350452 0.858672
vt 0.974488 0.339374
vt 0.974488 0.345080
vt 0.971759 0.345080
vt 0.968781 0.339374
vt 0.873446 0.002686
vt 0.870717 0.002686
vt 0.339374 0.008392
vt 0.339374 0.005543
vt 0.342103 0.005663
vt 0.342223 0.008392
vt 0.339374 0.002686
vt 0.342103 0.002686
vt 0.991608 0.008392
vt 0.991608 0.002686
vt 0.997314 0.005663
vt 0.997314 0.008392
vt 0.856661 0.858672
vt 0.856661 0.855815
vt 0.862368 0.855695
vt 0.862368 0.858672
vt 0.856661 0.852965
vt 0.862368 0.852966
vt 0.345080 0.008392
vt 0.345080 0.005663
vt 0.687140 0.852966
vt 0.692846 0.852966
vt 0.692846 0.855695
vt 0.687140 0.855815
vt 0.833835 0.852966
vt 0.836692 0.852966
vt 0.836812 0.855694
vt 0.833835 0.855695
vt 0.839541 0.852966
vt 0.839541 0.855815
vt 0.839541 0.858672
vt 0.836812 0.858672
vt 0.974488 0.008392
vt 0.968781 0.008392
vt 0.971759 0.002686
vt 0.974488 0.002686
vt 0.687140 0.858672
vt 0.692846 0.858672
vt 0.008392 0.852966
vt 0.008392 0.855815
vt 0.005663 0.855694
vt 0.005543 0.852966
vt 0.008392 0.858672
vt 0.005663 0.858672
vt 0.991608 0.356158
vt 0.991608 0.353309
vt 0.997314 0.353429
vt 0.997314 0.356158
vt 0.991608 0.350452
vt 0.997314 0.350452
vt 0.890565 0.852965
vt 0.896272 0.852966
vt 0.896272 0.855695
vt 0.890565 0.858672
vt 0.002686 0.852966
vt 0.002686 0.855695
vt 0.356158 0.008392
vt 0.350452 0.008392
vt 0.350452 0.005663
vt 0.356158 0.002686
vt 0.867739 0.852966
vt 0.870596 0.852966
vt 0.870717 0.855694
vt 0.867739 0.855695
vt 0.873446 0.852966
vt 0.873446 0.858672
vt 0.974488 0.350452
vt 0.974488 0.353309
vt 0.971759 0.353429
vt 0.971759 0.351955
vt 0.974488 0.356158
vt 0.971638 0.356158
vt 0.968781 0.356158
vt 0.968781 0.350452
vt 0.870717 0.857169
vt 0.339374 0.852966
vt 0.342223 0.852966
vt 0.342103 0.855695
vt 0.339374 0.855815
vt 0.345080 0.852966
vt 0.345080 0.855695
vt 0.856661 0.008392
vt 0.856661 0.002686
vt 0.862368 0.005663
vt 0.862368 0.008392
vt 0.991608 0.692846
vt 0.991608 0.689989
vt 0.997314 0.689869
vt 0.997314 0.692846
vt 0.991608 0.687140
vt 0.997314 0.687140
vt 0.339374 0.858672
vt 0.342103 0.858672
vt 0.687140 0.008392
vt 0.687140 0.002686
vt 0.689869 0.002686
vt 0.692846 0.008392
vt 0.968781 0.687140
vt 0.971638 0.687140
vt 0.971759 0.689869
vt 0.968781 0.689869
vt 0.974488 0.687140
vt 0.974488 0.689989
vt 0.974488 0.692846
vt 0.971759 0.692846
vt 0.839541 0.008392
vt 0.836692 0.008392
vt 0.836812 0.002686
vt 0.839541 0.002686
vt 0.833835 0.008392
vt 0.833835 0.002686
vt 0.907350 0.008392
vt 0.901643 0.008392
vt 0.901643 0.005663
vt 0.907350 0.002686
vt 0.760655 0.008392
vt 0.757798 0.008392
vt 0.757677 0.005663
vt 0.760655 0.005663
vt 0.754948 0.008392
vt 0.754948 0.002686
vt 0.002686 0.886870
vt 0.005543 0.886870
vt 0.005663 0.889599
vt 0.004189 0.889599
vt 0.008392 0.886870
vt 0.008392 0.889719
vt 0.008392 0.892576
vt 0.002686 0.892576
vt 0.757677 0.004189
vt 0.737829 0.008392
vt 0.732122 0.008392
vt 0.732122 0.005663
vt 0.737829 0.002686
vt 0.918428 0.852966
vt 0.921285 0.852966
vt 0.921405 0.855695
vt 0.918428 0.855695
vt 0.924134 0.852966
vt 0.924134 0.855815
vt 0.924134 0.858672
vt 0.921405 0.858672
vt 0.008392 0.869750
vt 0.005543 0.869750
vt 0.005663 0.864043
vt 0.008392 0.864043
vt 0.002686 0.869750
vt 0.002686 0.864043
vt 0.910079 0.002686
vt 0.913056 0.008392
vt 0.011121 0.889599
vt 0.011121 0.892576
vt 0.011242 0.886870
vt 0.014099 0.886870
vt 0.014099 0.889599
vt 0.721044 0.852966
vt 0.723894 0.852966
vt 0.723773 0.858672
vt 0.721044 0.858672
vt 0.726751 0.852966
vt 0.726751 0.858672
vt 0.926984 0.852966
vt 0.926863 0.855695
vt 0.929841 0.852966
vt 0.929841 0.855695
vt 0.703924 0.852966
vt 0.703924 0.858672
vt 0.698218 0.855695
vt 0.698218 0.852966
vt 0.014099 0.869750
vt 0.011242 0.869750
vt 0.011121 0.864043
vt 0.014099 0.864043
vt 0.926863 0.858672
vt 0.907350 0.852966
vt 0.907350 0.858672
vt 0.904621 0.858672
vt 0.901643 0.852966
vt 0.025177 0.892576
vt 0.025177 0.889719
vt 0.027906 0.889599
vt 0.027906 0.892576
vt 0.025177 0.886870
vt 0.028026 0.886870
vt 0.030883 0.886870
vt 0.030883 0.889599
vt 0.754948 0.852966
vt 0.757798 0.852966
vt 0.757677 0.858672
vt 0.754948 0.858672
vt 0.760655 0.852966
vt 0.760655 0.858672
vt 0.924134 0.008392
vt 0.921285 0.008392
vt 0.921405 0.005663
vt 0.924134 0.005543
vt 0.918428 0.008392
vt 0.918428 0.005663
vt 0.737828 0.852966
vt 0.737828 0.858672
vt 0.732122 0.855695
vt 0.732122 0.852966
vt 0.030883 0.869750
vt 0.028026 0.869750
vt 0.027906 0.864043
vt 0.030883 0.864043
vt 0.025177 0.869750
vt 0.025177 0.864043
vt 0.924134 0.002686
vt 0.921405 0.002686
vt 0.913056 0.852966
vt 0.913056 0.855695
vt 0.726751 0.008392
vt 0.723894 0.008392
vt 0.723773 0.005663
vt 0.726751 0.005663
vt 0.721044 0.008392
vt 0.721044 0.005543
vt 0.721044 0.002686
vt 0.723773 0.002686
vt 0.019470 0.889599
vt 0.019470 0.886870
vt 0.019470 0.892576
vt 0.926863 0.005663
vt 0.926984 0.008392
vt 0.926863 0.002686
vt 0.019470 0.869750
vt 0.022448 0.864043
vt 0.703924 0.002686
vt 0.703924 0.005543
vt 0.698218 0.005663
vt 0.698218 0.002686
vt 0.703924 0.008392
vt 0.698218 0.008392
vt 0.929841 0.008392
vt 0.929841 0.005663
vt 0.940919 0.008392
vt 0.935212 0.008392
vt 0.935212 0.005663
vt 0.940919 0.002686
vt 0.828463 0.008392
vt 0.825606 0.008392
vt 0.825486 0.005663
vt 0.828463 0.005663
vt 0.822757 0.008392
vt 0.822757 0.002686
vt 0.036255 0.886870
vt 0.039112 0.886870
vt 0.039232 0.889599
vt 0.037758 0.889599
vt 0.041961 0.886870
vt 0.041961 0.889719
vt 0.041961 0.892576
vt 0.036255 0.892576
vt 0.825486 0.004189
vt 0.805637 0.008392
vt 0.802788 0.008392
vt 0.802908 0.005663
vt 0.805637 0.002686
vt 0.799931 0.008392
vt 0.799931 0.005663
vt 0.957703 0.852966
vt 0.957703 0.858672
vt 0.951997 0.855695
vt 0.951997 0.852966
vt 0.041961 0.864043
vt 0.041961 0.866900
vt 0.039232 0.867021
vt 0.036255 0.864043
vt 0.041961 0.869750
vt 0.039112 0.869750
vt 0.036255 0.869750
vt 0.037758 0.867021
vt 0.802908 0.004189
vt 0.943648 0.002686
vt 0.946625 0.008392
vt 0.044690 0.889599
vt 0.044690 0.892576
vt 0.044811 0.886870
vt 0.047668 0.886870
vt 0.047668 0.889599
vt 0.788853 0.852966
vt 0.791702 0.852966
vt 0.791581 0.858672
vt 0.788853 0.858672
vt 0.794559 0.852966
vt 0.794559 0.858672
vt 0.963410 0.852966
vt 0.963410 0.855695
vt 0.766026 0.852966
vt 0.768883 0.852966
vt 0.769004 0.855695
vt 0.766026 0.855695
vt 0.771733 0.852966
vt 0.771733 0.858672
vt 0.047668 0.869750
vt 0.044811 0.869750
vt 0.044690 0.867021
vt 0.046165 0.867021
vt 0.047668 0.864043
vt 0.769004 0.857169
vt 0.940919 0.852966
vt 0.940919 0.858672
vt 0.938190 0.858672
vt 0.935212 0.852966
vt 0.058746 0.892576
vt 0.058746 0.889719
vt 0.061475 0.889599
vt 0.061475 0.892576
vt 0.058746 0.886870
vt 0.061595 0.886870
vt 0.064452 0.886870
vt 0.064452 0.889599
vt 0.822757 0.852966
vt 0.825606 0.852966
vt 0.825486 0.858672
vt 0.822757 0.858672
vt 0.828463 0.852966
vt 0.828463 0.858672
vt 0.957703 0.008392
vt 0.951997 0.008392
vt 0.951997 0.005663
vt 0.957703 0.002686
vt 0.799930 0.852966
vt 0.802787 0.852966
vt 0.802908 0.855695
vt 0.799930 0.855695
vt 0.805637 0.852966
vt 0.805637 0.858672
vt 0.064452 0.869750
vt 0.061595 0.869750
vt 0.061475 0.867021
vt 0.062949 0.867021
vt 0.058746 0.869750
vt 0.058746 0.866900
vt 0.058746 0.864043
vt 0.064452 0.864043
vt 0.802908 0.857169
vt 0.946625 0.852966
vt 0.946625 0.855695
vt 0.794559 0.008392
vt 0.791702 0.008392
vt 0.791581 0.005663
vt 0.794559 0.005663
vt 0.788853 0.008392
vt 0.788853 0.005543
vt 0.788853 0.002686
vt 0.791582 0.002686
vt 0.053039 0.889599
vt 0.053039 0.886870
vt 0.053039 0.892576
vt 0.960432 0.002686
vt 0.963410 0.008392
vt 0.056017 0.867021
vt 0.056017 0.864043
vt 0.053039 0.869750
vt 0.771733 0.002686
vt 0.771733 0.005543
vt 0.769004 0.005663
vt 0.769004 0.004189
vt 0.771733 0.008392
vt 0.768883 0.008392
vt 0.766026 0.008392
vt 0.766026 0.002686
vt 0.054542 0.867021
s 1
usemtl BB_PaintedIron
f 1/1/1 4/2/4 6/3/6 5/4/5
f 4/2/4 8/5/8 9/6/9 6/3/6
f 2/7/2 7/8/7 9/9/9 8/10/8
f 7/8/7 11/11/11 12/12/12 9/9/9
f 3/13/3 10/14/10 12/15/12 11/16/11
f 10/17/10 5/4/5 6/3/6 12/18/12
f 6/3/6 9/6/9 12/18/12
f 13/19/13 16/20/16 18/21/18 17/22/17
f 16/20/16 20/23/20 21/24/21 18/21/18
f 14/25/14 19/26/19 21/27/21 20/28/20
f 19/26/19 23/29/23 24/30/24 21/27/21
f 15/31/15 22/32/22 24/33/24 23/34/23
f 22/35/22 17/22/17 18/21/18 24/36/24
f 18/21/18 21/24/21 24/36/24
f 25/37/25 28/38/28 30/39/30 29/40/29
f 28/38/28 32/41/32 33/42/33 30/39/30
f 26/43/26 31/44/31 33/45/33 32/46/32
f 31/47/31 35/48/35 36/49/36 33/50/33
f 27/51/27 34/52/34 36/49/36 35/48/35
f 34/53/34 29/40/29 30/39/30 36/54/36
f 30/39/30 33/42/33 36/54/36
f 37/55/37 40/56/40 42/57/42 41/58/41
f 40/59/40 44/60/44 45/61/45 42/62/42
f 38/63/38 43/64/43 45/61/45 44/60/44
f 43/64/43 47/65/47 48/66/48 45/61/45
f 39/67/39 46/68/46 48/69/48 47/70/47
f 46/71/46 41/58/41 42/57/42 48/72/48
f 42/62/42 45/61/45 48/66/48
f 49/73/49 52/74/52 54/75/54 53/76/53
f 52/74/52 56/77/56 57/78/57 54/75/54
f 50/79/50 55/80/55 57/81/57 56/82/56
f 55/80/55 59/83/59 60/84/60 57/81/57
f 51/85/51 58/86/58 60/87/60 59/88/59
f 58/89/58 53/76/53 54/75/54 60/90/60
f 54/75/54 57/78/57 60/90/60
f 61/91/61 64/92/64 66/93/66 65/94/65
f 64/95/64 68/96/68 69/97/69 66/98/66
f 62/99/62 67/100/67 69/97/69 68/96/68
f 67/101/67 71/102/71 72/103/72 69/104/69
f 63/105/63 70/106/70 72/103/72 71/102/71
f 70/106/70 65/107/65 66/108/66 72/103/72
f 66/98/66 69/97/69 72/109/72
f 73/110/73 76/111/76 78/112/78 77/113/77
f 76/111/76 80/114/80 81/115/81 78/112/78
f 74/116/74 79/117/79 81/118/81 80/119/80
f 79/120/79 83/121/83 84/122/84 81/123/81
f 75/124/75 82/125/82 84/122/84 83/121/83
f 82/126/82 77/113/77 78/112/78 84/127/84
f 78/112/78 81/115/81 84/127/84
f 85/128/85 88/129/88 90/130/90 89/131/89
f 88/132/88 92/133/92 93/134/93 90/135/90
f 86/136/86 91/137/91 93/134/93 92/133/92
f 91/137/91 95/138/95 96/139/96 93/134/93
f 87/140/87 94/141/94 96/142/96 95/143/95
f 94/141/94 89/144/89 90/145/90 96/142/96
f 90/135/90 93/134/93 96/139/96
f 97/146/97 100/147/4 102/148/6 101/149/99
f 100/150/4 104/151/8 105/152/100 102/153/6
f 98/154/2 103/155/7 105/152/100 104/151/8
f 103/156/7 107/157/11 108/158/12 105/159/100
f 99/160/98 106/161/101 108/158/12 107/157/11
f 106/161/101 101/162/99 102/163/6 108/158/12
f 102/153/6 105/152/100 108/164/12
f 109/165/13 112/166/16 114/167/18 113/168/17
f 112/169/16 116/170/20 117/171/21 114/172/18
f 110/173/102 115/174/104 117/171/21 116/170/20
f 115/174/104 119/175/105 120/176/24 117/171/21
f 111/177/103 118/178/22 120/179/24 119/180/105
f 118/178/22 113/181/17 114/182/18 120/179/24
f 114/172/18 117/171/21 120/176/24
f 121/146/106 124/149/108 126/183/30 125/184/29
f 124/162/108 128/161/109 129/185/33 126/186/30
f 122/160/107 127/187/31 129/185/33 128/161/109
f 127/187/31 131/188/35 132/189/110 129/185/33
f 123/190/27 130/191/34 132/192/110 131/193/35
f 130/191/34 125/194/29 126/195/30 132/192/110
f 126/186/30 129/185/33 132/189/110
f 133/173/111 136/196/40 138/197/42 137/174/113
f 136/196/40 140/198/44 141/199/114 138/197/42
f 134/200/38 139/201/43 141/202/114 140/203/44
f 139/204/43 143/205/47 144/206/48 141/207/114
f 135/177/112 142/180/115 144/206/48 143/205/47
f 142/175/115 137/174/113 138/197/42 144/208/48
f 138/197/42 141/199/114 144/208/48
f 145/209/116 148/210/118 150/211/54 149/212/53
f 148/213/118 152/214/119 153/215/57 150/216/54
f 146/217/117 151/218/55 153/215/57 152/214/119
f 151/218/55 155/219/59 156/220/120 153/215/57
f 147/221/51 154/222/58 156/223/120 155/224/59
f 154/222/58 149/225/53 150/226/54 156/223/120
f 150/216/54 153/215/57 156/220/120
f 157/227/121 160/228/64 162/229/66 161/230/123
f 160/228/64 164/231/68 165/232/124 162/229/66
f 158/233/62 163/234/67 165/235/124 164/236/68
f 163/237/67 167/238/71 168/239/72 165/240/124
f 159/241/122 166/242/125 168/239/72 167/238/71
f 166/243/125 161/230/123 162/229/66 168/244/72
f 162/229/66 165/232/124 168/244/72
f 169/209/126 172/245/76 174/246/78 173/210/128
f 172/247/76 176/248/80 177/249/129 174/250/78
f 170/251/74 175/252/79 177/249/129 176/248/80
f 175/252/79 179/253/83 180/254/84 177/249/129
f 171/217/127 178/214/130 180/255/84 179/256/83
f 178/214/130 173/213/128 174/257/78 180/255/84
f 174/250/78 177/249/129 180/254/84
f 181/227/131 184/230/133 186/258/90 185/259/89
f 184/230/133 188/243/134 189/260/93 186/258/90
f 182/241/132 187/261/91 189/262/93 188/242/134
f 187/263/91 191/264/95 192/265/96 189/266/93
f 183/267/87 190/268/94 192/265/96 191/264/95
f 190/269/94 185/259/89 186/258/90 192/270/96
f 186/258/90 189/260/93 192/270/96
f 193/271/97 196/272/4 198/273/6 197/274/99
f 196/275/4 200/276/8 201/277/100 198/278/6
f 194/279/2 199/280/7 201/277/100 200/276/8
f 199/281/7 203/282/11 204/283/12 201/284/100
f 195/285/98 202/286/101 204/283/12 203/282/11
f 202/286/101 197/287/99 198/288/6 204/283/12
f 198/278/6 201/277/100 204/289/12
f 205/290/13 208/291/16 210/292/18 209/293/17
f 208/291/16 212/294/20 213/295/21 210/292/18
f 206/296/102 211/297/104 213/298/21 212/299/20
f 211/300/104 215/301/105 216/302/24 213/303/21
f 207/304/103 214/305/22 216/302/24 215/301/105
f 214/305/22 209/306/17 210/307/18 216/302/24
f 210/292/18 213/295/21 216/308/24
f 217/271/106 220/274/108 222/309/30 221/310/29
f 220/287/108 224/286/109 225/311/33 222/312/30
f 218/285/107 223/313/31 225/311/33 224/286/109
f 223/313/31 227/314/35 228/315/110 225/311/33
f 219/316/27 226/317/34 228/318/110 227/319/35
f 226/317/34 221/320/29 222/321/30 228/318/110
f 222/312/30 225/311/33 228/315/110
f 229/296/111 232/322/40 234/323/42 233/297/113
f 232/324/40 236/325/44 237/326/114 234/327/42
f 230/328/38 235/329/43 237/326/114 236/325/44
f 235/330/43 239/331/47 240/332/48 237/333/114
f 231/304/112 238/301/115 240/332/48 239/331/47
f 238/301/115 233/300/113 234/334/42 240/332/48
f 234/327/42 237/326/114 240/335/48
f 241/336/116 244/337/118 246/338/54 245/339/53
f 244/340/118 248/341/119 249/342/57 246/343/54
f 242/344/117 247/345/55 249/342/57 248/341/119
f 247/345/55 251/346/59 252/347/120 249/342/57
f 243/348/51 250/349/58 252/350/120 251/351/59
f 250/349/58 245/352/53 246/353/54 252/350/120
f 246/343/54 249/342/57 252/347/120
f 253/354/121 256/355/64 258/356/66 257/357/123
f 256/358/64 260/359/68 261/360/124 258/361/66
f 254/362/62 259/363/67 261/360/124 260/359/68
f 259/364/67 263/365/71 264/366/72 261/367/124
f 255/368/122 262/369/125 264/366/72 263/365/71
f 262/369/125 257/370/123 258/371/66 264/366/72
f 258/361/66 261/360/124 264/372/72
f 265/336/126 268/373/76 270/374/78 269/337/128
f 268/375/76 272/376/80 273/377/129 270/378/78
f 266/379/74 271/380/79 273/377/129 272/376/80
f 271/380/79 275/381/83 276/382/84 273/377/129
f 267/344/127 274/341/130 276/383/84 275/384/83
f 274/341/130 269/340/128 270/385/78 276/383/84
f 270/378/78 273/377/129 276/382/84
f 277/354/131 280/357/133 282/386/90 281/387/89
f 280/370/133 284/369/134 285/388/93 282/389/90
f 278/368/132 283/390/91 285/388/93 284/369/134
f 283/391/91 287/392/95 288/393/96 285/394/93
f 279/395/87 286/396/94 288/393/96 287/392/95
f 286/396/94 281/397/89 282/398/90 288/393/96
f 282/389/90 285/388/93 288/399/96
f 25/37/25 1/1/1 5/4/5 28/38/28
f 28/38/28 5/4/5 10/17/10 32/41/32
f 32/46/32 10/14/10 3/13/3 26/43/26
f 2/7/2 13/19/13 17/22/17 7/8/7
f 7/8/7 17/22/17 22/35/22 11/11/11
f 11/16/11 22/32/22 15/31/15 3/13/3
f 14/25/14 37/55/37 41/58/41 19/26/19
f 19/26/19 41/58/41 46/71/46 23/29/23
f 23/34/23 46/68/46 39/67/39 15/31/15
f 38/63/38 27/51/27 35/48/35 43/64/43
f 43/64/43 35/48/35 31/47/31 47/65/47
f 47/70/47 31/44/31 26/43/26 39/67/39
f 73/110/73 25/37/25 29/40/29 76/111/76
f 76/111/76 29/40/29 34/53/34 80/114/80
f 80/119/80 34/52/34 27/51/27 74/116/74
f 37/55/37 85/128/85 89/131/89 40/56/40
f 40/59/40 89/144/89 94/141/94 44/60/44
f 44/60/44 94/141/94 87/140/87 38/63/38
f 86/136/86 75/124/75 83/121/83 91/137/91
f 91/137/91 83/121/83 79/120/79 95/138/95
f 95/143/95 79/117/79 74/116/74 87/140/87
f 49/73/49 73/110/73 77/113/77 52/74/52
f 52/74/52 77/113/77 82/126/82 56/77/56
f 56/82/56 82/125/82 75/124/75 50/79/50
f 85/128/85 61/91/61 65/94/65 88/129/88
f 88/132/88 65/107/65 70/106/70 92/133/92
f 92/133/92 70/106/70 63/105/63 86/136/86
f 62/99/62 51/85/51 59/88/59 67/100/67
f 67/101/67 59/83/59 55/80/55 71/102/71
f 71/102/71 55/80/55 50/79/50 63/105/63
f 1/1/1 49/73/49 53/76/53 4/2/4
f 4/2/4 53/76/53 58/89/58 8/5/8
f 8/10/8 58/86/58 51/85/51 2/7/2
f 61/91/61 14/25/14 20/28/20 64/92/64
f 64/95/64 20/23/20 16/20/16 68/96/68
f 68/96/68 16/20/16 13/19/13 62/99/62
f 121/146/106 97/146/97 101/149/99 124/149/108
f 124/162/108 101/162/99 106/161/101 128/161/109
f 128/161/109 106/161/101 99/160/98 122/160/107
f 98/154/2 109/165/13 113/168/17 103/155/7
f 103/156/7 113/181/17 118/178/22 107/157/11
f 107/157/11 118/178/22 111/177/103 99/160/98
f 110/173/102 133/173/111 137/174/113 115/174/104
f 115/174/104 137/174/113 142/175/115 119/175/105
f 119/180/105 142/180/115 135/177/112 111/177/103
f 134/200/38 123/190/27 131/193/35 139/201/43
f 139/204/43 131/188/35 127/187/31 143/205/47
f 143/205/47 127/187/31 122/160/107 135/177/112
f 169/209/126 121/146/106 125/184/29 172/245/76
f 172/247/76 125/194/29 130/191/34 176/248/80
f 176/248/80 130/191/34 123/190/27 170/251/74
f 133/173/111 181/227/131 185/259/89 136/196/40
f 136/196/40 185/259/89 190/269/94 140/198/44
f 140/203/44 190/268/94 183/267/87 134/200/38
f 182/241/132 171/217/127 179/256/83 187/261/91
f 187/263/91 179/253/83 175/252/79 191/264/95
f 191/264/95 175/252/79 170/251/74 183/267/87
f 145/209/116 169/209/126 173/210/128 148/210/118
f 148/213/118 173/213/128 178/214/130 152/214/119
f 152/214/119 178/214/130 171/217/127 146/217/117
f 181/227/131 157/227/121 161/230/123 184/230/133
f 184/230/133 161/230/123 166/243/125 188/243/134
f 188/242/134 166/242/125 159/241/122 182/241/132
f 158/233/62 147/221/51 155/224/59 163/234/67
f 163/237/67 155/219/59 151/218/55 167/238/71
f 167/238/71 151/218/55 146/217/117 159/241/122
f 97/146/97 145/209/116 149/212/53 100/147/4
f 100/150/4 149/225/53 154/222/58 104/151/8
f 104/151/8 154/222/58 147/221/51 98/154/2
f 157/227/121 110/173/102 116/170/20 160/228/64
f 160/228/64 116/170/20 112/169/16 164/231/68
f 164/236/68 112/166/16 109/165/13 158/233/62
f 217/271/106 193/271/97 197/274/99 220/274/108
f 220/287/108 197/287/99 202/286/101 224/286/109
f 224/286/109 202/286/101 195/285/98 218/285/107
f 194/279/2 205/290/13 209/293/17 199/280/7
f 199/281/7 209/306/17 214/305/22 203/282/11
f 203/282/11 214/305/22 207/304/103 195/285/98
f 206/296/102 229/296/111 233/297/113 211/297/104
f 211/300/104 233/300/113 238/301/115 215/301/105
f 215/301/105 238/301/115 231/304/112 207/304/103
f 230/328/38 219/316/27 227/319/35 235/329/43
f 235/330/43 227/314/35 223/313/31 239/331/47
f 239/331/47 223/313/31 218/285/107 231/304/112
f 265/336/126 217/271/106 221/310/29 268/373/76
f 268/375/76 221/320/29 226/317/34 272/376/80
f 272/376/80 226/317/34 219/316/27 266/379/74
f 229/296/111 277/354/131 281/387/89 232/322/40
f 232/324/40 281/397/89 286/396/94 236/325/44
f 236/325/44 286/396/94 279/395/87 230/328/38
f 278/368/132 267/344/127 275/384/83 283/390/91
f 283/391/91 275/381/83 271/380/79 287/392/95
f 287/392/95 271/380/79 266/379/74 279/395/87
f 241/336/116 265/336/126 269/337/128 244/337/118
f 244/340/118 269/340/128 274/341/130 248/341/119
f 248/341/119 274/341/130 267/344/127 242/344/117
f 277/354/131 253/354/121 257/357/123 280/357/133
f 280/370/133 257/370/123 262/369/125 284/369/134
f 284/369/134 262/369/125 255/368/122 278/368/132
f 254/362/62 243/348/51 251/351/59 259/363/67
f 259/364/67 251/346/59 247/345/55 263/365/71
f 263/365/71 247/345/55 242/344/117 255/368/122
f 193/271/97 241/336/116 245/339/53 196/272/4
f 196/275/4 245/352/53 250/349/58 200/276/8
f 200/276/8 250/349/58 243/348/51 194/279/2
f 253/354/121 206/296/102 212/299/20 256/355/64
f 256/358/64 212/294/20 208/291/16 260/359/68
f 260/359/68 208/291/16 205/290/13 254/362/62
f 25/37/25 73/110/73 49/73/49 1/1/1
f 3/13/3 15/31/15 39/67/39 26/43/26
f 51/85/51 62/99/62 13/19/13 2/7/2
f 85/128/85 37/55/37 14/25/14 61/91/61
f 27/51/27 38/63/38 87/140/87 74/116/74
f 75/124/75 86/136/86 63/105/63 50/79/50
f 121/146/106 169/209/126 145/209/116 97/146/97
f 99/160/98 111/177/103 135/177/112 122/160/107
f 147/221/51 158/233/62 109/165/13 98/154/2
f 181/227/131 133/173/111 110/173/102 157/227/121
f 123/190/27 134/200/38 183/267/87 170/251/74
f 171/217/127 182/241/132 159/241/122 146/217/117
f 217/271/106 265/336/126 241/336/116 193/271/97
f 195/285/98 207/304/103 231/304/112 218/285/107
f 243/348/51 254/362/62 205/290/13 194/279/2
f 277/354/131 229/296/111 206/296/102 253/354/121
f 219/316/27 230/328/38 279/395/87 266/379/74
f 267/344/127 278/368/132 255/368/122 242/344/117
