# Blender 5.0.1
# www.blender.org
mtllib BB_PROP_Pipe_Tee.mtl
o BB_PROP_Pipe_Tee
v 4.000000 2.000000 -0.130000
v 4.094069 1.931656 -0.058139
v 3.964070 1.889416 -0.058139
v 3.883725 2.000000 -0.058138
v 3.964070 2.110584 -0.058139
v 4.094069 2.068344 -0.058139
v 4.035931 1.889416 0.058139
v 3.905931 1.931656 0.058139
v 3.905931 2.068344 0.058139
v 4.035931 2.110584 0.058139
v 4.116275 2.000000 0.058138
v 4.000000 2.000000 0.130000
v 4.034173 2.105171 -0.068346
v 4.000000 1.870000 0.000000
v 3.944708 2.040171 0.110585
v 4.021119 1.935001 0.110585
v 4.076412 1.894828 0.000000
v 4.123638 1.959828 0.000000
v 4.021119 2.064999 0.110585
v 4.068345 2.000000 0.110585
v 4.123638 2.040172 0.000000
v 3.876363 1.959828 0.000000
v 3.923588 1.894828 0.000000
v 3.944708 1.959828 0.110585
v 4.089465 2.065000 0.068346
v 3.910535 2.065000 -0.068346
v 3.965827 2.105171 0.068346
v 3.978881 2.064999 -0.110585
v 3.889416 2.000000 0.068346
v 3.910535 1.935000 -0.068346
v 3.965827 1.894828 0.068346
v 3.931655 2.000000 -0.110585
v 4.089465 1.935000 0.068346
v 4.055292 2.040171 -0.110585
v 4.000000 2.130000 0.000000
v 4.110584 2.000000 -0.068346
v 4.076412 2.105172 0.000000
v 4.034173 1.894828 -0.068346
v 3.876363 2.040172 0.000000
v 4.055292 1.959828 -0.110585
v 3.923588 2.105172 0.000000
v 3.978881 1.935001 -0.110585
v 4.000000 2.089804 -0.600000
v 4.000000 2.100000 -0.590000
v 4.000000 2.094902 -0.598660
v 4.000000 2.098634 -0.595000
v 4.000000 2.089804 0.600000
v 4.000000 2.100000 0.590000
v 4.000000 2.094902 0.598660
v 4.000000 2.098634 0.595000
v 4.034367 2.082968 -0.600000
v 4.038269 2.092388 -0.590000
v 4.036317 2.087678 -0.598660
v 4.037745 2.091126 -0.595000
v 4.034367 2.082968 0.600000
v 4.038269 2.092388 0.590000
v 4.036317 2.087678 0.598660
v 4.037745 2.091126 0.595000
v 4.063501 2.063501 -0.600000
v 4.070711 2.070711 -0.590000
v 4.067106 2.067106 -0.598660
v 4.069745 2.069745 -0.595000
v 4.063501 2.063501 0.600000
v 4.070711 2.070711 0.590000
v 4.067106 2.067106 0.598660
v 4.069745 2.069745 0.595000
v 4.082968 2.034367 -0.600000
v 4.092388 2.038268 -0.590000
v 4.087678 2.036317 -0.598660
v 4.091126 2.037746 -0.595000
v 4.082968 2.034367 0.600000
v 4.092388 2.038268 0.590000
v 4.087678 2.036317 0.598660
v 4.091126 2.037746 0.595000
v 4.089804 2.000000 -0.600000
v 4.100000 2.000000 -0.590000
v 4.094902 2.000000 -0.598660
v 4.098634 2.000000 -0.595000
v 4.089804 2.000000 0.600000
v 4.100000 2.000000 0.590000
v 4.094902 2.000000 0.598660
v 4.098634 2.000000 0.595000
v 4.082968 1.965634 -0.600000
v 4.092388 1.961732 -0.590000
v 4.087678 1.963683 -0.598660
v 4.091126 1.962254 -0.595000
v 4.082968 1.965634 0.600000
v 4.092388 1.961732 0.590000
v 4.087678 1.963683 0.598660
v 4.091126 1.962254 0.595000
v 4.063501 1.936499 -0.600000
v 4.070711 1.929289 -0.590000
v 4.067106 1.932894 -0.598660
v 4.069745 1.930255 -0.595000
v 4.063501 1.936499 0.600000
v 4.070711 1.929289 0.590000
v 4.067106 1.932894 0.598660
v 4.069745 1.930255 0.595000
v 4.034367 1.917032 -0.600000
v 4.038269 1.907612 -0.590000
v 4.036317 1.912322 -0.598660
v 4.037745 1.908874 -0.595000
v 4.034367 1.917032 0.600000
v 4.038269 1.907612 0.590000
v 4.036317 1.912322 0.598660
v 4.037745 1.908874 0.595000
v 4.000000 1.910196 -0.600000
v 4.000000 1.900000 -0.590000
v 4.000000 1.905098 -0.598660
v 4.000000 1.901366 -0.595000
v 4.000000 1.910196 0.600000
v 4.000000 1.900000 0.590000
v 4.000000 1.905098 0.598660
v 4.000000 1.901366 0.595000
v 3.965633 1.917032 -0.600000
v 3.961732 1.907612 -0.590000
v 3.963683 1.912322 -0.598660
v 3.962254 1.908874 -0.595000
v 3.965633 1.917032 0.600000
v 3.961732 1.907612 0.590000
v 3.963683 1.912322 0.598660
v 3.962254 1.908874 0.595000
v 3.936499 1.936499 -0.600000
v 3.929289 1.929289 -0.590000
v 3.932894 1.932894 -0.598660
v 3.930255 1.930255 -0.595000
v 3.936499 1.936499 0.600000
v 3.929289 1.929289 0.590000
v 3.932894 1.932894 0.598660
v 3.930255 1.930255 0.595000
v 3.917032 1.965634 -0.600000
v 3.907612 1.961732 -0.590000
v 3.912322 1.963683 -0.598660
v 3.908874 1.962254 -0.595000
v 3.917032 1.965634 0.600000
v 3.907612 1.961732 0.590000
v 3.912322 1.963683 0.598660
v 3.908874 1.962254 0.595000
v 3.910196 2.000000 -0.600000
v 3.900000 2.000000 -0.590000
v 3.905098 2.000000 -0.598660
v 3.901366 2.000000 -0.595000
v 3.910196 2.000000 0.600000
v 3.900000 2.000000 0.590000
v 3.905098 2.000000 0.598660
v 3.901366 2.000000 0.595000
v 3.917032 2.034367 -0.600000
v 3.907612 2.038268 -0.590000
v 3.912322 2.036317 -0.598660
v 3.908874 2.037746 -0.595000
v 3.917032 2.034367 0.600000
v 3.907612 2.038268 0.590000
v 3.912322 2.036317 0.598660
v 3.908874 2.037746 0.595000
v 3.936499 2.063501 -0.600000
v 3.929289 2.070711 -0.590000
v 3.932894 2.067106 -0.598660
v 3.930255 2.069745 -0.595000
v 3.936499 2.063501 0.600000
v 3.929289 2.070711 0.590000
v 3.932894 2.067106 0.598660
v 3.930255 2.069745 0.595000
v 3.965633 2.082968 -0.600000
v 3.961732 2.092388 -0.590000
v 3.963683 2.087678 -0.598660
v 3.962254 2.091126 -0.595000
v 3.965633 2.082968 0.600000
v 3.961732 2.092388 0.590000
v 3.963683 2.087678 0.598660
v 3.962254 2.091126 0.595000
v 4.000000 2.089804 0.000000
v 4.010000 2.100000 0.000000
v 4.001340 2.094902 0.000000
v 4.005000 2.098634 0.000000
v 4.600000 2.089804 0.000000
v 4.590000 2.100000 0.000000
v 4.598660 2.094902 0.000000
v 4.595000 2.098634 0.000000
v 4.000000 2.082968 0.034367
v 4.010000 2.092388 0.038268
v 4.001340 2.087678 0.036317
v 4.005000 2.091126 0.037746
v 4.600000 2.082968 0.034367
v 4.590000 2.092388 0.038268
v 4.598660 2.087678 0.036317
v 4.595000 2.091126 0.037746
v 4.000000 2.063501 0.063501
v 4.010000 2.070711 0.070711
v 4.001340 2.067106 0.067106
v 4.005000 2.069745 0.069745
v 4.600000 2.063501 0.063501
v 4.590000 2.070711 0.070711
v 4.598660 2.067106 0.067106
v 4.595000 2.069745 0.069745
v 4.010000 2.038268 0.092388
v 4.000000 2.034367 0.082968
v 4.005000 2.037746 0.091126
v 4.001340 2.036317 0.087678
v 4.600000 2.034367 0.082968
v 4.590000 2.038268 0.092388
v 4.598660 2.036317 0.087678
v 4.595000 2.037746 0.091126
v 4.000000 2.000000 0.089804
v 4.010000 2.000000 0.100000
v 4.001340 2.000000 0.094902
v 4.005000 2.000000 0.098634
v 4.600000 2.000000 0.089804
v 4.590000 2.000000 0.100000
v 4.598660 2.000000 0.094902
v 4.595000 2.000000 0.098634
v 4.000000 1.965634 0.082968
v 4.010000 1.961732 0.092388
v 4.001340 1.963683 0.087678
v 4.005000 1.962254 0.091126
v 4.600000 1.965634 0.082968
v 4.590000 1.961732 0.092388
v 4.598660 1.963683 0.087678
v 4.595000 1.962254 0.091126
v 4.000000 1.936499 0.063501
v 4.010000 1.929289 0.070711
v 4.001340 1.932894 0.067106
v 4.005000 1.930255 0.069745
v 4.600000 1.936499 0.063501
v 4.590000 1.929289 0.070711
v 4.598660 1.932894 0.067106
v 4.595000 1.930255 0.069745
v 4.000000 1.917032 0.034367
v 4.010000 1.907612 0.038268
v 4.001340 1.912322 0.036317
v 4.005000 1.908874 0.037746
v 4.600000 1.917032 0.034367
v 4.590000 1.907612 0.038268
v 4.598660 1.912322 0.036317
v 4.595000 1.908874 0.037746
v 4.000000 1.910196 0.000000
v 4.010000 1.900000 0.000000
v 4.001340 1.905098 0.000000
v 4.005000 1.901366 0.000000
v 4.600000 1.910196 0.000000
v 4.590000 1.900000 0.000000
v 4.598660 1.905098 0.000000
v 4.595000 1.901366 0.000000
v 4.000000 1.917032 -0.034367
v 4.010000 1.907612 -0.038268
v 4.001340 1.912322 -0.036317
v 4.005000 1.908874 -0.037746
v 4.600000 1.917032 -0.034367
v 4.590000 1.907612 -0.038268
v 4.598660 1.912322 -0.036317
v 4.595000 1.908874 -0.037746
v 4.000000 1.936499 -0.063501
v 4.010000 1.929289 -0.070711
v 4.001340 1.932894 -0.067106
v 4.005000 1.930255 -0.069745
v 4.600000 1.936499 -0.063501
v 4.590000 1.929289 -0.070711
v 4.598660 1.932894 -0.067106
v 4.595000 1.930255 -0.069745
v 4.000000 1.965634 -0.082968
v 4.010000 1.961732 -0.092388
v 4.001340 1.963683 -0.087678
v 4.005000 1.962254 -0.091126
v 4.600000 1.965634 -0.082968
v 4.590000 1.961732 -0.092388
v 4.598660 1.963683 -0.087678
v 4.595000 1.962254 -0.091126
v 4.000000 2.000000 -0.089804
v 4.010000 2.000000 -0.100000
v 4.001340 2.000000 -0.094902
v 4.005000 2.000000 -0.098634
v 4.600000 2.000000 -0.089804
v 4.590000 2.000000 -0.100000
v 4.598660 2.000000 -0.094902
v 4.595000 2.000000 -0.098634
v 4.000000 2.034367 -0.082968
v 4.010000 2.038268 -0.092388
v 4.001340 2.036317 -0.087678
v 4.005000 2.037746 -0.091126
v 4.600000 2.034367 -0.082968
v 4.590000 2.038268 -0.092388
v 4.598660 2.036317 -0.087678
v 4.595000 2.037746 -0.091126
v 4.000000 2.063501 -0.063501
v 4.010000 2.070711 -0.070711
v 4.001340 2.067106 -0.067106
v 4.005000 2.069745 -0.069745
v 4.600000 2.063501 -0.063501
v 4.590000 2.070711 -0.070711
v 4.598660 2.067106 -0.067106
v 4.595000 2.069745 -0.069745
v 4.000000 2.082968 -0.034367
v 4.010000 2.092388 -0.038268
v 4.001340 2.087678 -0.036317
v 4.005000 2.091126 -0.037746
v 4.600000 2.082968 -0.034367
v 4.590000 2.092388 -0.038268
v 4.598660 2.087678 -0.036317
v 4.595000 2.091126 -0.037746
v 4.000000 2.139804 0.550000
v 4.000000 2.150000 0.560000
v 4.000000 2.144902 0.551340
v 4.000000 2.148634 0.555000
v 4.000000 2.139804 0.650000
v 4.000000 2.150000 0.640000
v 4.000000 2.144902 0.648660
v 4.000000 2.148634 0.645000
v 4.053501 2.129162 0.550000
v 4.057403 2.138582 0.560000
v 4.055451 2.133872 0.551340
v 4.056880 2.137320 0.555000
v 4.053501 2.129162 0.650000
v 4.057403 2.138582 0.640000
v 4.055451 2.133872 0.648660
v 4.056880 2.137320 0.645000
v 4.098856 2.098856 0.550000
v 4.106066 2.106066 0.560000
v 4.102461 2.102461 0.551340
v 4.105100 2.105100 0.555000
v 4.098856 2.098856 0.650000
v 4.106066 2.106066 0.640000
v 4.102461 2.102461 0.648660
v 4.105100 2.105100 0.645000
v 4.129162 2.053501 0.550000
v 4.138582 2.057403 0.560000
v 4.133872 2.055452 0.551340
v 4.137320 2.056880 0.555000
v 4.129162 2.053501 0.650000
v 4.138582 2.057403 0.640000
v 4.133872 2.055452 0.648660
v 4.137320 2.056880 0.645000
v 4.139804 2.000000 0.550000
v 4.150000 2.000000 0.560000
v 4.144902 2.000000 0.551340
v 4.148634 2.000000 0.555000
v 4.139804 2.000000 0.650000
v 4.150000 2.000000 0.640000
v 4.144902 2.000000 0.648660
v 4.148634 2.000000 0.645000
v 4.129162 1.946499 0.550000
v 4.138582 1.942598 0.560000
v 4.133872 1.944548 0.551340
v 4.137320 1.943120 0.555000
v 4.129162 1.946499 0.650000
v 4.138582 1.942598 0.640000
v 4.133872 1.944548 0.648660
v 4.137320 1.943120 0.645000
v 4.098856 1.901144 0.550000
v 4.106066 1.893934 0.560000
v 4.102461 1.897539 0.551340
v 4.105100 1.894900 0.555000
v 4.098856 1.901144 0.650000
v 4.106066 1.893934 0.640000
v 4.102461 1.897539 0.648660
v 4.105100 1.894900 0.645000
v 4.053501 1.870838 0.550000
v 4.057403 1.861418 0.560000
v 4.055451 1.866128 0.551340
v 4.056880 1.862680 0.555000
v 4.053501 1.870838 0.650000
v 4.057403 1.861418 0.640000
v 4.055451 1.866128 0.648660
v 4.056880 1.862680 0.645000
v 4.000000 1.860196 0.550000
v 4.000000 1.850000 0.560000
v 4.000000 1.855098 0.551340
v 4.000000 1.851366 0.555000
v 4.000000 1.860196 0.650000
v 4.000000 1.850000 0.640000
v 4.000000 1.855098 0.648660
v 4.000000 1.851366 0.645000
v 3.946499 1.870838 0.550000
v 3.942597 1.861418 0.560000
v 3.944548 1.866128 0.551340
v 3.943120 1.862680 0.555000
v 3.946499 1.870838 0.650000
v 3.942597 1.861418 0.640000
v 3.944548 1.866128 0.648660
v 3.943120 1.862680 0.645000
v 3.901144 1.901144 0.550000
v 3.893934 1.893934 0.560000
v 3.897539 1.897539 0.551340
v 3.894900 1.894900 0.555000
v 3.901144 1.901144 0.650000
v 3.893934 1.893934 0.640000
v 3.897539 1.897539 0.648660
v 3.894900 1.894900 0.645000
v 3.870838 1.946499 0.550000
v 3.861418 1.942598 0.560000
v 3.866128 1.944548 0.551340
v 3.862680 1.943120 0.555000
v 3.870838 1.946499 0.650000
v 3.861418 1.942598 0.640000
v 3.866128 1.944548 0.648660
v 3.862680 1.943120 0.645000
v 3.860196 2.000000 0.550000
v 3.850000 2.000000 0.560000
v 3.855098 2.000000 0.551340
v 3.851366 2.000000 0.555000
v 3.860196 2.000000 0.650000
v 3.850000 2.000000 0.640000
v 3.855098 2.000000 0.648660
v 3.851366 2.000000 0.645000
v 3.870838 2.053501 0.550000
v 3.861418 2.057403 0.560000
v 3.866128 2.055452 0.551340
v 3.862680 2.056880 0.555000
v 3.870838 2.053501 0.650000
v 3.861418 2.057403 0.640000
v 3.866128 2.055452 0.648660
v 3.862680 2.056880 0.645000
v 3.901144 2.098856 0.550000
v 3.893934 2.106066 0.560000
v 3.897539 2.102461 0.551340
v 3.894900 2.105100 0.555000
v 3.901144 2.098856 0.650000
v 3.893934 2.106066 0.640000
v 3.897539 2.102461 0.648660
v 3.894900 2.105100 0.645000
v 3.946499 2.129162 0.550000
v 3.942597 2.138582 0.560000
v 3.944548 2.133872 0.551340
v 3.943120 2.137320 0.555000
v 3.946499 2.129162 0.650000
v 3.942597 2.138582 0.640000
v 3.944548 2.133872 0.648660
v 3.943120 2.137320 0.645000
v 4.000000 2.139804 -0.650000
v 4.000000 2.150000 -0.640000
v 4.000000 2.144902 -0.648660
v 4.000000 2.148634 -0.645000
v 4.000000 2.139804 -0.550000
v 4.000000 2.150000 -0.560000
v 4.000000 2.144902 -0.551340
v 4.000000 2.148634 -0.555000
v 4.053501 2.129162 -0.650000
v 4.057403 2.138582 -0.640000
v 4.055451 2.133872 -0.648660
v 4.056880 2.137320 -0.645000
v 4.053501 2.129162 -0.550000
v 4.057403 2.138582 -0.560000
v 4.055451 2.133872 -0.551340
v 4.056880 2.137320 -0.555000
v 4.098856 2.098856 -0.650000
v 4.106066 2.106066 -0.640000
v 4.102461 2.102461 -0.648660
v 4.105100 2.105100 -0.645000
v 4.098856 2.098856 -0.550000
v 4.106066 2.106066 -0.560000
v 4.102461 2.102461 -0.551340
v 4.105100 2.105100 -0.555000
v 4.138582 2.057403 -0.640000
v 4.129162 2.053501 -0.650000
v 4.137320 2.056880 -0.645000
v 4.133872 2.055452 -0.648660
v 4.129162 2.053501 -0.550000
v 4.138582 2.057403 -0.560000
v 4.133872 2.055452 -0.551340
v 4.137320 2.056880 -0.555000
v 4.139804 2.000000 -0.650000
v 4.150000 2.000000 -0.640000
v 4.144902 2.000000 -0.648660
v 4.148634 2.000000 -0.645000
v 4.139804 2.000000 -0.550000
v 4.150000 2.000000 -0.560000
v 4.144902 2.000000 -0.551340
v 4.148634 2.000000 -0.555000
v 4.129162 1.946499 -0.650000
v 4.138582 1.942598 -0.640000
v 4.133872 1.944548 -0.648660
v 4.137320 1.943120 -0.645000
v 4.129162 1.946499 -0.550000
v 4.138582 1.942598 -0.560000
v 4.133872 1.944548 -0.551340
v 4.137320 1.943120 -0.555000
v 4.098856 1.901144 -0.650000
v 4.106066 1.893934 -0.640000
v 4.102461 1.897539 -0.648660
v 4.105100 1.894900 -0.645000
v 4.098856 1.901144 -0.550000
v 4.106066 1.893934 -0.560000
v 4.102461 1.897539 -0.551340
v 4.105100 1.894900 -0.555000
v 4.053501 1.870838 -0.650000
v 4.057403 1.861418 -0.640000
v 4.055451 1.866128 -0.648660
v 4.056880 1.862680 -0.645000
v 4.053501 1.870838 -0.550000
v 4.057403 1.861418 -0.560000
v 4.055451 1.866128 -0.551340
v 4.056880 1.862680 -0.555000
v 4.000000 1.860196 -0.650000
v 4.000000 1.850000 -0.640000
v 4.000000 1.855098 -0.648660
v 4.000000 1.851366 -0.645000
v 4.000000 1.860196 -0.550000
v 4.000000 1.850000 -0.560000
v 4.000000 1.855098 -0.551340
v 4.000000 1.851366 -0.555000
v 3.946499 1.870838 -0.650000
v 3.942597 1.861418 -0.640000
v 3.944548 1.866128 -0.648660
v 3.943120 1.862680 -0.645000
v 3.946499 1.870838 -0.550000
v 3.942597 1.861418 -0.560000
v 3.944548 1.866128 -0.551340
v 3.943120 1.862680 -0.555000
v 3.901144 1.901144 -0.650000
v 3.893934 1.893934 -0.640000
v 3.897539 1.897539 -0.648660
v 3.894900 1.894900 -0.645000
v 3.901144 1.901144 -0.550000
v 3.893934 1.893934 -0.560000
v 3.897539 1.897539 -0.551340
v 3.894900 1.894900 -0.555000
v 3.870838 1.946499 -0.650000
v 3.861418 1.942598 -0.640000
v 3.866128 1.944548 -0.648660
v 3.862680 1.943120 -0.645000
v 3.870838 1.946499 -0.550000
v 3.861418 1.942598 -0.560000
v 3.866128 1.944548 -0.551340
v 3.862680 1.943120 -0.555000
v 3.860196 2.000000 -0.650000
v 3.850000 2.000000 -0.640000
v 3.855098 2.000000 -0.648660
v 3.851366 2.000000 -0.645000
v 3.860196 2.000000 -0.550000
v 3.850000 2.000000 -0.560000
v 3.855098 2.000000 -0.551340
v 3.851366 2.000000 -0.555000
v 3.870838 2.053501 -0.650000
v 3.861418 2.057403 -0.640000
v 3.866128 2.055452 -0.648660
v 3.862680 2.056880 -0.645000
v 3.870838 2.053501 -0.550000
v 3.861418 2.057403 -0.560000
v 3.866128 2.055452 -0.551340
v 3.862680 2.056880 -0.555000
v 3.901144 2.098856 -0.650000
v 3.893934 2.106066 -0.640000
v 3.897539 2.102461 -0.648660
v 3.894900 2.105100 -0.645000
v 3.901144 2.098856 -0.550000
v 3.893934 2.106066 -0.560000
v 3.897539 2.102461 -0.551340
v 3.894900 2.105100 -0.555000
v 3.946499 2.129162 -0.650000
v 3.942597 2.138582 -0.640000
v 3.944548 2.133872 -0.648660
v 3.943120 2.137320 -0.645000
v 3.946499 2.129162 -0.550000
v 3.942597 2.138582 -0.560000
v 3.944548 2.133872 -0.551340
v 3.943120 2.137320 -0.555000
v 4.550000 2.139804 0.000000
v 4.560000 2.150000 0.000000
v 4.551340 2.144902 0.000000
v 4.555000 2.148634 0.000000
v 4.650000 2.139804 0.000000
v 4.640000 2.150000 0.000000
v 4.648660 2.144902 0.000000
v 4.645000 2.148634 0.000000
v 4.550000 2.129162 0.053501
v 4.560000 2.138582 0.057403
v 4.551340 2.133872 0.055452
v 4.555000 2.137320 0.056880
v 4.650000 2.129162 0.053501
v 4.640000 2.138582 0.057403
v 4.648660 2.133872 0.055452
v 4.645000 2.137320 0.056880
v 4.550000 2.098856 0.098856
v 4.560000 2.106066 0.106066
v 4.551340 2.102461 0.102461
v 4.555000 2.105100 0.105100
v 4.650000 2.098856 0.098856
v 4.640000 2.106066 0.106066
v 4.648660 2.102461 0.102461
v 4.645000 2.105100 0.105100
v 4.560000 2.057403 0.138582
v 4.550000 2.053501 0.129162
v 4.555000 2.056880 0.137320
v 4.551340 2.055452 0.133872
v 4.650000 2.053501 0.129162
v 4.640000 2.057403 0.138582
v 4.648660 2.055452 0.133872
v 4.645000 2.056880 0.137320
v 4.550000 2.000000 0.139804
v 4.560000 2.000000 0.150000
v 4.551340 2.000000 0.144902
v 4.555000 2.000000 0.148634
v 4.650000 2.000000 0.139804
v 4.640000 2.000000 0.150000
v 4.648660 2.000000 0.144902
v 4.645000 2.000000 0.148634
v 4.550000 1.946499 0.129162
v 4.560000 1.942598 0.138582
v 4.551340 1.944548 0.133872
v 4.555000 1.943120 0.137320
v 4.650000 1.946499 0.129162
v 4.640000 1.942598 0.138582
v 4.648660 1.944548 0.133872
v 4.645000 1.943120 0.137320
v 4.550000 1.901144 0.098856
v 4.560000 1.893934 0.106066
v 4.551340 1.897539 0.102461
v 4.555000 1.894900 0.105100
v 4.650000 1.901144 0.098856
v 4.640000 1.893934 0.106066
v 4.648660 1.897539 0.102461
v 4.645000 1.894900 0.105100
v 4.550000 1.870838 0.053501
v 4.560000 1.861418 0.057403
v 4.551340 1.866128 0.055452
v 4.555000 1.862680 0.056880
v 4.650000 1.870838 0.053501
v 4.640000 1.861418 0.057403
v 4.648660 1.866128 0.055452
v 4.645000 1.862680 0.056880
v 4.550000 1.860196 0.000000
v 4.560000 1.850000 0.000000
v 4.551340 1.855098 0.000000
v 4.555000 1.851366 0.000000
v 4.650000 1.860196 0.000000
v 4.640000 1.850000 0.000000
v 4.648660 1.855098 0.000000
v 4.645000 1.851366 0.000000
v 4.550000 1.870838 -0.053501
v 4.560000 1.861418 -0.057403
v 4.551340 1.866128 -0.055452
v 4.555000 1.862680 -0.056880
v 4.650000 1.870838 -0.053501
v 4.640000 1.861418 -0.057403
v 4.648660 1.866128 -0.055452
v 4.645000 1.862680 -0.056880
v 4.550000 1.901144 -0.098856
v 4.560000 1.893934 -0.106066
v 4.551340 1.897539 -0.102461
v 4.555000 1.894900 -0.105100
v 4.650000 1.901144 -0.098856
v 4.640000 1.893934 -0.106066
v 4.648660 1.897539 -0.102461
v 4.645000 1.894900 -0.105100
v 4.550000 1.946499 -0.129162
v 4.560000 1.942598 -0.138582
v 4.551340 1.944548 -0.133872
v 4.555000 1.943120 -0.137320
v 4.650000 1.946499 -0.129162
v 4.640000 1.942598 -0.138582
v 4.648660 1.944548 -0.133872
v 4.645000 1.943120 -0.137320
v 4.550000 2.000000 -0.139804
v 4.560000 2.000000 -0.150000
v 4.551340 2.000000 -0.144902
v 4.555000 2.000000 -0.148634
v 4.650000 2.000000 -0.139804
v 4.640000 2.000000 -0.150000
v 4.648660 2.000000 -0.144902
v 4.645000 2.000000 -0.148634
v 4.550000 2.053501 -0.129162
v 4.560000 2.057403 -0.138582
v 4.551340 2.055452 -0.133872
v 4.555000 2.056880 -0.137320
v 4.650000 2.053501 -0.129162
v 4.640000 2.057403 -0.138582
v 4.648660 2.055452 -0.133872
v 4.645000 2.056880 -0.137320
v 4.550000 2.098856 -0.098856
v 4.560000 2.106066 -0.106066
v 4.551340 2.102461 -0.102461
v 4.555000 2.105100 -0.105100
v 4.650000 2.098856 -0.098856
v 4.640000 2.106066 -0.106066
v 4.648660 2.102461 -0.102461
v 4.645000 2.105100 -0.105100
v 4.550000 2.129162 -0.053501
v 4.560000 2.138582 -0.057403
v 4.551340 2.133872 -0.055452
v 4.555000 2.137320 -0.056880
v 4.650000 2.129162 -0.053501
v 4.640000 2.138582 -0.057403
v 4.648660 2.133872 -0.055452
v 4.645000 2.137320 -0.056880
vn -0.0000 -0.0000 -1.0000
vn 0.7236 -0.5257 -0.4472
vn -0.2764 -0.8506 -0.4472
vn -0.8944 -0.0000 -0.4472
vn -0.2764 0.8506 -0.4472
vn 0.7236 0.5257 -0.4472
vn 0.2764 -0.8506 0.4472
vn -0.7236 -0.5257 0.4472
vn -0.7236 0.5257 0.4472
vn 0.2764 0.8506 0.4472
vn 0.8944 -0.0000 0.4472
vn -0.0000 -0.0000 1.0000
vn 0.2629 0.8090 -0.5257
vn -0.0000 -1.0000 -0.0000
vn -0.4253 0.3090 0.8507
vn 0.1625 -0.5000 0.8507
vn 0.5878 -0.8090 -0.0000
vn 0.9511 -0.3090 -0.0000
vn 0.1625 0.5000 0.8507
vn 0.5257 -0.0000 0.8507
vn 0.9511 0.3090 -0.0000
vn -0.9511 -0.3090 -0.0000
vn -0.5878 -0.8090 -0.0000
vn -0.4253 -0.3090 0.8507
vn 0.6882 0.5000 0.5257
vn -0.6882 0.5000 -0.5257
vn -0.2629 0.8090 0.5257
vn -0.1625 0.5000 -0.8507
vn -0.8506 -0.0000 0.5257
vn -0.6882 -0.5000 -0.5257
vn -0.2629 -0.8090 0.5257
vn -0.5257 -0.0000 -0.8507
vn 0.6882 -0.5000 0.5257
vn 0.4253 0.3090 -0.8507
vn -0.0000 1.0000 -0.0000
vn 0.8506 -0.0000 -0.5257
vn 0.5878 0.8090 -0.0000
vn 0.2629 -0.8090 -0.5257
vn -0.9511 0.3090 -0.0000
vn 0.4253 -0.3090 -0.8507
vn -0.5878 0.8090 -0.0000
vn -0.1625 -0.5000 -0.8507
vn -0.0000 0.1438 -0.9896
vn -0.0000 0.9914 -0.1308
vn -0.0000 0.5172 -0.8559
vn -0.0000 0.8702 -0.4926
vn -0.0000 0.1438 0.9896
vn -0.0000 0.9914 0.1308
vn -0.0000 0.5172 0.8559
vn -0.0000 0.8702 0.4926
vn 0.0550 0.1329 -0.9896
vn 0.3794 0.9159 -0.1308
vn 0.1979 0.4778 -0.8559
vn 0.3330 0.8040 -0.4926
vn 0.0550 0.1329 0.9896
vn 0.3794 0.9159 0.1308
vn 0.1979 0.4778 0.8559
vn 0.3330 0.8040 0.4926
vn 0.1017 0.1017 -0.9896
vn 0.7010 0.7010 -0.1308
vn 0.3657 0.3657 -0.8559
vn 0.6154 0.6154 -0.4926
vn 0.1017 0.1017 0.9896
vn 0.7010 0.7010 0.1308
vn 0.3657 0.3657 0.8559
vn 0.6154 0.6154 0.4926
vn 0.1329 0.0550 -0.9896
vn 0.9159 0.3794 -0.1308
vn 0.4778 0.1979 -0.8559
vn 0.8040 0.3330 -0.4926
vn 0.1329 0.0550 0.9896
vn 0.9159 0.3794 0.1308
vn 0.4778 0.1979 0.8559
vn 0.8040 0.3330 0.4926
vn 0.1438 -0.0000 -0.9896
vn 0.9914 -0.0000 -0.1308
vn 0.5172 -0.0000 -0.8559
vn 0.8702 -0.0000 -0.4926
vn 0.1438 -0.0000 0.9896
vn 0.9914 -0.0000 0.1308
vn 0.5172 -0.0000 0.8559
vn 0.8702 -0.0000 0.4926
vn 0.1329 -0.0550 -0.9896
vn 0.9159 -0.3794 -0.1308
vn 0.4778 -0.1979 -0.8559
vn 0.8040 -0.3330 -0.4926
vn 0.1329 -0.0550 0.9896
vn 0.9159 -0.3794 0.1308
vn 0.4778 -0.1979 0.8559
vn 0.8040 -0.3330 0.4926
vn 0.1017 -0.1017 -0.9896
vn 0.7010 -0.7010 -0.1308
vn 0.3657 -0.3657 -0.8559
vn 0.6154 -0.6154 -0.4926
vn 0.1017 -0.1017 0.9896
vn 0.7010 -0.7010 0.1308
vn 0.3657 -0.3657 0.8559
vn 0.6154 -0.6154 0.4926
vn 0.0550 -0.1329 -0.9896
vn 0.3794 -0.9159 -0.1308
vn 0.1979 -0.4778 -0.8559
vn 0.3330 -0.8040 -0.4926
vn 0.0550 -0.1329 0.9896
vn 0.3794 -0.9159 0.1308
vn 0.1979 -0.4778 0.8559
vn 0.3330 -0.8040 0.4926
vn -0.0000 -0.1438 -0.9896
vn -0.0000 -0.9914 -0.1308
vn -0.0000 -0.5172 -0.8559
vn -0.0000 -0.8702 -0.4926
vn -0.0000 -0.1438 0.9896
vn -0.0000 -0.9914 0.1308
vn -0.0000 -0.5172 0.8559
vn -0.0000 -0.8702 0.4926
vn -0.0550 -0.1329 -0.9896
vn -0.3794 -0.9159 -0.1308
vn -0.1979 -0.4778 -0.8559
vn -0.3330 -0.8040 -0.4926
vn -0.0550 -0.1329 0.9896
vn -0.3794 -0.9159 0.1308
vn -0.1979 -0.4778 0.8559
vn -0.3330 -0.8040 0.4926
vn -0.1017 -0.1017 -0.9896
vn -0.7010 -0.7010 -0.1308
vn -0.3657 -0.3657 -0.8559
vn -0.6154 -0.6154 -0.4926
vn -0.1017 -0.1017 0.9896
vn -0.7010 -0.7010 0.1308
vn -0.3657 -0.3657 0.8559
vn -0.6154 -0.6154 0.4926
vn -0.1329 -0.0550 -0.9896
vn -0.9159 -0.3794 -0.1308
vn -0.4778 -0.1979 -0.8559
vn -0.8040 -0.3330 -0.4926
vn -0.1329 -0.0550 0.9896
vn -0.9159 -0.3794 0.1308
vn -0.4778 -0.1979 0.8559
vn -0.8040 -0.3330 0.4926
vn -0.1438 -0.0000 -0.9896
vn -0.9914 -0.0000 -0.1308
vn -0.5172 -0.0000 -0.8559
vn -0.8702 -0.0000 -0.4926
vn -0.1438 -0.0000 0.9896
vn -0.9914 -0.0000 0.1308
vn -0.5172 -0.0000 0.8559
vn -0.8702 -0.0000 0.4926
vn -0.1329 0.0550 -0.9896
vn -0.9159 0.3794 -0.1308
vn -0.4778 0.1979 -0.8559
vn -0.8040 0.3330 -0.4926
vn -0.1329 0.0550 0.9896
vn -0.9159 0.3794 0.1308
vn -0.4778 0.1979 0.8559
vn -0.8040 0.3330 0.4926
vn -0.1017 0.1017 -0.9896
vn -0.7010 0.7010 -0.1308
vn -0.3657 0.3657 -0.8559
vn -0.6154 0.6154 -0.4926
vn -0.1017 0.1017 0.9896
vn -0.7010 0.7010 0.1308
vn -0.3657 0.3657 0.8559
vn -0.6154 0.6154 0.4926
vn -0.0550 0.1329 -0.9896
vn -0.3794 0.9159 -0.1308
vn -0.1979 0.4778 -0.8559
vn -0.3330 0.8040 -0.4926
vn -0.0550 0.1329 0.9896
vn -0.3794 0.9159 0.1308
vn -0.1979 0.4778 0.8559
vn -0.3330 0.8040 0.4926
vn 0.9896 -0.1438 -0.0000
vn 0.1308 -0.9914 -0.0000
vn 0.8559 -0.5172 -0.0000
vn 0.4926 -0.8702 -0.0000
vn -0.9896 -0.1438 -0.0000
vn -0.1308 -0.9914 -0.0000
vn -0.8559 -0.5172 -0.0000
vn -0.4926 -0.8702 -0.0000
vn 0.9896 -0.1329 -0.0550
vn 0.1308 -0.9159 -0.3794
vn 0.8559 -0.4778 -0.1979
vn 0.4926 -0.8040 -0.3330
vn -0.9896 -0.1329 -0.0550
vn -0.1308 -0.9159 -0.3794
vn -0.8559 -0.4778 -0.1979
vn -0.4926 -0.8040 -0.3330
vn 0.9896 -0.1017 -0.1017
vn 0.1308 -0.7010 -0.7010
vn 0.8559 -0.3657 -0.3657
vn 0.4926 -0.6154 -0.6154
vn -0.9896 -0.1017 -0.1017
vn -0.1308 -0.7010 -0.7010
vn -0.8559 -0.3657 -0.3657
vn -0.4926 -0.6154 -0.6154
vn 0.1308 -0.3794 -0.9159
vn 0.9896 -0.0550 -0.1329
vn 0.4926 -0.3330 -0.8040
vn 0.8559 -0.1979 -0.4778
vn -0.9896 -0.0550 -0.1329
vn -0.1308 -0.3794 -0.9159
vn -0.8559 -0.1979 -0.4778
vn -0.4926 -0.3330 -0.8040
vn 0.9896 -0.0000 -0.1438
vn 0.1308 -0.0000 -0.9914
vn 0.8559 -0.0000 -0.5172
vn 0.4926 -0.0000 -0.8702
vn -0.9896 -0.0000 -0.1438
vn -0.1308 -0.0000 -0.9914
vn -0.8559 -0.0000 -0.5172
vn -0.4926 -0.0000 -0.8702
vn 0.9896 0.0550 -0.1329
vn 0.1308 0.3794 -0.9159
vn 0.8559 0.1979 -0.4778
vn 0.4926 0.3330 -0.8040
vn -0.9896 0.0550 -0.1329
vn -0.1308 0.3794 -0.9159
vn -0.8559 0.1979 -0.4778
vn -0.4926 0.3330 -0.8040
vn 0.9896 0.1017 -0.1017
vn 0.1308 0.7010 -0.7010
vn 0.8559 0.3657 -0.3657
vn 0.4926 0.6154 -0.6154
vn -0.9896 0.1017 -0.1017
vn -0.1308 0.7010 -0.7010
vn -0.8559 0.3657 -0.3657
vn -0.4926 0.6154 -0.6154
vn 0.9896 0.1329 -0.0550
vn 0.1308 0.9159 -0.3794
vn 0.8559 0.4778 -0.1979
vn 0.4926 0.8040 -0.3330
vn -0.9896 0.1329 -0.0550
vn -0.1308 0.9159 -0.3794
vn -0.8559 0.4778 -0.1979
vn -0.4926 0.8040 -0.3330
vn 0.9896 0.1438 -0.0000
vn 0.1308 0.9914 -0.0000
vn 0.8559 0.5172 -0.0000
vn 0.4926 0.8702 -0.0000
vn -0.9896 0.1438 -0.0000
vn -0.1308 0.9914 -0.0000
vn -0.8559 0.5172 -0.0000
vn -0.4926 0.8702 -0.0000
vn 0.9896 0.1329 0.0550
vn 0.1308 0.9159 0.3794
vn 0.8559 0.4778 0.1979
vn 0.4926 0.8040 0.3330
vn -0.9896 0.1329 0.0550
vn -0.1308 0.9159 0.3794
vn -0.8559 0.4778 0.1979
vn -0.4926 0.8040 0.3330
vn 0.9896 0.1017 0.1017
vn 0.1308 0.7010 0.7010
vn 0.8559 0.3657 0.3657
vn 0.4926 0.6154 0.6154
vn -0.9896 0.1017 0.1017
vn -0.1308 0.7010 0.7010
vn -0.8559 0.3657 0.3657
vn -0.4926 0.6154 0.6154
vn 0.9896 0.0550 0.1329
vn 0.1308 0.3794 0.9159
vn 0.8559 0.1979 0.4778
vn 0.4926 0.3330 0.8040
vn -0.9896 0.0550 0.1329
vn -0.1308 0.3794 0.9159
vn -0.8559 0.1979 0.4778
vn -0.4926 0.3330 0.8040
vn 0.9896 -0.0000 0.1438
vn 0.1308 -0.0000 0.9914
vn 0.8559 -0.0000 0.5172
vn 0.4926 -0.0000 0.8702
vn -0.9896 -0.0000 0.1438
vn -0.1308 -0.0000 0.9914
vn -0.8559 -0.0000 0.5172
vn -0.4926 -0.0000 0.8702
vn 0.9896 -0.0550 0.1329
vn 0.1308 -0.3794 0.9159
vn 0.8559 -0.1979 0.4778
vn 0.4926 -0.3330 0.8040
vn -0.9896 -0.0550 0.1329
vn -0.1308 -0.3794 0.9159
vn -0.8559 -0.1979 0.4778
vn -0.4926 -0.3330 0.8040
vn 0.9896 -0.1017 0.1017
vn 0.1308 -0.7010 0.7010
vn 0.8559 -0.3657 0.3657
vn 0.4926 -0.6154 0.6154
vn -0.9896 -0.1017 0.1017
vn -0.1308 -0.7010 0.7010
vn -0.8559 -0.3657 0.3657
vn -0.4926 -0.6154 0.6154
vn 0.9896 -0.1329 0.0550
vn 0.1308 -0.9159 0.3794
vn 0.8559 -0.4778 0.1979
vn 0.4926 -0.8040 0.3330
vn -0.9896 -0.1329 0.0550
vn -0.1308 -0.9159 0.3794
vn -0.8559 -0.4778 0.1979
vn -0.4926 -0.8040 0.3330
vt 0.872381 0.031365
vt 0.836428 0.045604
vt 0.856833 0.004890
vt 0.941674 0.070014
vt 0.910043 0.048860
vt 0.943059 0.029619
vt 0.268158 0.746940
vt 0.295922 0.785152
vt 0.255743 0.785152
vt 0.037396 0.758426
vt 0.014599 0.741863
vt 0.049812 0.720213
vt 0.447007 0.830867
vt 0.406925 0.838466
vt 0.423143 0.797610
vt 0.469639 0.795760
vt 0.308338 0.746940
vt 0.910044 0.095497
vt 0.902331 0.128998
vt 0.872382 0.110708
vt 0.872381 0.236411
vt 0.836428 0.222172
vt 0.869315 0.194996
vt 0.910043 0.218916
vt 0.902329 0.006902
vt 0.004890 0.782042
vt 0.037396 0.805659
vt 0.527087 0.830867
vt 0.491937 0.835474
vt 0.504455 0.795760
vt 0.550951 0.797610
vt 0.443398 0.861868
vt 0.223237 0.761536
vt 0.235653 0.723323
vt 0.599186 0.833734
vt 0.567169 0.838466
vt 0.593330 0.799295
vt 0.836428 0.092241
vt 0.869314 0.072779
vt 0.082317 0.743830
vt 0.069902 0.782042
vt 0.082317 0.820255
vt 0.571594 0.764224
vt 0.530616 0.756589
vt 0.560427 0.732923
vt 0.110081 0.782042
vt 0.941674 0.197762
vt 0.910044 0.172279
vt 0.943059 0.162697
vt 0.200440 0.744973
vt 0.943059 0.105079
vt 0.276866 0.720141
vt 0.443478 0.756589
vt 0.402500 0.764224
vt 0.413667 0.732923
vt 0.856833 0.262886
vt 0.122497 0.743829
vt 0.482157 0.835474
vt 0.223237 0.808769
vt 0.190731 0.785152
vt 0.872382 0.157068
vt 0.902331 0.138778
vt 0.530696 0.861868
vt 0.122497 0.820255
vt 0.902329 0.260874
vt 0.268158 0.823365
vt 0.235653 0.846982
vt 0.200440 0.825331
vt 0.049812 0.843872
vt 0.014599 0.822221
vt 0.599186 0.759316
vt 0.492492 0.761078
vt 0.943059 0.238157
vt 0.836428 0.175535
vt 0.481602 0.761078
vt 0.380764 0.799295
vt 0.374908 0.833734
vt 0.374908 0.759316
vt 0.308338 0.823365
vt 0.276866 0.850164
vt 0.374908 0.351746
vt 0.393980 0.351746
vt 0.393992 0.357625
vt 0.375038 0.357625
vt 0.926730 0.561970
vt 0.942941 0.578182
vt 0.940474 0.579830
vt 0.925081 0.564437
vt 0.937982 0.581495
vt 0.923416 0.566929
vt 0.234315 0.704482
vt 0.255956 0.704482
vt 0.255941 0.707421
vt 0.234311 0.707421
vt 0.255898 0.710361
vt 0.234299 0.710361
vt 0.778880 0.805032
vt 0.778880 0.782138
vt 0.784647 0.783285
vt 0.784647 0.803885
vt 0.458048 0.010769
vt 0.438976 0.010769
vt 0.438964 0.004890
vt 0.457918 0.004890
vt 0.926857 0.436956
vt 0.942941 0.453083
vt 0.940474 0.454731
vt 0.925456 0.438432
vt 0.937982 0.456396
vt 0.923416 0.441830
vt 0.255956 0.010769
vt 0.234315 0.010769
vt 0.234311 0.007829
vt 0.255941 0.007829
vt 0.234299 0.004890
vt 0.255898 0.004890
vt 0.662542 0.826183
vt 0.653781 0.805032
vt 0.659548 0.803885
vt 0.667431 0.822916
vt 0.393980 0.010769
vt 0.374908 0.010769
vt 0.375038 0.004890
vt 0.393992 0.004890
vt 0.951714 0.497190
vt 0.942941 0.518372
vt 0.940474 0.516724
vt 0.948805 0.496612
vt 0.937982 0.515059
vt 0.945866 0.496027
vt 0.273039 0.704482
vt 0.272923 0.707421
vt 0.272604 0.710361
vt 0.787641 0.760987
vt 0.792530 0.764253
vt 0.273039 0.010769
vt 0.272923 0.007829
vt 0.272604 0.004890
vt 0.678731 0.842372
vt 0.681997 0.837482
vt 0.004890 0.704554
vt 0.023963 0.704495
vt 0.023974 0.707435
vt 0.005020 0.707493
vt 0.024006 0.710374
vt 0.005376 0.710431
vt 0.803830 0.744798
vt 0.807096 0.749687
vt 0.023963 0.010789
vt 0.004890 0.010848
vt 0.005020 0.007908
vt 0.023974 0.007850
vt 0.005376 0.004968
vt 0.024006 0.004911
vt 0.699882 0.851133
vt 0.701029 0.845366
vt 0.046460 0.704474
vt 0.046460 0.707414
vt 0.046460 0.710354
vt 0.824981 0.736037
vt 0.826128 0.741804
vt 0.560749 0.712120
vt 0.579821 0.710321
vt 0.579833 0.713235
vt 0.560879 0.715017
vt 0.579865 0.716156
vt 0.561235 0.717894
vt 0.941167 0.642516
vt 0.926683 0.659613
vt 0.923416 0.654724
vt 0.937982 0.640158
vt 0.046460 0.010769
vt 0.046460 0.007830
vt 0.046460 0.004891
vt 0.722776 0.851133
vt 0.721629 0.845366
vt 0.416478 0.351746
vt 0.416478 0.357625
vt 0.951714 0.599363
vt 0.948805 0.599942
vt 0.945865 0.600526
vt 0.068958 0.704495
vt 0.068946 0.707435
vt 0.068914 0.710374
vt 0.847875 0.736037
vt 0.846728 0.741804
vt 0.068958 0.010789
vt 0.068946 0.007850
vt 0.068914 0.004911
vt 0.743927 0.842372
vt 0.740660 0.837483
vt 0.088031 0.704554
vt 0.087900 0.707493
vt 0.087544 0.710431
vt 0.869026 0.744798
vt 0.865759 0.749687
vt 0.579821 0.372756
vt 0.560749 0.374555
vt 0.560879 0.371633
vt 0.579833 0.369850
vt 0.561235 0.368689
vt 0.579865 0.366951
vt 0.905532 0.428179
vt 0.904385 0.433946
vt 0.088031 0.010848
vt 0.087900 0.007908
vt 0.087544 0.004968
vt 0.760115 0.826183
vt 0.755226 0.822917
vt 0.416478 0.010769
vt 0.416478 0.004890
vt 0.951714 0.474264
vt 0.948805 0.474843
vt 0.945866 0.475427
vt 0.282819 0.704482
vt 0.299902 0.704482
vt 0.299918 0.707421
vt 0.282936 0.707421
vt 0.299960 0.710361
vt 0.283255 0.710361
vt 0.885215 0.760987
vt 0.880326 0.764254
vt 0.299902 0.010769
vt 0.282819 0.010769
vt 0.282936 0.007829
vt 0.299918 0.007829
vt 0.283255 0.004890
vt 0.299960 0.004890
vt 0.768876 0.805032
vt 0.763110 0.803885
vt 0.321543 0.704482
vt 0.321548 0.707421
vt 0.321559 0.710361
vt 0.893976 0.782138
vt 0.888209 0.783285
vt 0.321543 0.010769
vt 0.321548 0.007829
vt 0.321559 0.004890
vt 0.768876 0.782138
vt 0.763109 0.783285
vt 0.344447 0.704482
vt 0.344440 0.707421
vt 0.344419 0.710361
vt 0.893976 0.805032
vt 0.888209 0.803885
vt 0.344447 0.010769
vt 0.344440 0.007829
vt 0.344419 0.004890
vt 0.760115 0.760987
vt 0.755226 0.764254
vt 0.438976 0.351746
vt 0.438964 0.357625
vt 0.951714 0.622290
vt 0.948805 0.621711
vt 0.945865 0.621126
vt 0.365128 0.704482
vt 0.364986 0.707421
vt 0.364600 0.710361
vt 0.885215 0.826183
vt 0.880326 0.822916
vt 0.602319 0.709689
vt 0.602319 0.712604
vt 0.602319 0.715526
vt 0.905532 0.668374
vt 0.904385 0.662607
vt 0.365128 0.010769
vt 0.364986 0.007829
vt 0.364600 0.004890
vt 0.743927 0.744798
vt 0.740660 0.749687
vt 0.097811 0.704475
vt 0.116883 0.704533
vt 0.116895 0.707472
vt 0.097941 0.707414
vt 0.116927 0.710411
vt 0.098297 0.710355
vt 0.869026 0.842371
vt 0.865760 0.837483
vt 0.116883 0.010828
vt 0.097811 0.010769
vt 0.097941 0.007830
vt 0.116895 0.007888
vt 0.098297 0.004892
vt 0.116927 0.004948
vt 0.722776 0.736037
vt 0.721629 0.741804
vt 0.139381 0.704554
vt 0.139381 0.707493
vt 0.139381 0.710432
vt 0.847875 0.851133
vt 0.846728 0.845366
vt 0.139381 0.010848
vt 0.139381 0.007909
vt 0.139381 0.004969
vt 0.699882 0.736037
vt 0.701029 0.741804
vt 0.161878 0.704533
vt 0.161867 0.707472
vt 0.161835 0.710412
vt 0.824981 0.851133
vt 0.826128 0.845366
vt 0.602319 0.372125
vt 0.602319 0.369219
vt 0.602319 0.366321
vt 0.882638 0.428179
vt 0.883786 0.433946
vt 0.161878 0.010828
vt 0.161867 0.007888
vt 0.161835 0.004948
vt 0.678731 0.744798
vt 0.681997 0.749687
vt 0.180951 0.704475
vt 0.180821 0.707414
vt 0.180465 0.710355
vt 0.803830 0.842371
vt 0.807097 0.837482
vt 0.180951 0.010769
vt 0.180821 0.007830
vt 0.180465 0.004892
vt 0.662542 0.760987
vt 0.667431 0.764253
vt 0.458048 0.351746
vt 0.457918 0.357625
vt 0.943026 0.643343
vt 0.190731 0.704482
vt 0.211411 0.704482
vt 0.211419 0.707421
vt 0.190872 0.707421
vt 0.211440 0.710361
vt 0.191258 0.710361
vt 0.787641 0.826183
vt 0.792530 0.822916
vt 0.211411 0.010769
vt 0.190731 0.010769
vt 0.190872 0.007829
vt 0.211419 0.007829
vt 0.191258 0.004890
vt 0.211440 0.004890
vt 0.653781 0.782138
vt 0.659548 0.783285
vt 0.560749 0.348275
vt 0.579821 0.350073
vt 0.579833 0.355889
vt 0.560879 0.354107
vt 0.926730 0.534583
vt 0.925081 0.532117
vt 0.923416 0.529625
vt 0.579821 0.012509
vt 0.560749 0.010710
vt 0.560879 0.004902
vt 0.579833 0.006685
vt 0.905548 0.553197
vt 0.904970 0.556106
vt 0.904385 0.559046
vt 0.602319 0.350705
vt 0.602319 0.356521
vt 0.905548 0.543357
vt 0.904970 0.540447
vt 0.904385 0.537508
vt 0.602319 0.013140
vt 0.602319 0.007316
vt 0.882622 0.553197
vt 0.883201 0.556106
vt 0.883785 0.559045
vt 0.624817 0.350073
vt 0.624805 0.355889
vt 0.882622 0.543356
vt 0.883201 0.540447
vt 0.883786 0.537508
vt 0.624817 0.012509
vt 0.624805 0.006685
vt 0.861441 0.561970
vt 0.863089 0.564437
vt 0.864754 0.566929
vt 0.643889 0.348275
vt 0.643759 0.354107
vt 0.861569 0.534668
vt 0.862396 0.532809
vt 0.864754 0.529624
vt 0.643889 0.010710
vt 0.643759 0.004902
vt 0.845315 0.578054
vt 0.846791 0.579455
vt 0.850188 0.581495
vt 0.467828 0.351746
vt 0.486901 0.351746
vt 0.486912 0.354686
vt 0.467958 0.354686
vt 0.486944 0.357625
vt 0.468314 0.357625
vt 0.845299 0.518325
vt 0.850188 0.515058
vt 0.486901 0.010769
vt 0.467828 0.010769
vt 0.467959 0.007829
vt 0.486913 0.007829
vt 0.468314 0.004890
vt 0.486944 0.004890
vt 0.836538 0.599379
vt 0.842305 0.600526
vt 0.509398 0.351746
vt 0.509398 0.354686
vt 0.509398 0.357625
vt 0.836538 0.497174
vt 0.842305 0.496026
vt 0.509398 0.010769
vt 0.509398 0.007829
vt 0.509398 0.004890
vt 0.836538 0.622273
vt 0.842305 0.621126
vt 0.531896 0.351746
vt 0.531884 0.354686
vt 0.531852 0.357625
vt 0.836538 0.474280
vt 0.842305 0.475427
vt 0.531896 0.010769
vt 0.531884 0.007829
vt 0.531853 0.004890
vt 0.845299 0.643424
vt 0.850188 0.640157
vt 0.550969 0.351746
vt 0.550838 0.354686
vt 0.550483 0.357625
vt 0.845299 0.453129
vt 0.850188 0.456395
vt 0.550969 0.010769
vt 0.550839 0.007829
vt 0.550483 0.004890
vt 0.861488 0.659613
vt 0.864754 0.654724
vt 0.643889 0.374555
vt 0.624817 0.372756
vt 0.624805 0.369850
vt 0.643759 0.371633
vt 0.624773 0.366951
vt 0.643403 0.368689
vt 0.861487 0.436940
vt 0.864754 0.441829
vt 0.624817 0.710321
vt 0.643889 0.712120
vt 0.643759 0.715017
vt 0.624805 0.713235
vt 0.643403 0.717894
vt 0.624773 0.716156
vt 0.882638 0.668374
vt 0.883785 0.662607
vt 0.960964 0.397376
vt 0.961052 0.368768
vt 0.963991 0.368756
vt 0.963904 0.397246
vt 0.966930 0.368724
vt 0.966844 0.396890
vt 0.813386 0.140308
vt 0.789088 0.164607
vt 0.785821 0.159718
vt 0.808497 0.137042
vt 0.958946 0.764534
vt 0.956248 0.735925
vt 0.959171 0.736056
vt 0.961852 0.764546
vt 0.962114 0.736412
vt 0.964751 0.764578
vt 0.757339 0.370520
vt 0.789086 0.383670
vt 0.785820 0.388559
vt 0.756192 0.376287
vt 0.843718 0.919111
vt 0.843718 0.886649
vt 0.846658 0.886665
vt 0.846658 0.919115
vt 0.849597 0.886707
vt 0.849597 0.919127
vt 0.375019 0.653835
vt 0.375019 0.619472
vt 0.380787 0.620619
vt 0.380787 0.652688
vt 0.913933 0.272666
vt 0.914021 0.301275
vt 0.908142 0.301286
vt 0.908055 0.272796
vt 0.666862 0.225163
vt 0.691183 0.200841
vt 0.692831 0.203308
vt 0.669328 0.226811
vt 0.694497 0.205800
vt 0.671820 0.228476
vt 0.796687 0.886649
vt 0.796687 0.919111
vt 0.790808 0.919115
vt 0.790808 0.886665
vt 0.388100 0.502870
vt 0.374938 0.471093
vt 0.377847 0.470514
vt 0.390567 0.501222
vt 0.380787 0.469929
vt 0.393059 0.499557
vt 0.914021 0.368768
vt 0.913933 0.397376
vt 0.908055 0.397246
vt 0.908142 0.368756
vt 0.757356 0.187679
vt 0.789134 0.200841
vt 0.787486 0.203308
vt 0.756778 0.190588
vt 0.785821 0.205800
vt 0.756193 0.193528
vt 0.843718 0.861025
vt 0.846658 0.861141
vt 0.849597 0.861460
vt 0.388170 0.587725
vt 0.393059 0.590991
vt 0.796687 0.861025
vt 0.790808 0.861141
vt 0.412422 0.527192
vt 0.414070 0.524725
vt 0.415735 0.522233
vt 0.010769 0.853652
vt 0.010857 0.882261
vt 0.007917 0.882272
vt 0.007830 0.853782
vt 0.004978 0.882304
vt 0.004891 0.854138
vt 0.412468 0.563426
vt 0.415735 0.568315
vt 0.057888 0.882261
vt 0.057800 0.853652
vt 0.063679 0.853782
vt 0.063767 0.882272
vt 0.444199 0.540354
vt 0.444778 0.537445
vt 0.445363 0.534505
vt 0.010888 0.916007
vt 0.007948 0.916007
vt 0.005008 0.916007
vt 0.444215 0.550276
vt 0.445363 0.556043
vt 0.380787 0.871648
vt 0.380787 0.897272
vt 0.377847 0.897288
vt 0.377847 0.871764
vt 0.374908 0.897330
vt 0.374908 0.872083
vt 0.691230 0.164607
vt 0.666931 0.140308
vt 0.671820 0.137042
vt 0.694497 0.159718
vt 0.057919 0.916007
vt 0.063797 0.916007
vt 0.478595 0.540354
vt 0.478016 0.537445
vt 0.477431 0.534505
vt 0.961083 0.335021
vt 0.964022 0.335021
vt 0.966961 0.335021
vt 0.757340 0.177757
vt 0.756193 0.171990
vt 0.010857 0.949754
vt 0.007917 0.949742
vt 0.004978 0.949710
vt 0.478579 0.550276
vt 0.477431 0.556043
vt 0.057888 0.949754
vt 0.063767 0.949742
vt 0.510372 0.527192
vt 0.508724 0.524725
vt 0.507059 0.522233
vt 0.010769 0.978362
vt 0.007830 0.978232
vt 0.004891 0.977876
vt 0.510326 0.563426
vt 0.507059 0.568315
vt 0.427818 0.897272
vt 0.427818 0.871648
vt 0.433697 0.871764
vt 0.433697 0.897288
vt 0.653699 0.256940
vt 0.656609 0.257519
vt 0.659548 0.258104
vt 0.057800 0.978362
vt 0.063679 0.978232
vt 0.534694 0.502870
vt 0.532227 0.501222
vt 0.529735 0.499557
vt 0.914052 0.335021
vt 0.908173 0.335021
vt 0.722961 0.187679
vt 0.723540 0.190588
vt 0.724124 0.193528
vt 0.956778 0.993879
vt 0.956778 0.968254
vt 0.959717 0.968238
vt 0.959717 0.993762
vt 0.962657 0.968196
vt 0.962657 0.993443
vt 0.534624 0.587725
vt 0.529735 0.590991
vt 0.312329 0.888553
vt 0.312329 0.859944
vt 0.315268 0.860074
vt 0.315268 0.888565
vt 0.318208 0.860430
vt 0.318208 0.888597
vt 0.826534 0.474079
vt 0.813384 0.505826
vt 0.808495 0.502560
vt 0.820767 0.472932
vt 0.909747 0.968254
vt 0.909747 0.993879
vt 0.903868 0.993762
vt 0.903868 0.968238
vt 0.547856 0.471093
vt 0.544947 0.470514
vt 0.542008 0.469929
vt 0.265298 0.888553
vt 0.265298 0.922299
vt 0.262358 0.922299
vt 0.262358 0.888565
vt 0.259419 0.922299
vt 0.259419 0.888597
vt 0.813384 0.590727
vt 0.826534 0.622475
vt 0.820768 0.623622
vt 0.808495 0.593994
vt 0.956778 0.935793
vt 0.959717 0.935789
vt 0.962657 0.935777
vt 0.547775 0.619472
vt 0.542008 0.620619
vt 0.909747 0.935793
vt 0.903868 0.935788
vt 0.547856 0.436697
vt 0.544947 0.437276
vt 0.542008 0.437860
vt 0.956778 0.901437
vt 0.959717 0.901444
vt 0.962657 0.901465
vt 0.547775 0.653835
vt 0.542008 0.652688
vt 0.909747 0.901437
vt 0.903868 0.901444
vt 0.534694 0.404919
vt 0.532227 0.406567
vt 0.529735 0.408233
vt 0.961052 0.301275
vt 0.963991 0.301286
vt 0.966930 0.301318
vt 0.722977 0.177757
vt 0.724124 0.171990
vt 0.956778 0.870416
vt 0.959718 0.870558
vt 0.962657 0.870943
vt 0.534624 0.685583
vt 0.529735 0.682316
vt 0.380787 0.929734
vt 0.377847 0.929738
vt 0.374908 0.929750
vt 0.653781 0.108561
vt 0.659548 0.107414
vt 0.909747 0.870416
vt 0.903868 0.870557
vt 0.510372 0.380598
vt 0.508724 0.383065
vt 0.507059 0.385556
vt 0.909688 0.735925
vt 0.912386 0.764534
vt 0.909472 0.764546
vt 0.906790 0.736056
vt 0.906551 0.764578
vt 0.903914 0.736412
vt 0.813384 0.688585
vt 0.789086 0.712884
vt 0.785820 0.707995
vt 0.808495 0.685318
vt 0.126487 0.978362
vt 0.126575 0.949754
vt 0.129515 0.949742
vt 0.129427 0.978232
vt 0.132454 0.949710
vt 0.132368 0.977876
vt 0.510326 0.709881
vt 0.507059 0.704992
vt 0.312329 0.984655
vt 0.312329 0.956046
vt 0.315268 0.956034
vt 0.315268 0.984525
vt 0.318208 0.956002
vt 0.318208 0.984169
vt 0.813384 0.407968
vt 0.808495 0.411235
vt 0.079545 0.949754
vt 0.079456 0.978362
vt 0.073578 0.978232
vt 0.073666 0.949742
vt 0.478595 0.367435
vt 0.478016 0.370345
vt 0.477431 0.373284
vt 0.126606 0.916007
vt 0.129546 0.916007
vt 0.132485 0.916007
vt 0.478579 0.723031
vt 0.477431 0.717264
vt 0.079575 0.916007
vt 0.073696 0.916007
vt 0.444199 0.367435
vt 0.444778 0.370345
vt 0.445363 0.373284
vt 0.126575 0.882261
vt 0.129515 0.882272
vt 0.132454 0.882304
vt 0.444215 0.723031
vt 0.445363 0.717264
vt 0.427818 0.929733
vt 0.433697 0.929738
vt 0.653699 0.291336
vt 0.656609 0.290757
vt 0.659548 0.290173
vt 0.079545 0.882261
vt 0.073666 0.882272
vt 0.412422 0.380598
vt 0.414070 0.383064
vt 0.415735 0.385556
vt 0.126487 0.853652
vt 0.129427 0.853782
vt 0.132368 0.854138
vt 0.412468 0.709881
vt 0.415735 0.704992
vt 0.079456 0.853652
vt 0.073578 0.853782
vt 0.388100 0.404919
vt 0.390567 0.406567
vt 0.393059 0.408233
vt 0.960964 0.272666
vt 0.963904 0.272796
vt 0.966844 0.273152
vt 0.843718 0.984487
vt 0.843718 0.953467
vt 0.846658 0.953459
vt 0.846658 0.984346
vt 0.849597 0.953438
vt 0.849597 0.983960
vt 0.388170 0.685583
vt 0.393059 0.682316
vt 0.265298 0.859944
vt 0.262358 0.860074
vt 0.259419 0.860430
vt 0.789086 0.566429
vt 0.785820 0.571318
vt 0.796687 0.953467
vt 0.796687 0.984487
vt 0.790808 0.984346
vt 0.790808 0.953459
vt 0.374938 0.436697
vt 0.377847 0.437276
vt 0.380787 0.437860
vt 0.312329 0.922299
vt 0.315268 0.922299
vt 0.318208 0.922299
vt 0.826534 0.439716
vt 0.820768 0.440863
vt 0.775149 0.984487
vt 0.775149 0.958863
vt 0.781028 0.958847
vt 0.781028 0.984370
vt 0.813455 0.225163
vt 0.810989 0.226811
vt 0.808497 0.228476
vt 0.728117 0.958863
vt 0.728117 0.984487
vt 0.725178 0.984371
vt 0.725178 0.958847
vt 0.722238 0.984052
vt 0.722238 0.958804
vt 0.826536 0.108561
vt 0.820769 0.107414
vt 0.775149 0.926401
vt 0.781028 0.926397
vt 0.826618 0.256940
vt 0.823709 0.257519
vt 0.820769 0.258104
vt 0.728117 0.926401
vt 0.725178 0.926397
vt 0.722238 0.926385
vt 0.826536 0.074198
vt 0.820769 0.075345
vt 0.775149 0.892045
vt 0.781028 0.892053
vt 0.826618 0.291336
vt 0.823709 0.290757
vt 0.820769 0.290173
vt 0.728117 0.892045
vt 0.725178 0.892053
vt 0.722238 0.892074
vt 0.813386 0.042450
vt 0.808497 0.045717
vt 0.265298 0.956046
vt 0.262358 0.956034
vt 0.259419 0.956002
vt 0.826535 0.656838
vt 0.820768 0.655691
vt 0.775149 0.861025
vt 0.781028 0.861166
vt 0.813455 0.323114
vt 0.810989 0.321465
vt 0.808497 0.319800
vt 0.913333 0.798281
vt 0.910419 0.798281
vt 0.907497 0.798281
vt 0.757339 0.726034
vt 0.756192 0.720267
vt 0.728117 0.861025
vt 0.725178 0.861166
vt 0.722238 0.861552
vt 0.789088 0.018152
vt 0.785821 0.023041
vt 0.243641 0.984655
vt 0.243729 0.956046
vt 0.249608 0.956034
vt 0.249520 0.984525
vt 0.789134 0.347435
vt 0.787486 0.344968
vt 0.785821 0.342477
vt 0.196698 0.956046
vt 0.196610 0.984655
vt 0.193671 0.984525
vt 0.193758 0.956034
vt 0.190732 0.984169
vt 0.190819 0.956002
vt 0.757340 0.005002
vt 0.756193 0.010769
vt 0.243760 0.922299
vt 0.249638 0.922299
vt 0.757356 0.360598
vt 0.756778 0.357688
vt 0.756193 0.354749
vt 0.196729 0.922299
vt 0.193789 0.922300
vt 0.190849 0.922299
vt 0.722977 0.005002
vt 0.724124 0.010769
vt 0.243729 0.888553
vt 0.249608 0.888565
vt 0.722961 0.360598
vt 0.723540 0.357688
vt 0.724124 0.354749
vt 0.959894 0.798281
vt 0.962799 0.798281
vt 0.965698 0.798281
vt 0.722976 0.370519
vt 0.724123 0.376287
vt 0.196698 0.888553
vt 0.193758 0.888565
vt 0.190819 0.888597
vt 0.691230 0.018152
vt 0.694497 0.023041
vt 0.243641 0.859944
vt 0.249520 0.860074
vt 0.691183 0.347435
vt 0.692831 0.344968
vt 0.694497 0.342477
vt 0.196610 0.859944
vt 0.193671 0.860074
vt 0.190733 0.860430
vt 0.666931 0.042450
vt 0.671820 0.045717
vt 0.265298 0.984655
vt 0.262358 0.984525
vt 0.259419 0.984169
vt 0.427818 0.995110
vt 0.427818 0.964090
vt 0.433697 0.964082
vt 0.433697 0.994969
vt 0.666862 0.323114
vt 0.669328 0.321465
vt 0.671820 0.319800
vt 0.380787 0.964090
vt 0.380787 0.995110
vt 0.377847 0.994969
vt 0.377847 0.964082
vt 0.374908 0.994583
vt 0.374908 0.964061
vt 0.653781 0.074198
vt 0.659548 0.075345
vt 0.845893 0.272666
vt 0.843195 0.301275
vt 0.840289 0.301286
vt 0.842971 0.272796
vt 0.837390 0.301318
vt 0.840028 0.273152
vt 0.789086 0.530125
vt 0.785820 0.525236
vt 0.889756 0.301275
vt 0.892454 0.272666
vt 0.895352 0.272796
vt 0.892670 0.301286
vt 0.898228 0.273152
vt 0.895591 0.301318
vt 0.757339 0.553279
vt 0.756192 0.559046
vt 0.842248 0.335021
vt 0.839342 0.335021
vt 0.836444 0.335021
vt 0.757339 0.543275
vt 0.756192 0.537508
vt 0.888809 0.335021
vt 0.891723 0.335021
vt 0.894645 0.335021
vt 0.722976 0.553278
vt 0.724124 0.559046
vt 0.843195 0.368768
vt 0.840290 0.368756
vt 0.837390 0.368724
vt 0.722976 0.543275
vt 0.724124 0.537507
vt 0.889756 0.368768
vt 0.892670 0.368756
vt 0.895591 0.368724
vt 0.691229 0.566428
vt 0.694496 0.571318
vt 0.845894 0.397376
vt 0.842971 0.397246
vt 0.840028 0.396890
vt 0.691229 0.530124
vt 0.694496 0.525235
vt 0.892454 0.397376
vt 0.895352 0.397246
vt 0.898228 0.396890
vt 0.666931 0.590727
vt 0.671820 0.593994
vt 0.659548 0.861025
vt 0.659548 0.889634
vt 0.656609 0.889645
vt 0.656609 0.861155
vt 0.653669 0.889677
vt 0.653669 0.861511
vt 0.666931 0.505826
vt 0.671820 0.502559
vt 0.706580 0.889634
vt 0.706580 0.861025
vt 0.709519 0.861155
vt 0.709519 0.889645
vt 0.712458 0.861511
vt 0.712458 0.889677
vt 0.653781 0.622474
vt 0.659548 0.623621
vt 0.659548 0.923380
vt 0.656609 0.923380
vt 0.653669 0.923380
vt 0.653781 0.474078
vt 0.659548 0.472931
vt 0.706580 0.923380
vt 0.709519 0.923380
vt 0.712458 0.923380
vt 0.653781 0.656837
vt 0.659548 0.655690
vt 0.659548 0.957127
vt 0.656609 0.957115
vt 0.653669 0.957083
vt 0.653781 0.439715
vt 0.659548 0.440862
vt 0.706580 0.957127
vt 0.709519 0.957115
vt 0.712458 0.957083
vt 0.666931 0.688585
vt 0.671820 0.685318
vt 0.659548 0.985735
vt 0.656609 0.985605
vt 0.653669 0.985249
vt 0.666931 0.407968
vt 0.671820 0.411235
vt 0.706580 0.985735
vt 0.709519 0.985605
vt 0.712458 0.985249
vt 0.691229 0.712883
vt 0.694496 0.707994
vt 0.956248 0.860636
vt 0.958946 0.832027
vt 0.961852 0.832016
vt 0.959171 0.860506
vt 0.964751 0.831984
vt 0.962114 0.860150
vt 0.691229 0.383670
vt 0.694496 0.388559
vt 0.912386 0.832027
vt 0.909688 0.860636
vt 0.906790 0.860506
vt 0.909472 0.832016
vt 0.903914 0.860150
vt 0.906551 0.831984
vt 0.722976 0.726033
vt 0.724124 0.720266
s 1
usemtl BB_RustedSteel
f 11/1/11 25/2/25 20/3/20
f 2/4/2 18/5/18 17/6/17
f 16/7/16 20/8/20 12/9/12
f 40/10/40 2/11/2 38/12/38
f 3/13/3 38/14/38 14/15/14
f 3/13/3 14/15/14 23/16/23
f 16/7/16 33/17/33 20/8/20
f 36/18/36 34/19/34 6/20/6
f 4/21/4 30/22/30 22/23/22
f 4/21/4 22/23/22 39/24/39
f 33/25/33 11/1/11 20/3/20
f 36/26/36 40/10/40 34/27/34
f 5/28/5 26/29/26 41/30/41
f 5/28/5 41/30/41 35/31/35
f 42/32/42 38/14/38 3/13/3
f 24/33/24 31/34/31 16/7/16
f 6/35/6 13/36/13 37/37/37
f 6/20/6 37/38/37 21/39/21
f 24/33/24 16/7/16 12/9/12
f 2/4/2 36/18/36 18/5/18
f 42/40/42 40/10/40 38/12/38
f 1/41/1 28/42/28 34/27/34
f 10/43/10 27/44/27 19/45/19
f 1/41/1 32/46/32 28/42/28
f 9/47/9 29/48/29 15/49/15
f 1/41/1 42/40/42 32/46/32
f 8/50/8 31/34/31 24/33/24
f 2/4/2 40/51/40 36/18/36
f 1/41/1 40/10/40 42/40/42
f 40/10/40 1/41/1 34/27/34
f 7/52/7 33/17/33 16/7/16
f 31/53/31 7/54/7 16/55/16
f 32/56/32 30/22/30 4/21/4
f 32/46/32 42/40/42 30/57/30
f 42/32/42 3/13/3 30/58/30
f 15/59/15 24/33/24 12/9/12
f 15/59/15 29/60/29 24/33/24
f 29/48/29 8/61/8 24/62/24
f 28/63/28 26/29/26 5/28/5
f 28/42/28 32/46/32 26/64/26
f 32/56/32 4/21/4 26/65/26
f 19/66/19 15/59/15 12/9/12
f 19/66/19 27/67/27 15/59/15
f 27/67/27 9/68/9 15/59/15
f 34/27/34 13/69/13 6/70/6
f 34/27/34 28/42/28 13/69/13
f 28/63/28 5/28/5 13/36/13
f 18/5/18 21/39/21 11/1/11
f 18/5/18 36/18/36 21/39/21
f 36/18/36 6/20/6 21/39/21
f 21/39/21 25/2/25 11/1/11
f 21/39/21 37/38/37 25/2/25
f 37/37/37 10/43/10 25/71/25
f 37/37/37 35/31/35 10/43/10
f 37/37/37 13/36/13 35/31/35
f 13/36/13 5/28/5 35/31/35
f 35/31/35 27/44/27 10/43/10
f 35/31/35 41/30/41 27/44/27
f 41/30/41 9/72/9 27/44/27
f 41/73/41 39/24/39 9/47/9
f 41/73/41 26/65/26 39/24/39
f 26/65/26 4/21/4 39/24/39
f 39/24/39 29/48/29 9/47/9
f 39/24/39 22/23/22 29/48/29
f 22/23/22 8/61/8 29/48/29
f 22/23/22 23/74/23 8/61/8
f 22/23/22 30/22/30 23/74/23
f 30/58/30 3/13/3 23/16/23
f 23/16/23 31/53/31 8/75/8
f 23/16/23 14/15/14 31/53/31
f 14/15/14 7/54/7 31/53/31
f 14/15/14 17/76/17 7/54/7
f 14/15/14 38/14/38 17/76/17
f 38/14/38 2/77/2 17/76/17
f 17/76/17 33/78/33 7/54/7
f 17/6/17 18/5/18 33/25/33
f 18/5/18 11/1/11 33/25/33
f 20/8/20 19/66/19 12/9/12
f 20/8/20 25/79/25 19/66/19
f 25/79/25 10/80/10 19/66/19
f 224/81/224 216/82/216 218/83/218 226/84/226
f 226/85/226 218/86/218 217/87/217 225/88/225
f 225/88/225 217/87/217 215/89/215 223/90/223
f 44/91/44 52/92/52 54/93/54 46/94/46
f 46/94/46 54/93/54 53/95/53 45/96/45
f 45/97/45 53/98/53 51/99/51 43/100/43
f 188/101/188 195/102/195 197/103/197 190/104/190
f 190/105/190 197/106/197 198/107/198 189/108/189
f 189/108/189 198/107/198 196/109/196 187/110/187
f 56/111/56 48/112/48 50/113/50 58/114/58
f 58/114/58 50/113/50 49/115/49 57/116/57
f 57/117/57 49/118/49 47/119/47 55/120/55
f 212/121/212 220/122/220 222/123/222 214/124/214
f 214/125/214 222/126/222 221/127/221 213/128/213
f 213/128/213 221/127/221 219/129/219 211/130/211
f 52/92/52 60/131/60 62/132/62 54/93/54
f 54/93/54 62/132/62 61/133/61 53/95/53
f 53/98/53 61/134/61 59/135/59 51/99/51
f 64/136/64 56/111/56 58/114/58 66/137/66
f 66/137/66 58/114/58 57/116/57 65/138/65
f 65/139/65 57/117/57 55/120/55 63/140/63
f 60/141/60 68/142/68 70/143/70 62/144/62
f 62/144/62 70/143/70 69/145/69 61/146/61
f 61/134/61 69/147/69 67/148/67 59/135/59
f 72/149/72 64/150/64 66/151/66 74/152/74
f 74/152/74 66/151/66 65/153/65 73/154/73
f 73/155/73 65/139/65 63/140/63 71/156/71
f 68/142/68 76/157/76 78/158/78 70/143/70
f 70/143/70 78/158/78 77/159/77 69/145/69
f 69/147/69 77/160/77 75/161/75 67/148/67
f 192/162/192 184/163/184 186/164/186 194/165/194
f 194/165/194 186/164/186 185/166/185 193/167/193
f 193/168/193 185/169/185 183/170/183 191/171/191
f 80/172/80 72/149/72 74/152/74 82/173/82
f 82/173/82 74/152/74 73/154/73 81/174/81
f 81/175/81 73/155/73 71/156/71 79/176/79
f 216/82/216 208/177/208 210/178/210 218/83/218
f 218/86/218 210/179/210 209/180/209 217/87/217
f 217/87/217 209/180/209 207/181/207 215/89/215
f 76/157/76 84/182/84 86/183/86 78/158/78
f 78/158/78 86/183/86 85/184/85 77/159/77
f 77/160/77 85/185/85 83/186/83 75/161/75
f 88/187/88 80/172/80 82/173/82 90/188/90
f 90/188/90 82/173/82 81/174/81 89/189/89
f 89/190/89 81/175/81 79/176/79 87/191/87
f 84/182/84 92/192/92 94/193/94 86/183/86
f 86/183/86 94/193/94 93/194/93 85/184/85
f 85/185/85 93/195/93 91/196/91 83/186/83
f 180/197/180 188/198/188 190/199/190 182/200/182
f 182/200/182 190/199/190 189/201/189 181/202/181
f 181/203/181 189/108/189 187/110/187 179/204/179
f 96/205/96 88/187/88 90/188/90 98/206/98
f 98/206/98 90/188/90 89/189/89 97/207/97
f 97/208/97 89/190/89 87/191/87 95/209/95
f 204/210/204 212/121/212 214/124/214 206/211/206
f 206/212/206 214/125/214 213/128/213 205/213/205
f 205/213/205 213/128/213 211/130/211 203/214/203
f 92/215/92 100/216/100 102/217/102 94/218/94
f 94/218/94 102/217/102 101/219/101 93/220/93
f 93/195/93 101/221/101 99/222/99 91/196/91
f 104/223/104 96/224/96 98/225/98 106/226/106
f 106/226/106 98/225/98 97/227/97 105/228/105
f 105/229/105 97/208/97 95/209/95 103/230/103
f 100/216/100 108/231/108 110/232/110 102/217/102
f 102/217/102 110/232/110 109/233/109 101/219/101
f 101/221/101 109/234/109 107/235/107 99/222/99
f 112/236/112 104/223/104 106/226/106 114/237/114
f 114/237/114 106/226/106 105/228/105 113/238/113
f 113/239/113 105/229/105 103/230/103 111/240/111
f 108/231/108 116/241/116 118/242/118 110/232/110
f 110/232/110 118/242/118 117/243/117 109/233/109
f 109/234/109 117/244/117 115/245/115 107/235/107
f 120/246/120 112/236/112 114/237/114 122/247/122
f 122/247/122 114/237/114 113/238/113 121/248/121
f 121/249/121 113/239/113 111/240/111 119/250/119
f 208/177/208 200/251/200 202/252/202 210/178/210
f 210/179/210 202/253/202 201/254/201 209/180/209
f 209/180/209 201/254/201 199/255/199 207/181/207
f 116/241/116 124/256/124 126/257/126 118/242/118
f 118/242/118 126/257/126 125/258/125 117/243/117
f 117/244/117 125/259/125 123/260/123 115/245/115
f 184/163/184 176/261/176 178/262/178 186/164/186
f 186/164/186 178/262/178 177/263/177 185/166/185
f 185/169/185 177/264/177 175/265/175 183/170/183
f 128/266/128 120/246/120 122/247/122 130/267/130
f 130/267/130 122/247/122 121/248/121 129/268/129
f 129/269/129 121/249/121 119/250/119 127/270/127
f 124/271/124 132/272/132 134/273/134 126/274/126
f 126/274/126 134/273/134 133/275/133 125/276/125
f 125/259/125 133/277/133 131/278/131 123/260/123
f 136/279/136 128/280/128 130/281/130 138/282/138
f 138/282/138 130/281/130 129/283/129 137/284/137
f 137/285/137 129/269/129 127/270/127 135/286/135
f 195/102/195 204/210/204 206/211/206 197/103/197
f 197/106/197 206/212/206 205/213/205 198/107/198
f 198/107/198 205/213/205 203/214/203 196/109/196
f 132/272/132 140/287/140 142/288/142 134/273/134
f 134/273/134 142/288/142 141/289/141 133/275/133
f 133/277/133 141/290/141 139/291/139 131/278/131
f 144/292/144 136/279/136 138/282/138 146/293/146
f 146/293/146 138/282/138 137/284/137 145/294/145
f 145/295/145 137/285/137 135/286/135 143/296/143
f 140/287/140 148/297/148 150/298/150 142/288/142
f 142/288/142 150/298/150 149/299/149 141/289/141
f 141/290/141 149/300/149 147/301/147 139/291/139
f 172/302/172 180/197/180 182/200/182 174/303/174
f 174/303/174 182/200/182 181/202/181 173/304/173
f 173/305/173 181/203/181 179/204/179 171/306/171
f 152/307/152 144/292/144 146/293/146 154/308/154
f 154/308/154 146/293/146 145/294/145 153/309/153
f 153/310/153 145/295/145 143/296/143 151/311/151
f 148/297/148 156/312/156 158/313/158 150/298/150
f 150/298/150 158/313/158 157/314/157 149/299/149
f 149/300/149 157/315/157 155/316/155 147/301/147
f 160/317/160 152/307/152 154/308/154 162/318/162
f 162/318/162 154/308/154 153/309/153 161/319/161
f 161/320/161 153/310/153 151/311/151 159/321/159
f 200/251/200 192/322/192 194/323/194 202/252/202
f 202/253/202 194/324/194 193/168/193 201/254/201
f 201/254/201 193/168/193 191/171/191 199/255/199
f 156/325/156 164/326/164 166/327/166 158/328/158
f 158/328/158 166/327/166 165/329/165 157/330/157
f 157/315/157 165/331/165 163/332/163 155/316/155
f 168/333/168 160/334/160 162/335/162 170/336/170
f 170/336/170 162/335/162 161/337/161 169/338/169
f 169/339/169 161/320/161 159/321/159 167/340/167
f 164/326/164 44/91/44 46/94/46 166/327/166
f 166/327/166 46/94/46 45/96/45 165/329/165
f 165/331/165 45/97/45 43/100/43 163/332/163
f 48/112/48 168/333/168 170/336/170 50/113/50
f 50/113/50 170/336/170 169/338/169 49/115/49
f 49/118/49 169/339/169 167/340/167 47/119/47
f 220/341/220 228/342/228 230/343/230 222/344/222
f 222/126/222 230/345/230 229/346/229 221/127/221
f 221/127/221 229/346/229 227/347/227 219/129/219
f 232/348/232 224/349/224 226/350/226 234/351/234
f 234/352/234 226/85/226 225/88/225 233/353/233
f 233/353/233 225/88/225 223/90/223 231/354/231
f 228/342/228 236/355/236 238/356/238 230/343/230
f 230/345/230 238/357/238 237/358/237 229/346/229
f 229/346/229 237/358/237 235/359/235 227/347/227
f 240/360/240 232/348/232 234/351/234 242/361/242
f 242/362/242 234/352/234 233/353/233 241/363/241
f 241/363/241 233/353/233 231/354/231 239/364/239
f 236/355/236 244/365/244 246/366/246 238/356/238
f 238/357/238 246/367/246 245/368/245 237/358/237
f 237/358/237 245/368/245 243/369/243 235/359/235
f 248/370/248 240/360/240 242/361/242 250/371/250
f 250/372/250 242/362/242 241/363/241 249/373/249
f 249/373/249 241/363/241 239/364/239 247/374/247
f 244/365/244 252/375/252 254/376/254 246/366/246
f 246/367/246 254/377/254 253/378/253 245/368/245
f 245/368/245 253/378/253 251/379/251 243/369/243
f 256/380/256 248/370/248 250/371/250 258/381/258
f 258/382/258 250/372/250 249/373/249 257/383/257
f 257/383/257 249/373/249 247/374/247 255/384/255
f 252/385/252 260/386/260 262/387/262 254/388/254
f 254/388/254 262/387/262 261/389/261 253/390/253
f 253/378/253 261/391/261 259/392/259 251/379/251
f 264/393/264 256/394/256 258/395/258 266/396/266
f 266/396/266 258/395/258 257/397/257 265/398/265
f 265/399/265 257/383/257 255/384/255 263/400/263
f 260/386/260 268/401/268 270/402/270 262/387/262
f 262/387/262 270/402/270 269/403/269 261/389/261
f 261/391/261 269/404/269 267/405/267 259/392/259
f 272/406/272 264/393/264 266/396/266 274/407/274
f 274/407/274 266/396/266 265/398/265 273/408/273
f 273/409/273 265/399/265 263/400/263 271/410/271
f 268/401/268 276/411/276 278/412/278 270/402/270
f 270/402/270 278/412/278 277/413/277 269/403/269
f 269/404/269 277/414/277 275/415/275 267/405/267
f 280/416/280 272/406/272 274/407/274 282/417/282
f 282/417/282 274/407/274 273/408/273 281/418/281
f 281/419/281 273/409/273 271/410/271 279/420/279
f 276/411/276 284/421/284 286/422/286 278/412/278
f 278/412/278 286/422/286 285/423/285 277/413/277
f 277/414/277 285/424/285 283/425/283 275/415/275
f 288/426/288 280/416/280 282/417/282 290/427/290
f 290/427/290 282/417/282 281/418/281 289/428/289
f 289/429/289 281/419/281 279/420/279 287/430/287
f 284/431/284 292/432/292 294/433/294 286/434/286
f 286/434/286 294/433/294 293/435/293 285/436/285
f 285/424/285 293/437/293 291/438/291 283/425/283
f 296/439/296 288/440/288 290/441/290 298/442/298
f 298/442/298 290/441/290 289/443/289 297/444/297
f 297/445/297 289/429/289 287/430/287 295/446/295
f 292/432/292 172/302/172 174/303/174 294/433/294
f 294/433/294 174/303/174 173/304/173 293/435/293
f 293/437/293 173/305/173 171/306/171 291/438/291
f 176/261/176 296/439/296 298/442/298 178/262/178
f 178/262/178 298/442/298 297/444/297 177/263/177
f 177/264/177 297/445/297 295/446/295 175/265/175
f 480/447/96 472/448/88 474/449/90 482/450/98
f 482/450/98 474/449/90 473/451/89 481/452/97
f 481/453/97 473/454/89 471/455/87 479/456/95
f 564/457/180 572/458/188 574/459/190 566/460/182
f 566/460/182 574/459/190 573/461/189 565/462/181
f 565/463/181 573/464/189 571/465/187 563/466/179
f 300/467/44 308/468/52 310/469/54 302/470/46
f 302/470/46 310/469/54 309/471/53 301/472/45
f 301/473/45 309/474/53 307/475/51 299/476/43
f 444/477/60 451/478/68 453/479/70 446/480/62
f 446/481/62 453/482/70 454/483/69 445/484/61
f 445/484/61 454/483/69 452/485/67 443/486/59
f 312/487/56 304/488/48 306/489/50 314/490/58
f 314/491/58 306/492/50 305/493/49 313/494/57
f 313/494/57 305/493/49 303/495/47 311/496/55
f 468/497/84 476/498/92 478/499/94 470/500/86
f 470/501/86 478/502/94 477/503/93 469/504/85
f 469/504/85 477/503/93 475/505/91 467/506/83
f 308/468/52 316/507/60 318/508/62 310/469/54
f 310/469/54 318/508/62 317/509/61 309/471/53
f 309/474/53 317/510/61 315/511/59 307/475/51
f 320/512/64 312/487/56 314/490/58 322/513/66
f 322/514/66 314/491/58 313/494/57 321/515/65
f 321/515/65 313/494/57 311/496/55 319/516/63
f 316/517/60 324/518/68 326/519/70 318/520/62
f 318/520/62 326/519/70 325/521/69 317/522/61
f 317/510/61 325/523/69 323/524/67 315/511/59
f 328/525/72 320/526/64 322/527/66 330/528/74
f 330/529/74 322/514/66 321/515/65 329/530/73
f 329/530/73 321/515/65 319/516/63 327/531/71
f 324/518/68 332/532/76 334/533/78 326/519/70
f 326/519/70 334/533/78 333/534/77 325/521/69
f 325/523/69 333/535/77 331/536/75 323/524/67
f 448/537/64 440/538/56 442/539/58 450/540/66
f 450/540/66 442/539/58 441/541/57 449/542/65
f 449/543/65 441/544/57 439/545/55 447/546/63
f 336/547/80 328/525/72 330/528/74 338/548/82
f 338/549/82 330/529/74 329/530/73 337/550/81
f 337/550/81 329/530/73 327/531/71 335/551/79
f 472/448/88 464/552/80 466/553/82 474/449/90
f 474/449/90 466/553/82 465/554/81 473/451/89
f 473/454/89 465/555/81 463/556/79 471/455/87
f 332/532/76 340/557/84 342/558/86 334/533/78
f 334/533/78 342/558/86 341/559/85 333/534/77
f 333/535/77 341/560/85 339/561/83 331/536/75
f 344/562/88 336/547/80 338/548/82 346/563/90
f 346/564/90 338/549/82 337/550/81 345/565/89
f 345/565/89 337/550/81 335/551/79 343/566/87
f 340/557/84 348/567/92 350/568/94 342/558/86
f 342/558/86 350/568/94 349/569/93 341/559/85
f 341/560/85 349/570/93 347/571/91 339/561/83
f 436/572/52 444/573/60 446/574/62 438/575/54
f 438/576/54 446/481/62 445/484/61 437/577/53
f 437/577/53 445/484/61 443/486/59 435/578/51
f 352/579/96 344/562/88 346/563/90 354/580/98
f 354/581/98 346/564/90 345/565/89 353/582/97
f 353/582/97 345/565/89 343/566/87 351/583/95
f 460/584/76 468/497/84 470/500/86 462/585/78
f 462/586/78 470/501/86 469/504/85 461/587/77
f 461/587/77 469/504/85 467/506/83 459/588/75
f 348/589/92 356/590/100 358/591/102 350/592/94
f 350/592/94 358/591/102 357/593/101 349/594/93
f 349/570/93 357/595/101 355/596/99 347/571/91
f 596/597/212 604/598/220 606/599/222 598/600/214
f 598/600/214 606/599/222 605/601/221 597/602/213
f 597/603/213 605/604/221 603/605/219 595/606/211
f 360/607/104 352/608/96 354/609/98 362/610/106
f 362/611/106 354/581/98 353/582/97 361/612/105
f 361/612/105 353/582/97 351/583/95 359/613/103
f 600/614/216 592/615/208 594/616/210 602/617/218
f 602/617/218 594/616/210 593/618/209 601/619/217
f 601/620/217 593/621/209 591/622/207 599/623/215
f 356/590/100 364/624/108 366/625/110 358/591/102
f 358/591/102 366/625/110 365/626/109 357/593/101
f 357/595/101 365/627/109 363/628/107 355/596/99
f 368/629/112 360/607/104 362/610/106 370/630/114
f 370/631/114 362/611/106 361/612/105 369/632/113
f 369/632/113 361/612/105 359/613/103 367/633/111
f 364/624/108 372/634/116 374/635/118 366/625/110
f 366/625/110 374/635/118 373/636/117 365/626/109
f 365/627/109 373/637/117 371/638/115 363/628/107
f 376/639/120 368/629/112 370/630/114 378/640/122
f 378/641/122 370/631/114 369/632/113 377/642/121
f 377/642/121 369/632/113 367/633/111 375/643/119
f 464/552/80 456/644/72 458/645/74 466/553/82
f 466/553/82 458/645/74 457/646/73 465/554/81
f 465/555/81 457/647/73 455/648/71 463/556/79
f 372/634/116 380/649/124 382/650/126 374/635/118
f 374/635/118 382/650/126 381/651/125 373/636/117
f 373/637/117 381/652/125 379/653/123 371/638/115
f 440/538/56 432/654/48 434/655/50 442/539/58
f 442/539/58 434/655/50 433/656/49 441/541/57
f 441/544/57 433/657/49 431/658/47 439/545/55
f 384/659/128 376/639/120 378/640/122 386/660/130
f 386/661/130 378/641/122 377/642/121 385/662/129
f 385/662/129 377/642/121 375/643/119 383/663/127
f 576/664/192 568/665/184 570/666/186 578/667/194
f 578/667/194 570/666/186 569/668/185 577/669/193
f 577/670/193 569/671/185 567/672/183 575/673/191
f 380/674/124 388/675/132 390/676/134 382/677/126
f 382/677/126 390/676/134 389/678/133 381/679/125
f 381/652/125 389/680/133 387/681/131 379/653/123
f 572/682/188 579/683/195 581/684/197 574/685/190
f 574/685/190 581/684/197 582/686/198 573/687/189
f 573/464/189 582/688/198 580/689/196 571/465/187
f 392/690/136 384/691/128 386/692/130 394/693/138
f 394/694/138 386/661/130 385/662/129 393/695/137
f 393/695/137 385/662/129 383/663/127 391/696/135
f 451/478/68 460/584/76 462/585/78 453/479/70
f 453/482/70 462/586/78 461/587/77 454/483/69
f 454/483/69 461/587/77 459/588/75 452/485/67
f 388/675/132 396/697/140 398/698/142 390/676/134
f 390/676/134 398/698/142 397/699/141 389/678/133
f 389/680/133 397/700/141 395/701/139 387/681/131
f 400/702/144 392/690/136 394/693/138 402/703/146
f 402/704/146 394/694/138 393/695/137 401/705/145
f 401/705/145 393/695/137 391/696/135 399/706/143
f 396/697/140 404/707/148 406/708/150 398/698/142
f 398/698/142 406/708/150 405/709/149 397/699/141
f 397/700/141 405/710/149 403/711/147 395/701/139
f 428/712/44 436/572/52 438/575/54 430/713/46
f 430/714/46 438/576/54 437/577/53 429/715/45
f 429/715/45 437/577/53 435/578/51 427/716/43
f 408/717/152 400/702/144 402/703/146 410/718/154
f 410/719/154 402/704/146 401/705/145 409/720/153
f 409/720/153 401/705/145 399/706/143 407/721/151
f 404/707/148 412/722/156 414/723/158 406/708/150
f 406/708/150 414/723/158 413/724/157 405/709/149
f 405/710/149 413/725/157 411/726/155 403/711/147
f 416/727/160 408/717/152 410/718/154 418/728/162
f 418/729/162 410/719/154 409/720/153 417/730/161
f 417/730/161 409/720/153 407/721/151 415/731/159
f 456/644/72 448/732/64 450/733/66 458/645/74
f 458/645/74 450/733/66 449/734/65 457/646/73
f 457/647/73 449/543/65 447/546/63 455/648/71
f 412/735/156 420/736/164 422/737/166 414/738/158
f 414/738/158 422/737/166 421/739/165 413/740/157
f 413/725/157 421/741/165 419/742/163 411/726/155
f 608/743/224 600/614/216 602/617/218 610/744/226
f 610/744/226 602/617/218 601/619/217 609/745/225
f 609/746/225 601/620/217 599/623/215 607/747/223
f 424/748/168 416/749/160 418/750/162 426/751/170
f 426/752/170 418/729/162 417/730/161 425/753/169
f 425/753/169 417/730/161 415/731/159 423/754/167
f 420/736/164 300/467/44 302/470/46 422/737/166
f 422/737/166 302/470/46 301/472/45 421/739/165
f 421/741/165 301/473/45 299/476/43 419/742/163
f 304/488/48 424/748/168 426/751/170 306/489/50
f 306/492/50 426/752/170 425/753/169 305/493/49
f 305/493/49 425/753/169 423/754/167 303/495/47
f 588/755/204 596/597/212 598/600/214 590/756/206
f 590/756/206 598/600/214 597/602/213 589/757/205
f 589/758/205 597/603/213 595/606/211 587/759/203
f 476/760/92 484/761/100 486/762/102 478/763/94
f 478/502/94 486/764/102 485/765/101 477/503/93
f 477/503/93 485/765/101 483/766/99 475/505/91
f 488/767/104 480/768/96 482/769/98 490/770/106
f 490/770/106 482/769/98 481/771/97 489/772/105
f 489/773/105 481/453/97 479/456/95 487/774/103
f 484/761/100 492/775/108 494/776/110 486/762/102
f 486/764/102 494/777/110 493/778/109 485/765/101
f 485/765/101 493/778/109 491/779/107 483/766/99
f 496/780/112 488/767/104 490/770/106 498/781/114
f 498/781/114 490/770/106 489/772/105 497/782/113
f 497/783/113 489/773/105 487/774/103 495/784/111
f 492/775/108 500/785/116 502/786/118 494/776/110
f 494/777/110 502/787/118 501/788/117 493/778/109
f 493/778/109 501/788/117 499/789/115 491/779/107
f 504/790/120 496/780/112 498/781/114 506/791/122
f 506/791/122 498/781/114 497/782/113 505/792/121
f 505/793/121 497/783/113 495/784/111 503/794/119
f 592/615/208 584/795/200 586/796/202 594/616/210
f 594/616/210 586/796/202 585/797/201 593/618/209
f 593/621/209 585/798/201 583/799/199 591/622/207
f 500/785/116 508/800/124 510/801/126 502/786/118
f 502/787/118 510/802/126 509/803/125 501/788/117
f 501/788/117 509/803/125 507/804/123 499/789/115
f 568/665/184 560/805/176 562/806/178 570/666/186
f 570/666/186 562/806/178 561/807/177 569/668/185
f 569/671/185 561/808/177 559/809/175 567/672/183
f 512/810/128 504/790/120 506/791/122 514/811/130
f 514/811/130 506/791/122 505/792/121 513/812/129
f 513/813/129 505/793/121 503/794/119 511/814/127
f 508/815/124 516/816/132 518/817/134 510/818/126
f 510/802/126 518/819/134 517/820/133 509/803/125
f 509/803/125 517/820/133 515/821/131 507/804/123
f 520/822/136 512/823/128 514/824/130 522/825/138
f 522/825/138 514/824/130 513/826/129 521/827/137
f 521/828/137 513/813/129 511/814/127 519/829/135
f 579/683/195 588/755/204 590/756/206 581/684/197
f 581/684/197 590/756/206 589/757/205 582/686/198
f 582/688/198 589/758/205 587/759/203 580/689/196
f 516/816/132 524/830/140 526/831/142 518/817/134
f 518/819/134 526/832/142 525/833/141 517/820/133
f 517/820/133 525/833/141 523/834/139 515/821/131
f 528/835/144 520/822/136 522/825/138 530/836/146
f 530/836/146 522/825/138 521/827/137 529/837/145
f 529/838/145 521/828/137 519/829/135 527/839/143
f 524/830/140 532/840/148 534/841/150 526/831/142
f 526/832/142 534/842/150 533/843/149 525/833/141
f 525/833/141 533/843/149 531/844/147 523/834/139
f 556/845/172 564/457/180 566/460/182 558/846/174
f 558/846/174 566/460/182 565/462/181 557/847/173
f 557/848/173 565/463/181 563/466/179 555/849/171
f 536/850/152 528/835/144 530/836/146 538/851/154
f 538/851/154 530/836/146 529/837/145 537/852/153
f 537/853/153 529/838/145 527/839/143 535/854/151
f 532/840/148 540/855/156 542/856/158 534/841/150
f 534/842/150 542/857/158 541/858/157 533/843/149
f 533/843/149 541/858/157 539/859/155 531/844/147
f 544/860/160 536/850/152 538/851/154 546/861/162
f 546/861/162 538/851/154 537/852/153 545/862/161
f 545/863/161 537/853/153 535/854/151 543/864/159
f 584/795/200 576/865/192 578/866/194 586/796/202
f 586/796/202 578/866/194 577/867/193 585/797/201
f 585/798/201 577/670/193 575/673/191 583/799/199
f 540/868/156 548/869/164 550/870/166 542/871/158
f 542/857/158 550/872/166 549/873/165 541/858/157
f 541/858/157 549/873/165 547/874/163 539/859/155
f 552/875/168 544/876/160 546/877/162 554/878/170
f 554/878/170 546/877/162 545/879/161 553/880/169
f 553/881/169 545/863/161 543/864/159 551/882/167
f 548/869/164 428/712/44 430/713/46 550/870/166
f 550/872/166 430/714/46 429/715/45 549/873/165
f 549/873/165 429/715/45 427/716/43 547/874/163
f 432/654/48 552/875/168 554/878/170 434/655/50
f 434/655/50 554/878/170 553/880/169 433/656/49
f 433/657/49 553/881/169 551/882/167 431/658/47
f 604/883/220 612/884/228 614/885/230 606/886/222
f 606/886/222 614/885/230 613/887/229 605/888/221
f 605/604/221 613/889/229 611/890/227 603/605/219
f 616/891/232 608/892/224 610/893/226 618/894/234
f 618/894/234 610/893/226 609/895/225 617/896/233
f 617/897/233 609/746/225 607/747/223 615/898/231
f 612/884/228 620/899/236 622/900/238 614/885/230
f 614/885/230 622/900/238 621/901/237 613/887/229
f 613/889/229 621/902/237 619/903/235 611/890/227
f 624/904/240 616/891/232 618/894/234 626/905/242
f 626/905/242 618/894/234 617/896/233 625/906/241
f 625/907/241 617/897/233 615/898/231 623/908/239
f 620/899/236 628/909/244 630/910/246 622/900/238
f 622/900/238 630/910/246 629/911/245 621/901/237
f 621/902/237 629/912/245 627/913/243 619/903/235
f 632/914/248 624/904/240 626/905/242 634/915/250
f 634/915/250 626/905/242 625/906/241 633/916/249
f 633/917/249 625/907/241 623/908/239 631/918/247
f 628/909/244 636/919/252 638/920/254 630/910/246
f 630/910/246 638/920/254 637/921/253 629/911/245
f 629/912/245 637/922/253 635/923/251 627/913/243
f 640/924/256 632/914/248 634/915/250 642/925/258
f 642/925/258 634/915/250 633/916/249 641/926/257
f 641/927/257 633/917/249 631/918/247 639/928/255
f 636/929/252 644/930/260 646/931/262 638/932/254
f 638/932/254 646/931/262 645/933/261 637/934/253
f 637/922/253 645/935/261 643/936/259 635/923/251
f 648/937/264 640/938/256 642/939/258 650/940/266
f 650/940/266 642/939/258 641/941/257 649/942/265
f 649/943/265 641/927/257 639/928/255 647/944/263
f 644/930/260 652/945/268 654/946/270 646/931/262
f 646/931/262 654/946/270 653/947/269 645/933/261
f 645/935/261 653/948/269 651/949/267 643/936/259
f 656/950/272 648/937/264 650/940/266 658/951/274
f 658/951/274 650/940/266 649/942/265 657/952/273
f 657/953/273 649/943/265 647/944/263 655/954/271
f 652/945/268 660/955/276 662/956/278 654/946/270
f 654/946/270 662/956/278 661/957/277 653/947/269
f 653/948/269 661/958/277 659/959/275 651/949/267
f 664/960/280 656/950/272 658/951/274 666/961/282
f 666/961/282 658/951/274 657/952/273 665/962/281
f 665/963/281 657/953/273 655/954/271 663/964/279
f 660/955/276 668/965/284 670/966/286 662/956/278
f 662/956/278 670/966/286 669/967/285 661/957/277
f 661/958/277 669/968/285 667/969/283 659/959/275
f 672/970/288 664/960/280 666/961/282 674/971/290
f 674/971/290 666/961/282 665/962/281 673/972/289
f 673/973/289 665/963/281 663/964/279 671/974/287
f 668/975/284 676/976/292 678/977/294 670/978/286
f 670/978/286 678/977/294 677/979/293 669/980/285
f 669/968/285 677/981/293 675/982/291 667/969/283
f 680/983/296 672/984/288 674/985/290 682/986/298
f 682/986/298 674/985/290 673/987/289 681/988/297
f 681/989/297 673/973/289 671/974/287 679/990/295
f 676/976/292 556/845/172 558/846/174 678/977/294
f 678/977/294 558/846/174 557/847/173 677/979/293
f 677/981/293 557/848/173 555/849/171 675/982/291
f 560/805/176 680/983/296 682/986/298 562/806/178
f 562/806/178 682/986/298 681/988/297 561/807/177
f 561/808/177 681/989/297 679/990/295 559/809/175
f 43/100/43 51/99/51 59/135/59 67/148/67 75/161/75 83/186/83 91/196/91 99/222/99 107/235/107 115/245/115 123/260/123 131/278/131 139/291/139 147/301/147 155/316/155 163/332/163
f 44/91/44 48/112/48 56/111/56 52/92/52
f 164/326/164 168/333/168 48/112/48 44/91/44
f 55/120/55 47/119/47 167/340/167 159/321/159 151/311/151 143/296/143 135/286/135 127/270/127 119/250/119 111/240/111 103/230/103 95/209/95 87/191/87 79/176/79 71/156/71 63/140/63
f 52/92/52 56/111/56 64/136/64 60/131/60
f 60/141/60 64/150/64 72/149/72 68/142/68
f 68/142/68 72/149/72 80/172/80 76/157/76
f 76/157/76 80/172/80 88/187/88 84/182/84
f 84/182/84 88/187/88 96/205/96 92/192/92
f 92/215/92 96/224/96 104/223/104 100/216/100
f 100/216/100 104/223/104 112/236/112 108/231/108
f 108/231/108 112/236/112 120/246/120 116/241/116
f 116/241/116 120/246/120 128/266/128 124/256/124
f 124/271/124 128/280/128 136/279/136 132/272/132
f 132/272/132 136/279/136 144/292/144 140/287/140
f 140/287/140 144/292/144 152/307/152 148/297/148
f 148/297/148 152/307/152 160/317/160 156/312/156
f 156/325/156 160/334/160 168/333/168 164/326/164
f 292/432/292 296/439/296 176/261/176 172/302/172
f 172/302/172 176/261/176 184/163/184 180/197/180
f 251/379/251 259/392/259 267/405/267 275/415/275 283/425/283 291/438/291 171/306/171 179/204/179 187/110/187 196/109/196 203/214/203 211/130/211 219/129/219 227/347/227 235/359/235 243/369/243
f 215/89/215 207/181/207 199/255/199 191/171/191 183/170/183 175/265/175 295/446/295 287/430/287 279/420/279 271/410/271 263/400/263 255/384/255 247/374/247 239/364/239 231/354/231 223/90/223
f 180/197/180 184/163/184 192/162/192 188/198/188
f 188/101/188 192/322/192 200/251/200 195/102/195
f 195/102/195 200/251/200 208/177/208 204/210/204
f 204/210/204 208/177/208 216/82/216 212/121/212
f 212/121/212 216/82/216 224/81/224 220/122/220
f 220/341/220 224/349/224 232/348/232 228/342/228
f 228/342/228 232/348/232 240/360/240 236/355/236
f 236/355/236 240/360/240 248/370/248 244/365/244
f 244/365/244 248/370/248 256/380/256 252/375/252
f 252/385/252 256/394/256 264/393/264 260/386/260
f 260/386/260 264/393/264 272/406/272 268/401/268
f 268/401/268 272/406/272 280/416/280 276/411/276
f 276/411/276 280/416/280 288/426/288 284/421/284
f 284/431/284 288/440/288 296/439/296 292/432/292
f 299/476/43 307/475/51 315/511/59 323/524/67 331/536/75 339/561/83 347/571/91 355/596/99 363/628/107 371/638/115 379/653/123 387/681/131 395/701/139 403/711/147 411/726/155 419/742/163
f 300/467/44 304/488/48 312/487/56 308/468/52
f 420/736/164 424/748/168 304/488/48 300/467/44
f 311/496/55 303/495/47 423/754/167 415/731/159 407/721/151 399/706/143 391/696/135 383/663/127 375/643/119 367/633/111 359/613/103 351/583/95 343/566/87 335/551/79 327/531/71 319/516/63
f 308/468/52 312/487/56 320/512/64 316/507/60
f 316/517/60 320/526/64 328/525/72 324/518/68
f 324/518/68 328/525/72 336/547/80 332/532/76
f 332/532/76 336/547/80 344/562/88 340/557/84
f 340/557/84 344/562/88 352/579/96 348/567/92
f 348/589/92 352/608/96 360/607/104 356/590/100
f 356/590/100 360/607/104 368/629/112 364/624/108
f 364/624/108 368/629/112 376/639/120 372/634/116
f 372/634/116 376/639/120 384/659/128 380/649/124
f 380/674/124 384/691/128 392/690/136 388/675/132
f 388/675/132 392/690/136 400/702/144 396/697/140
f 396/697/140 400/702/144 408/717/152 404/707/148
f 404/707/148 408/717/152 416/727/160 412/722/156
f 412/735/156 416/749/160 424/748/168 420/736/164
f 548/869/164 552/875/168 432/654/48 428/712/44
f 428/712/44 432/654/48 440/538/56 436/572/52
f 507/804/123 515/821/131 523/834/139 531/844/147 539/859/155 547/874/163 427/716/43 435/578/51 443/486/59 452/485/67 459/588/75 467/506/83 475/505/91 483/766/99 491/779/107 499/789/115
f 471/455/87 463/556/79 455/648/71 447/546/63 439/545/55 431/658/47 551/882/167 543/864/159 535/854/151 527/839/143 519/829/135 511/814/127 503/794/119 495/784/111 487/774/103 479/456/95
f 436/572/52 440/538/56 448/537/64 444/573/60
f 444/477/60 448/732/64 456/644/72 451/478/68
f 451/478/68 456/644/72 464/552/80 460/584/76
f 460/584/76 464/552/80 472/448/88 468/497/84
f 468/497/84 472/448/88 480/447/96 476/498/92
f 476/760/92 480/768/96 488/767/104 484/761/100
f 484/761/100 488/767/104 496/780/112 492/775/108
f 492/775/108 496/780/112 504/790/120 500/785/116
f 500/785/116 504/790/120 512/810/128 508/800/124
f 508/815/124 512/823/128 520/822/136 516/816/132
f 516/816/132 520/822/136 528/835/144 524/830/140
f 524/830/140 528/835/144 536/850/152 532/840/148
f 532/840/148 536/850/152 544/860/160 540/855/156
f 540/868/156 544/876/160 552/875/168 548/869/164
f 676/976/292 680/983/296 560/805/176 556/845/172
f 556/845/172 560/805/176 568/665/184 564/457/180
f 571/465/187 580/689/196 587/759/203 595/606/211 603/605/219 611/890/227 619/903/235 627/913/243 635/923/251 643/936/259 651/949/267 659/959/275 667/969/283 675/982/291 555/849/171 563/466/179
f 615/898/231 607/747/223 599/623/215 591/622/207 583/799/199 575/673/191 567/672/183 559/809/175 679/990/295 671/974/287 663/964/279 655/954/271 647/944/263 639/928/255 631/918/247 623/908/239
f 564/457/180 568/665/184 576/664/192 572/458/188
f 572/682/188 576/865/192 584/795/200 579/683/195
f 579/683/195 584/795/200 592/615/208 588/755/204
f 588/755/204 592/615/208 600/614/216 596/597/212
f 596/597/212 600/614/216 608/743/224 604/598/220
f 604/883/220 608/892/224 616/891/232 612/884/228
f 612/884/228 616/891/232 624/904/240 620/899/236
f 620/899/236 624/904/240 632/914/248 628/909/244
f 628/909/244 632/914/248 640/924/256 636/919/252
f 636/929/252 640/938/256 648/937/264 644/930/260
f 644/930/260 648/937/264 656/950/272 652/945/268
f 652/945/268 656/950/272 664/960/280 660/955/276
f 660/955/276 664/960/280 672/970/288 668/965/284
f 668/975/284 672/984/288 680/983/296 676/976/292
