# Blender 5.0.1
# www.blender.org
mtllib BB_PROP_Toolbox.mtl
o BB_PROP_Toolbox
v 5.710000 3.860000 0.000000
v 5.710000 3.850000 0.010000
v 5.700000 3.860000 0.010000
v 5.710000 3.855006 0.001336
v 5.705007 3.860000 0.001336
v 5.705218 3.855218 0.002634
v 5.705007 3.851336 0.010000
v 5.710000 3.851336 0.005007
v 5.705218 3.852634 0.005218
v 5.701336 3.860000 0.005007
v 5.701336 3.855006 0.010000
v 5.702634 3.855218 0.005218
v 5.710000 3.850000 0.290000
v 5.710000 3.860000 0.300000
v 5.700000 3.860000 0.290000
v 5.710000 3.851336 0.294993
v 5.705007 3.851336 0.290000
v 5.705218 3.852634 0.294782
v 5.705007 3.860000 0.298664
v 5.710000 3.855006 0.298664
v 5.705218 3.855218 0.297366
v 5.701336 3.855006 0.290000
v 5.701336 3.860000 0.294993
v 5.702634 3.855218 0.294782
v 5.710000 4.140000 0.000000
v 5.700000 4.140000 0.010000
v 5.710000 4.150000 0.010000
v 5.705007 4.140000 0.001336
v 5.710000 4.144993 0.001336
v 5.705218 4.144782 0.002634
v 5.701336 4.144993 0.010000
v 5.701336 4.140000 0.005007
v 5.702634 4.144782 0.005218
v 5.710000 4.148664 0.005007
v 5.705007 4.148664 0.010000
v 5.705218 4.147367 0.005218
v 5.710000 4.140000 0.300000
v 5.710000 4.150000 0.290000
v 5.700000 4.140000 0.290000
v 5.710000 4.144993 0.298664
v 5.705007 4.140000 0.298664
v 5.705218 4.144782 0.297366
v 5.705007 4.148664 0.290000
v 5.710000 4.148664 0.294993
v 5.705218 4.147367 0.294782
v 5.701336 4.140000 0.294993
v 5.701336 4.144993 0.290000
v 5.702634 4.144782 0.294782
v 6.290000 3.860000 0.000000
v 6.300000 3.860000 0.010000
v 6.290000 3.850000 0.010000
v 6.294993 3.860000 0.001336
v 6.290000 3.855006 0.001336
v 6.294782 3.855218 0.002634
v 6.298664 3.855006 0.010000
v 6.298664 3.860000 0.005007
v 6.297366 3.855218 0.005218
v 6.290000 3.851336 0.005007
v 6.294993 3.851336 0.010000
v 6.294782 3.852634 0.005218
v 6.290000 3.860000 0.300000
v 6.290000 3.850000 0.290000
v 6.300000 3.860000 0.290000
v 6.290000 3.855006 0.298664
v 6.294993 3.860000 0.298664
v 6.294782 3.855218 0.297366
v 6.294993 3.851336 0.290000
v 6.290000 3.851336 0.294993
v 6.294782 3.852634 0.294782
v 6.298664 3.860000 0.294993
v 6.298664 3.855006 0.290000
v 6.297366 3.855218 0.294782
v 6.290000 4.140000 0.000000
v 6.290000 4.150000 0.010000
v 6.300000 4.140000 0.010000
v 6.290000 4.144993 0.001336
v 6.294993 4.140000 0.001336
v 6.294782 4.144782 0.002634
v 6.294993 4.148664 0.010000
v 6.290000 4.148664 0.005007
v 6.294782 4.147367 0.005218
v 6.298664 4.140000 0.005007
v 6.298664 4.144993 0.010000
v 6.297366 4.144782 0.005218
v 6.290000 4.140000 0.300000
v 6.300000 4.140000 0.290000
v 6.290000 4.150000 0.290000
v 6.294993 4.140000 0.298664
v 6.290000 4.144993 0.298664
v 6.294782 4.144782 0.297366
v 6.298664 4.144993 0.290000
v 6.298664 4.140000 0.294993
v 6.297366 4.144782 0.294782
v 6.290000 4.148664 0.294993
v 6.294993 4.148664 0.290000
v 6.294782 4.147367 0.294782
v 5.705000 3.855000 0.300000
v 5.705000 3.845000 0.310000
v 5.695000 3.855000 0.310000
v 5.705000 3.850007 0.301336
v 5.700006 3.855000 0.301336
v 5.700218 3.850218 0.302634
v 5.700006 3.846336 0.310000
v 5.705000 3.846336 0.305007
v 5.700218 3.847634 0.305218
v 5.696336 3.855000 0.305007
v 5.696336 3.850007 0.310000
v 5.697634 3.850218 0.305218
v 5.705000 3.845000 0.390000
v 5.705000 3.855000 0.400000
v 5.695000 3.855000 0.390000
v 5.705000 3.846336 0.394993
v 5.700006 3.846336 0.390000
v 5.700218 3.847634 0.394782
v 5.700006 3.855000 0.398664
v 5.705000 3.850007 0.398664
v 5.700218 3.850218 0.397366
v 5.696336 3.850007 0.390000
v 5.696336 3.855000 0.394993
v 5.697634 3.850218 0.394782
v 5.705000 4.145000 0.300000
v 5.695000 4.145000 0.310000
v 5.705000 4.155000 0.310000
v 5.700006 4.145000 0.301336
v 5.705000 4.149993 0.301336
v 5.700218 4.149782 0.302634
v 5.696336 4.149993 0.310000
v 5.696336 4.145000 0.305007
v 5.697634 4.149782 0.305218
v 5.705000 4.153664 0.305007
v 5.700006 4.153664 0.310000
v 5.700218 4.152366 0.305218
v 5.705000 4.145000 0.400000
v 5.705000 4.155000 0.390000
v 5.695000 4.145000 0.390000
v 5.705000 4.149993 0.398664
v 5.700006 4.145000 0.398664
v 5.700218 4.149782 0.397366
v 5.700006 4.153664 0.390000
v 5.705000 4.153664 0.394993
v 5.700218 4.152366 0.394782
v 5.696336 4.145000 0.394993
v 5.696336 4.149993 0.390000
v 5.697634 4.149782 0.394782
v 6.295000 3.855000 0.300000
v 6.305000 3.855000 0.310000
v 6.295000 3.845000 0.310000
v 6.299994 3.855000 0.301336
v 6.295000 3.850007 0.301336
v 6.299782 3.850218 0.302634
v 6.303664 3.850007 0.310000
v 6.303664 3.855000 0.305007
v 6.302366 3.850218 0.305218
v 6.295000 3.846336 0.305007
v 6.299994 3.846336 0.310000
v 6.299782 3.847634 0.305218
v 6.295000 3.855000 0.400000
v 6.295000 3.845000 0.390000
v 6.305000 3.855000 0.390000
v 6.295000 3.850007 0.398664
v 6.299994 3.855000 0.398664
v 6.299782 3.850218 0.397366
v 6.299994 3.846336 0.390000
v 6.295000 3.846336 0.394993
v 6.299782 3.847634 0.394782
v 6.303664 3.855000 0.394993
v 6.303664 3.850007 0.390000
v 6.302366 3.850218 0.394782
v 6.295000 4.145000 0.300000
v 6.295000 4.155000 0.310000
v 6.305000 4.145000 0.310000
v 6.295000 4.149993 0.301336
v 6.299994 4.145000 0.301336
v 6.299782 4.149782 0.302634
v 6.299994 4.153664 0.310000
v 6.295000 4.153664 0.305007
v 6.299782 4.152366 0.305218
v 6.303664 4.145000 0.305007
v 6.303664 4.149993 0.310000
v 6.302366 4.149782 0.305218
v 6.295000 4.145000 0.400000
v 6.305000 4.145000 0.390000
v 6.295000 4.155000 0.390000
v 6.299994 4.145000 0.398664
v 6.295000 4.149993 0.398664
v 6.299782 4.149782 0.397366
v 6.303664 4.149993 0.390000
v 6.303664 4.145000 0.394993
v 6.302366 4.149782 0.394782
v 6.295000 4.153664 0.394993
v 6.299994 4.153664 0.390000
v 6.299782 4.152366 0.394782
v 5.860000 4.000000 0.425000
v 5.860000 3.990000 0.435000
v 5.850000 4.000000 0.435000
v 5.860000 3.995007 0.426336
v 5.855007 4.000000 0.426336
v 5.855218 3.995218 0.427634
v 5.855007 3.991336 0.435000
v 5.860000 3.991336 0.430007
v 5.855218 3.992634 0.430218
v 5.851336 4.000000 0.430007
v 5.851336 3.995007 0.435000
v 5.852633 3.995218 0.430218
v 5.860000 3.990000 0.465000
v 5.860000 4.000000 0.475000
v 5.850000 4.000000 0.465000
v 5.860000 3.991336 0.469993
v 5.855007 3.991336 0.465000
v 5.855218 3.992634 0.469782
v 5.855007 4.000000 0.473664
v 5.860000 3.995007 0.473664
v 5.855218 3.995218 0.472366
v 5.851336 3.995007 0.465000
v 5.851336 4.000000 0.469993
v 5.852633 3.995218 0.469782
v 5.860000 4.000000 0.425000
v 5.850000 4.000000 0.435000
v 5.860000 4.010000 0.435000
v 5.855007 4.000000 0.426336
v 5.860000 4.004993 0.426336
v 5.855218 4.004782 0.427634
v 5.851336 4.004993 0.435000
v 5.851336 4.000000 0.430007
v 5.852633 4.004782 0.430218
v 5.860000 4.008664 0.430007
v 5.855007 4.008664 0.435000
v 5.855218 4.007366 0.430218
v 5.860000 4.000000 0.475000
v 5.860000 4.010000 0.465000
v 5.850000 4.000000 0.465000
v 5.860000 4.004993 0.473664
v 5.855007 4.000000 0.473664
v 5.855218 4.004782 0.472366
v 5.855007 4.008664 0.465000
v 5.860000 4.008664 0.469993
v 5.855218 4.007366 0.469782
v 5.851336 4.000000 0.469993
v 5.851336 4.004993 0.465000
v 5.852633 4.004782 0.469782
v 6.140000 4.000000 0.425000
v 6.150000 4.000000 0.435000
v 6.140000 3.990000 0.435000
v 6.144993 4.000000 0.426336
v 6.140000 3.995007 0.426336
v 6.144782 3.995218 0.427634
v 6.148664 3.995007 0.435000
v 6.148664 4.000000 0.430007
v 6.147367 3.995218 0.430218
v 6.140000 3.991336 0.430007
v 6.144993 3.991336 0.435000
v 6.144782 3.992634 0.430218
v 6.140000 4.000000 0.475000
v 6.140000 3.990000 0.465000
v 6.150000 4.000000 0.465000
v 6.140000 3.995007 0.473664
v 6.144993 4.000000 0.473664
v 6.144782 3.995218 0.472366
v 6.144993 3.991336 0.465000
v 6.140000 3.991336 0.469993
v 6.144782 3.992634 0.469782
v 6.148664 4.000000 0.469993
v 6.148664 3.995007 0.465000
v 6.147367 3.995218 0.469782
v 6.140000 4.000000 0.425000
v 6.140000 4.010000 0.435000
v 6.150000 4.000000 0.435000
v 6.140000 4.004993 0.426336
v 6.144993 4.000000 0.426336
v 6.144782 4.004782 0.427634
v 6.144993 4.008664 0.435000
v 6.140000 4.008664 0.430007
v 6.144782 4.007366 0.430218
v 6.148664 4.000000 0.430007
v 6.148664 4.004993 0.435000
v 6.147367 4.004782 0.430218
v 6.140000 4.000000 0.475000
v 6.150000 4.000000 0.465000
v 6.140000 4.010000 0.465000
v 6.144993 4.000000 0.473664
v 6.140000 4.004993 0.473664
v 6.144782 4.004782 0.472366
v 6.148664 4.004993 0.465000
v 6.148664 4.000000 0.469993
v 6.147367 4.004782 0.469782
v 6.140000 4.008664 0.469993
v 6.144993 4.008664 0.465000
v 6.144782 4.007366 0.469782
v 6.140000 4.000000 0.395000
v 6.140000 3.990000 0.405000
v 6.130000 4.000000 0.405000
v 6.140000 3.995007 0.396336
v 6.135006 4.000000 0.396336
v 6.135218 3.995218 0.397634
v 6.135006 3.991336 0.405000
v 6.140000 3.991336 0.400007
v 6.135218 3.992634 0.400218
v 6.131336 4.000000 0.400007
v 6.131336 3.995007 0.405000
v 6.132634 3.995218 0.400218
v 6.140000 3.990000 0.435000
v 6.140000 4.000000 0.445000
v 6.130000 4.000000 0.435000
v 6.140000 3.991336 0.439993
v 6.135006 3.991336 0.435000
v 6.135218 3.992634 0.439782
v 6.135006 4.000000 0.443664
v 6.140000 3.995007 0.443664
v 6.135218 3.995218 0.442366
v 6.131336 3.995007 0.435000
v 6.131336 4.000000 0.439993
v 6.132634 3.995218 0.439782
v 6.140000 4.000000 0.395000
v 6.130000 4.000000 0.405000
v 6.140000 4.010000 0.405000
v 6.135006 4.000000 0.396336
v 6.140000 4.004993 0.396336
v 6.135218 4.004782 0.397634
v 6.131336 4.004993 0.405000
v 6.131336 4.000000 0.400007
v 6.132634 4.004782 0.400218
v 6.140000 4.008664 0.400007
v 6.135006 4.008664 0.405000
v 6.135218 4.007366 0.400218
v 6.140000 4.000000 0.445000
v 6.140000 4.010000 0.435000
v 6.130000 4.000000 0.435000
v 6.140000 4.004993 0.443664
v 6.135006 4.000000 0.443664
v 6.135218 4.004782 0.442366
v 6.135006 4.008664 0.435000
v 6.140000 4.008664 0.439993
v 6.135218 4.007366 0.439782
v 6.131336 4.000000 0.439993
v 6.131336 4.004993 0.435000
v 6.132634 4.004782 0.439782
v 6.140000 4.000000 0.395000
v 6.150000 4.000000 0.405000
v 6.140000 3.990000 0.405000
v 6.144993 4.000000 0.396336
v 6.140000 3.995007 0.396336
v 6.144782 3.995218 0.397634
v 6.148664 3.995007 0.405000
v 6.148664 4.000000 0.400007
v 6.147367 3.995218 0.400218
v 6.140000 3.991336 0.400007
v 6.144993 3.991336 0.405000
v 6.144782 3.992634 0.400218
v 6.140000 4.000000 0.445000
v 6.140000 3.990000 0.435000
v 6.150000 4.000000 0.435000
v 6.140000 3.995007 0.443664
v 6.144993 4.000000 0.443664
v 6.144782 3.995218 0.442366
v 6.144993 3.991336 0.435000
v 6.140000 3.991336 0.439993
v 6.144782 3.992634 0.439782
v 6.148664 4.000000 0.439993
v 6.148664 3.995007 0.435000
v 6.147367 3.995218 0.439782
v 6.140000 4.000000 0.395000
v 6.140000 4.010000 0.405000
v 6.150000 4.000000 0.405000
v 6.140000 4.004993 0.396336
v 6.144993 4.000000 0.396336
v 6.144782 4.004782 0.397634
v 6.144993 4.008664 0.405000
v 6.140000 4.008664 0.400007
v 6.144782 4.007366 0.400218
v 6.148664 4.000000 0.400007
v 6.148664 4.004993 0.405000
v 6.147367 4.004782 0.400218
v 6.140000 4.000000 0.445000
v 6.150000 4.000000 0.435000
v 6.140000 4.010000 0.435000
v 6.144993 4.000000 0.443664
v 6.140000 4.004993 0.443664
v 6.144782 4.004782 0.442366
v 6.148664 4.004993 0.435000
v 6.148664 4.000000 0.439993
v 6.147367 4.004782 0.439782
v 6.140000 4.008664 0.439993
v 6.144993 4.008664 0.435000
v 6.144782 4.007366 0.439782
v 5.860000 4.000000 0.395000
v 5.860000 3.990000 0.405000
v 5.850000 4.000000 0.405000
v 5.860000 3.995007 0.396336
v 5.855007 4.000000 0.396336
v 5.855218 3.995218 0.397634
v 5.855007 3.991336 0.405000
v 5.860000 3.991336 0.400007
v 5.855218 3.992634 0.400218
v 5.851336 4.000000 0.400007
v 5.851336 3.995007 0.405000
v 5.852633 3.995218 0.400218
v 5.860000 3.990000 0.435000
v 5.860000 4.000000 0.445000
v 5.850000 4.000000 0.435000
v 5.860000 3.991336 0.439993
v 5.855007 3.991336 0.435000
v 5.855218 3.992634 0.439782
v 5.855007 4.000000 0.443664
v 5.860000 3.995007 0.443664
v 5.855218 3.995218 0.442366
v 5.851336 3.995007 0.435000
v 5.851336 4.000000 0.439993
v 5.852633 3.995218 0.439782
v 5.860000 4.000000 0.395000
v 5.850000 4.000000 0.405000
v 5.860000 4.010000 0.405000
v 5.855007 4.000000 0.396336
v 5.860000 4.004993 0.396336
v 5.855218 4.004782 0.397634
v 5.851336 4.004993 0.405000
v 5.851336 4.000000 0.400007
v 5.852633 4.004782 0.400218
v 5.860000 4.008664 0.400007
v 5.855007 4.008664 0.405000
v 5.855218 4.007366 0.400218
v 5.860000 4.000000 0.445000
v 5.860000 4.010000 0.435000
v 5.850000 4.000000 0.435000
v 5.860000 4.004993 0.443664
v 5.855007 4.000000 0.443664
v 5.855218 4.004782 0.442366
v 5.855007 4.008664 0.435000
v 5.860000 4.008664 0.439993
v 5.855218 4.007366 0.439782
v 5.851336 4.000000 0.439993
v 5.851336 4.004993 0.435000
v 5.852633 4.004782 0.439782
v 5.860000 4.000000 0.395000
v 5.870000 4.000000 0.405000
v 5.860000 3.990000 0.405000
v 5.864994 4.000000 0.396336
v 5.860000 3.995007 0.396336
v 5.864782 3.995218 0.397634
v 5.868664 3.995007 0.405000
v 5.868664 4.000000 0.400007
v 5.867366 3.995218 0.400218
v 5.860000 3.991336 0.400007
v 5.864994 3.991336 0.405000
v 5.864782 3.992634 0.400218
v 5.860000 4.000000 0.445000
v 5.860000 3.990000 0.435000
v 5.870000 4.000000 0.435000
v 5.860000 3.995007 0.443664
v 5.864994 4.000000 0.443664
v 5.864782 3.995218 0.442366
v 5.864994 3.991336 0.435000
v 5.860000 3.991336 0.439993
v 5.864782 3.992634 0.439782
v 5.868664 4.000000 0.439993
v 5.868664 3.995007 0.435000
v 5.867366 3.995218 0.439782
v 5.860000 4.000000 0.395000
v 5.860000 4.010000 0.405000
v 5.870000 4.000000 0.405000
v 5.860000 4.004993 0.396336
v 5.864994 4.000000 0.396336
v 5.864782 4.004782 0.397634
v 5.864994 4.008664 0.405000
v 5.860000 4.008664 0.400007
v 5.864782 4.007366 0.400218
v 5.868664 4.000000 0.400007
v 5.868664 4.004993 0.405000
v 5.867366 4.004782 0.400218
v 5.860000 4.000000 0.445000
v 5.870000 4.000000 0.435000
v 5.860000 4.010000 0.435000
v 5.864994 4.000000 0.443664
v 5.860000 4.004993 0.443664
v 5.864782 4.004782 0.442366
v 5.868664 4.004993 0.435000
v 5.868664 4.000000 0.439993
v 5.867366 4.004782 0.439782
v 5.860000 4.008664 0.439993
v 5.864994 4.008664 0.435000
v 5.864782 4.007366 0.439782
vn -0.1296 -0.1296 -0.9831
vn -0.1296 -0.9831 -0.1296
vn -0.9831 -0.1296 -0.1296
vn -0.1216 -0.4915 -0.8623
vn -0.4915 -0.1216 -0.8623
vn -0.4473 -0.4473 -0.7744
vn -0.4915 -0.8623 -0.1216
vn -0.1216 -0.8623 -0.4915
vn -0.4473 -0.7744 -0.4474
vn -0.8623 -0.1216 -0.4915
vn -0.8623 -0.4915 -0.1216
vn -0.7744 -0.4473 -0.4473
vn -0.1296 -0.9831 0.1296
vn -0.1296 -0.1296 0.9831
vn -0.9831 -0.1296 0.1296
vn -0.1216 -0.8623 0.4915
vn -0.4915 -0.8623 0.1216
vn -0.4473 -0.7744 0.4473
vn -0.4915 -0.1216 0.8623
vn -0.1216 -0.4915 0.8623
vn -0.4473 -0.4473 0.7744
vn -0.8623 -0.4915 0.1216
vn -0.8623 -0.1216 0.4915
vn -0.7744 -0.4473 0.4473
vn -0.1296 0.1296 -0.9831
vn -0.9831 0.1296 -0.1296
vn -0.1296 0.9831 -0.1296
vn -0.4915 0.1216 -0.8623
vn -0.1216 0.4915 -0.8623
vn -0.4473 0.4473 -0.7744
vn -0.8623 0.4915 -0.1216
vn -0.8623 0.1216 -0.4915
vn -0.7744 0.4473 -0.4473
vn -0.1216 0.8623 -0.4915
vn -0.4915 0.8623 -0.1216
vn -0.4473 0.7744 -0.4473
vn -0.1296 0.1296 0.9831
vn -0.1296 0.9831 0.1296
vn -0.9831 0.1296 0.1296
vn -0.1216 0.4915 0.8623
vn -0.4915 0.1216 0.8623
vn -0.4473 0.4473 0.7744
vn -0.4915 0.8623 0.1216
vn -0.1216 0.8623 0.4915
vn -0.4473 0.7744 0.4473
vn -0.8623 0.1216 0.4915
vn -0.8623 0.4915 0.1216
vn -0.7744 0.4473 0.4473
vn 0.1296 -0.1296 -0.9831
vn 0.9831 -0.1296 -0.1296
vn 0.1296 -0.9831 -0.1296
vn 0.4915 -0.1216 -0.8623
vn 0.1216 -0.4915 -0.8623
vn 0.4473 -0.4473 -0.7744
vn 0.8623 -0.4915 -0.1216
vn 0.8623 -0.1216 -0.4915
vn 0.7744 -0.4473 -0.4473
vn 0.1216 -0.8623 -0.4915
vn 0.4915 -0.8623 -0.1216
vn 0.4473 -0.7744 -0.4473
vn 0.1296 -0.1296 0.9831
vn 0.1296 -0.9831 0.1296
vn 0.9831 -0.1296 0.1296
vn 0.1216 -0.4915 0.8623
vn 0.4915 -0.1216 0.8623
vn 0.4473 -0.4473 0.7744
vn 0.4915 -0.8623 0.1216
vn 0.1216 -0.8623 0.4915
vn 0.4473 -0.7744 0.4473
vn 0.8623 -0.1216 0.4915
vn 0.8623 -0.4915 0.1216
vn 0.7744 -0.4473 0.4473
vn 0.1296 0.1296 -0.9831
vn 0.1296 0.9831 -0.1296
vn 0.9831 0.1296 -0.1296
vn 0.1216 0.4915 -0.8623
vn 0.4915 0.1216 -0.8623
vn 0.4473 0.4473 -0.7744
vn 0.4915 0.8623 -0.1216
vn 0.1216 0.8623 -0.4915
vn 0.4473 0.7744 -0.4474
vn 0.8623 0.1216 -0.4915
vn 0.8623 0.4915 -0.1216
vn 0.7744 0.4473 -0.4473
vn 0.1296 0.1296 0.9831
vn 0.9831 0.1296 0.1296
vn 0.1296 0.9831 0.1296
vn 0.4915 0.1216 0.8623
vn 0.1216 0.4915 0.8623
vn 0.4473 0.4473 0.7744
vn 0.8623 0.4915 0.1216
vn 0.8623 0.1216 0.4915
vn 0.7744 0.4473 0.4473
vn 0.1216 0.8623 0.4915
vn 0.4915 0.8623 0.1216
vn 0.4473 0.7744 0.4473
vn -0.4473 -0.4474 -0.7744
vn -0.4473 -0.7744 -0.4473
vn -0.7744 -0.4474 -0.4473
vn -0.4473 0.4474 -0.7744
vn -0.7744 0.4474 -0.4473
vn 0.4473 -0.4474 -0.7744
vn 0.7744 -0.4474 -0.4473
vn 0.4473 0.4474 -0.7744
vn 0.4473 0.7744 -0.4473
vn 0.7744 0.4474 -0.4473
vn -0.4474 -0.4473 -0.7744
vn -0.4916 -0.1216 0.8623
vn -0.4474 -0.4473 0.7744
vn -0.7744 0.4474 -0.4474
vn 0.7744 -0.4474 -0.4474
vn 0.4474 0.4473 -0.7744
vn 0.4916 0.1216 0.8623
vn 0.4473 0.4474 0.7744
vn -0.7632 -0.6081 -0.2184
vn -0.1935 -0.7134 0.6735
vn -0.8885 -0.4516 -0.0814
vn -0.7052 -0.3476 -0.6180
vn -0.3123 -0.6695 -0.6740
vn 0.3261 -0.9427 0.0704
vn -0.5147 -0.8034 -0.2995
vn -0.1704 -0.6282 0.7592
vn 0.1703 -0.0844 0.9818
vn -0.1379 -0.4736 0.8699
vn -0.0907 -0.2753 0.9571
vn 0.6005 -0.5341 -0.5951
vn -0.9824 -0.1636 -0.0900
vn -0.1711 0.9650 0.1988
vn -0.4356 -0.4956 -0.7514
vn -0.1298 0.5336 -0.8357
vn -0.7462 -0.5211 -0.4143
vn -0.3623 0.8387 -0.4066
vn -0.4644 0.0758 0.8824
vn -0.1704 0.6282 0.7592
vn -0.7135 0.2749 0.6445
vn -0.1379 0.4736 0.8699
vn -0.4856 -0.2406 -0.8404
vn 0.1935 -0.7134 0.6735
vn 0.7052 -0.3476 -0.6180
vn 0.6794 -0.7317 0.0547
vn 0.4644 -0.0758 0.8824
vn 0.1704 -0.6282 0.7592
vn 0.7135 -0.2749 0.6445
vn 0.1379 -0.4736 0.8699
vn 0.8020 0.1747 -0.5712
vn 0.1711 0.9650 0.1988
vn 0.2435 0.5202 -0.8186
vn -0.1107 0.8943 -0.4336
vn -0.1703 0.0844 0.9818
vn 0.1704 0.6282 0.7592
vn 0.0907 0.2753 0.9571
vn 0.4474 0.4473 0.7744
vn 0.1379 0.4736 0.8699
vn -0.8020 -0.1747 -0.5712
vn -0.1711 -0.9650 0.1988
vn -0.2435 -0.5202 -0.8186
vn 0.1107 -0.8943 -0.4336
vn 0.4856 0.2406 -0.8404
vn -0.1935 0.7134 0.6735
vn -0.7052 0.3476 -0.6180
vn -0.6794 0.7317 0.0547
vn -0.2629 0.2083 0.9421
vn -0.1568 0.8843 0.4398
vn -0.2525 0.5704 0.7816
vn -0.1221 0.8774 0.4639
vn -0.6005 0.5341 -0.5951
vn 0.9824 0.1636 -0.0900
vn 0.1711 -0.9650 0.1988
vn 0.4356 0.4956 -0.7514
vn 0.1298 -0.5336 -0.8357
vn 0.7462 0.5211 -0.4143
vn 0.3623 -0.8387 -0.4066
vn 0.4695 -0.4273 0.7726
vn 0.8885 -0.4516 0.0814
vn 0.2958 -0.7504 0.5911
vn 0.5147 -0.8034 0.2995
vn 0.7632 0.6081 -0.2184
vn 0.1935 0.7134 0.6735
vn 0.8885 0.4516 -0.0814
vn 0.7052 0.3476 -0.6180
vn 0.3123 0.6695 -0.6740
vn -0.3261 0.9427 0.0704
vn 0.5147 0.8034 -0.2995
vn -0.0573 -0.0600 0.9966
vn 0.9824 -0.1636 0.0900
vn 0.1568 0.8843 0.4398
vn 0.4357 -0.5087 0.7426
vn -0.0052 0.5904 0.8071
vn 0.7462 -0.5211 0.4143
vn 0.1221 0.8774 0.4639
vt 0.011235 0.481323
vt 0.007447 0.481323
vt 0.007607 0.477695
vt 0.011235 0.477535
vt 0.003648 0.481323
vt 0.003648 0.477695
vt 0.708635 0.473736
vt 0.708635 0.469948
vt 0.716222 0.470108
vt 0.716222 0.473736
vt 0.708635 0.466149
vt 0.716222 0.466149
vt 0.943534 0.223664
vt 0.951121 0.223664
vt 0.951121 0.227292
vt 0.943534 0.231251
vt 0.011235 0.473736
vt 0.007607 0.473736
vt 0.496207 0.473736
vt 0.492418 0.473736
vt 0.492579 0.470108
vt 0.496207 0.469948
vt 0.488620 0.473736
vt 0.488620 0.470108
vt 0.246134 0.921354
vt 0.246134 0.925142
vt 0.238547 0.924982
vt 0.238547 0.921354
vt 0.246134 0.928940
vt 0.238547 0.928940
vt 0.731106 0.223664
vt 0.731106 0.231251
vt 0.727477 0.231251
vt 0.723519 0.223664
vt 0.496207 0.466149
vt 0.492579 0.466149
vt 0.223664 0.481323
vt 0.223664 0.477535
vt 0.227292 0.477695
vt 0.227452 0.481323
vt 0.223664 0.473736
vt 0.227292 0.473736
vt 0.943534 0.011235
vt 0.943534 0.003648
vt 0.951121 0.007607
vt 0.951121 0.011235
vt 0.708635 0.458853
vt 0.708635 0.455054
vt 0.716222 0.454894
vt 0.716222 0.458853
vt 0.708635 0.451266
vt 0.716222 0.451266
vt 0.231251 0.481323
vt 0.231251 0.477695
vt 0.458563 0.921354
vt 0.466149 0.921354
vt 0.466149 0.924982
vt 0.458563 0.925142
vt 0.488620 0.451266
vt 0.492418 0.451266
vt 0.492579 0.454894
vt 0.488620 0.454894
vt 0.496207 0.451266
vt 0.496207 0.455054
vt 0.496207 0.458853
vt 0.492579 0.458853
vt 0.731106 0.011235
vt 0.723519 0.011235
vt 0.727478 0.003648
vt 0.731106 0.003648
vt 0.458563 0.928940
vt 0.466149 0.928940
vt 0.011235 0.921354
vt 0.011235 0.925142
vt 0.007607 0.924982
vt 0.007447 0.921354
vt 0.011235 0.928940
vt 0.007607 0.928940
vt 0.943534 0.246134
vt 0.943534 0.242346
vt 0.951121 0.242506
vt 0.951121 0.246134
vt 0.943534 0.238547
vt 0.951121 0.238547
vt 0.708635 0.913767
vt 0.716222 0.913767
vt 0.716222 0.917395
vt 0.708635 0.921354
vt 0.003648 0.921354
vt 0.003648 0.924982
vt 0.246134 0.481323
vt 0.238547 0.481323
vt 0.238547 0.477695
vt 0.246134 0.473736
vt 0.488620 0.913767
vt 0.492418 0.913767
vt 0.492579 0.917395
vt 0.488620 0.917395
vt 0.496207 0.913767
vt 0.496207 0.921354
vt 0.731106 0.238547
vt 0.731106 0.242346
vt 0.727477 0.242506
vt 0.727477 0.240545
vt 0.731106 0.246134
vt 0.727317 0.246134
vt 0.723519 0.246134
vt 0.723519 0.238547
vt 0.492578 0.919356
vt 0.223664 0.921354
vt 0.227452 0.921354
vt 0.227292 0.924982
vt 0.223664 0.925142
vt 0.231251 0.921354
vt 0.231251 0.924982
vt 0.708635 0.011235
vt 0.708635 0.003648
vt 0.716222 0.007607
vt 0.716222 0.011235
vt 0.943534 0.466149
vt 0.943534 0.462351
vt 0.951121 0.462191
vt 0.951121 0.466149
vt 0.943534 0.458563
vt 0.951121 0.458563
vt 0.223664 0.928940
vt 0.227292 0.928940
vt 0.458563 0.481323
vt 0.458563 0.473736
vt 0.462191 0.473736
vt 0.466150 0.481323
vt 0.723519 0.458563
vt 0.727317 0.458563
vt 0.727477 0.462191
vt 0.723519 0.462191
vt 0.731106 0.458563
vt 0.731106 0.462351
vt 0.731106 0.466149
vt 0.727477 0.466149
vt 0.496207 0.011235
vt 0.492418 0.011235
vt 0.492579 0.003648
vt 0.496207 0.003648
vt 0.488620 0.011235
vt 0.488620 0.003648
vt 0.011235 0.011235
vt 0.003648 0.011235
vt 0.003648 0.007607
vt 0.011235 0.003648
vt 0.882551 0.481033
vt 0.878752 0.481033
vt 0.878592 0.477405
vt 0.882551 0.477405
vt 0.874964 0.481033
vt 0.874964 0.473446
vt 0.958128 0.708635
vt 0.958128 0.704837
vt 0.961756 0.704677
vt 0.961756 0.706637
vt 0.958128 0.701048
vt 0.961917 0.701048
vt 0.965715 0.701048
vt 0.965715 0.708635
vt 0.878592 0.475444
vt 0.814270 0.481033
vt 0.810482 0.481033
vt 0.810642 0.477405
vt 0.814270 0.473446
vt 0.806683 0.481033
vt 0.806683 0.477405
vt 0.253721 0.458853
vt 0.253721 0.466439
vt 0.246134 0.462481
vt 0.246134 0.458853
vt 0.889847 0.701048
vt 0.893646 0.701048
vt 0.893806 0.704676
vt 0.889847 0.708635
vt 0.897434 0.701048
vt 0.897434 0.704837
vt 0.897434 0.708635
vt 0.893806 0.706637
vt 0.810642 0.475444
vt 0.231251 0.011235
vt 0.231251 0.003648
vt 0.234879 0.003648
vt 0.238837 0.011235
vt 0.965715 0.481033
vt 0.961917 0.481033
vt 0.961756 0.477405
vt 0.965715 0.477405
vt 0.958128 0.481033
vt 0.958128 0.477245
vt 0.958128 0.473446
vt 0.961756 0.473446
vt 0.791799 0.928650
vt 0.795588 0.928651
vt 0.795428 0.936237
vt 0.791800 0.936237
vt 0.799386 0.928651
vt 0.799386 0.936237
vt 0.473736 0.458853
vt 0.481323 0.458853
vt 0.481323 0.462481
vt 0.473736 0.466439
vt 0.723519 0.928650
vt 0.727317 0.928650
vt 0.727478 0.932279
vt 0.723519 0.932279
vt 0.731106 0.928650
vt 0.731106 0.936237
vt 0.897434 0.473446
vt 0.897434 0.477245
vt 0.893806 0.477405
vt 0.893806 0.475444
vt 0.897434 0.481033
vt 0.893646 0.481033
vt 0.889847 0.481033
vt 0.889847 0.473446
vt 0.727478 0.934239
vt 0.011235 0.458853
vt 0.011235 0.466439
vt 0.007607 0.466439
vt 0.003648 0.458853
vt 0.965715 0.723519
vt 0.961917 0.723519
vt 0.961756 0.719891
vt 0.965715 0.719891
vt 0.958128 0.723519
vt 0.958128 0.719730
vt 0.958128 0.715932
vt 0.961756 0.715932
vt 0.874964 0.928650
vt 0.878752 0.928651
vt 0.878592 0.936237
vt 0.874964 0.936237
vt 0.882551 0.928651
vt 0.882551 0.936237
vt 0.253721 0.011235
vt 0.246134 0.011235
vt 0.246134 0.007607
vt 0.253721 0.003648
vt 0.806683 0.928651
vt 0.810481 0.928651
vt 0.810642 0.932279
vt 0.806683 0.932279
vt 0.814270 0.928650
vt 0.814270 0.936237
vt 0.897434 0.715932
vt 0.897434 0.719730
vt 0.893806 0.719891
vt 0.893806 0.717930
vt 0.897434 0.723519
vt 0.893646 0.723519
vt 0.889848 0.723519
vt 0.889848 0.715932
vt 0.810642 0.934239
vt 0.231251 0.458853
vt 0.238837 0.458853
vt 0.238837 0.462481
vt 0.231250 0.466439
vt 0.799386 0.481033
vt 0.795588 0.481033
vt 0.795428 0.477405
vt 0.799386 0.477405
vt 0.791799 0.481033
vt 0.791800 0.477245
vt 0.791799 0.473446
vt 0.795428 0.473446
vt 0.958128 0.943534
vt 0.961917 0.943534
vt 0.961756 0.951121
vt 0.958128 0.951121
vt 0.965715 0.943534
vt 0.965715 0.951121
vt 0.473736 0.011235
vt 0.473736 0.003648
vt 0.477364 0.003648
vt 0.481323 0.011235
vt 0.889848 0.943534
vt 0.893646 0.943534
vt 0.893806 0.947162
vt 0.889848 0.947162
vt 0.897434 0.943534
vt 0.897434 0.951121
vt 0.731106 0.473446
vt 0.731106 0.477245
vt 0.727478 0.477405
vt 0.727478 0.475444
vt 0.731106 0.481033
vt 0.727317 0.481033
vt 0.723519 0.481033
vt 0.723519 0.473446
vt 0.893806 0.949123
vt 0.980598 0.481033
vt 0.973012 0.481033
vt 0.973012 0.477405
vt 0.980598 0.473446
vt 0.996351 0.246134
vt 0.992553 0.246134
vt 0.992393 0.242506
vt 0.996352 0.242506
vt 0.988765 0.246134
vt 0.988765 0.238547
vt 0.578501 0.958997
vt 0.582300 0.958997
vt 0.582460 0.962626
vt 0.580499 0.962626
vt 0.586088 0.958997
vt 0.586088 0.962786
vt 0.586088 0.966584
vt 0.578501 0.966584
vt 0.992393 0.240545
vt 0.966005 0.246134
vt 0.958418 0.246134
vt 0.958418 0.242506
vt 0.966005 0.238547
vt 0.973012 0.935947
vt 0.976810 0.935947
vt 0.976970 0.939575
vt 0.973012 0.939575
vt 0.980599 0.935947
vt 0.980599 0.939736
vt 0.980599 0.943534
vt 0.976970 0.943534
vt 0.586088 0.936237
vt 0.582300 0.936237
vt 0.582460 0.928650
vt 0.586088 0.928650
vt 0.578501 0.936237
vt 0.578501 0.928650
vt 0.980598 0.481033
vt 0.984227 0.473446
vt 0.988185 0.481033
vt 0.586088 0.962786
vt 0.589716 0.962626
vt 0.589716 0.966584
vt 0.589876 0.958997
vt 0.593675 0.958997
vt 0.593675 0.962626
vt 0.988765 0.223664
vt 0.992553 0.223664
vt 0.992393 0.231250
vt 0.988765 0.231251
vt 0.996352 0.223664
vt 0.996352 0.231251
vt 0.984387 0.935947
vt 0.984227 0.939575
vt 0.988185 0.935947
vt 0.988185 0.939575
vt 0.966005 0.223664
vt 0.966005 0.231250
vt 0.958418 0.227292
vt 0.958418 0.223664
vt 0.593675 0.936237
vt 0.589876 0.936237
vt 0.589716 0.928650
vt 0.593675 0.928650
vt 0.586088 0.936237
vt 0.984227 0.943534
vt 0.980598 0.693462
vt 0.980598 0.701048
vt 0.976970 0.701048
vt 0.973012 0.693462
vt 0.608558 0.966584
vt 0.608558 0.962786
vt 0.612186 0.962626
vt 0.612186 0.966584
vt 0.608558 0.958997
vt 0.612347 0.958997
vt 0.616145 0.958997
vt 0.616145 0.962626
vt 0.988765 0.458563
vt 0.992553 0.458563
vt 0.992393 0.466149
vt 0.988765 0.466149
vt 0.996352 0.458563
vt 0.996352 0.466149
vt 0.980598 0.723519
vt 0.976810 0.723519
vt 0.976970 0.719891
vt 0.980599 0.719730
vt 0.973012 0.723519
vt 0.973012 0.719891
vt 0.966005 0.458563
vt 0.966005 0.466149
vt 0.958418 0.462191
vt 0.958418 0.458563
vt 0.616145 0.936237
vt 0.612347 0.936237
vt 0.612186 0.928650
vt 0.616145 0.928650
vt 0.608558 0.936237
vt 0.608558 0.928650
vt 0.980599 0.715932
vt 0.976970 0.715932
vt 0.988185 0.693462
vt 0.988185 0.697090
vt 0.996352 0.011235
vt 0.992553 0.011235
vt 0.992393 0.007607
vt 0.996352 0.007607
vt 0.988765 0.011235
vt 0.988765 0.007447
vt 0.988765 0.003648
vt 0.992393 0.003648
vt 0.608558 0.962786
vt 0.600972 0.962626
vt 0.600972 0.958997
vt 0.600972 0.966584
vt 0.984227 0.719891
vt 0.984387 0.723519
vt 0.984227 0.715932
vt 0.608558 0.936237
vt 0.600972 0.936237
vt 0.604930 0.928650
vt 0.966005 0.003648
vt 0.966005 0.007447
vt 0.958418 0.007607
vt 0.958418 0.003648
vt 0.966005 0.011235
vt 0.958418 0.011235
vt 0.988185 0.723519
vt 0.988185 0.719891
vt 0.011235 0.943824
vt 0.003648 0.943824
vt 0.003648 0.940196
vt 0.011235 0.936237
vt 0.518677 0.966584
vt 0.518677 0.962786
vt 0.522305 0.962626
vt 0.522305 0.966584
vt 0.518677 0.958997
vt 0.526264 0.958997
vt 0.623442 0.958997
vt 0.627240 0.958997
vt 0.627401 0.962626
vt 0.625440 0.962626
vt 0.631029 0.958997
vt 0.631029 0.962786
vt 0.631029 0.966584
vt 0.623442 0.966584
vt 0.524266 0.962625
vt 0.518677 0.936237
vt 0.518677 0.932449
vt 0.522305 0.932609
vt 0.526264 0.936237
vt 0.518677 0.928650
vt 0.522305 0.928650
vt 0.033706 0.943824
vt 0.033706 0.951411
vt 0.026119 0.947452
vt 0.026119 0.943824
vt 0.631029 0.928650
vt 0.631029 0.932449
vt 0.627401 0.932609
vt 0.623442 0.928650
vt 0.631029 0.936237
vt 0.627240 0.936237
vt 0.623442 0.936237
vt 0.625440 0.932609
vt 0.524266 0.932609
vt 0.011235 0.943824
vt 0.011235 0.936237
vt 0.014863 0.936237
vt 0.018822 0.943824
vt 0.631029 0.962786
vt 0.634657 0.962626
vt 0.634657 0.966584
vt 0.631029 0.958997
vt 0.634817 0.958997
vt 0.638615 0.958997
vt 0.638615 0.962625
vt 0.496207 0.958997
vt 0.496207 0.962786
vt 0.488620 0.962625
vt 0.488620 0.958997
vt 0.496207 0.966584
vt 0.488620 0.966584
vt 0.033706 0.943824
vt 0.041292 0.943824
vt 0.041292 0.947452
vt 0.496207 0.928650
vt 0.496207 0.932449
vt 0.492579 0.932609
vt 0.492579 0.928650
vt 0.496207 0.936237
vt 0.488620 0.936237
vt 0.638615 0.936237
vt 0.634817 0.936237
vt 0.634657 0.932609
vt 0.636617 0.932609
vt 0.631029 0.932449
vt 0.638615 0.928650
vt 0.490618 0.932609
vt 0.011235 0.951411
vt 0.007607 0.951411
vt 0.653499 0.966584
vt 0.653499 0.962786
vt 0.657127 0.962626
vt 0.657127 0.966584
vt 0.653499 0.958997
vt 0.657287 0.958997
vt 0.661086 0.958997
vt 0.661086 0.962625
vt 0.511090 0.962625
vt 0.511090 0.958997
vt 0.511090 0.966584
vt 0.026119 0.940196
vt 0.033706 0.936237
vt 0.515049 0.932609
vt 0.515049 0.928650
vt 0.511090 0.936237
vt 0.661086 0.936237
vt 0.657287 0.936237
vt 0.657127 0.932609
vt 0.659088 0.932609
vt 0.653499 0.936237
vt 0.653499 0.932449
vt 0.653499 0.928650
vt 0.661086 0.928650
vt 0.513088 0.932609
vt 0.018822 0.947452
vt 0.011235 0.951411
vt 0.496207 0.966584
vt 0.496207 0.962786
vt 0.499835 0.962626
vt 0.499835 0.966584
vt 0.499995 0.958997
vt 0.503793 0.958997
vt 0.503793 0.962625
vt 0.653499 0.958997
vt 0.653499 0.962786
vt 0.645912 0.962625
vt 0.645912 0.958997
vt 0.645912 0.966584
vt 0.037334 0.936237
vt 0.653499 0.932449
vt 0.649871 0.932609
vt 0.649871 0.928650
vt 0.645912 0.936237
vt 0.503793 0.936237
vt 0.499995 0.936237
vt 0.499835 0.932609
vt 0.501795 0.932609
vt 0.503793 0.928650
vt 0.647910 0.932609
vt 0.056176 0.943824
vt 0.048589 0.943824
vt 0.048589 0.940196
vt 0.056176 0.936237
vt 0.563618 0.966584
vt 0.563618 0.962786
vt 0.567246 0.962626
vt 0.567246 0.966584
vt 0.563618 0.958997
vt 0.571204 0.958997
vt 0.668383 0.958997
vt 0.672181 0.958997
vt 0.672341 0.962626
vt 0.670381 0.962626
vt 0.675969 0.958997
vt 0.675969 0.962786
vt 0.675969 0.966584
vt 0.668383 0.966584
vt 0.569206 0.962625
vt 0.563618 0.936237
vt 0.563618 0.932449
vt 0.567246 0.932609
vt 0.571204 0.936237
vt 0.563618 0.928650
vt 0.567246 0.928650
vt 0.078646 0.943824
vt 0.078646 0.951411
vt 0.071059 0.947452
vt 0.071059 0.943824
vt 0.675969 0.928650
vt 0.675969 0.932449
vt 0.672341 0.932609
vt 0.668383 0.928650
vt 0.675969 0.936237
vt 0.672181 0.936237
vt 0.668383 0.936237
vt 0.670381 0.932609
vt 0.569206 0.932609
vt 0.056176 0.943824
vt 0.059804 0.936237
vt 0.063763 0.943824
vt 0.679597 0.962626
vt 0.679597 0.966584
vt 0.679758 0.958997
vt 0.683556 0.958997
vt 0.683556 0.962625
vt 0.541147 0.958997
vt 0.541147 0.962786
vt 0.533561 0.962625
vt 0.533561 0.958997
vt 0.541147 0.966584
vt 0.533561 0.966584
vt 0.078646 0.943824
vt 0.086233 0.943824
vt 0.086233 0.947452
vt 0.541147 0.928650
vt 0.541147 0.932449
vt 0.537519 0.932609
vt 0.537519 0.928650
vt 0.541147 0.936237
vt 0.533561 0.936237
vt 0.683556 0.936237
vt 0.679758 0.936237
vt 0.679597 0.932609
vt 0.681558 0.932609
vt 0.675969 0.932449
vt 0.683556 0.928650
vt 0.535559 0.932609
vt 0.056176 0.951411
vt 0.052548 0.951411
vt 0.048589 0.943824
vt 0.698440 0.966584
vt 0.698440 0.962786
vt 0.702068 0.962626
vt 0.702068 0.966584
vt 0.698440 0.958997
vt 0.702228 0.958997
vt 0.706026 0.958997
vt 0.706026 0.962625
vt 0.563618 0.962786
vt 0.556031 0.962625
vt 0.556031 0.958997
vt 0.563618 0.966584
vt 0.556031 0.966584
vt 0.071059 0.940196
vt 0.078646 0.936237
vt 0.559990 0.932609
vt 0.559990 0.928650
vt 0.556031 0.936237
vt 0.706026 0.936237
vt 0.702228 0.936237
vt 0.702068 0.932609
vt 0.704028 0.932609
vt 0.698440 0.936237
vt 0.698440 0.932449
vt 0.698440 0.928650
vt 0.706026 0.928650
vt 0.558029 0.932609
vt 0.063763 0.947452
vt 0.544775 0.962626
vt 0.544775 0.966584
vt 0.544936 0.958997
vt 0.548734 0.958997
vt 0.548734 0.962625
vt 0.698440 0.958997
vt 0.690853 0.962625
vt 0.690853 0.958997
vt 0.690853 0.966584
vt 0.082274 0.936237
vt 0.698440 0.932449
vt 0.694812 0.932609
vt 0.694812 0.928650
vt 0.698440 0.936237
vt 0.690853 0.936237
vt 0.548734 0.936237
vt 0.544936 0.936237
vt 0.544775 0.932609
vt 0.546736 0.932609
vt 0.548734 0.928650
vt 0.692851 0.932609
s 1
usemtl BB_PaintedIron
f 1/1/1 4/2/4 6/3/6 5/4/5
f 4/2/4 8/5/8 9/6/9 6/3/6
f 2/7/2 7/8/7 9/9/9 8/10/8
f 7/8/7 11/11/11 12/12/12 9/9/9
f 3/13/3 10/14/10 12/15/12 11/16/11
f 10/17/10 5/4/5 6/3/6 12/18/12
f 6/3/6 9/6/9 12/18/12
f 13/19/13 16/20/16 18/21/18 17/22/17
f 16/20/16 20/23/20 21/24/21 18/21/18
f 14/25/14 19/26/19 21/27/21 20/28/20
f 19/26/19 23/29/23 24/30/24 21/27/21
f 15/31/15 22/32/22 24/33/24 23/34/23
f 22/35/22 17/22/17 18/21/18 24/36/24
f 18/21/18 21/24/21 24/36/24
f 25/37/25 28/38/28 30/39/30 29/40/29
f 28/38/28 32/41/32 33/42/33 30/39/30
f 26/43/26 31/44/31 33/45/33 32/46/32
f 31/47/31 35/48/35 36/49/36 33/50/33
f 27/51/27 34/52/34 36/49/36 35/48/35
f 34/53/34 29/40/29 30/39/30 36/54/36
f 30/39/30 33/42/33 36/54/36
f 37/55/37 40/56/40 42/57/42 41/58/41
f 40/59/40 44/60/44 45/61/45 42/62/42
f 38/63/38 43/64/43 45/61/45 44/60/44
f 43/64/43 47/65/47 48/66/48 45/61/45
f 39/67/39 46/68/46 48/69/48 47/70/47
f 46/71/46 41/58/41 42/57/42 48/72/48
f 42/62/42 45/61/45 48/66/48
f 49/73/49 52/74/52 54/75/54 53/76/53
f 52/74/52 56/77/56 57/78/57 54/75/54
f 50/79/50 55/80/55 57/81/57 56/82/56
f 55/80/55 59/83/59 60/84/60 57/81/57
f 51/85/51 58/86/58 60/87/60 59/88/59
f 58/89/58 53/76/53 54/75/54 60/90/60
f 54/75/54 57/78/57 60/90/60
f 61/91/61 64/92/64 66/93/66 65/94/65
f 64/95/64 68/96/68 69/97/69 66/98/66
f 62/99/62 67/100/67 69/97/69 68/96/68
f 67/101/67 71/102/71 72/103/72 69/104/69
f 63/105/63 70/106/70 72/103/72 71/102/71
f 70/106/70 65/107/65 66/108/66 72/103/72
f 66/98/66 69/97/69 72/109/72
f 73/110/73 76/111/76 78/112/78 77/113/77
f 76/111/76 80/114/80 81/115/81 78/112/78
f 74/116/74 79/117/79 81/118/81 80/119/80
f 79/120/79 83/121/83 84/122/84 81/123/81
f 75/124/75 82/125/82 84/122/84 83/121/83
f 82/126/82 77/113/77 78/112/78 84/127/84
f 78/112/78 81/115/81 84/127/84
f 85/128/85 88/129/88 90/130/90 89/131/89
f 88/132/88 92/133/92 93/134/93 90/135/90
f 86/136/86 91/137/91 93/134/93 92/133/92
f 91/137/91 95/138/95 96/139/96 93/134/93
f 87/140/87 94/141/94 96/142/96 95/143/95
f 94/141/94 89/144/89 90/145/90 96/142/96
f 90/135/90 93/134/93 96/139/96
f 97/146/1 100/147/4 102/148/97 101/149/5
f 100/150/4 104/151/8 105/152/98 102/153/97
f 98/154/2 103/155/7 105/152/98 104/151/8
f 103/156/7 107/157/11 108/158/99 105/159/98
f 99/160/3 106/161/10 108/158/99 107/157/11
f 106/161/10 101/162/5 102/163/97 108/158/99
f 102/153/97 105/152/98 108/164/99
f 109/165/13 112/166/16 114/167/18 113/168/17
f 112/166/16 116/169/20 117/170/21 114/167/18
f 110/171/14 115/172/19 117/173/21 116/174/20
f 115/175/19 119/176/23 120/177/24 117/178/21
f 111/179/15 118/180/22 120/177/24 119/176/23
f 118/180/22 113/181/17 114/182/18 120/177/24
f 114/167/18 117/170/21 120/183/24
f 121/184/25 124/185/28 126/186/100 125/187/29
f 124/188/28 128/189/32 129/190/101 126/191/100
f 122/192/26 127/193/31 129/190/101 128/189/32
f 127/193/31 131/194/35 132/195/36 129/190/101
f 123/196/27 130/197/34 132/198/36 131/199/35
f 130/197/34 125/200/29 126/201/100 132/198/36
f 126/191/100 129/190/101 132/195/36
f 133/202/37 136/203/40 138/204/42 137/205/41
f 136/206/40 140/207/44 141/208/45 138/209/42
f 134/210/38 139/211/43 141/208/45 140/207/44
f 139/212/43 143/213/47 144/214/48 141/215/45
f 135/216/39 142/217/46 144/214/48 143/213/47
f 142/217/46 137/218/41 138/219/42 144/214/48
f 138/209/42 141/208/45 144/220/48
f 145/221/49 148/222/52 150/223/102 149/224/53
f 148/225/52 152/226/56 153/227/103 150/228/102
f 146/229/50 151/230/55 153/227/103 152/226/56
f 151/230/55 155/231/59 156/232/60 153/227/103
f 147/233/51 154/234/58 156/235/60 155/236/59
f 154/234/58 149/237/53 150/238/102 156/235/60
f 150/228/102 153/227/103 156/232/60
f 157/239/61 160/240/64 162/241/66 161/242/65
f 160/243/64 164/244/68 165/245/69 162/246/66
f 158/247/62 163/248/67 165/245/69 164/244/68
f 163/249/67 167/250/71 168/251/72 165/252/69
f 159/253/63 166/254/70 168/251/72 167/250/71
f 166/254/70 161/255/65 162/256/66 168/251/72
f 162/246/66 165/245/69 168/257/72
f 169/258/73 172/259/76 174/260/104 173/261/77
f 172/262/76 176/263/80 177/264/105 174/265/104
f 170/266/74 175/267/79 177/264/105 176/263/80
f 175/267/79 179/268/83 180/269/106 177/264/105
f 171/270/75 178/271/82 180/272/106 179/273/83
f 178/271/82 173/274/77 174/275/104 180/272/106
f 174/265/104 177/264/105 180/269/106
f 181/276/85 184/277/88 186/278/90 185/279/89
f 184/280/88 188/281/92 189/282/93 186/283/90
f 182/284/86 187/285/91 189/282/93 188/281/92
f 187/286/91 191/287/95 192/288/96 189/289/93
f 183/290/87 190/291/94 192/288/96 191/287/95
f 190/291/94 185/292/89 186/293/90 192/288/96
f 186/283/90 189/282/93 192/294/96
f 193/295/1 196/296/4 198/297/107 197/298/5
f 196/299/4 200/300/8 201/301/98 198/302/107
f 194/303/2 199/304/7 201/301/98 200/300/8
f 199/305/7 203/306/11 204/307/12 201/308/98
f 195/309/3 202/310/10 204/307/12 203/306/11
f 202/310/10 197/311/5 198/312/107 204/307/12
f 198/302/107 201/301/98 204/313/12
f 205/314/13 208/315/16 210/316/18 209/317/17
f 208/318/16 212/319/20 213/320/109 210/321/18
f 206/322/14 211/323/108 213/320/109 212/319/20
f 211/323/108 215/324/23 216/325/24 213/320/109
f 207/326/15 214/327/22 216/328/24 215/329/23
f 214/327/22 209/330/17 210/331/18 216/328/24
f 210/321/18 213/320/109 216/325/24
f 217/332/25 220/298/28 222/333/100 221/334/29
f 220/311/28 224/335/32 225/336/110 222/337/100
f 218/309/26 223/338/31 225/336/110 224/335/32
f 223/338/31 227/339/35 228/340/36 225/336/110
f 219/341/27 226/342/34 228/343/36 227/344/35
f 226/342/34 221/345/29 222/346/100 228/343/36
f 222/337/100 225/336/110 228/340/36
f 229/322/37 232/347/40 234/348/42 233/323/41
f 232/347/40 236/349/44 237/350/45 234/348/42
f 230/351/38 235/352/43 237/353/45 236/354/44
f 235/355/43 239/356/47 240/357/48 237/358/45
f 231/359/39 238/329/46 240/357/48 239/356/47
f 238/324/46 233/323/41 234/348/42 240/360/48
f 234/348/42 237/350/45 240/360/48
f 241/361/49 244/362/52 246/363/102 245/364/53
f 244/365/52 248/366/56 249/367/111 246/368/102
f 242/369/50 247/370/55 249/367/111 248/366/56
f 247/370/55 251/371/59 252/372/60 249/367/111
f 243/373/51 250/374/58 252/375/60 251/376/59
f 250/374/58 245/377/53 246/378/102 252/375/60
f 246/368/102 249/367/111 252/372/60
f 253/379/61 256/380/64 258/381/66 257/382/65
f 256/380/64 260/383/68 261/384/69 258/381/66
f 254/385/62 259/386/67 261/387/69 260/388/68
f 259/389/67 263/390/71 264/391/72 261/392/69
f 255/393/63 262/394/70 264/391/72 263/390/71
f 262/395/70 257/382/65 258/381/66 264/396/72
f 258/381/66 261/384/69 264/396/72
f 265/361/73 268/397/76 270/398/112 269/362/77
f 268/399/76 272/400/80 273/401/105 270/402/112
f 266/403/74 271/404/79 273/401/105 272/400/80
f 271/404/79 275/405/83 276/406/84 273/401/105
f 267/369/75 274/407/82 276/408/84 275/409/83
f 274/407/82 269/365/77 270/410/112 276/408/84
f 270/402/112 273/401/105 276/406/84
f 277/379/85 280/382/113 282/411/114 281/412/89
f 280/382/113 284/395/92 285/413/93 282/411/114
f 278/414/86 283/415/91 285/416/93 284/394/92
f 283/417/91 287/418/95 288/419/96 285/420/93
f 279/421/87 286/422/94 288/419/96 287/418/95
f 286/423/94 281/412/89 282/411/114 288/424/96
f 282/411/114 285/413/93 288/424/96
f 289/425/115 292/426/118 294/427/6 293/428/119
f 292/429/118 296/430/120 297/431/98 294/432/6
f 290/433/116 295/434/7 297/431/98 296/430/120
f 295/435/7 299/436/11 300/437/12 297/438/98
f 291/439/117 298/440/121 300/437/12 299/436/11
f 298/440/121 293/441/119 294/442/6 300/437/12
f 294/432/6 297/431/98 300/443/12
f 301/444/122 304/445/124 306/446/18 305/447/17
f 304/445/124 308/448/125 309/449/109 306/446/18
f 302/450/123 307/451/19 309/452/109 308/453/125
f 307/454/19 311/455/23 312/456/24 309/457/109
f 303/458/15 310/459/22 312/456/24 311/455/23
f 310/459/22 305/460/17 306/461/18 312/456/24
f 306/446/18 309/449/109 312/462/24
f 313/463/126 316/464/129 318/465/30 317/466/130
f 316/441/129 320/467/131 321/468/33 318/469/30
f 314/470/127 319/471/31 321/468/33 320/467/131
f 319/471/31 323/472/35 324/473/36 321/468/33
f 315/474/128 322/475/132 324/476/36 323/477/35
f 322/475/132 317/478/130 318/479/30 324/476/36
f 318/469/30 321/468/33 324/473/36
f 325/480/133 328/481/135 330/482/42 329/451/41
f 328/483/135 332/484/136 333/485/45 330/486/42
f 326/487/134 331/488/43 333/485/45 332/484/136
f 331/489/43 335/490/47 336/491/48 333/492/45
f 327/458/39 334/493/46 336/491/48 335/490/47
f 334/493/46 329/454/41 330/494/42 336/491/48
f 330/486/42 333/485/45 336/495/48
f 337/425/137 340/496/52 342/497/54 341/426/139
f 340/498/52 344/499/56 345/500/57 342/501/54
f 338/502/50 343/503/55 345/500/57 344/499/56
f 343/503/55 347/504/59 348/505/60 345/500/57
f 339/433/138 346/430/140 348/506/60 347/507/59
f 346/430/140 341/429/139 342/508/54 348/506/60
f 342/501/54 345/500/57 348/505/60
f 349/450/141 352/453/143 354/509/66 353/510/65
f 352/448/143 356/445/144 357/511/69 354/512/66
f 350/444/142 355/513/67 357/511/69 356/445/144
f 355/514/67 359/515/71 360/516/72 357/517/69
f 351/518/63 358/519/70 360/516/72 359/515/71
f 358/519/70 353/520/65 354/521/66 360/516/72
f 354/512/66 357/511/69 360/522/72
f 361/463/145 364/466/147 366/523/104 365/524/77
f 364/525/147 368/526/148 369/527/105 366/528/104
f 362/474/146 367/529/79 369/527/105 368/526/148
f 367/529/79 371/530/83 372/531/106 369/527/105
f 363/532/75 370/533/82 372/534/106 371/535/83
f 370/533/82 365/498/77 366/536/104 372/534/106
f 366/528/104 369/527/105 372/531/106
f 373/480/149 376/510/88 378/537/152 377/481/151
f 376/520/88 380/538/92 381/539/93 378/540/152
f 374/518/86 379/541/91 381/539/93 380/538/92
f 379/542/91 383/543/95 384/544/96 381/545/93
f 375/487/150 382/484/153 384/544/96 383/543/95
f 382/484/153 377/483/151 378/546/152 384/544/96
f 378/540/152 381/539/93 384/547/96
f 385/548/154 388/549/156 390/550/97 389/551/5
f 388/552/156 392/553/157 393/554/98 390/555/97
f 386/556/155 391/557/7 393/554/98 392/553/157
f 391/558/7 395/559/11 396/560/99 393/561/98
f 387/562/3 394/563/10 396/560/99 395/559/11
f 394/563/10 389/564/5 390/565/97 396/560/99
f 390/555/97 393/554/98 396/566/99
f 397/567/122 400/568/124 402/569/18 401/570/17
f 400/568/124 404/571/125 405/572/109 402/569/18
f 398/573/123 403/574/19 405/575/109 404/576/125
f 403/577/19 407/578/23 408/579/24 405/580/109
f 399/581/15 406/582/22 408/579/24 407/578/23
f 406/582/22 401/583/17 402/584/18 408/579/24
f 402/569/18 405/572/109 408/585/24
f 409/586/158 412/551/28 414/587/30 413/588/160
f 412/564/28 416/563/32 417/589/33 414/590/30
f 410/562/26 415/591/31 417/589/33 416/563/32
f 415/591/31 419/592/35 420/593/36 417/589/33
f 411/594/159 418/595/161 420/596/36 419/597/35
f 418/595/161 413/598/160 414/599/30 420/596/36
f 414/590/30 417/589/33 420/593/36
f 421/600/162 424/601/164 426/602/42 425/574/41
f 424/603/164 428/604/165 429/605/45 426/606/42
f 422/607/163 427/608/43 429/605/45 428/604/165
f 427/609/43 431/610/47 432/611/48 429/612/45
f 423/581/39 430/613/46 432/611/48 431/610/47
f 430/613/46 425/577/41 426/614/42 432/611/48
f 426/606/42 429/605/45 432/615/48
f 433/548/166 436/616/169 438/617/54 437/618/170
f 436/619/169 440/620/171 441/621/57 438/622/54
f 434/623/167 439/624/55 441/621/57 440/620/171
f 439/624/55 443/625/59 444/626/60 441/621/57
f 435/556/168 442/627/172 444/628/60 443/629/59
f 442/627/172 437/630/170 438/631/54 444/628/60
f 438/622/54 441/621/57 444/626/60
f 445/573/173 448/576/143 450/632/66 449/633/175
f 448/571/143 452/568/144 453/634/69 450/635/66
f 446/567/142 451/636/67 453/634/69 452/568/144
f 451/637/67 455/638/71 456/639/72 453/640/69
f 447/641/174 454/642/176 456/639/72 455/638/71
f 454/642/176 449/643/175 450/644/66 456/639/72
f 450/635/66 453/634/69 456/645/72
f 457/586/177 460/588/180 462/646/78 461/616/181
f 460/598/180 464/595/182 465/647/105 462/648/78
f 458/594/178 463/649/79 465/647/105 464/595/182
f 463/649/79 467/650/83 468/651/84 465/647/105
f 459/652/179 466/620/183 468/653/84 467/654/83
f 466/620/183 461/619/181 462/655/78 468/653/84
f 462/648/78 465/647/105 468/651/84
f 469/600/184 472/633/187 474/656/152 473/601/188
f 472/643/187 476/657/189 477/658/93 474/659/152
f 470/660/185 475/661/91 477/658/93 476/657/189
f 475/662/91 479/663/95 480/664/96 477/665/93
f 471/607/186 478/604/190 480/664/96 479/663/95
f 478/604/190 473/603/188 474/666/152 480/664/96
f 474/659/152 477/658/93 480/667/96
f 25/37/25 1/1/1 5/4/5 28/38/28
f 28/38/28 5/4/5 10/17/10 32/41/32
f 32/46/32 10/14/10 3/13/3 26/43/26
f 2/7/2 13/19/13 17/22/17 7/8/7
f 7/8/7 17/22/17 22/35/22 11/11/11
f 11/16/11 22/32/22 15/31/15 3/13/3
f 14/25/14 37/55/37 41/58/41 19/26/19
f 19/26/19 41/58/41 46/71/46 23/29/23
f 23/34/23 46/68/46 39/67/39 15/31/15
f 38/63/38 27/51/27 35/48/35 43/64/43
f 43/64/43 35/48/35 31/47/31 47/65/47
f 47/70/47 31/44/31 26/43/26 39/67/39
f 73/110/73 25/37/25 29/40/29 76/111/76
f 76/111/76 29/40/29 34/53/34 80/114/80
f 80/119/80 34/52/34 27/51/27 74/116/74
f 37/55/37 85/128/85 89/131/89 40/56/40
f 40/59/40 89/144/89 94/141/94 44/60/44
f 44/60/44 94/141/94 87/140/87 38/63/38
f 86/136/86 75/124/75 83/121/83 91/137/91
f 91/137/91 83/121/83 79/120/79 95/138/95
f 95/143/95 79/117/79 74/116/74 87/140/87
f 49/73/49 73/110/73 77/113/77 52/74/52
f 52/74/52 77/113/77 82/126/82 56/77/56
f 56/82/56 82/125/82 75/124/75 50/79/50
f 85/128/85 61/91/61 65/94/65 88/129/88
f 88/132/88 65/107/65 70/106/70 92/133/92
f 92/133/92 70/106/70 63/105/63 86/136/86
f 62/99/62 51/85/51 59/88/59 67/100/67
f 67/101/67 59/83/59 55/80/55 71/102/71
f 71/102/71 55/80/55 50/79/50 63/105/63
f 1/1/1 49/73/49 53/76/53 4/2/4
f 4/2/4 53/76/53 58/89/58 8/5/8
f 8/10/8 58/86/58 51/85/51 2/7/2
f 61/91/61 14/25/14 20/28/20 64/92/64
f 64/95/64 20/23/20 16/20/16 68/96/68
f 68/96/68 16/20/16 13/19/13 62/99/62
f 121/184/25 97/146/1 101/149/5 124/185/28
f 124/188/28 101/162/5 106/161/10 128/189/32
f 128/189/32 106/161/10 99/160/3 122/192/26
f 98/154/2 109/165/13 113/168/17 103/155/7
f 103/156/7 113/181/17 118/180/22 107/157/11
f 107/157/11 118/180/22 111/179/15 99/160/3
f 110/171/14 133/202/37 137/205/41 115/172/19
f 115/175/19 137/218/41 142/217/46 119/176/23
f 119/176/23 142/217/46 135/216/39 111/179/15
f 134/210/38 123/196/27 131/199/35 139/211/43
f 139/212/43 131/194/35 127/193/31 143/213/47
f 143/213/47 127/193/31 122/192/26 135/216/39
f 169/258/73 121/184/25 125/187/29 172/259/76
f 172/262/76 125/200/29 130/197/34 176/263/80
f 176/263/80 130/197/34 123/196/27 170/266/74
f 133/202/37 181/276/85 185/279/89 136/203/40
f 136/206/40 185/292/89 190/291/94 140/207/44
f 140/207/44 190/291/94 183/290/87 134/210/38
f 182/284/86 171/270/75 179/273/83 187/285/91
f 187/286/91 179/268/83 175/267/79 191/287/95
f 191/287/95 175/267/79 170/266/74 183/290/87
f 145/221/49 169/258/73 173/261/77 148/222/52
f 148/225/52 173/274/77 178/271/82 152/226/56
f 152/226/56 178/271/82 171/270/75 146/229/50
f 181/276/85 157/239/61 161/242/65 184/277/88
f 184/280/88 161/255/65 166/254/70 188/281/92
f 188/281/92 166/254/70 159/253/63 182/284/86
f 158/247/62 147/233/51 155/236/59 163/248/67
f 163/249/67 155/231/59 151/230/55 167/250/71
f 167/250/71 151/230/55 146/229/50 159/253/63
f 97/146/1 145/221/49 149/224/53 100/147/4
f 100/150/4 149/237/53 154/234/58 104/151/8
f 104/151/8 154/234/58 147/233/51 98/154/2
f 157/239/61 110/171/14 116/174/20 160/240/64
f 160/243/64 116/169/20 112/166/16 164/244/68
f 164/244/68 112/166/16 109/165/13 158/247/62
f 217/332/25 193/295/1 197/298/5 220/298/28
f 220/311/28 197/311/5 202/310/10 224/335/32
f 224/335/32 202/310/10 195/309/3 218/309/26
f 194/303/2 205/314/13 209/317/17 199/304/7
f 199/305/7 209/330/17 214/327/22 203/306/11
f 203/306/11 214/327/22 207/326/15 195/309/3
f 206/322/14 229/322/37 233/323/41 211/323/108
f 211/323/108 233/323/41 238/324/46 215/324/23
f 215/329/23 238/329/46 231/359/39 207/326/15
f 230/351/38 219/341/27 227/344/35 235/352/43
f 235/355/43 227/339/35 223/338/31 239/356/47
f 239/356/47 223/338/31 218/309/26 231/359/39
f 265/361/73 217/332/25 221/334/29 268/397/76
f 268/399/76 221/345/29 226/342/34 272/400/80
f 272/400/80 226/342/34 219/341/27 266/403/74
f 229/322/37 277/379/85 281/412/89 232/347/40
f 232/347/40 281/412/89 286/423/94 236/349/44
f 236/354/44 286/422/94 279/421/87 230/351/38
f 278/414/86 267/369/75 275/409/83 283/415/91
f 283/417/91 275/405/83 271/404/79 287/418/95
f 287/418/95 271/404/79 266/403/74 279/421/87
f 241/361/49 265/361/73 269/362/77 244/362/52
f 244/365/52 269/365/77 274/407/82 248/366/56
f 248/366/56 274/407/82 267/369/75 242/369/50
f 277/379/85 253/379/61 257/382/65 280/382/113
f 280/382/113 257/382/65 262/395/70 284/395/92
f 284/394/92 262/394/70 255/393/63 278/414/86
f 254/385/62 243/373/51 251/376/59 259/386/67
f 259/389/67 251/371/59 247/370/55 263/390/71
f 263/390/71 247/370/55 242/369/50 255/393/63
f 193/295/1 241/361/49 245/364/53 196/296/4
f 196/299/4 245/377/53 250/374/58 200/300/8
f 200/300/8 250/374/58 243/373/51 194/303/2
f 253/379/61 206/322/14 212/319/20 256/380/64
f 256/380/64 212/319/20 208/318/16 260/383/68
f 260/388/68 208/315/16 205/314/13 254/385/62
f 313/463/126 289/425/115 293/428/119 316/464/129
f 316/441/129 293/441/119 298/440/121 320/467/131
f 320/467/131 298/440/121 291/439/117 314/470/127
f 290/433/116 301/444/122 305/447/17 295/434/7
f 295/435/7 305/460/17 310/459/22 299/436/11
f 299/436/11 310/459/22 303/458/15 291/439/117
f 302/450/123 325/480/133 329/451/41 307/451/19
f 307/454/19 329/454/41 334/493/46 311/455/23
f 311/455/23 334/493/46 327/458/39 303/458/15
f 326/487/134 315/474/128 323/477/35 331/488/43
f 331/489/43 323/472/35 319/471/31 335/490/47
f 335/490/47 319/471/31 314/470/127 327/458/39
f 361/463/145 313/463/126 317/466/130 364/466/147
f 364/525/147 317/478/130 322/475/132 368/526/148
f 368/526/148 322/475/132 315/474/128 362/474/146
f 325/480/133 373/480/149 377/481/151 328/481/135
f 328/483/135 377/483/151 382/484/153 332/484/136
f 332/484/136 382/484/153 375/487/150 326/487/134
f 374/518/86 363/532/75 371/535/83 379/541/91
f 379/542/91 371/530/83 367/529/79 383/543/95
f 383/543/95 367/529/79 362/474/146 375/487/150
f 337/425/137 361/463/145 365/524/77 340/496/52
f 340/498/52 365/498/77 370/533/82 344/499/56
f 344/499/56 370/533/82 363/532/75 338/502/50
f 373/480/149 349/450/141 353/510/65 376/510/88
f 376/520/88 353/520/65 358/519/70 380/538/92
f 380/538/92 358/519/70 351/518/63 374/518/86
f 350/444/142 339/433/138 347/507/59 355/513/67
f 355/514/67 347/504/59 343/503/55 359/515/71
f 359/515/71 343/503/55 338/502/50 351/518/63
f 289/425/115 337/425/137 341/426/139 292/426/118
f 292/429/118 341/429/139 346/430/140 296/430/120
f 296/430/120 346/430/140 339/433/138 290/433/116
f 349/450/141 302/450/123 308/453/125 352/453/143
f 352/448/143 308/448/125 304/445/124 356/445/144
f 356/445/144 304/445/124 301/444/122 350/444/142
f 409/586/158 385/548/154 389/551/5 412/551/28
f 412/564/28 389/564/5 394/563/10 416/563/32
f 416/563/32 394/563/10 387/562/3 410/562/26
f 386/556/155 397/567/122 401/570/17 391/557/7
f 391/558/7 401/583/17 406/582/22 395/559/11
f 395/559/11 406/582/22 399/581/15 387/562/3
f 398/573/123 421/600/162 425/574/41 403/574/19
f 403/577/19 425/577/41 430/613/46 407/578/23
f 407/578/23 430/613/46 423/581/39 399/581/15
f 422/607/163 411/594/159 419/597/35 427/608/43
f 427/609/43 419/592/35 415/591/31 431/610/47
f 431/610/47 415/591/31 410/562/26 423/581/39
f 457/586/177 409/586/158 413/588/160 460/588/180
f 460/598/180 413/598/160 418/595/161 464/595/182
f 464/595/182 418/595/161 411/594/159 458/594/178
f 421/600/162 469/600/184 473/601/188 424/601/164
f 424/603/164 473/603/188 478/604/190 428/604/165
f 428/604/165 478/604/190 471/607/186 422/607/163
f 470/660/185 459/652/179 467/654/83 475/661/91
f 475/662/91 467/650/83 463/649/79 479/663/95
f 479/663/95 463/649/79 458/594/178 471/607/186
f 433/548/166 457/586/177 461/616/181 436/616/169
f 436/619/169 461/619/181 466/620/183 440/620/171
f 440/620/171 466/620/183 459/652/179 434/623/167
f 469/600/184 445/573/173 449/633/175 472/633/187
f 472/643/187 449/643/175 454/642/176 476/657/189
f 476/657/189 454/642/176 447/641/174 470/660/185
f 446/567/142 435/556/168 443/629/59 451/636/67
f 451/637/67 443/625/59 439/624/55 455/638/71
f 455/638/71 439/624/55 434/623/167 447/641/174
f 385/548/154 433/548/166 437/618/170 388/549/156
f 388/552/156 437/630/170 442/627/172 392/553/157
f 392/553/157 442/627/172 435/556/168 386/556/155
f 445/573/173 398/573/123 404/576/125 448/576/143
f 448/571/143 404/571/125 400/568/124 452/568/144
f 452/568/144 400/568/124 397/567/122 446/567/142
f 25/37/25 73/110/73 49/73/49 1/1/1
f 3/13/3 15/31/15 39/67/39 26/43/26
f 51/85/51 62/99/62 13/19/13 2/7/2
f 85/128/85 37/55/37 14/25/14 61/91/61
f 27/51/27 38/63/38 87/140/87 74/116/74
f 75/124/75 86/136/86 63/105/63 50/79/50
f 121/184/25 169/258/73 145/221/49 97/146/1
f 99/160/3 111/179/15 135/216/39 122/192/26
f 147/233/51 158/247/62 109/165/13 98/154/2
f 181/276/85 133/202/37 110/171/14 157/239/61
f 123/196/27 134/210/38 183/290/87 170/266/74
f 171/270/75 182/284/86 159/253/63 146/229/50
f 217/332/25 265/361/73 241/361/49 193/295/1
f 195/309/3 207/326/15 231/359/39 218/309/26
f 243/373/51 254/385/62 205/314/13 194/303/2
f 277/379/85 229/322/37 206/322/14 253/379/61
f 219/341/27 230/351/38 279/421/87 266/403/74
f 267/369/75 278/414/86 255/393/63 242/369/50
f 313/463/126 361/463/145 337/425/137 289/425/115
f 291/439/117 303/458/15 327/458/39 314/470/127
f 339/433/138 350/444/142 301/444/122 290/433/116
f 373/480/149 325/480/133 302/450/123 349/450/141
f 315/474/128 326/487/134 375/487/150 362/474/146
f 363/532/75 374/518/86 351/518/63 338/502/50
f 409/586/158 457/586/177 433/548/166 385/548/154
f 387/562/3 399/581/15 423/581/39 410/562/26
f 435/556/168 446/567/142 397/567/122 386/556/155
f 469/600/184 421/600/162 398/573/123 445/573/173
f 411/594/159 422/607/163 471/607/186 458/594/178
f 459/652/179 470/660/185 447/641/174 434/623/167
