mtllib SM_BB_GeneratorAnnex_Machinery.mtl
o SM_BB_GeneratorAnnex_Machinery
v -60.0000 -20.0000 0.0000
v 60.0000 -20.0000 0.0000
v 60.0000 220.0000 0.0000
v -60.0000 220.0000 0.0000
v -60.0000 -20.0000 120.0000
v -60.0000 220.0000 120.0000
v 60.0000 220.0000 120.0000
v 60.0000 -20.0000 120.0000
v -60.0000 -20.0000 0.0000
v -60.0000 -20.0000 120.0000
v 60.0000 -20.0000 120.0000
v 60.0000 -20.0000 0.0000
v -60.0000 220.0000 0.0000
v 60.0000 220.0000 0.0000
v 60.0000 220.0000 120.0000
v -60.0000 220.0000 120.0000
v -60.0000 -20.0000 0.0000
v -60.0000 220.0000 0.0000
v -60.0000 220.0000 120.0000
v -60.0000 -20.0000 120.0000
v 60.0000 -20.0000 0.0000
v 60.0000 -20.0000 120.0000
v 60.0000 220.0000 120.0000
v 60.0000 220.0000 0.0000
v 55.0000 -80.0000 0.0000
v 55.0000 -80.0000 120.0000
v 50.8134 -58.9524 0.0000
v 50.8134 -58.9524 120.0000
v 38.8909 -41.1091 0.0000
v 38.8909 -41.1091 120.0000
v 21.0476 -29.1866 0.0000
v 21.0476 -29.1866 120.0000
v 0.0000 -25.0000 0.0000
v 0.0000 -25.0000 120.0000
v -21.0476 -29.1866 0.0000
v -21.0476 -29.1866 120.0000
v -38.8909 -41.1091 0.0000
v -38.8909 -41.1091 120.0000
v -50.8134 -58.9524 0.0000
v -50.8134 -58.9524 120.0000
v -55.0000 -80.0000 0.0000
v -55.0000 -80.0000 120.0000
v -50.8134 -101.0476 0.0000
v -50.8134 -101.0476 120.0000
v -38.8909 -118.8909 0.0000
v -38.8909 -118.8909 120.0000
v -21.0476 -130.8134 0.0000
v -21.0476 -130.8134 120.0000
v -0.0000 -135.0000 0.0000
v -0.0000 -135.0000 120.0000
v 21.0476 -130.8134 0.0000
v 21.0476 -130.8134 120.0000
v 38.8909 -118.8909 0.0000
v 38.8909 -118.8909 120.0000
v 50.8134 -101.0476 0.0000
v 50.8134 -101.0476 120.0000
v 65.0000 -10.0000 50.0000
v 65.0000 -10.0000 70.0000
v 60.0522 14.8744 50.0000
v 60.0522 14.8744 70.0000
v 45.9619 35.9619 50.0000
v 45.9619 35.9619 70.0000
v 24.8744 50.0522 50.0000
v 24.8744 50.0522 70.0000
v 0.0000 55.0000 50.0000
v 0.0000 55.0000 70.0000
v -24.8744 50.0522 50.0000
v -24.8744 50.0522 70.0000
v -45.9619 35.9619 50.0000
v -45.9619 35.9619 70.0000
v -60.0522 14.8744 50.0000
v -60.0522 14.8744 70.0000
v -65.0000 -10.0000 50.0000
v -65.0000 -10.0000 70.0000
v -60.0522 -34.8744 50.0000
v -60.0522 -34.8744 70.0000
v -45.9619 -55.9619 50.0000
v -45.9619 -55.9619 70.0000
v -24.8744 -70.0522 50.0000
v -24.8744 -70.0522 70.0000
v -0.0000 -75.0000 50.0000
v -0.0000 -75.0000 70.0000
v 24.8744 -70.0522 50.0000
v 24.8744 -70.0522 70.0000
v 45.9619 -55.9619 50.0000
v 45.9619 -55.9619 70.0000
v 60.0522 -34.8744 50.0000
v 60.0522 -34.8744 70.0000
v -70.0000 -130.0000 0.0000
v 70.0000 -130.0000 0.0000
v 70.0000 230.0000 0.0000
v -70.0000 230.0000 0.0000
v -70.0000 -130.0000 20.0000
v -70.0000 230.0000 20.0000
v 70.0000 230.0000 20.0000
v 70.0000 -130.0000 20.0000
v -70.0000 -130.0000 0.0000
v -70.0000 -130.0000 20.0000
v 70.0000 -130.0000 20.0000
v 70.0000 -130.0000 0.0000
v -70.0000 230.0000 0.0000
v 70.0000 230.0000 0.0000
v 70.0000 230.0000 20.0000
v -70.0000 230.0000 20.0000
v -70.0000 -130.0000 0.0000
v -70.0000 230.0000 0.0000
v -70.0000 230.0000 20.0000
v -70.0000 -130.0000 20.0000
v 70.0000 -130.0000 0.0000
v 70.0000 -130.0000 20.0000
v 70.0000 230.0000 20.0000
v 70.0000 230.0000 0.0000
v -52.0000 -120.0000 -20.0000
v -52.0000 -120.0000 10.0000
v -54.3431 -114.3431 -20.0000
v -54.3431 -114.3431 10.0000
v -60.0000 -112.0000 -20.0000
v -60.0000 -112.0000 10.0000
v -65.6569 -114.3431 -20.0000
v -65.6569 -114.3431 10.0000
v -68.0000 -120.0000 -20.0000
v -68.0000 -120.0000 10.0000
v -65.6569 -125.6569 -20.0000
v -65.6569 -125.6569 10.0000
v -60.0000 -128.0000 -20.0000
v -60.0000 -128.0000 10.0000
v -54.3431 -125.6569 -20.0000
v -54.3431 -125.6569 10.0000
v -52.0000 120.0000 -20.0000
v -52.0000 120.0000 10.0000
v -54.3431 125.6569 -20.0000
v -54.3431 125.6569 10.0000
v -60.0000 128.0000 -20.0000
v -60.0000 128.0000 10.0000
v -65.6569 125.6569 -20.0000
v -65.6569 125.6569 10.0000
v -68.0000 120.0000 -20.0000
v -68.0000 120.0000 10.0000
v -65.6569 114.3431 -20.0000
v -65.6569 114.3431 10.0000
v -60.0000 112.0000 -20.0000
v -60.0000 112.0000 10.0000
v -54.3431 114.3431 -20.0000
v -54.3431 114.3431 10.0000
v 68.0000 -120.0000 -20.0000
v 68.0000 -120.0000 10.0000
v 65.6569 -114.3431 -20.0000
v 65.6569 -114.3431 10.0000
v 60.0000 -112.0000 -20.0000
v 60.0000 -112.0000 10.0000
v 54.3431 -114.3431 -20.0000
v 54.3431 -114.3431 10.0000
v 52.0000 -120.0000 -20.0000
v 52.0000 -120.0000 10.0000
v 54.3431 -125.6569 -20.0000
v 54.3431 -125.6569 10.0000
v 60.0000 -128.0000 -20.0000
v 60.0000 -128.0000 10.0000
v 65.6569 -125.6569 -20.0000
v 65.6569 -125.6569 10.0000
v 68.0000 120.0000 -20.0000
v 68.0000 120.0000 10.0000
v 65.6569 125.6569 -20.0000
v 65.6569 125.6569 10.0000
v 60.0000 128.0000 -20.0000
v 60.0000 128.0000 10.0000
v 54.3431 125.6569 -20.0000
v 54.3431 125.6569 10.0000
v 52.0000 120.0000 -20.0000
v 52.0000 120.0000 10.0000
v 54.3431 114.3431 -20.0000
v 54.3431 114.3431 10.0000
v 60.0000 112.0000 -20.0000
v 60.0000 112.0000 10.0000
v 65.6569 114.3431 -20.0000
v 65.6569 114.3431 10.0000
v 80.0000 40.0000 60.0000
v 80.0000 40.0000 100.0000
v 77.0711 47.0711 60.0000
v 77.0711 47.0711 100.0000
v 70.0000 50.0000 60.0000
v 70.0000 50.0000 100.0000
v 62.9289 47.0711 60.0000
v 62.9289 47.0711 100.0000
v 60.0000 40.0000 60.0000
v 60.0000 40.0000 100.0000
v 62.9289 32.9289 60.0000
v 62.9289 32.9289 100.0000
v 70.0000 30.0000 60.0000
v 70.0000 30.0000 100.0000
v 77.0711 32.9289 60.0000
v 77.0711 32.9289 100.0000
v 80.0000 80.0000 60.0000
v 80.0000 80.0000 100.0000
v 77.0711 87.0711 60.0000
v 77.0711 87.0711 100.0000
v 70.0000 90.0000 60.0000
v 70.0000 90.0000 100.0000
v 62.9289 87.0711 60.0000
v 62.9289 87.0711 100.0000
v 60.0000 80.0000 60.0000
v 60.0000 80.0000 100.0000
v 62.9289 72.9289 60.0000
v 62.9289 72.9289 100.0000
v 70.0000 70.0000 60.0000
v 70.0000 70.0000 100.0000
v 77.0711 72.9289 60.0000
v 77.0711 72.9289 100.0000
v 80.0000 120.0000 60.0000
v 80.0000 120.0000 100.0000
v 77.0711 127.0711 60.0000
v 77.0711 127.0711 100.0000
v 70.0000 130.0000 60.0000
v 70.0000 130.0000 100.0000
v 62.9289 127.0711 60.0000
v 62.9289 127.0711 100.0000
v 60.0000 120.0000 60.0000
v 60.0000 120.0000 100.0000
v 62.9289 112.9289 60.0000
v 62.9289 112.9289 100.0000
v 70.0000 110.0000 60.0000
v 70.0000 110.0000 100.0000
v 77.0711 112.9289 60.0000
v 77.0711 112.9289 100.0000
v 80.0000 160.0000 60.0000
v 80.0000 160.0000 100.0000
v 77.0711 167.0711 60.0000
v 77.0711 167.0711 100.0000
v 70.0000 170.0000 60.0000
v 70.0000 170.0000 100.0000
v 62.9289 167.0711 60.0000
v 62.9289 167.0711 100.0000
v 60.0000 160.0000 60.0000
v 60.0000 160.0000 100.0000
v 62.9289 152.9289 60.0000
v 62.9289 152.9289 100.0000
v 70.0000 150.0000 60.0000
v 70.0000 150.0000 100.0000
v 77.0711 152.9289 60.0000
v 77.0711 152.9289 100.0000
v 102.0000 100.0000 0.0000
v 102.0000 100.0000 160.0000
v 98.4853 108.4853 0.0000
v 98.4853 108.4853 160.0000
v 90.0000 112.0000 0.0000
v 90.0000 112.0000 160.0000
v 81.5147 108.4853 0.0000
v 81.5147 108.4853 160.0000
v 78.0000 100.0000 0.0000
v 78.0000 100.0000 160.0000
v 81.5147 91.5147 0.0000
v 81.5147 91.5147 160.0000
v 90.0000 88.0000 0.0000
v 90.0000 88.0000 160.0000
v 98.4853 91.5147 0.0000
v 98.4853 91.5147 160.0000
v 102.0000 180.0000 80.0000
v 102.0000 180.0000 320.0000
v 98.4853 188.4853 80.0000
v 98.4853 188.4853 320.0000
v 90.0000 192.0000 80.0000
v 90.0000 192.0000 320.0000
v 81.5147 188.4853 80.0000
v 81.5147 188.4853 320.0000
v 78.0000 180.0000 80.0000
v 78.0000 180.0000 320.0000
v 81.5147 171.5147 80.0000
v 81.5147 171.5147 320.0000
v 90.0000 168.0000 80.0000
v 90.0000 168.0000 320.0000
v 98.4853 171.5147 80.0000
v 98.4853 171.5147 320.0000
v 70.0000 160.0000 290.0000
v 110.0000 160.0000 290.0000
v 110.0000 200.0000 290.0000
v 70.0000 200.0000 290.0000
v 70.0000 160.0000 350.0000
v 70.0000 200.0000 350.0000
v 110.0000 200.0000 350.0000
v 110.0000 160.0000 350.0000
v 70.0000 160.0000 290.0000
v 70.0000 160.0000 350.0000
v 110.0000 160.0000 350.0000
v 110.0000 160.0000 290.0000
v 70.0000 200.0000 290.0000
v 110.0000 200.0000 290.0000
v 110.0000 200.0000 350.0000
v 70.0000 200.0000 350.0000
v 70.0000 160.0000 290.0000
v 70.0000 200.0000 290.0000
v 70.0000 200.0000 350.0000
v 70.0000 160.0000 350.0000
v 110.0000 160.0000 290.0000
v 110.0000 160.0000 350.0000
v 110.0000 200.0000 350.0000
v 110.0000 200.0000 290.0000
v 100.0000 180.0000 350.0000
v 100.0000 180.0000 450.0000
v 97.0711 187.0711 350.0000
v 97.0711 187.0711 450.0000
v 90.0000 190.0000 350.0000
v 90.0000 190.0000 450.0000
v 82.9289 187.0711 350.0000
v 82.9289 187.0711 450.0000
v 80.0000 180.0000 350.0000
v 80.0000 180.0000 450.0000
v 82.9289 172.9289 350.0000
v 82.9289 172.9289 450.0000
v 90.0000 170.0000 350.0000
v 90.0000 170.0000 450.0000
v 97.0711 172.9289 350.0000
v 97.0711 172.9289 450.0000
v -140.0000 180.0000 100.0000
v -60.0000 180.0000 100.0000
v -60.0000 320.0000 100.0000
v -140.0000 320.0000 100.0000
v -140.0000 180.0000 200.0000
v -140.0000 320.0000 200.0000
v -60.0000 320.0000 200.0000
v -60.0000 180.0000 200.0000
v -140.0000 180.0000 100.0000
v -140.0000 180.0000 200.0000
v -60.0000 180.0000 200.0000
v -60.0000 180.0000 100.0000
v -140.0000 320.0000 100.0000
v -60.0000 320.0000 100.0000
v -60.0000 320.0000 200.0000
v -140.0000 320.0000 200.0000
v -140.0000 180.0000 100.0000
v -140.0000 320.0000 100.0000
v -140.0000 320.0000 200.0000
v -140.0000 180.0000 200.0000
v -60.0000 180.0000 100.0000
v -60.0000 180.0000 200.0000
v -60.0000 320.0000 200.0000
v -60.0000 320.0000 100.0000
v -85.0000 250.0000 200.0000
v -85.0000 250.0000 210.0000
v -87.0096 257.5000 200.0000
v -87.0096 257.5000 210.0000
v -92.5000 262.9904 200.0000
v -92.5000 262.9904 210.0000
v -100.0000 265.0000 200.0000
v -100.0000 265.0000 210.0000
v -107.5000 262.9904 200.0000
v -107.5000 262.9904 210.0000
v -112.9904 257.5000 200.0000
v -112.9904 257.5000 210.0000
v -115.0000 250.0000 200.0000
v -115.0000 250.0000 210.0000
v -112.9904 242.5000 200.0000
v -112.9904 242.5000 210.0000
v -107.5000 237.0096 200.0000
v -107.5000 237.0096 210.0000
v -100.0000 235.0000 200.0000
v -100.0000 235.0000 210.0000
v -92.5000 237.0096 200.0000
v -92.5000 237.0096 210.0000
v -87.0096 242.5000 200.0000
v -87.0096 242.5000 210.0000
v -95.0000 250.0000 60.0000
v -95.0000 250.0000 100.0000
v -97.5000 254.3301 60.0000
v -97.5000 254.3301 100.0000
v -102.5000 254.3301 60.0000
v -102.5000 254.3301 100.0000
v -105.0000 250.0000 60.0000
v -105.0000 250.0000 100.0000
v -102.5000 245.6699 60.0000
v -102.5000 245.6699 100.0000
v -97.5000 245.6699 60.0000
v -97.5000 245.6699 100.0000
v 155.0000 -200.0000 60.0000
v 165.0000 -200.0000 60.0000
v 165.0000 0.0000 60.0000
v 155.0000 0.0000 60.0000
v 155.0000 -200.0000 240.0000
v 155.0000 0.0000 240.0000
v 165.0000 0.0000 240.0000
v 165.0000 -200.0000 240.0000
v 155.0000 -200.0000 60.0000
v 155.0000 -200.0000 240.0000
v 165.0000 -200.0000 240.0000
v 165.0000 -200.0000 60.0000
v 155.0000 0.0000 60.0000
v 165.0000 0.0000 60.0000
v 165.0000 0.0000 240.0000
v 155.0000 0.0000 240.0000
v 155.0000 -200.0000 60.0000
v 155.0000 0.0000 60.0000
v 155.0000 0.0000 240.0000
v 155.0000 -200.0000 240.0000
v 165.0000 -200.0000 60.0000
v 165.0000 -200.0000 240.0000
v 165.0000 0.0000 240.0000
v 165.0000 0.0000 60.0000
v 149.0000 -180.0000 90.0000
v 161.0000 -180.0000 90.0000
v 161.0000 -120.0000 90.0000
v 149.0000 -120.0000 90.0000
v 149.0000 -180.0000 210.0000
v 149.0000 -120.0000 210.0000
v 161.0000 -120.0000 210.0000
v 161.0000 -180.0000 210.0000
v 149.0000 -180.0000 90.0000
v 149.0000 -180.0000 210.0000
v 161.0000 -180.0000 210.0000
v 161.0000 -180.0000 90.0000
v 149.0000 -120.0000 90.0000
v 161.0000 -120.0000 90.0000
v 161.0000 -120.0000 210.0000
v 149.0000 -120.0000 210.0000
v 149.0000 -180.0000 90.0000
v 149.0000 -120.0000 90.0000
v 149.0000 -120.0000 210.0000
v 149.0000 -180.0000 210.0000
v 161.0000 -180.0000 90.0000
v 161.0000 -180.0000 210.0000
v 161.0000 -120.0000 210.0000
v 161.0000 -120.0000 90.0000
v 149.0000 -80.0000 90.0000
v 161.0000 -80.0000 90.0000
v 161.0000 -20.0000 90.0000
v 149.0000 -20.0000 90.0000
v 149.0000 -80.0000 210.0000
v 149.0000 -20.0000 210.0000
v 161.0000 -20.0000 210.0000
v 161.0000 -80.0000 210.0000
v 149.0000 -80.0000 90.0000
v 149.0000 -80.0000 210.0000
v 161.0000 -80.0000 210.0000
v 161.0000 -80.0000 90.0000
v 149.0000 -20.0000 90.0000
v 161.0000 -20.0000 90.0000
v 161.0000 -20.0000 210.0000
v 149.0000 -20.0000 210.0000
v 149.0000 -80.0000 90.0000
v 149.0000 -20.0000 90.0000
v 149.0000 -20.0000 210.0000
v 149.0000 -80.0000 210.0000
v 161.0000 -80.0000 90.0000
v 161.0000 -80.0000 210.0000
v 161.0000 -20.0000 210.0000
v 161.0000 -20.0000 90.0000
v 159.0000 -150.0000 200.0000
v 159.0000 -150.0000 300.0000
v 157.0000 -146.5359 200.0000
v 157.0000 -146.5359 300.0000
v 153.0000 -146.5359 200.0000
v 153.0000 -146.5359 300.0000
v 151.0000 -150.0000 200.0000
v 151.0000 -150.0000 300.0000
v 153.0000 -153.4641 200.0000
v 153.0000 -153.4641 300.0000
v 157.0000 -153.4641 200.0000
v 157.0000 -153.4641 300.0000
v 159.0000 -50.0000 200.0000
v 159.0000 -50.0000 300.0000
v 157.0000 -46.5359 200.0000
v 157.0000 -46.5359 300.0000
v 153.0000 -46.5359 200.0000
v 153.0000 -46.5359 300.0000
v 151.0000 -50.0000 200.0000
v 151.0000 -50.0000 300.0000
v 153.0000 -53.4641 200.0000
v 153.0000 -53.4641 300.0000
v 157.0000 -53.4641 200.0000
v 157.0000 -53.4641 300.0000
v -53.0000 100.0000 75.0000
v -53.0000 100.0000 85.0000
v -53.9134 104.5922 75.0000
v -53.9134 104.5922 85.0000
v -56.5147 108.4853 75.0000
v -56.5147 108.4853 85.0000
v -60.4078 111.0866 75.0000
v -60.4078 111.0866 85.0000
v -65.0000 112.0000 75.0000
v -65.0000 112.0000 85.0000
v -69.5922 111.0866 75.0000
v -69.5922 111.0866 85.0000
v -73.4853 108.4853 75.0000
v -73.4853 108.4853 85.0000
v -76.0866 104.5922 75.0000
v -76.0866 104.5922 85.0000
v -77.0000 100.0000 75.0000
v -77.0000 100.0000 85.0000
v -76.0866 95.4078 75.0000
v -76.0866 95.4078 85.0000
v -73.4853 91.5147 75.0000
v -73.4853 91.5147 85.0000
v -69.5922 88.9134 75.0000
v -69.5922 88.9134 85.0000
v -65.0000 88.0000 75.0000
v -65.0000 88.0000 85.0000
v -60.4078 88.9134 75.0000
v -60.4078 88.9134 85.0000
v -56.5147 91.5147 75.0000
v -56.5147 91.5147 85.0000
v -53.9134 95.4078 75.0000
v -53.9134 95.4078 85.0000
v -53.0000 150.0000 75.0000
v -53.0000 150.0000 85.0000
v -53.9134 154.5922 75.0000
v -53.9134 154.5922 85.0000
v -56.5147 158.4853 75.0000
v -56.5147 158.4853 85.0000
v -60.4078 161.0866 75.0000
v -60.4078 161.0866 85.0000
v -65.0000 162.0000 75.0000
v -65.0000 162.0000 85.0000
v -69.5922 161.0866 75.0000
v -69.5922 161.0866 85.0000
v -73.4853 158.4853 75.0000
v -73.4853 158.4853 85.0000
v -76.0866 154.5922 75.0000
v -76.0866 154.5922 85.0000
v -77.0000 150.0000 75.0000
v -77.0000 150.0000 85.0000
v -76.0866 145.4078 75.0000
v -76.0866 145.4078 85.0000
v -73.4853 141.5147 75.0000
v -73.4853 141.5147 85.0000
v -69.5922 138.9134 75.0000
v -69.5922 138.9134 85.0000
v -65.0000 138.0000 75.0000
v -65.0000 138.0000 85.0000
v -60.4078 138.9134 75.0000
v -60.4078 138.9134 85.0000
v -56.5147 141.5147 75.0000
v -56.5147 141.5147 85.0000
v -53.9134 145.4078 75.0000
v -53.9134 145.4078 85.0000
v -50.0000 220.0000 10.0000
v 50.0000 220.0000 10.0000
v 50.0000 240.0000 10.0000
v -50.0000 240.0000 10.0000
v -50.0000 220.0000 110.0000
v -50.0000 240.0000 110.0000
v 50.0000 240.0000 110.0000
v 50.0000 220.0000 110.0000
v -50.0000 220.0000 10.0000
v -50.0000 220.0000 110.0000
v 50.0000 220.0000 110.0000
v 50.0000 220.0000 10.0000
v -50.0000 240.0000 10.0000
v 50.0000 240.0000 10.0000
v 50.0000 240.0000 110.0000
v -50.0000 240.0000 110.0000
v -50.0000 220.0000 10.0000
v -50.0000 240.0000 10.0000
v -50.0000 240.0000 110.0000
v -50.0000 220.0000 110.0000
v 50.0000 220.0000 10.0000
v 50.0000 220.0000 110.0000
v 50.0000 240.0000 110.0000
v 50.0000 240.0000 10.0000
v 40.0000 215.0000 55.0000
v 40.0000 215.0000 65.0000
v 36.9552 230.3073 55.0000
v 36.9552 230.3073 65.0000
v 28.2843 243.2843 55.0000
v 28.2843 243.2843 65.0000
v 15.3073 251.9552 55.0000
v 15.3073 251.9552 65.0000
v 0.0000 255.0000 55.0000
v 0.0000 255.0000 65.0000
v -15.3073 251.9552 55.0000
v -15.3073 251.9552 65.0000
v -28.2843 243.2843 55.0000
v -28.2843 243.2843 65.0000
v -36.9552 230.3073 55.0000
v -36.9552 230.3073 65.0000
v -40.0000 215.0000 55.0000
v -40.0000 215.0000 65.0000
v -36.9552 199.6927 55.0000
v -36.9552 199.6927 65.0000
v -28.2843 186.7157 55.0000
v -28.2843 186.7157 65.0000
v -15.3073 178.0448 55.0000
v -15.3073 178.0448 65.0000
v -0.0000 175.0000 55.0000
v -0.0000 175.0000 65.0000
v 15.3073 178.0448 55.0000
v 15.3073 178.0448 65.0000
v 28.2843 186.7157 55.0000
v 28.2843 186.7157 65.0000
v 36.9552 199.6927 55.0000
v 36.9552 199.6927 65.0000
vt -0.300000 -0.600000
vt 0.300000 -0.600000
vt 0.300000 0.600000
vt -0.300000 0.600000
vt -0.300000 -0.600000
vt -0.300000 0.600000
vt 0.300000 0.600000
vt 0.300000 -0.600000
vt -0.600000 -0.300000
vt -0.600000 0.300000
vt -0.600000 0.300000
vt -0.600000 -0.300000
vt -0.300000 0.600000
vt 0.300000 0.600000
vt 0.300000 0.600000
vt -0.300000 0.600000
vt -0.300000 -0.600000
vt -0.300000 0.600000
vt -0.300000 0.600000
vt -0.300000 -0.600000
vt -0.600000 -0.300000
vt -0.600000 0.300000
vt 0.600000 0.300000
vt 0.600000 -0.300000
vt 0.055000 0.000000
vt 0.055000 0.120000
vt 0.050813 0.000000
vt 0.050813 0.120000
vt 0.038891 0.000000
vt 0.038891 0.120000
vt 0.021048 0.000000
vt 0.021048 0.120000
vt 0.000000 0.000000
vt 0.000000 0.120000
vt -0.021048 0.000000
vt -0.021048 0.120000
vt -0.038891 0.000000
vt -0.038891 0.120000
vt -0.050813 0.000000
vt -0.050813 0.120000
vt -0.055000 0.000000
vt -0.055000 0.120000
vt -0.050813 0.000000
vt -0.050813 0.120000
vt -0.038891 0.000000
vt -0.038891 0.120000
vt -0.021048 0.000000
vt -0.021048 0.120000
vt -0.000000 0.000000
vt -0.000000 0.120000
vt 0.021048 0.000000
vt 0.021048 0.120000
vt 0.038891 0.000000
vt 0.038891 0.120000
vt 0.050813 0.000000
vt 0.050813 0.120000
vt 0.065000 0.050000
vt 0.065000 0.070000
vt 0.060052 0.050000
vt 0.060052 0.070000
vt 0.045962 0.050000
vt 0.045962 0.070000
vt 0.024874 0.050000
vt 0.024874 0.070000
vt 0.000000 0.050000
vt 0.000000 0.070000
vt -0.024874 0.050000
vt -0.024874 0.070000
vt -0.045962 0.050000
vt -0.045962 0.070000
vt -0.060052 0.050000
vt -0.060052 0.070000
vt -0.065000 0.050000
vt -0.065000 0.070000
vt -0.060052 0.050000
vt -0.060052 0.070000
vt -0.045962 0.050000
vt -0.045962 0.070000
vt -0.024874 0.050000
vt -0.024874 0.070000
vt -0.000000 0.050000
vt -0.000000 0.070000
vt 0.024874 0.050000
vt 0.024874 0.070000
vt 0.045962 0.050000
vt 0.045962 0.070000
vt 0.060052 0.050000
vt 0.060052 0.070000
vt -0.350000 -0.900000
vt 0.350000 -0.900000
vt 0.350000 0.900000
vt -0.350000 0.900000
vt -0.350000 -0.900000
vt -0.350000 0.900000
vt 0.350000 0.900000
vt 0.350000 -0.900000
vt -0.900000 -0.050000
vt -0.900000 0.050000
vt -0.900000 0.050000
vt -0.900000 -0.050000
vt -0.350000 0.900000
vt 0.350000 0.900000
vt 0.350000 0.900000
vt -0.350000 0.900000
vt -0.350000 -0.900000
vt -0.350000 0.900000
vt -0.350000 0.900000
vt -0.350000 -0.900000
vt -0.900000 -0.050000
vt -0.900000 0.050000
vt 0.900000 0.050000
vt 0.900000 -0.050000
vt -0.052000 -0.020000
vt -0.052000 0.010000
vt -0.054343 -0.020000
vt -0.054343 0.010000
vt -0.060000 -0.020000
vt -0.060000 0.010000
vt -0.065657 -0.020000
vt -0.065657 0.010000
vt -0.068000 -0.020000
vt -0.068000 0.010000
vt -0.065657 -0.020000
vt -0.065657 0.010000
vt -0.060000 -0.020000
vt -0.060000 0.010000
vt -0.054343 -0.020000
vt -0.054343 0.010000
vt -0.052000 -0.020000
vt -0.052000 0.010000
vt -0.054343 -0.020000
vt -0.054343 0.010000
vt -0.060000 -0.020000
vt -0.060000 0.010000
vt -0.065657 -0.020000
vt -0.065657 0.010000
vt -0.068000 -0.020000
vt -0.068000 0.010000
vt -0.065657 -0.020000
vt -0.065657 0.010000
vt -0.060000 -0.020000
vt -0.060000 0.010000
vt -0.054343 -0.020000
vt -0.054343 0.010000
vt 0.068000 -0.020000
vt 0.068000 0.010000
vt 0.065657 -0.020000
vt 0.065657 0.010000
vt 0.060000 -0.020000
vt 0.060000 0.010000
vt 0.054343 -0.020000
vt 0.054343 0.010000
vt 0.052000 -0.020000
vt 0.052000 0.010000
vt 0.054343 -0.020000
vt 0.054343 0.010000
vt 0.060000 -0.020000
vt 0.060000 0.010000
vt 0.065657 -0.020000
vt 0.065657 0.010000
vt 0.068000 -0.020000
vt 0.068000 0.010000
vt 0.065657 -0.020000
vt 0.065657 0.010000
vt 0.060000 -0.020000
vt 0.060000 0.010000
vt 0.054343 -0.020000
vt 0.054343 0.010000
vt 0.052000 -0.020000
vt 0.052000 0.010000
vt 0.054343 -0.020000
vt 0.054343 0.010000
vt 0.060000 -0.020000
vt 0.060000 0.010000
vt 0.065657 -0.020000
vt 0.065657 0.010000
vt 0.080000 0.060000
vt 0.080000 0.100000
vt 0.077071 0.060000
vt 0.077071 0.100000
vt 0.070000 0.060000
vt 0.070000 0.100000
vt 0.062929 0.060000
vt 0.062929 0.100000
vt 0.060000 0.060000
vt 0.060000 0.100000
vt 0.062929 0.060000
vt 0.062929 0.100000
vt 0.070000 0.060000
vt 0.070000 0.100000
vt 0.077071 0.060000
vt 0.077071 0.100000
vt 0.080000 0.060000
vt 0.080000 0.100000
vt 0.077071 0.060000
vt 0.077071 0.100000
vt 0.070000 0.060000
vt 0.070000 0.100000
vt 0.062929 0.060000
vt 0.062929 0.100000
vt 0.060000 0.060000
vt 0.060000 0.100000
vt 0.062929 0.060000
vt 0.062929 0.100000
vt 0.070000 0.060000
vt 0.070000 0.100000
vt 0.077071 0.060000
vt 0.077071 0.100000
vt 0.080000 0.060000
vt 0.080000 0.100000
vt 0.077071 0.060000
vt 0.077071 0.100000
vt 0.070000 0.060000
vt 0.070000 0.100000
vt 0.062929 0.060000
vt 0.062929 0.100000
vt 0.060000 0.060000
vt 0.060000 0.100000
vt 0.062929 0.060000
vt 0.062929 0.100000
vt 0.070000 0.060000
vt 0.070000 0.100000
vt 0.077071 0.060000
vt 0.077071 0.100000
vt 0.080000 0.060000
vt 0.080000 0.100000
vt 0.077071 0.060000
vt 0.077071 0.100000
vt 0.070000 0.060000
vt 0.070000 0.100000
vt 0.062929 0.060000
vt 0.062929 0.100000
vt 0.060000 0.060000
vt 0.060000 0.100000
vt 0.062929 0.060000
vt 0.062929 0.100000
vt 0.070000 0.060000
vt 0.070000 0.100000
vt 0.077071 0.060000
vt 0.077071 0.100000
vt 0.102000 0.000000
vt 0.102000 0.160000
vt 0.098485 0.000000
vt 0.098485 0.160000
vt 0.090000 0.000000
vt 0.090000 0.160000
vt 0.081515 0.000000
vt 0.081515 0.160000
vt 0.078000 0.000000
vt 0.078000 0.160000
vt 0.081515 0.000000
vt 0.081515 0.160000
vt 0.090000 0.000000
vt 0.090000 0.160000
vt 0.098485 0.000000
vt 0.098485 0.160000
vt 0.102000 0.080000
vt 0.102000 0.320000
vt 0.098485 0.080000
vt 0.098485 0.320000
vt 0.090000 0.080000
vt 0.090000 0.320000
vt 0.081515 0.080000
vt 0.081515 0.320000
vt 0.078000 0.080000
vt 0.078000 0.320000
vt 0.081515 0.080000
vt 0.081515 0.320000
vt 0.090000 0.080000
vt 0.090000 0.320000
vt 0.098485 0.080000
vt 0.098485 0.320000
vt -0.100000 -0.100000
vt 0.100000 -0.100000
vt 0.100000 0.100000
vt -0.100000 0.100000
vt -0.100000 -0.100000
vt -0.100000 0.100000
vt 0.100000 0.100000
vt 0.100000 -0.100000
vt -0.100000 -0.150000
vt -0.100000 0.150000
vt -0.100000 0.150000
vt -0.100000 -0.150000
vt -0.100000 0.100000
vt 0.100000 0.100000
vt 0.100000 0.100000
vt -0.100000 0.100000
vt -0.100000 -0.100000
vt -0.100000 0.100000
vt -0.100000 0.100000
vt -0.100000 -0.100000
vt -0.100000 -0.150000
vt -0.100000 0.150000
vt 0.100000 0.150000
vt 0.100000 -0.150000
vt 0.100000 0.350000
vt 0.100000 0.450000
vt 0.097071 0.350000
vt 0.097071 0.450000
vt 0.090000 0.350000
vt 0.090000 0.450000
vt 0.082929 0.350000
vt 0.082929 0.450000
vt 0.080000 0.350000
vt 0.080000 0.450000
vt 0.082929 0.350000
vt 0.082929 0.450000
vt 0.090000 0.350000
vt 0.090000 0.450000
vt 0.097071 0.350000
vt 0.097071 0.450000
vt -0.200000 -0.350000
vt 0.200000 -0.350000
vt 0.200000 0.350000
vt -0.200000 0.350000
vt -0.200000 -0.350000
vt -0.200000 0.350000
vt 0.200000 0.350000
vt 0.200000 -0.350000
vt -0.350000 -0.250000
vt -0.350000 0.250000
vt -0.350000 0.250000
vt -0.350000 -0.250000
vt -0.200000 0.350000
vt 0.200000 0.350000
vt 0.200000 0.350000
vt -0.200000 0.350000
vt -0.200000 -0.350000
vt -0.200000 0.350000
vt -0.200000 0.350000
vt -0.200000 -0.350000
vt -0.350000 -0.250000
vt -0.350000 0.250000
vt 0.350000 0.250000
vt 0.350000 -0.250000
vt -0.085000 0.200000
vt -0.085000 0.210000
vt -0.087010 0.200000
vt -0.087010 0.210000
vt -0.092500 0.200000
vt -0.092500 0.210000
vt -0.100000 0.200000
vt -0.100000 0.210000
vt -0.107500 0.200000
vt -0.107500 0.210000
vt -0.112990 0.200000
vt -0.112990 0.210000
vt -0.115000 0.200000
vt -0.115000 0.210000
vt -0.112990 0.200000
vt -0.112990 0.210000
vt -0.107500 0.200000
vt -0.107500 0.210000
vt -0.100000 0.200000
vt -0.100000 0.210000
vt -0.092500 0.200000
vt -0.092500 0.210000
vt -0.087010 0.200000
vt -0.087010 0.210000
vt -0.095000 0.060000
vt -0.095000 0.100000
vt -0.097500 0.060000
vt -0.097500 0.100000
vt -0.102500 0.060000
vt -0.102500 0.100000
vt -0.105000 0.060000
vt -0.105000 0.100000
vt -0.102500 0.060000
vt -0.102500 0.100000
vt -0.097500 0.060000
vt -0.097500 0.100000
vt -0.025000 -0.500000
vt 0.025000 -0.500000
vt 0.025000 0.500000
vt -0.025000 0.500000
vt -0.025000 -0.500000
vt -0.025000 0.500000
vt 0.025000 0.500000
vt 0.025000 -0.500000
vt -0.500000 -0.450000
vt -0.500000 0.450000
vt -0.500000 0.450000
vt -0.500000 -0.450000
vt -0.025000 0.500000
vt 0.025000 0.500000
vt 0.025000 0.500000
vt -0.025000 0.500000
vt -0.025000 -0.500000
vt -0.025000 0.500000
vt -0.025000 0.500000
vt -0.025000 -0.500000
vt -0.500000 -0.450000
vt -0.500000 0.450000
vt 0.500000 0.450000
vt 0.500000 -0.450000
vt -0.030000 -0.150000
vt 0.030000 -0.150000
vt 0.030000 0.150000
vt -0.030000 0.150000
vt -0.030000 -0.150000
vt -0.030000 0.150000
vt 0.030000 0.150000
vt 0.030000 -0.150000
vt -0.150000 -0.300000
vt -0.150000 0.300000
vt -0.150000 0.300000
vt -0.150000 -0.300000
vt -0.030000 0.150000
vt 0.030000 0.150000
vt 0.030000 0.150000
vt -0.030000 0.150000
vt -0.030000 -0.150000
vt -0.030000 0.150000
vt -0.030000 0.150000
vt -0.030000 -0.150000
vt -0.150000 -0.300000
vt -0.150000 0.300000
vt 0.150000 0.300000
vt 0.150000 -0.300000
vt -0.030000 -0.150000
vt 0.030000 -0.150000
vt 0.030000 0.150000
vt -0.030000 0.150000
vt -0.030000 -0.150000
vt -0.030000 0.150000
vt 0.030000 0.150000
vt 0.030000 -0.150000
vt -0.150000 -0.300000
vt -0.150000 0.300000
vt -0.150000 0.300000
vt -0.150000 -0.300000
vt -0.030000 0.150000
vt 0.030000 0.150000
vt 0.030000 0.150000
vt -0.030000 0.150000
vt -0.030000 -0.150000
vt -0.030000 0.150000
vt -0.030000 0.150000
vt -0.030000 -0.150000
vt -0.150000 -0.300000
vt -0.150000 0.300000
vt 0.150000 0.300000
vt 0.150000 -0.300000
vt 0.159000 0.200000
vt 0.159000 0.300000
vt 0.157000 0.200000
vt 0.157000 0.300000
vt 0.153000 0.200000
vt 0.153000 0.300000
vt 0.151000 0.200000
vt 0.151000 0.300000
vt 0.153000 0.200000
vt 0.153000 0.300000
vt 0.157000 0.200000
vt 0.157000 0.300000
vt 0.159000 0.200000
vt 0.159000 0.300000
vt 0.157000 0.200000
vt 0.157000 0.300000
vt 0.153000 0.200000
vt 0.153000 0.300000
vt 0.151000 0.200000
vt 0.151000 0.300000
vt 0.153000 0.200000
vt 0.153000 0.300000
vt 0.157000 0.200000
vt 0.157000 0.300000
vt -0.053000 0.075000
vt -0.053000 0.085000
vt -0.053913 0.075000
vt -0.053913 0.085000
vt -0.056515 0.075000
vt -0.056515 0.085000
vt -0.060408 0.075000
vt -0.060408 0.085000
vt -0.065000 0.075000
vt -0.065000 0.085000
vt -0.069592 0.075000
vt -0.069592 0.085000
vt -0.073485 0.075000
vt -0.073485 0.085000
vt -0.076087 0.075000
vt -0.076087 0.085000
vt -0.077000 0.075000
vt -0.077000 0.085000
vt -0.076087 0.075000
vt -0.076087 0.085000
vt -0.073485 0.075000
vt -0.073485 0.085000
vt -0.069592 0.075000
vt -0.069592 0.085000
vt -0.065000 0.075000
vt -0.065000 0.085000
vt -0.060408 0.075000
vt -0.060408 0.085000
vt -0.056515 0.075000
vt -0.056515 0.085000
vt -0.053913 0.075000
vt -0.053913 0.085000
vt -0.053000 0.075000
vt -0.053000 0.085000
vt -0.053913 0.075000
vt -0.053913 0.085000
vt -0.056515 0.075000
vt -0.056515 0.085000
vt -0.060408 0.075000
vt -0.060408 0.085000
vt -0.065000 0.075000
vt -0.065000 0.085000
vt -0.069592 0.075000
vt -0.069592 0.085000
vt -0.073485 0.075000
vt -0.073485 0.085000
vt -0.076087 0.075000
vt -0.076087 0.085000
vt -0.077000 0.075000
vt -0.077000 0.085000
vt -0.076087 0.075000
vt -0.076087 0.085000
vt -0.073485 0.075000
vt -0.073485 0.085000
vt -0.069592 0.075000
vt -0.069592 0.085000
vt -0.065000 0.075000
vt -0.065000 0.085000
vt -0.060408 0.075000
vt -0.060408 0.085000
vt -0.056515 0.075000
vt -0.056515 0.085000
vt -0.053913 0.075000
vt -0.053913 0.085000
vt -0.250000 -0.050000
vt 0.250000 -0.050000
vt 0.250000 0.050000
vt -0.250000 0.050000
vt -0.250000 -0.050000
vt -0.250000 0.050000
vt 0.250000 0.050000
vt 0.250000 -0.050000
vt -0.050000 -0.250000
vt -0.050000 0.250000
vt -0.050000 0.250000
vt -0.050000 -0.250000
vt -0.250000 0.050000
vt 0.250000 0.050000
vt 0.250000 0.050000
vt -0.250000 0.050000
vt -0.250000 -0.050000
vt -0.250000 0.050000
vt -0.250000 0.050000
vt -0.250000 -0.050000
vt -0.050000 -0.250000
vt -0.050000 0.250000
vt 0.050000 0.250000
vt 0.050000 -0.250000
vt 0.040000 0.055000
vt 0.040000 0.065000
vt 0.036955 0.055000
vt 0.036955 0.065000
vt 0.028284 0.055000
vt 0.028284 0.065000
vt 0.015307 0.055000
vt 0.015307 0.065000
vt 0.000000 0.055000
vt 0.000000 0.065000
vt -0.015307 0.055000
vt -0.015307 0.065000
vt -0.028284 0.055000
vt -0.028284 0.065000
vt -0.036955 0.055000
vt -0.036955 0.065000
vt -0.040000 0.055000
vt -0.040000 0.065000
vt -0.036955 0.055000
vt -0.036955 0.065000
vt -0.028284 0.055000
vt -0.028284 0.065000
vt -0.015307 0.055000
vt -0.015307 0.065000
vt -0.000000 0.055000
vt -0.000000 0.065000
vt 0.015307 0.055000
vt 0.015307 0.065000
vt 0.028284 0.055000
vt 0.028284 0.065000
vt 0.036955 0.055000
vt 0.036955 0.065000
usemtl DarkIron
f 1/1 2/2 3/3
f 1/1 3/3 4/4
f 5/5 6/6 7/7
f 5/5 7/7 8/8
f 9/9 10/10 11/11
f 9/9 11/11 12/12
f 13/13 14/14 15/15
f 13/13 15/15 16/16
f 17/17 18/18 19/19
f 17/17 19/19 20/20
f 21/21 22/22 23/23
f 21/21 23/23 24/24
f 25/25 27/27 28/28
f 25/25 28/28 26/26
f 27/27 29/29 30/30
f 27/27 30/30 28/28
f 29/29 31/31 32/32
f 29/29 32/32 30/30
f 31/31 33/33 34/34
f 31/31 34/34 32/32
f 33/33 35/35 36/36
f 33/33 36/36 34/34
f 35/35 37/37 38/38
f 35/35 38/38 36/36
f 37/37 39/39 40/40
f 37/37 40/40 38/38
f 39/39 41/41 42/42
f 39/39 42/42 40/40
f 41/41 43/43 44/44
f 41/41 44/44 42/42
f 43/43 45/45 46/46
f 43/43 46/46 44/44
f 45/45 47/47 48/48
f 45/45 48/48 46/46
f 47/47 49/49 50/50
f 47/47 50/50 48/48
f 49/49 51/51 52/52
f 49/49 52/52 50/50
f 51/51 53/53 54/54
f 51/51 54/54 52/52
f 53/53 55/55 56/56
f 53/53 56/56 54/54
f 55/55 25/25 26/26
f 55/55 26/26 56/56
f 55/55 53/53 51/51 49/49 47/47 45/45 43/43 41/41 39/39 37/37 35/35 33/33 31/31 29/29 27/27 25/25
f 26/26 28/28 30/30 32/32 34/34 36/36 38/38 40/40 42/42 44/44 46/46 48/48 50/50 52/52 54/54 56/56
f 57/57 59/59 60/60
f 57/57 60/60 58/58
f 59/59 61/61 62/62
f 59/59 62/62 60/60
f 61/61 63/63 64/64
f 61/61 64/64 62/62
f 63/63 65/65 66/66
f 63/63 66/66 64/64
f 65/65 67/67 68/68
f 65/65 68/68 66/66
f 67/67 69/69 70/70
f 67/67 70/70 68/68
f 69/69 71/71 72/72
f 69/69 72/72 70/70
f 71/71 73/73 74/74
f 71/71 74/74 72/72
f 73/73 75/75 76/76
f 73/73 76/76 74/74
f 75/75 77/77 78/78
f 75/75 78/78 76/76
f 77/77 79/79 80/80
f 77/77 80/80 78/78
f 79/79 81/81 82/82
f 79/79 82/82 80/80
f 81/81 83/83 84/84
f 81/81 84/84 82/82
f 83/83 85/85 86/86
f 83/83 86/86 84/84
f 85/85 87/87 88/88
f 85/85 88/88 86/86
f 87/87 57/57 58/58
f 87/87 58/58 88/88
f 87/87 85/85 83/83 81/81 79/79 77/77 75/75 73/73 71/71 69/69 67/67 65/65 63/63 61/61 59/59 57/57
f 58/58 60/60 62/62 64/64 66/66 68/68 70/70 72/72 74/74 76/76 78/78 80/80 82/82 84/84 86/86 88/88
f 89/89 90/90 91/91
f 89/89 91/91 92/92
f 93/93 94/94 95/95
f 93/93 95/95 96/96
f 97/97 98/98 99/99
f 97/97 99/99 100/100
f 101/101 102/102 103/103
f 101/101 103/103 104/104
f 105/105 106/106 107/107
f 105/105 107/107 108/108
f 109/109 110/110 111/111
f 109/109 111/111 112/112
f 113/113 115/115 116/116
f 113/113 116/116 114/114
f 115/115 117/117 118/118
f 115/115 118/118 116/116
f 117/117 119/119 120/120
f 117/117 120/120 118/118
f 119/119 121/121 122/122
f 119/119 122/122 120/120
f 121/121 123/123 124/124
f 121/121 124/124 122/122
f 123/123 125/125 126/126
f 123/123 126/126 124/124
f 125/125 127/127 128/128
f 125/125 128/128 126/126
f 127/127 113/113 114/114
f 127/127 114/114 128/128
f 127/127 125/125 123/123 121/121 119/119 117/117 115/115 113/113
f 114/114 116/116 118/118 120/120 122/122 124/124 126/126 128/128
f 129/129 131/131 132/132
f 129/129 132/132 130/130
f 131/131 133/133 134/134
f 131/131 134/134 132/132
f 133/133 135/135 136/136
f 133/133 136/136 134/134
f 135/135 137/137 138/138
f 135/135 138/138 136/136
f 137/137 139/139 140/140
f 137/137 140/140 138/138
f 139/139 141/141 142/142
f 139/139 142/142 140/140
f 141/141 143/143 144/144
f 141/141 144/144 142/142
f 143/143 129/129 130/130
f 143/143 130/130 144/144
f 143/143 141/141 139/139 137/137 135/135 133/133 131/131 129/129
f 130/130 132/132 134/134 136/136 138/138 140/140 142/142 144/144
f 145/145 147/147 148/148
f 145/145 148/148 146/146
f 147/147 149/149 150/150
f 147/147 150/150 148/148
f 149/149 151/151 152/152
f 149/149 152/152 150/150
f 151/151 153/153 154/154
f 151/151 154/154 152/152
f 153/153 155/155 156/156
f 153/153 156/156 154/154
f 155/155 157/157 158/158
f 155/155 158/158 156/156
f 157/157 159/159 160/160
f 157/157 160/160 158/158
f 159/159 145/145 146/146
f 159/159 146/146 160/160
f 159/159 157/157 155/155 153/153 151/151 149/149 147/147 145/145
f 146/146 148/148 150/150 152/152 154/154 156/156 158/158 160/160
f 161/161 163/163 164/164
f 161/161 164/164 162/162
f 163/163 165/165 166/166
f 163/163 166/166 164/164
f 165/165 167/167 168/168
f 165/165 168/168 166/166
f 167/167 169/169 170/170
f 167/167 170/170 168/168
f 169/169 171/171 172/172
f 169/169 172/172 170/170
f 171/171 173/173 174/174
f 171/171 174/174 172/172
f 173/173 175/175 176/176
f 173/173 176/176 174/174
f 175/175 161/161 162/162
f 175/175 162/162 176/176
f 175/175 173/173 171/171 169/169 167/167 165/165 163/163 161/161
f 162/162 164/164 166/166 168/168 170/170 172/172 174/174 176/176
usemtl WarmBrass
f 177/177 179/179 180/180
f 177/177 180/180 178/178
f 179/179 181/181 182/182
f 179/179 182/182 180/180
f 181/181 183/183 184/184
f 181/181 184/184 182/182
f 183/183 185/185 186/186
f 183/183 186/186 184/184
f 185/185 187/187 188/188
f 185/185 188/188 186/186
f 187/187 189/189 190/190
f 187/187 190/190 188/188
f 189/189 191/191 192/192
f 189/189 192/192 190/190
f 191/191 177/177 178/178
f 191/191 178/178 192/192
f 191/191 189/189 187/187 185/185 183/183 181/181 179/179 177/177
f 178/178 180/180 182/182 184/184 186/186 188/188 190/190 192/192
f 193/193 195/195 196/196
f 193/193 196/196 194/194
f 195/195 197/197 198/198
f 195/195 198/198 196/196
f 197/197 199/199 200/200
f 197/197 200/200 198/198
f 199/199 201/201 202/202
f 199/199 202/202 200/200
f 201/201 203/203 204/204
f 201/201 204/204 202/202
f 203/203 205/205 206/206
f 203/203 206/206 204/204
f 205/205 207/207 208/208
f 205/205 208/208 206/206
f 207/207 193/193 194/194
f 207/207 194/194 208/208
f 207/207 205/205 203/203 201/201 199/199 197/197 195/195 193/193
f 194/194 196/196 198/198 200/200 202/202 204/204 206/206 208/208
f 209/209 211/211 212/212
f 209/209 212/212 210/210
f 211/211 213/213 214/214
f 211/211 214/214 212/212
f 213/213 215/215 216/216
f 213/213 216/216 214/214
f 215/215 217/217 218/218
f 215/215 218/218 216/216
f 217/217 219/219 220/220
f 217/217 220/220 218/218
f 219/219 221/221 222/222
f 219/219 222/222 220/220
f 221/221 223/223 224/224
f 221/221 224/224 222/222
f 223/223 209/209 210/210
f 223/223 210/210 224/224
f 223/223 221/221 219/219 217/217 215/215 213/213 211/211 209/209
f 210/210 212/212 214/214 216/216 218/218 220/220 222/222 224/224
f 225/225 227/227 228/228
f 225/225 228/228 226/226
f 227/227 229/229 230/230
f 227/227 230/230 228/228
f 229/229 231/231 232/232
f 229/229 232/232 230/230
f 231/231 233/233 234/234
f 231/231 234/234 232/232
f 233/233 235/235 236/236
f 233/233 236/236 234/234
f 235/235 237/237 238/238
f 235/235 238/238 236/236
f 237/237 239/239 240/240
f 237/237 240/240 238/238
f 239/239 225/225 226/226
f 239/239 226/226 240/240
f 239/239 237/237 235/235 233/233 231/231 229/229 227/227 225/225
f 226/226 228/228 230/230 232/232 234/234 236/236 238/238 240/240
usemtl DarkIron
f 241/241 243/243 244/244
f 241/241 244/244 242/242
f 243/243 245/245 246/246
f 243/243 246/246 244/244
f 245/245 247/247 248/248
f 245/245 248/248 246/246
f 247/247 249/249 250/250
f 247/247 250/250 248/248
f 249/249 251/251 252/252
f 249/249 252/252 250/250
f 251/251 253/253 254/254
f 251/251 254/254 252/252
f 253/253 255/255 256/256
f 253/253 256/256 254/254
f 255/255 241/241 242/242
f 255/255 242/242 256/256
f 255/255 253/253 251/251 249/249 247/247 245/245 243/243 241/241
f 242/242 244/244 246/246 248/248 250/250 252/252 254/254 256/256
f 257/257 259/259 260/260
f 257/257 260/260 258/258
f 259/259 261/261 262/262
f 259/259 262/262 260/260
f 261/261 263/263 264/264
f 261/261 264/264 262/262
f 263/263 265/265 266/266
f 263/263 266/266 264/264
f 265/265 267/267 268/268
f 265/265 268/268 266/266
f 267/267 269/269 270/270
f 267/267 270/270 268/268
f 269/269 271/271 272/272
f 269/269 272/272 270/270
f 271/271 257/257 258/258
f 271/271 258/258 272/272
f 271/271 269/269 267/267 265/265 263/263 261/261 259/259 257/257
f 258/258 260/260 262/262 264/264 266/266 268/268 270/270 272/272
f 273/273 274/274 275/275
f 273/273 275/275 276/276
f 277/277 278/278 279/279
f 277/277 279/279 280/280
f 281/281 282/282 283/283
f 281/281 283/283 284/284
f 285/285 286/286 287/287
f 285/285 287/287 288/288
f 289/289 290/290 291/291
f 289/289 291/291 292/292
f 293/293 294/294 295/295
f 293/293 295/295 296/296
f 297/297 299/299 300/300
f 297/297 300/300 298/298
f 299/299 301/301 302/302
f 299/299 302/302 300/300
f 301/301 303/303 304/304
f 301/301 304/304 302/302
f 303/303 305/305 306/306
f 303/303 306/306 304/304
f 305/305 307/307 308/308
f 305/305 308/308 306/306
f 307/307 309/309 310/310
f 307/307 310/310 308/308
f 309/309 311/311 312/312
f 309/309 312/312 310/310
f 311/311 297/297 298/298
f 311/311 298/298 312/312
f 311/311 309/309 307/307 305/305 303/303 301/301 299/299 297/297
f 298/298 300/300 302/302 304/304 306/306 308/308 310/310 312/312
usemtl TowerPaint
f 313/313 314/314 315/315
f 313/313 315/315 316/316
f 317/317 318/318 319/319
f 317/317 319/319 320/320
f 321/321 322/322 323/323
f 321/321 323/323 324/324
f 325/325 326/326 327/327
f 325/325 327/327 328/328
f 329/329 330/330 331/331
f 329/329 331/331 332/332
f 333/333 334/334 335/335
f 333/333 335/335 336/336
usemtl WarmBrass
f 337/337 339/339 340/340
f 337/337 340/340 338/338
f 339/339 341/341 342/342
f 339/339 342/342 340/340
f 341/341 343/343 344/344
f 341/341 344/344 342/342
f 343/343 345/345 346/346
f 343/343 346/346 344/344
f 345/345 347/347 348/348
f 345/345 348/348 346/346
f 347/347 349/349 350/350
f 347/347 350/350 348/348
f 349/349 351/351 352/352
f 349/349 352/352 350/350
f 351/351 353/353 354/354
f 351/351 354/354 352/352
f 353/353 355/355 356/356
f 353/353 356/356 354/354
f 355/355 357/357 358/358
f 355/355 358/358 356/356
f 357/357 359/359 360/360
f 357/357 360/360 358/358
f 359/359 337/337 338/338
f 359/359 338/338 360/360
f 359/359 357/357 355/355 353/353 351/351 349/349 347/347 345/345 343/343 341/341 339/339 337/337
f 338/338 340/340 342/342 344/344 346/346 348/348 350/350 352/352 354/354 356/356 358/358 360/360
usemtl DarkIron
f 361/361 363/363 364/364
f 361/361 364/364 362/362
f 363/363 365/365 366/366
f 363/363 366/366 364/364
f 365/365 367/367 368/368
f 365/365 368/368 366/366
f 367/367 369/369 370/370
f 367/367 370/370 368/368
f 369/369 371/371 372/372
f 369/369 372/372 370/370
f 371/371 361/361 362/362
f 371/371 362/362 372/372
f 371/371 369/369 367/367 365/365 363/363 361/361
f 362/362 364/364 366/366 368/368 370/370 372/372
usemtl TowerPaint
f 373/373 374/374 375/375
f 373/373 375/375 376/376
f 377/377 378/378 379/379
f 377/377 379/379 380/380
f 381/381 382/382 383/383
f 381/381 383/383 384/384
f 385/385 386/386 387/387
f 385/385 387/387 388/388
f 389/389 390/390 391/391
f 389/389 391/391 392/392
f 393/393 394/394 395/395
f 393/393 395/395 396/396
usemtl DarkIron
f 397/397 398/398 399/399
f 397/397 399/399 400/400
f 401/401 402/402 403/403
f 401/401 403/403 404/404
f 405/405 406/406 407/407
f 405/405 407/407 408/408
f 409/409 410/410 411/411
f 409/409 411/411 412/412
f 413/413 414/414 415/415
f 413/413 415/415 416/416
f 417/417 418/418 419/419
f 417/417 419/419 420/420
f 421/421 422/422 423/423
f 421/421 423/423 424/424
f 425/425 426/426 427/427
f 425/425 427/427 428/428
f 429/429 430/430 431/431
f 429/429 431/431 432/432
f 433/433 434/434 435/435
f 433/433 435/435 436/436
f 437/437 438/438 439/439
f 437/437 439/439 440/440
f 441/441 442/442 443/443
f 441/441 443/443 444/444
f 445/445 447/447 448/448
f 445/445 448/448 446/446
f 447/447 449/449 450/450
f 447/447 450/450 448/448
f 449/449 451/451 452/452
f 449/449 452/452 450/450
f 451/451 453/453 454/454
f 451/451 454/454 452/452
f 453/453 455/455 456/456
f 453/453 456/456 454/454
f 455/455 445/445 446/446
f 455/455 446/446 456/456
f 455/455 453/453 451/451 449/449 447/447 445/445
f 446/446 448/448 450/450 452/452 454/454 456/456
f 457/457 459/459 460/460
f 457/457 460/460 458/458
f 459/459 461/461 462/462
f 459/459 462/462 460/460
f 461/461 463/463 464/464
f 461/461 464/464 462/462
f 463/463 465/465 466/466
f 463/463 466/466 464/464
f 465/465 467/467 468/468
f 465/465 468/468 466/466
f 467/467 457/457 458/458
f 467/467 458/458 468/468
f 467/467 465/465 463/463 461/461 459/459 457/457
f 458/458 460/460 462/462 464/464 466/466 468/468
usemtl WarmBrass
f 469/469 471/471 472/472
f 469/469 472/472 470/470
f 471/471 473/473 474/474
f 471/471 474/474 472/472
f 473/473 475/475 476/476
f 473/473 476/476 474/474
f 475/475 477/477 478/478
f 475/475 478/478 476/476
f 477/477 479/479 480/480
f 477/477 480/480 478/478
f 479/479 481/481 482/482
f 479/479 482/482 480/480
f 481/481 483/483 484/484
f 481/481 484/484 482/482
f 483/483 485/485 486/486
f 483/483 486/486 484/484
f 485/485 487/487 488/488
f 485/485 488/488 486/486
f 487/487 489/489 490/490
f 487/487 490/490 488/488
f 489/489 491/491 492/492
f 489/489 492/492 490/490
f 491/491 493/493 494/494
f 491/491 494/494 492/492
f 493/493 495/495 496/496
f 493/493 496/496 494/494
f 495/495 497/497 498/498
f 495/495 498/498 496/496
f 497/497 499/499 500/500
f 497/497 500/500 498/498
f 499/499 469/469 470/470
f 499/499 470/470 500/500
f 499/499 497/497 495/495 493/493 491/491 489/489 487/487 485/485 483/483 481/481 479/479 477/477 475/475 473/473 471/471 469/469
f 470/470 472/472 474/474 476/476 478/478 480/480 482/482 484/484 486/486 488/488 490/490 492/492 494/494 496/496 498/498 500/500
f 501/501 503/503 504/504
f 501/501 504/504 502/502
f 503/503 505/505 506/506
f 503/503 506/506 504/504
f 505/505 507/507 508/508
f 505/505 508/508 506/506
f 507/507 509/509 510/510
f 507/507 510/510 508/508
f 509/509 511/511 512/512
f 509/509 512/512 510/510
f 511/511 513/513 514/514
f 511/511 514/514 512/512
f 513/513 515/515 516/516
f 513/513 516/516 514/514
f 515/515 517/517 518/518
f 515/515 518/518 516/516
f 517/517 519/519 520/520
f 517/517 520/520 518/518
f 519/519 521/521 522/522
f 519/519 522/522 520/520
f 521/521 523/523 524/524
f 521/521 524/524 522/522
f 523/523 525/525 526/526
f 523/523 526/526 524/524
f 525/525 527/527 528/528
f 525/525 528/528 526/526
f 527/527 529/529 530/530
f 527/527 530/530 528/528
f 529/529 531/531 532/532
f 529/529 532/532 530/530
f 531/531 501/501 502/502
f 531/531 502/502 532/532
f 531/531 529/529 527/527 525/525 523/523 521/521 519/519 517/517 515/515 513/513 511/511 509/509 507/507 505/505 503/503 501/501
f 502/502 504/504 506/506 508/508 510/510 512/512 514/514 516/516 518/518 520/520 522/522 524/524 526/526 528/528 530/530 532/532
usemtl DarkIron
f 533/533 534/534 535/535
f 533/533 535/535 536/536
f 537/537 538/538 539/539
f 537/537 539/539 540/540
f 541/541 542/542 543/543
f 541/541 543/543 544/544
f 545/545 546/546 547/547
f 545/545 547/547 548/548
f 549/549 550/550 551/551
f 549/549 551/551 552/552
f 553/553 554/554 555/555
f 553/553 555/555 556/556
usemtl WarmBrass
f 557/557 559/559 560/560
f 557/557 560/560 558/558
f 559/559 561/561 562/562
f 559/559 562/562 560/560
f 561/561 563/563 564/564
f 561/561 564/564 562/562
f 563/563 565/565 566/566
f 563/563 566/566 564/564
f 565/565 567/567 568/568
f 565/565 568/568 566/566
f 567/567 569/569 570/570
f 567/567 570/570 568/568
f 569/569 571/571 572/572
f 569/569 572/572 570/570
f 571/571 573/573 574/574
f 571/571 574/574 572/572
f 573/573 575/575 576/576
f 573/573 576/576 574/574
f 575/575 577/577 578/578
f 575/575 578/578 576/576
f 577/577 579/579 580/580
f 577/577 580/580 578/578
f 579/579 581/581 582/582
f 579/579 582/582 580/580
f 581/581 583/583 584/584
f 581/581 584/584 582/582
f 583/583 585/585 586/586
f 583/583 586/586 584/584
f 585/585 587/587 588/588
f 585/585 588/588 586/586
f 587/587 557/557 558/558
f 587/587 558/558 588/588
f 587/587 585/585 583/583 581/581 579/579 577/577 575/575 573/573 571/571 569/569 567/567 565/565 563/563 561/561 559/559 557/557
f 558/558 560/560 562/562 564/564 566/566 568/568 570/570 572/572 574/574 576/576 578/578 580/580 582/582 584/584 586/586 588/588
