mtllib SM_BB_GeneratorAnnex_Props.mtl
o SM_BB_GeneratorAnnex_Props
v -160.0000 -400.0000 85.0000
v -80.0000 -400.0000 85.0000
v -80.0000 -200.0000 85.0000
v -160.0000 -200.0000 85.0000
v -160.0000 -400.0000 95.0000
v -160.0000 -200.0000 95.0000
v -80.0000 -200.0000 95.0000
v -80.0000 -400.0000 95.0000
v -160.0000 -400.0000 85.0000
v -160.0000 -400.0000 95.0000
v -80.0000 -400.0000 95.0000
v -80.0000 -400.0000 85.0000
v -160.0000 -200.0000 85.0000
v -80.0000 -200.0000 85.0000
v -80.0000 -200.0000 95.0000
v -160.0000 -200.0000 95.0000
v -160.0000 -400.0000 85.0000
v -160.0000 -200.0000 85.0000
v -160.0000 -200.0000 95.0000
v -160.0000 -400.0000 95.0000
v -80.0000 -400.0000 85.0000
v -80.0000 -400.0000 95.0000
v -80.0000 -200.0000 95.0000
v -80.0000 -200.0000 85.0000
v -160.0000 -395.0000 0.0000
v -150.0000 -395.0000 0.0000
v -150.0000 -385.0000 0.0000
v -160.0000 -385.0000 0.0000
v -160.0000 -395.0000 90.0000
v -160.0000 -385.0000 90.0000
v -150.0000 -385.0000 90.0000
v -150.0000 -395.0000 90.0000
v -160.0000 -395.0000 0.0000
v -160.0000 -395.0000 90.0000
v -150.0000 -395.0000 90.0000
v -150.0000 -395.0000 0.0000
v -160.0000 -385.0000 0.0000
v -150.0000 -385.0000 0.0000
v -150.0000 -385.0000 90.0000
v -160.0000 -385.0000 90.0000
v -160.0000 -395.0000 0.0000
v -160.0000 -385.0000 0.0000
v -160.0000 -385.0000 90.0000
v -160.0000 -395.0000 90.0000
v -150.0000 -395.0000 0.0000
v -150.0000 -395.0000 90.0000
v -150.0000 -385.0000 90.0000
v -150.0000 -385.0000 0.0000
v -160.0000 -215.0000 0.0000
v -150.0000 -215.0000 0.0000
v -150.0000 -205.0000 0.0000
v -160.0000 -205.0000 0.0000
v -160.0000 -215.0000 90.0000
v -160.0000 -205.0000 90.0000
v -150.0000 -205.0000 90.0000
v -150.0000 -215.0000 90.0000
v -160.0000 -215.0000 0.0000
v -160.0000 -215.0000 90.0000
v -150.0000 -215.0000 90.0000
v -150.0000 -215.0000 0.0000
v -160.0000 -205.0000 0.0000
v -150.0000 -205.0000 0.0000
v -150.0000 -205.0000 90.0000
v -160.0000 -205.0000 90.0000
v -160.0000 -215.0000 0.0000
v -160.0000 -205.0000 0.0000
v -160.0000 -205.0000 90.0000
v -160.0000 -215.0000 90.0000
v -150.0000 -215.0000 0.0000
v -150.0000 -215.0000 90.0000
v -150.0000 -205.0000 90.0000
v -150.0000 -205.0000 0.0000
v -90.0000 -395.0000 0.0000
v -80.0000 -395.0000 0.0000
v -80.0000 -385.0000 0.0000
v -90.0000 -385.0000 0.0000
v -90.0000 -395.0000 90.0000
v -90.0000 -385.0000 90.0000
v -80.0000 -385.0000 90.0000
v -80.0000 -395.0000 90.0000
v -90.0000 -395.0000 0.0000
v -90.0000 -395.0000 90.0000
v -80.0000 -395.0000 90.0000
v -80.0000 -395.0000 0.0000
v -90.0000 -385.0000 0.0000
v -80.0000 -385.0000 0.0000
v -80.0000 -385.0000 90.0000
v -90.0000 -385.0000 90.0000
v -90.0000 -395.0000 0.0000
v -90.0000 -385.0000 0.0000
v -90.0000 -385.0000 90.0000
v -90.0000 -395.0000 90.0000
v -80.0000 -395.0000 0.0000
v -80.0000 -395.0000 90.0000
v -80.0000 -385.0000 90.0000
v -80.0000 -385.0000 0.0000
v -90.0000 -215.0000 0.0000
v -80.0000 -215.0000 0.0000
v -80.0000 -205.0000 0.0000
v -90.0000 -205.0000 0.0000
v -90.0000 -215.0000 90.0000
v -90.0000 -205.0000 90.0000
v -80.0000 -205.0000 90.0000
v -80.0000 -215.0000 90.0000
v -90.0000 -215.0000 0.0000
v -90.0000 -215.0000 90.0000
v -80.0000 -215.0000 90.0000
v -80.0000 -215.0000 0.0000
v -90.0000 -205.0000 0.0000
v -80.0000 -205.0000 0.0000
v -80.0000 -205.0000 90.0000
v -90.0000 -205.0000 90.0000
v -90.0000 -215.0000 0.0000
v -90.0000 -205.0000 0.0000
v -90.0000 -205.0000 90.0000
v -90.0000 -215.0000 90.0000
v -80.0000 -215.0000 0.0000
v -80.0000 -215.0000 90.0000
v -80.0000 -205.0000 90.0000
v -80.0000 -205.0000 0.0000
v -150.0000 -390.0000 177.5000
v -90.0000 -390.0000 177.5000
v -90.0000 -210.0000 177.5000
v -150.0000 -210.0000 177.5000
v -150.0000 -390.0000 182.5000
v -150.0000 -210.0000 182.5000
v -90.0000 -210.0000 182.5000
v -90.0000 -390.0000 182.5000
v -150.0000 -390.0000 177.5000
v -150.0000 -390.0000 182.5000
v -90.0000 -390.0000 182.5000
v -90.0000 -390.0000 177.5000
v -150.0000 -210.0000 177.5000
v -90.0000 -210.0000 177.5000
v -90.0000 -210.0000 182.5000
v -150.0000 -210.0000 182.5000
v -150.0000 -390.0000 177.5000
v -150.0000 -210.0000 177.5000
v -150.0000 -210.0000 182.5000
v -150.0000 -390.0000 182.5000
v -90.0000 -390.0000 177.5000
v -90.0000 -390.0000 182.5000
v -90.0000 -210.0000 182.5000
v -90.0000 -210.0000 177.5000
v -150.0000 -390.0000 227.5000
v -90.0000 -390.0000 227.5000
v -90.0000 -210.0000 227.5000
v -150.0000 -210.0000 227.5000
v -150.0000 -390.0000 232.5000
v -150.0000 -210.0000 232.5000
v -90.0000 -210.0000 232.5000
v -90.0000 -390.0000 232.5000
v -150.0000 -390.0000 227.5000
v -150.0000 -390.0000 232.5000
v -90.0000 -390.0000 232.5000
v -90.0000 -390.0000 227.5000
v -150.0000 -210.0000 227.5000
v -90.0000 -210.0000 227.5000
v -90.0000 -210.0000 232.5000
v -150.0000 -210.0000 232.5000
v -150.0000 -390.0000 227.5000
v -150.0000 -210.0000 227.5000
v -150.0000 -210.0000 232.5000
v -150.0000 -390.0000 232.5000
v -90.0000 -390.0000 227.5000
v -90.0000 -390.0000 232.5000
v -90.0000 -210.0000 232.5000
v -90.0000 -210.0000 227.5000
v -95.0000 320.0000 0.0000
v -95.0000 320.0000 90.0000
v -98.3494 332.5000 0.0000
v -98.3494 332.5000 90.0000
v -107.5000 341.6506 0.0000
v -107.5000 341.6506 90.0000
v -120.0000 345.0000 0.0000
v -120.0000 345.0000 90.0000
v -132.5000 341.6506 0.0000
v -132.5000 341.6506 90.0000
v -141.6506 332.5000 0.0000
v -141.6506 332.5000 90.0000
v -145.0000 320.0000 0.0000
v -145.0000 320.0000 90.0000
v -141.6506 307.5000 0.0000
v -141.6506 307.5000 90.0000
v -132.5000 298.3494 0.0000
v -132.5000 298.3494 90.0000
v -120.0000 295.0000 0.0000
v -120.0000 295.0000 90.0000
v -107.5000 298.3494 0.0000
v -107.5000 298.3494 90.0000
v -98.3494 307.5000 0.0000
v -98.3494 307.5000 90.0000
v -110.0000 320.0000 87.5000
v -110.0000 320.0000 92.5000
v -112.9289 327.0711 87.5000
v -112.9289 327.0711 92.5000
v -120.0000 330.0000 87.5000
v -120.0000 330.0000 92.5000
v -127.0711 327.0711 87.5000
v -127.0711 327.0711 92.5000
v -130.0000 320.0000 87.5000
v -130.0000 320.0000 92.5000
v -127.0711 312.9289 87.5000
v -127.0711 312.9289 92.5000
v -120.0000 310.0000 87.5000
v -120.0000 310.0000 92.5000
v -112.9289 312.9289 87.5000
v -112.9289 312.9289 92.5000
v -55.0000 340.0000 0.0000
v -55.0000 340.0000 90.0000
v -58.3494 352.5000 0.0000
v -58.3494 352.5000 90.0000
v -67.5000 361.6506 0.0000
v -67.5000 361.6506 90.0000
v -80.0000 365.0000 0.0000
v -80.0000 365.0000 90.0000
v -92.5000 361.6506 0.0000
v -92.5000 361.6506 90.0000
v -101.6506 352.5000 0.0000
v -101.6506 352.5000 90.0000
v -105.0000 340.0000 0.0000
v -105.0000 340.0000 90.0000
v -101.6506 327.5000 0.0000
v -101.6506 327.5000 90.0000
v -92.5000 318.3494 0.0000
v -92.5000 318.3494 90.0000
v -80.0000 315.0000 0.0000
v -80.0000 315.0000 90.0000
v -67.5000 318.3494 0.0000
v -67.5000 318.3494 90.0000
v -58.3494 327.5000 0.0000
v -58.3494 327.5000 90.0000
v -70.0000 340.0000 87.5000
v -70.0000 340.0000 92.5000
v -72.9289 347.0711 87.5000
v -72.9289 347.0711 92.5000
v -80.0000 350.0000 87.5000
v -80.0000 350.0000 92.5000
v -87.0711 347.0711 87.5000
v -87.0711 347.0711 92.5000
v -90.0000 340.0000 87.5000
v -90.0000 340.0000 92.5000
v -87.0711 332.9289 87.5000
v -87.0711 332.9289 92.5000
v -80.0000 330.0000 87.5000
v -80.0000 330.0000 92.5000
v -72.9289 332.9289 87.5000
v -72.9289 332.9289 92.5000
v -115.0000 350.0000 0.0000
v -115.0000 350.0000 90.0000
v -118.3494 362.5000 0.0000
v -118.3494 362.5000 90.0000
v -127.5000 371.6506 0.0000
v -127.5000 371.6506 90.0000
v -140.0000 375.0000 0.0000
v -140.0000 375.0000 90.0000
v -152.5000 371.6506 0.0000
v -152.5000 371.6506 90.0000
v -161.6506 362.5000 0.0000
v -161.6506 362.5000 90.0000
v -165.0000 350.0000 0.0000
v -165.0000 350.0000 90.0000
v -161.6506 337.5000 0.0000
v -161.6506 337.5000 90.0000
v -152.5000 328.3494 0.0000
v -152.5000 328.3494 90.0000
v -140.0000 325.0000 0.0000
v -140.0000 325.0000 90.0000
v -127.5000 328.3494 0.0000
v -127.5000 328.3494 90.0000
v -118.3494 337.5000 0.0000
v -118.3494 337.5000 90.0000
v -130.0000 350.0000 87.5000
v -130.0000 350.0000 92.5000
v -132.9289 357.0711 87.5000
v -132.9289 357.0711 92.5000
v -140.0000 360.0000 87.5000
v -140.0000 360.0000 92.5000
v -147.0711 357.0711 87.5000
v -147.0711 357.0711 92.5000
v -150.0000 350.0000 87.5000
v -150.0000 350.0000 92.5000
v -147.0711 342.9289 87.5000
v -147.0711 342.9289 92.5000
v -140.0000 340.0000 87.5000
v -140.0000 340.0000 92.5000
v -132.9289 342.9289 87.5000
v -132.9289 342.9289 92.5000
v 90.0000 270.0000 0.0000
v 150.0000 270.0000 0.0000
v 150.0000 330.0000 0.0000
v 90.0000 330.0000 0.0000
v 90.0000 270.0000 60.0000
v 90.0000 330.0000 60.0000
v 150.0000 330.0000 60.0000
v 150.0000 270.0000 60.0000
v 90.0000 270.0000 0.0000
v 90.0000 270.0000 60.0000
v 150.0000 270.0000 60.0000
v 150.0000 270.0000 0.0000
v 90.0000 330.0000 0.0000
v 150.0000 330.0000 0.0000
v 150.0000 330.0000 60.0000
v 90.0000 330.0000 60.0000
v 90.0000 270.0000 0.0000
v 90.0000 330.0000 0.0000
v 90.0000 330.0000 60.0000
v 90.0000 270.0000 60.0000
v 150.0000 270.0000 0.0000
v 150.0000 270.0000 60.0000
v 150.0000 330.0000 60.0000
v 150.0000 330.0000 0.0000
v 95.0000 275.0000 65.0000
v 145.0000 275.0000 65.0000
v 145.0000 325.0000 65.0000
v 95.0000 325.0000 65.0000
v 95.0000 275.0000 115.0000
v 95.0000 325.0000 115.0000
v 145.0000 325.0000 115.0000
v 145.0000 275.0000 115.0000
v 95.0000 275.0000 65.0000
v 95.0000 275.0000 115.0000
v 145.0000 275.0000 115.0000
v 145.0000 275.0000 65.0000
v 95.0000 325.0000 65.0000
v 145.0000 325.0000 65.0000
v 145.0000 325.0000 115.0000
v 95.0000 325.0000 115.0000
v 95.0000 275.0000 65.0000
v 95.0000 325.0000 65.0000
v 95.0000 325.0000 115.0000
v 95.0000 275.0000 115.0000
v 145.0000 275.0000 65.0000
v 145.0000 275.0000 115.0000
v 145.0000 325.0000 115.0000
v 145.0000 325.0000 65.0000
v 105.0000 190.0000 0.0000
v 155.0000 190.0000 0.0000
v 155.0000 270.0000 0.0000
v 105.0000 270.0000 0.0000
v 105.0000 190.0000 50.0000
v 105.0000 270.0000 50.0000
v 155.0000 270.0000 50.0000
v 155.0000 190.0000 50.0000
v 105.0000 190.0000 0.0000
v 105.0000 190.0000 50.0000
v 155.0000 190.0000 50.0000
v 155.0000 190.0000 0.0000
v 105.0000 270.0000 0.0000
v 155.0000 270.0000 0.0000
v 155.0000 270.0000 50.0000
v 105.0000 270.0000 50.0000
v 105.0000 190.0000 0.0000
v 105.0000 270.0000 0.0000
v 105.0000 270.0000 50.0000
v 105.0000 190.0000 50.0000
v 155.0000 190.0000 0.0000
v 155.0000 190.0000 50.0000
v 155.0000 270.0000 50.0000
v 155.0000 270.0000 0.0000
v -127.5000 -322.5000 95.5000
v -112.5000 -322.5000 95.5000
v -112.5000 -317.5000 95.5000
v -127.5000 -317.5000 95.5000
v -127.5000 -322.5000 100.5000
v -127.5000 -317.5000 100.5000
v -112.5000 -317.5000 100.5000
v -112.5000 -322.5000 100.5000
v -127.5000 -322.5000 95.5000
v -127.5000 -322.5000 100.5000
v -112.5000 -322.5000 100.5000
v -112.5000 -322.5000 95.5000
v -127.5000 -317.5000 95.5000
v -112.5000 -317.5000 95.5000
v -112.5000 -317.5000 100.5000
v -127.5000 -317.5000 100.5000
v -127.5000 -322.5000 95.5000
v -127.5000 -317.5000 95.5000
v -127.5000 -317.5000 100.5000
v -127.5000 -322.5000 100.5000
v -112.5000 -322.5000 95.5000
v -112.5000 -322.5000 100.5000
v -112.5000 -317.5000 100.5000
v -112.5000 -317.5000 95.5000
v -112.5000 -292.5000 95.5000
v -107.5000 -292.5000 95.5000
v -107.5000 -267.5000 95.5000
v -112.5000 -267.5000 95.5000
v -112.5000 -292.5000 100.5000
v -112.5000 -267.5000 100.5000
v -107.5000 -267.5000 100.5000
v -107.5000 -292.5000 100.5000
v -112.5000 -292.5000 95.5000
v -112.5000 -292.5000 100.5000
v -107.5000 -292.5000 100.5000
v -107.5000 -292.5000 95.5000
v -112.5000 -267.5000 95.5000
v -107.5000 -267.5000 95.5000
v -107.5000 -267.5000 100.5000
v -112.5000 -267.5000 100.5000
v -112.5000 -292.5000 95.5000
v -112.5000 -267.5000 95.5000
v -112.5000 -267.5000 100.5000
v -112.5000 -292.5000 100.5000
v -107.5000 -292.5000 95.5000
v -107.5000 -292.5000 100.5000
v -107.5000 -267.5000 100.5000
v -107.5000 -267.5000 95.5000
v 4.0000 -200.0000 290.0000
v 4.0000 -200.0000 350.0000
v 2.0000 -196.5359 290.0000
v 2.0000 -196.5359 350.0000
v -2.0000 -196.5359 290.0000
v -2.0000 -196.5359 350.0000
v -4.0000 -200.0000 290.0000
v -4.0000 -200.0000 350.0000
v -2.0000 -203.4641 290.0000
v -2.0000 -203.4641 350.0000
v 2.0000 -203.4641 290.0000
v 2.0000 -203.4641 350.0000
v 20.0000 -200.0000 285.0000
v 5.0000 -200.0000 295.0000
v 18.4776 -192.3463 285.0000
v 4.6194 -198.0866 295.0000
v 14.1421 -185.8579 285.0000
v 3.5355 -196.4645 295.0000
v 7.6537 -181.5224 285.0000
v 1.9134 -195.3806 295.0000
v 0.0000 -180.0000 285.0000
v 0.0000 -195.0000 295.0000
v -7.6537 -181.5224 285.0000
v -1.9134 -195.3806 295.0000
v -14.1421 -185.8579 285.0000
v -3.5355 -196.4645 295.0000
v -18.4776 -192.3463 285.0000
v -4.6194 -198.0866 295.0000
v -20.0000 -200.0000 285.0000
v -5.0000 -200.0000 295.0000
v -18.4776 -207.6537 285.0000
v -4.6194 -201.9134 295.0000
v -14.1421 -214.1421 285.0000
v -3.5355 -203.5355 295.0000
v -7.6537 -218.4776 285.0000
v -1.9134 -204.6194 295.0000
v -0.0000 -220.0000 285.0000
v -0.0000 -205.0000 295.0000
v 7.6537 -218.4776 285.0000
v 1.9134 -204.6194 295.0000
v 14.1421 -214.1421 285.0000
v 3.5355 -203.5355 295.0000
v 18.4776 -207.6537 285.0000
v 4.6194 -201.9134 295.0000
v 6.0000 -200.0000 280.0000
v 6.0000 -200.0000 290.0000
v 4.2426 -195.7574 280.0000
v 4.2426 -195.7574 290.0000
v 0.0000 -194.0000 280.0000
v 0.0000 -194.0000 290.0000
v -4.2426 -195.7574 280.0000
v -4.2426 -195.7574 290.0000
v -6.0000 -200.0000 280.0000
v -6.0000 -200.0000 290.0000
v -4.2426 -204.2426 280.0000
v -4.2426 -204.2426 290.0000
v -0.0000 -206.0000 280.0000
v -0.0000 -206.0000 290.0000
v 4.2426 -204.2426 280.0000
v 4.2426 -204.2426 290.0000
v 4.0000 0.0000 290.0000
v 4.0000 0.0000 350.0000
v 2.0000 3.4641 290.0000
v 2.0000 3.4641 350.0000
v -2.0000 3.4641 290.0000
v -2.0000 3.4641 350.0000
v -4.0000 0.0000 290.0000
v -4.0000 0.0000 350.0000
v -2.0000 -3.4641 290.0000
v -2.0000 -3.4641 350.0000
v 2.0000 -3.4641 290.0000
v 2.0000 -3.4641 350.0000
v 20.0000 0.0000 285.0000
v 5.0000 0.0000 295.0000
v 18.4776 7.6537 285.0000
v 4.6194 1.9134 295.0000
v 14.1421 14.1421 285.0000
v 3.5355 3.5355 295.0000
v 7.6537 18.4776 285.0000
v 1.9134 4.6194 295.0000
v 0.0000 20.0000 285.0000
v 0.0000 5.0000 295.0000
v -7.6537 18.4776 285.0000
v -1.9134 4.6194 295.0000
v -14.1421 14.1421 285.0000
v -3.5355 3.5355 295.0000
v -18.4776 7.6537 285.0000
v -4.6194 1.9134 295.0000
v -20.0000 0.0000 285.0000
v -5.0000 0.0000 295.0000
v -18.4776 -7.6537 285.0000
v -4.6194 -1.9134 295.0000
v -14.1421 -14.1421 285.0000
v -3.5355 -3.5355 295.0000
v -7.6537 -18.4776 285.0000
v -1.9134 -4.6194 295.0000
v -0.0000 -20.0000 285.0000
v -0.0000 -5.0000 295.0000
v 7.6537 -18.4776 285.0000
v 1.9134 -4.6194 295.0000
v 14.1421 -14.1421 285.0000
v 3.5355 -3.5355 295.0000
v 18.4776 -7.6537 285.0000
v 4.6194 -1.9134 295.0000
v 6.0000 0.0000 280.0000
v 6.0000 0.0000 290.0000
v 4.2426 4.2426 280.0000
v 4.2426 4.2426 290.0000
v 0.0000 6.0000 280.0000
v 0.0000 6.0000 290.0000
v -4.2426 4.2426 280.0000
v -4.2426 4.2426 290.0000
v -6.0000 0.0000 280.0000
v -6.0000 0.0000 290.0000
v -4.2426 -4.2426 280.0000
v -4.2426 -4.2426 290.0000
v -0.0000 -6.0000 280.0000
v -0.0000 -6.0000 290.0000
v 4.2426 -4.2426 280.0000
v 4.2426 -4.2426 290.0000
v 4.0000 200.0000 290.0000
v 4.0000 200.0000 350.0000
v 2.0000 203.4641 290.0000
v 2.0000 203.4641 350.0000
v -2.0000 203.4641 290.0000
v -2.0000 203.4641 350.0000
v -4.0000 200.0000 290.0000
v -4.0000 200.0000 350.0000
v -2.0000 196.5359 290.0000
v -2.0000 196.5359 350.0000
v 2.0000 196.5359 290.0000
v 2.0000 196.5359 350.0000
v 20.0000 200.0000 285.0000
v 5.0000 200.0000 295.0000
v 18.4776 207.6537 285.0000
v 4.6194 201.9134 295.0000
v 14.1421 214.1421 285.0000
v 3.5355 203.5355 295.0000
v 7.6537 218.4776 285.0000
v 1.9134 204.6194 295.0000
v 0.0000 220.0000 285.0000
v 0.0000 205.0000 295.0000
v -7.6537 218.4776 285.0000
v -1.9134 204.6194 295.0000
v -14.1421 214.1421 285.0000
v -3.5355 203.5355 295.0000
v -18.4776 207.6537 285.0000
v -4.6194 201.9134 295.0000
v -20.0000 200.0000 285.0000
v -5.0000 200.0000 295.0000
v -18.4776 192.3463 285.0000
v -4.6194 198.0866 295.0000
v -14.1421 185.8579 285.0000
v -3.5355 196.4645 295.0000
v -7.6537 181.5224 285.0000
v -1.9134 195.3806 295.0000
v -0.0000 180.0000 285.0000
v -0.0000 195.0000 295.0000
v 7.6537 181.5224 285.0000
v 1.9134 195.3806 295.0000
v 14.1421 185.8579 285.0000
v 3.5355 196.4645 295.0000
v 18.4776 192.3463 285.0000
v 4.6194 198.0866 295.0000
v 6.0000 200.0000 280.0000
v 6.0000 200.0000 290.0000
v 4.2426 204.2426 280.0000
v 4.2426 204.2426 290.0000
v 0.0000 206.0000 280.0000
v 0.0000 206.0000 290.0000
v -4.2426 204.2426 280.0000
v -4.2426 204.2426 290.0000
v -6.0000 200.0000 280.0000
v -6.0000 200.0000 290.0000
v -4.2426 195.7574 280.0000
v -4.2426 195.7574 290.0000
v -0.0000 194.0000 280.0000
v -0.0000 194.0000 290.0000
v 4.2426 195.7574 280.0000
v 4.2426 195.7574 290.0000
vt -0.200000 -0.500000
vt 0.200000 -0.500000
vt 0.200000 0.500000
vt -0.200000 0.500000
vt -0.200000 -0.500000
vt -0.200000 0.500000
vt 0.200000 0.500000
vt 0.200000 -0.500000
vt -0.500000 -0.025000
vt -0.500000 0.025000
vt -0.500000 0.025000
vt -0.500000 -0.025000
vt -0.200000 0.500000
vt 0.200000 0.500000
vt 0.200000 0.500000
vt -0.200000 0.500000
vt -0.200000 -0.500000
vt -0.200000 0.500000
vt -0.200000 0.500000
vt -0.200000 -0.500000
vt -0.500000 -0.025000
vt -0.500000 0.025000
vt 0.500000 0.025000
vt 0.500000 -0.025000
vt -0.025000 -0.025000
vt 0.025000 -0.025000
vt 0.025000 0.025000
vt -0.025000 0.025000
vt -0.025000 -0.025000
vt -0.025000 0.025000
vt 0.025000 0.025000
vt 0.025000 -0.025000
vt -0.025000 -0.225000
vt -0.025000 0.225000
vt -0.025000 0.225000
vt -0.025000 -0.225000
vt -0.025000 0.025000
vt 0.025000 0.025000
vt 0.025000 0.025000
vt -0.025000 0.025000
vt -0.025000 -0.025000
vt -0.025000 0.025000
vt -0.025000 0.025000
vt -0.025000 -0.025000
vt -0.025000 -0.225000
vt -0.025000 0.225000
vt 0.025000 0.225000
vt 0.025000 -0.225000
vt -0.025000 -0.025000
vt 0.025000 -0.025000
vt 0.025000 0.025000
vt -0.025000 0.025000
vt -0.025000 -0.025000
vt -0.025000 0.025000
vt 0.025000 0.025000
vt 0.025000 -0.025000
vt -0.025000 -0.225000
vt -0.025000 0.225000
vt -0.025000 0.225000
vt -0.025000 -0.225000
vt -0.025000 0.025000
vt 0.025000 0.025000
vt 0.025000 0.025000
vt -0.025000 0.025000
vt -0.025000 -0.025000
vt -0.025000 0.025000
vt -0.025000 0.025000
vt -0.025000 -0.025000
vt -0.025000 -0.225000
vt -0.025000 0.225000
vt 0.025000 0.225000
vt 0.025000 -0.225000
vt -0.025000 -0.025000
vt 0.025000 -0.025000
vt 0.025000 0.025000
vt -0.025000 0.025000
vt -0.025000 -0.025000
vt -0.025000 0.025000
vt 0.025000 0.025000
vt 0.025000 -0.025000
vt -0.025000 -0.225000
vt -0.025000 0.225000
vt -0.025000 0.225000
vt -0.025000 -0.225000
vt -0.025000 0.025000
vt 0.025000 0.025000
vt 0.025000 0.025000
vt -0.025000 0.025000
vt -0.025000 -0.025000
vt -0.025000 0.025000
vt -0.025000 0.025000
vt -0.025000 -0.025000
vt -0.025000 -0.225000
vt -0.025000 0.225000
vt 0.025000 0.225000
vt 0.025000 -0.225000
vt -0.025000 -0.025000
vt 0.025000 -0.025000
vt 0.025000 0.025000
vt -0.025000 0.025000
vt -0.025000 -0.025000
vt -0.025000 0.025000
vt 0.025000 0.025000
vt 0.025000 -0.025000
vt -0.025000 -0.225000
vt -0.025000 0.225000
vt -0.025000 0.225000
vt -0.025000 -0.225000
vt -0.025000 0.025000
vt 0.025000 0.025000
vt 0.025000 0.025000
vt -0.025000 0.025000
vt -0.025000 -0.025000
vt -0.025000 0.025000
vt -0.025000 0.025000
vt -0.025000 -0.025000
vt -0.025000 -0.225000
vt -0.025000 0.225000
vt 0.025000 0.225000
vt 0.025000 -0.225000
vt -0.150000 -0.450000
vt 0.150000 -0.450000
vt 0.150000 0.450000
vt -0.150000 0.450000
vt -0.150000 -0.450000
vt -0.150000 0.450000
vt 0.150000 0.450000
vt 0.150000 -0.450000
vt -0.450000 -0.012500
vt -0.450000 0.012500
vt -0.450000 0.012500
vt -0.450000 -0.012500
vt -0.150000 0.450000
vt 0.150000 0.450000
vt 0.150000 0.450000
vt -0.150000 0.450000
vt -0.150000 -0.450000
vt -0.150000 0.450000
vt -0.150000 0.450000
vt -0.150000 -0.450000
vt -0.450000 -0.012500
vt -0.450000 0.012500
vt 0.450000 0.012500
vt 0.450000 -0.012500
vt -0.150000 -0.450000
vt 0.150000 -0.450000
vt 0.150000 0.450000
vt -0.150000 0.450000
vt -0.150000 -0.450000
vt -0.150000 0.450000
vt 0.150000 0.450000
vt 0.150000 -0.450000
vt -0.450000 -0.012500
vt -0.450000 0.012500
vt -0.450000 0.012500
vt -0.450000 -0.012500
vt -0.150000 0.450000
vt 0.150000 0.450000
vt 0.150000 0.450000
vt -0.150000 0.450000
vt -0.150000 -0.450000
vt -0.150000 0.450000
vt -0.150000 0.450000
vt -0.150000 -0.450000
vt -0.450000 -0.012500
vt -0.450000 0.012500
vt 0.450000 0.012500
vt 0.450000 -0.012500
vt -0.095000 0.000000
vt -0.095000 0.090000
vt -0.098349 0.000000
vt -0.098349 0.090000
vt -0.107500 0.000000
vt -0.107500 0.090000
vt -0.120000 0.000000
vt -0.120000 0.090000
vt -0.132500 0.000000
vt -0.132500 0.090000
vt -0.141651 0.000000
vt -0.141651 0.090000
vt -0.145000 0.000000
vt -0.145000 0.090000
vt -0.141651 0.000000
vt -0.141651 0.090000
vt -0.132500 0.000000
vt -0.132500 0.090000
vt -0.120000 0.000000
vt -0.120000 0.090000
vt -0.107500 0.000000
vt -0.107500 0.090000
vt -0.098349 0.000000
vt -0.098349 0.090000
vt -0.110000 0.087500
vt -0.110000 0.092500
vt -0.112929 0.087500
vt -0.112929 0.092500
vt -0.120000 0.087500
vt -0.120000 0.092500
vt -0.127071 0.087500
vt -0.127071 0.092500
vt -0.130000 0.087500
vt -0.130000 0.092500
vt -0.127071 0.087500
vt -0.127071 0.092500
vt -0.120000 0.087500
vt -0.120000 0.092500
vt -0.112929 0.087500
vt -0.112929 0.092500
vt -0.055000 0.000000
vt -0.055000 0.090000
vt -0.058349 0.000000
vt -0.058349 0.090000
vt -0.067500 0.000000
vt -0.067500 0.090000
vt -0.080000 0.000000
vt -0.080000 0.090000
vt -0.092500 0.000000
vt -0.092500 0.090000
vt -0.101651 0.000000
vt -0.101651 0.090000
vt -0.105000 0.000000
vt -0.105000 0.090000
vt -0.101651 0.000000
vt -0.101651 0.090000
vt -0.092500 0.000000
vt -0.092500 0.090000
vt -0.080000 0.000000
vt -0.080000 0.090000
vt -0.067500 0.000000
vt -0.067500 0.090000
vt -0.058349 0.000000
vt -0.058349 0.090000
vt -0.070000 0.087500
vt -0.070000 0.092500
vt -0.072929 0.087500
vt -0.072929 0.092500
vt -0.080000 0.087500
vt -0.080000 0.092500
vt -0.087071 0.087500
vt -0.087071 0.092500
vt -0.090000 0.087500
vt -0.090000 0.092500
vt -0.087071 0.087500
vt -0.087071 0.092500
vt -0.080000 0.087500
vt -0.080000 0.092500
vt -0.072929 0.087500
vt -0.072929 0.092500
vt -0.115000 0.000000
vt -0.115000 0.090000
vt -0.118349 0.000000
vt -0.118349 0.090000
vt -0.127500 0.000000
vt -0.127500 0.090000
vt -0.140000 0.000000
vt -0.140000 0.090000
vt -0.152500 0.000000
vt -0.152500 0.090000
vt -0.161651 0.000000
vt -0.161651 0.090000
vt -0.165000 0.000000
vt -0.165000 0.090000
vt -0.161651 0.000000
vt -0.161651 0.090000
vt -0.152500 0.000000
vt -0.152500 0.090000
vt -0.140000 0.000000
vt -0.140000 0.090000
vt -0.127500 0.000000
vt -0.127500 0.090000
vt -0.118349 0.000000
vt -0.118349 0.090000
vt -0.130000 0.087500
vt -0.130000 0.092500
vt -0.132929 0.087500
vt -0.132929 0.092500
vt -0.140000 0.087500
vt -0.140000 0.092500
vt -0.147071 0.087500
vt -0.147071 0.092500
vt -0.150000 0.087500
vt -0.150000 0.092500
vt -0.147071 0.087500
vt -0.147071 0.092500
vt -0.140000 0.087500
vt -0.140000 0.092500
vt -0.132929 0.087500
vt -0.132929 0.092500
vt -0.150000 -0.150000
vt 0.150000 -0.150000
vt 0.150000 0.150000
vt -0.150000 0.150000
vt -0.150000 -0.150000
vt -0.150000 0.150000
vt 0.150000 0.150000
vt 0.150000 -0.150000
vt -0.150000 -0.150000
vt -0.150000 0.150000
vt -0.150000 0.150000
vt -0.150000 -0.150000
vt -0.150000 0.150000
vt 0.150000 0.150000
vt 0.150000 0.150000
vt -0.150000 0.150000
vt -0.150000 -0.150000
vt -0.150000 0.150000
vt -0.150000 0.150000
vt -0.150000 -0.150000
vt -0.150000 -0.150000
vt -0.150000 0.150000
vt 0.150000 0.150000
vt 0.150000 -0.150000
vt -0.125000 -0.125000
vt 0.125000 -0.125000
vt 0.125000 0.125000
vt -0.125000 0.125000
vt -0.125000 -0.125000
vt -0.125000 0.125000
vt 0.125000 0.125000
vt 0.125000 -0.125000
vt -0.125000 -0.125000
vt -0.125000 0.125000
vt -0.125000 0.125000
vt -0.125000 -0.125000
vt -0.125000 0.125000
vt 0.125000 0.125000
vt 0.125000 0.125000
vt -0.125000 0.125000
vt -0.125000 -0.125000
vt -0.125000 0.125000
vt -0.125000 0.125000
vt -0.125000 -0.125000
vt -0.125000 -0.125000
vt -0.125000 0.125000
vt 0.125000 0.125000
vt 0.125000 -0.125000
vt -0.125000 -0.200000
vt 0.125000 -0.200000
vt 0.125000 0.200000
vt -0.125000 0.200000
vt -0.125000 -0.200000
vt -0.125000 0.200000
vt 0.125000 0.200000
vt 0.125000 -0.200000
vt -0.200000 -0.125000
vt -0.200000 0.125000
vt -0.200000 0.125000
vt -0.200000 -0.125000
vt -0.125000 0.200000
vt 0.125000 0.200000
vt 0.125000 0.200000
vt -0.125000 0.200000
vt -0.125000 -0.200000
vt -0.125000 0.200000
vt -0.125000 0.200000
vt -0.125000 -0.200000
vt -0.200000 -0.125000
vt -0.200000 0.125000
vt 0.200000 0.125000
vt 0.200000 -0.125000
vt -0.037500 -0.012500
vt 0.037500 -0.012500
vt 0.037500 0.012500
vt -0.037500 0.012500
vt -0.037500 -0.012500
vt -0.037500 0.012500
vt 0.037500 0.012500
vt 0.037500 -0.012500
vt -0.012500 -0.012500
vt -0.012500 0.012500
vt -0.012500 0.012500
vt -0.012500 -0.012500
vt -0.037500 0.012500
vt 0.037500 0.012500
vt 0.037500 0.012500
vt -0.037500 0.012500
vt -0.037500 -0.012500
vt -0.037500 0.012500
vt -0.037500 0.012500
vt -0.037500 -0.012500
vt -0.012500 -0.012500
vt -0.012500 0.012500
vt 0.012500 0.012500
vt 0.012500 -0.012500
vt -0.012500 -0.062500
vt 0.012500 -0.062500
vt 0.012500 0.062500
vt -0.012500 0.062500
vt -0.012500 -0.062500
vt -0.012500 0.062500
vt 0.012500 0.062500
vt 0.012500 -0.062500
vt -0.062500 -0.012500
vt -0.062500 0.012500
vt -0.062500 0.012500
vt -0.062500 -0.012500
vt -0.012500 0.062500
vt 0.012500 0.062500
vt 0.012500 0.062500
vt -0.012500 0.062500
vt -0.012500 -0.062500
vt -0.012500 0.062500
vt -0.012500 0.062500
vt -0.012500 -0.062500
vt -0.062500 -0.012500
vt -0.062500 0.012500
vt 0.062500 0.012500
vt 0.062500 -0.012500
vt 0.004000 0.290000
vt 0.004000 0.350000
vt 0.002000 0.290000
vt 0.002000 0.350000
vt -0.002000 0.290000
vt -0.002000 0.350000
vt -0.004000 0.290000
vt -0.004000 0.350000
vt -0.002000 0.290000
vt -0.002000 0.350000
vt 0.002000 0.290000
vt 0.002000 0.350000
vt 0.020000 0.285000
vt 0.005000 0.295000
vt 0.018478 0.285000
vt 0.004619 0.295000
vt 0.014142 0.285000
vt 0.003536 0.295000
vt 0.007654 0.285000
vt 0.001913 0.295000
vt 0.000000 0.285000
vt 0.000000 0.295000
vt -0.007654 0.285000
vt -0.001913 0.295000
vt -0.014142 0.285000
vt -0.003536 0.295000
vt -0.018478 0.285000
vt -0.004619 0.295000
vt -0.020000 0.285000
vt -0.005000 0.295000
vt -0.018478 0.285000
vt -0.004619 0.295000
vt -0.014142 0.285000
vt -0.003536 0.295000
vt -0.007654 0.285000
vt -0.001913 0.295000
vt -0.000000 0.285000
vt -0.000000 0.295000
vt 0.007654 0.285000
vt 0.001913 0.295000
vt 0.014142 0.285000
vt 0.003536 0.295000
vt 0.018478 0.285000
vt 0.004619 0.295000
vt 0.006000 0.280000
vt 0.006000 0.290000
vt 0.004243 0.280000
vt 0.004243 0.290000
vt 0.000000 0.280000
vt 0.000000 0.290000
vt -0.004243 0.280000
vt -0.004243 0.290000
vt -0.006000 0.280000
vt -0.006000 0.290000
vt -0.004243 0.280000
vt -0.004243 0.290000
vt -0.000000 0.280000
vt -0.000000 0.290000
vt 0.004243 0.280000
vt 0.004243 0.290000
vt 0.004000 0.290000
vt 0.004000 0.350000
vt 0.002000 0.290000
vt 0.002000 0.350000
vt -0.002000 0.290000
vt -0.002000 0.350000
vt -0.004000 0.290000
vt -0.004000 0.350000
vt -0.002000 0.290000
vt -0.002000 0.350000
vt 0.002000 0.290000
vt 0.002000 0.350000
vt 0.020000 0.285000
vt 0.005000 0.295000
vt 0.018478 0.285000
vt 0.004619 0.295000
vt 0.014142 0.285000
vt 0.003536 0.295000
vt 0.007654 0.285000
vt 0.001913 0.295000
vt 0.000000 0.285000
vt 0.000000 0.295000
vt -0.007654 0.285000
vt -0.001913 0.295000
vt -0.014142 0.285000
vt -0.003536 0.295000
vt -0.018478 0.285000
vt -0.004619 0.295000
vt -0.020000 0.285000
vt -0.005000 0.295000
vt -0.018478 0.285000
vt -0.004619 0.295000
vt -0.014142 0.285000
vt -0.003536 0.295000
vt -0.007654 0.285000
vt -0.001913 0.295000
vt -0.000000 0.285000
vt -0.000000 0.295000
vt 0.007654 0.285000
vt 0.001913 0.295000
vt 0.014142 0.285000
vt 0.003536 0.295000
vt 0.018478 0.285000
vt 0.004619 0.295000
vt 0.006000 0.280000
vt 0.006000 0.290000
vt 0.004243 0.280000
vt 0.004243 0.290000
vt 0.000000 0.280000
vt 0.000000 0.290000
vt -0.004243 0.280000
vt -0.004243 0.290000
vt -0.006000 0.280000
vt -0.006000 0.290000
vt -0.004243 0.280000
vt -0.004243 0.290000
vt -0.000000 0.280000
vt -0.000000 0.290000
vt 0.004243 0.280000
vt 0.004243 0.290000
vt 0.004000 0.290000
vt 0.004000 0.350000
vt 0.002000 0.290000
vt 0.002000 0.350000
vt -0.002000 0.290000
vt -0.002000 0.350000
vt -0.004000 0.290000
vt -0.004000 0.350000
vt -0.002000 0.290000
vt -0.002000 0.350000
vt 0.002000 0.290000
vt 0.002000 0.350000
vt 0.020000 0.285000
vt 0.005000 0.295000
vt 0.018478 0.285000
vt 0.004619 0.295000
vt 0.014142 0.285000
vt 0.003536 0.295000
vt 0.007654 0.285000
vt 0.001913 0.295000
vt 0.000000 0.285000
vt 0.000000 0.295000
vt -0.007654 0.285000
vt -0.001913 0.295000
vt -0.014142 0.285000
vt -0.003536 0.295000
vt -0.018478 0.285000
vt -0.004619 0.295000
vt -0.020000 0.285000
vt -0.005000 0.295000
vt -0.018478 0.285000
vt -0.004619 0.295000
vt -0.014142 0.285000
vt -0.003536 0.295000
vt -0.007654 0.285000
vt -0.001913 0.295000
vt -0.000000 0.285000
vt -0.000000 0.295000
vt 0.007654 0.285000
vt 0.001913 0.295000
vt 0.014142 0.285000
vt 0.003536 0.295000
vt 0.018478 0.285000
vt 0.004619 0.295000
vt 0.006000 0.280000
vt 0.006000 0.290000
vt 0.004243 0.280000
vt 0.004243 0.290000
vt 0.000000 0.280000
vt 0.000000 0.290000
vt -0.004243 0.280000
vt -0.004243 0.290000
vt -0.006000 0.280000
vt -0.006000 0.290000
vt -0.004243 0.280000
vt -0.004243 0.290000
vt -0.000000 0.280000
vt -0.000000 0.290000
vt 0.004243 0.280000
vt 0.004243 0.290000
usemtl AgedWood
f 1/1 2/2 3/3
f 1/1 3/3 4/4
f 5/5 6/6 7/7
f 5/5 7/7 8/8
f 9/9 10/10 11/11
f 9/9 11/11 12/12
f 13/13 14/14 15/15
f 13/13 15/15 16/16
f 17/17 18/18 19/19
f 17/17 19/19 20/20
f 21/21 22/22 23/23
f 21/21 23/23 24/24
usemtl DarkIron
f 25/25 26/26 27/27
f 25/25 27/27 28/28
f 29/29 30/30 31/31
f 29/29 31/31 32/32
f 33/33 34/34 35/35
f 33/33 35/35 36/36
f 37/37 38/38 39/39
f 37/37 39/39 40/40
f 41/41 42/42 43/43
f 41/41 43/43 44/44
f 45/45 46/46 47/47
f 45/45 47/47 48/48
f 49/49 50/50 51/51
f 49/49 51/51 52/52
f 53/53 54/54 55/55
f 53/53 55/55 56/56
f 57/57 58/58 59/59
f 57/57 59/59 60/60
f 61/61 62/62 63/63
f 61/61 63/63 64/64
f 65/65 66/66 67/67
f 65/65 67/67 68/68
f 69/69 70/70 71/71
f 69/69 71/71 72/72
f 73/73 74/74 75/75
f 73/73 75/75 76/76
f 77/77 78/78 79/79
f 77/77 79/79 80/80
f 81/81 82/82 83/83
f 81/81 83/83 84/84
f 85/85 86/86 87/87
f 85/85 87/87 88/88
f 89/89 90/90 91/91
f 89/89 91/91 92/92
f 93/93 94/94 95/95
f 93/93 95/95 96/96
f 97/97 98/98 99/99
f 97/97 99/99 100/100
f 101/101 102/102 103/103
f 101/101 103/103 104/104
f 105/105 106/106 107/107
f 105/105 107/107 108/108
f 109/109 110/110 111/111
f 109/109 111/111 112/112
f 113/113 114/114 115/115
f 113/113 115/115 116/116
f 117/117 118/118 119/119
f 117/117 119/119 120/120
usemtl AgedWood
f 121/121 122/122 123/123
f 121/121 123/123 124/124
f 125/125 126/126 127/127
f 125/125 127/127 128/128
f 129/129 130/130 131/131
f 129/129 131/131 132/132
f 133/133 134/134 135/135
f 133/133 135/135 136/136
f 137/137 138/138 139/139
f 137/137 139/139 140/140
f 141/141 142/142 143/143
f 141/141 143/143 144/144
f 145/145 146/146 147/147
f 145/145 147/147 148/148
f 149/149 150/150 151/151
f 149/149 151/151 152/152
f 153/153 154/154 155/155
f 153/153 155/155 156/156
f 157/157 158/158 159/159
f 157/157 159/159 160/160
f 161/161 162/162 163/163
f 161/161 163/163 164/164
f 165/165 166/166 167/167
f 165/165 167/167 168/168
usemtl TowerPaint
f 169/169 171/171 172/172
f 169/169 172/172 170/170
f 171/171 173/173 174/174
f 171/171 174/174 172/172
f 173/173 175/175 176/176
f 173/173 176/176 174/174
f 175/175 177/177 178/178
f 175/175 178/178 176/176
f 177/177 179/179 180/180
f 177/177 180/180 178/178
f 179/179 181/181 182/182
f 179/179 182/182 180/180
f 181/181 183/183 184/184
f 181/181 184/184 182/182
f 183/183 185/185 186/186
f 183/183 186/186 184/184
f 185/185 187/187 188/188
f 185/185 188/188 186/186
f 187/187 189/189 190/190
f 187/187 190/190 188/188
f 189/189 191/191 192/192
f 189/189 192/192 190/190
f 191/191 169/169 170/170
f 191/191 170/170 192/192
f 191/191 189/189 187/187 185/185 183/183 181/181 179/179 177/177 175/175 173/173 171/171 169/169
f 170/170 172/172 174/174 176/176 178/178 180/180 182/182 184/184 186/186 188/188 190/190 192/192
usemtl WarmBrass
f 193/193 195/195 196/196
f 193/193 196/196 194/194
f 195/195 197/197 198/198
f 195/195 198/198 196/196
f 197/197 199/199 200/200
f 197/197 200/200 198/198
f 199/199 201/201 202/202
f 199/199 202/202 200/200
f 201/201 203/203 204/204
f 201/201 204/204 202/202
f 203/203 205/205 206/206
f 203/203 206/206 204/204
f 205/205 207/207 208/208
f 205/205 208/208 206/206
f 207/207 193/193 194/194
f 207/207 194/194 208/208
f 207/207 205/205 203/203 201/201 199/199 197/197 195/195 193/193
f 194/194 196/196 198/198 200/200 202/202 204/204 206/206 208/208
usemtl TowerPaint
f 209/209 211/211 212/212
f 209/209 212/212 210/210
f 211/211 213/213 214/214
f 211/211 214/214 212/212
f 213/213 215/215 216/216
f 213/213 216/216 214/214
f 215/215 217/217 218/218
f 215/215 218/218 216/216
f 217/217 219/219 220/220
f 217/217 220/220 218/218
f 219/219 221/221 222/222
f 219/219 222/222 220/220
f 221/221 223/223 224/224
f 221/221 224/224 222/222
f 223/223 225/225 226/226
f 223/223 226/226 224/224
f 225/225 227/227 228/228
f 225/225 228/228 226/226
f 227/227 229/229 230/230
f 227/227 230/230 228/228
f 229/229 231/231 232/232
f 229/229 232/232 230/230
f 231/231 209/209 210/210
f 231/231 210/210 232/232
f 231/231 229/229 227/227 225/225 223/223 221/221 219/219 217/217 215/215 213/213 211/211 209/209
f 210/210 212/212 214/214 216/216 218/218 220/220 222/222 224/224 226/226 228/228 230/230 232/232
usemtl WarmBrass
f 233/233 235/235 236/236
f 233/233 236/236 234/234
f 235/235 237/237 238/238
f 235/235 238/238 236/236
f 237/237 239/239 240/240
f 237/237 240/240 238/238
f 239/239 241/241 242/242
f 239/239 242/242 240/240
f 241/241 243/243 244/244
f 241/241 244/244 242/242
f 243/243 245/245 246/246
f 243/243 246/246 244/244
f 245/245 247/247 248/248
f 245/245 248/248 246/246
f 247/247 233/233 234/234
f 247/247 234/234 248/248
f 247/247 245/245 243/243 241/241 239/239 237/237 235/235 233/233
f 234/234 236/236 238/238 240/240 242/242 244/244 246/246 248/248
usemtl TowerPaint
f 249/249 251/251 252/252
f 249/249 252/252 250/250
f 251/251 253/253 254/254
f 251/251 254/254 252/252
f 253/253 255/255 256/256
f 253/253 256/256 254/254
f 255/255 257/257 258/258
f 255/255 258/258 256/256
f 257/257 259/259 260/260
f 257/257 260/260 258/258
f 259/259 261/261 262/262
f 259/259 262/262 260/260
f 261/261 263/263 264/264
f 261/261 264/264 262/262
f 263/263 265/265 266/266
f 263/263 266/266 264/264
f 265/265 267/267 268/268
f 265/265 268/268 266/266
f 267/267 269/269 270/270
f 267/267 270/270 268/268
f 269/269 271/271 272/272
f 269/269 272/272 270/270
f 271/271 249/249 250/250
f 271/271 250/250 272/272
f 271/271 269/269 267/267 265/265 263/263 261/261 259/259 257/257 255/255 253/253 251/251 249/249
f 250/250 252/252 254/254 256/256 258/258 260/260 262/262 264/264 266/266 268/268 270/270 272/272
usemtl WarmBrass
f 273/273 275/275 276/276
f 273/273 276/276 274/274
f 275/275 277/277 278/278
f 275/275 278/278 276/276
f 277/277 279/279 280/280
f 277/277 280/280 278/278
f 279/279 281/281 282/282
f 279/279 282/282 280/280
f 281/281 283/283 284/284
f 281/281 284/284 282/282
f 283/283 285/285 286/286
f 283/283 286/286 284/284
f 285/285 287/287 288/288
f 285/285 288/288 286/286
f 287/287 273/273 274/274
f 287/287 274/274 288/288
f 287/287 285/285 283/283 281/281 279/279 277/277 275/275 273/273
f 274/274 276/276 278/278 280/280 282/282 284/284 286/286 288/288
usemtl AgedWood
f 289/289 290/290 291/291
f 289/289 291/291 292/292
f 293/293 294/294 295/295
f 293/293 295/295 296/296
f 297/297 298/298 299/299
f 297/297 299/299 300/300
f 301/301 302/302 303/303
f 301/301 303/303 304/304
f 305/305 306/306 307/307
f 305/305 307/307 308/308
f 309/309 310/310 311/311
f 309/309 311/311 312/312
f 313/313 314/314 315/315
f 313/313 315/315 316/316
f 317/317 318/318 319/319
f 317/317 319/319 320/320
f 321/321 322/322 323/323
f 321/321 323/323 324/324
f 325/325 326/326 327/327
f 325/325 327/327 328/328
f 329/329 330/330 331/331
f 329/329 331/331 332/332
f 333/333 334/334 335/335
f 333/333 335/335 336/336
f 337/337 338/338 339/339
f 337/337 339/339 340/340
f 341/341 342/342 343/343
f 341/341 343/343 344/344
f 345/345 346/346 347/347
f 345/345 347/347 348/348
f 349/349 350/350 351/351
f 349/349 351/351 352/352
f 353/353 354/354 355/355
f 353/353 355/355 356/356
f 357/357 358/358 359/359
f 357/357 359/359 360/360
usemtl DarkIron
f 361/361 362/362 363/363
f 361/361 363/363 364/364
f 365/365 366/366 367/367
f 365/365 367/367 368/368
f 369/369 370/370 371/371
f 369/369 371/371 372/372
f 373/373 374/374 375/375
f 373/373 375/375 376/376
f 377/377 378/378 379/379
f 377/377 379/379 380/380
f 381/381 382/382 383/383
f 381/381 383/383 384/384
f 385/385 386/386 387/387
f 385/385 387/387 388/388
f 389/389 390/390 391/391
f 389/389 391/391 392/392
f 393/393 394/394 395/395
f 393/393 395/395 396/396
f 397/397 398/398 399/399
f 397/397 399/399 400/400
f 401/401 402/402 403/403
f 401/401 403/403 404/404
f 405/405 406/406 407/407
f 405/405 407/407 408/408
f 409/409 411/411 412/412
f 409/409 412/412 410/410
f 411/411 413/413 414/414
f 411/411 414/414 412/412
f 413/413 415/415 416/416
f 413/413 416/416 414/414
f 415/415 417/417 418/418
f 415/415 418/418 416/416
f 417/417 419/419 420/420
f 417/417 420/420 418/418
f 419/419 409/409 410/410
f 419/419 410/410 420/420
f 419/419 417/417 415/415 413/413 411/411 409/409
f 410/410 412/412 414/414 416/416 418/418 420/420
usemtl WarmBrass
f 421/421 423/423 424/424
f 421/421 424/424 422/422
f 423/423 425/425 426/426
f 423/423 426/426 424/424
f 425/425 427/427 428/428
f 425/425 428/428 426/426
f 427/427 429/429 430/430
f 427/427 430/430 428/428
f 429/429 431/431 432/432
f 429/429 432/432 430/430
f 431/431 433/433 434/434
f 431/431 434/434 432/432
f 433/433 435/435 436/436
f 433/433 436/436 434/434
f 435/435 437/437 438/438
f 435/435 438/438 436/436
f 437/437 439/439 440/440
f 437/437 440/440 438/438
f 439/439 441/441 442/442
f 439/439 442/442 440/440
f 441/441 443/443 444/444
f 441/441 444/444 442/442
f 443/443 445/445 446/446
f 443/443 446/446 444/444
f 445/445 447/447 448/448
f 445/445 448/448 446/446
f 447/447 449/449 450/450
f 447/447 450/450 448/448
f 449/449 451/451 452/452
f 449/449 452/452 450/450
f 451/451 421/421 422/422
f 451/451 422/422 452/452
f 451/451 449/449 447/447 445/445 443/443 441/441 439/439 437/437 435/435 433/433 431/431 429/429 427/427 425/425 423/423 421/421
f 422/422 424/424 426/426 428/428 430/430 432/432 434/434 436/436 438/438 440/440 442/442 444/444 446/446 448/448 450/450 452/452
usemtl LanternGlass
f 453/453 455/455 456/456
f 453/453 456/456 454/454
f 455/455 457/457 458/458
f 455/455 458/458 456/456
f 457/457 459/459 460/460
f 457/457 460/460 458/458
f 459/459 461/461 462/462
f 459/459 462/462 460/460
f 461/461 463/463 464/464
f 461/461 464/464 462/462
f 463/463 465/465 466/466
f 463/463 466/466 464/464
f 465/465 467/467 468/468
f 465/465 468/468 466/466
f 467/467 453/453 454/454
f 467/467 454/454 468/468
f 467/467 465/465 463/463 461/461 459/459 457/457 455/455 453/453
f 454/454 456/456 458/458 460/460 462/462 464/464 466/466 468/468
usemtl DarkIron
f 469/469 471/471 472/472
f 469/469 472/472 470/470
f 471/471 473/473 474/474
f 471/471 474/474 472/472
f 473/473 475/475 476/476
f 473/473 476/476 474/474
f 475/475 477/477 478/478
f 475/475 478/478 476/476
f 477/477 479/479 480/480
f 477/477 480/480 478/478
f 479/479 469/469 470/470
f 479/479 470/470 480/480
f 479/479 477/477 475/475 473/473 471/471 469/469
f 470/470 472/472 474/474 476/476 478/478 480/480
usemtl WarmBrass
f 481/481 483/483 484/484
f 481/481 484/484 482/482
f 483/483 485/485 486/486
f 483/483 486/486 484/484
f 485/485 487/487 488/488
f 485/485 488/488 486/486
f 487/487 489/489 490/490
f 487/487 490/490 488/488
f 489/489 491/491 492/492
f 489/489 492/492 490/490
f 491/491 493/493 494/494
f 491/491 494/494 492/492
f 493/493 495/495 496/496
f 493/493 496/496 494/494
f 495/495 497/497 498/498
f 495/495 498/498 496/496
f 497/497 499/499 500/500
f 497/497 500/500 498/498
f 499/499 501/501 502/502
f 499/499 502/502 500/500
f 501/501 503/503 504/504
f 501/501 504/504 502/502
f 503/503 505/505 506/506
f 503/503 506/506 504/504
f 505/505 507/507 508/508
f 505/505 508/508 506/506
f 507/507 509/509 510/510
f 507/507 510/510 508/508
f 509/509 511/511 512/512
f 509/509 512/512 510/510
f 511/511 481/481 482/482
f 511/511 482/482 512/512
f 511/511 509/509 507/507 505/505 503/503 501/501 499/499 497/497 495/495 493/493 491/491 489/489 487/487 485/485 483/483 481/481
f 482/482 484/484 486/486 488/488 490/490 492/492 494/494 496/496 498/498 500/500 502/502 504/504 506/506 508/508 510/510 512/512
usemtl LanternGlass
f 513/513 515/515 516/516
f 513/513 516/516 514/514
f 515/515 517/517 518/518
f 515/515 518/518 516/516
f 517/517 519/519 520/520
f 517/517 520/520 518/518
f 519/519 521/521 522/522
f 519/519 522/522 520/520
f 521/521 523/523 524/524
f 521/521 524/524 522/522
f 523/523 525/525 526/526
f 523/523 526/526 524/524
f 525/525 527/527 528/528
f 525/525 528/528 526/526
f 527/527 513/513 514/514
f 527/527 514/514 528/528
f 527/527 525/525 523/523 521/521 519/519 517/517 515/515 513/513
f 514/514 516/516 518/518 520/520 522/522 524/524 526/526 528/528
usemtl DarkIron
f 529/529 531/531 532/532
f 529/529 532/532 530/530
f 531/531 533/533 534/534
f 531/531 534/534 532/532
f 533/533 535/535 536/536
f 533/533 536/536 534/534
f 535/535 537/537 538/538
f 535/535 538/538 536/536
f 537/537 539/539 540/540
f 537/537 540/540 538/538
f 539/539 529/529 530/530
f 539/539 530/530 540/540
f 539/539 537/537 535/535 533/533 531/531 529/529
f 530/530 532/532 534/534 536/536 538/538 540/540
usemtl WarmBrass
f 541/541 543/543 544/544
f 541/541 544/544 542/542
f 543/543 545/545 546/546
f 543/543 546/546 544/544
f 545/545 547/547 548/548
f 545/545 548/548 546/546
f 547/547 549/549 550/550
f 547/547 550/550 548/548
f 549/549 551/551 552/552
f 549/549 552/552 550/550
f 551/551 553/553 554/554
f 551/551 554/554 552/552
f 553/553 555/555 556/556
f 553/553 556/556 554/554
f 555/555 557/557 558/558
f 555/555 558/558 556/556
f 557/557 559/559 560/560
f 557/557 560/560 558/558
f 559/559 561/561 562/562
f 559/559 562/562 560/560
f 561/561 563/563 564/564
f 561/561 564/564 562/562
f 563/563 565/565 566/566
f 563/563 566/566 564/564
f 565/565 567/567 568/568
f 565/565 568/568 566/566
f 567/567 569/569 570/570
f 567/567 570/570 568/568
f 569/569 571/571 572/572
f 569/569 572/572 570/570
f 571/571 541/541 542/542
f 571/571 542/542 572/572
f 571/571 569/569 567/567 565/565 563/563 561/561 559/559 557/557 555/555 553/553 551/551 549/549 547/547 545/545 543/543 541/541
f 542/542 544/544 546/546 548/548 550/550 552/552 554/554 556/556 558/558 560/560 562/562 564/564 566/566 568/568 570/570 572/572
usemtl LanternGlass
f 573/573 575/575 576/576
f 573/573 576/576 574/574
f 575/575 577/577 578/578
f 575/575 578/578 576/576
f 577/577 579/579 580/580
f 577/577 580/580 578/578
f 579/579 581/581 582/582
f 579/579 582/582 580/580
f 581/581 583/583 584/584
f 581/581 584/584 582/582
f 583/583 585/585 586/586
f 583/583 586/586 584/584
f 585/585 587/587 588/588
f 585/585 588/588 586/586
f 587/587 573/573 574/574
f 587/587 574/574 588/588
f 587/587 585/585 583/583 581/581 579/579 577/577 575/575 573/573
f 574/574 576/576 578/578 580/580 582/582 584/584 586/586 588/588
