mtllib SM_BB_GeneratorAnnex_Arch.mtl
o SM_BB_GeneratorAnnex_Arch
v -200.0000 -400.0000 0.0000
v -160.0000 -400.0000 0.0000
v -160.0000 400.0000 0.0000
v -200.0000 400.0000 0.0000
v -200.0000 -400.0000 300.0000
v -200.0000 400.0000 300.0000
v -160.0000 400.0000 300.0000
v -160.0000 -400.0000 300.0000
v -200.0000 -400.0000 0.0000
v -200.0000 -400.0000 300.0000
v -160.0000 -400.0000 300.0000
v -160.0000 -400.0000 0.0000
v -200.0000 400.0000 0.0000
v -160.0000 400.0000 0.0000
v -160.0000 400.0000 300.0000
v -200.0000 400.0000 300.0000
v -200.0000 -400.0000 0.0000
v -200.0000 400.0000 0.0000
v -200.0000 400.0000 300.0000
v -200.0000 -400.0000 300.0000
v -160.0000 -400.0000 0.0000
v -160.0000 -400.0000 300.0000
v -160.0000 400.0000 300.0000
v -160.0000 400.0000 0.0000
v 160.0000 -400.0000 0.0000
v 200.0000 -400.0000 0.0000
v 200.0000 400.0000 0.0000
v 160.0000 400.0000 0.0000
v 160.0000 -400.0000 300.0000
v 160.0000 400.0000 300.0000
v 200.0000 400.0000 300.0000
v 200.0000 -400.0000 300.0000
v 160.0000 -400.0000 0.0000
v 160.0000 -400.0000 300.0000
v 200.0000 -400.0000 300.0000
v 200.0000 -400.0000 0.0000
v 160.0000 400.0000 0.0000
v 200.0000 400.0000 0.0000
v 200.0000 400.0000 300.0000
v 160.0000 400.0000 300.0000
v 160.0000 -400.0000 0.0000
v 160.0000 400.0000 0.0000
v 160.0000 400.0000 300.0000
v 160.0000 -400.0000 300.0000
v 200.0000 -400.0000 0.0000
v 200.0000 -400.0000 300.0000
v 200.0000 400.0000 300.0000
v 200.0000 400.0000 0.0000
v -200.0000 -400.0000 0.0000
v 200.0000 -400.0000 0.0000
v 200.0000 -360.0000 0.0000
v -200.0000 -360.0000 0.0000
v -200.0000 -400.0000 300.0000
v -200.0000 -360.0000 300.0000
v 200.0000 -360.0000 300.0000
v 200.0000 -400.0000 300.0000
v -200.0000 -400.0000 0.0000
v -200.0000 -400.0000 300.0000
v 200.0000 -400.0000 300.0000
v 200.0000 -400.0000 0.0000
v -200.0000 -360.0000 0.0000
v 200.0000 -360.0000 0.0000
v 200.0000 -360.0000 300.0000
v -200.0000 -360.0000 300.0000
v -200.0000 -400.0000 0.0000
v -200.0000 -360.0000 0.0000
v -200.0000 -360.0000 300.0000
v -200.0000 -400.0000 300.0000
v 200.0000 -400.0000 0.0000
v 200.0000 -400.0000 300.0000
v 200.0000 -360.0000 300.0000
v 200.0000 -360.0000 0.0000
v -200.0000 360.0000 0.0000
v 200.0000 360.0000 0.0000
v 200.0000 400.0000 0.0000
v -200.0000 400.0000 0.0000
v -200.0000 360.0000 300.0000
v -200.0000 400.0000 300.0000
v 200.0000 400.0000 300.0000
v 200.0000 360.0000 300.0000
v -200.0000 360.0000 0.0000
v -200.0000 360.0000 300.0000
v 200.0000 360.0000 300.0000
v 200.0000 360.0000 0.0000
v -200.0000 400.0000 0.0000
v 200.0000 400.0000 0.0000
v 200.0000 400.0000 300.0000
v -200.0000 400.0000 300.0000
v -200.0000 360.0000 0.0000
v -200.0000 400.0000 0.0000
v -200.0000 400.0000 300.0000
v -200.0000 360.0000 300.0000
v 200.0000 360.0000 0.0000
v 200.0000 360.0000 300.0000
v 200.0000 400.0000 300.0000
v 200.0000 400.0000 0.0000
v -200.0000 -395.0000 300.0000
v 200.0000 -395.0000 300.0000
v 200.0000 -365.0000 300.0000
v -200.0000 -365.0000 300.0000
v -200.0000 -395.0000 400.0000
v -200.0000 -365.0000 400.0000
v 200.0000 -365.0000 400.0000
v 200.0000 -395.0000 400.0000
v -200.0000 -395.0000 300.0000
v -200.0000 -395.0000 400.0000
v 200.0000 -395.0000 400.0000
v 200.0000 -395.0000 300.0000
v -200.0000 -365.0000 300.0000
v 200.0000 -365.0000 300.0000
v 200.0000 -365.0000 400.0000
v -200.0000 -365.0000 400.0000
v -200.0000 -395.0000 300.0000
v -200.0000 -365.0000 300.0000
v -200.0000 -365.0000 400.0000
v -200.0000 -395.0000 400.0000
v 200.0000 -395.0000 300.0000
v 200.0000 -395.0000 400.0000
v 200.0000 -365.0000 400.0000
v 200.0000 -365.0000 300.0000
v -200.0000 365.0000 300.0000
v 200.0000 365.0000 300.0000
v 200.0000 395.0000 300.0000
v -200.0000 395.0000 300.0000
v -200.0000 365.0000 400.0000
v -200.0000 395.0000 400.0000
v 200.0000 395.0000 400.0000
v 200.0000 365.0000 400.0000
v -200.0000 365.0000 300.0000
v -200.0000 365.0000 400.0000
v 200.0000 365.0000 400.0000
v 200.0000 365.0000 300.0000
v -200.0000 395.0000 300.0000
v 200.0000 395.0000 300.0000
v 200.0000 395.0000 400.0000
v -200.0000 395.0000 400.0000
v -200.0000 365.0000 300.0000
v -200.0000 395.0000 300.0000
v -200.0000 395.0000 400.0000
v -200.0000 365.0000 400.0000
v 200.0000 365.0000 300.0000
v 200.0000 365.0000 400.0000
v 200.0000 395.0000 400.0000
v 200.0000 395.0000 300.0000
v -347.0146 -357.0487 355.0000
v -140.2823 -432.2931 355.0000
v 147.0146 357.0487 355.0000
v -59.7177 432.2931 355.0000
v -347.0146 -357.0487 365.0000
v -59.7177 432.2931 365.0000
v 147.0146 357.0487 365.0000
v -140.2823 -432.2931 365.0000
v -347.0146 -357.0487 355.0000
v -347.0146 -357.0487 365.0000
v -140.2823 -432.2931 365.0000
v -140.2823 -432.2931 355.0000
v -59.7177 432.2931 355.0000
v 147.0146 357.0487 355.0000
v 147.0146 357.0487 365.0000
v -59.7177 432.2931 365.0000
v -347.0146 -357.0487 355.0000
v -59.7177 432.2931 355.0000
v -59.7177 432.2931 365.0000
v -347.0146 -357.0487 365.0000
v -140.2823 -432.2931 355.0000
v -140.2823 -432.2931 365.0000
v 147.0146 357.0487 365.0000
v 147.0146 357.0487 355.0000
v 140.2823 -432.2931 355.0000
v 347.0146 -357.0487 355.0000
v 59.7177 432.2931 355.0000
v -147.0146 357.0487 355.0000
v 140.2823 -432.2931 365.0000
v -147.0146 357.0487 365.0000
v 59.7177 432.2931 365.0000
v 347.0146 -357.0487 365.0000
v 140.2823 -432.2931 355.0000
v 140.2823 -432.2931 365.0000
v 347.0146 -357.0487 365.0000
v 347.0146 -357.0487 355.0000
v -147.0146 357.0487 355.0000
v 59.7177 432.2931 355.0000
v 59.7177 432.2931 365.0000
v -147.0146 357.0487 365.0000
v 140.2823 -432.2931 355.0000
v -147.0146 357.0487 355.0000
v -147.0146 357.0487 365.0000
v 140.2823 -432.2931 365.0000
v 347.0146 -357.0487 355.0000
v 347.0146 -357.0487 365.0000
v 59.7177 432.2931 365.0000
v 59.7177 432.2931 355.0000
v 15.0000 0.0000 -25.0000
v 15.0000 0.0000 815.0000
v 10.6066 10.6066 -25.0000
v 10.6066 10.6066 815.0000
v 0.0000 15.0000 -25.0000
v 0.0000 15.0000 815.0000
v -10.6066 10.6066 -25.0000
v -10.6066 10.6066 815.0000
v -15.0000 0.0000 -25.0000
v -15.0000 0.0000 815.0000
v -10.6066 -10.6066 -25.0000
v -10.6066 -10.6066 815.0000
v -0.0000 -15.0000 -25.0000
v -0.0000 -15.0000 815.0000
v 10.6066 -10.6066 -25.0000
v 10.6066 -10.6066 815.0000
v -212.5000 -420.0000 302.5000
v -197.5000 -420.0000 302.5000
v -197.5000 420.0000 302.5000
v -212.5000 420.0000 302.5000
v -212.5000 -420.0000 317.5000
v -212.5000 420.0000 317.5000
v -197.5000 420.0000 317.5000
v -197.5000 -420.0000 317.5000
v -212.5000 -420.0000 302.5000
v -212.5000 -420.0000 317.5000
v -197.5000 -420.0000 317.5000
v -197.5000 -420.0000 302.5000
v -212.5000 420.0000 302.5000
v -197.5000 420.0000 302.5000
v -197.5000 420.0000 317.5000
v -212.5000 420.0000 317.5000
v -212.5000 -420.0000 302.5000
v -212.5000 420.0000 302.5000
v -212.5000 420.0000 317.5000
v -212.5000 -420.0000 317.5000
v -197.5000 -420.0000 302.5000
v -197.5000 -420.0000 317.5000
v -197.5000 420.0000 317.5000
v -197.5000 420.0000 302.5000
v -199.0000 -390.0000 0.0000
v -199.0000 -390.0000 300.0000
v -200.7574 -385.7574 0.0000
v -200.7574 -385.7574 300.0000
v -205.0000 -384.0000 0.0000
v -205.0000 -384.0000 300.0000
v -209.2426 -385.7574 0.0000
v -209.2426 -385.7574 300.0000
v -211.0000 -390.0000 0.0000
v -211.0000 -390.0000 300.0000
v -209.2426 -394.2426 0.0000
v -209.2426 -394.2426 300.0000
v -205.0000 -396.0000 0.0000
v -205.0000 -396.0000 300.0000
v -200.7574 -394.2426 0.0000
v -200.7574 -394.2426 300.0000
v -199.0000 390.0000 0.0000
v -199.0000 390.0000 300.0000
v -200.7574 394.2426 0.0000
v -200.7574 394.2426 300.0000
v -205.0000 396.0000 0.0000
v -205.0000 396.0000 300.0000
v -209.2426 394.2426 0.0000
v -209.2426 394.2426 300.0000
v -211.0000 390.0000 0.0000
v -211.0000 390.0000 300.0000
v -209.2426 385.7574 0.0000
v -209.2426 385.7574 300.0000
v -205.0000 384.0000 0.0000
v -205.0000 384.0000 300.0000
v -200.7574 385.7574 0.0000
v -200.7574 385.7574 300.0000
v 197.5000 -420.0000 302.5000
v 212.5000 -420.0000 302.5000
v 212.5000 420.0000 302.5000
v 197.5000 420.0000 302.5000
v 197.5000 -420.0000 317.5000
v 197.5000 420.0000 317.5000
v 212.5000 420.0000 317.5000
v 212.5000 -420.0000 317.5000
v 197.5000 -420.0000 302.5000
v 197.5000 -420.0000 317.5000
v 212.5000 -420.0000 317.5000
v 212.5000 -420.0000 302.5000
v 197.5000 420.0000 302.5000
v 212.5000 420.0000 302.5000
v 212.5000 420.0000 317.5000
v 197.5000 420.0000 317.5000
v 197.5000 -420.0000 302.5000
v 197.5000 420.0000 302.5000
v 197.5000 420.0000 317.5000
v 197.5000 -420.0000 317.5000
v 212.5000 -420.0000 302.5000
v 212.5000 -420.0000 317.5000
v 212.5000 420.0000 317.5000
v 212.5000 420.0000 302.5000
v 211.0000 -390.0000 0.0000
v 211.0000 -390.0000 300.0000
v 209.2426 -385.7574 0.0000
v 209.2426 -385.7574 300.0000
v 205.0000 -384.0000 0.0000
v 205.0000 -384.0000 300.0000
v 200.7574 -385.7574 0.0000
v 200.7574 -385.7574 300.0000
v 199.0000 -390.0000 0.0000
v 199.0000 -390.0000 300.0000
v 200.7574 -394.2426 0.0000
v 200.7574 -394.2426 300.0000
v 205.0000 -396.0000 0.0000
v 205.0000 -396.0000 300.0000
v 209.2426 -394.2426 0.0000
v 209.2426 -394.2426 300.0000
v 211.0000 390.0000 0.0000
v 211.0000 390.0000 300.0000
v 209.2426 394.2426 0.0000
v 209.2426 394.2426 300.0000
v 205.0000 396.0000 0.0000
v 205.0000 396.0000 300.0000
v 200.7574 394.2426 0.0000
v 200.7574 394.2426 300.0000
v 199.0000 390.0000 0.0000
v 199.0000 390.0000 300.0000
v 200.7574 385.7574 0.0000
v 200.7574 385.7574 300.0000
v 205.0000 384.0000 0.0000
v 205.0000 384.0000 300.0000
v 209.2426 385.7574 0.0000
v 209.2426 385.7574 300.0000
v -200.0000 -70.0000 0.0000
v -180.0000 -70.0000 0.0000
v -180.0000 70.0000 0.0000
v -200.0000 70.0000 0.0000
v -200.0000 -70.0000 240.0000
v -200.0000 70.0000 240.0000
v -180.0000 70.0000 240.0000
v -180.0000 -70.0000 240.0000
v -200.0000 -70.0000 0.0000
v -200.0000 -70.0000 240.0000
v -180.0000 -70.0000 240.0000
v -180.0000 -70.0000 0.0000
v -200.0000 70.0000 0.0000
v -180.0000 70.0000 0.0000
v -180.0000 70.0000 240.0000
v -200.0000 70.0000 240.0000
v -200.0000 -70.0000 0.0000
v -200.0000 70.0000 0.0000
v -200.0000 70.0000 240.0000
v -200.0000 -70.0000 240.0000
v -180.0000 -70.0000 0.0000
v -180.0000 -70.0000 240.0000
v -180.0000 70.0000 240.0000
v -180.0000 70.0000 0.0000
v -210.0000 -90.0000 0.0000
v -180.0000 -90.0000 0.0000
v -180.0000 -70.0000 0.0000
v -210.0000 -70.0000 0.0000
v -210.0000 -90.0000 240.0000
v -210.0000 -70.0000 240.0000
v -180.0000 -70.0000 240.0000
v -180.0000 -90.0000 240.0000
v -210.0000 -90.0000 0.0000
v -210.0000 -90.0000 240.0000
v -180.0000 -90.0000 240.0000
v -180.0000 -90.0000 0.0000
v -210.0000 -70.0000 0.0000
v -180.0000 -70.0000 0.0000
v -180.0000 -70.0000 240.0000
v -210.0000 -70.0000 240.0000
v -210.0000 -90.0000 0.0000
v -210.0000 -70.0000 0.0000
v -210.0000 -70.0000 240.0000
v -210.0000 -90.0000 240.0000
v -180.0000 -90.0000 0.0000
v -180.0000 -90.0000 240.0000
v -180.0000 -70.0000 240.0000
v -180.0000 -70.0000 0.0000
v -210.0000 70.0000 0.0000
v -180.0000 70.0000 0.0000
v -180.0000 90.0000 0.0000
v -210.0000 90.0000 0.0000
v -210.0000 70.0000 240.0000
v -210.0000 90.0000 240.0000
v -180.0000 90.0000 240.0000
v -180.0000 70.0000 240.0000
v -210.0000 70.0000 0.0000
v -210.0000 70.0000 240.0000
v -180.0000 70.0000 240.0000
v -180.0000 70.0000 0.0000
v -210.0000 90.0000 0.0000
v -180.0000 90.0000 0.0000
v -180.0000 90.0000 240.0000
v -210.0000 90.0000 240.0000
v -210.0000 70.0000 0.0000
v -210.0000 90.0000 0.0000
v -210.0000 90.0000 240.0000
v -210.0000 70.0000 240.0000
v -180.0000 70.0000 0.0000
v -180.0000 70.0000 240.0000
v -180.0000 90.0000 240.0000
v -180.0000 90.0000 0.0000
v -210.0000 -90.0000 240.0000
v -180.0000 -90.0000 240.0000
v -180.0000 90.0000 240.0000
v -210.0000 90.0000 240.0000
v -210.0000 -90.0000 260.0000
v -210.0000 90.0000 260.0000
v -180.0000 90.0000 260.0000
v -180.0000 -90.0000 260.0000
v -210.0000 -90.0000 240.0000
v -210.0000 -90.0000 260.0000
v -180.0000 -90.0000 260.0000
v -180.0000 -90.0000 240.0000
v -210.0000 90.0000 240.0000
v -180.0000 90.0000 240.0000
v -180.0000 90.0000 260.0000
v -210.0000 90.0000 260.0000
v -210.0000 -90.0000 240.0000
v -210.0000 90.0000 240.0000
v -210.0000 90.0000 260.0000
v -210.0000 -90.0000 260.0000
v -180.0000 -90.0000 240.0000
v -180.0000 -90.0000 260.0000
v -180.0000 90.0000 260.0000
v -180.0000 90.0000 240.0000
v 175.0000 -240.0000 150.0000
v 205.0000 -240.0000 150.0000
v 205.0000 -160.0000 150.0000
v 175.0000 -160.0000 150.0000
v 175.0000 -240.0000 210.0000
v 175.0000 -160.0000 210.0000
v 205.0000 -160.0000 210.0000
v 205.0000 -240.0000 210.0000
v 175.0000 -240.0000 150.0000
v 175.0000 -240.0000 210.0000
v 205.0000 -240.0000 210.0000
v 205.0000 -240.0000 150.0000
v 175.0000 -160.0000 150.0000
v 205.0000 -160.0000 150.0000
v 205.0000 -160.0000 210.0000
v 175.0000 -160.0000 210.0000
v 175.0000 -240.0000 150.0000
v 175.0000 -160.0000 150.0000
v 175.0000 -160.0000 210.0000
v 175.0000 -240.0000 210.0000
v 205.0000 -240.0000 150.0000
v 205.0000 -240.0000 210.0000
v 205.0000 -160.0000 210.0000
v 205.0000 -160.0000 150.0000
v 192.0000 -220.0000 150.0000
v 192.0000 -220.0000 210.0000
v 190.0000 -218.0000 150.0000
v 190.0000 -218.0000 210.0000
v 188.0000 -220.0000 150.0000
v 188.0000 -220.0000 210.0000
v 190.0000 -222.0000 150.0000
v 190.0000 -222.0000 210.0000
v 192.0000 -200.0000 150.0000
v 192.0000 -200.0000 210.0000
v 190.0000 -198.0000 150.0000
v 190.0000 -198.0000 210.0000
v 188.0000 -200.0000 150.0000
v 188.0000 -200.0000 210.0000
v 190.0000 -202.0000 150.0000
v 190.0000 -202.0000 210.0000
v 192.0000 -180.0000 150.0000
v 192.0000 -180.0000 210.0000
v 190.0000 -178.0000 150.0000
v 190.0000 -178.0000 210.0000
v 188.0000 -180.0000 150.0000
v 188.0000 -180.0000 210.0000
v 190.0000 -182.0000 150.0000
v 190.0000 -182.0000 210.0000
v 175.0000 160.0000 150.0000
v 205.0000 160.0000 150.0000
v 205.0000 240.0000 150.0000
v 175.0000 240.0000 150.0000
v 175.0000 160.0000 210.0000
v 175.0000 240.0000 210.0000
v 205.0000 240.0000 210.0000
v 205.0000 160.0000 210.0000
v 175.0000 160.0000 150.0000
v 175.0000 160.0000 210.0000
v 205.0000 160.0000 210.0000
v 205.0000 160.0000 150.0000
v 175.0000 240.0000 150.0000
v 205.0000 240.0000 150.0000
v 205.0000 240.0000 210.0000
v 175.0000 240.0000 210.0000
v 175.0000 160.0000 150.0000
v 175.0000 240.0000 150.0000
v 175.0000 240.0000 210.0000
v 175.0000 160.0000 210.0000
v 205.0000 160.0000 150.0000
v 205.0000 160.0000 210.0000
v 205.0000 240.0000 210.0000
v 205.0000 240.0000 150.0000
v 192.0000 180.0000 150.0000
v 192.0000 180.0000 210.0000
v 190.0000 182.0000 150.0000
v 190.0000 182.0000 210.0000
v 188.0000 180.0000 150.0000
v 188.0000 180.0000 210.0000
v 190.0000 178.0000 150.0000
v 190.0000 178.0000 210.0000
v 192.0000 200.0000 150.0000
v 192.0000 200.0000 210.0000
v 190.0000 202.0000 150.0000
v 190.0000 202.0000 210.0000
v 188.0000 200.0000 150.0000
v 188.0000 200.0000 210.0000
v 190.0000 198.0000 150.0000
v 190.0000 198.0000 210.0000
v 192.0000 220.0000 150.0000
v 192.0000 220.0000 210.0000
v 190.0000 222.0000 150.0000
v 190.0000 222.0000 210.0000
v 188.0000 220.0000 150.0000
v 188.0000 220.0000 210.0000
v 190.0000 218.0000 150.0000
v 190.0000 218.0000 210.0000
v 120.0000 270.0000 320.0000
v 180.0000 270.0000 320.0000
v 180.0000 330.0000 320.0000
v 120.0000 330.0000 320.0000
v 120.0000 270.0000 520.0000
v 120.0000 330.0000 520.0000
v 180.0000 330.0000 520.0000
v 180.0000 270.0000 520.0000
v 120.0000 270.0000 320.0000
v 120.0000 270.0000 520.0000
v 180.0000 270.0000 520.0000
v 180.0000 270.0000 320.0000
v 120.0000 330.0000 320.0000
v 180.0000 330.0000 320.0000
v 180.0000 330.0000 520.0000
v 120.0000 330.0000 520.0000
v 120.0000 270.0000 320.0000
v 120.0000 330.0000 320.0000
v 120.0000 330.0000 520.0000
v 120.0000 270.0000 520.0000
v 180.0000 270.0000 320.0000
v 180.0000 270.0000 520.0000
v 180.0000 330.0000 520.0000
v 180.0000 330.0000 320.0000
v 175.0000 300.0000 520.0000
v 175.0000 300.0000 560.0000
v 167.6777 317.6777 520.0000
v 167.6777 317.6777 560.0000
v 150.0000 325.0000 520.0000
v 150.0000 325.0000 560.0000
v 132.3223 317.6777 520.0000
v 132.3223 317.6777 560.0000
v 125.0000 300.0000 520.0000
v 125.0000 300.0000 560.0000
v 132.3223 282.3223 520.0000
v 132.3223 282.3223 560.0000
v 150.0000 275.0000 520.0000
v 150.0000 275.0000 560.0000
v 167.6777 282.3223 520.0000
v 167.6777 282.3223 560.0000
vt -0.100000 -2.000000
vt 0.100000 -2.000000
vt 0.100000 2.000000
vt -0.100000 2.000000
vt -0.100000 -2.000000
vt -0.100000 2.000000
vt 0.100000 2.000000
vt 0.100000 -2.000000
vt -2.000000 -0.750000
vt -2.000000 0.750000
vt -2.000000 0.750000
vt -2.000000 -0.750000
vt -0.100000 2.000000
vt 0.100000 2.000000
vt 0.100000 2.000000
vt -0.100000 2.000000
vt -0.100000 -2.000000
vt -0.100000 2.000000
vt -0.100000 2.000000
vt -0.100000 -2.000000
vt -2.000000 -0.750000
vt -2.000000 0.750000
vt 2.000000 0.750000
vt 2.000000 -0.750000
vt -0.100000 -2.000000
vt 0.100000 -2.000000
vt 0.100000 2.000000
vt -0.100000 2.000000
vt -0.100000 -2.000000
vt -0.100000 2.000000
vt 0.100000 2.000000
vt 0.100000 -2.000000
vt -2.000000 -0.750000
vt -2.000000 0.750000
vt -2.000000 0.750000
vt -2.000000 -0.750000
vt -0.100000 2.000000
vt 0.100000 2.000000
vt 0.100000 2.000000
vt -0.100000 2.000000
vt -0.100000 -2.000000
vt -0.100000 2.000000
vt -0.100000 2.000000
vt -0.100000 -2.000000
vt -2.000000 -0.750000
vt -2.000000 0.750000
vt 2.000000 0.750000
vt 2.000000 -0.750000
vt -1.000000 -0.100000
vt 1.000000 -0.100000
vt 1.000000 0.100000
vt -1.000000 0.100000
vt -1.000000 -0.100000
vt -1.000000 0.100000
vt 1.000000 0.100000
vt 1.000000 -0.100000
vt -0.100000 -0.750000
vt -0.100000 0.750000
vt -0.100000 0.750000
vt -0.100000 -0.750000
vt -1.000000 0.100000
vt 1.000000 0.100000
vt 1.000000 0.100000
vt -1.000000 0.100000
vt -1.000000 -0.100000
vt -1.000000 0.100000
vt -1.000000 0.100000
vt -1.000000 -0.100000
vt -0.100000 -0.750000
vt -0.100000 0.750000
vt 0.100000 0.750000
vt 0.100000 -0.750000
vt -1.000000 -0.100000
vt 1.000000 -0.100000
vt 1.000000 0.100000
vt -1.000000 0.100000
vt -1.000000 -0.100000
vt -1.000000 0.100000
vt 1.000000 0.100000
vt 1.000000 -0.100000
vt -0.100000 -0.750000
vt -0.100000 0.750000
vt -0.100000 0.750000
vt -0.100000 -0.750000
vt -1.000000 0.100000
vt 1.000000 0.100000
vt 1.000000 0.100000
vt -1.000000 0.100000
vt -1.000000 -0.100000
vt -1.000000 0.100000
vt -1.000000 0.100000
vt -1.000000 -0.100000
vt -0.100000 -0.750000
vt -0.100000 0.750000
vt 0.100000 0.750000
vt 0.100000 -0.750000
vt -1.000000 -0.075000
vt 1.000000 -0.075000
vt 1.000000 0.075000
vt -1.000000 0.075000
vt -1.000000 -0.075000
vt -1.000000 0.075000
vt 1.000000 0.075000
vt 1.000000 -0.075000
vt -0.075000 -0.250000
vt -0.075000 0.250000
vt -0.075000 0.250000
vt -0.075000 -0.250000
vt -1.000000 0.075000
vt 1.000000 0.075000
vt 1.000000 0.075000
vt -1.000000 0.075000
vt -1.000000 -0.075000
vt -1.000000 0.075000
vt -1.000000 0.075000
vt -1.000000 -0.075000
vt -0.075000 -0.250000
vt -0.075000 0.250000
vt 0.075000 0.250000
vt 0.075000 -0.250000
vt -1.000000 -0.075000
vt 1.000000 -0.075000
vt 1.000000 0.075000
vt -1.000000 0.075000
vt -1.000000 -0.075000
vt -1.000000 0.075000
vt 1.000000 0.075000
vt 1.000000 -0.075000
vt -0.075000 -0.250000
vt -0.075000 0.250000
vt -0.075000 0.250000
vt -0.075000 -0.250000
vt -1.000000 0.075000
vt 1.000000 0.075000
vt 1.000000 0.075000
vt -1.000000 0.075000
vt -1.000000 -0.075000
vt -1.000000 0.075000
vt -1.000000 0.075000
vt -1.000000 -0.075000
vt -0.075000 -0.250000
vt -0.075000 0.250000
vt 0.075000 0.250000
vt 0.075000 -0.250000
vt -1.235073 -1.785243
vt -0.201411 -2.161466
vt 1.235073 1.785243
vt 0.201411 2.161466
vt -1.235073 -1.785243
vt 0.201411 2.161466
vt 1.235073 1.785243
vt -0.201411 -2.161466
vt -1.785243 -0.025000
vt -1.785243 0.025000
vt -2.161466 0.025000
vt -2.161466 -0.025000
vt 0.201411 2.161466
vt 1.235073 1.785243
vt 1.235073 1.785243
vt 0.201411 2.161466
vt -1.235073 -1.785243
vt 0.201411 2.161466
vt 0.201411 2.161466
vt -1.235073 -1.785243
vt -2.161466 -0.025000
vt -2.161466 0.025000
vt 1.785243 0.025000
vt 1.785243 -0.025000
vt 0.201411 -2.161466
vt 1.235073 -1.785243
vt -0.201411 2.161466
vt -1.235073 1.785243
vt 0.201411 -2.161466
vt -1.235073 1.785243
vt -0.201411 2.161466
vt 1.235073 -1.785243
vt -2.161466 -0.025000
vt -2.161466 0.025000
vt -1.785243 0.025000
vt -1.785243 -0.025000
vt -1.235073 1.785243
vt -0.201411 2.161466
vt -0.201411 2.161466
vt -1.235073 1.785243
vt 0.201411 -2.161466
vt -1.235073 1.785243
vt -1.235073 1.785243
vt 0.201411 -2.161466
vt -1.785243 -0.025000
vt -1.785243 0.025000
vt 2.161466 0.025000
vt 2.161466 -0.025000
vt 0.015000 -0.025000
vt 0.015000 0.815000
vt 0.010607 -0.025000
vt 0.010607 0.815000
vt 0.000000 -0.025000
vt 0.000000 0.815000
vt -0.010607 -0.025000
vt -0.010607 0.815000
vt -0.015000 -0.025000
vt -0.015000 0.815000
vt -0.010607 -0.025000
vt -0.010607 0.815000
vt -0.000000 -0.025000
vt -0.000000 0.815000
vt 0.010607 -0.025000
vt 0.010607 0.815000
vt -0.037500 -2.100000
vt 0.037500 -2.100000
vt 0.037500 2.100000
vt -0.037500 2.100000
vt -0.037500 -2.100000
vt -0.037500 2.100000
vt 0.037500 2.100000
vt 0.037500 -2.100000
vt -2.100000 -0.037500
vt -2.100000 0.037500
vt -2.100000 0.037500
vt -2.100000 -0.037500
vt -0.037500 2.100000
vt 0.037500 2.100000
vt 0.037500 2.100000
vt -0.037500 2.100000
vt -0.037500 -2.100000
vt -0.037500 2.100000
vt -0.037500 2.100000
vt -0.037500 -2.100000
vt -2.100000 -0.037500
vt -2.100000 0.037500
vt 2.100000 0.037500
vt 2.100000 -0.037500
vt -0.199000 0.000000
vt -0.199000 0.300000
vt -0.200757 0.000000
vt -0.200757 0.300000
vt -0.205000 0.000000
vt -0.205000 0.300000
vt -0.209243 0.000000
vt -0.209243 0.300000
vt -0.211000 0.000000
vt -0.211000 0.300000
vt -0.209243 0.000000
vt -0.209243 0.300000
vt -0.205000 0.000000
vt -0.205000 0.300000
vt -0.200757 0.000000
vt -0.200757 0.300000
vt -0.199000 0.000000
vt -0.199000 0.300000
vt -0.200757 0.000000
vt -0.200757 0.300000
vt -0.205000 0.000000
vt -0.205000 0.300000
vt -0.209243 0.000000
vt -0.209243 0.300000
vt -0.211000 0.000000
vt -0.211000 0.300000
vt -0.209243 0.000000
vt -0.209243 0.300000
vt -0.205000 0.000000
vt -0.205000 0.300000
vt -0.200757 0.000000
vt -0.200757 0.300000
vt -0.037500 -2.100000
vt 0.037500 -2.100000
vt 0.037500 2.100000
vt -0.037500 2.100000
vt -0.037500 -2.100000
vt -0.037500 2.100000
vt 0.037500 2.100000
vt 0.037500 -2.100000
vt -2.100000 -0.037500
vt -2.100000 0.037500
vt -2.100000 0.037500
vt -2.100000 -0.037500
vt -0.037500 2.100000
vt 0.037500 2.100000
vt 0.037500 2.100000
vt -0.037500 2.100000
vt -0.037500 -2.100000
vt -0.037500 2.100000
vt -0.037500 2.100000
vt -0.037500 -2.100000
vt -2.100000 -0.037500
vt -2.100000 0.037500
vt 2.100000 0.037500
vt 2.100000 -0.037500
vt 0.211000 0.000000
vt 0.211000 0.300000
vt 0.209243 0.000000
vt 0.209243 0.300000
vt 0.205000 0.000000
vt 0.205000 0.300000
vt 0.200757 0.000000
vt 0.200757 0.300000
vt 0.199000 0.000000
vt 0.199000 0.300000
vt 0.200757 0.000000
vt 0.200757 0.300000
vt 0.205000 0.000000
vt 0.205000 0.300000
vt 0.209243 0.000000
vt 0.209243 0.300000
vt 0.211000 0.000000
vt 0.211000 0.300000
vt 0.209243 0.000000
vt 0.209243 0.300000
vt 0.205000 0.000000
vt 0.205000 0.300000
vt 0.200757 0.000000
vt 0.200757 0.300000
vt 0.199000 0.000000
vt 0.199000 0.300000
vt 0.200757 0.000000
vt 0.200757 0.300000
vt 0.205000 0.000000
vt 0.205000 0.300000
vt 0.209243 0.000000
vt 0.209243 0.300000
vt -0.050000 -0.350000
vt 0.050000 -0.350000
vt 0.050000 0.350000
vt -0.050000 0.350000
vt -0.050000 -0.350000
vt -0.050000 0.350000
vt 0.050000 0.350000
vt 0.050000 -0.350000
vt -0.350000 -0.600000
vt -0.350000 0.600000
vt -0.350000 0.600000
vt -0.350000 -0.600000
vt -0.050000 0.350000
vt 0.050000 0.350000
vt 0.050000 0.350000
vt -0.050000 0.350000
vt -0.050000 -0.350000
vt -0.050000 0.350000
vt -0.050000 0.350000
vt -0.050000 -0.350000
vt -0.350000 -0.600000
vt -0.350000 0.600000
vt 0.350000 0.600000
vt 0.350000 -0.600000
vt -0.075000 -0.050000
vt 0.075000 -0.050000
vt 0.075000 0.050000
vt -0.075000 0.050000
vt -0.075000 -0.050000
vt -0.075000 0.050000
vt 0.075000 0.050000
vt 0.075000 -0.050000
vt -0.050000 -0.600000
vt -0.050000 0.600000
vt -0.050000 0.600000
vt -0.050000 -0.600000
vt -0.075000 0.050000
vt 0.075000 0.050000
vt 0.075000 0.050000
vt -0.075000 0.050000
vt -0.075000 -0.050000
vt -0.075000 0.050000
vt -0.075000 0.050000
vt -0.075000 -0.050000
vt -0.050000 -0.600000
vt -0.050000 0.600000
vt 0.050000 0.600000
vt 0.050000 -0.600000
vt -0.075000 -0.050000
vt 0.075000 -0.050000
vt 0.075000 0.050000
vt -0.075000 0.050000
vt -0.075000 -0.050000
vt -0.075000 0.050000
vt 0.075000 0.050000
vt 0.075000 -0.050000
vt -0.050000 -0.600000
vt -0.050000 0.600000
vt -0.050000 0.600000
vt -0.050000 -0.600000
vt -0.075000 0.050000
vt 0.075000 0.050000
vt 0.075000 0.050000
vt -0.075000 0.050000
vt -0.075000 -0.050000
vt -0.075000 0.050000
vt -0.075000 0.050000
vt -0.075000 -0.050000
vt -0.050000 -0.600000
vt -0.050000 0.600000
vt 0.050000 0.600000
vt 0.050000 -0.600000
vt -0.075000 -0.450000
vt 0.075000 -0.450000
vt 0.075000 0.450000
vt -0.075000 0.450000
vt -0.075000 -0.450000
vt -0.075000 0.450000
vt 0.075000 0.450000
vt 0.075000 -0.450000
vt -0.450000 -0.050000
vt -0.450000 0.050000
vt -0.450000 0.050000
vt -0.450000 -0.050000
vt -0.075000 0.450000
vt 0.075000 0.450000
vt 0.075000 0.450000
vt -0.075000 0.450000
vt -0.075000 -0.450000
vt -0.075000 0.450000
vt -0.075000 0.450000
vt -0.075000 -0.450000
vt -0.450000 -0.050000
vt -0.450000 0.050000
vt 0.450000 0.050000
vt 0.450000 -0.050000
vt -0.075000 -0.200000
vt 0.075000 -0.200000
vt 0.075000 0.200000
vt -0.075000 0.200000
vt -0.075000 -0.200000
vt -0.075000 0.200000
vt 0.075000 0.200000
vt 0.075000 -0.200000
vt -0.200000 -0.150000
vt -0.200000 0.150000
vt -0.200000 0.150000
vt -0.200000 -0.150000
vt -0.075000 0.200000
vt 0.075000 0.200000
vt 0.075000 0.200000
vt -0.075000 0.200000
vt -0.075000 -0.200000
vt -0.075000 0.200000
vt -0.075000 0.200000
vt -0.075000 -0.200000
vt -0.200000 -0.150000
vt -0.200000 0.150000
vt 0.200000 0.150000
vt 0.200000 -0.150000
vt 0.192000 0.150000
vt 0.192000 0.210000
vt 0.190000 0.150000
vt 0.190000 0.210000
vt 0.188000 0.150000
vt 0.188000 0.210000
vt 0.190000 0.150000
vt 0.190000 0.210000
vt 0.192000 0.150000
vt 0.192000 0.210000
vt 0.190000 0.150000
vt 0.190000 0.210000
vt 0.188000 0.150000
vt 0.188000 0.210000
vt 0.190000 0.150000
vt 0.190000 0.210000
vt 0.192000 0.150000
vt 0.192000 0.210000
vt 0.190000 0.150000
vt 0.190000 0.210000
vt 0.188000 0.150000
vt 0.188000 0.210000
vt 0.190000 0.150000
vt 0.190000 0.210000
vt -0.075000 -0.200000
vt 0.075000 -0.200000
vt 0.075000 0.200000
vt -0.075000 0.200000
vt -0.075000 -0.200000
vt -0.075000 0.200000
vt 0.075000 0.200000
vt 0.075000 -0.200000
vt -0.200000 -0.150000
vt -0.200000 0.150000
vt -0.200000 0.150000
vt -0.200000 -0.150000
vt -0.075000 0.200000
vt 0.075000 0.200000
vt 0.075000 0.200000
vt -0.075000 0.200000
vt -0.075000 -0.200000
vt -0.075000 0.200000
vt -0.075000 0.200000
vt -0.075000 -0.200000
vt -0.200000 -0.150000
vt -0.200000 0.150000
vt 0.200000 0.150000
vt 0.200000 -0.150000
vt 0.192000 0.150000
vt 0.192000 0.210000
vt 0.190000 0.150000
vt 0.190000 0.210000
vt 0.188000 0.150000
vt 0.188000 0.210000
vt 0.190000 0.150000
vt 0.190000 0.210000
vt 0.192000 0.150000
vt 0.192000 0.210000
vt 0.190000 0.150000
vt 0.190000 0.210000
vt 0.188000 0.150000
vt 0.188000 0.210000
vt 0.190000 0.150000
vt 0.190000 0.210000
vt 0.192000 0.150000
vt 0.192000 0.210000
vt 0.190000 0.150000
vt 0.190000 0.210000
vt 0.188000 0.150000
vt 0.188000 0.210000
vt 0.190000 0.150000
vt 0.190000 0.210000
vt -0.150000 -0.150000
vt 0.150000 -0.150000
vt 0.150000 0.150000
vt -0.150000 0.150000
vt -0.150000 -0.150000
vt -0.150000 0.150000
vt 0.150000 0.150000
vt 0.150000 -0.150000
vt -0.150000 -0.500000
vt -0.150000 0.500000
vt -0.150000 0.500000
vt -0.150000 -0.500000
vt -0.150000 0.150000
vt 0.150000 0.150000
vt 0.150000 0.150000
vt -0.150000 0.150000
vt -0.150000 -0.150000
vt -0.150000 0.150000
vt -0.150000 0.150000
vt -0.150000 -0.150000
vt -0.150000 -0.500000
vt -0.150000 0.500000
vt 0.150000 0.500000
vt 0.150000 -0.500000
vt 0.175000 0.520000
vt 0.175000 0.560000
vt 0.167678 0.520000
vt 0.167678 0.560000
vt 0.150000 0.520000
vt 0.150000 0.560000
vt 0.132322 0.520000
vt 0.132322 0.560000
vt 0.125000 0.520000
vt 0.125000 0.560000
vt 0.132322 0.520000
vt 0.132322 0.560000
vt 0.150000 0.520000
vt 0.150000 0.560000
vt 0.167678 0.520000
vt 0.167678 0.560000
usemtl WetRock
f 1/1 2/2 3/3
f 1/1 3/3 4/4
f 5/5 6/6 7/7
f 5/5 7/7 8/8
f 9/9 10/10 11/11
f 9/9 11/11 12/12
f 13/13 14/14 15/15
f 13/13 15/15 16/16
f 17/17 18/18 19/19
f 17/17 19/19 20/20
f 21/21 22/22 23/23
f 21/21 23/23 24/24
f 25/25 26/26 27/27
f 25/25 27/27 28/28
f 29/29 30/30 31/31
f 29/29 31/31 32/32
f 33/33 34/34 35/35
f 33/33 35/35 36/36
f 37/37 38/38 39/39
f 37/37 39/39 40/40
f 41/41 42/42 43/43
f 41/41 43/43 44/44
f 45/45 46/46 47/47
f 45/45 47/47 48/48
f 49/49 50/50 51/51
f 49/49 51/51 52/52
f 53/53 54/54 55/55
f 53/53 55/55 56/56
f 57/57 58/58 59/59
f 57/57 59/59 60/60
f 61/61 62/62 63/63
f 61/61 63/63 64/64
f 65/65 66/66 67/67
f 65/65 67/67 68/68
f 69/69 70/70 71/71
f 69/69 71/71 72/72
f 73/73 74/74 75/75
f 73/73 75/75 76/76
f 77/77 78/78 79/79
f 77/77 79/79 80/80
f 81/81 82/82 83/83
f 81/81 83/83 84/84
f 85/85 86/86 87/87
f 85/85 87/87 88/88
f 89/89 90/90 91/91
f 89/89 91/91 92/92
f 93/93 94/94 95/95
f 93/93 95/95 96/96
usemtl TowerPaint
f 97/97 98/98 99/99
f 97/97 99/99 100/100
f 101/101 102/102 103/103
f 101/101 103/103 104/104
f 105/105 106/106 107/107
f 105/105 107/107 108/108
f 109/109 110/110 111/111
f 109/109 111/111 112/112
f 113/113 114/114 115/115
f 113/113 115/115 116/116
f 117/117 118/118 119/119
f 117/117 119/119 120/120
f 121/121 122/122 123/123
f 121/121 123/123 124/124
f 125/125 126/126 127/127
f 125/125 127/127 128/128
f 129/129 130/130 131/131
f 129/129 131/131 132/132
f 133/133 134/134 135/135
f 133/133 135/135 136/136
f 137/137 138/138 139/139
f 137/137 139/139 140/140
f 141/141 142/142 143/143
f 141/141 143/143 144/144
usemtl DarkIron
f 145/145 146/146 147/147
f 145/145 147/147 148/148
f 149/149 150/150 151/151
f 149/149 151/151 152/152
f 153/153 154/154 155/155
f 153/153 155/155 156/156
f 157/157 158/158 159/159
f 157/157 159/159 160/160
f 161/161 162/162 163/163
f 161/161 163/163 164/164
f 165/165 166/166 167/167
f 165/165 167/167 168/168
f 169/169 170/170 171/171
f 169/169 171/171 172/172
f 173/173 174/174 175/175
f 173/173 175/175 176/176
f 177/177 178/178 179/179
f 177/177 179/179 180/180
f 181/181 182/182 183/183
f 181/181 183/183 184/184
f 185/185 186/186 187/187
f 185/185 187/187 188/188
f 189/189 190/190 191/191
f 189/189 191/191 192/192
f 193/193 195/195 196/196
f 193/193 196/196 194/194
f 195/195 197/197 198/198
f 195/195 198/198 196/196
f 197/197 199/199 200/200
f 197/197 200/200 198/198
f 199/199 201/201 202/202
f 199/199 202/202 200/200
f 201/201 203/203 204/204
f 201/201 204/204 202/202
f 203/203 205/205 206/206
f 203/203 206/206 204/204
f 205/205 207/207 208/208
f 205/205 208/208 206/206
f 207/207 193/193 194/194
f 207/207 194/194 208/208
f 207/207 205/205 203/203 201/201 199/199 197/197 195/195 193/193
f 194/194 196/196 198/198 200/200 202/202 204/204 206/206 208/208
f 209/209 210/210 211/211
f 209/209 211/211 212/212
f 213/213 214/214 215/215
f 213/213 215/215 216/216
f 217/217 218/218 219/219
f 217/217 219/219 220/220
f 221/221 222/222 223/223
f 221/221 223/223 224/224
f 225/225 226/226 227/227
f 225/225 227/227 228/228
f 229/229 230/230 231/231
f 229/229 231/231 232/232
f 233/233 235/235 236/236
f 233/233 236/236 234/234
f 235/235 237/237 238/238
f 235/235 238/238 236/236
f 237/237 239/239 240/240
f 237/237 240/240 238/238
f 239/239 241/241 242/242
f 239/239 242/242 240/240
f 241/241 243/243 244/244
f 241/241 244/244 242/242
f 243/243 245/245 246/246
f 243/243 246/246 244/244
f 245/245 247/247 248/248
f 245/245 248/248 246/246
f 247/247 233/233 234/234
f 247/247 234/234 248/248
f 247/247 245/245 243/243 241/241 239/239 237/237 235/235 233/233
f 234/234 236/236 238/238 240/240 242/242 244/244 246/246 248/248
f 249/249 251/251 252/252
f 249/249 252/252 250/250
f 251/251 253/253 254/254
f 251/251 254/254 252/252
f 253/253 255/255 256/256
f 253/253 256/256 254/254
f 255/255 257/257 258/258
f 255/255 258/258 256/256
f 257/257 259/259 260/260
f 257/257 260/260 258/258
f 259/259 261/261 262/262
f 259/259 262/262 260/260
f 261/261 263/263 264/264
f 261/261 264/264 262/262
f 263/263 249/249 250/250
f 263/263 250/250 264/264
f 263/263 261/261 259/259 257/257 255/255 253/253 251/251 249/249
f 250/250 252/252 254/254 256/256 258/258 260/260 262/262 264/264
f 265/265 266/266 267/267
f 265/265 267/267 268/268
f 269/269 270/270 271/271
f 269/269 271/271 272/272
f 273/273 274/274 275/275
f 273/273 275/275 276/276
f 277/277 278/278 279/279
f 277/277 279/279 280/280
f 281/281 282/282 283/283
f 281/281 283/283 284/284
f 285/285 286/286 287/287
f 285/285 287/287 288/288
f 289/289 291/291 292/292
f 289/289 292/292 290/290
f 291/291 293/293 294/294
f 291/291 294/294 292/292
f 293/293 295/295 296/296
f 293/293 296/296 294/294
f 295/295 297/297 298/298
f 295/295 298/298 296/296
f 297/297 299/299 300/300
f 297/297 300/300 298/298
f 299/299 301/301 302/302
f 299/299 302/302 300/300
f 301/301 303/303 304/304
f 301/301 304/304 302/302
f 303/303 289/289 290/290
f 303/303 290/290 304/304
f 303/303 301/301 299/299 297/297 295/295 293/293 291/291 289/289
f 290/290 292/292 294/294 296/296 298/298 300/300 302/302 304/304
f 305/305 307/307 308/308
f 305/305 308/308 306/306
f 307/307 309/309 310/310
f 307/307 310/310 308/308
f 309/309 311/311 312/312
f 309/309 312/312 310/310
f 311/311 313/313 314/314
f 311/311 314/314 312/312
f 313/313 315/315 316/316
f 313/313 316/316 314/314
f 315/315 317/317 318/318
f 315/315 318/318 316/316
f 317/317 319/319 320/320
f 317/317 320/320 318/318
f 319/319 305/305 306/306
f 319/319 306/306 320/320
f 319/319 317/317 315/315 313/313 311/311 309/309 307/307 305/305
f 306/306 308/308 310/310 312/312 314/314 316/316 318/318 320/320
f 321/321 322/322 323/323
f 321/321 323/323 324/324
f 325/325 326/326 327/327
f 325/325 327/327 328/328
f 329/329 330/330 331/331
f 329/329 331/331 332/332
f 333/333 334/334 335/335
f 333/333 335/335 336/336
f 337/337 338/338 339/339
f 337/337 339/339 340/340
f 341/341 342/342 343/343
f 341/341 343/343 344/344
usemtl TowerPaint
f 345/345 346/346 347/347
f 345/345 347/347 348/348
f 349/349 350/350 351/351
f 349/349 351/351 352/352
f 353/353 354/354 355/355
f 353/353 355/355 356/356
f 357/357 358/358 359/359
f 357/357 359/359 360/360
f 361/361 362/362 363/363
f 361/361 363/363 364/364
f 365/365 366/366 367/367
f 365/365 367/367 368/368
f 369/369 370/370 371/371
f 369/369 371/371 372/372
f 373/373 374/374 375/375
f 373/373 375/375 376/376
f 377/377 378/378 379/379
f 377/377 379/379 380/380
f 381/381 382/382 383/383
f 381/381 383/383 384/384
f 385/385 386/386 387/387
f 385/385 387/387 388/388
f 389/389 390/390 391/391
f 389/389 391/391 392/392
f 393/393 394/394 395/395
f 393/393 395/395 396/396
f 397/397 398/398 399/399
f 397/397 399/399 400/400
f 401/401 402/402 403/403
f 401/401 403/403 404/404
f 405/405 406/406 407/407
f 405/405 407/407 408/408
f 409/409 410/410 411/411
f 409/409 411/411 412/412
f 413/413 414/414 415/415
f 413/413 415/415 416/416
usemtl LanternGlass
f 417/417 418/418 419/419
f 417/417 419/419 420/420
f 421/421 422/422 423/423
f 421/421 423/423 424/424
f 425/425 426/426 427/427
f 425/425 427/427 428/428
f 429/429 430/430 431/431
f 429/429 431/431 432/432
f 433/433 434/434 435/435
f 433/433 435/435 436/436
f 437/437 438/438 439/439
f 437/437 439/439 440/440
usemtl DarkIron
f 441/441 443/443 444/444
f 441/441 444/444 442/442
f 443/443 445/445 446/446
f 443/443 446/446 444/444
f 445/445 447/447 448/448
f 445/445 448/448 446/446
f 447/447 441/441 442/442
f 447/447 442/442 448/448
f 447/447 445/445 443/443 441/441
f 442/442 444/444 446/446 448/448
f 449/449 451/451 452/452
f 449/449 452/452 450/450
f 451/451 453/453 454/454
f 451/451 454/454 452/452
f 453/453 455/455 456/456
f 453/453 456/456 454/454
f 455/455 449/449 450/450
f 455/455 450/450 456/456
f 455/455 453/453 451/451 449/449
f 450/450 452/452 454/454 456/456
f 457/457 459/459 460/460
f 457/457 460/460 458/458
f 459/459 461/461 462/462
f 459/459 462/462 460/460
f 461/461 463/463 464/464
f 461/461 464/464 462/462
f 463/463 457/457 458/458
f 463/463 458/458 464/464
f 463/463 461/461 459/459 457/457
f 458/458 460/460 462/462 464/464
usemtl LanternGlass
f 465/465 466/466 467/467
f 465/465 467/467 468/468
f 469/469 470/470 471/471
f 469/469 471/471 472/472
f 473/473 474/474 475/475
f 473/473 475/475 476/476
f 477/477 478/478 479/479
f 477/477 479/479 480/480
f 481/481 482/482 483/483
f 481/481 483/483 484/484
f 485/485 486/486 487/487
f 485/485 487/487 488/488
usemtl DarkIron
f 489/489 491/491 492/492
f 489/489 492/492 490/490
f 491/491 493/493 494/494
f 491/491 494/494 492/492
f 493/493 495/495 496/496
f 493/493 496/496 494/494
f 495/495 489/489 490/490
f 495/495 490/490 496/496
f 495/495 493/493 491/491 489/489
f 490/490 492/492 494/494 496/496
f 497/497 499/499 500/500
f 497/497 500/500 498/498
f 499/499 501/501 502/502
f 499/499 502/502 500/500
f 501/501 503/503 504/504
f 501/501 504/504 502/502
f 503/503 497/497 498/498
f 503/503 498/498 504/504
f 503/503 501/501 499/499 497/497
f 498/498 500/500 502/502 504/504
f 505/505 507/507 508/508
f 505/505 508/508 506/506
f 507/507 509/509 510/510
f 507/507 510/510 508/508
f 509/509 511/511 512/512
f 509/509 512/512 510/510
f 511/511 505/505 506/506
f 511/511 506/506 512/512
f 511/511 509/509 507/507 505/505
f 506/506 508/508 510/510 512/512
usemtl WetRock
f 513/513 514/514 515/515
f 513/513 515/515 516/516
f 517/517 518/518 519/519
f 517/517 519/519 520/520
f 521/521 522/522 523/523
f 521/521 523/523 524/524
f 525/525 526/526 527/527
f 525/525 527/527 528/528
f 529/529 530/530 531/531
f 529/529 531/531 532/532
f 533/533 534/534 535/535
f 533/533 535/535 536/536
usemtl DarkIron
f 537/537 539/539 540/540
f 537/537 540/540 538/538
f 539/539 541/541 542/542
f 539/539 542/542 540/540
f 541/541 543/543 544/544
f 541/541 544/544 542/542
f 543/543 545/545 546/546
f 543/543 546/546 544/544
f 545/545 547/547 548/548
f 545/545 548/548 546/546
f 547/547 549/549 550/550
f 547/547 550/550 548/548
f 549/549 551/551 552/552
f 549/549 552/552 550/550
f 551/551 537/537 538/538
f 551/551 538/538 552/552
f 551/551 549/549 547/547 545/545 543/543 541/541 539/539 537/537
f 538/538 540/540 542/542 544/544 546/546 548/548 550/550 552/552
